<?xml version="1.0" encoding="UTF-8"?>
<svg id="Layer_3" data-name="Layer 3" xmlns="http://www.w3.org/2000/svg" viewBox="0 0 762.43 318.45">
  <defs>
    <style>
      .cls-1 {
        fill: #fff;
        stroke: #fff;
        stroke-miterlimit: 10;
        stroke-width: 5px;
      }
    </style>
  </defs>
  <path class="cls-1" d="M204.12,159.22c0,34.48-27.95,62.42-62.42,62.42s-62.42-27.95-62.42-62.42,27.95-62.42,62.42-62.42,62.42,27.95,62.42,62.42Zm-62.42-36.59c-20.21,0-36.59,16.38-36.59,36.59s16.38,36.59,36.59,36.59,36.59-16.38,36.59-36.59-16.38-36.59-36.59-36.59Zm0-118.63c-13.47,0-24.39,10.92-24.39,24.39s10.92,24.39,24.39,24.39,24.39-10.92,24.39-24.39-10.92-24.39-24.39-24.39Zm0,310.45c13.47,0,24.39-10.92,24.39-24.39s-10.92-24.39-24.39-24.39c-13.47,0-24.39,10.92-24.39,24.39s10.92,24.39,24.39,24.39ZM7.27,81.61c-6.73,11.66-2.74,26.58,8.93,33.31s26.58,2.74,33.31-8.93c6.73-11.66,2.74-26.58-8.93-33.31-11.66-6.73-26.58-2.74-33.31,8.93ZM276.13,236.84c6.73-11.66,2.74-26.58-8.93-33.31-11.66-6.73-26.58-2.74-33.31,8.93-6.73,11.66-2.74,26.58,8.93,33.31,11.66,6.73,26.58,2.74,33.31-8.93Zm-268.86,0c6.73,11.66,21.65,15.66,33.31,8.93s15.66-21.65,8.93-33.31c-6.73-11.66-21.65-15.66-33.31-8.93-11.66,6.73-15.66,21.65-8.93,33.31ZM276.13,81.61c-6.73-11.66-21.65-15.66-33.31-8.93-11.66,6.73-15.66,21.65-8.93,33.31,6.73,11.66,21.65,15.66,33.31,8.93,11.66-6.73,15.66-21.65,8.93-33.31Zm-134.43,15.19V52.77m-54.06,75.24l-38.13-22.01m184.38,106.45l-38.13-22.01m-108.12,0l-38.13,22.01M233.89,106l-38.13,22.01m-54.06,137.66v-44.03m206.69-83.45c0,2.54,.51,4.64,1.54,6.29,1.03,1.66,2.41,3.02,4.15,4.1,1.74,1.08,3.75,1.96,6.05,2.65,2.3,.69,4.69,1.33,7.18,1.94,3.35,.82,6.64,1.72,9.88,2.71,3.24,.99,6.13,2.36,8.66,4.1,2.53,1.74,4.58,4.01,6.15,6.81,1.57,2.8,2.35,6.39,2.35,10.78s-.85,8.34-2.54,11.58c-1.7,3.25-4.04,5.92-7.04,8s-6.53,3.64-10.62,4.65c-4.09,1.01-8.56,1.52-13.42,1.52-2.24,0-4.53-.14-6.87-.42-2.35-.28-4.58-.66-6.71-1.13s-4.06-1.01-5.78-1.61c-1.72-.6-3.08-1.2-4.07-1.81v-9.62c1.55,.77,3.29,1.48,5.23,2.13,1.94,.65,3.94,1.19,6,1.65,2.06,.45,4.15,.81,6.26,1.07,2.11,.26,4.09,.39,5.94,.39,3.01,0,5.88-.26,8.62-.77,2.73-.52,5.13-1.38,7.2-2.58,2.07-1.2,3.7-2.85,4.91-4.94,1.2-2.09,1.81-4.7,1.81-7.84,0-2.58-.53-4.71-1.58-6.39-1.06-1.68-2.46-3.07-4.23-4.16-1.77-1.1-3.8-1.99-6.1-2.68-2.3-.69-4.72-1.33-7.26-1.94-3.36-.77-6.64-1.65-9.84-2.61-3.21-.97-6.07-2.31-8.58-4.03-2.52-1.72-4.54-3.94-6.07-6.65-1.53-2.71-2.29-6.17-2.29-10.39s.8-8.16,2.41-11.33,3.78-5.78,6.52-7.84c2.74-2.07,5.9-3.59,9.47-4.58,3.57-.99,7.38-1.48,11.42-1.48,4.6,0,8.9,.44,12.88,1.32,3.98,.88,7.63,2.03,10.94,3.45v9.75c-3.57-1.51-7.26-2.73-11.07-3.68-3.81-.95-7.89-1.44-12.23-1.48-3.27,0-6.11,.35-8.52,1.06-2.41,.71-4.41,1.72-6,3.03-1.59,1.31-2.78,2.9-3.55,4.78-.77,1.87-1.16,3.95-1.16,6.23Zm64.54,63.51V115.35h10.52v86.36h-10.52Zm88.94-34.92h-19.69v-9.49h30.21v41.76c-.9,.47-2.23,.96-3.97,1.45-1.74,.5-3.73,.96-5.97,1.39s-4.64,.77-7.2,1.03c-2.56,.26-5.09,.39-7.58,.39-7.4,0-13.93-1.01-19.59-3.03-5.66-2.02-10.4-4.88-14.23-8.58-3.83-3.7-6.73-8.2-8.71-13.49-1.98-5.29-2.97-11.19-2.97-17.68,0-7.06,1.08-13.47,3.25-19.23,2.17-5.77,5.31-10.69,9.42-14.78,4.11-4.09,9.09-7.24,14.92-9.46,5.83-2.22,12.25-3.32,19.27-3.32,1.89,0,3.79,.08,5.68,.23,1.89,.15,3.7,.37,5.42,.65,1.72,.28,3.31,.61,4.78,1,1.46,.39,2.69,.8,3.68,1.23v9.29c-2.58-.86-5.55-1.58-8.91-2.16-3.36-.58-6.71-.87-10.07-.87-4.9,0-9.58,.74-14.04,2.23-4.45,1.48-8.38,3.73-11.78,6.74-3.4,3.01-6.11,6.79-8.13,11.33-2.02,4.54-3.03,9.86-3.03,15.97s.84,11.15,2.52,15.49c1.68,4.35,4.05,7.94,7.13,10.78s6.8,4.94,11.18,6.29,9.25,2.03,14.62,2.03c2.48,0,4.94-.13,7.36-.39,2.42-.26,4.57-.62,6.44-1.1v-25.69Zm76.16-3.29c5.29,7.62,10.52,15.45,15.68,23.49h.39c-.56-8.39-.84-16.95-.84-25.69v-45.95h10.58v86.36h-10.52l-33.88-48.15c-5.85-8.39-11.08-16.22-15.68-23.49h-.39c.56,7.87,.84,17.06,.84,27.56v44.08h-10.52V115.35h10.46l33.88,48.15Zm58.22,28.72h44.28v9.49h-54.8V115.35h52.41v9.49h-41.89v27.88h37.24v9.49h-37.24v30.01Zm93.33,9.49h-10.52V124.84h-28.85v-9.49h68.22v9.49h-28.85v76.87Z"/>
</svg>