<?xml version="1.0" encoding="UTF-8"?>
<svg id="Layer_3" data-name="Layer 3" xmlns="http://www.w3.org/2000/svg" viewBox="0 0 314.25 273">
  <defs>
    <style>
      .cls-1 {
        fill: none;
        stroke: #FFF;
        stroke-miterlimit: 10;
        stroke-width: 5px;
      }
    </style>
  </defs>
  <path class="cls-1" d="M182.58,135.5c0,13.23-10.72,23.95-23.95,23.95s-23.95-10.72-23.95-23.95,10.72-23.95,23.95-23.95,23.95,10.72,23.95,23.95Zm-23.95-14.04c-7.75,0-14.04,6.29-14.04,14.04s6.29,14.04,14.04,14.04,14.04-6.29,14.04-14.04-6.29-14.04-14.04-14.04Zm0-45.52c-5.17,0-9.36,4.19-9.36,9.36s4.19,9.36,9.36,9.36,9.36-4.19,9.36-9.36-4.19-9.36-9.36-9.36Zm0,119.13c5.17,0,9.36-4.19,9.36-9.36s-4.19-9.36-9.36-9.36-9.36,4.19-9.36,9.36,4.19,9.36,9.36,9.36Zm-51.58-89.35c-2.58,4.48-1.05,10.2,3.43,12.78s10.2,1.05,12.78-3.43,1.05-10.2-3.43-12.78-10.2-1.05-12.78,3.43Zm103.17,59.56c2.58-4.48,1.05-10.2-3.43-12.78s-10.2-1.05-12.78,3.43c-2.58,4.48-1.05,10.2,3.43,12.78s10.2,1.05,12.78-3.43Zm-103.17,0c2.58,4.48,8.31,6.01,12.78,3.43s6.01-8.31,3.43-12.78-8.31-6.01-12.78-3.43-6.01,8.31-3.43,12.78Zm103.17-59.56c-2.58-4.48-8.31-6.01-12.78-3.43-4.48,2.58-6.01,8.31-3.43,12.78,2.58,4.48,8.31,6.01,12.78,3.43s6.01-8.31,3.43-12.78Zm-51.58,5.83v-16.89m-20.74,28.87l-14.63-8.45m56.12,32.4l14.63,8.45m-56.12-8.45l-14.63,8.45m70.75-40.85l-14.63,8.45m-20.74,52.83v-16.89"/>
</svg>