<?xml version="1.0" encoding="UTF-8"?>
<svg id="Layer_1" data-name="Layer 1" xmlns="http://www.w3.org/2000/svg" viewBox="0 0 283.63 71.49">
  <defs>
    <style>
      .cls-1 {
        fill: #fff;
      }
    </style>
  </defs>
  <path class="cls-1" d="m195.37,71.49H0V0h195.37c13.96,13.96,21.78,21.78,35.74,35.74h0c-13.96,13.97-21.78,21.79-35.74,35.75Z"/>
  <path class="cls-1" d="m195.37,0c13.96,13.96,21.78,21.78,35.74,35.74h0c-13.96,13.97-21.78,21.79-35.74,35.75"/>
  <path class="cls-1" d="m222.43,71.49c13.96-13.96,21.78-21.78,35.74-35.74h0c-13.96-13.97-21.78-21.79-35.74-35.75h-15.17c13.96,13.96,21.78,21.78,35.74,35.74h0c-13.96,13.97-21.78,21.79-35.74,35.75h15.17Z"/>
  <path class="cls-1" d="m247.89,71.49c13.96-13.96,21.78-21.78,35.74-35.74h0c-13.96-13.97-21.78-21.79-35.74-35.75h-15.17c13.96,13.96,21.78,21.78,35.74,35.74h0c-13.96,13.97-21.78,21.79-35.74,35.75h15.17Z"/>
</svg>