<?xml version="1.0" encoding="UTF-8"?>
<svg id="Layer_1" data-name="Layer 1" xmlns="http://www.w3.org/2000/svg" viewBox="0 0 62.12 27.23">
  <defs>
    <style>
      .cls-1 {
        fill: #fff;
      }

      .cls-2 {
        opacity: .21;
      }
    </style>
  </defs>
  <g class="cls-2">
    <path class="cls-1" d="m62.12,27.23H5.28V2.72h56.85v24.52Zm-56.58-.27h56.31V2.99H5.55v23.98Z"/>
    <rect class="cls-1" y="2.99" width="3.01" height="24.25"/>
    <polygon class="cls-1" points="1.6 1.73 1.41 1.54 2.66 .29 31.73 .29 32.75 1.3 55.93 1.3 55.93 1.57 32.63 1.57 31.62 .56 2.77 .56 1.6 1.73"/>
    <g>
      <polygon class="cls-1" points="32.44 .02 33.25 .83 39.98 .83 39.15 0 32.44 .02"/>
      <polygon class="cls-1" points="40.2 .02 41.01 .83 47.75 .83 46.92 0 40.2 .02"/>
      <polygon class="cls-1" points="47.97 .02 48.78 .83 55.52 .83 54.69 0 47.97 .02"/>
    </g>
    <polygon class="cls-1" points="57.8 3.88 61.1 3.88 61.1 9.92 60.41 9.24 60.41 5.24 59.9 4.73 58.64 4.73 57.8 3.88"/>
    <polygon class="cls-1" points="61.3 22.76 61.3 26.06 55.26 26.06 55.94 25.38 59.94 25.38 60.45 24.87 60.45 23.61 61.3 22.76"/>
  </g>
</svg>