<?xml version="1.0" encoding="UTF-8"?>
<svg id="Layer_1" data-name="Layer 1" xmlns="http://www.w3.org/2000/svg" viewBox="0 0 275.57 71.49">
  <defs>
    <style>
      .cls-1 {
        fill: #fff;
      }
    </style>
  </defs>
  <path class="cls-1" d="m76.89,13.79H15.4L1.78.17l61.32-.17,13.79,13.79Zm43.91,43.91h-61.49l13.79,13.79h61.49l-13.79-13.79ZM133.59,0l-61.32.17,13.62,13.62h61.49l-13.79-13.79Zm57.7,57.7h-61.49l13.79,13.79h61.49l-13.79-13.79ZM0,7.38v6.41h6.41L0,7.38Zm50.32,50.32H0v13.79h64.11l-13.79-13.79ZM204.08,0l-61.32.17,13.62,13.62h61.49l-13.79-13.79Zm57.7,57.7h-61.49l13.79,13.79h61.49l-13.79-13.79ZM213.25.17l13.62,13.62h48.7V0l-62.32.17Zm62.32,62.32v-4.79h-4.79l4.79,4.79Z"/>
</svg>