<?xml version="1.0" encoding="UTF-8"?>
<svg id="Layer_1" data-name="Layer 1" xmlns="http://www.w3.org/2000/svg" viewBox="0 0 114 114">
  <defs>
    <style>
      .cls-1 {
        fill: #fff;
      }

      .cls-2 {
        fill: none;
        stroke: #fff;
        stroke-miterlimit: 10;
      }
    </style>
  </defs>
  <path class="cls-1" d="m57,0C25.52,0,0,25.52,0,57h0v.04h0s0,.03,0,.04v.04s0,.01,0,.02v.03s0,.01,0,.02v.03s0,.01,0,.02c0,0,0,.02,0,.03,0,0,0,.01,0,.02,0,0,0,.02,0,.03v.02s0,.02,0,.03c0,0,0,0,0,.01,0,.02,0,.03,0,.04,0,0,0,0,0,.01,0,0,0,.02,0,.03,0,0,0,.01,0,.02,0,0,0,.02,0,.03,0,0,0,.01,0,.02,0,0,0,.02,0,.02,0,0,0,.01,0,.02,0,0,0,.02,0,.02,0,0,0,.01,0,.02,0,0,0,.02,0,.03,0,0,0,.01,0,.02,0,0,0,.02,0,.03,0,0,0,.01,0,.02,0,0,0,.02,0,.03,0,0,0,.01,0,.02,0,.02,0,.03,0,.04H0s0,.03,0,.05c0,0,0,.01,0,.01,0,0,0,.02,0,.03,0,0,0,.01,0,.02,0,0,0,.02,0,.03,0,0,0,.01,0,.02,0,0,0,.02,0,.02,0,0,0,.01,0,.02,0,0,0,.02,0,.03,0,0,0,.01,0,.02,0,0,0,.02,0,.02,0,0,0,.01,0,.02,0,0,0,.02,0,.03,0,0,0,.01,0,.02,0,0,0,.02,0,.03,0,0,0,0,0,0,0,.02,0,.03,0,.04,0,0,0,0,0,0,0,.01,0,.02,0,.04,0,0,0,.01,0,.02,0,0,0,.02,0,.03,0,0,0,.01,0,.02,0,0,0,.02,0,.03,0,0,0,.01,0,.02,0,0,0,.02,0,.03,0,0,0,.01,0,.02,0,0,0,.02,0,.03,0,0,0,.01,0,.02,0,0,0,.02,0,.03,0,0,0,.01,0,.02,0,0,0,.02,0,.03,0,0,0,.01,0,.02,0,.01,0,.03,0,.04,0,0,0,0,0,0,0,.02,0,.03,0,.04,0,0,0,0,0,.01,0,0,0,.02,0,.03,0,0,0,.01,0,.02,0,0,0,.02,0,.03,0,0,0,.01,0,.02,0,0,0,.02,0,.03,0,0,0,.01,0,.02,0,0,0,.02,0,.03,0,0,0,.01,0,.02,0,0,0,.02,0,.03,0,0,0,.01,0,.02,0,0,0,.02,0,.03,0,0,0,.01,0,.02,0,0,0,.02,0,.03,0,0,0,0,0,.01,0,.03,0,.06,0,.09,0,0,0,.01,0,.02,0,0,0,.02,0,.03,0,0,0,.01,0,.02,0,0,0,.02,0,.03,0,0,0,.01,0,.02,0,0,0,.02,0,.03,0,0,0,.01,0,.02,0,0,0,.02,0,.03,0,0,0,.01,0,.02,0,0,0,.02,0,.03,0,0,0,.01,0,.02,0,0,0,.02,0,.03,0,0,0,0,0,.01,0,.02,0,.03,0,.04,0,0,0,0,0,0,0,.02,0,.03,0,.04,0,0,0,0,0,.01,0,0,0,.02,0,.03,0,0,0,.01,0,.02,0,0,0,.02,0,.03,0,0,0,.01,0,.02,0,0,0,.02,0,.03,0,0,0,.01,0,.02,0,0,0,.02,0,.03,0,0,0,.01,0,.02,0,0,0,.02,0,.03,0,0,0,.01,0,.02,0,0,0,.02,0,.03,0,0,0,0,0,.01,0,0,0,.02,0,.03,0,0,0,0,0,.01,0,.02,0,.03,0,.04,0,0,0,0,0,0,0,.01,0,.03,0,.04,0,0,0,0,0,.01,0,0,0,.02,0,.03,0,0,0,.01,0,.02,0,0,0,.02,0,.03,0,0,0,.01,0,.02,0,0,0,.02,0,.02,0,0,0,.01,0,.02,0,0,0,.02,0,.02,0,0,0,.01,0,.02,0,0,0,.01,0,.02,0,0,0,.01,0,.02,0,0,0,.02,0,.03,0,0,0,.01,0,.02,0,0,0,.02,0,.03,0,0,0,0,0,.01,0,.02,0,.03,0,.04,0,0,0,0,0,.01,0,0,0,.02,0,.03,0,0,0,.01,0,.02,0,0,0,.02,0,.03,0,0,0,.01,0,.02,0,0,0,.02,0,.03,0,0,0,.01,0,.02,0,0,0,.02,0,.03,0,0,0,.01,0,.02,0,0,0,.02,0,.03,0,0,0,.01,0,.02,0,0,0,.02,0,.03,0,0,0,.01,0,.02,0,0,0,.02,0,.03,0,0,0,.01,0,.02,0,.02,0,.03,0,.04,0,0,0,0,0,0,0,.02,0,.02,0,.04,0,0,0,.01,0,.02,0,0,0,.02,0,.03,0,0,0,.01,0,.02,0,0,0,.02,0,.03,0,0,0,.01,0,.02,0,0,0,.02,0,.02,0,0,0,.01,0,.02,0,0,0,.02,0,.03,0,0,0,.01,0,.02,0,0,0,.02,0,.03,0,0,0,.01,0,.02,0,0,0,.02,0,.03,0,0,0,.01,0,.02,0,0,0,.02,0,.03,0,0,0,0,0,.01,0,.02,0,.03,0,.04,0,0,0,0,0,0,0,.01,0,.02,0,.03,0,0,0,.01,0,.02,0,0,0,.02,0,.03,0,0,0,.01,0,.02,0,0,0,.02,0,.03,0,0,0,.01,0,.02,0,0,0,.02,0,.03,0,0,0,.01,0,.02,0,0,0,.02,0,.02,0,0,0,.01,0,.02,0,0,0,.02,0,.02,0,0,0,.01,0,.02,0,0,0,.02,0,.03,0,0,0,.01,0,.02,0,.01,0,.02,0,.03,0,0,0,.01,0,.02,0,0,0,.02,0,.03,0,0,0,.01,0,.02,0,0,0,.02,0,.02,0,0,0,.01,0,.02,0,0,0,.02,0,.02,0,0,0,.01,0,.02,0,0,0,.02,0,.02,0,0,0,.01,0,.02,0,0,0,.02,0,.02,0,0,0,.01,0,.02,0,0,0,.01,0,.02,0,0,0,.01,0,.02,0,0,0,.02,0,.03,0,0,0,.01,0,.02,0,0,0,.02,0,.03,0,0,0,0,0,.01,0,.01,0,.03,0,.04,0,0,0,.01,0,.02,0,0,0,.02,0,.03,0,0,0,.01,0,.02,0,0,0,.02,0,.02,0,0,0,.01,0,.02,0,0,0,.01,0,.02,0,0,0,.01,0,.02,0,0,0,.02,0,.02,0,0,0,.01,0,.02,0,0,0,.02,0,.02,0,0,0,.01,0,.02,0,0,0,.02,0,.02,0,0,0,.01,0,.02,0,0,0,.02,0,.02,0,0,0,.01,0,.02,0,.01,0,.02,0,.03,0,0,0,0,0,.01,0,.01,0,.03,0,.04,0,0,0,.01,0,.02,0,0,0,.02,0,.02,0,0,0,.01,0,.02,0,0,0,.02,0,.02,0,0,0,.01,0,.02,0,0,0,.02,0,.02,0,0,0,.01,0,.02,0,0,0,.02,0,.02,0,0,0,.01,0,.02,0,0,0,.02,0,.02,0,0,0,.01,0,.02,0,0,0,.02,0,.02,0,0,0,.01,0,.02,0,0,0,.02,0,.03,0,0,0,.01,0,.02,0,.01,0,.03,0,.04,0,0,0,.01,0,.02,0,0,0,.02,0,.02,0,0,0,.01,0,.02,0,0,0,.02,0,.02,0,0,0,.01,0,.02,0,0,0,.01,0,.02,0,0,0,.01,0,.02,0,0,0,.01,0,.02,0,0,0,.01,0,.02,0,0,0,.01,0,.02,0,0,0,.01,0,.02,0,0,0,.01,0,.02,0,0,0,.01,0,.02,0,0,0,.01,0,.02,0,0,0,.01,0,.02,0,0,0,.02,0,.02,0,.01,0,.02,0,.03,0,0,0,.02,0,.03,0,0,0,.01,0,.02,0,0,0,.02,0,.02,0,0,0,.01,0,.02,0,0,0,.02,0,.02,0,0,0,.01,0,.02,0,0,0,.02,0,.02,0,0,0,.01,0,.02,0,0,0,.01,0,.02,0,0,0,.01,0,.02,0,0,0,.02,0,.02,0,0,0,.01,0,.02,0,0,0,.01,0,.02,0,0,0,.01,0,.02,0,0,0,.01,0,.02,0,0,0,.01,0,.02,0,.01,0,.02,0,.03,0,.01,0,.02,0,.03,0,0,0,.01,0,.02,0,0,0,.01,0,.02,0,0,0,.01,0,.02,0,0,0,.01,0,.02,0,0,0,.02,0,.02,0,0,0,.01,0,.02,0,0,0,.01,0,.02,0,0,0,.01,0,.02,0,0,0,.01,0,.02,0,0,0,.01,0,.02,0,0,0,.02,0,.02,0,0,0,.01,0,.02,0,0,0,.01,0,.02,0,0,0,.01,0,.02,0,0,0,.01,0,.02,0,0,0,.02,0,.03,0,.01,0,.02,0,.03,0,0,0,.01,0,.02,0,0,0,.02,0,.02,0,0,0,.01,0,.02,0,0,0,.02,0,.02,0,0,0,.01,0,.02,0,0,0,.01,0,.02,0,0,0,.01,0,.02,0,0,0,.01,0,.02,0,0,0,.01,0,.02,0,0,0,.01,0,.02,0,0,0,.01,0,.02,0,0,0,.01,0,.02,0,0,0,.01,0,.02,0,0,0,.01,0,.02,0,0,0,.01,0,.02,0,.01,0,.02,0,.04,0,0,0,.01,0,.02,0,0,0,.02,0,.03,0,0,0,.01,0,.02,0,0,0,.01,0,.02,0,0,0,.01,0,.02,0,0,0,.01,0,.02,0,0,0,.01,0,.02,0,0,0,.01,0,.02,0,0,0,.01,0,.02,0,0,0,.01,0,.02,0,0,0,.01,0,.02,0,0,0,.01,0,.02,0,0,0,.02,0,.02,0,0,0,.01,0,.02,0,0,0,.02,0,.02,0,0,0,.01,0,.02,0,.02,0,.03,0,.05,0,0,0,.01,0,.02,0,0,0,.02,0,.02,0,0,0,.01,0,.02,0,0,0,.02,0,.02,0,0,0,.01,0,.02,0,0,0,.01,0,.02,0,0,0,.02,0,.02,0,0,0,.01,0,.02,0,0,0,.01,0,.02,0,0,0,.01,0,.02,0,0,0,.01,0,.02,0,0,0,.01,0,.02,0,0,0,.01,0,.02,0,0,0,.01,0,.02,0,0,0,.01,0,.02,0,0,0,.01,0,.02,0,0,0,.02,0,.03,0,0,0,.02,0,.02,0,0,0,.02,0,.03,0,0,0,.01,0,.02,0,0,0,.01,0,.02,0,0,0,.01,0,.02,0,0,0,.01,0,.02,0,0,0,.01,0,.02,0,0,0,.01,0,.02,0,0,0,.01,0,.02,0,0,0,.01,0,.02,0,0,0,.01,0,.02,0,0,0,.01,0,.02,0,0,0,.01,0,.02,0,0,0,.01,0,.02,0,0,0,.02,0,.02,0,0,0,.01,0,.02,0,0,0,.01,0,.02,0,.01,0,.03,0,.04,0,0,0,.01,0,.02,0,0,0,.01,0,.02,0,0,0,.01,0,.02,0,0,0,.01,0,.02,0,0,0,.02,0,.02,0,0,0,.01,0,.02,0,0,0,.02,0,.02,0,0,0,.01,0,.02,0,0,0,.02,0,.02,0,0,0,.01,0,.02,0,0,0,.02,0,.02,0,0,0,.01,0,.02,0,0,0,.01,0,.02,0,0,0,.01,0,.02,0,0,0,.01,0,.02,0,0,0,0,0,.01,0,.02,0,.04,0,.06,0,0,0,0,0,.01,0,0,0,.02,0,.02,0,0,0,.01,0,.02,0,0,0,.02,0,.02,0,0,0,.01,0,.02,0,0,0,.02,0,.03,0,0,0,.01,0,.02,0,0,0,.02,0,.03,0,0,0,.01,0,.02,0,0,0,.02,0,.02,0,0,0,.01,0,.02,0,0,0,.02,0,.02,0,0,0,0,0,.02,0,0,0,.02,0,.02,0,0,0,.01,0,.02,0,.03,0,.06.01.09,0,0,0,0,0,.01,0,0,0,.02,0,.03,0,0,0,.01,0,.02,0,0,0,.02,0,.02,0,0,0,.01,0,.02,0,0,0,.02,0,.02,0,0,0,.01,0,.02,0,0,0,.02,0,.02,0,0,0,.01,0,.02,0,0,0,.02,0,.02,0,0,0,.01,0,.02,0,0,0,.02,0,.02,0,0,0,0,0,.02,0,0,0,.02,0,.03,0,0,0,0,0,.01,0,.02,0,.04.01.06,0,0,0,0,0,0,0,0,0,.02,0,.03,0,0,0,.01,0,.02,0,0,0,.02,0,.02,0,0,0,.01,0,.02,0,0,0,.02,0,.02,0,0,0,.01,0,.02,0,0,0,.02,0,.02,0,0,0,.01,0,.02,0,0,0,.02,0,.02,0,0,0,.01,0,.02,0,0,0,.02,0,.02,0,0,0,.01,0,.02,0,0,0,.02,0,.03,0,0,0,0,0,.01,0,.03.01.06.02.09,0,0,0,.01,0,.02,0,0,0,.02,0,.03,0,0,0,.01,0,.02,0,0,0,.02,0,.03,0,0,0,.01,0,.02,0,0,0,.02,0,.02,0,0,0,.01,0,.02,0,0,0,.02,0,.02,0,0,0,.01,0,.02,0,0,0,.02,0,.02,0,0,0,.01,0,.02,0,0,0,.02,0,.02,0,0,0,.01,0,.02,0,0,0,.02,0,.02,0,0,0,0,0,.01,0,.03.01.06.02.1,0,0,0,0,0,.01,0,0,0,.02,0,.03,0,0,0,.01,0,.01,0,0,0,.02,0,.03,0,0,0,.01,0,.02,0,0,0,.02,0,.03,0,0,0,.01,0,.02,0,0,0,.02,0,.02,0,0,0,.01,0,.02,0,0,0,.02,0,.02,0,0,0,.01,0,.02,0,0,0,.02,0,.02,0,0,0,.01,0,.02,0,.03.01.06.02.09,0,0,0,0,0,0,0,0,0,.02,0,.03,0,0,0,.01,0,.02,0,0,0,.02,0,.03,0,0,0,.01,0,.02,0,0,0,.02,0,.03,0,0,0,.01,0,.02,0,0,0,.02,0,.03,0,0,0,0,0,.01,0,0,0,.02,0,.03,0,0,0,.01,0,.02,0,0,0,.02,0,.03,0,0,0,0,0,.01,0,0,0,.02,0,.03h0s.01.07.02.11c0,0,0,0,0,0,0,0,0,.02,0,.03,0,0,0,.01,0,.01,0,0,0,.02,0,.03,0,0,0,.01,0,.02,0,0,0,.02,0,.02,0,0,0,0,0,.02,0,0,0,.02,0,.02,0,0,0,0,0,.02,0,0,0,.02,0,.03,0,0,0,.01,0,.01,0,0,0,.02,0,.03,0,0,0,0,0,.01,0,.03.01.07.02.1,0,0,0,0,0,0,0,.01,0,.02,0,.03,0,0,0,0,0,.01,0,0,0,.02,0,.03,0,0,0,.01,0,.01,0,0,0,.02,0,.03,0,0,0,0,0,.01,0,0,0,.02,0,.03,0,0,0,0,0,.01,0,0,0,.02,0,.03,0,0,0,0,0,.01,0,0,0,.02,0,.03,0,0,0,0,0,.01,0,.05.02.09.03.14,0,0,0,0,0,.01,0,0,0,.02,0,.03,0,0,0,0,0,.01,0,0,0,.02,0,.03,0,0,0,0,0,.01,0,0,0,.02,0,.03,0,0,0,.01,0,.01,0,0,0,.02,0,.03,0,0,0,0,0,.02,0,0,0,.02,0,.03,0,0,0,0,0,.01,0,0,0,.02,0,.03,0,0,0,0,0,0,0,.04.02.07.02.11h0s0,.02,0,.03c0,0,0,0,0,.01,0,0,0,.02,0,.03,0,0,0,0,0,.01,0,0,0,.02,0,.03,0,0,0,0,0,.01,0,0,0,.02,0,.03,0,0,0,0,0,.01,0,0,0,.02,0,.03,0,0,0,.01,0,.01,0,0,0,.02,0,.03,0,0,0,0,0,.01,0,0,0,.02,0,.03,0,0,0,0,0,0,0,.03.01.07.02.1,0,0,0,0,0,0,0,0,0,.02,0,.03,0,0,0,.01,0,.01,0,0,0,.02,0,.03,0,0,0,0,0,.01,0,0,0,.02,0,.03,0,0,0,.01,0,.01,0,0,0,.02,0,.03,0,0,0,0,0,.01,0,0,0,.02,0,.03,0,0,0,0,0,.01,0,0,0,.02,0,.03,0,0,0,0,0,0,0,.04.02.07.02.11h0s0,.02,0,.03c0,0,0,0,0,0,0,0,0,.02,0,.03,0,0,0,0,0,.01,0,0,0,.02,0,.03,0,0,0,0,0,.01,0,0,0,.02,0,.02,0,0,0,.01,0,.02,0,0,0,.02,0,.03,0,0,0,0,0,.01,0,0,0,.02,0,.03,0,0,0,0,0,.01,0,0,0,.02,0,.03,0,0,0,0,0,0,0,.03.02.07.02.1,0,0,0,0,0,0,0,0,0,.02,0,.03,0,0,0,0,0,.01,0,0,0,.02,0,.02,0,0,0,.01,0,.02,0,0,0,.02,0,.02,0,0,0,0,0,.02,0,0,0,.02,0,.03,0,0,0,0,0,.01,0,0,0,.02,0,.03,0,0,0,0,0,.01,0,0,0,.02,0,.03,0,0,0,0,0,.01.01.04.02.09.03.13,0,0,0,0,0,.01,0,0,0,.02,0,.03,0,0,0,.01,0,.01,0,0,0,.02,0,.03,0,0,0,0,0,.01,0,0,0,.02,0,.03,0,0,0,.01,0,.01,0,0,0,.02,0,.03,0,0,0,0,0,.01,0,0,0,.02,0,.03,0,0,0,.01,0,.01,0,0,0,.02,0,.03,0,0,0,0,0,.01,0,.03.02.06.02.1,0,0,0,0,0,.01,0,0,0,.02,0,.03,0,0,0,0,0,.01,0,0,0,.02,0,.03,0,0,0,0,0,.01,0,0,0,.02,0,.02,0,0,0,.01,0,.02,0,0,0,.02,0,.02,0,0,0,.01,0,.02,0,0,0,.02,0,.02,0,0,0,.01,0,.02,0,0,0,.02,0,.02,0,0,0,.01,0,.02,0,0,0,.02,0,.02,0,0,0,.01,0,.01,0,.02,0,.04.01.05,0,0,0,0,0,.01,0,0,0,.02,0,.02,0,0,0,0,0,.01,0,0,0,.02,0,.02,0,0,0,.01,0,.02,0,0,0,.02,0,.02,0,0,0,.01,0,.02,0,0,0,.02,0,.02,0,0,0,0,0,.02,0,0,0,.02,0,.02,0,0,0,.01,0,.02,0,0,0,.02,0,.02,0,0,0,.01,0,.02,0,0,0,.02,0,.02,0,0,0,0,0,.01,0,.03.02.06.02.09,0,0,0,.01,0,.02,0,0,0,.02,0,.02,0,0,0,.01,0,.02,0,0,0,.02,0,.02,0,0,0,.01,0,.02,0,0,0,.02,0,.02,0,0,0,.01,0,.02,0,0,0,.01,0,.02,0,0,0,.01,0,.02,0,0,0,.01,0,.02,0,0,0,.01,0,.02,0,0,0,.01,0,.02,0,0,0,.01,0,.02,0,0,0,.01,0,.02,0,0,0,.01,0,.02,0,.01,0,.03.01.04,0,0,0,.01,0,.02,0,0,0,.01,0,.02,0,0,0,.01,0,.02,0,0,0,.01,0,.02,0,0,0,.01,0,.02,0,0,0,.01,0,.02,0,0,0,.01,0,.02,0,0,0,.01,0,.02,0,0,0,.01,0,.02,0,0,0,.01,0,.02,0,0,0,.02,0,.02,0,0,0,.01,0,.02,0,0,0,.01,0,.02,0,0,0,.01,0,.02,0,0,0,.02,0,.02,0,0,0,.01,0,.02,0,.01,0,.03.01.04,0,0,0,0,0,0,0,.01,0,.02,0,.03,0,0,0,0,0,.01,0,0,0,.02,0,.03,0,0,0,.01,0,.02,0,0,0,.02,0,.02,0,0,0,.01,0,.02,0,0,0,.02,0,.02,0,0,0,.01,0,.02,0,0,0,.02,0,.02,0,0,0,.01,0,.02,0,0,0,.02,0,.02,0,0,0,.01,0,.02,0,0,0,.02,0,.03,0,0,0,0,0,.01,0,.01,0,.02,0,.03,0,0,0,0,0,0,0,.01,0,.03.01.04,0,0,0,0,0,.01,0,0,0,.02,0,.03,0,0,0,.01,0,.02,0,0,0,.01,0,.02,0,0,0,.01,0,.02,0,0,0,.02,0,.02,0,0,0,.01,0,.02,0,0,0,.02,0,.03,0,0,0,.01,0,.02,0,0,0,.02,0,.02,0,0,0,.01,0,.02,0,0,0,.02,0,.03,0,0,0,0,0,.01,0,.01,0,.02,0,.03,0,0,0,0,0,0,0,.03.02.05.02.08,0,0,0,0,0,.01,0,0,0,.02,0,.03,0,0,0,0,0,.01,0,0,0,.02,0,.03,0,0,0,0,0,.01,0,0,0,.02,0,.03,0,0,0,0,0,.01,0,0,0,.02,0,.03,0,0,0,0,0,.01,0,0,0,.02,0,.03,0,0,0,0,0,.01,0,0,0,.02,0,.03,0,0,0,0,0,.01,0,.01,0,.02.01.04,0,0,0,0,0,0,0,.01,0,.03.01.04,0,0,0,0,0,0,0,.01,0,.02,0,.03,0,0,0,0,0,.01,0,0,0,.02,0,.03,0,0,0,0,0,.01,0,0,0,.02,0,.03,0,0,0,0,0,.01,0,.01,0,.02,0,.03,0,0,0,0,0,.01,0,.01,0,.02,0,.03,0,0,0,0,0,.01,0,0,0,.02,0,.03,0,0,0,0,0,.01,0,.01,0,.02.01.03,0,0,0,0,0,0,0,.03.02.05.02.08,0,0,0,0,0,0,0,.01,0,.02,0,.03,0,0,0,0,0,.01,0,.01,0,.02,0,.03,0,0,0,0,0,.01,0,.01,0,.02,0,.03,0,0,0,0,0,.01,0,.01,0,.02,0,.03,0,0,0,0,0,.01,0,.01,0,.02,0,.03,0,0,0,0,0,.01,0,.01,0,.02.01.03,0,0,0,0,0,0,0,.01,0,.03.01.04h0s.02.06.03.08c0,0,0,0,0,0,0,.01,0,.02.01.04,0,0,0,0,0,0,0,.01,0,.02.01.03,0,0,0,0,0,0,0,.01,0,.02.01.03,0,0,0,0,0,0,0,.01,0,.02.01.03,0,0,0,0,0,0,0,.01,0,.02.01.04,0,0,0,0,0,0,.02.06.03.11.05.17,0,0,0,0,0,0,0,.01,0,.03.01.04,0,0,0,0,0,0,0,.01,0,.02.01.04,0,0,0,0,0,0,0,.01,0,.02.01.04,0,0,0,0,0,0,0,.01,0,.02.01.04,0,0,0,0,0,0,.02.07.04.14.07.21h0v.04s.01,0,.01,0c0,.01,0,.03.01.04,0,0,0,0,0,0,0,.01,0,.03.01.04,0,0,0,0,0,0,.24.71.48,1.41.75,2.11l11.24-4.22c-1.89-5.04-2.85-10.36-2.85-15.81,0-24.81,20.19-45,45-45V0h0ZM17.86,79.22l-10.43,5.94s.05.09.08.14h0s.03.05.04.07h0c.11.19.21.37.32.56h0s.03.05.04.07h0s.03.05.04.07h0s.03.05.04.07h0s.03.05.04.07c0,0,0,0,0,0,.01.02.03.05.04.07h0s.06.1.09.15h0s.03.05.04.07t0,0s.03.05.04.07h0s.01.02.02.04h0s.03.05.04.07h0s.06.1.09.15h0s.03.05.04.07h0s.03.05.04.07c0,0,0,0,0,0,.02.02.03.05.04.07,0,0,0,0,0,0,.02.02.03.05.04.07h0s.03.05.04.07c0,0,0,0,0,0,.02.02.03.05.04.07,0,0,0,0,0,0,.02.02.03.05.04.07h0s.03.05.04.07h0s.03.05.04.07h0s.03.05.05.07h0s.05.07.07.11h0s.01.02.02.04h0s.01.02.02.04c0,0,0,0,0,0,.02.02.03.05.05.07h0s.03.05.05.07h0s.03.05.05.07h0s.03.05.05.07c0,0,0,0,0,0,.02.02.03.05.05.07h0s.03.05.05.07c0,0,0,0,0,0,.02.02.03.05.05.07,0,0,0,0,0,0,.03.05.06.09.09.14h0s.03.05.05.07h0s.03.05.05.07c0,0,0,0,0,0,0,.01.01.02.02.03,0,0,0,0,0,0,0,.01.02.02.02.03h0s.01.02.02.03h0s.02.02.02.04h0s.01.02.02.03c0,0,0,0,0,0,0,.01.01.02.02.03,0,0,0,0,0,0,0,.01.01.02.02.03,0,0,0,0,0,0,0,.01.01.02.02.03,0,0,0,0,0,0,0,.01.01.02.02.03,0,0,0,0,0,0,.01.02.03.04.05.07,0,0,0,0,0,0,.02.02.03.04.05.07,0,0,0,0,0,0,.02.02.03.04.05.07,0,0,0,0,0,0,.02.02.03.04.05.07,0,0,0,0,0,0,.02.02.03.04.05.07,0,0,0,0,0,0,.02.02.03.05.05.07,0,0,0,0,0,0,.02.02.03.04.05.07,0,0,0,0,0,0,.02.02.03.04.05.07,0,0,0,0,0,0,.02.02.03.04.05.07,0,0,0,0,0,0,.02.02.03.05.05.07,0,0,0,0,0,0,.02.02.03.05.05.07h0s.03.05.05.07h0c.04.06.08.12.12.18h0s.03.05.05.07t0,0s.03.05.05.07c0,0,0,0,0,0,.02.02.03.05.05.07t0,0s.03.05.05.07h0s.03.05.05.07h0s.03.05.05.07c0,0,0,0,0,0,.02.02.03.05.05.07h0s.03.05.05.07h0s.03.05.05.07c0,0,0,0,0,0,.06.08.12.16.18.24,0,0,0,0,0,0,.02.02.03.05.05.07h0s.03.05.05.07h0s.03.05.05.07h0s.03.05.05.07c0,0,0,0,0,0,.02.02.03.04.05.07,0,0,0,0,0,0,.02.02.03.04.05.07h0s.03.05.05.07c0,0,0,0,0,0,.1.14.21.27.31.41h0c.08.1.16.2.24.3h0c.05.07.1.13.16.2h0s.03.04.05.07c0,0,0,0,0,0,.02.02.03.04.05.07h0c.08.1.16.2.24.3h0s.04.04.05.07h0s.03.04.05.07c0,0,0,0,0,0,.04.04.07.09.11.13,0,0,0,0,0,0,.02.02.03.04.05.06,0,0,0,0,0,0,.02.02.03.04.05.06,0,0,0,0,0,0,.02.02.03.04.05.06,0,0,0,0,0,0,.02.02.03.04.05.06,0,0,0,0,0,0,.02.02.03.04.05.06,0,0,0,0,0,0,.02.02.03.04.05.06,0,0,0,0,0,0,.02.02.03.04.05.06,0,0,0,0,0,0,.02.02.03.04.05.06,0,0,0,0,0,0,.02.02.03.04.05.06,0,0,0,0,0,0,0,.01.02.02.03.03h0s.07.09.11.13c0,0,0,0,0,0,.04.04.07.09.11.13h0s.04.04.05.07c0,0,0,0,0,0,.02.02.04.04.05.06,0,0,0,0,0,0,.02.02.04.04.05.06h0s.04.04.05.07h0s.04.04.05.07c0,0,0,0,0,0,.02.02.04.04.05.06h0s.07.09.11.13h0s.04.04.06.06c0,0,0,0,0,0,0,.01.02.02.03.03h0c.07.09.15.17.22.26h0s.04.04.06.06c0,0,0,0,0,0,.02.02.04.04.06.06,0,0,0,0,0,0,.02.02.04.04.05.06,0,0,0,0,0,0,.02.02.04.04.06.06h0s.04.04.06.06c0,0,0,0,0,0,.02.02.04.04.06.06,0,0,0,0,0,0,.02.02.04.04.06.06h0s.04.04.06.06h0s.04.04.06.06c0,0,0,0,0,0,.02.02.04.04.06.06h0s.02.02.03.03h0s.02.02.03.03c0,0,0,0,0,0,0,0,.02.02.03.03,0,0,0,0,0,0,0,.01.02.02.03.03h0s.02.02.03.03c0,0,0,0,0,0,0,.01.02.02.03.03,0,0,0,0,0,0,0,.01.02.02.03.03,0,0,0,0,0,0,.02.02.04.04.06.06h0s.04.04.06.06h0s.04.04.06.06c0,0,0,0,0,0,.02.02.04.04.06.06,0,0,0,0,0,0,.02.02.04.04.06.06,0,0,0,0,0,0,.02.02.04.04.06.06,0,0,0,0,0,0,.04.04.08.08.12.12h0s.04.04.06.06h0s.08.08.12.12h0s.02.02.03.03h0s.08.08.12.12h0s.04.04.06.06h0s.04.04.06.06c0,0,0,0,0,0,.02.02.04.04.06.06,0,0,0,0,0,0,.02.02.04.04.06.06,0,0,0,0,0,0,.02.02.04.04.06.06h0s.04.04.06.06c0,0,0,0,0,0,.02.02.04.04.06.06h0s.04.04.06.06c0,0,0,0,0,0,.02.02.04.04.06.06h0c.06.06.12.12.18.18h0s.04.04.06.06h0s.02.02.03.03c0,0,0,0,0,0,0,.01.02.02.03.03,0,0,0,0,0,0,.01.01.02.02.03.03,0,0,0,0,0,0,.02.02.04.04.06.06h0s.02.02.03.03h0s.02.02.03.03c0,0,0,0,0,0,.01.01.02.02.03.03h0s.02.02.03.03h0s.04.04.06.06c0,0,0,0,0,0,.02.02.04.04.06.06h0s.04.04.06.06c0,0,0,0,0,0,.02.02.04.04.06.06,0,0,0,0,0,0,.02.02.04.04.06.06,0,0,0,0,0,0,.01.01.02.02.03.03h0s.02.02.03.03c0,0,0,0,0,0,0,0,.02.02.03.03,0,0,0,0,0,0,.01.01.02.02.03.03,0,0,0,0,0,0,.01,0,.02.02.03.03,0,0,0,0,0,0,.01,0,.02.02.03.03,0,0,0,0,0,0,.01,0,.02.02.03.03h0s.02.02.03.03h0s.02.02.03.03c0,0,0,0,0,0,.01,0,.02.02.03.03h0s.02.02.03.03c0,0,0,0,0,0,.01,0,.02.02.03.03,0,0,0,0,0,0,.01,0,.02.02.03.03,0,0,0,0,0,0,.02.02.04.04.06.06,0,0,0,0,0,0,.02.02.04.04.06.06,0,0,0,0,0,0,.02.02.04.04.06.06,0,0,0,0,0,0,.02.02.04.04.06.06,0,0,0,0,0,0,.02.02.04.04.06.06,0,0,0,0,0,0,.02.02.04.04.06.06,0,0,0,0,0,0,.02.02.04.04.06.06,0,0,0,0,0,0,.02.02.04.04.06.06h0s.04.04.06.06h0s.04.04.06.06c0,0,0,0,0,0,.02.02.04.04.06.06,0,0,0,0,0,0,.01,0,.02.02.03.03h0s.04.04.06.06h0s.08.08.12.12h0s.04.04.06.06c0,0,0,0,0,0,.02.02.04.04.06.06,0,0,0,0,0,0,.02.02.04.04.06.06,0,0,0,0,0,0,.02.02.04.04.06.06h0s.04.04.06.06c0,0,0,0,0,0,.02.02.04.04.06.06,0,0,0,0,0,0,.02.02.04.04.06.06h0s.04.04.06.06h0c.07.07.15.13.22.2h0s.04.04.06.06c0,0,0,0,0,0,.02.02.04.04.06.05,0,0,0,0,0,0,.02.02.04.04.06.05,0,0,0,0,0,0,.02.02.04.04.06.06h0s.04.04.06.06c0,0,0,0,0,0,.02.02.04.04.06.05,0,0,0,0,0,0,.02.02.04.04.06.05,0,0,0,0,0,0,.02.02.04.03.06.05,0,0,0,0,0,0,.02.02.04.03.06.05,0,0,0,0,0,0,.02.02.04.03.06.05,0,0,0,0,0,0,.02.02.04.03.06.05,0,0,0,0,0,0,.02.02.04.03.06.05,0,0,0,0,0,0,0,0,.02.02.03.03,0,0,0,0,0,0,.01,0,.02.02.03.03,0,0,0,0,0,0,.01,0,.02.02.03.03h0s.02.02.03.03h0s.02.02.03.03c0,0,0,0,0,0,.01,0,.02.02.03.03h0s.02.02.03.03c0,0,0,0,0,0,.01,0,.02.02.03.03h0s.02.02.03.03t0,0s.04.03.06.05c0,0,0,0,0,0,.02.02.04.03.06.05,0,0,0,0,0,0,.02.02.04.04.06.05,0,0,0,0,0,0,.02.02.04.04.06.05,0,0,0,0,0,0,.02.02.04.03.06.05,0,0,0,0,0,0,.02.02.04.03.06.05,0,0,0,0,0,0,.02.02.04.03.06.05,0,0,0,0,0,0,.02.02.04.03.06.05,0,0,0,0,0,0,.01,0,.02.02.03.02,0,0,0,0,0,0,.01,0,.02.02.03.03,0,0,0,0,0,0,0,0,.02.02.03.02,0,0,0,0,0,0,.01,0,.02.02.03.03,0,0,0,0,0,0,0,0,.02.02.03.02,0,0,0,0,0,0,.01,0,.02.02.03.03h0s.02.02.03.03h0s.02.02.03.03c0,0,0,0,0,0,0,0,.02.02.03.02,0,0,0,0,0,0,.01,0,.02.02.03.03,0,0,0,0,0,0,.01,0,.02.02.03.03,0,0,0,0,0,0,.02.02.04.03.06.05,0,0,0,0,0,0,.02.02.04.03.06.05,0,0,0,0,0,0,.02.02.04.03.06.05,0,0,0,0,0,0,.02.02.04.03.06.05,0,0,0,0,0,0,.02.02.04.03.06.05,0,0,0,0,0,0,.02.02.04.03.06.05,0,0,0,0,0,0,.02.02.04.03.06.05,0,0,0,0,0,0,.02.02.04.03.06.05,0,0,0,0,0,0,.02.02.04.03.07.05h0s.04.04.07.05c0,0,0,0,0,0,.02.02.04.03.07.05,0,0,0,0,0,0,.06.04.11.09.17.13h0s.04.03.07.05h0s.04.03.07.05h0s.09.07.13.1c0,0,0,0,0,0,.02.02.04.03.07.05,0,0,0,0,0,0,.02.02.04.03.07.05h0s.04.03.07.05c0,0,0,0,0,0,.02.02.04.03.07.05h0s.04.03.07.05h0s.04.03.07.05h0s.04.03.07.05c0,0,0,0,0,0,.01,0,.02.02.03.03h0s.02.02.03.03c0,0,0,0,0,0,.01,0,.02.02.03.02h0s.02.02.03.03h0s.02.02.03.02c0,0,0,0,0,0,.01,0,.02.02.03.02h0s.02.02.03.02c0,0,0,0,0,0,.02.02.04.03.07.05,0,0,0,0,0,0,.02.02.04.03.07.05h0s.04.03.07.05c0,0,0,0,0,0,.02.02.04.03.07.05,0,0,0,0,0,0,.02.02.04.03.07.05h0s.04.03.07.05h0s.04.03.07.05c0,0,0,0,0,0,.02.02.04.03.07.05,0,0,0,0,0,0,.02.02.04.03.07.05h0s.04.03.07.05c0,0,0,0,0,0,.02.02.04.03.07.05,0,0,0,0,0,0,.02.02.04.03.07.05,0,0,0,0,0,0,.01,0,.02.01.03.02h0s.02.02.03.03h0s.02.02.03.02c0,0,0,0,0,0,.01,0,.02.02.03.02h0s.02.02.03.02c0,0,0,0,0,0,.01,0,.02.02.03.02,0,0,0,0,0,0,.01,0,.02.02.03.02h0s.04.03.07.05c0,0,0,0,0,0,.02.02.04.03.07.05,0,0,0,0,0,0,.02.02.04.03.07.05,0,0,0,0,0,0,.02.02.04.03.07.05,0,0,0,0,0,0,.02.02.04.03.07.05,0,0,0,0,0,0,.02.02.04.03.07.05,0,0,0,0,0,0,.02.02.04.03.07.05,0,0,0,0,0,0,.01,0,.02.02.03.02h0s.02.02.03.02h0s.02.02.03.02h0s.02.02.03.02c0,0,0,0,0,0,.02.02.05.03.07.05,0,0,0,0,0,0,.01,0,.02.01.03.02h0s.04.03.07.05c0,0,0,0,0,0,.01,0,.02.01.03.02h0s.02.01.03.02c0,0,0,0,0,0,.01,0,.02.02.03.02,0,0,0,0,0,0,.01,0,.02.02.03.02t0,0s.02.01.03.02c0,0,0,0,0,0,.01,0,.02.01.03.02,0,0,0,0,0,0,.01,0,.02.02.03.02h0s.02.01.03.02c0,0,0,0,0,0,.01,0,.02.01.03.02h0s.02.02.03.02c0,0,0,0,0,0,.02.01.04.03.07.04,0,0,0,0,0,0,.02.01.04.03.07.04,0,0,0,0,0,0,.02.01.04.03.06.04,0,0,0,0,0,0,.02.01.04.03.07.04,0,0,0,0,0,0,.02.01.04.03.07.04,0,0,0,0,0,0,.02.02.04.03.07.04,0,0,0,0,0,0,.01,0,.02.01.03.02,0,0,0,0,0,0,.01,0,.02.01.03.02,0,0,0,0,0,0,.01,0,.02.01.03.02,0,0,0,0,0,0,.01,0,.02.01.03.02,0,0,0,0,0,0,.01,0,.02.01.03.02h0s.02.02.03.02c0,0,0,0,0,0,.01,0,.02.01.03.02,0,0,0,0,0,0,.01,0,.02.01.03.02,0,0,0,0,0,0,.01,0,.02.01.03.02,0,0,0,0,0,0,.01,0,.02.01.03.02,0,0,0,0,0,0,.01,0,.02.01.03.02,0,0,0,0,0,0,.02.02.04.03.07.04,0,0,0,0,0,0,.02.02.05.03.07.04t0,0s.05.03.07.04c0,0,0,0,0,0,.02.02.04.03.07.04,0,0,0,0,0,0,.02.02.05.03.07.04,0,0,0,0,0,0,.02.02.05.03.07.04,0,0,0,0,0,0,.02.02.05.03.07.04,0,0,0,0,0,0,.02.02.05.03.07.04h0s.05.03.07.05c0,0,0,0,0,0,.01,0,.02.01.03.02,0,0,0,0,0,0,.01,0,.02.01.04.02,0,0,0,0,0,0,.01,0,.02.01.03.02h0s.02.02.03.02c0,0,0,0,0,0,.01,0,.02.01.03.02,0,0,0,0,0,0,.01,0,.02.01.03.02h0s.02.01.03.02t0,0s.05.03.07.04c0,0,0,0,0,0,.02.02.04.03.07.04,0,0,0,0,0,0,.02.01.05.03.07.04,0,0,0,0,0,0,.02.01.04.03.07.04,0,0,0,0,0,0,.02.01.05.03.07.04,0,0,0,0,0,0,.02.01.05.03.07.04,0,0,0,0,0,0,.02.01.05.03.07.04,0,0,0,0,0,0,.02.01.05.03.07.04,0,0,0,0,0,0,.02.01.04.03.07.04,0,0,0,0,0,0,.02.01.05.03.07.04,0,0,0,0,0,0,.02.01.05.03.07.04,0,0,0,0,0,0,.02.01.05.03.07.04h0s.05.03.07.04h0s.05.03.07.04h0s.02.01.04.02t0,0s.02.01.04.02c0,0,0,0,0,0,.01,0,.02.01.03.02,0,0,0,0,0,0,.02.01.05.03.07.04,0,0,0,0,0,0,.02.01.05.03.07.04,0,0,0,0,0,0,.02.01.05.03.07.04,0,0,0,0,0,0,.02.01.05.03.07.04,0,0,0,0,0,0,.02.01.05.03.07.04,0,0,0,0,0,0,.02.01.05.03.07.04,0,0,0,0,0,0,.02.01.05.03.07.04,0,0,0,0,0,0,.01,0,.02.01.03.02h0s.02.01.04.02c0,0,0,0,0,0,.01,0,.02.01.03.02h0s.02.01.04.02c0,0,0,0,0,0,.01,0,.02.01.03.02,0,0,0,0,0,0,.01,0,.02.01.04.02,0,0,0,0,0,0,.01,0,.02.01.03.02,0,0,0,0,0,0,.01,0,.02.01.04.02,0,0,0,0,0,0,0,0,.02.01.03.02,0,0,0,0,0,0,.01,0,.02.01.03.02,0,0,0,0,0,0,0,0,.02.01.03.02,0,0,0,0,0,0,.01,0,.02.01.04.02,0,0,0,0,0,0,.01,0,.02.01.03.02,0,0,0,0,0,0,.01,0,.02.01.04.02h0s.02.01.03.02c0,0,0,0,0,0,.01,0,.02.01.03.02,0,0,0,0,0,0,.01,0,.02.01.03.02,0,0,0,0,0,0,.01,0,.02.01.03.02h0s.02.01.03.02c0,0,0,0,0,0,.02.01.05.03.07.04,0,0,0,0,0,0,.02.01.05.03.07.04,0,0,0,0,0,0,.02.01.05.03.07.04,0,0,0,0,0,0,.02.01.05.03.07.04,0,0,0,0,0,0,.02.01.05.03.07.04,0,0,0,0,0,0,.02.01.05.03.07.04,0,0,0,0,0,0,.01,0,.02.01.03.02,0,0,0,0,0,0,.01,0,.02.01.03.02,0,0,0,0,0,0,0,0,.02.01.03.02,0,0,0,0,0,0,.01,0,.02.01.03.02,0,0,0,0,0,0,.01,0,.02.01.03.02h0s.02.01.04.02c0,0,0,0,0,0,0,0,.02.01.03.02,0,0,0,0,0,0,.01,0,.02.01.04.02,0,0,0,0,0,0,0,0,.02.01.03.02,0,0,0,0,0,0,.01,0,.02.01.03.02,0,0,0,0,0,0,0,0,.02.01.03.02,0,0,0,0,0,0,.01,0,.02.01.04.02t0,0s.02.01.03.02c0,0,0,0,0,0,.01,0,.02.01.04.02h0s.02.01.03.02c0,0,0,0,0,0,.02.01.05.03.07.04,0,0,0,0,0,0,.02.01.05.02.07.04,0,0,0,0,0,0,.02.01.05.02.07.04,0,0,0,0,0,0,.03.01.05.02.07.04,0,0,0,0,0,0,.02.01.05.03.07.04,0,0,0,0,0,0,.01,0,.02.01.03.02h0s.02.01.04.02c0,0,0,0,0,0,.01,0,.02.01.03.02h0s.02.01.04.02c0,0,0,0,0,0,0,0,.02.01.03.02,0,0,0,0,0,0,.01,0,.02.01.03.02,0,0,0,0,0,0,0,0,.02.01.03.02,0,0,0,0,0,0,.01,0,.02.01.03.02,0,0,0,0,0,0,0,0,.02.01.03.01,0,0,0,0,0,0,.01,0,.02.01.03.02,0,0,0,0,0,0,0,0,.02.01.03.02,0,0,0,0,0,0,.01,0,.02.01.04.02,0,0,0,0,0,0,.01,0,.02.01.03.02,0,0,0,0,0,0,.01,0,.02.01.04.02,0,0,0,0,0,0,.01,0,.02.01.03.02,0,0,0,0,0,0,.01,0,.02.01.04.02,0,0,0,0,0,0,.01,0,.02.01.03.02,0,0,0,0,0,0,.02.01.05.02.07.04,0,0,0,0,0,0,.01,0,.02.01.04.02,0,0,0,0,0,0,.01,0,.02.01.03.02,0,0,0,0,0,0,.02.01.05.02.07.04,0,0,0,0,0,0,.02.01.05.02.07.03,0,0,0,0,0,0,.02.01.05.02.07.03,0,0,0,0,0,0,.01,0,.02.01.03.02h0s.02.01.04.02c0,0,0,0,0,0,.01,0,.02.01.03.02h0s.02.01.04.02c0,0,0,0,0,0,.01,0,.02.01.03.02,0,0,0,0,0,0,.01,0,.02.01.04.02,0,0,0,0,0,0,.01,0,.02.01.03.02,0,0,0,0,0,0,.01,0,.02.01.04.02,0,0,0,0,0,0,0,0,.02.01.03.02h0s.02.01.03.02c0,0,0,0,0,0,0,0,.02,0,.03.01,0,0,0,0,0,0,.01,0,.02.01.03.02,0,0,0,0,0,0,0,0,.02,0,.03.01,0,0,0,0,0,0,0,0,.02.01.03.02,0,0,0,0,0,0,0,0,.02,0,.03.01,0,0,0,0,0,0,.01,0,.02.01.03.02,0,0,0,0,0,0,0,0,.02,0,.03.01,0,0,0,0,0,0,.01,0,.02.01.04.02,0,0,0,0,0,0,.01,0,.02.01.03.02,0,0,0,0,0,0,.01,0,.02.01.03.02,0,0,0,0,0,0,0,0,.02.01.03.02,0,0,0,0,0,0,.01,0,.02.01.03.02,0,0,0,0,0,0,0,0,.02.01.03.02,0,0,0,0,0,0,.02.01.05.02.07.03,0,0,0,0,0,0,.02.01.05.02.07.03,0,0,0,0,0,0,.02.01.05.02.07.03,0,0,0,0,0,0,.01,0,.02.01.03.02h0s.02.01.04.02c0,0,0,0,0,0,.01,0,.02.01.03.02,0,0,0,0,0,0,.01,0,.02.01.04.02,0,0,0,0,0,0,0,0,.02.01.03.01,0,0,0,0,0,0,.01,0,.02.01.04.02,0,0,0,0,0,0,0,0,.02,0,.03.01,0,0,0,0,0,0,.01,0,.02.01.03.02,0,0,0,0,0,0,0,0,.02,0,.03.01,0,0,0,0,0,0,.01,0,.02.01.03.02,0,0,0,0,0,0,0,0,.02,0,.03.01,0,0,0,0,0,0,.01,0,.02.01.04.02,0,0,0,0,0,0,0,0,.02,0,.03.01,0,0,0,0,0,0,.01,0,.02.01.03.02,0,0,0,0,0,0,0,0,.02,0,.03.01,0,0,0,0,0,0,.01,0,.02.01.04.02,0,0,0,0,0,0,0,0,.02,0,.03.01,0,0,0,0,0,0,.01,0,.02.01.03.02,0,0,0,0,0,0,0,0,.02,0,.03.01,0,0,0,0,0,0,.01,0,.02.01.04.02h0s.02.01.03.02c0,0,0,0,0,0,.02.01.05.02.07.03,0,0,0,0,0,0,.02.01.05.02.07.03,0,0,0,0,0,0,.01,0,.02,0,.03.01,0,0,0,0,0,0,.01,0,.02.01.04.02,0,0,0,0,0,0,.01,0,.02,0,.03.01,0,0,0,0,0,0,.01,0,.02.01.04.02,0,0,0,0,0,0,0,0,.02,0,.03.01h0s.02.01.04.02c0,0,0,0,0,0,0,0,.02,0,.03.01,0,0,0,0,0,0,.01,0,.02.01.03.02,0,0,0,0,0,0,0,0,.02,0,.03.01,0,0,0,0,0,0,.01,0,.02.01.04.02,0,0,0,0,0,0,0,0,.02,0,.03.01,0,0,0,0,0,0,.01,0,.02,0,.04.02,0,0,0,0,0,0,0,0,.02,0,.03.01,0,0,0,0,0,0,.01,0,.02.01.04.02,0,0,0,0,0,0,0,0,.02,0,.03.01,0,0,0,0,0,0,.01,0,.02,0,.04.02,0,0,0,0,0,0,.01,0,.02,0,.03.01,0,0,0,0,0,0,.01,0,.02.01.04.02,0,0,0,0,0,0,.01,0,.02,0,.03.01,0,0,0,0,0,0,.01,0,.02,0,.04.02h0s.02.01.03.02c0,0,0,0,0,0,.01,0,.02.01.04.02,0,0,0,0,0,0,0,0,.02,0,.03.01,0,0,0,0,0,0,.01,0,.02,0,.04.01,0,0,0,0,0,0,0,0,.02,0,.03.01,0,0,0,0,0,0,.01,0,.02.01.04.01h0s.02.01.04.02c0,0,0,0,0,0,.01,0,.02,0,.03.01h0s.02.01.04.02c0,0,0,0,0,0,.01,0,.02,0,.03.01,0,0,0,0,0,0,.01,0,.02.01.04.01,0,0,0,0,0,0,0,0,.02,0,.03.01,0,0,0,0,0,0,.01,0,.02.01.04.01,0,0,0,0,0,0,.01,0,.02,0,.03.01,0,0,0,0,0,0,.01,0,.02.01.04.01,0,0,0,0,0,0,0,0,.02,0,.03.01,0,0,0,0,0,0,.01,0,.02,0,.04.01,0,0,0,0,0,0,0,0,.02,0,.03.01,0,0,0,0,0,0,.01,0,.02,0,.04.01,0,0,0,0,0,0,0,0,.02,0,.03.01,0,0,0,0,0,0,.01,0,.02,0,.04.01,0,0,0,0,0,0,.01,0,.02,0,.03.01,0,0,0,0,0,0,.01,0,.02,0,.04.01,0,0,0,0,0,0,0,0,.02,0,.03.01,0,0,0,0,0,0,.01,0,.02,0,.04.01,0,0,0,0,0,0,0,0,.02,0,.03.01,0,0,0,0,0,0,.01,0,.02,0,.04.01,0,0,0,0,0,0,0,0,.02,0,.03.01,0,0,0,0,0,0,.01,0,.02,0,.04.01h0s.02.01.03.01c0,0,0,0,0,0,.01,0,.03.01.04.01h0s.02,0,.03.01c0,0,0,0,0,0,.02,0,.05.02.07.03,0,0,0,0,0,0,.01,0,.02,0,.04.01h0s.02,0,.03.01c0,0,0,0,.01,0,.02,0,.05.02.07.03,0,0,0,0,0,0,.01,0,.02,0,.03.01,0,0,0,0,0,0,.01,0,.02,0,.04.01,0,0,0,0,0,0,.02,0,.05.02.07.03,0,0,0,0,0,0,.01,0,.02,0,.03.01,0,0,0,0,0,0,.01,0,.02,0,.04.01,0,0,0,0,0,0,.01,0,.02,0,.03.01,0,0,0,0,0,0,.01,0,.02,0,.04.01,0,0,0,0,0,0,.01,0,.02,0,.03.01,0,0,0,0,0,0,.01,0,.02,0,.04.01,0,0,0,0,0,0,.01,0,.02,0,.03.01,0,0,0,0,0,0,.01,0,.02,0,.04.01,0,0,0,0,0,0,.01,0,.02,0,.03.01,0,0,0,0,0,0,.01,0,.03,0,.04.01,0,0,0,0,0,0,.01,0,.02,0,.03.01,0,0,0,0,0,0,.01,0,.02,0,.03.01,0,0,0,0,0,0,.01,0,.02,0,.03.01,0,0,0,0,0,0,.01,0,.02,0,.03.01,0,0,0,0,0,0,.01,0,.02,0,.03.01,0,0,0,0,0,0,.01,0,.02,0,.04.01,0,0,0,0,0,0,.01,0,.02,0,.03.01,0,0,0,0,0,0,.01,0,.02,0,.04.01,0,0,0,0,0,0,.01,0,.02,0,.03.01,0,0,0,0,0,0,.01,0,.02,0,.04.01,0,0,0,0,0,0,.01,0,.02,0,.03.01,0,0,0,0,0,0,.01,0,.02,0,.04.01h0s.02,0,.04.01c0,0,0,0,0,0,.01,0,.02,0,.03.01,0,0,0,0,0,0,.01,0,.02,0,.04.01,0,0,0,0,0,0,.01,0,.02,0,.03.01,0,0,0,0,0,0,.01,0,.02,0,.04.01,0,0,0,0,0,0,.01,0,.02,0,.03.01,0,0,0,0,0,0,.01,0,.02,0,.04.01,0,0,0,0,0,0,.01,0,.02,0,.03.01,0,0,0,0,0,0,.01,0,.02,0,.04.01,0,0,0,0,0,0,.01,0,.02,0,.03.01,0,0,0,0,0,0,.01,0,.02,0,.04.01,0,0,0,0,0,0,.01,0,.02,0,.03.01,0,0,0,0,0,0,.01,0,.02,0,.04.01,0,0,0,0,0,0,.01,0,.02,0,.03.01,0,0,0,0,0,0,.01,0,.02,0,.04.01,0,0,0,0,0,0,.01,0,.02,0,.03.01,0,0,0,0,0,0,.01,0,.02,0,.04.01,0,0,0,0,0,0,.01,0,.02,0,.03.01,0,0,0,0,0,0,.01,0,.02,0,.04.01,0,0,0,0,0,0,.01,0,.02,0,.03.01,0,0,0,0,0,0,.01,0,.02,0,.04.01,0,0,0,0,0,0,.01,0,.02,0,.03.01,0,0,0,0,0,0,.01,0,.02,0,.04.01h0s.02,0,.03.01c0,0,0,0,0,0,.01,0,.02,0,.04.01,0,0,0,0,0,0,.01,0,.02,0,.03.01,0,0,0,0,0,0,.02,0,.05.02.07.03,0,0,0,0,0,0,.02,0,.05.02.07.03,0,0,0,0,0,0,.02,0,.05.02.07.03,0,0,0,0,0,0,.01,0,.02,0,.03.01,0,0,0,0,0,0,.01,0,.02,0,.04.01,0,0,0,0,0,0,.01,0,.02,0,.03.01,0,0,0,0,0,0,.01,0,.02,0,.04.01,0,0,0,0,0,0,.01,0,.02,0,.03.01,0,0,0,0,0,0,.01,0,.02,0,.04.01,0,0,0,0,0,0,.01,0,.02,0,.03.01,0,0,0,0,0,0,.01,0,.02,0,.04.01,0,0,0,0,0,0,.01,0,.02,0,.03.01,0,0,0,0,0,0,.01,0,.02,0,.04.01,0,0,0,0,0,0,.01,0,.02,0,.03.01,0,0,0,0,0,0,.01,0,.02,0,.04.01,0,0,0,0,0,0,.01,0,.02,0,.03.01,0,0,0,0,0,0,.01,0,.02,0,.04.01,0,0,0,0,0,0,.01,0,.02,0,.03.01,0,0,0,0,0,0,.01,0,.02,0,.04.01,0,0,0,0,0,0,.01,0,.02,0,.03.01,0,0,0,0,0,0,.01,0,.02,0,.04.01,0,0,0,0,0,0,.01,0,.02,0,.03.01,0,0,0,0,0,0,.01,0,.02,0,.04.01,0,0,0,0,0,0,.01,0,.02,0,.03.01,0,0,0,0,0,0,.01,0,.02,0,.04.01,0,0,0,0,0,0,.01,0,.02,0,.03.01,0,0,0,0,0,0,.01,0,.02,0,.04.01,0,0,0,0,0,0,.01,0,.02,0,.04.01,0,0,0,0,0,0,.01,0,.03,0,.04.01h0s.03,0,.04.01c0,0,0,0,0,0,.01,0,.02,0,.03.01,0,0,0,0,0,0,.01,0,.02,0,.04.01,0,0,0,0,0,0,.01,0,.02,0,.03.01,0,0,0,0,0,0,.01,0,.03,0,.04.01,0,0,0,0,0,0,.01,0,.02,0,.03.01,0,0,0,0,0,0,.01,0,.02,0,.04.01,0,0,0,0,0,0,.01,0,.02,0,.03.01,0,0,0,0,0,0,.01,0,.02,0,.04.01,0,0,0,0,0,0,.01,0,.02,0,.03,0,0,0,0,0,0,0,.01,0,.03,0,.04.01,0,0,0,0,0,0,.01,0,.02,0,.03,0,0,0,0,0,0,0,.01,0,.03,0,.04.01,0,0,0,0,0,0,.01,0,.02,0,.03,0,0,0,0,0,.01,0,.01,0,.02,0,.04.01,0,0,0,0,0,0,.01,0,.02,0,.03,0,0,0,0,0,0,0,.01,0,.02,0,.04.01,0,0,0,0,0,0,.01,0,.02,0,.03,0,0,0,0,0,.01,0,.01,0,.02,0,.04.01,0,0,0,0,0,0,.01,0,.02,0,.03,0,0,0,0,0,0,0,.01,0,.02,0,.04.01,0,0,0,0,0,0,.01,0,.02,0,.03.01,0,0,0,0,0,0,.01,0,.03,0,.04.01,0,0,0,0,0,0,.01,0,.02,0,.04.01,0,0,0,0,0,0,.01,0,.03,0,.04.01h0s.02,0,.04.01c0,0,0,0,0,0,.02,0,.05.02.08.02,0,0,0,0,0,0,.01,0,.03,0,.04.01h0s.03,0,.04.01c0,0,0,0,0,0,.01,0,.02,0,.03.01,0,0,0,0,0,0,.01,0,.03,0,.04.01,0,0,0,0,0,0,.01,0,.02,0,.03,0,0,0,0,0,0,0,.01,0,.02,0,.04.01,0,0,0,0,0,0,.01,0,.02,0,.03,0,0,0,0,0,0,0,.01,0,.03,0,.04.01,0,0,0,0,0,0,.01,0,.02,0,.03.01,0,0,0,0,0,0,.01,0,.02,0,.04.01,0,0,0,0,0,0,.01,0,.02,0,.03.01,0,0,0,0,0,0,.01,0,.02,0,.04.01,0,0,0,0,0,0,.01,0,.02,0,.03,0,0,0,0,0,0,0,.01,0,.02,0,.04.01,0,0,0,0,0,0,.01,0,.02,0,.03,0,0,0,0,0,0,0,.01,0,.02,0,.04.01,0,0,0,0,0,0,.01,0,.02,0,.03,0,0,0,0,0,0,0,.01,0,.02,0,.04.01,0,0,0,0,0,0,.01,0,.02,0,.04.01,0,0,0,0,0,0,.03,0,.05.01.08.02,0,0,0,0,0,0,.01,0,.03,0,.04.01h0s.03,0,.04.01c0,0,0,0,0,0,.01,0,.03,0,.04.01h0s.03,0,.04.01c0,0,0,0,0,0,.02,0,.05.01.08.02,0,0,0,0,0,0,.02,0,.05.01.08.02,0,0,0,0,0,0,.01,0,.02,0,.04,0,0,0,0,0,0,0,.01,0,.03,0,.04.01,0,0,0,0,0,0,.01,0,.02,0,.04.01h0s.03,0,.04.01c0,0,0,0,0,0,.01,0,.02,0,.03,0,0,0,0,0,0,0,.01,0,.03,0,.04.01,0,0,0,0,0,0,.01,0,.02,0,.03,0,0,0,0,0,0,0,.01,0,.03,0,.04.01,0,0,0,0,0,0,.01,0,.02,0,.03,0,0,0,0,0,0,0,.01,0,.02,0,.04.01,0,0,0,0,0,0,.01,0,.02,0,.03,0h0s.02,0,.04.01c0,0,0,0,0,0,.01,0,.02,0,.03,0,0,0,0,0,0,0,.01,0,.02,0,.04,0,0,0,0,0,0,0,.01,0,.02,0,.03,0,0,0,0,0,0,0,.01,0,.03,0,.04,0,0,0,0,0,0,0,.01,0,.02,0,.03,0,0,0,0,0,0,0,.01,0,.02,0,.04,0,0,0,0,0,0,0,.01,0,.02,0,.03,0,0,0,0,0,0,0,.01,0,.03,0,.04,0,0,0,0,0,0,0,.01,0,.02,0,.03,0,0,0,0,0,.01,0,.01,0,.02,0,.04,0,0,0,0,0,0,0,.01,0,.02,0,.03,0,0,0,0,0,0,0,.02,0,.05.01.08.02,0,0,0,0,0,0,.01,0,.03,0,.04,0h0s.03,0,.04,0c0,0,0,0,0,0,.01,0,.02,0,.04,0,0,0,0,0,0,0,.01,0,.03,0,.04,0,0,0,0,0,0,0,.01,0,.02,0,.04,0,0,0,0,0,0,0,.01,0,.03,0,.04,0,0,0,0,0,0,0,.01,0,.02,0,.04,0h0s.03,0,.04.01c0,0,0,0,0,0,.01,0,.02,0,.03,0,0,0,0,0,0,0,.01,0,.03,0,.04,0,0,0,0,0,0,0,.01,0,.02,0,.03,0,0,0,0,0,0,0,.01,0,.03,0,.04,0,0,0,0,0,0,0,.01,0,.02,0,.03,0,0,0,0,0,0,0,.01,0,.03,0,.04,0,0,0,0,0,0,0,.01,0,.02,0,.03,0,0,0,0,0,0,0,.01,0,.03,0,.04,0,0,0,0,0,0,0,.01,0,.02,0,.03,0,0,0,0,0,0,0,.01,0,.02,0,.04,0,0,0,0,0,0,0,.01,0,.02,0,.03,0,0,0,0,0,0,0,.01,0,.03,0,.04,0,0,0,0,0,0,0,.01,0,.02,0,.03,0,0,0,0,0,0,0,.01,0,.03,0,.04,0,0,0,0,0,0,0,.01,0,.02,0,.03,0,0,0,0,0,.01,0,.01,0,.02,0,.04,0,0,0,0,0,0,0,.01,0,.02,0,.03,0,0,0,0,0,.01,0,.01,0,.03,0,.04,0,0,0,0,0,0,0,.01,0,.02,0,.03,0,0,0,0,0,.01,0,.01,0,.02,0,.04,0,0,0,0,0,0,0,.01,0,.02,0,.03,0,0,0,0,0,0,0,.01,0,.03,0,.04,0h0s.03,0,.04,0c0,0,0,0,0,0,.01,0,.02,0,.04,0,0,0,0,0,0,0,.01,0,.03,0,.04,0,0,0,0,0,.01,0,.01,0,.02,0,.03,0,0,0,0,0,0,0,.01,0,.03,0,.04,0,0,0,0,0,0,0,.01,0,.02,0,.03,0,0,0,0,0,0,0,.01,0,.03,0,.04,0,0,0,0,0,0,0,.01,0,.02,0,.03,0,0,0,0,0,0,0,.01,0,.03,0,.04,0,0,0,0,0,0,0,.01,0,.02,0,.03,0,0,0,0,0,.01,0,.01,0,.03,0,.04,0,0,0,0,0,.01,0,.01,0,.02,0,.03,0,0,0,0,0,0,0,.01,0,.03,0,.04,0,0,0,0,0,0,0,.01,0,.02,0,.03,0,0,0,0,0,.01,0,.01,0,.02,0,.04,0,0,0,0,0,0,0,.01,0,.02,0,.03,0,0,0,0,0,0,0,.01,0,.02,0,.04,0,0,0,0,0,0,0,.01,0,.02,0,.03,0,0,0,0,0,0,0,.01,0,.03,0,.04,0,0,0,0,0,0,0,.01,0,.02,0,.03,0,0,0,0,0,0,0,.01,0,.03,0,.04,0,0,0,0,0,0,0,.01,0,.02,0,.03,0,0,0,0,0,.01,0,.01,0,.03,0,.04,0h0s.02,0,.04,0c0,0,0,0,.01,0,.01,0,.02,0,.04,0,0,0,0,0,0,0,.01,0,.02,0,.03,0,0,0,0,0,.01,0,.01,0,.02,0,.04,0,0,0,0,0,0,0,.01,0,.02,0,.03,0,0,0,0,0,.01,0,.01,0,.02,0,.04,0,0,0,0,0,0,0,.01,0,.02,0,.04,0,0,0,0,0,.01,0,.01,0,.02,0,.03,0,0,0,0,0,0,0,.01,0,.03,0,.04,0,0,0,0,0,.01,0,.01,0,.02,0,.03,0,0,0,0,0,0,0,.01,0,.03,0,.04,0,0,0,0,0,.01,0,.01,0,.02,0,.03,0,0,0,0,0,0,0,.01,0,.03,0,.04,0,0,0,0,0,.01,0,.01,0,.02,0,.03,0,0,0,0,0,0,0,.01,0,.03,0,.04,0,0,0,0,0,0,0,.01,0,.02,0,.03,0,0,0,0,0,0,0,.01,0,.03,0,.04,0,0,0,0,0,0,0,.01,0,.02,0,.03,0,0,0,0,0,0,0,.01,0,.03,0,.04,0,0,0,0,0,.01,0,.01,0,.02,0,.03,0,0,0,0,0,0,0,.01,0,.03,0,.04,0,0,0,0,0,0,0,.01,0,.02,0,.03,0,0,0,0,0,0,0,.01,0,.03,0,.04,0,0,0,0,0,0,0,.01,0,.02,0,.03,0,0,0,0,0,0,0,.01,0,.03,0,.04,0,0,0,0,0,0,0,.01,0,.02,0,.03,0,0,0,0,0,0,0,.01,0,.03,0,.04,0,0,0,0,0,0,0,.01,0,.02,0,.03,0,0,0,0,0,.01,0,.01,0,.02,0,.04,0,0,0,0,0,0,0,.01,0,.02,0,.03,0,0,0,0,0,.01,0,.01,0,.03,0,.04,0,0,0,0,0,0,0,.01,0,.02,0,.04,0,0,0,0,0,0,0,.01,0,.02,0,.04,0,0,0,0,0,0,0,.01,0,.02,0,.04,0,0,0,0,0,.01,0,.01,0,.02,0,.03,0,0,0,0,0,0,0,.01,0,.03,0,.04,0,0,0,0,0,.01,0,.01,0,.02,0,.03,0,0,0,0,0,0,0,.01,0,.03,0,.04,0,0,0,0,0,0,0,.01,0,.02,0,.03,0,0,0,0,0,0,0,.01,0,.03,0,.04,0,0,0,0,0,.01,0,.01,0,.02,0,.03,0,0,0,0,0,0,0,.01,0,.03,0,.04,0,0,0,0,0,0,0,.01,0,.02,0,.03,0,0,0,0,0,0,0,.01,0,.03,0,.04,0,0,0,0,0,0,0,.01,0,.02,0,.03,0,0,0,0,0,0,0,.01,0,.02,0,.04,0,0,0,0,0,0,0,.01,0,.02,0,.03,0,0,0,0,0,0,0,.01,0,.03,0,.04,0,0,0,0,0,0,0,.01,0,.02,0,.03,0,0,0,0,0,0,0,.01,0,.03,0,.04,0,0,0,0,0,0,0,.01,0,.02,0,.03,0,0,0,0,0,.01,0,.01,0,.02,0,.04,0,0,0,0,0,0,0,.01,0,.02,0,.03,0,0,0,0,0,.01,0,.01,0,.03,0,.04,0,0,0,0,0,0,0,.01,0,.02,0,.03,0,0,0,0,0,.01,0,.01,0,.03,0,.04,0,0,0,0,0,0,0,.01,0,.02,0,.03,0,0,0,0,0,.01,0,.01,0,.03,0,.04,0,0,0,0,0,0,0,.01,0,.02,0,.03,0,0,0,0,0,.01,0,.01,0,.02,0,.04,0,0,0,0,0,0,0,.01,0,.02,0,.04,0,0,0,0,0,.01,0,.01,0,.02,0,.04,0h0s.03,0,.04,0c0,0,0,0,.01,0,.01,0,.02,0,.04,0,0,0,0,0,0,0,.01,0,.03,0,.04,0,0,0,0,0,0,0,.01,0,.02,0,.03,0,0,0,0,0,0,0,.01,0,.02,0,.04,0,0,0,0,0,.01,0,.01,0,.02,0,.03,0,0,0,0,0,0,0,.01,0,.02,0,.04,0,0,0,0,0,.01,0,.01,0,.02,0,.03,0,0,0,0,0,0,0,.01,0,.03,0,.04,0,0,0,0,0,.01,0,.01,0,.02,0,.03,0,0,0,0,0,0,0,.01,0,.03,0,.04,0,0,0,0,0,0,0,.01,0,.02,0,.03,0,0,0,0,0,0,0,.01,0,.03,0,.04,0,0,0,0,0,0,0,.01,0,.02,0,.03,0,0,0,0,0,0,0,.01,0,.03,0,.04,0,0,0,0,0,0,0,.01,0,.02,0,.03,0,0,0,0,0,0,0,.01,0,.02,0,.04,0,0,0,0,0,0,0,.01,0,.02,0,.03,0,0,0,0,0,0,0,.01,0,.03,0,.04,0,0,0,0,0,0,0,.01,0,.02,0,.03,0,0,0,0,0,.01,0,.01,0,.03,0,.04,0,0,0,0,0,0,0,.01,0,.02,0,.03,0,0,0,0,0,0,0,.01,0,.03,0,.04,0h0s.03,0,.04,0c0,0,0,0,0,0,.01,0,.03,0,.04,0t0,0s.02,0,.04,0c0,0,0,0,0,0,.03,0,.05,0,.08.01,0,0,0,0,0,0,.01,0,.02,0,.04,0,0,0,0,0,0,0,.01,0,.03,0,.04,0,0,0,0,0,0,0,.01,0,.02,0,.04,0,0,0,0,0,0,0,.01,0,.03,0,.04,0,0,0,0,0,.01,0,.01,0,.02,0,.03,0,0,0,0,0,0,0,.01,0,.03,0,.04,0,0,0,0,0,0,0,.01,0,.02,0,.03,0,0,0,0,0,0,0,.01,0,.03,0,.04,0,0,0,0,0,0,0,.01,0,.02,0,.03,0,0,0,0,0,0,0,.01,0,.03,0,.04,0,0,0,0,0,0,0,.01,0,.02,0,.03,0,0,0,0,0,0,0,.01,0,.03,0,.04,0,0,0,0,0,0,0,.01,0,.02,0,.03,0,0,0,0,0,0,0,.01,0,.03,0,.04,0,0,0,0,0,0,0,.01,0,.02,0,.03,0,0,0,0,0,0,0,.01,0,.03,0,.04,0,0,0,0,0,0,0,.01,0,.02,0,.03,0,0,0,0,0,.01,0,.01,0,.03,0,.04,0,0,0,0,0,0,0,.01,0,.02,0,.03,0,0,0,0,0,0,0,.01,0,.03,0,.04,0,0,0,0,0,0,0,.01,0,.02,0,.03,0,0,0,0,0,.01,0,.01,0,.03,0,.04,0,0,0,0,0,0,0,.01,0,.02,0,.04,0,0,0,0,0,0,0,.01,0,.03,0,.04,0,0,0,0,0,0,0,.01,0,.02,0,.03,0,0,0,0,0,.01,0,.01,0,.03,0,.04,0,0,0,0,0,0,0,.01,0,.02,0,.04,0,0,0,0,0,.01,0,.01,0,.03,0,.04,0h0s.03,0,.04,0c0,0,0,0,.01,0,.01,0,.02,0,.04,0,0,0,0,0,0,0,.01,0,.03,0,.04,0,0,0,0,0,.01,0,.01,0,.02,0,.03,0,0,0,0,0,0,0,.01,0,.03,0,.04,0,0,0,0,0,.01,0,.01,0,.02,0,.03,0,0,0,0,0,0,0,.01,0,.03,0,.04,0,0,0,0,0,.01,0,.01,0,.02,0,.03,0,0,0,0,0,0,0,.01,0,.03,0,.04,0,0,0,0,0,.01,0,.01,0,.02,0,.03,0,0,0,0,0,0,0,.01,0,.03,0,.04,0,0,0,0,0,0,0,.01,0,.02,0,.03,0,0,0,0,0,0,0,.01,0,.03,0,.04,0,0,0,0,0,.01,0,.01,0,.02,0,.03,0,0,0,0,0,.01,0,.01,0,.03,0,.04,0,0,0,0,0,.01,0,.01,0,.02,0,.03,0,0,0,0,0,.01,0,.01,0,.03,0,.04,0,0,0,0,0,0,0,.01,0,.02,0,.03,0,0,0,0,0,.01,0,.01,0,.02,0,.04,0,0,0,0,0,0,0,.01,0,.02,0,.03,0,0,0,0,0,.01,0,.01,0,.02,0,.04,0,0,0,0,0,0,0,.01,0,.02,0,.03,0,0,0,0,0,.01,0,.01,0,.03,0,.04,0,0,0,0,0,0,0,.01,0,.02,0,.03,0,0,0,0,0,.01,0,.01,0,.03,0,.04,0t0,0s.02,0,.03,0c0,0,0,0,.01,0,.01,0,.03,0,.04,0t0,0s.02,0,.04,0c0,0,0,0,.01,0,.01,0,.02,0,.04,0,0,0,0,0,0,0,.01,0,.02,0,.04,0,0,0,0,0,.01,0,.01,0,.02,0,.03,0,0,0,0,0,0,0,.01,0,.03,0,.04,0,0,0,0,0,.01,0,.01,0,.03,0,.04,0h0s.03,0,.04,0c0,0,0,0,0,0,.01,0,.02,0,.04,0,0,0,0,0,0,0,.01,0,.03,0,.04,0,0,0,0,0,.01,0,.01,0,.02,0,.03,0,0,0,0,0,0,0,.01,0,.03,0,.04,0,0,0,0,0,.01,0,.01,0,.02,0,.03,0,0,0,0,0,0,0,.01,0,.03,0,.04,0,0,0,0,0,.01,0,.01,0,.02,0,.03,0,0,0,0,0,.01,0,.01,0,.03,0,.04,0,0,0,0,0,.01,0,.01,0,.02,0,.03,0,0,0,0,0,.01,0,.01,0,.03,0,.04,0,0,0,0,0,0,0,.01,0,.02,0,.03,0,0,0,0,0,.01,0,.01,0,.02,0,.04,0,0,0,0,0,0,0,.01,0,.02,0,.03,0,0,0,0,0,.01,0,.01,0,.03,0,.04,0,0,0,0,0,0,0,.01,0,.02,0,.03,0,0,0,0,0,.01,0,.01,0,.03,0,.04,0,0,0,0,0,0,0,.01,0,.03,0,.04,0,0,0,0,0,0,0,.01,0,.03,0,.04,0,0,0,0,0,0,0,.01,0,.02,0,.04,0,0,0,0,0,.01,0,.01,0,.03,0,.04,0h0s.03,0,.04,0c0,0,0,0,0,0,.03,0,.05,0,.08,0,0,0,0,0,.01,0,.01,0,.03,0,.04,0,0,0,0,0,0,0,.01,0,.03,0,.04,0,0,0,0,0,.01,0,.01,0,.03,0,.04,0,0,0,0,0,0,0,.01,0,.03,0,.04,0,0,0,0,0,.01,0,.01,0,.02,0,.03,0,0,0,0,0,0,0,.01,0,.03,0,.04,0,0,0,0,0,0,0,.01,0,.02,0,.04,0,0,0,0,0,0,0,.01,0,.03,0,.04,0,0,0,0,0,0,0,.01,0,.02,0,.03,0,0,0,0,0,0,0,.01,0,.03,0,.04,0,0,0,0,0,0,0,.01,0,.02,0,.03,0,0,0,0,0,0,0,.01,0,.03,0,.04,0,0,0,0,0,.01,0,.01,0,.02,0,.03,0,0,0,0,0,0,0,.01,0,.03,0,.04,0,0,0,0,0,0,0,.01,0,.02,0,.03,0,0,0,0,0,.01,0,.01,0,.03,0,.04,0,0,0,0,0,.01,0,.01,0,.02,0,.03,0,0,0,0,0,.01,0,.01,0,.03,0,.04,0,0,0,0,0,0,0,.01,0,.02,0,.03,0,0,0,0,0,.01,0,.01,0,.03,0,.04,0,0,0,0,0,0,0,.01,0,.02,0,.03,0,0,0,0,0,.01,0,.01,0,.03,0,.04,0,0,0,0,0,0,0,.01,0,.02,0,.03,0,0,0,0,0,.01,0,.01,0,.03,0,.04,0,0,0,0,0,0,0,.01,0,.02,0,.04,0,0,0,0,0,.01,0,.01,0,.03,0,.04,0,0,0,0,0,0,0,.01,0,.02,0,.04,0,0,0,0,0,.01,0,.01,0,.02,0,.04,0,0,0,0,0,0,0,.01,0,.03,0,.04,0,0,0,0,0,.01,0,.01,0,.02,0,.04,0,0,0,0,0,0,0,.01,0,.03,0,.04,0,0,0,0,0,.01,0,.01,0,.02,0,.03,0,0,0,0,0,0,0,.01,0,.03,0,.04,0,0,0,0,0,0,0,.01,0,.02,0,.04,0,0,0,0,0,0,0,.01,0,.03,0,.04,0,0,0,0,0,0,0,.01,0,.02,0,.03,0,0,0,0,0,0,0,.01,0,.03,0,.04,0,0,0,0,0,0,0,.01,0,.02,0,.03,0,0,0,0,0,0,0,.01,0,.03,0,.04,0,0,0,0,0,0,0,.01,0,.02,0,.03,0,0,0,0,0,0,0,.02,0,.03,0,.04,0,0,0,0,0,0,0,.01,0,.02,0,.04,0,0,0,0,0,0,0,.01,0,.03,0,.04,0,0,0,0,0,0,0,.01,0,.02,0,.03,0,0,0,0,0,0,0,.01,0,.03,0,.04,0,0,0,0,0,0,0,.01,0,.02,0,.04,0,0,0,0,0,0,0,.01,0,.03,0,.04,0,0,0,0,0,0,0,.01,0,.02,0,.03,0,0,0,0,0,.01,0,.01,0,.03,0,.04,0,0,0,0,0,0,0,.01,0,.02,0,.03,0,0,0,0,0,.01,0,.01,0,.03,0,.04,0,0,0,0,0,0,0,.01,0,.02,0,.04,0,0,0,0,0,.01,0,.01,0,.03,0,.04,0,0,0,0,0,0,0,.01,0,.02,0,.04,0,0,0,0,0,.01,0,.01,0,.03,0,.04,0h0s.03,0,.04,0c0,0,0,0,.01,0,.01,0,.03,0,.04,0h0s.03,0,.04,0c0,0,0,0,.01,0,.01,0,.02,0,.04,0,0,0,0,0,0,0,.01,0,.03,0,.04,0,0,0,0,0,.01,0,.01,0,.02,0,.04,0h0s.03,0,.04,0c0,0,0,0,0,0,.01,0,.02,0,.04,0h0s.03,0,.04,0c0,0,0,0,0,0,.01,0,.02,0,.04,0h0s.03,0,.04,0c0,0,0,0,.01,0,.01,0,.02,0,.03,0,0,0,0,0,0,0,.01,0,.03,0,.04,0,0,0,0,0,.01,0,.01,0,.02,0,.03,0,0,0,0,0,.01,0,.01,0,.03,0,.04,0,0,0,0,0,.01,0,.01,0,.02,0,.03,0,0,0,0,0,0,0,.01,0,.03,0,.04,0,0,0,0,0,0,0,.01,0,.02,0,.03,0h0s.03,0,.04,0h0s.02,0,.03,0h.01s.03,0,.04,0c0,0,0,0,0,0,.01,0,.02,0,.03,0,0,0,0,0,.01,0,.01,0,.03,0,.04,0h0s.02,0,.04,0h.01s.03,0,.04,0h0s.02,0,.04,0h.05s.03,0,.04,0h.1s.03,0,.04,0h.05s.03,0,.04,0h0s.03,0,.04,0c0,0,0,0,0,0,.01,0,.03,0,.04,0h0s.03,0,.04,0h0s.03,0,.04,0c0,0,0,0,0,0,.01,0,.03,0,.04,0h0s.03,0,.04,0h0s.03,0,.04,0h0s.03,0,.04,0c0,0,0,0,0,0,.01,0,.03,0,.04,0,0,0,0,0,0,0,.01,0,.03,0,.04,0,0,0,0,0,0,0,.01,0,.03,0,.04,0,0,0,0,0,0,0,.01,0,.03,0,.04,0,0,0,0,0,0,0,.01,0,.03,0,.04,0,0,0,0,0,0,0,.01,0,.03,0,.04,0,0,0,0,0,0,0,.03,0,.06,0,.09,0,0,0,0,0,0,0,.01,0,.03,0,.04,0,0,0,0,0,0,0,.01,0,.03,0,.04,0,0,0,0,0,0,0,.01,0,.03,0,.04,0h0s.03,0,.04,0h0s.03,0,.04,0h0s.03,0,.04,0c0,0,0,0,0,0,.01,0,.03,0,.04,0,0,0,0,0,0,0,.01,0,.03,0,.04,0h0s.03,0,.04,0h0s.03,0,.04,0c0,0,0,0,0,0,.01,0,.03,0,.04,0,0,0,0,0,0,0,.01,0,.03,0,.04,0,0,0,0,0,0,0,.01,0,.03,0,.04,0,0,0,0,0,0,0,.02,0,.03,0,.04,0h0s.03,0,.04,0c0,0,0,0,0,0,.02,0,.03,0,.04,0,0,0,0,0,0,0,.01,0,.03,0,.04,0,0,0,0,0,0,0,.03,0,.06,0,.09,0,0,0,0,0,0,0,.01,0,.03,0,.04,0,0,0,0,0,0,0,.01,0,.03,0,.04,0,0,0,0,0,0,0,.01,0,.03,0,.04,0,0,0,0,0,0,0,.03,0,.06,0,.08,0,0,0,0,0,0,0,.01,0,.03,0,.04,0,0,0,0,0,0,0,.02,0,.03,0,.04,0,0,0,0,0,0,0,.01,0,.03,0,.04,0,0,0,0,0,0,0,.02,0,.03,0,.04,0,0,0,0,0,0,0,.02,0,.03,0,.04,0,0,0,0,0,0,0,.02,0,.03,0,.04,0,0,0,0,0,0,0,.02,0,.03,0,.04,0,0,0,0,0,0,0,.01,0,.03,0,.04,0,0,0,0,0,0,0,.02,0,.03,0,.04,0,0,0,0,0,0,0,.01,0,.03,0,.04,0,0,0,0,0,0,0,.01,0,.03,0,.04,0,0,0,0,0,0,0,.01,0,.03,0,.04,0,0,0,0,0,0,0,.03,0,.06,0,.08,0,0,0,0,0,0,0,.01,0,.03,0,.04,0,0,0,0,0,0,0,.01,0,.03,0,.04,0,0,0,0,0,0,0,.01,0,.03,0,.04,0,0,0,0,0,0,0,.01,0,.03,0,.04,0,0,0,0,0,0,0,.01,0,.03,0,.04,0,0,0,0,0,0,0,.01,0,.03,0,.04,0,0,0,0,0,0,0,.01,0,.03,0,.04,0,0,0,0,0,0,0,.01,0,.03,0,.04,0,0,0,0,0,0,0,.01,0,.03,0,.04,0,0,0,0,0,0,0,.01,0,.03,0,.04,0,0,0,0,0,0,0,.01,0,.03,0,.04,0,0,0,0,0,0,0,.01,0,.03,0,.04,0,0,0,0,0,0,0,.01,0,.03,0,.04,0h0s.03,0,.04,0h0s.03,0,.04,0c0,0,0,0,0,0,.01,0,.03,0,.04,0,0,0,0,0,0,0,.01,0,.03,0,.04,0,0,0,0,0,0,0,.01,0,.03,0,.04,0,0,0,0,0,0,0,.01,0,.03,0,.04,0,0,0,0,0,0,0,.01,0,.03,0,.04,0,0,0,0,0,0,0,.01,0,.03,0,.04,0,0,0,0,0,0,0,.01,0,.03,0,.04,0,0,0,0,0,0,0,.03,0,.06,0,.08,0,0,0,0,0,0,0,.01,0,.03,0,.04,0,0,0,0,0,0,0,.01,0,.03,0,.04,0,0,0,0,0,0,0,.01,0,.03,0,.04,0,0,0,0,0,0,0,.02,0,.03,0,.04,0,0,0,0,0,0,0,.01,0,.03,0,.04,0,0,0,0,0,0,0,.01,0,.03,0,.04,0,0,0,0,0,0,0,.01,0,.03,0,.04,0,0,0,0,0,0,0,.01,0,.03,0,.04,0,0,0,0,0,0,0,.01,0,.03,0,.04,0,0,0,0,0,0,0,.01,0,.03,0,.04,0,0,0,0,0,0,0,.01,0,.03,0,.04,0,0,0,0,0,0,0,.01,0,.02,0,.04,0,0,0,0,0,0,0,.01,0,.03,0,.04,0,0,0,0,0,0,0,.01,0,.02,0,.04,0,0,0,0,0,0,0,.01,0,.03,0,.04,0,0,0,0,0,0,0,.01,0,.03,0,.04,0,0,0,0,0,0,0,.01,0,.03,0,.04,0,0,0,0,0,0,0,.01,0,.03,0,.04,0,0,0,0,0,0,0,.01,0,.03,0,.04,0,0,0,0,0,0,0,.01,0,.03,0,.04,0,0,0,0,0,0,0,.01,0,.03,0,.04,0,0,0,0,0,0,0,.01,0,.03,0,.04,0,0,0,0,0,0,0,.01,0,.03,0,.04,0h0s.03,0,.04,0c0,0,0,0,0,0,.01,0,.03,0,.04,0,0,0,0,0,0,0,.02,0,.03,0,.04,0,0,0,0,0,0,0,.01,0,.03,0,.04,0h0s.03,0,.04,0h0s.03,0,.04,0c0,0,0,0,0,0,.01,0,.03,0,.04,0,0,0,0,0,0,0,.01,0,.03,0,.04,0,0,0,0,0,0,0,.01,0,.03,0,.04,0,0,0,0,0,0,0,.01,0,.03,0,.04,0,0,0,0,0,0,0,.01,0,.03,0,.04,0,0,0,0,0,0,0,.01,0,.03,0,.04,0,0,0,0,0,0,0,.01,0,.03,0,.04,0,0,0,0,0,0,0,.01,0,.03,0,.04,0,0,0,0,0,0,0,.01,0,.03,0,.04,0,0,0,0,0,0,0,.01,0,.03,0,.04,0,0,0,0,0,0,0,.01,0,.03,0,.04,0,0,0,0,0,0,0,.01,0,.03,0,.04,0,0,0,0,0,0,0,.01,0,.03,0,.04,0,0,0,0,0,0,0,.01,0,.03,0,.04,0,0,0,0,0,0,0,.01,0,.03,0,.04,0,0,0,0,0,0,0,.01,0,.03,0,.04,0,0,0,0,0,0,0,.01,0,.03,0,.04,0,0,0,0,0,0,0,.01,0,.03,0,.04,0,0,0,0,0,0,0,.01,0,.03,0,.04,0,0,0,0,0,0,0,.01,0,.03,0,.04,0,0,0,0,0,0,0,.01,0,.03,0,.04,0,0,0,0,0,0,0,.01,0,.03,0,.04,0h0s.03,0,.04,0c0,0,0,0,0,0,.01,0,.03,0,.04,0,0,0,0,0,0,0,.01,0,.03,0,.04,0,0,0,0,0,0,0,.01,0,.03,0,.04,0,0,0,0,0,0,0,.01,0,.03,0,.04,0,0,0,0,0,0,0,.01,0,.03,0,.04,0,0,0,0,0,0,0,.01,0,.03,0,.04,0,0,0,0,0,0,0,.01,0,.03,0,.04,0,0,0,0,0,0,0,.01,0,.03,0,.04,0,0,0,0,0,0,0,.03,0,.06,0,.08,0,0,0,0,0,0,0,.01,0,.03,0,.04,0,0,0,0,0,0,0,.01,0,.03,0,.04,0,0,0,0,0,0,0,.01,0,.03,0,.04,0h0s.03,0,.04,0c0,0,0,0,0,0,.01,0,.03,0,.04,0,0,0,0,0,0,0,.01,0,.03,0,.04,0,0,0,0,0,0,0,.01,0,.03,0,.04,0,0,0,0,0,0,0,.01,0,.03,0,.04,0h0s.03,0,.04,0c0,0,0,0,0,0,.01,0,.03,0,.04,0,0,0,0,0,0,0,.01,0,.03,0,.04,0,0,0,0,0,0,0,.01,0,.03,0,.04,0,0,0,0,0,0,0,.03,0,.05,0,.08-.01,0,0,0,0,0,0,.01,0,.03,0,.04,0,0,0,0,0,0,0,.01,0,.03,0,.04,0,0,0,0,0,0,0,.01,0,.03,0,.04,0,0,0,0,0,0,0,.03,0,.06,0,.09-.01h0s.03,0,.04,0c0,0,0,0,0,0,.01,0,.03,0,.04,0,0,0,0,0,0,0,.01,0,.03,0,.04,0,0,0,0,0,0,0,.01,0,.03,0,.04,0,0,0,0,0,0,0,.01,0,.03,0,.04,0,0,0,0,0,0,0,.01,0,.03,0,.04,0,0,0,0,0,0,0,.01,0,.03,0,.04,0,0,0,0,0,0,0,.03,0,.06,0,.09-.01,0,0,0,0,0,0,.01,0,.03,0,.04,0,0,0,0,0,0,0,.01,0,.03,0,.04,0,0,0,0,0,0,0,.01,0,.03,0,.04,0,0,0,0,0,0,0,.01,0,.03,0,.04,0,0,0,0,0,0,0,.01,0,.03,0,.04,0,0,0,0,0,0,0,.01,0,.03,0,.04,0,0,0,0,0,0,0,.01,0,.03,0,.04,0,0,0,0,0,0,0,.01,0,.03,0,.04,0,0,0,0,0,0,0,.03,0,.05,0,.08-.01,0,0,0,0,0,0,.01,0,.03,0,.04,0,0,0,0,0,0,0,.01,0,.03,0,.04,0,0,0,0,0,0,0,.01,0,.03,0,.04,0h0s.06,0,.09-.01c0,0,0,0,0,0,.01,0,.03,0,.04,0,0,0,0,0,0,0,.01,0,.03,0,.04,0,0,0,0,0,0,0,.01,0,.03,0,.04,0h0s.03,0,.04,0h0s.03,0,.04,0c0,0,0,0,0,0,.01,0,.03,0,.04,0,0,0,0,0,0,0,.01,0,.03,0,.04,0,0,0,0,0,0,0,.03,0,.06,0,.09-.01h0s.03,0,.04,0c0,0,0,0,0,0,.01,0,.03,0,.04,0,0,0,0,0,0,0,.01,0,.03,0,.04,0,0,0,0,0,0,0,.03,0,.06,0,.09-.01h0s.03,0,.04,0c0,0,0,0,0,0,.01,0,.03,0,.04,0,0,0,0,0,0,0,.01,0,.03,0,.04,0,0,0,0,0,0,0,.03,0,.06,0,.08-.01,0,0,0,0,0,0,.01,0,.03,0,.04,0,0,0,0,0,0,0,.01,0,.03,0,.04,0,0,0,0,0,0,0,.04,0,.08-.01.13-.02,0,0,0,0,0,0,.01,0,.03,0,.04,0,0,0,0,0,0,0,.01,0,.03,0,.04,0h0s.09-.01.13-.02c0,0,0,0,0,0,.01,0,.03,0,.04,0,0,0,0,0,0,0,.01,0,.03,0,.04,0h0s.06-.01.09-.02c0,0,0,0,0,0,.01,0,.03,0,.04,0,0,0,0,0,0,0,.01,0,.03,0,.04,0,0,0,0,0,0,0,.04,0,.08-.01.13-.02,0,0,0,0,0,0,.01,0,.03,0,.04,0,0,0,0,0,0,0,.01,0,.03,0,.04,0,0,0,0,0,0,0,.04,0,.08-.02.13-.02,0,0,0,0,0,0,.01,0,.03,0,.04,0,0,0,0,0,0,0,.01,0,.03,0,.04,0,0,0,0,0,0,0,.03,0,.06-.01.09-.02h0s.03,0,.04,0h0s.03,0,.04,0c0,0,0,0,0,0,.06-.01.11-.02.17-.03,0,0,0,0,0,0,.01,0,.03,0,.04,0h0s.09-.02.13-.03h0s.03,0,.04,0c0,0,0,0,0,0,.01,0,.03,0,.04,0h0s.09-.02.13-.03h0s.03,0,.04,0h0s.03,0,.04,0c0,0,0,0,0,0,.04,0,.08-.02.13-.03,0,0,0,0,0,0,.01,0,.03,0,.04,0,0,0,0,0,0,0,.01,0,.03,0,.04,0,0,0,0,0,0,0,.03,0,.05-.01.08-.02,0,0,0,0,0,0,.01,0,.03,0,.04,0h0s.03,0,.04,0c0,0,0,0,0,0,.06-.01.11-.02.17-.04,0,0,0,0,0,0,.01,0,.03,0,.04,0h0c.06-.01.11-.02.17-.04h0s.03,0,.04,0h0c.06-.01.12-.03.17-.04h0c.06-.01.11-.03.17-.04h0s.03,0,.04,0c0,0,0,0,0,0h.04s0,0,0,0c.04,0,.09-.02.13-.03,0,0,0,0,0,0,.01,0,.03,0,.04,0h0c.06-.01.11-.03.17-.04h0s.03,0,.04-.01h0s.09-.02.13-.03h0s.03,0,.04-.01h0c.07-.02.14-.03.21-.05,0,0,0,0,0,0,.2-.05.4-.1.6-.15h0c.06-.01.11-.03.17-.04h0c7.81-1.98,14.97-5.58,21.12-10.41,0,0,0,0,0,0,.01,0,.02-.02.03-.03h0s.07-.05.1-.08h0s.02-.02.03-.03h0s.02-.02.03-.03c0,0,0,0,0,0,.02-.02.04-.03.07-.05h0s.02-.02.03-.03c0,0,0,0,0,0,.01,0,.02-.02.03-.03,0,0,0,0,0,0,.01,0,.02-.02.03-.03h0s.06-.05.1-.08c0,0,0,0,0,0,.01,0,.02-.02.03-.02,0,0,0,0,0,0,.01,0,.02-.02.03-.02,0,0,0,0,0,0,.02-.02.04-.03.06-.05,0,0,0,0,0,0,.01,0,.02-.02.03-.02,0,0,0,0,0,0,.01,0,.02-.02.03-.02,0,0,0,0,0,0,0,0,.02-.02.03-.02,0,0,0,0,0,0,.01,0,.02-.02.03-.02,0,0,0,0,0,0,0,0,.02-.02.03-.02h0s.02-.02.03-.03c0,0,0,0,0,0,0,0,.02-.02.03-.02,0,0,0,0,0,0,0,0,.02-.02.03-.02,0,0,0,0,0,0,.01,0,.02-.01.03-.02,0,0,0,0,0,0,0,0,.02-.02.03-.02,0,0,0,0,0,0,0,0,.02-.02.03-.02,0,0,0,0,0,0,0,0,.02-.02.03-.02,0,0,0,0,0,0,0,0,.02-.02.03-.02,0,0,0,0,0,0,0,0,.02-.01.03-.02,0,0,0,0,0,0,0,0,.02-.01.03-.02,0,0,0,0,0,0,0,0,.02-.02.03-.02,0,0,0,0,0,0,0,0,.02-.02.03-.02,0,0,0,0,0,0,0,0,.02-.01.02-.02,0,0,0,0,0,0,0,0,.02-.01.02-.02,0,0,0,0,0,0,0,0,.02-.02.03-.02,0,0,0,0,0,0,0,0,.02-.02.03-.02,0,0,0,0,0,0,0,0,.02-.01.03-.02,0,0,0,0,0,0,0,0,.02-.01.03-.02,0,0,0,0,0,0,0,0,.02-.02.03-.02,0,0,0,0,0,0,0,0,.02-.02.03-.02,0,0,0,0,0,0,0,0,.02-.02.03-.02,0,0,0,0,0,0,0,0,.02-.02.03-.02,0,0,0,0,0,0,0,0,.02-.02.03-.02,0,0,0,0,0,0,0,0,.02-.02.03-.02,0,0,0,0,0,0,0,0,.02-.02.03-.02,0,0,0,0,0,0,0,0,.02-.02.03-.02,0,0,0,0,0,0,0,0,.02-.02.03-.02,0,0,0,0,0,0,0,0,.02-.01.03-.02,0,0,0,0,0,0,0,0,.02-.01.03-.02,0,0,0,0,0,0,0,0,.02-.02.03-.02,0,0,0,0,0,0,0,0,.02-.01.03-.02,0,0,0,0,0,0,0,0,.02-.01.02-.02,0,0,0,0,0,0,0,0,.02-.01.02-.02,0,0,0,0,0,0,0,0,.02-.02.03-.02,0,0,0,0,0,0,0,0,.02-.01.03-.02,0,0,0,0,0,0,0,0,.02-.01.03-.02,0,0,0,0,0,0,0,0,.02-.01.02-.02,0,0,0,0,0,0,0,0,.02-.01.02-.02,0,0,0,0,0,0,0,0,.02-.02.03-.02,0,0,0,0,0,0,0,0,.02-.01.02-.02,0,0,0,0,0,0,0,0,.01-.01.02-.02,0,0,0,0,.01,0,0,0,.01-.01.02-.02,0,0,0,0,0,0,0,0,.02-.01.02-.02,0,0,0,0,0,0,0,0,.02-.01.02-.02,0,0,0,0,0,0,0,0,.02-.01.02-.02,0,0,0,0,0,0,0,0,.02-.01.02-.02,0,0,0,0,0,0,0,0,.01-.01.02-.02,0,0,0,0,0,0,0,0,.02-.01.02-.02,0,0,0,0,0,0,0,0,.02-.01.02-.02,0,0,0,0,.01,0,0,0,.02-.01.02-.02,0,0,0,0,0,0,0,0,.01-.01.02-.02,0,0,0,0,.01,0,0,0,.01-.01.02-.02,0,0,0,0,0,0,0,0,.02-.01.02-.02,0,0,0,0,.01-.01,0,0,.01-.01.02-.02,0,0,0,0,.01,0,0,0,.01-.01.02-.02,0,0,0,0,.01-.01,0,0,.01-.01.02-.02,0,0,0,0,.01-.01,0,0,.01-.01.02-.02,0,0,0,0,.01-.01,0,0,.01-.01.02-.02,0,0,0,0,.01-.01,0,0,.01-.01.02-.02,0,0,0,0,.01-.01,0,0,.01-.01.02-.02,0,0,0,0,.01-.01,0,0,.01-.01.02-.02,0,0,.01,0,.02-.01,0,0,.01,0,.02-.01,0,0,0,0,.01-.01,0,0,.01-.01.02-.02,0,0,0,0,.01-.01,0,0,.01-.01.02-.02,0,0,0,0,.01-.01,0,0,0,0,.01-.01,0,0,.01-.01.02-.02,0,0,0,0,.01-.01,0,0,.01-.01.02-.02,0,0,0,0,.01-.01,0,0,0,0,.01-.01,0,0,.01-.01.02-.02,0,0,0,0,.01-.01,0,0,0,0,.01-.01,0,0,.01-.01.02-.02,0,0,0,0,.01-.01,0,0,.01-.01.02-.02,0,0,0,0,.01,0,0,0,.02-.01.02-.02,0,0,0,0,.01,0,.02-.02.03-.03.05-.05,0,0,0,0,0,0,0,0,.02-.02.03-.02,0,0,0,0,0,0,0,0,.02-.02.03-.02,0,0,0,0,0,0,0,0,.02-.02.03-.02,0,0,0,0,0,0,0,0,.01,0,.02-.02h0s.02-.02.03-.03c0,0,0,0,.01,0,0,0,.02-.01.02-.02,0,0,0,0,0,0,0,0,.02-.02.03-.03,0,0,0,0,0,0,.02-.02.03-.03.05-.05h0s.02-.02.03-.03c0,0,0,0,0,0,0,0,.02-.02.03-.03,0,0,0,0,0,0,.01,0,.02-.02.03-.03,0,0,0,0,0,0,.02-.02.03-.03.05-.05,0,0,0,0,0,0,.01,0,.02-.02.03-.03,0,0,0,0,0,0,.01-.01.02-.02.03-.03,0,0,0,0,0,0,.01-.01.02-.02.03-.03h0s.03-.03.05-.05c0,0,0,0,0,0,.01,0,.02-.02.03-.03,0,0,0,0,0,0,.01,0,.02-.02.03-.03,0,0,0,0,0,0,.01-.01.02-.02.03-.03h0s.06-.05.08-.08c0,0,0,0,0,0,.01-.01.02-.02.03-.03h0c.08-.08.16-.15.24-.23h0c1.54-1.47,3-3.03,4.37-4.67l-9.21-7.69c-8.59,10.28-21.18,16.18-34.56,16.18-16.14,0-31.14-8.73-39.14-22.78h0ZM67.13.9l-2.12,11.81c21.43,3.84,36.99,22.47,36.99,44.29,0,8.13-2.19,16.1-6.33,23.03l10.3,6.15c1.92-3.22,3.54-6.65,4.8-10.24h0c.07-.21.14-.41.21-.62,0,0,0,0,0,0,0-.03.02-.05.03-.08h0c.07-.21.14-.41.21-.62h0s.02-.06.03-.08c0,0,0,0,0,0,0-.03.02-.05.03-.08,0,0,0,0,0,0,0-.03.02-.05.03-.08,0,0,0,0,0,0,0-.03.02-.05.03-.08,0,0,0,0,0,0,0-.03.02-.05.03-.08,0,0,0,0,0,0,0-.03.02-.05.03-.08,0,0,0,0,0,0,0-.03.02-.05.03-.08,0,0,0,0,0,0,0-.03.02-.05.03-.08,0,0,0,0,0,0,0-.01,0-.03.01-.04,0,0,0,0,0,0,0-.01,0-.03.01-.04,0,0,0,0,0,0,0-.01,0-.02.01-.04,0,0,0,0,0,0,0-.01,0-.03.01-.04,0,0,0,0,0,0,0-.01,0-.03.01-.04,0,0,0,0,0,0,0-.03.02-.05.02-.08,0,0,0,0,0,0,0-.01,0-.03.01-.04h0s0-.03.01-.04c0,0,0,0,0,0,0-.03.02-.05.02-.08,0,0,0,0,0,0,0-.03.02-.05.02-.08,0,0,0,0,0,0,0-.03.02-.05.02-.08,0,0,0,0,0,0,0-.03.02-.05.02-.08,0,0,0,0,0,0,0-.03.02-.05.02-.08,0,0,0,0,0,0,0-.01,0-.03.01-.04h0s0-.03.01-.04c0,0,0,0,0,0,0-.01,0-.03.01-.04,0,0,0,0,0,0,0-.01,0-.03.01-.04,0,0,0,0,0,0,0-.01,0-.02.01-.04,0,0,0,0,0,0,0-.01,0-.03.01-.04h0s0-.03.01-.04c0,0,0,0,0,0,0-.03.02-.05.02-.08,0,0,0,0,0,0,0-.03.02-.05.02-.08,0,0,0,0,0,0,0-.03.02-.05.02-.08,0,0,0,0,0,0,0-.03.02-.05.02-.08,0,0,0,0,0,0,0-.03.02-.05.02-.08,0,0,0,0,0,0,0-.03.02-.05.02-.08,0,0,0,0,0,0,0-.03.01-.05.02-.08,0,0,0,0,0,0,0-.03.01-.05.02-.08,0,0,0,0,0,0,0-.01,0-.03.01-.04,0,0,0,0,0,0,0-.01,0-.03.01-.04,0,0,0,0,0,0,0-.01,0-.02.01-.04,0,0,0,0,0,0,0-.01,0-.03.01-.04,0,0,0,0,0,0,0-.01,0-.03.01-.04,0,0,0,0,0,0,0-.01,0-.03.01-.04h0s0-.03.01-.04c0,0,0,0,0,0,0-.03.01-.05.02-.08,0,0,0,0,0,0,0-.03.01-.05.02-.08,0,0,0,0,0,0,0-.03.01-.05.02-.08,0,0,0,0,0,0,0-.03.01-.05.02-.08,0,0,0,0,0,0,0-.01,0-.03.01-.04,0,0,0,0,0,0,0-.01,0-.03.01-.04,0,0,0,0,0,0,0-.01,0-.03,0-.04,0,0,0,0,0,0,0-.01,0-.02.01-.04,0,0,0,0,0,0,0-.01,0-.02,0-.04,0,0,0,0,0,0,0-.01,0-.02.01-.04,0,0,0,0,0,0,0-.01,0-.02,0-.03,0,0,0,0,0,0,0-.01,0-.02,0-.04,0,0,0,0,0,0,0-.01,0-.02,0-.03,0,0,0,0,0,0,0-.01,0-.03,0-.04,0,0,0,0,0,0,0-.01,0-.02,0-.04,0,0,0,0,0,0,0-.01,0-.03.01-.04,0,0,0,0,0,0,0-.01,0-.02,0-.04,0,0,0,0,0,0,0-.01,0-.03,0-.04,0,0,0,0,0,0,0-.01,0-.02,0-.04,0,0,0,0,0,0,0-.01,0-.03,0-.04h0s0-.03,0-.04c0,0,0,0,0,0,0-.02.01-.05.02-.08,0,0,0,0,0,0,0-.02.01-.05.02-.08,0,0,0,0,0,0,0-.01,0-.03,0-.04h0s0-.03,0-.04c0,0,0,0,0,0,0-.01,0-.02,0-.04,0,0,0,0,0,0,0-.01,0-.03,0-.04,0,0,0,0,0,0,0-.01,0-.02,0-.04,0,0,0,0,0,0,0-.01,0-.03,0-.04,0,0,0,0,0,0,0-.01,0-.02,0-.03,0,0,0,0,0,0,0-.01,0-.02,0-.04,0,0,0,0,0,0,0-.01,0-.02,0-.03,0,0,0,0,0,0,0-.01,0-.03,0-.04,0,0,0,0,0,0,0-.01,0-.02,0-.03,0,0,0,0,0,0,0-.01,0-.03,0-.04,0,0,0,0,0,0,0-.01,0-.03,0-.04,0,0,0,0,0,0,0-.01,0-.03,0-.04,0,0,0,0,0,0,0-.01,0-.02,0-.03,0,0,0,0,0,0,0-.01,0-.03,0-.04,0,0,0,0,0,0,0-.01,0-.02,0-.04,0,0,0,0,0-.01,0-.01,0-.02,0-.03,0,0,0,0,0,0,0-.01,0-.02,0-.04,0,0,0,0,0-.01,0-.01,0-.02,0-.03,0,0,0,0,0,0,0-.01,0-.02,0-.04,0,0,0,0,0-.01,0-.01,0-.02,0-.03,0,0,0,0,0,0,0-.01,0-.03,0-.04,0,0,0,0,0,0,0-.01,0-.02,0-.03,0,0,0,0,0,0,0-.01,0-.03,0-.04,0,0,0,0,0,0,0-.01,0-.02,0-.03,0,0,0,0,0,0,0-.01,0-.02,0-.04,0,0,0,0,0,0,0-.01,0-.02,0-.03,0,0,0,0,0,0,0-.01,0-.03,0-.04,0,0,0,0,0,0,0-.01,0-.02,0-.03,0,0,0,0,0,0,0-.01,0-.03,0-.04,0,0,0,0,0,0,0-.01,0-.02,0-.03,0,0,0,0,0,0,0-.01,0-.03,0-.04,0,0,0,0,0,0,0-.01,0-.02,0-.03,0,0,0,0,0-.01,0-.01,0-.02,0-.04,0,0,0,0,0,0,0-.01,0-.02,0-.03,0,0,0,0,0-.01,0-.01,0-.03,0-.04,0,0,0,0,0,0,0-.01,0-.02,0-.04,0,0,0,0,0,0,0-.03.01-.05.02-.08,0,0,0,0,0,0,0-.01,0-.02,0-.04,0,0,0,0,0,0,0-.01,0-.03,0-.04,0,0,0,0,0,0,0-.01,0-.02,0-.03,0,0,0,0,0,0,0-.01,0-.03,0-.04,0,0,0,0,0,0,0-.01,0-.02,0-.03,0,0,0,0,0,0,0-.01,0-.03,0-.04,0,0,0,0,0,0,0-.01,0-.02,0-.03,0,0,0,0,0,0,0-.01,0-.02,0-.04,0,0,0,0,0-.01,0-.01,0-.02,0-.03,0,0,0,0,0,0,0-.01,0-.03,0-.04,0,0,0,0,0-.01,0-.01,0-.02,0-.03,0,0,0,0,0-.01,0-.01,0-.02,0-.04,0,0,0,0,0,0,0-.01,0-.02,0-.03,0,0,0,0,0-.01,0-.01,0-.02,0-.04,0,0,0,0,0,0,0-.01,0-.02,0-.03,0,0,0,0,0-.01,0-.01,0-.02,0-.04,0,0,0,0,0,0,0-.01,0-.02,0-.03,0,0,0,0,0-.01,0-.01,0-.03,0-.04,0,0,0,0,0,0,0-.01,0-.02,0-.04,0,0,0,0,0,0,0-.01,0-.02,0-.04,0,0,0,0,0,0,0-.01,0-.03,0-.04,0,0,0,0,0-.01,0-.01,0-.02,0-.03,0,0,0,0,0,0,0-.01,0-.03,0-.04,0,0,0,0,0,0,0-.01,0-.02,0-.03,0,0,0,0,0,0,0-.01,0-.02,0-.04,0,0,0,0,0-.01,0-.01,0-.02,0-.03,0,0,0,0,0-.01,0-.01,0-.03,0-.04,0,0,0,0,0,0,0-.01,0-.02,0-.03,0,0,0,0,0,0,0-.01,0-.03,0-.04,0,0,0,0,0,0,0-.01,0-.02,0-.03,0,0,0,0,0-.01,0-.01,0-.03,0-.04,0,0,0,0,0,0,0-.01,0-.02,0-.03,0,0,0,0,0-.01,0-.01,0-.02,0-.04,0,0,0,0,0,0,0-.01,0-.02,0-.03,0,0,0,0,0-.01,0-.01,0-.02,0-.04,0,0,0,0,0,0,0-.01,0-.02,0-.03,0,0,0,0,0-.01,0-.01,0-.02,0-.04,0,0,0,0,0,0,0-.01,0-.02,0-.03,0,0,0,0,0-.01,0-.01,0-.02,0-.04,0,0,0,0,0,0,0-.01,0-.02,0-.04,0,0,0,0,0-.01,0-.01,0-.02,0-.03,0,0,0,0,0,0,0-.01,0-.02,0-.04,0,0,0,0,0-.01,0-.01,0-.02,0-.03,0,0,0,0,0,0,0-.01,0-.02,0-.04,0,0,0,0,0-.01,0-.01,0-.02,0-.03,0,0,0,0,0,0,0-.01,0-.03,0-.04,0,0,0,0,0-.01,0-.01,0-.02,0-.03,0,0,0,0,0,0,0-.01,0-.03,0-.04,0,0,0,0,0,0,0-.01,0-.02,0-.03,0,0,0,0,0,0,0-.01,0-.03,0-.04,0,0,0,0,0,0,0-.01,0-.02,0-.03,0,0,0,0,0,0,0-.01,0-.03,0-.04,0,0,0,0,0,0,0-.01,0-.02,0-.03,0,0,0,0,0-.01,0-.01,0-.02,0-.04,0,0,0,0,0,0,0-.01,0-.02,0-.03,0,0,0,0,0-.01,0-.01,0-.03,0-.04,0,0,0,0,0,0,0-.01,0-.02,0-.03,0,0,0,0,0-.01,0-.01,0-.02,0-.04,0,0,0,0,0,0,0-.01,0-.02,0-.03,0,0,0,0,0-.01,0-.01,0-.02,0-.04,0,0,0,0,0,0,0-.01,0-.03,0-.04,0,0,0,0,0-.01,0-.01,0-.02,0-.03,0,0,0,0,0,0,0-.01,0-.02,0-.04,0,0,0,0,0-.01,0-.01,0-.02,0-.03,0,0,0,0,0,0,0-.01,0-.02,0-.04,0,0,0,0,0-.01,0-.01,0-.02,0-.03,0,0,0,0,0,0,0-.01,0-.02,0-.04,0,0,0,0,0-.01,0-.01,0-.02,0-.03,0,0,0,0,0-.01,0-.01,0-.03,0-.04,0,0,0,0,0-.01,0-.01,0-.02,0-.03,0,0,0,0,0-.01,0-.01,0-.03,0-.04,0,0,0,0,0,0,0-.01,0-.02,0-.03,0,0,0,0,0-.01,0-.01,0-.03,0-.04,0,0,0,0,0-.01,0-.01,0-.02,0-.03,0,0,0,0,0-.01,0-.01,0-.02,0-.04,0,0,0,0,0,0,0-.01,0-.02,0-.03,0,0,0,0,0-.01,0-.01,0-.03,0-.04,0,0,0,0,0,0,0-.01,0-.02,0-.03,0,0,0,0,0-.01,0-.01,0-.03,0-.04,0,0,0,0,0,0,0-.01,0-.02,0-.04,0,0,0,0,0-.01,0-.01,0-.02,0-.04,0,0,0,0,0,0,0-.01,0-.03,0-.04,0,0,0,0,0-.01,0-.01,0-.02,0-.03,0,0,0,0,0,0,0-.01,0-.03,0-.04,0,0,0,0,0-.01,0-.01,0-.02,0-.03,0,0,0,0,0,0,0-.01,0-.03,0-.04,0,0,0,0,0-.01,0-.01,0-.02,0-.03,0,0,0,0,0,0,0-.01,0-.03,0-.04,0,0,0,0,0-.01,0-.01,0-.02,0-.03,0,0,0,0,0,0,0-.01,0-.03,0-.04,0,0,0,0,0-.01,0-.01,0-.02,0-.03,0,0,0,0,0,0,0-.01,0-.03,0-.04,0,0,0,0,0,0,0-.01,0-.02,0-.03,0,0,0,0,0,0,0-.01,0-.03,0-.04,0,0,0,0,0,0,0-.01,0-.02,0-.03,0,0,0,0,0,0,0-.01,0-.03,0-.04,0,0,0,0,0,0,0-.01,0-.02,0-.03,0,0,0,0,0-.01,0-.01,0-.03,0-.04,0,0,0,0,0,0,0-.01,0-.02,0-.03,0,0,0,0,0-.01,0-.01,0-.02,0-.04,0,0,0,0,0,0,0-.01,0-.02,0-.03,0,0,0,0,0-.01,0-.01,0-.02,0-.03,0,0,0,0,0,0,0-.01,0-.02,0-.04,0,0,0,0,0-.01,0-.01,0-.02,0-.03,0,0,0,0,0,0,0-.01,0-.03,0-.04,0,0,0,0,0-.01,0-.01,0-.02,0-.03,0,0,0,0,0,0,0-.01,0-.02,0-.04,0,0,0,0,0-.01,0-.01,0-.02,0-.03,0,0,0,0,0,0,0-.01,0-.03,0-.04,0,0,0,0,0-.01,0-.01,0-.02,0-.03,0,0,0,0,0-.01,0-.01,0-.03,0-.04,0,0,0,0,0,0,0-.01,0-.02,0-.03,0,0,0,0,0-.01,0-.01,0-.03,0-.04,0,0,0,0,0,0,0-.01,0-.02,0-.03,0,0,0,0,0-.01,0-.01,0-.03,0-.04,0,0,0,0,0,0,0-.01,0-.02,0-.03,0,0,0,0,0-.01,0-.01,0-.03,0-.04,0,0,0,0,0,0,0-.01,0-.02,0-.03,0,0,0,0,0-.01,0-.01,0-.03,0-.04,0,0,0,0,0,0,0-.01,0-.02,0-.04,0,0,0,0,0-.01,0-.01,0-.02,0-.04,0,0,0,0,0,0,0-.01,0-.02,0-.03,0,0,0,0,0-.01,0-.01,0-.02,0-.03,0,0,0,0,0,0,0-.01,0-.02,0-.04,0,0,0,0,0-.01,0-.01,0-.02,0-.03,0,0,0,0,0,0,0-.01,0-.03,0-.04,0,0,0,0,0-.01,0-.01,0-.02,0-.03,0,0,0,0,0,0,0-.01,0-.02,0-.04,0,0,0,0,0-.01,0-.01,0-.02,0-.03,0,0,0,0,0-.01,0-.01,0-.03,0-.04,0,0,0,0,0-.01,0-.01,0-.02,0-.03,0,0,0,0,0-.01,0-.01,0-.03,0-.04,0,0,0,0,0-.01,0-.01,0-.02,0-.03,0,0,0,0,0-.01,0-.01,0-.03,0-.04,0,0,0,0,0,0,0-.01,0-.02,0-.03,0,0,0,0,0,0,0-.01,0-.03,0-.04,0,0,0,0,0,0,0-.01,0-.02,0-.03,0,0,0,0,0-.01,0-.01,0-.02,0-.04,0,0,0,0,0,0,0-.01,0-.02,0-.03,0,0,0,0,0-.01,0-.01,0-.02,0-.04,0,0,0,0,0,0,0-.01,0-.02,0-.03,0,0,0,0,0-.01,0-.01,0-.03,0-.04,0,0,0,0,0,0,0-.01,0-.02,0-.04,0,0,0,0,0-.01,0-.01,0-.02,0-.03,0,0,0,0,0,0,0-.01,0-.02,0-.04,0,0,0,0,0-.01,0-.01,0-.02,0-.03,0,0,0,0,0,0,0-.01,0-.02,0-.04,0,0,0,0,0-.01,0-.01,0-.02,0-.03,0,0,0,0,0-.01,0-.01,0-.02,0-.04,0,0,0,0,0-.01,0-.01,0-.02,0-.03,0,0,0,0,0-.01,0-.01,0-.03,0-.04,0,0,0,0,0-.01,0-.01,0-.02,0-.03,0,0,0,0,0-.01,0-.01,0-.03,0-.04,0,0,0,0,0-.01,0-.01,0-.02,0-.03,0,0,0,0,0-.01,0-.01,0-.03,0-.04,0,0,0,0,0-.01,0-.01,0-.02,0-.03,0,0,0,0,0-.01,0-.01,0-.02,0-.04,0,0,0,0,0,0,0-.01,0-.02,0-.03,0,0,0,0,0-.01,0-.01,0-.03,0-.04,0,0,0,0,0,0,0-.01,0-.02,0-.03,0,0,0,0,0-.01,0-.01,0-.03,0-.04,0,0,0,0,0,0,0-.01,0-.02,0-.03,0,0,0,0,0-.01,0-.01,0-.02,0-.04,0,0,0,0,0,0,0-.01,0-.02,0-.04,0,0,0,0,0-.01,0-.01,0-.02,0-.03,0,0,0,0,0,0,0-.01,0-.02,0-.04,0,0,0,0,0-.01,0-.01,0-.02,0-.03,0,0,0,0,0,0,0-.01,0-.03,0-.04,0,0,0,0,0-.01,0-.01,0-.02,0-.03,0,0,0,0,0,0,0-.01,0-.03,0-.04,0,0,0,0,0-.01,0-.01,0-.02,0-.03,0,0,0,0,0-.01,0-.01,0-.03,0-.04,0,0,0,0,0-.01,0-.01,0-.02,0-.03,0,0,0,0,0-.01,0-.01,0-.03,0-.04,0,0,0,0,0,0,0-.01,0-.02,0-.03,0,0,0,0,0,0,0-.01,0-.03,0-.04,0,0,0,0,0,0,0-.01,0-.02,0-.03,0,0,0,0,0,0,0-.01,0-.03,0-.04,0,0,0,0,0,0,0-.01,0-.02,0-.04,0,0,0,0,0,0,0-.01,0-.03,0-.04,0,0,0,0,0,0,0-.01,0-.03,0-.04,0,0,0,0,0,0,0-.01,0-.03,0-.04,0,0,0,0,0,0,0-.01,0-.03,0-.04,0,0,0,0,0-.01,0-.01,0-.02,0-.04,0,0,0,0,0,0,0-.01,0-.03,0-.04,0,0,0,0,0,0,0-.01,0-.02,0-.03,0,0,0,0,0,0,0-.01,0-.03,0-.04,0,0,0,0,0-.01,0-.01,0-.02,0-.03,0,0,0,0,0,0,0-.01,0-.03,0-.04,0,0,0,0,0-.01,0-.01,0-.02,0-.03,0,0,0,0,0,0,0-.01,0-.03,0-.04,0,0,0,0,0-.01,0-.01,0-.02,0-.03,0,0,0,0,0,0,0-.01,0-.03,0-.04,0,0,0,0,0,0,0-.01,0-.02,0-.03,0,0,0,0,0-.01,0-.01,0-.03,0-.04,0,0,0,0,0,0,0-.01,0-.02,0-.03,0,0,0,0,0-.01,0-.01,0-.03,0-.04,0,0,0,0,0,0,0-.01,0-.02,0-.03,0,0,0,0,0-.01,0-.01,0-.03,0-.04,0,0,0,0,0,0,0-.01,0-.02,0-.03,0,0,0,0,0-.01,0-.01,0-.03,0-.04,0,0,0,0,0,0,0-.01,0-.02,0-.04,0,0,0,0,0-.01,0-.01,0-.03,0-.04,0,0,0,0,0,0,0-.01,0-.03,0-.04,0,0,0,0,0-.01,0-.01,0-.03,0-.04,0,0,0,0,0,0,0-.01,0-.03,0-.04,0,0,0,0,0-.01,0-.01,0-.02,0-.04,0,0,0,0,0,0,0-.01,0-.03,0-.04,0,0,0,0,0-.01,0-.01,0-.02,0-.04,0,0,0,0,0,0,0-.01,0-.03,0-.04,0,0,0,0,0-.01,0-.01,0-.02,0-.03,0,0,0,0,0,0,0-.01,0-.03,0-.04,0,0,0,0,0,0,0-.01,0-.02,0-.03,0,0,0,0,0,0,0-.01,0-.03,0-.04,0,0,0,0,0,0,0-.01,0-.02,0-.03,0,0,0,0,0,0,0-.01,0-.03,0-.04,0,0,0,0,0,0,0-.01,0-.02,0-.04,0,0,0,0,0,0,0-.01,0-.03,0-.04,0,0,0,0,0,0,0-.01,0-.02,0-.03,0,0,0,0,0,0,0-.01,0-.03,0-.04,0,0,0,0,0,0,0-.01,0-.02,0-.04,0,0,0,0,0,0,0-.01,0-.03,0-.04,0,0,0,0,0,0,0-.01,0-.03,0-.04,0,0,0,0,0,0,0-.03,0-.06,0-.08,0,0,0,0,0,0,0-.01,0-.03,0-.04,0,0,0,0,0,0,0-.01,0-.03,0-.04,0,0,0,0,0,0,0-.01,0-.03,0-.04h0s0-.03,0-.04c0,0,0,0,0,0,0-.01,0-.02,0-.04,0,0,0,0,0,0,0-.01,0-.03,0-.04,0,0,0,0,0-.01,0-.01,0-.02,0-.03,0,0,0,0,0,0,0-.01,0-.03,0-.04,0,0,0,0,0-.01,0-.01,0-.02,0-.03,0,0,0,0,0,0,0-.01,0-.03,0-.04,0,0,0,0,0-.01,0-.01,0-.02,0-.03,0,0,0,0,0-.01,0-.01,0-.03,0-.04,0,0,0,0,0,0,0-.01,0-.02,0-.03,0,0,0,0,0-.01,0-.01,0-.03,0-.04,0,0,0,0,0,0,0-.01,0-.02,0-.03,0,0,0,0,0-.01,0-.01,0-.03,0-.04h0s0-.03,0-.04c0,0,0,0,0-.01,0-.01,0-.03,0-.04h0s0-.03,0-.04c0,0,0,0,0-.01,0-.03,0-.05,0-.08,0,0,0,0,0-.01,0-.03,0-.05,0-.08,0,0,0,0,0-.01,0-.01,0-.03,0-.04h0s0-.03,0-.04c0,0,0,0,0-.01,0-.01,0-.02,0-.03,0,0,0,0,0,0,0-.01,0-.03,0-.04,0,0,0,0,0-.01,0-.01,0-.02,0-.03,0,0,0,0,0,0,0-.01,0-.03,0-.04,0,0,0,0,0,0,0-.01,0-.02,0-.04h0s0-.03,0-.05h0s0-.03,0-.04h0s0-.04,0-.05c0,0,0,0,0,0,0-.01,0-.02,0-.03,0,0,0,0,0,0,0-.01,0-.03,0-.04h0s0-.03,0-.04h0s0-.04,0-.05h0s0-.03,0-.04h0v-.05h0s0-.03,0-.04h0v-.05h0v-.04h0s0-.03,0-.04v-.04s0-.01,0-.02v-.03s0-.01,0-.02v-.03s0-.01,0-.02c0,0,0-.02,0-.03,0,0,0-.01,0-.02,0,0,0-.02,0-.03h0s0-.04,0-.05c0,0,0,0,0-.01,0-.01,0-.03,0-.04,0,0,0,0,0-.01,0,0,0-.02,0-.03,0,0,0-.01,0-.02,0,0,0-.02,0-.03,0,0,0-.01,0-.02,0,0,0-.02,0-.02,0,0,0-.01,0-.02,0,0,0-.02,0-.03,0,0,0-.01,0-.02,0,0,0-.02,0-.03,0,0,0-.01,0-.02,0,0,0-.02,0-.03,0,0,0-.01,0-.02,0,0,0-.02,0-.03,0,0,0,0,0-.01,0-.02,0-.03,0-.04,0,0,0,0,0-.01,0,0,0-.02,0-.03,0,0,0-.01,0-.02,0,0,0-.02,0-.03,0,0,0-.01,0-.02,0,0,0-.02,0-.03,0,0,0-.01,0-.02,0,0,0-.02,0-.03,0,0,0-.01,0-.02,0,0,0-.02,0-.03,0,0,0-.01,0-.02,0,0,0-.02,0-.03,0,0,0,0,0-.01,0,0,0-.02,0-.03,0,0,0,0,0-.01,0-.02,0-.03,0-.04,0,0,0,0,0-.01,0,0,0-.02,0-.03,0,0,0-.01,0-.02,0,0,0-.02,0-.03,0,0,0-.01,0-.02,0,0,0-.02,0-.03,0,0,0-.01,0-.02,0,0,0-.02,0-.03,0,0,0-.01,0-.02,0,0,0-.02,0-.03,0,0,0-.01,0-.02,0,0,0-.02,0-.03,0,0,0-.01,0-.02,0,0,0-.02,0-.03,0,0,0,0,0-.01,0-.02,0-.03,0-.04,0,0,0,0,0-.01,0,0,0-.02,0-.03,0,0,0-.01,0-.02,0,0,0-.02,0-.03,0,0,0,0,0-.02,0,0,0-.02,0-.03,0,0,0-.01,0-.02,0,0,0-.02,0-.03,0,0,0-.01,0-.02,0,0,0-.02,0-.03,0,0,0,0,0-.02,0,0,0-.02,0-.03,0,0,0,0,0-.01,0,0,0-.02,0-.03,0,0,0,0,0,0,0-.02,0-.03,0-.04,0,0,0,0,0,0,0-.01,0-.03,0-.04,0,0,0,0,0-.01,0,0,0-.02,0-.03,0,0,0-.01,0-.01,0,0,0-.02,0-.03,0,0,0-.01,0-.02,0,0,0-.02,0-.03,0,0,0-.01,0-.02,0,0,0-.02,0-.03,0,0,0-.01,0-.02,0,0,0-.02,0-.03,0,0,0,0,0-.01,0,0,0-.02,0-.03,0,0,0,0,0-.01,0-.02,0-.03,0-.04,0,0,0,0,0,0,0-.01,0-.02,0-.04,0,0,0,0,0-.01,0,0,0-.02,0-.03,0,0,0-.01,0-.02,0,0,0-.02,0-.03,0,0,0-.01,0-.02,0,0,0-.02,0-.03,0,0,0-.01,0-.02,0,0,0-.02,0-.03,0,0,0-.01,0-.02,0,0,0-.02,0-.03,0,0,0,0,0-.01,0,0,0-.02,0-.03,0,0,0,0,0-.01,0-.03,0-.06,0-.09,0,0,0-.01,0-.01,0,0,0-.02,0-.03,0,0,0-.01,0-.02,0,0,0-.02,0-.03,0,0,0-.01,0-.02,0,0,0-.02,0-.03,0,0,0-.01,0-.02,0,0,0-.02,0-.03,0,0,0-.01,0-.02,0,0,0-.02,0-.03,0,0,0-.01,0-.02,0,0,0-.02,0-.03,0,0,0-.01,0-.02,0-.02,0-.03,0-.04,0,0,0,0,0-.01,0,0,0-.02,0-.03,0,0,0-.01,0-.02,0,0,0-.02,0-.03,0,0,0-.01,0-.02,0,0,0-.02,0-.03,0,0,0-.01,0-.02,0,0,0-.02,0-.02,0,0,0-.01,0-.02,0,0,0-.02,0-.03,0,0,0-.01,0-.02,0,0,0-.02,0-.03,0,0,0-.01,0-.02,0,0,0-.02,0-.03,0,0,0,0,0-.01,0-.02,0-.03,0-.04h0s0-.03,0-.04c0,0,0-.01,0-.01,0,0,0-.02,0-.03,0,0,0-.01,0-.02,0,0,0-.02,0-.03,0,0,0-.01,0-.02,0,0,0-.02,0-.03,0,0,0-.01,0-.02,0,0,0-.02,0-.03,0,0,0-.01,0-.02,0,0,0-.02,0-.03,0,0,0-.01,0-.02,0,0,0-.02,0-.03,0,0,0-.01,0-.02,0-.01,0-.03,0-.04h0s0-.03,0-.04c0,0,0-.01,0-.01,0,0,0-.02,0-.03,0,0,0-.01,0-.02,0,0,0-.02,0-.03,0,0,0-.01,0-.02,0,0,0-.02,0-.03,0,0,0-.01,0-.02,0,0,0-.02,0-.03,0,0,0-.01,0-.02,0,0,0-.02,0-.03,0,0,0-.01,0-.02,0,0,0-.02,0-.03,0,0,0-.01,0-.02,0-.03,0-.06,0-.09,0,0,0,0,0-.01,0,0,0-.02,0-.03,0,0,0-.01,0-.02,0,0,0-.02,0-.03,0,0,0-.01,0-.02,0,0,0-.02,0-.03,0,0,0-.01,0-.02,0,0,0-.02,0-.03,0,0,0-.01,0-.02,0,0,0-.02,0-.03,0,0,0-.01,0-.02,0,0,0-.02,0-.03,0,0,0-.01,0-.02,0-.01,0-.03,0-.04,0,0,0,0,0,0,0-.02,0-.03,0-.04,0,0,0,0,0-.01,0,0,0-.02,0-.03,0,0,0-.01,0-.02,0,0,0-.02,0-.03,0,0,0-.01,0-.02,0,0,0-.02,0-.03,0,0,0-.01,0-.02,0,0,0-.02,0-.03,0,0,0-.01,0-.02,0,0,0-.02,0-.03,0,0,0-.01,0-.02,0,0,0-.02,0-.03,0,0,0-.01,0-.02,0,0,0-.02,0-.03,0,0,0,0,0-.01,0-.02,0-.03,0-.04,0,0,0,0,0-.01,0,0,0-.02,0-.03,0,0,0,0,0-.01,0,0,0-.02,0-.03,0,0,0-.01,0-.02,0,0,0-.02,0-.03,0,0,0-.01,0-.02,0,0,0-.02,0-.03,0,0,0-.01,0-.02,0,0,0-.02,0-.03,0,0,0,0,0-.02,0,0,0-.02,0-.03,0,0,0-.01,0-.02,0-.01,0-.02,0-.03,0,0,0,0,0,0,0-.02,0-.03,0-.04,0,0,0,0,0,0,0-.01,0-.03,0-.04,0,0,0,0,0-.01,0,0,0-.02,0-.03,0,0,0,0,0-.02,0,0,0-.02,0-.03,0,0,0-.01,0-.02,0,0,0-.02,0-.03,0,0,0-.01,0-.02,0,0,0-.02,0-.03,0,0,0-.01,0-.02,0,0,0-.02,0-.03,0,0,0-.01,0-.02,0,0,0-.02,0-.03,0,0,0,0,0-.01,0-.02,0-.03,0-.04,0,0,0,0,0,0,0,0,0-.02,0-.03,0,0,0,0,0-.01,0,0,0-.02,0-.03,0,0,0-.01,0-.02,0,0,0-.02,0-.03,0,0,0-.01,0-.02,0,0,0-.02,0-.02,0,0,0-.01,0-.02,0,0,0-.02,0-.02,0,0,0-.01,0-.02,0,0,0-.02,0-.03,0,0,0-.01,0-.02,0,0,0-.02,0-.03,0,0,0,0,0-.01,0-.01,0-.03,0-.04,0,0,0,0,0,0,0-.01,0-.02,0-.03,0,0,0,0,0-.01,0,0,0-.02,0-.03,0,0,0,0,0-.02,0,0,0-.02,0-.03,0,0,0-.01,0-.02,0,0,0-.02,0-.03,0,0,0-.01,0-.02,0,0,0-.02,0-.03,0,0,0-.01,0-.02,0,0,0-.02,0-.03,0,0,0-.01,0-.02,0,0,0-.02,0-.03,0,0,0,0,0-.01,0-.01,0-.03,0-.04,0,0,0,0,0,0,0-.01,0-.02,0-.04,0,0,0,0,0-.01,0,0,0-.02,0-.03,0,0,0-.01,0-.02,0,0,0-.02,0-.03,0,0,0-.01,0-.02,0,0,0-.02,0-.03,0,0,0-.01,0-.02,0,0,0-.02,0-.03,0,0,0-.01,0-.02,0,0,0-.02,0-.03,0,0,0-.01,0-.02,0,0,0-.02,0-.03,0,0,0,0,0-.01,0-.03,0-.06,0-.09,0,0,0,0,0-.01,0,0,0-.02,0-.03,0,0,0-.01,0-.02,0,0,0-.02,0-.03,0,0,0-.01,0-.02,0,0,0-.02,0-.03,0,0,0-.01,0-.02,0,0,0-.02,0-.03,0,0,0-.01,0-.02,0,0,0-.02,0-.03,0,0,0-.01,0-.02,0,0,0-.02,0-.03,0,0,0,0,0-.01,0-.03,0-.06-.01-.09,0,0,0,0,0-.01,0,0,0-.02,0-.03,0,0,0-.01,0-.02,0,0,0-.02,0-.03,0,0,0-.01,0-.02,0,0,0-.02,0-.03,0,0,0,0,0-.02,0,0,0-.02,0-.03,0,0,0-.01,0-.02,0,0,0-.02,0-.03,0,0,0-.01,0-.02,0,0,0-.02,0-.03,0,0,0-.01,0-.01,0-.01,0-.03,0-.04,0,0,0,0,0,0,0-.01,0-.03,0-.04,0,0,0,0,0-.01,0,0,0-.02,0-.03,0,0,0-.01,0-.02,0,0,0-.02,0-.03,0,0,0-.01,0-.02,0,0,0-.02,0-.03,0,0,0-.01,0-.02,0,0,0-.02,0-.03,0,0,0-.01,0-.02,0,0,0-.02,0-.03,0,0,0-.01,0-.02,0,0,0-.02,0-.03,0,0,0,0,0-.01,0-.03,0-.06-.01-.09,0,0,0,0,0,0,0-.01,0-.03,0-.04,0,0,0,0,0-.01,0,0,0-.02,0-.03,0,0,0,0,0-.01,0,0,0-.02,0-.03,0,0,0-.01,0-.02,0,0,0-.02,0-.03,0,0,0-.01,0-.01,0,0,0-.02,0-.03,0,0,0-.01,0-.02,0,0,0-.02,0-.03,0,0,0-.01,0-.01,0-.03,0-.06-.01-.09,0,0,0,0,0,0,0-.01,0-.02,0-.03,0,0,0,0,0-.01,0,0,0-.02,0-.03,0,0,0-.01,0-.01,0,0,0-.02,0-.03,0,0,0-.01,0-.02,0,0,0-.02,0-.03,0,0,0-.01,0-.02,0,0,0-.02,0-.03,0,0,0,0,0-.02,0,0,0-.02,0-.03,0,0,0,0,0-.01,0-.01,0-.03,0-.04t0,0s0-.03,0-.04c0,0,0,0,0,0,0-.01,0-.02,0-.04,0,0,0,0,0-.01,0,0,0-.02,0-.03,0,0,0-.01,0-.02,0,0,0-.02,0-.03,0,0,0-.01,0-.02,0,0,0-.02,0-.03,0,0,0-.01,0-.02,0,0,0-.02,0-.02,0,0,0-.01,0-.02,0,0,0-.02,0-.03,0,0,0,0,0-.01,0-.01,0-.02,0-.04,0,0,0,0,0,0,0-.01,0-.03,0-.04,0,0,0,0,0,0,0-.01,0-.02,0-.04,0,0,0,0,0-.01,0,0,0-.02,0-.03,0,0,0-.01,0-.01,0,0,0-.02,0-.03,0,0,0-.01,0-.02,0,0,0-.02,0-.03,0,0,0,0,0-.01,0,0,0-.02,0-.03,0,0,0,0,0-.01,0,0,0-.02,0-.03,0,0,0,0,0-.01,0-.01,0-.02,0-.03,0,0,0,0,0,0,0-.01,0-.03,0-.04,0,0,0,0,0,0,0-.01,0-.02,0-.04,0,0,0,0,0-.01,0,0,0-.02,0-.03,0,0,0,0,0-.01,0,0,0-.02,0-.03,0,0,0,0,0-.01,0-.01,0-.02,0-.03,0,0,0,0,0-.01,0,0,0-.02,0-.03,0,0,0-.01,0-.02,0,0,0-.02,0-.03,0,0,0,0,0-.01,0-.01,0-.02,0-.04,0,0,0,0,0,0,0-.03,0-.06-.01-.09,0,0,0,0,0-.01,0,0,0-.02,0-.03,0,0,0,0,0-.01,0,0,0-.02,0-.03,0,0,0,0,0-.01,0-.01,0-.02,0-.03,0,0,0,0,0-.01,0,0,0-.02,0-.03,0,0,0,0,0-.01,0,0,0-.02,0-.03,0,0,0,0,0-.01,0-.01,0-.02,0-.04,0,0,0,0,0,0,0-.03,0-.06-.01-.09,0,0,0,0,0,0,0-.01,0-.02,0-.03,0,0,0,0,0-.01,0,0,0-.02,0-.03,0,0,0,0,0-.01,0,0,0-.02,0-.03,0,0,0,0,0-.01,0,0,0-.02,0-.03,0,0,0,0,0-.01,0,0,0-.02,0-.03,0,0,0,0,0-.01,0-.01,0-.02,0-.03,0,0,0,0,0,0,0-.03-.01-.06-.02-.09,0,0,0,0,0,0,0-.01,0-.02,0-.04,0,0,0,0,0-.01,0-.01,0-.02,0-.03,0,0,0,0,0-.01,0,0,0-.02,0-.03,0,0,0-.01,0-.01,0,0,0-.02,0-.03,0,0,0,0,0-.01,0-.01,0-.02,0-.03,0,0,0,0,0-.01,0-.01,0-.02,0-.03,0,0,0,0,0,0,0-.03-.01-.06-.02-.08,0,0,0,0,0,0,0-.01,0-.02,0-.03,0,0,0,0,0-.01,0-.01,0-.02,0-.03,0,0,0,0,0-.01,0,0,0-.02,0-.03,0,0,0-.01,0-.01,0,0,0-.02,0-.03,0,0,0-.01,0-.02,0,0,0-.02,0-.03,0,0,0,0,0-.01,0-.01,0-.02,0-.03,0,0,0,0,0,0,0-.03-.01-.06-.02-.09,0,0,0,0,0,0,0-.01,0-.03,0-.04,0,0,0,0,0-.01,0-.01,0-.02,0-.03,0,0,0,0,0-.01,0,0,0-.02,0-.03,0,0,0-.01,0-.01,0,0,0-.02,0-.03,0,0,0-.01,0-.02,0,0,0-.02,0-.03,0,0,0,0,0-.01,0-.01,0-.02,0-.03,0,0,0,0,0-.01,0-.01,0-.03,0-.04,0,0,0,0,0,0,0-.01,0-.03,0-.04,0,0,0,0,0,0,0,0,0-.02,0-.03,0,0,0,0,0-.01,0,0,0-.02,0-.03,0,0,0-.01,0-.01,0,0,0-.02,0-.03,0,0,0-.01,0-.02,0,0,0-.02,0-.03,0,0,0-.01,0-.02,0,0,0-.02,0-.03,0,0,0,0,0-.01,0,0,0-.02,0-.03,0,0,0,0,0-.01,0-.01,0-.02,0-.04,0,0,0,0,0,0,0-.01,0-.03,0-.04,0,0,0,0,0,0,0-.01,0-.02,0-.03,0,0,0,0,0-.01,0,0,0-.02,0-.03,0,0,0-.01,0-.01,0,0,0-.02,0-.03,0,0,0,0,0-.01,0,0,0-.02,0-.03,0,0,0,0,0-.01,0,0,0-.02,0-.03,0,0,0-.01,0-.01,0,0,0-.02,0-.03,0,0,0,0,0-.01,0-.03-.01-.05-.02-.08,0,0,0,0,0,0,0-.01,0-.02,0-.04,0,0,0,0,0-.01,0-.01,0-.02,0-.03,0,0,0,0,0-.01,0,0,0-.02,0-.03,0,0,0,0,0-.01,0-.01,0-.02,0-.03,0,0,0,0,0-.01,0,0,0-.02,0-.03,0,0,0,0,0-.01,0-.01,0-.02,0-.03,0,0,0,0,0,0,0-.01,0-.02,0-.04,0,0,0,0,0,0,0-.01,0-.03,0-.04,0,0,0,0,0,0,0-.01,0-.02,0-.04,0,0,0,0,0,0,0-.01,0-.02,0-.03,0,0,0,0,0-.01,0,0,0-.02,0-.03,0,0,0,0,0-.01,0-.01,0-.02,0-.03,0,0,0,0,0-.01,0-.01,0-.02,0-.03,0,0,0,0,0-.01,0-.01,0-.02,0-.03,0,0,0,0,0-.01,0-.01,0-.03,0-.04h0s-.01-.06-.02-.09c0,0,0,0,0,0,0-.01,0-.02,0-.03,0,0,0,0,0-.01,0-.01,0-.02,0-.03,0,0,0,0,0-.01,0,0,0-.02,0-.03,0,0,0,0,0-.01,0,0,0-.02,0-.03,0,0,0-.01,0-.01,0-.01,0-.02,0-.03,0,0,0,0,0-.01,0-.01,0-.02,0-.04h0s-.01-.06-.02-.09c0,0,0,0,0,0,0-.01,0-.02,0-.03,0,0,0,0,0-.01,0,0,0-.02,0-.03,0,0,0,0,0-.01,0-.01,0-.02,0-.03,0,0,0,0,0-.01,0-.01,0-.02,0-.03,0,0,0,0,0-.01,0-.01,0-.02,0-.03,0,0,0,0,0-.01,0-.01,0-.03,0-.04h0s-.01-.06-.02-.09c0,0,0,0,0,0,0-.01,0-.02,0-.03,0,0,0,0,0-.01,0-.01,0-.02,0-.03,0,0,0,0,0-.01,0-.01,0-.02,0-.03,0,0,0,0,0-.01,0-.01,0-.02,0-.03,0,0,0,0,0-.01,0-.01,0-.02,0-.03,0,0,0,0,0,0,0-.01,0-.03,0-.04,0,0,0,0,0,0,0-.03-.01-.06-.02-.08,0,0,0,0,0,0,0-.01,0-.03,0-.04,0,0,0,0,0,0,0-.01,0-.02,0-.03,0,0,0,0,0-.01,0-.01,0-.02,0-.03,0,0,0,0,0-.01,0-.01,0-.02,0-.03,0,0,0,0,0,0,0-.01,0-.02,0-.03,0,0,0,0,0,0,0-.01,0-.02,0-.04h0s-.01-.06-.02-.09h0s0-.03,0-.04c0,0,0,0,0,0,0-.01,0-.02,0-.03,0,0,0,0,0-.01,0-.01,0-.02,0-.03,0,0,0,0,0-.01,0-.01,0-.02,0-.03,0,0,0,0,0-.01,0-.01,0-.02,0-.03,0,0,0,0,0-.01,0-.01,0-.02,0-.04,0,0,0,0,0,0-.01-.04-.02-.08-.03-.12,0,0,0,0,0,0,0-.01,0-.02,0-.03,0,0,0,0,0,0,0-.01,0-.02,0-.03,0,0,0,0,0-.01,0-.01,0-.02,0-.03,0,0,0,0,0-.01,0-.01,0-.02,0-.03,0,0,0,0,0,0,0-.01,0-.03,0-.04,0,0,0,0,0,0-.01-.04-.02-.08-.03-.13,0,0,0,0,0,0,0-.01,0-.03,0-.04,0,0,0,0,0,0,0-.01,0-.02,0-.03,0,0,0,0,0-.01,0-.01,0-.02,0-.03,0,0,0,0,0-.01,0-.01,0-.02,0-.03,0,0,0,0,0,0,0-.01,0-.02-.01-.04,0,0,0,0,0,0-.01-.04-.02-.08-.03-.13h0s0-.03-.01-.04c0,0,0,0,0,0,0-.01,0-.02,0-.03,0,0,0,0,0,0,0-.01,0-.02,0-.03,0,0,0,0,0,0,0-.01,0-.02,0-.04,0,0,0,0,0,0,0-.01,0-.02-.01-.04,0,0,0,0,0,0-.01-.04-.02-.08-.04-.13,0,0,0,0,0,0,0-.01,0-.02-.01-.04,0,0,0,0,0,0,0-.01,0-.02,0-.03,0,0,0,0,0-.01,0-.01,0-.02,0-.03,0,0,0,0,0,0,0-.01,0-.02,0-.03,0,0,0,0,0,0,0-.01,0-.02-.01-.04h0s-.02-.09-.04-.13c0,0,0,0,0,0,0-.01,0-.02-.01-.04,0,0,0,0,0,0,0-.01,0-.02,0-.03,0,0,0,0,0-.01,0-.01,0-.02,0-.03,0,0,0,0,0-.01,0-.01,0-.02,0-.03,0,0,0,0,0,0,0-.01,0-.02-.01-.03,0,0,0,0,0,0-.01-.04-.02-.08-.04-.12,0,0,0,0,0,0,0-.01,0-.02-.01-.04,0,0,0,0,0,0,0-.01,0-.02,0-.03,0,0,0,0,0-.01,0-.01,0-.02,0-.03,0,0,0,0,0,0,0-.01,0-.02,0-.03,0,0,0,0,0,0,0-.01,0-.02-.01-.04,0,0,0,0,0,0-.01-.04-.02-.08-.04-.12,0,0,0,0,0,0,0-.01,0-.02-.01-.04,0,0,0,0,0,0,0-.01,0-.02,0-.03,0,0,0,0,0-.01,0-.01,0-.02,0-.03,0,0,0,0,0-.01,0-.01,0-.02,0-.03,0,0,0,0,0,0,0-.01,0-.02-.01-.03,0,0,0,0,0,0,0-.01,0-.02-.01-.04,0,0,0,0,0,0,0-.03-.02-.05-.03-.08,0,0,0,0,0,0,0-.01,0-.02-.01-.04,0,0,0,0,0,0,0-.01,0-.02,0-.03,0,0,0,0,0-.01,0-.01,0-.02,0-.03,0,0,0,0,0,0,0-.01,0-.02,0-.03,0,0,0,0,0,0,0-.01,0-.02-.01-.03,0,0,0,0,0,0,0-.01,0-.03-.01-.04h0s-.03-.08-.04-.12c0,0,0,0,0,0,0-.01,0-.02-.01-.03,0,0,0,0,0,0,0-.01,0-.02,0-.03,0,0,0,0,0,0,0-.01,0-.02,0-.03,0,0,0,0,0,0,0-.01,0-.02-.01-.03,0,0,0,0,0,0,0-.01,0-.03-.01-.04h0s-.03-.08-.04-.12h0s0-.03-.01-.04c0,0,0,0,0,0,0-.01,0-.02-.01-.03,0,0,0,0,0,0,0-.01,0-.02-.01-.03,0,0,0,0,0,0,0-.01,0-.02-.01-.04,0,0,0,0,0,0,0-.01,0-.03-.01-.04h0s-.03-.08-.04-.12h0s0-.03-.01-.04c0,0,0,0,0,0,0-.01,0-.02-.01-.03,0,0,0,0,0,0,0-.01,0-.02-.01-.03,0,0,0,0,0,0,0-.01,0-.02-.01-.03,0,0,0,0,0,0,0-.01,0-.02-.01-.04,0,0,0,0,0,0-.01-.04-.03-.08-.04-.12,0,0,0,0,0,0,0-.01,0-.02-.01-.03,0,0,0,0,0,0,0-.01,0-.02-.01-.03,0,0,0,0,0,0,0-.01,0-.02-.01-.03,0,0,0,0,0,0,0-.01,0-.02-.01-.03,0,0,0,0,0,0,0-.01,0-.03-.01-.04h0s-.03-.08-.04-.12c0,0,0,0,0,0,0-.01,0-.02-.01-.04,0,0,0,0,0,0,0-.01,0-.02-.01-.03,0,0,0,0,0,0,0-.01,0-.02-.01-.03,0,0,0,0,0,0,0-.01,0-.03-.01-.04,0,0,0,0,0,0,0-.01,0-.02-.01-.04,0,0,0,0,0,0-.01-.04-.03-.08-.04-.12,0,0,0,0,0,0,0-.01,0-.02-.01-.04,0,0,0,0,0,0,0-.01,0-.02-.01-.03,0,0,0,0,0,0,0-.01,0-.02-.01-.03,0,0,0,0,0,0,0-.01,0-.02-.01-.03,0,0,0,0,0,0,0-.01,0-.02-.01-.04,0,0,0,0,0,0-.01-.04-.03-.08-.04-.12h0s0-.03-.01-.04c0,0,0,0,0,0,0-.01,0-.02-.01-.03,0,0,0,0,0,0,0-.01,0-.02-.01-.03,0,0,0,0,0,0,0-.01,0-.02-.01-.03,0,0,0,0,0,0,0-.01,0-.02-.01-.04h0c-.02-.06-.04-.11-.06-.16,0,0,0,0,0,0,0-.01,0-.02-.01-.03,0,0,0,0,0,0,0-.01,0-.02-.01-.03,0,0,0,0,0,0,0-.01,0-.02-.01-.03t0,0s0-.02-.01-.04h0c-.02-.06-.04-.11-.06-.17h0s0-.03-.01-.04c0,0,0,0,0,0,0-.01,0-.03-.01-.04,0,0,0,0,0,0,0-.01,0-.02-.01-.04h0s0-.03-.01-.04h0c-.02-.06-.04-.11-.06-.16,0,0,0,0,0,0,0-.01,0-.02-.01-.04,0,0,0,0,0,0,0-.01,0-.02-.01-.03,0,0,0,0,0,0,0-.01,0-.02-.01-.04,0,0,0,0,0,0,0-.01,0-.02-.01-.04h0c-.02-.06-.04-.11-.06-.16h0s0-.03-.01-.04c0,0,0,0,0,0,0-.01,0-.02-.01-.03,0,0,0,0,0,0,0-.01,0-.02-.01-.03,0,0,0,0,0,0,0-.01,0-.02-.01-.04,0,0,0,0,0,0-.02-.05-.04-.11-.06-.16h0s0-.03-.01-.04h0s0-.03-.01-.04h0s0-.03-.01-.04t0,0s0-.02-.02-.04h0c-.03-.07-.05-.13-.08-.2h0s0-.03-.01-.04c0,0,0,0,0,0,0-.01,0-.02-.01-.04,0,0,0,0,0,0,0-.01,0-.02-.01-.04,0,0,0,0,0,0-.02-.05-.04-.11-.06-.16,0,0,0,0,0,0,0-.01,0-.02-.02-.04,0,0,0,0,0,0,0-.01,0-.02-.01-.04,0,0,0,0,0,0,0-.01,0-.02-.01-.04,0,0,0,0,0,0,0-.01,0-.02-.01-.04,0,0,0,0,0,0-.02-.05-.04-.11-.07-.16h0s-.01-.03-.02-.04c0,0,0,0,0,0,0-.01,0-.02-.01-.04,0,0,0,0,0,0,0-.01,0-.02-.01-.03,0,0,0,0,0,0,0-.01,0-.02-.01-.04,0,0,0,0,0,0-.02-.05-.04-.1-.07-.16h0s-.01-.03-.02-.04c0,0,0,0,0,0,0-.01,0-.02-.02-.04,0,0,0,0,0,0,0-.01,0-.02-.01-.03,0,0,0,0,0,0,0-.01,0-.02-.02-.04,0,0,0,0,0,0-.03-.07-.06-.13-.08-.2h0s-.01-.03-.02-.04c0,0,0,0,0,0,0-.01,0-.02-.02-.04,0,0,0,0,0,0,0-.01-.01-.02-.02-.04,0,0,0,0,0,0,0-.01-.01-.02-.02-.04h0c-.02-.05-.05-.11-.07-.16h0s-.01-.03-.02-.04c0,0,0,0,0,0,0-.01-.01-.02-.02-.03,0,0,0,0,0,0,0-.01-.01-.02-.02-.03h0c-.03-.07-.06-.13-.09-.2h0s-.01-.03-.02-.04c0,0,0,0,0,0,0-.01,0-.02-.02-.03,0,0,0,0,0,0,0-.01-.01-.02-.02-.03,0,0,0,0,0,0-.04-.08-.07-.15-.11-.23,0,0,0,0,0,0,0-.01-.01-.02-.02-.03,0,0,0,0,0,0,0-.01-.01-.02-.02-.03,0,0,0,0,0,0-.04-.08-.07-.15-.11-.23h0s-.01-.03-.02-.04h0s-.01-.03-.02-.04c0,0,0,0,0,0,0-.01-.01-.02-.02-.04h0c-.03-.07-.06-.13-.09-.2h0s-.01-.03-.02-.04c0,0,0,0,0,0,0-.01-.01-.02-.02-.04,0,0,0,0,0,0-.04-.09-.09-.18-.13-.27,0,0,0,0,0,0,0-.01-.01-.02-.02-.04t0,0c-.04-.08-.07-.15-.11-.23,0,0,0,0,0,0,0-.01-.01-.02-.02-.04,0,0,0,0,0,0,0-.01-.01-.02-.02-.04,0,0,0,0,0,0,0-.01-.01-.02-.02-.04,0,0,0,0,0,0-.04-.08-.08-.15-.11-.23,0,0,0,0,0,0,0-.01-.01-.02-.02-.04,0,0,0,0,0,0-.04-.09-.09-.18-.13-.27,0,0,0,0,0,0,0-.01-.01-.02-.02-.04,0,0,0,0,0,0,0-.01-.01-.02-.02-.04h0c-.04-.08-.08-.15-.12-.23h0s-.01-.02-.02-.04c0,0,0,0,0,0,0-.01-.01-.02-.02-.04h0c-.04-.08-.08-.15-.12-.23h0s-.01-.03-.02-.04h0c-.05-.1-.11-.2-.16-.31h0c-.05-.1-.11-.2-.16-.3h0c-.05-.1-.11-.2-.16-.3h0c-.05-.1-.11-.2-.16-.3h0c-.11-.2-.22-.4-.33-.6,0,0,0,0,0,0-3.48-6.19-8.09-11.66-13.54-16.14h0s-.02-.02-.03-.03h0c-.18-.14-.35-.29-.53-.43h0c-.09-.07-.18-.14-.27-.21h0c-.08-.06-.16-.12-.24-.19h0s-.02-.02-.03-.03c0,0,0,0,0,0-.27-.21-.54-.42-.81-.62,0,0,0,0,0,0-.08-.06-.16-.12-.24-.18h0s-.02-.02-.03-.03c0,0,0,0,0,0-.08-.06-.16-.12-.24-.18h0s-.02-.02-.03-.02h0s-.02-.02-.03-.03h0c-.07-.05-.14-.1-.21-.15h0s-.02-.02-.03-.02h0c-.08-.06-.16-.12-.24-.18h0s-.02-.02-.03-.02h0s-.02-.02-.03-.03h0c-.07-.05-.14-.1-.21-.15h0s-.02-.02-.03-.02h0c-.08-.06-.16-.12-.24-.17h0s-.02-.02-.03-.02c0,0,0,0,0,0-.01,0-.02-.01-.03-.02,0,0,0,0,0,0-.01,0-.02-.01-.03-.02,0,0,0,0,0,0-.06-.04-.12-.08-.18-.12,0,0,0,0,0,0-.01,0-.02-.01-.03-.02,0,0,0,0,0,0-.01,0-.02-.01-.03-.02,0,0,0,0,0,0-.01,0-.02-.01-.03-.02,0,0,0,0,0,0-.05-.03-.09-.06-.14-.1,0,0,0,0,0,0-.01,0-.02-.01-.03-.02,0,0,0,0,0,0-.01,0-.02-.01-.03-.02,0,0,0,0,0,0,0,0-.02-.01-.03-.02,0,0,0,0,0,0,0,0-.02-.01-.03-.02,0,0,0,0,0,0-.01,0-.02-.01-.03-.02,0,0,0,0,0,0-.05-.03-.09-.06-.14-.09,0,0,0,0,0,0,0,0-.02-.01-.03-.02,0,0,0,0,0,0,0,0-.02-.01-.03-.02,0,0,0,0,0,0,0,0-.02-.01-.03-.02,0,0,0,0,0,0-.01,0-.02-.01-.03-.02h0s-.07-.05-.11-.07c0,0,0,0,0,0-.01,0-.02-.01-.03-.02,0,0,0,0,0,0,0,0-.02-.01-.03-.02,0,0,0,0,0,0,0,0-.02-.01-.03-.02,0,0,0,0,0,0,0,0-.02-.01-.03-.02,0,0,0,0,0,0-.01,0-.02-.01-.03-.02h0s-.09-.06-.14-.1c0,0,0,0,0,0,0,0-.02-.01-.03-.02,0,0,0,0,0,0,0,0-.02-.01-.03-.02,0,0,0,0,0,0,0,0-.02-.01-.03-.02,0,0,0,0,0,0-.01,0-.02-.01-.03-.02h0s-.09-.06-.14-.09c0,0,0,0,0,0-.01,0-.02-.01-.03-.02,0,0,0,0,0,0,0,0-.02-.01-.03-.02,0,0,0,0,0,0,0,0-.02-.01-.03-.02,0,0,0,0,0,0-.01,0-.02-.01-.03-.02h0s-.02-.02-.04-.02h0s-.07-.05-.11-.07c0,0,0,0,0,0,0,0-.02-.01-.03-.02,0,0,0,0,0,0,0,0-.02-.01-.03-.02,0,0,0,0,0,0,0,0-.02-.01-.03-.02,0,0,0,0,0,0,0,0-.02-.01-.03-.02,0,0,0,0,0,0-.01,0-.02-.01-.03-.02h0s-.07-.05-.11-.07c0,0,0,0,0,0,0,0-.02-.01-.03-.02,0,0,0,0,0,0,0,0-.02-.01-.03-.02,0,0,0,0,0,0,0,0-.02-.01-.03-.02,0,0,0,0,0,0,0,0-.02-.01-.03-.02,0,0,0,0,0,0-.01,0-.02-.01-.03-.02,0,0,0,0,0,0-.04-.02-.07-.04-.11-.07h0s-.02-.02-.03-.02c0,0,0,0,0,0,0,0-.02-.01-.03-.02,0,0,0,0,0,0,0,0-.02-.01-.03-.02,0,0,0,0,0,0,0,0-.02-.01-.03-.02,0,0,0,0,0,0-.01,0-.02-.01-.03-.02,0,0,0,0,0,0-.04-.02-.07-.04-.11-.07h0s-.02-.01-.03-.02c0,0,0,0,0,0,0,0-.02-.01-.03-.02,0,0,0,0,0,0,0,0-.02-.01-.03-.02,0,0,0,0,0,0,0,0-.02-.01-.03-.02,0,0,0,0,0,0,0,0-.02-.01-.03-.02,0,0,0,0,0,0-.04-.02-.07-.04-.11-.07,0,0,0,0,0,0,0,0-.02-.01-.03-.02,0,0,0,0,0,0,0,0-.02-.01-.03-.02,0,0,0,0,0,0,0,0-.02-.01-.03-.02,0,0,0,0,0,0,0,0-.02-.01-.03-.02,0,0,0,0,0,0-.01,0-.02-.01-.03-.02,0,0,0,0,0,0-.04-.02-.07-.04-.11-.07,0,0,0,0,0,0,0,0-.02-.01-.03-.02,0,0,0,0,0,0,0,0-.02-.01-.03-.02,0,0,0,0,0,0,0,0-.02-.01-.03-.02,0,0,0,0,0,0,0,0-.02-.01-.03-.02,0,0,0,0,0,0,0,0-.02-.01-.03-.02,0,0,0,0,0,0-.04-.02-.07-.04-.11-.06,0,0,0,0,0,0,0,0-.02-.01-.03-.02,0,0,0,0,0,0,0,0-.02-.01-.03-.02,0,0,0,0,0,0,0,0-.02-.01-.03-.02,0,0,0,0,0,0,0,0-.02-.01-.03-.02,0,0,0,0,0,0-.01,0-.02-.01-.03-.02,0,0,0,0,0,0-.04-.02-.07-.04-.11-.06,0,0,0,0,0,0,0,0-.02-.01-.03-.02,0,0,0,0,0,0,0,0-.02,0-.03-.02,0,0,0,0,0,0,0,0-.02,0-.03-.02,0,0,0,0,0,0,0,0-.02-.01-.03-.02,0,0,0,0,0,0,0,0-.02-.01-.03-.01,0,0,0,0-.01,0,0,0-.02-.01-.03-.02,0,0,0,0,0,0-.02-.01-.05-.03-.07-.04,0,0,0,0,0,0,0,0-.02-.01-.03-.02,0,0,0,0,0,0,0,0-.02,0-.03-.02,0,0,0,0,0,0,0,0-.02,0-.03-.02,0,0,0,0-.01,0,0,0-.02,0-.03-.01,0,0,0,0-.01,0,0,0-.02-.01-.03-.01,0,0,0,0-.01,0,0,0-.02-.01-.03-.02,0,0,0,0,0,0-.02-.01-.05-.03-.07-.04,0,0,0,0,0,0,0,0-.02-.01-.03-.02,0,0,0,0-.01,0,0,0-.02-.01-.03-.01,0,0,0,0-.01,0,0,0-.02,0-.02-.01,0,0,0,0-.01,0,0,0-.02,0-.02-.01,0,0,0,0-.01,0,0,0-.02,0-.02-.01,0,0,0,0-.01,0,0,0-.02-.01-.03-.02,0,0,0,0,0,0-.03-.01-.05-.03-.07-.04,0,0,0,0,0,0,0,0-.02-.01-.03-.02,0,0,0,0,0,0,0,0-.02,0-.03-.01,0,0,0,0-.01,0,0,0-.02,0-.02-.01,0,0,0,0-.01,0,0,0-.02,0-.02-.01,0,0,0,0-.01,0,0,0-.02,0-.02-.01,0,0,0,0-.01,0,0,0-.02,0-.03-.01,0,0,0,0,0,0-.01,0-.02-.01-.04-.02h0s-.02-.01-.04-.02c0,0,0,0,0,0,0,0-.02-.01-.03-.02,0,0,0,0-.01,0,0,0-.02,0-.02-.01,0,0,0,0-.01,0,0,0-.02,0-.02-.01,0,0,0,0-.01,0,0,0-.02,0-.02-.01,0,0,0,0-.01,0,0,0-.01,0-.02-.01,0,0,0,0-.02,0,0,0-.01,0-.02-.01,0,0,0,0-.01,0-.01,0-.02-.01-.03-.02,0,0,0,0,0,0-.01,0-.02-.01-.04-.02,0,0,0,0,0,0,0,0-.02-.01-.03-.01,0,0,0,0-.01,0,0,0-.02,0-.02-.01,0,0,0,0-.01,0,0,0-.01,0-.02-.01,0,0,0,0-.01,0,0,0-.02,0-.02-.01,0,0-.01,0-.01,0,0,0-.01,0-.02-.01,0,0,0,0-.01,0,0,0-.02,0-.02-.01,0,0,0,0-.01,0-.01,0-.02-.01-.03-.02,0,0,0,0,0,0-.01,0-.02-.01-.04-.02,0,0,0,0,0,0,0,0-.02,0-.03-.01,0,0,0,0-.01,0,0,0-.02,0-.02-.01,0,0,0,0-.01,0,0,0-.02,0-.02-.01,0,0,0,0-.01,0,0,0-.02,0-.02-.01,0,0,0,0-.01,0,0,0-.02,0-.02-.01,0,0,0,0-.01,0,0,0-.02,0-.02-.01,0,0,0,0-.01,0-.01,0-.02-.01-.03-.02,0,0,0,0,0,0-.01,0-.02-.01-.04-.02t0,0s-.02-.01-.03-.02c0,0,0,0-.01,0,0,0-.02,0-.02-.01,0,0,0,0-.01,0,0,0-.01,0-.02-.01,0,0,0,0-.02,0,0,0-.01,0-.02-.01,0,0-.01,0-.01,0,0,0-.01,0-.02-.01,0,0,0,0-.02,0,0,0-.01,0-.02-.01,0,0-.01,0-.01,0,0,0-.02,0-.02-.01,0,0,0,0-.01,0-.01,0-.02-.01-.04-.02,0,0,0,0-.01,0,0,0-.02,0-.02-.01,0,0-.01,0-.02,0,0,0-.01,0-.02-.01,0,0-.01,0-.02,0,0,0-.01,0-.02-.01,0,0-.01,0-.02,0,0,0-.01,0-.02-.01,0,0-.01,0-.02,0,0,0-.01,0-.02,0,0,0-.01,0-.02,0,0,0-.01,0-.02,0,0,0-.01,0-.02,0,0,0-.01,0-.02-.01,0,0,0,0-.02,0,0,0-.02,0-.03-.01,0,0-.02,0-.03-.01,0,0-.01,0-.02,0,0,0-.01,0-.02,0,0,0-.01,0-.02,0,0,0-.01,0-.02,0,0,0-.01,0-.02-.01,0,0-.01,0-.02,0,0,0-.01,0-.02,0,0,0-.01,0-.02,0,0,0-.01,0-.02,0,0,0-.01,0-.02,0,0,0-.01,0-.02,0,0,0-.01,0-.02,0,0,0-.02,0-.02-.01,0,0,0,0-.01,0-.01,0-.02-.01-.04-.02,0,0,0,0-.01,0,0,0-.02,0-.02-.01,0,0,0,0-.02,0,0,0-.02,0-.02-.01,0,0,0,0-.02,0,0,0-.01,0-.02-.01,0,0-.01,0-.02,0,0,0-.01,0-.02,0,0,0-.01,0-.02,0,0,0-.01,0-.02,0,0,0-.01,0-.02,0,0,0-.01,0-.02,0,0,0-.01,0-.02,0,0,0-.01,0-.02,0,0,0-.01,0-.02,0,0,0-.02,0-.03-.01,0,0-.02,0-.02-.01,0,0-.02,0-.02-.01,0,0-.01,0-.02,0,0,0-.01,0-.02,0,0,0-.01,0-.02,0,0,0-.01,0-.02,0,0,0-.01,0-.02,0,0,0-.01,0-.02,0,0,0-.01,0-.02,0,0,0-.01,0-.02,0,0,0-.01,0-.02,0,0,0-.01,0-.02,0,0,0-.01,0-.02,0,0,0-.01,0-.02,0,0,0-.01,0-.02,0,0,0-.01,0-.02-.01,0,0-.02-.01-.03-.02,0,0-.01,0-.02,0,0,0-.01,0-.02-.01,0,0,0,0-.01,0,0,0-.01,0-.02-.01,0,0,0,0-.01,0,0,0-.01,0-.02-.01,0,0-.01,0-.02,0,0,0-.01,0-.02-.01,0,0,0,0-.01,0,0,0-.02,0-.02-.01,0,0,0,0-.01,0,0,0-.02,0-.02-.01,0,0,0,0-.01,0,0,0-.01,0-.02-.01,0,0,0,0-.01,0-.02,0-.03-.02-.05-.02,0,0,0,0,0,0,0,0-.02,0-.02-.01,0,0,0,0-.01,0,0,0-.02,0-.02-.01,0,0-.01,0-.02,0,0,0-.01,0-.02,0,0,0-.01,0-.02,0,0,0-.01,0-.02,0,0,0-.01,0-.02,0,0,0-.01,0-.02-.01,0,0-.01,0-.02,0,0,0-.01,0-.02,0,0,0-.01,0-.02,0,0,0-.01,0-.02,0,0,0-.01,0-.02,0-.03-.01-.05-.02-.08-.04,0,0,0,0-.01,0,0,0-.01,0-.02-.01,0,0,0,0-.01,0,0,0-.02,0-.02-.01,0,0,0,0-.01,0,0,0-.01,0-.02-.01,0,0,0,0-.01,0,0,0-.02,0-.02-.01,0,0,0,0-.01,0,0,0-.01,0-.02-.01,0,0,0,0-.01,0,0,0-.02,0-.02-.01,0,0,0,0,0,0-.03-.01-.06-.03-.09-.04,0,0,0,0-.01,0,0,0-.01,0-.02-.01,0,0-.01,0-.01,0,0,0-.02,0-.02-.01,0,0,0,0-.01,0,0,0-.01,0-.02-.01,0,0-.01,0-.02,0,0,0-.02,0-.02-.01,0,0,0,0-.01,0,0,0-.02,0-.02-.01,0,0,0,0-.01,0,0,0-.02,0-.02-.01,0,0,0,0,0,0-.03-.01-.06-.03-.09-.04,0,0,0,0,0,0,0,0-.02,0-.02-.01,0,0,0,0-.01,0,0,0-.02,0-.02-.01,0,0,0,0-.01,0,0,0-.02,0-.02-.01,0,0,0,0-.01,0,0,0-.02,0-.02-.01,0,0,0,0-.01,0,0,0-.02,0-.03-.01,0,0,0,0-.01,0,0,0-.02,0-.03-.01,0,0,0,0,0,0-.03-.01-.06-.03-.09-.04,0,0,0,0,0,0,0,0-.02,0-.02-.01,0,0,0,0-.01,0,0,0-.02,0-.02-.01,0,0,0,0-.01,0,0,0-.02,0-.02-.01,0,0,0,0-.01,0,0,0-.02,0-.03-.01,0,0,0,0-.01,0,0,0-.02,0-.02-.01,0,0,0,0-.01,0,0,0-.02,0-.03-.01,0,0,0,0,0,0-.03-.01-.07-.03-.1-.04,0,0,0,0,0,0,0,0-.02,0-.03-.01,0,0,0,0,0,0,0,0-.02,0-.03-.01,0,0,0,0-.01,0,0,0-.02,0-.03-.01,0,0,0,0,0,0,0,0-.02,0-.03-.01,0,0,0,0,0,0,0,0-.02,0-.03-.01,0,0,0,0,0,0,0,0-.02,0-.03-.01,0,0,0,0,0,0-.03-.01-.07-.03-.1-.04h0s-.02,0-.03-.01c0,0,0,0,0,0-.01,0-.02,0-.03-.01,0,0,0,0,0,0,0,0-.02,0-.03-.01,0,0,0,0-.01,0,0,0-.02,0-.03-.01,0,0,0,0,0,0,0,0-.02,0-.03-.01,0,0,0,0,0,0-.01,0-.02,0-.03-.01,0,0,0,0,0,0-.04-.02-.09-.04-.14-.06h0s-.02,0-.03-.01c0,0,0,0,0,0,0,0-.02,0-.03-.01,0,0,0,0,0,0,0,0-.02,0-.03-.01,0,0,0,0,0,0,0,0-.02,0-.03-.01,0,0,0,0,0,0-.01,0-.02,0-.03-.01,0,0,0,0,0,0-.04-.02-.09-.04-.13-.06,0,0,0,0,0,0-.01,0-.02,0-.03-.01,0,0,0,0,0,0,0,0-.02,0-.03-.01,0,0,0,0,0,0,0,0-.02,0-.03-.01,0,0,0,0,0,0,0,0-.02,0-.03-.01,0,0,0,0,0,0-.01,0-.02,0-.03-.01h0c-.06-.02-.12-.05-.17-.07,0,0,0,0,0,0-.01,0-.02,0-.03-.01,0,0,0,0,0,0,0,0-.02,0-.03-.01,0,0,0,0,0,0-.01,0-.02,0-.03-.01,0,0,0,0,0,0-.01,0-.02,0-.03-.01h0s-.09-.04-.14-.06h0s-.02,0-.03-.01c0,0,0,0,0,0-.01,0-.02,0-.03-.01,0,0,0,0,0,0,0,0-.02,0-.03-.01,0,0,0,0,0,0,0,0-.02,0-.03-.01,0,0,0,0,0,0-.01,0-.02,0-.03-.01,0,0,0,0,0,0-.06-.02-.11-.05-.17-.07,0,0,0,0,0,0-.01,0-.02,0-.03-.01,0,0,0,0,0,0,0,0-.02,0-.03-.01,0,0,0,0,0,0-.01,0-.02,0-.03-.01,0,0,0,0,0,0-.01,0-.02,0-.03-.01,0,0,0,0,0,0-.06-.02-.12-.05-.18-.07,0,0,0,0,0,0-.01,0-.02,0-.03-.01,0,0,0,0,0,0-.01,0-.02,0-.03-.01,0,0,0,0,0,0,0,0-.02,0-.03-.01,0,0,0,0,0,0-.01,0-.02,0-.03-.01h0c-.06-.02-.12-.05-.18-.07h0s-.02,0-.03-.01h0s-.02,0-.03-.01h0s-.02-.01-.03-.01c0,0,0,0,0,0-.01,0-.02,0-.03-.01h0c-.07-.03-.14-.05-.21-.08,0,0,0,0,0,0-.01,0-.02,0-.03-.01h0s-.02,0-.03-.01c0,0,0,0,0,0-.01,0-.02,0-.03-.01h0c-.07-.03-.14-.05-.22-.08h0s-.02,0-.03-.01h0s-.02,0-.03-.01c0,0,0,0,0,0-.1-.04-.19-.07-.29-.1h0s-.02,0-.03-.01c0,0,0,0,0,0-.1-.03-.19-.07-.29-.1h0c-.11-.04-.22-.08-.33-.11,0,0,0,0,0,0-.01,0-.02,0-.04-.01,0,0,0,0,0,0-2.72-.94-5.53-1.67-8.42-2.19h0Zm-10.13-.9v12c.31,0,.63,0,.94,0L58.18.01s-.05,0-.08,0c0,0,0,0,0,0-.01,0-.02,0-.03,0,0,0-.01,0-.02,0,0,0-.01,0-.02,0,0,0-.02,0-.02,0,0,0,0,0,0,0-.17,0-.34,0-.51,0h0s-.02,0-.03,0h0s-.07,0-.1,0h0s-.02,0-.03,0c0,0-.01,0-.02,0,0,0-.02,0-.02,0,0,0-.01,0-.02,0h-.02s-.02,0-.03,0c0,0-.01,0-.02,0,0,0-.02,0-.03,0h-.06s-.02,0-.03,0h-.06Z"/>
  <circle class="cls-2" cx="57" cy="57" r="44.83"/>
</svg>