<?xml version="1.0" encoding="UTF-8"?>
<svg id="Layer_1" data-name="Layer 1" xmlns="http://www.w3.org/2000/svg" viewBox="0 0 112.54 114">
  <defs>
    <style>
      .cls-1 {
        fill: #fff;
      }

      .cls-2 {
        fill: none;
        stroke: #fff;
        stroke-miterlimit: 10;
        stroke-width: 3px;
      }
    </style>
  </defs>
  <path class="cls-1" d="m56.27,12c21.68,0,39.84,15.41,44.06,35.87h12.21C108.17,20.73,84.64,0,56.27,0S4.37,20.73,0,47.87h12.21C16.43,27.41,34.59,12,56.27,12Zm0,90c-21.69,0-39.84-15.43-44.07-35.88H0c4.36,27.15,27.89,47.88,56.27,47.88s51.91-20.73,56.27-47.88h-12.2c-4.23,20.45-22.38,35.88-44.07,35.88Z"/>
  <path class="cls-1" d="m56.27,16.19c19.36,0,35.63,13.55,39.78,31.68h1.03c-4.18-18.68-20.89-32.68-40.81-32.68S19.64,29.19,15.46,47.87h1.03c4.15-18.13,20.42-31.68,39.78-31.68Zm0,81.62c-19.36,0-35.63-13.56-39.78-31.69h-1.03c4.18,18.68,20.89,32.69,40.81,32.69s36.63-14.01,40.81-32.69h-1.03c-4.15,18.13-20.42,31.69-39.78,31.69Z"/>
  <rect class="cls-1" x="16.16" y="46.87" width="5.71" height="1"/>
  <rect class="cls-1" x="16.16" y="66.12" width="5.71" height="1"/>
  <rect class="cls-1" x="90.67" y="46.87" width="5.71" height="1"/>
  <rect class="cls-1" x="90.67" y="66.12" width="5.71" height="1"/>
  <g>
    <line class="cls-2" x1="47.5" y1="57" x2="65.04" y2="57"/>
    <line class="cls-2" x1="56.27" y1="48.23" x2="56.27" y2="65.77"/>
  </g>
</svg>