<?xml version="1.0" encoding="UTF-8"?>
<svg id="Layer_1" data-name="Layer 1" xmlns="http://www.w3.org/2000/svg" viewBox="0 0 71.3 63.54">
  <defs>
    <style>
      .cls-1 {
        fill: #fff;
      }
    </style>
  </defs>
  <g>
    <path class="cls-1" d="m57.75,54.41c-12.24,12.24-32.25,12.16-44.6-.19C.8,41.87.71,21.86,12.95,9.61c3.36-3.36,7.33-5.86,11.8-7.41l.11.31c-4.42,1.53-8.35,4-11.68,7.33-12.11,12.11-12.03,31.91.19,44.14,12.22,12.22,32.02,12.31,44.14.19,7.8-7.8,10.85-19.31,7.97-30.04l.32-.09c2.91,10.84-.18,22.48-8.06,30.35Z"/>
    <path class="cls-1" d="m66.11,24.56c-.08.08-.18.14-.29.17-.35.09-.71-.11-.8-.46-1.4-5.22-4.18-10.02-8.04-13.88C48.63,2.05,36.09-.86,25.02,2.98c-.34.12-.72-.06-.84-.4-.12-.34.06-.72.4-.84,11.54-4.01,24.62-.98,33.31,7.72,4.02,4.02,6.92,9.02,8.38,14.47.06.23,0,.47-.17.63Z"/>
  </g>
  <path class="cls-1" d="m55.86,52.7c-.45.45-.92.89-1.41,1.32-3.29,2.88-7.09,4.93-11.28,6.08l-.03-.11c4.18-1.15,7.96-3.19,11.24-6.06,5.75-5.03,9.19-12.02,9.69-19.67.51-7.75-2.05-15.24-7.19-21.1C46.32,1.15,28.02-.13,16.09,10.32c-7.68,6.72-11.2,17.17-9.19,27.25l-.11.02c-.98-4.9-.68-9.99.87-14.72,1.59-4.87,4.48-9.24,8.35-12.63C28-.26,46.36,1.03,56.96,13.1c5.16,5.88,7.73,13.41,7.22,21.18-.46,7.03-3.4,13.5-8.32,18.42Z"/>
  <path class="cls-1" d="m43.31,60.2s-.06.05-.1.06c-10.73,2.95-22.44-.58-29.83-9-3.41-3.89-5.75-8.61-6.75-13.64-.02-.12.05-.23.17-.26.12-.02.23.05.26.17.99,4.96,3.29,9.61,6.65,13.44,7.28,8.29,18.81,11.77,29.38,8.86.12-.03.24.04.27.15.02.08,0,.16-.06.21Z"/>
  <path class="cls-1" d="m10.68,56.68l-.23.23c-13.85-13.85-13.95-36.29-.22-50.02l.23.23c-13.6,13.6-13.5,35.83.22,49.55Z"/>
  <path class="cls-1" d="m60.72,7.26c13.63,13.96,13.63,36.31-.09,50.02-.17.17-.45.17-.62,0-.17-.17-.17-.45,0-.62,13.48-13.48,13.38-35.5-.22-49.1l-.31-.31h1.24Z"/>
  <path class="cls-1" d="m7.49,36.94c.36.36.36.93,0,1.29-.35.35-.93.35-1.29,0-.36-.36-.36-.93,0-1.29.35-.35.93-.35,1.29,0Z"/>
  <path class="cls-1" d="m43.8,59.41c.36.36.36.93,0,1.29-.35.35-.93.35-1.29,0-.36-.36-.36-.93,0-1.29.35-.35.93-.35,1.29,0Z"/>
  <path class="cls-1" d="m11.13,56.07c.36.36.36.93,0,1.29-.35.35-.93.35-1.29,0-.36-.36-.36-.93,0-1.29.35-.35.93-.35,1.29,0Z"/>
  <path class="cls-1" d="m11.19,6.17c.36.36.36.93,0,1.29-.35.35-.93.35-1.29,0-.36-.36-.36-.93,0-1.29.35-.35.93-.35,1.29,0Z"/>
  <path class="cls-1" d="m63.26,7.05c5.82,6.27,8.02,14.09,8.04,14.17.02.06,0,.12-.04.16-.02.02-.04.03-.07.04-.09.02-.18-.03-.2-.11-.02-.08-2.23-7.93-8.07-14.15l-.11-.12h.46Z"/>
</svg>