<?xml version="1.0" encoding="UTF-8"?>
<svg id="Layer_1" data-name="Layer 1" xmlns="http://www.w3.org/2000/svg" viewBox="0 0 112.88 112.88">
  <defs>
    <style>
      .cls-1 {
        fill: #fff;
      }

      .cls-2, .cls-3 {
        fill: none;
        stroke: #fff;
        stroke-miterlimit: 10;
      }

      .cls-3 {
        stroke-width: 12px;
      }
    </style>
  </defs>
  <path class="cls-1" d="m0,56.43h12.01H0Zm12.22-4.4l-11.94-1.17,11.94,1.17Zm-11.12-6.7l11.77,2.34-11.77-2.34Zm1.37-5.43h0l11.47,3.51-11.47-3.51Zm1.9-5.26l11.07,4.63-11.07-4.63Zm2.41-5.05l10.56,5.72-10.56-5.72Zm12.84,1.95l-9.93-6.72h0s9.93,6.72,9.93,6.72Zm-6.57-11.19h0l9.22,7.67-9.22-7.67Zm3.78-4.12l8.42,8.55-8.42-8.55Zm4.17-3.72l7.54,9.34-7.54-9.34Zm7.81,1.72l3.29,5.02-3.29-5.02Zm7.08,2.79l-5.56-10.63h0s5.56,10.63,5.56,10.63Zm-.47-12.98l4.47,11.14-4.47-11.14Zm-9.91,5.18h0l3.3,5.01-3.3-5.01Zm15.19-7l3.35,11.53-3.35-11.53Zm5.45-1.29l2.18,11.8-2.18-11.8Zm5.54-.74l1,11.96L51.69.19Z"/>
  <path class="cls-1" d="m60.7,106.69l.49,5.98h0l-.49-5.98Zm6.03,5.24l-2.17-11.8,2.18,11.8h0Zm2.11-12.81l3.34,11.52-3.34-11.52Zm6.39,4.13l2.24,5.57h0l-2.24-5.57Zm-15.03-2.53h0s.5,5.97.5,5.97l-.5-5.97Zm22.35,5.76l-5.56-10.63,5.56,10.63h0Zm-1.76-12.86l6.58,10.03-6.58-10.03Zm-7.79,4.07h0s2.23,5.56,2.23,5.56l-2.23-5.56Zm11.35-6.67l7.54,9.33-7.54-9.33Zm3.28-2.94l8.43,8.55-8.43-8.55Zm2.98-3.24l9.23,7.68-9.23-7.68Zm2.65-3.52h0l9.94,6.73-9.94-6.73Zm2.29-3.76l10.55,5.71-10.55-5.71Zm1.9-3.97l11.07,4.64h0l-11.07-4.64Zm1.49-4.14l11.48,3.52-11.48-3.52Zm1.08-4.26h0l11.77,2.35-11.77-2.35Zm.65-4.35l11.94,1.17-11.94-1.17Zm.21-4.41h12-12Z"/>
  <path class="cls-3" d="m56.44,6c27.86,0,50.44,22.58,50.44,50.44"/>
  <path class="cls-3" d="m56.44,106.88c-27.86,0-50.44-22.58-50.44-50.44"/>
  <circle class="cls-2" cx="56.44" cy="56.44" r="44.83"/>
</svg>