<?xml version="1.0" encoding="UTF-8"?>
<svg id="Layer_1" data-name="Layer 1" xmlns="http://www.w3.org/2000/svg" viewBox="0 0 115 114.69">
  <defs>
    <style>
      .cls-1 {
        fill: #fff;
      }
    </style>
  </defs>
  <path class="cls-1" d="m89.56,82.11c-7.44,9.55-19.04,15.7-32.06,15.7s-24.63-6.15-32.06-15.7l-10.49,6.05c9.57,13.12,25.06,21.65,42.55,21.65s32.97-8.53,42.54-21.65l-10.48-6.05ZM16.87,57.19c0-20.36,15.06-37.28,34.63-40.18V4.9C25.25,7.88,4.87,30.15,4.87,57.19c0,7.29,1.48,14.23,4.17,20.54l10.5-6.07c-1.73-4.49-2.67-9.37-2.67-14.47ZM63.5,4.9v12.11c19.56,2.9,34.62,19.82,34.62,40.18,0,5.1-.94,9.98-2.67,14.47l10.51,6.07c2.68-6.31,4.16-13.25,4.16-20.54,0-27.04-20.38-49.31-46.62-52.29Z"/>
  <path class="cls-1" d="m103.39,90.1c-10.26,14.28-27.01,23.59-45.89,23.59s-35.63-9.31-45.89-23.59l-.88.5c10.44,14.58,27.51,24.09,46.77,24.09s36.33-9.51,46.77-24.09l-.88-.5ZM51.5,1.01V0C22.6,3.01,0,27.51,0,57.19c0,8.16,1.71,15.94,4.8,22.98l.87-.5c-3.01-6.89-4.67-14.49-4.67-22.48C1,28.06,23.15,4.01,51.5,1.01Zm12-1.01v1.01c28.34,3,50.5,27.05,50.5,56.18,0,7.99-1.67,15.59-4.67,22.48l.87.5c3.09-7.04,4.8-14.82,4.8-22.98C115,27.51,92.39,3.01,63.5,0Z"/>
</svg>