<?xml version="1.0" encoding="UTF-8"?>
<svg id="Layer_1" data-name="Layer 1" xmlns="http://www.w3.org/2000/svg" viewBox="0 0 114 114">
  <defs>
    <style>
      .cls-1 {
        fill: #fff;
      }

      .cls-2 {
        fill: none;
        stroke: #fff;
        stroke-miterlimit: 10;
      }
    </style>
  </defs>
  <path class="cls-1" d="m57,0C25.52,0,0,25.52,0,57h0v.04h0s0,.04,0,.05H0v.05H0s0,.03,0,.04H0s0,.03,0,.05H0s0,.03,0,.05H0s0,.03,0,.05c0,0,0,0,0,.01,0,.01,0,.02,0,.03,0,0,0,0,0,0,0,.01,0,.03,0,.04H0s0,.03,0,.04H0s0,.04,0,.05H0s0,.03,0,.04c0,0,0,0,0,.01,0,.01,0,.03,0,.04,0,0,0,0,0,0,0,.01,0,.02,0,.03,0,0,0,0,0,.01,0,.01,0,.03,0,.04,0,0,0,0,0,0,0,.01,0,.02,0,.03,0,0,0,0,0,.01,0,.01,0,.03,0,.04H0s0,.03,0,.04c0,0,0,0,0,.01,0,.03,0,.05,0,.08,0,0,0,0,0,.01,0,.01,0,.02,0,.04H0s0,.03,0,.04c0,0,0,0,0,.01,0,.01,0,.02,0,.04,0,0,0,0,0,0,0,.01,0,.03,0,.04,0,0,0,0,0,.01,0,.01,0,.02,0,.03,0,0,0,0,0,0,0,.01,0,.03,0,.04,0,0,0,0,0,0,0,.01,0,.02,0,.03,0,0,0,0,0,0,0,.01,0,.03,0,.04,0,0,0,0,0,0,0,.01,0,.02,0,.03,0,0,0,0,0,0,0,.01,0,.03,0,.04,0,0,0,0,0,0,0,.01,0,.02,0,.03,0,0,0,0,0,.01,0,.01,0,.03,0,.04,0,0,0,0,0,0,0,.01,0,.02,0,.03,0,0,0,0,0,.01,0,.01,0,.03,0,.04,0,0,0,0,0,0,0,.01,0,.02,0,.03,0,0,0,0,0,.01,0,.01,0,.03,0,.04,0,0,0,0,0,0,0,.01,0,.02,0,.04,0,0,0,0,0,0,0,.03,0,.06,0,.08,0,0,0,0,0,.01,0,.01,0,.02,0,.04,0,0,0,0,0,0,0,.01,0,.03,0,.04,0,0,0,0,0,0,0,.01,0,.02,0,.04,0,0,0,0,0,0,0,.01,0,.03,0,.04,0,0,0,0,0,0,0,.01,0,.02,0,.04,0,0,0,0,0,0,0,.01,0,.03,0,.04,0,0,0,0,0,0,0,.01,0,.02,0,.03,0,0,0,0,0,0,0,.01,0,.03,0,.04,0,0,0,0,0,0,0,.01,0,.02,0,.03,0,0,0,0,0,.01,0,.01,0,.03,0,.04,0,0,0,0,0,0,0,.01,0,.02,0,.03,0,0,0,0,0,0,0,.01,0,.03,0,.04,0,0,0,0,0,0,0,.01,0,.02,0,.03,0,0,0,0,0,.01,0,.01,0,.03,0,.04,0,0,0,0,0,0,0,.01,0,.02,0,.03,0,0,0,0,0,.01,0,.01,0,.03,0,.04,0,0,0,0,0,0,0,.01,0,.03,0,.04,0,0,0,0,0,.01,0,.01,0,.02,0,.04,0,0,0,0,0,0,0,.01,0,.03,0,.04,0,0,0,0,0,.01,0,.01,0,.02,0,.03,0,0,0,0,0,0,0,.01,0,.03,0,.04,0,0,0,0,0,.01,0,.01,0,.02,0,.03,0,0,0,0,0,0,0,.01,0,.03,0,.04,0,0,0,0,0,.01,0,.01,0,.02,0,.03,0,0,0,0,0,0,0,.01,0,.03,0,.04,0,0,0,0,0,.01,0,.01,0,.02,0,.03,0,0,0,0,0,0,0,.01,0,.03,0,.04,0,0,0,0,0,.01,0,.01,0,.02,0,.03,0,0,0,0,0,.01,0,.01,0,.03,0,.04,0,0,0,0,0,0,0,.01,0,.02,0,.03,0,0,0,0,0,.01,0,.01,0,.03,0,.04,0,0,0,0,0,0,0,.01,0,.02,0,.03,0,0,0,0,0,.01,0,.01,0,.03,0,.04,0,0,0,0,0,0,0,.01,0,.02,0,.03,0,0,0,0,0,.01,0,.01,0,.03,0,.04,0,0,0,0,0,0,0,.01,0,.02,0,.04,0,0,0,0,0,.01,0,.01,0,.02,0,.04,0,0,0,0,0,0,0,.01,0,.03,0,.04,0,0,0,0,0,.01,0,.01,0,.02,0,.03,0,0,0,0,0,0,0,.01,0,.03,0,.04,0,0,0,0,0,.01,0,.01,0,.02,0,.03,0,0,0,0,0,0,0,.01,0,.03,0,.04,0,0,0,0,0,0,0,.01,0,.02,0,.03,0,0,0,0,0,0,0,.01,0,.03,0,.04,0,0,0,0,0,0,0,.01,0,.02,0,.03,0,0,0,0,0,0,0,.01,0,.03,0,.04,0,0,0,0,0,0,0,.01,0,.02,0,.03,0,0,0,0,0,0,0,.01,0,.03,0,.04,0,0,0,0,0,0,0,.01,0,.02,0,.03,0,0,0,0,0,.01,0,.01,0,.03,0,.04,0,0,0,0,0,0,0,.01,0,.02,0,.03,0,0,0,0,0,.01,0,.01,0,.03,0,.04,0,0,0,0,0,0,0,.01,0,.02,0,.03,0,0,0,0,0,.01,0,.01,0,.03,0,.04,0,0,0,0,0,0,0,.01,0,.02,0,.03,0,0,0,0,0,.01,0,.01,0,.02,0,.03,0,0,0,0,0,0,0,.01,0,.02,0,.04,0,0,0,0,0,.01,0,.01,0,.02,0,.03,0,0,0,0,0,0,0,.01,0,.03,0,.04,0,0,0,0,0,.01,0,.01,0,.02,0,.03,0,0,0,0,0,.01,0,.01,0,.02,0,.04,0,0,0,0,0,.01,0,.01,0,.02,0,.03,0,0,0,0,0,.01,0,.01,0,.03,0,.04,0,0,0,0,0,.01,0,.01,0,.02,0,.03,0,0,0,0,0,.01,0,.01,0,.03,0,.04,0,0,0,0,0,.01,0,0,0,.02,0,.03,0,0,0,0,0,.01,0,.01,0,.02,0,.04,0,0,0,0,0,.01,0,.01,0,.02,0,.03,0,0,0,0,0,.01,0,.01,0,.02,0,.04,0,0,0,0,0,0,0,.01,0,.02,0,.03,0,0,0,0,0,.01,0,.01,0,.02,0,.04,0,0,0,0,0,0,0,.01,0,.02,0,.03,0,0,0,0,0,.01,0,.01,0,.02,0,.03,0,0,0,.01,0,.02,0,.01,0,.02,0,.03,0,0,0,.01,0,.02,0,.01,0,.02,0,.03,0,0,0,0,0,0,0,.01,0,.02,0,.04,0,0,0,.01,0,.01,0,0,0,.02,0,.03,0,0,0,0,0,.01,0,.01,0,.02,0,.04,0,0,0,0,0,.01,0,0,0,.02,0,.03,0,0,0,0,0,.01,0,.01,0,.03,0,.04,0,0,0,0,0,.01,0,0,0,.02,0,.03,0,0,0,0,0,.01,0,.01,0,.03,0,.04,0,0,0,0,0,.01,0,0,0,.02,0,.03,0,0,0,0,0,.01,0,.01,0,.03,0,.04,0,0,0,0,0,.01,0,0,0,.02,0,.03,0,0,0,0,0,.01,0,.01,0,.02,0,.04,0,0,0,0,0,.01,0,.01,0,.02,0,.03,0,0,0,0,0,.01,0,.01,0,.03,0,.04,0,0,0,0,0,.01,0,0,0,.02,0,.03,0,0,0,.01,0,.01,0,.01,0,.02,0,.04,0,0,0,0,0,0,0,.01,0,.02,0,.03,0,0,0,0,0,.01,0,.01,0,.02,0,.04,0,0,0,0,0,0,0,.01,0,.02,0,.03,0,0,0,0,0,.01,0,.01,0,.02,0,.03,0,0,0,0,0,0,0,.01,0,.02,0,.04,0,0,0,.01,0,.01,0,.01,0,.02,0,.03,0,0,0,0,0,.01,0,.01,0,.02,0,.04,0,0,0,0,0,.01,0,0,0,.02,0,.03,0,0,0,0,0,.01,0,.01,0,.03,0,.04,0,0,0,0,0,.01,0,.01,0,.02,0,.03,0,0,0,0,0,.01,0,.01,0,.03,0,.04,0,0,0,0,0,.01,0,0,0,.02,0,.03,0,0,0,0,0,.01,0,.01,0,.03,0,.04,0,0,0,0,0,.01,0,.01,0,.02,0,.03,0,0,0,0,0,.01,0,.01,0,.03,0,.04,0,0,0,0,0,.01,0,0,0,.02,0,.03,0,0,0,0,0,.01,0,.01,0,.02,0,.04,0,0,0,0,0,0,0,.01,0,.02,0,.03,0,0,0,0,0,.01,0,.01,0,.02,0,.04,0,0,0,0,0,0,0,.01,0,.02,0,.03,0,0,0,0,0,.01,0,.01,0,.02,0,.03,0,0,0,0,0,0,0,.01,0,.02,0,.03,0,0,0,0,0,.01,0,.01,0,.02,0,.03,0,0,0,0,0,0,0,.01,0,.02,0,.04,0,0,0,0,0,.01,0,.01,0,.02,0,.03,0,0,0,0,0,.01,0,.01,0,.02,0,.04,0,0,0,0,0,.01,0,0,0,.02,0,.03,0,0,0,0,0,.01,0,.01,0,.03,0,.04,0,0,0,0,0,.01,0,.01,0,.02,0,.03,0,0,0,0,0,.01,0,.01,0,.03,0,.04,0,0,0,0,0,.01,0,0,0,.02,0,.03,0,0,0,0,0,.01,0,.01,0,.02,0,.04,0,0,0,0,0,.01,0,0,0,.02,0,.03,0,0,0,0,0,.01,0,.01,0,.02,0,.04,0,0,0,0,0,0,0,.01,0,.02,0,.03,0,0,0,0,0,.01,0,.01,0,.02,0,.04,0,0,0,0,0,0,0,.01,0,.02,0,.03,0,0,0,0,0,.01,0,.01,0,.02,0,.04,0,0,0,0,0,0,0,.01,0,.02,0,.03,0,0,0,0,0,.01,0,.01,0,.02,0,.03,0,0,0,0,0,0,0,.01,0,.02,0,.03,0,0,0,0,0,.01,0,.01,0,.02,0,.03,0,0,0,0,0,0,0,.01,0,.02,0,.04,0,0,0,0,0,.01,0,.01,0,.02,0,.03,0,0,0,0,0,0,0,.01,0,.03,0,.04,0,0,0,0,0,.01,0,.01,0,.02,0,.03,0,0,0,0,0,0,0,.01,0,.02,0,.04,0,0,0,0,0,.01,0,0,0,.02,0,.03,0,0,0,0,0,.01,0,.01,0,.02,0,.04,0,0,0,0,0,.01,0,0,0,.02,0,.03,0,0,0,0,0,.01,0,.01,0,.03,0,.04,0,0,0,0,0,.01,0,0,0,.02,0,.03,0,0,0,0,0,.01,0,.01,0,.02,0,.04,0,0,0,0,0,.01,0,0,0,.02,0,.03,0,0,0,0,0,.01,0,.01,0,.02,0,.04,0,0,0,0,0,.01,0,0,0,.02,0,.03,0,0,0,.01,0,.01,0,.01,0,.02,0,.03,0,0,0,0,0,.01,0,.01,0,.02,0,.03,0,0,0,0,0,.01,0,.01,0,.02,0,.03,0,0,0,.01,0,.02,0,.01,0,.02,0,.03,0,0,0,.01,0,.02,0,0,0,.02,0,.03,0,0,0,0,0,.01,0,.01,0,.02,0,.03,0,0,0,0,0,.02,0,0,0,.02,0,.02,0,0,0,.01,0,.02,0,.01,0,.02,0,.03,0,0,0,.01,0,.02,0,0,0,.02,0,.02,0,0,0,0,0,.01,0,.01,0,.02,0,.04,0,0,0,0,0,.01,0,0,0,.02,0,.03,0,0,0,0,0,.01,0,.01,0,.02,0,.04,0,0,0,.01,0,.01,0,0,0,.02,0,.02,0,0,0,.01,0,.02,0,.01,0,.02,0,.03,0,0,0,0,0,.01,0,0,0,.02,0,.02,0,0,0,.01,0,.02,0,.01,0,.02,0,.03,0,0,0,0,0,.01,0,0,0,.02,0,.03,0,0,0,0,0,.02,0,.01,0,.02,0,.03,0,0,0,.01,0,.02,0,0,0,.02,0,.03,0,0,0,.01,0,.02,0,.01,0,.02,0,.03,0,0,0,.01,0,.02,0,0,0,.02,0,.03,0,0,0,.01,0,.02,0,0,0,.02,0,.03,0,0,0,.01,0,.02,0,0,0,.02,0,.03,0,0,0,.01,0,.02,0,0,0,.02,0,.02,0,0,0,.01,0,.02,0,.01,0,.02,0,.03,0,0,0,.01,0,.02,0,0,0,.02,0,.02,0,0,0,0,0,.01,0,.01,0,.02,0,.03,0,0,0,.01,0,.02,0,0,0,.02,0,.02,0,0,0,0,0,.01,0,.01,0,.02,0,.03,0,0,0,.01,0,.02,0,0,0,.02,0,.02,0,0,0,.01,0,.02,0,.01,0,.02,0,.03,0,0,0,.01,0,.01,0,0,0,.02,0,.02,0,0,0,0,0,.01,0,.01,0,.02,0,.04,0,0,0,0,0,.01,0,0,0,.02,0,.02,0,0,0,.01,0,.02,0,.01,0,.02,0,.03,0,0,0,0,0,.01,0,0,0,.02,0,.02,0,0,0,0,0,.02,0,0,0,.02,0,.03,0,0,0,.01,0,.02,0,0,0,.02,0,.02,0,0,0,.01,0,.02,0,0,0,.01,0,.02,0,0,0,.02,0,.03,0,0,0,.01,0,.02,0,0,0,.01,0,.02,0,0,0,.01,0,.02,0,0,0,.02,0,.02,0,0,0,.02,0,.02,0,0,0,.01,0,.02,0,0,0,.02,0,.02,0,0,0,.01,0,.02,0,0,0,.02,0,.03,0,0,0,.01,0,.02,0,0,0,.01,0,.02,0,0,0,.01,0,.02,0,.01,0,.02,0,.03,0,0,0,.01,0,.02,0,0,0,.01,0,.02,0,0,0,.01,0,.02,0,.01,0,.02,0,.03,0,0,0,.01,0,.02,0,0,0,.01,0,.02,0,0,0,.01,0,.02,0,.01,0,.02,0,.03,0,0,0,.01,0,.02,0,0,0,.01,0,.02,0,0,0,.01,0,.02,0,.01,0,.02,0,.03,0,0,0,.01,0,.02,0,0,0,.01,0,.02,0,0,0,.01,0,.02,0,.01,0,.02,0,.03,0,0,0,.01,0,.02,0,0,0,.01,0,.02,0,0,0,.01,0,.02,0,0,0,.01,0,.02,0,0,0,.02,0,.03,0,0,0,.01,0,.02,0,0,0,.01,0,.02,0,0,0,.02,0,.02s0,.02,0,.02c0,0,0,.01,0,.02,0,0,0,.01,0,.02,0,0,0,.01,0,.02,0,0,0,.02,0,.02,0,0,0,.02,0,.02,0,0,0,.01,0,.02,0,0,0,.01,0,.02,0,0,0,.01,0,.02,0,0,0,.02,0,.03,0,0,0,.01,0,.02,0,0,0,.01,0,.02,0,0,0,.01,0,.02,0,.01,0,.02,0,.03,0,0,0,.01,0,.02,0,0,0,.01,0,.02,0,0,0,.01,0,.02,0,.01,0,.02,0,.03,0,0,0,.01,0,.02,0,0,0,.01,0,.02,0,0,0,.01,0,.02,0,.01,0,.02,0,.03,0,0,0,.01,0,.02,0,0,0,.01,0,.02,0,0,0,.01,0,.02,0,0,0,.01,0,.02,0,0,0,.02,0,.03,0,0,0,.01,0,.02,0,0,0,.01,0,.02,0,0,0,.01,0,.02,0,0,0,.02,0,.03,0,0,0,.01,0,.02,0,0,0,.01,0,.02,0,0,0,.02,0,.03,0,0,0,.01,0,.02,0,0,0,.02,0,.02,0,0,0,.01,0,.02,0,0,0,.02,0,.02,0,0,0,.01,0,.02,0,0,0,.02,0,.02,0,0,0,.01,0,.02,0,0,0,.01,0,.02,0,0,0,.02,0,.03,0,0,0,.01,0,.02,0,0,0,.01,0,.02,0,0,0,.01,0,.02,0,0,0,.02,0,.02,0,0,0,.02,0,.03,0,0,0,.01,0,.02,0,0,0,.01,0,.02,0,0,0,.02,0,.03,0,0,0,.02,0,.02,0,0,0,.01,0,.02,0,0,0,.01,0,.02,0,0,0,.01,0,.02,0,.01,0,.02,0,.03,0,0,0,.01,0,.02,0,0,0,.01,0,.02,0,0,0,.01,0,.02,0,.01,0,.02,0,.03,0,0,0,.01,0,.02,0,0,0,.01,0,.02,0,0,0,.01,0,.02,0,0,0,.02,0,.03,0,0,0,.02,0,.02,0,0,0,.01,0,.02,0,0,0,.01,0,.02,0,0,0,.02,0,.02,0,0,0,.02,0,.03,0,0,0,.01,0,.02,0,0,0,.01,0,.02,0,0,0,.01,0,.02,0,.01,0,.02,0,.03,0,0,0,.01,0,.02,0,0,0,.01,0,.02,0,0,0,.01,0,.02,0,0,0,.02,0,.03,0,0,0,.01,0,.02,0,0,0,.01,0,.02,0,0,0,.01,0,.02,0,0,0,.02,0,.03,0,0,0,.01,0,.02,0,0,0,.01,0,.02,0,0,0,.01,0,.02,0,.01,0,.02,0,.03,0,0,0,.01,0,.02,0,0,0,.01,0,.02v.02s0,.02.01.04c0,0,0,0,0,.01,0,0,0,.01,0,.02,0,0,0,.01,0,.01,0,.01,0,.02,0,.03,0,0,0,.01,0,.02,0,0,0,.01,0,.02,0,0,0,0,0,.02,0,0,0,.01,0,.02,0,0,0,.02,0,.03,0,0,0,.01,0,.02,0,0,0,.01,0,.02,0,0,0,.01,0,.02,0,0,0,.01,0,.02,0,0,0,.02,0,.03,0,0,0,.01,0,.02,0,0,0,.01,0,.02,0,0,0,.01,0,.02,0,.01,0,.02,0,.04,0,0,0,0,0,.01,0,0,0,.01,0,.02,0,0,0,.01,0,.02,0,.01,0,.02,0,.03,0,0,0,.01,0,.02,0,0,0,.01,0,.02,0,0,0,.01,0,.02,0,.01,0,.02,0,.03,0,0,0,.01,0,.02,0,0,0,.01,0,.02,0,0,0,.01,0,.02,0,.01,0,.02,0,.03,0,0,0,.01,0,.02,0,0,0,.01,0,.02,0,0,0,0,0,.02,0,0,0,.02,0,.03,0,0,0,.01,0,.02,0,0,0,.01,0,.02,0,0,0,.01,0,.02,0,0,0,.02,0,.03,0,0,0,.01,0,.02,0,0,0,.01,0,.02,0,0,0,0,0,.02,0,.01,0,.02,0,.04,0,0,0,0,0,.01,0,0,0,.01,0,.02,0,0,0,.01,0,.02,0,0,0,.01,0,.02,0,0,0,0,0,0,0,.01,0,.03.01.04,0,0,0,.01,0,.01,0,0,0,.01,0,.02,0,0,0,0,0,.01,0,.01,0,.02,0,.04,0,0,0,0,0,.01,0,0,0,.01,0,.02,0,0,0,.01,0,.02,0,.01,0,.02,0,.03,0,0,0,0,0,.01,0,0,0,.02,0,.02,0,0,0,0,0,.01,0,.01,0,.02,0,.04,0,0,0,0,0,.01,0,0,0,.01,0,.02,0,0,0,0,0,.01,0,.01,0,.03,0,.04,0,0,0,0,0,.01,0,0,0,.02,0,.02,0,0,0,0,0,.01,0,.01,0,.03,0,.04,0,0,0,0,0,.01,0,0,0,.02,0,.02,0,0,0,0,0,.01,0,.01,0,.02,0,.03,0,0,0,.01,0,.02,0,0,0,.01,0,.02,0,0,0,.01,0,.02,0,0,0,.02,0,.03,0,0,0,.02,0,.02,0,0,0,.01,0,.02,0,0,0,.01,0,.02,0,0,0,.01,0,.02,0,.01,0,.02,0,.03,0,0,0,.01,0,.02,0,0,0,.01,0,.02,0,0,0,.01,0,.02,0,0,0,.01,0,.02,0,.01,0,.02,0,.03,0,0,0,.01,0,.02,0,0,0,.01,0,.02,0,0,0,.01,0,.02,0,0,0,.02,0,.03,0,0,0,.01,0,.02,0,0,0,.01,0,.02,0,0,0,.01,0,.02,0,.01,0,.02,0,.03,0,0,0,.01,0,.02,0,0,0,.01,0,.02,0,0,0,.01,0,.02,0,.01,0,.02,0,.03,0,0,0,.01,0,.02,0,0,0,.01,0,.02,0,0,0,.01,0,.02,0,.01,0,.02,0,.03,0,0,0,.01,0,.02,0,0,0,.01,0,.02,0,0,0,.01,0,.02,0,.01,0,.02,0,.03,0,0,0,.01,0,.02,0,0,0,.01,0,.02,0,0,0,.01,0,.02,0,0,0,.02,0,.02v.02s.01.01.01.02c0,0,0,.01,0,.02,0,.01,0,.02,0,.03,0,0,0,.01,0,.02,0,0,0,.01,0,.02,0,0,0,.01,0,.02,0,0,0,.01,0,.02,0,.01,0,.02,0,.03,0,0,0,.01,0,.02,0,0,0,.01,0,.02,0,0,0,.01,0,.02,0,.01,0,.02,0,.03,0,0,0,.01,0,.02,0,0,0,.01,0,.02,0,0,0,.01,0,.02,0,0,0,0,0,.02,0,.01,0,.02,0,.03,0,0,0,0,0,.01,0,0,0,.01,0,.02,0,0,0,0,0,.01,0,.01,0,.02,0,.03,0,0,0,.01,0,.02,0,0,0,.01,0,.02,0,0,0,.01,0,.02,0,.01,0,.02,0,.03,0,0,0,0,0,.02,0,0,0,.01,0,.02,0,0,0,0,0,.01,0,.01,0,.02,0,.03,0,0,0,.01,0,.02,0,0,0,.01,0,.02,0,0,0,0,0,.02,0,.01,0,.03.01.04,0,0,0,0,0,.01,0,0,0,.01,0,.02,0,0,0,0,0,.01,0,.01,0,.03.01.04,0,0,0,0,0,0,0,0,0,.01,0,.02,0,0,0,0,0,.01,0,.02,0,.03.01.05h0s0,.02,0,.03c0,0,0,0,0,.01,0,.02.01.05.02.07,0,0,0,0,0,.01,0,.02.02.05.02.07,0,0,0,0,0,0,0,0,0,.01,0,.02,0,0,0,0,0,.01,0,.01,0,.03.01.04,0,0,0,0,0,.01,0,0,0,.02,0,.02,0,0,0,0,0,0,0,.02,0,.03.01.05,0,0,0,0,0,0,0,0,0,.02,0,.02,0,0,0,0,0,0,0,.02,0,.03.01.05,0,0,0,0,0,0,0,0,0,.02,0,.02,0,0,0,0,0,0,0,.02.01.03.02.05,0,0,0,0,0,0,0,0,0,.02,0,.03,0,0,0,0,0,0,0,.02,0,.03.01.05,0,0,0,0,0,0,0,0,0,.02,0,.02,0,0,0,0,0,0,0,.03.02.05.02.08,0,0,0,0,0,0,0,.03.02.05.02.08,0,0,0,0,0,0,0,.03.02.05.02.08,0,0,0,0,0,0,0,.03.02.05.02.08,0,0,0,0,0,0,0,.02.02.05.02.08,0,0,0,0,0,0,0,0,0,.02,0,.02,0,0,0,0,0,0,0,.02,0,.03.02.05,0,0,0,0,0,0,0,0,0,.02,0,.03,0,0,0,0,0,0,0,.02.01.03.02.05,0,0,0,0,0,0,0,0,0,.02,0,.03h0s.01.04.02.06c0,0,0,0,0,0,0,0,0,.02,0,.03,0,0,0,0,0,0,0,.03.02.05.03.08,0,0,0,0,0,0,0,.03.02.05.03.08,0,0,0,0,0,0,0,.03.02.05.03.08,0,0,0,0,0,0,0,.03.02.05.03.08,0,0,0,0,0,0,0,.03.02.05.03.08,0,0,0,0,0,0,0,.03.02.05.03.08,0,0,0,0,0,0,0,.03.02.05.03.08h0s0,.02,0,.03c0,0,0,0,0,0,0,.02.01.03.02.05,0,0,0,0,0,0,0,0,0,.02,0,.03h0s.02.06.03.09h0s.02.06.03.08h0s.02.06.03.08c0,0,0,0,0,0,0,.03.02.05.03.08h0s.02.06.03.08c0,0,0,0,0,0,0,.03.02.05.03.08h0s.02.06.03.08h0s.02.06.03.08h0c.02.06.05.13.07.19,0,0,0,0,0,0,0,.03.02.05.03.08,0,0,0,0,0,0,0,.03.02.05.03.08h0s.02.06.03.08h0s.02.05.03.08h0c.05.15.11.3.16.45h0c.04.11.08.22.12.33h0c.08.2.15.41.23.61h0s.02.05.03.08h0c2.28,5.81,5.5,11.16,9.46,15.86h0s.07.09.11.13h0c.1.12.2.24.3.35,0,0,0,0,0,0,.04.04.07.09.11.13h0s.04.04.06.07c0,0,0,0,0,0,.02.02.04.04.05.06,0,0,0,0,0,0,.02.02.04.04.05.06,0,0,0,0,0,0,0,0,.01.01.02.02,0,0,0,0,0,0,.01.01.02.03.03.04,0,0,0,0,0,0,0,0,.01.01.02.02,0,0,0,0,0,0,.01.01.02.03.03.04,0,0,0,0,0,0,0,0,.01.01.02.02,0,0,0,0,0,0,.01.01.02.03.03.04h0s.01.02.02.02c0,0,0,0,0,0,.02.02.04.04.05.06,0,0,0,0,0,0,.02.02.03.04.05.06,0,0,0,0,0,0,.02.02.03.04.05.06,0,0,0,0,0,0,.02.02.03.04.05.06,0,0,0,0,0,0,0,0,.01.01.02.02,0,0,0,0,0,0,.01.01.02.02.03.04,0,0,0,0,0,0,0,0,.01.01.02.02h0s.02.03.03.04c0,0,0,0,0,0,0,0,.01.01.02.02,0,0,0,0,0,0,0,0,.02.02.03.03,0,0,0,0,0,0,0,0,.01.01.02.02,0,0,0,0,0,0,.01.01.02.02.03.03,0,0,0,0,0,0,0,0,.01.01.02.02,0,0,0,0,0,0,.02.02.04.04.05.06,0,0,0,0,0,0,.02.02.04.04.05.06,0,0,0,0,0,0,.02.02.03.04.05.06,0,0,0,0,0,0,.02.02.03.04.05.06,0,0,0,0,0,0,.02.02.03.04.05.06,0,0,0,0,0,0,0,0,.01.01.02.02,0,0,0,0,0,0,0,.01.02.02.03.03,0,0,0,0,0,0,0,0,.01.01.02.02,0,0,0,0,0,0,0,.01.02.02.03.03,0,0,0,0,0,0,0,0,.01.01.02.02,0,0,0,0,0,0,0,.01.02.02.03.03,0,0,0,0,0,0,0,0,.01.01.02.02,0,0,0,0,0,0,0,.01.02.02.03.03,0,0,0,0,0,0,0,0,.01.01.01.02,0,0,0,0,.01.01,0,0,.01.02.02.02,0,0,0,0,.01.01,0,0,0,.01.01.01,0,0,0,0,.01.01,0,0,.01.02.02.02,0,0,0,0,.01.01,0,0,0,.01.01.02,0,0,0,0,.01.01,0,0,.01.01.02.02,0,0,0,0,.01.01,0,0,0,0,.01.02,0,0,0,0,0,0,.02.02.03.04.05.05,0,0,0,0,0,.01,0,0,.01.01.02.02,0,0,0,0,0,0,0,.01.02.02.03.03,0,0,0,0,0,0,0,0,0,.01.01.02,0,0,0,0,0,0,0,0,.02.02.03.03,0,0,0,0,0,0,0,0,.01.01.02.02,0,0,0,0,0,.01,0,0,.02.02.03.03,0,0,0,0,0,0,0,0,.01.01.02.02,0,0,0,0,0,0,0,0,.02.02.02.03,0,0,0,0,.01.01,0,0,0,0,.01.01,0,0,0,0,.01.01,0,0,.01.02.02.02,0,0,0,0,.01.01,0,0,0,.01.01.02,0,0,0,0,.01.01,0,0,.01.01.02.02,0,0,0,.01.01.01,0,0,0,0,.01.01,0,0,0,0,.01.01,0,0,0,0,.01.01,0,0,.01.01.02.02,0,0,0,0,.01.01,0,0,0,0,.01.01,0,0,0,0,.01.01,0,0,.01.01.02.02,0,0,0,0,.01.01,0,0,0,0,.01.01,0,0,0,0,.01.01,0,0,.01.01.02.02,0,0,0,0,.01.01,0,0,0,0,.01.01,0,0,0,0,.01.01,0,0,.01.01.02.02,0,0,.01.01.02.02,0,0,0,0,.01.01,0,0,0,0,.01.01,0,0,0,0,.01.01,0,0,.01.01.02.02,0,0,0,0,.01.01,0,0,0,0,.01.01,0,0,.01.01.02.02,0,0,0,.01.01.02,0,0,.01.01.02.02,0,0,0,0,.01.01,0,0,.01.01.01.01,0,0,.01.01.02.02,0,0,0,0,.01.02,0,0,0,0,.01.01,0,0,.01.01.02.02,0,0,0,0,.01.01,0,0,.01.01.02.02,0,0,0,0,.01.01,0,0,.01.01.02.02,0,0,.01.01.02.02,0,0,.01.01.02.02,0,0,0,0,.01.01,0,0,.01.01.02.02,0,0,0,0,.01.01,0,0,.02.02.02.02,0,0,0,0,.01.01,0,0,.01.01.02.02,0,0,0,0,.01.01,0,0,.02.02.02.02,0,0,0,0,0,0,0,0,.01.01.02.02,0,0,0,0,.01.01,0,0,.02.02.02.02,0,0,0,0,.01.01,0,0,.01.01.02.02,0,0,0,0,.01.01,0,0,.02.02.02.02,0,0,0,0,.01.01,0,0,.01.01.02.02,0,0,0,0,.01.01l.02.02s0,0,0,0c0,0,.01.01.02.02,0,0,0,0,.01.01,0,0,.01.01.02.02,0,0,0,0,0,0,0,0,.01.01.02.02h0s.02.02.02.03c0,0,0,0,0,0,0,0,.02.02.02.02,0,0,0,0,0,0,0,0,.01.01.02.02,0,0,0,0,0,0,0,0,.02.02.03.03,0,0,0,0,0,0,0,0,.01.01.02.02,0,0,0,0,0,0,0,0,.02.02.03.03,0,0,0,0,0,0,0,0,.01.01.02.02,0,0,0,0,0,0,0,0,.02.02.03.03,0,0,0,0,0,0,0,0,.01.01.02.02,0,0,0,0,0,0,0,0,.02.02.03.03,0,0,0,0,0,0,0,0,.01.01.02.02,0,0,0,0,0,0,0,0,.02.02.03.03,0,0,0,0,0,0,0,0,.02.02.02.02,0,0,0,0,0,0,0,0,.02.02.03.03,0,0,0,0,0,0,0,0,.02.02.02.02,0,0,0,0,0,0,0,0,.02.02.03.03,0,0,0,0,0,0,0,0,.02.02.02.02,0,0,0,0,0,0,0,0,.02.02.03.03,0,0,0,0,0,0,0,0,.02.02.03.03,0,0,0,0,0,0,0,0,.02.02.03.03h0s.02.02.03.03c0,0,0,0,0,0,0,0,.02.02.03.03t0,0s.02.02.03.03c0,0,0,0,0,0,0,0,.02.02.03.03h0s.02.02.03.03c0,0,0,0,0,0,0,0,.02.02.02.02,0,0,0,0,0,0,.01,0,.02.02.03.03,0,0,0,0,0,0,0,0,.02.02.02.02,0,0,0,0,0,0,.01,0,.02.02.03.03,0,0,0,0,0,0,0,0,.02.02.03.02,0,0,0,0,0,0,.01,0,.02.02.03.03,0,0,0,0,0,0,0,0,.02.02.03.03,0,0,0,0,0,0,.01,0,.02.02.03.03h0s.02.02.03.03c0,0,0,0,0,0,.02.02.04.04.06.06,0,0,0,0,0,0,.02.02.04.04.06.06,0,0,0,0,0,0,.02.02.04.04.06.06,0,0,0,0,0,0,.02.02.04.04.06.05,0,0,0,0,0,0,.02.02.04.04.06.06h0s.04.04.06.06c0,0,0,0,0,0,.03.03.06.06.09.09h0s.04.04.06.06h0s.04.04.06.06h0s.08.08.13.12h0s.04.04.06.06h0c3.18,2.88,6.68,5.41,10.45,7.53l5.87-10.47c-14.2-7.97-23.02-23.02-23.02-39.28,0-24.81,20.19-45,45-45V0h0Zm30.5,8.84l-6.43,10.13c13.11,8.32,20.93,22.53,20.93,38.03,0,24.81-20.19,45-45,45-.82,0-1.64-.02-2.45-.07l-.64,11.98c.52.03,1.05.05,1.57.06h0s.03,0,.04,0c0,0,0,0,0,0,.01,0,.03,0,.04,0,0,0,0,0,0,0,.01,0,.03,0,.04,0,0,0,0,0,0,0,.01,0,.03,0,.04,0,0,0,0,0,0,0,.01,0,.03,0,.04,0,0,0,0,0,0,0,.01,0,.03,0,.04,0,0,0,0,0,0,0,.01,0,.02,0,.04,0,0,0,0,0,0,0,.01,0,.03,0,.04,0,0,0,0,0,0,0,.01,0,.03,0,.04,0,0,0,0,0,0,0,.01,0,.03,0,.04,0,0,0,0,0,0,0,.01,0,.03,0,.04,0h0c.07,0,.15,0,.22,0,0,0,0,0,0,0,.01,0,.02,0,.03,0,0,0,.01,0,.02,0,0,0,.02,0,.03,0,0,0,.01,0,.02,0,0,0,.02,0,.03,0,0,0,.01,0,.02,0,0,0,.02,0,.03,0,0,0,.01,0,.02,0,0,0,.02,0,.03,0,0,0,.01,0,.02,0,0,0,.02,0,.03,0,0,0,.01,0,.02,0,0,0,.02,0,.03,0,0,0,.01,0,.02,0,0,0,.02,0,.03,0,0,0,.01,0,.02,0,0,0,.02,0,.02,0s.02,0,.02,0c0,0,.01,0,.02,0,0,0,.02,0,.02,0,0,0,.02,0,.02,0,0,0,.02,0,.02,0,0,0,.01,0,.02,0,0,0,.02,0,.03,0h.02s.02,0,.03,0c0,0,.02,0,.02,0h.05s.02,0,.03,0h.06c31.48,0,57-25.52,57-57v-.04h0s0-.04,0-.05h0v-.04h0s0-.04,0-.05c0,0,0,0,0,0,0-.01,0-.02,0-.04h0s0-.03,0-.05c0,0,0,0,0,0,0-.01,0-.03,0-.04h0s0-.03,0-.05c0,0,0,0,0,0,0-.03,0-.06,0-.08h0s0-.04,0-.05h0s0-.03,0-.04c0,0,0,0,0,0,0-.01,0-.03,0-.04,0,0,0,0,0,0,0-.01,0-.03,0-.04h0s0-.03,0-.05c0,0,0,0,0,0,0-.01,0-.02,0-.04h0s0-.03,0-.05c0,0,0,0,0,0,0-.01,0-.03,0-.04h0s0-.03,0-.04c0,0,0,0,0,0,0-.01,0-.03,0-.04h0s0-.03,0-.04c0,0,0,0,0,0,0-.01,0-.03,0-.04,0,0,0,0,0,0,0-.01,0-.02,0-.04,0,0,0,0,0,0,0-.01,0-.03,0-.04,0,0,0,0,0,0,0-.01,0-.02,0-.04h0s0-.03,0-.05c0,0,0,0,0,0,0-.01,0-.02,0-.04,0,0,0,0,0,0,0-.01,0-.03,0-.04,0,0,0,0,0,0,0-.01,0-.03,0-.04,0,0,0,0,0,0,0-.01,0-.02,0-.04,0,0,0,0,0-.01,0-.01,0-.03,0-.04,0,0,0,0,0,0,0-.01,0-.02,0-.04,0,0,0,0,0,0,0-.01,0-.03,0-.04,0,0,0,0,0,0,0-.01,0-.02,0-.03,0,0,0,0,0,0,0-.01,0-.03,0-.04,0,0,0,0,0,0,0-.01,0-.02,0-.04,0,0,0,0,0,0,0-.01,0-.03,0-.04,0,0,0,0,0,0,0-.01,0-.03,0-.04,0,0,0,0,0,0,0-.01,0-.03,0-.04,0,0,0,0,0,0,0-.01,0-.03,0-.04,0,0,0,0,0,0,0-.01,0-.03,0-.04,0,0,0,0,0,0,0-.02,0-.03,0-.04,0,0,0,0,0,0,0-.01,0-.03,0-.04,0,0,0,0,0,0,0-.01,0-.03,0-.04,0,0,0,0,0,0,0-.01,0-.03,0-.04,0,0,0,0,0,0,0-.01,0-.03,0-.04,0,0,0,0,0,0,0-.01,0-.03,0-.04,0,0,0,0,0,0,0-.01,0-.03,0-.04,0,0,0,0,0-.01v-.04s0,0,0,0c0-.01,0-.03,0-.04,0,0,0,0,0,0,0-.01,0-.03,0-.04,0,0,0,0,0,0,0-.01,0-.02,0-.04,0,0,0,0,0,0,0-.01,0-.03,0-.04,0,0,0,0,0,0,0-.01,0-.02,0-.04,0,0,0,0,0,0,0-.01,0-.03,0-.04,0,0,0,0,0-.01,0-.01,0-.02,0-.04,0,0,0,0,0,0,0-.01,0-.02,0-.04,0,0,0,0,0,0,0-.01,0-.03,0-.04,0,0,0,0,0,0,0-.01,0-.03,0-.04,0,0,0,0,0,0,0-.01,0-.03,0-.04,0,0,0,0,0,0,0-.01,0-.02,0-.04,0,0,0,0,0,0,0-.01,0-.03,0-.04,0,0,0,0,0,0,0-.01,0-.03,0-.04,0,0,0,0,0,0,0-.01,0-.03,0-.04,0,0,0,0,0-.01,0-.01,0-.03,0-.04h0s0-.03,0-.04c0,0,0,0,0-.01,0-.01,0-.03,0-.04,0,0,0,0,0,0,0-.01,0-.03,0-.04,0,0,0,0,0-.01,0-.01,0-.03,0-.04,0,0,0,0,0,0,0-.01,0-.02,0-.03,0,0,0,0,0,0,0-.01,0-.03,0-.04,0,0,0,0,0,0,0-.01,0-.03,0-.04,0,0,0,0,0,0,0-.01,0-.03,0-.04,0,0,0,0,0,0,0-.01,0-.02,0-.04,0,0,0,0,0,0,0-.01,0-.03,0-.04,0,0,0,0,0,0,0-.01,0-.03,0-.04,0,0,0,0,0,0,0-.01,0-.03,0-.04,0,0,0,0,0,0,0-.01,0-.03,0-.04,0,0,0,0,0,0,0-.01,0-.02,0-.03,0,0,0,0,0,0,0-.01,0-.03,0-.04,0,0,0,0,0,0,0-.01,0-.02,0-.03,0,0,0,0,0,0,0-.01,0-.03,0-.04,0,0,0,0,0,0,0-.01,0-.03,0-.04h0s0-.03,0-.04c0,0,0,0,0,0,0-.01,0-.03,0-.04,0,0,0,0,0,0,0-.01,0-.03,0-.04,0,0,0,0,0,0,0-.01,0-.03,0-.04,0,0,0,0,0,0,0-.01,0-.02,0-.04,0,0,0,0,0,0,0-.01,0-.03,0-.04,0,0,0,0,0,0,0-.01,0-.02,0-.04,0,0,0,0,0,0,0-.01,0-.03,0-.04,0,0,0,0,0,0,0-.01,0-.02,0-.04,0,0,0,0,0,0,0-.01,0-.03,0-.04,0,0,0,0,0,0,0-.01,0-.03,0-.04,0,0,0,0,0,0,0-.01,0-.02,0-.04,0,0,0,0,0-.01,0-.01,0-.03,0-.04,0,0,0,0,0,0,0-.01,0-.02,0-.03,0,0,0,0,0,0,0-.01,0-.03,0-.04,0,0,0,0,0,0,0-.01,0-.02,0-.03,0,0,0,0,0,0,0-.01,0-.03,0-.04,0,0,0,0,0-.01,0-.01,0-.02,0-.04t0,0s0-.03,0-.04c0,0,0,0,0-.01,0-.01,0-.03,0-.04,0,0,0,0,0,0,0-.01,0-.02,0-.04,0,0,0,0,0-.01,0-.01,0-.02,0-.04,0,0,0,0,0,0,0-.01,0-.02,0-.03,0,0,0,0,0-.01,0-.01,0-.03,0-.04,0,0,0,0,0,0,0-.01,0-.02,0-.03,0,0,0,0,0,0,0-.01,0-.03,0-.04,0,0,0,0,0-.01,0-.01,0-.02,0-.03,0,0,0,0,0,0,0-.01,0-.02,0-.04,0,0,0,0,0-.01,0-.01,0-.02,0-.04,0,0,0,0,0,0,0-.01,0-.02,0-.03,0,0,0,0,0-.01,0-.01,0-.03,0-.04,0,0,0,0,0,0,0-.01,0-.02,0-.03,0,0,0,0,0-.01,0-.01,0-.03,0-.04,0,0,0,0,0,0,0-.01,0-.02,0-.03,0,0,0,0,0,0,0-.01,0-.03,0-.04,0,0,0,0,0-.01,0-.01,0-.02,0-.03,0,0,0,0,0,0,0-.01,0-.02,0-.04,0,0,0,0,0-.01,0-.01,0-.02,0-.04h0s0-.03,0-.04c0,0,0,0,0-.01,0-.01,0-.03,0-.04,0,0,0,0,0,0,0-.01,0-.02,0-.03,0,0,0,0,0-.01,0-.01,0-.03,0-.04,0,0,0,0,0,0,0-.01,0-.02,0-.03,0,0,0,0,0,0,0-.01,0-.03,0-.04,0,0,0,0,0-.01,0-.01,0-.02,0-.03,0,0,0,0,0-.01,0-.01,0-.02,0-.04,0,0,0,0,0-.01,0-.01,0-.02,0-.03,0,0,0,0,0,0,0-.01,0-.02,0-.04,0,0,0,0,0-.01,0-.01,0-.03,0-.04,0,0,0,0,0,0,0-.01,0-.02,0-.03,0,0,0,0,0,0,0-.01,0-.03,0-.04,0,0,0,0,0,0,0-.01,0-.02,0-.03,0,0,0,0,0,0,0-.01,0-.03,0-.04,0,0,0,0,0-.01,0-.01,0-.02,0-.03,0,0,0,0,0,0,0-.01,0-.03,0-.04,0,0,0,0,0-.01,0-.01,0-.02,0-.04,0,0,0,0,0,0,0-.01,0-.03,0-.04,0,0,0,0,0-.01,0-.01,0-.03,0-.04,0,0,0,0,0,0,0-.01,0-.02,0-.04,0,0,0,0,0-.01,0-.01,0-.03,0-.04,0,0,0,0,0,0,0-.01,0-.02,0-.03,0,0,0,0,0,0,0-.01,0-.03,0-.04,0,0,0,0,0,0,0-.01,0-.02,0-.03,0,0,0,0,0,0,0-.01,0-.03,0-.04,0,0,0,0,0,0,0-.01,0-.03,0-.04,0,0,0,0,0,0,0-.01,0-.03,0-.04,0,0,0,0,0,0,0-.01,0-.03,0-.04,0,0,0,0,0,0,0-.01,0-.02,0-.04,0,0,0,0,0,0,0-.01,0-.03,0-.04,0,0,0,0,0,0,0-.01,0-.02,0-.03,0,0,0,0,0,0,0-.01,0-.03,0-.04,0,0,0,0,0,0,0-.01,0-.03,0-.04,0,0,0,0,0,0,0-.01,0-.03,0-.04,0,0,0,0,0,0,0-.01,0-.02,0-.04,0,0,0,0,0,0,0-.01,0-.03,0-.04,0,0,0,0,0,0,0-.01,0-.03,0-.04,0,0,0,0,0,0,0-.01,0-.02,0-.04,0,0,0,0,0-.01,0-.01,0-.02,0-.04,0,0,0,0,0,0,0-.01,0-.02,0-.03,0,0,0,0,0,0,0-.01,0-.03,0-.04,0,0,0,0,0,0,0-.01,0-.02,0-.03,0,0,0,0,0,0,0-.01,0-.03,0-.04,0,0,0,0,0,0,0-.01,0-.03,0-.04,0,0,0,0,0,0,0-.01,0-.03,0-.04,0,0,0,0,0,0,0-.01,0-.03,0-.04,0,0,0,0,0,0,0-.01,0-.03,0-.04,0,0,0,0,0,0,0-.01,0-.03,0-.04,0,0,0,0,0,0,0-.01,0-.03,0-.04,0,0,0,0,0,0,0-.01,0-.03,0-.04,0,0,0,0,0,0,0-.01,0-.02,0-.03,0,0,0,0,0,0,0-.01,0-.03,0-.04,0,0,0,0,0,0,0-.01,0-.02,0-.04h0s0-.03,0-.04c0,0,0,0,0-.01,0-.01,0-.02,0-.04,0,0,0,0,0,0,0-.01,0-.02,0-.04,0,0,0,0,0-.01,0-.01,0-.03,0-.04,0,0,0,0,0,0,0-.01,0-.02,0-.03,0,0,0,0,0,0,0-.01,0-.03,0-.04,0,0,0,0,0,0,0-.01,0-.02,0-.03,0,0,0,0,0-.01,0-.01,0-.03,0-.04,0,0,0,0,0,0,0-.01,0-.02,0-.03,0,0,0,0,0,0,0-.01,0-.03,0-.04,0,0,0,0,0,0,0-.01,0-.03,0-.04h0s0-.03,0-.04c0,0,0,0,0,0,0-.01,0-.03,0-.04,0,0,0,0,0,0,0-.01,0-.02,0-.03,0,0,0,0,0-.01,0-.01,0-.03,0-.04,0,0,0,0,0,0,0-.01,0-.02,0-.03,0,0,0,0,0,0,0-.01,0-.03,0-.04,0,0,0,0,0-.01,0-.01,0-.02,0-.03,0,0,0,0,0,0,0-.01,0-.02,0-.04,0,0,0,0,0-.01,0-.01,0-.02,0-.04t0,0s0-.03,0-.04c0,0,0,0,0,0,0-.01,0-.03,0-.04,0,0,0,0,0,0,0-.01,0-.02,0-.03,0,0,0,0,0-.01,0-.01,0-.03,0-.04,0,0,0,0,0,0,0-.01,0-.02,0-.03,0,0,0,0,0-.01,0-.01,0-.03,0-.04,0,0,0,0,0,0,0-.01,0-.02,0-.03,0,0,0,0,0,0,0-.01,0-.02,0-.04,0,0,0,0,0-.01,0-.01,0-.02,0-.03,0,0,0,0,0,0,0-.01,0-.03,0-.04,0,0,0,0,0,0,0-.01,0-.03,0-.04t0,0s0-.02,0-.04c0,0,0,0,0-.01,0-.01,0-.03,0-.04,0,0,0,0,0,0,0-.01,0-.02,0-.03,0,0,0,0,0,0,0-.01,0-.03,0-.04,0,0,0,0,0,0,0-.01,0-.02,0-.03,0,0,0,0,0,0,0-.01,0-.02,0-.04,0,0,0,0,0-.01,0-.01,0-.02,0-.03,0,0,0,0,0,0,0-.01,0-.03,0-.04,0,0,0,0,0,0,0-.01,0-.03,0-.04,0,0,0,0,0,0,0-.01,0-.02,0-.03,0,0,0,0,0-.01,0-.01,0-.02,0-.04,0,0,0,0,0,0,0-.01,0-.02,0-.03,0,0,0,0,0-.01,0-.01,0-.03,0-.04,0,0,0,0,0,0,0-.01,0-.02,0-.03,0,0,0,0,0,0,0-.01,0-.02,0-.04,0,0,0,0,0-.01,0-.01,0-.02,0-.03,0,0,0,0,0,0,0-.01,0-.02,0-.04,0,0,0,0,0-.01,0-.01,0-.02,0-.03,0,0,0,0,0,0,0-.01,0-.02,0-.03,0,0,0,0,0-.01,0-.01,0-.02,0-.04,0,0,0,0,0,0,0-.01,0-.02,0-.03,0,0,0,0,0,0,0-.01,0-.03,0-.04,0,0,0,0,0-.01,0-.01,0-.02,0-.03,0,0,0,0,0,0,0-.01,0-.02,0-.04,0,0,0,0,0-.01,0-.01,0-.02,0-.03,0,0,0,0,0,0,0-.01,0-.02,0-.04,0,0,0,0,0-.01,0-.01,0-.02,0-.04,0,0,0,0,0,0,0-.01,0-.02,0-.04,0,0,0,0,0-.01,0-.01,0-.02,0-.04,0,0,0,0,0,0,0-.01,0-.02,0-.03,0,0,0,0,0-.01,0-.01,0-.02,0-.04,0,0,0,0,0,0,0-.01,0-.02,0-.03,0,0,0,0,0,0,0-.01,0-.03,0-.04,0,0,0,0,0-.01,0-.01,0-.02,0-.03,0,0,0,0,0,0,0-.01,0-.02,0-.04,0,0,0,0,0-.01,0-.01,0-.02,0-.04,0,0,0,0,0,0,0-.01,0-.02,0-.04,0,0,0,0,0-.01,0-.01,0-.02,0-.04,0,0,0,0,0,0,0-.01,0-.02,0-.03,0,0,0,0,0-.01,0-.01,0-.03,0-.04,0,0,0,0,0,0,0-.01,0-.02,0-.03,0,0,0,0,0,0,0-.01,0-.02,0-.04,0,0,0,0,0-.01,0-.01,0-.02,0-.03,0,0,0,0,0,0,0-.01,0-.02,0-.04,0,0,0,0,0-.01,0-.01,0-.02,0-.03,0,0,0,0,0,0,0-.01,0-.02,0-.03,0,0,0,0,0-.01,0-.01,0-.02,0-.04,0,0,0,0,0,0,0-.01,0-.02,0-.03,0,0,0,0,0-.01,0-.01,0-.02,0-.04,0,0,0,0,0-.01,0,0,0-.02,0-.03,0,0,0,0,0-.01,0-.01,0-.02,0-.03,0,0,0,0,0-.01,0-.01,0-.02,0-.03,0,0,0,0,0-.01,0-.01,0-.02,0-.04,0,0,0,0,0-.01,0-.01,0-.02,0-.03,0,0,0,0,0-.01,0-.01,0-.02,0-.03,0,0,0,0,0-.01,0-.01,0-.02,0-.04,0,0,0,0,0,0,0-.01,0-.02,0-.03,0,0,0,0,0-.01,0-.01,0-.02,0-.04,0,0,0,0,0-.01,0-.01,0-.02,0-.03,0,0,0,0,0-.01,0-.01,0-.03,0-.04,0,0,0,0,0-.01,0-.01,0-.02,0-.03,0,0,0,0,0,0,0-.01,0-.02,0-.04,0,0,0,0,0-.01,0-.01,0-.02,0-.03,0,0,0,0,0,0,0-.01,0-.02,0-.04,0,0,0,0,0-.01,0-.01,0-.02,0-.03,0,0,0,0,0-.01,0-.01,0-.02,0-.03,0,0,0,0,0-.01,0-.01,0-.02,0-.04,0,0,0,0,0,0,0-.01,0-.02,0-.03,0,0,0,0,0-.01,0-.01,0-.02,0-.04,0,0,0,0,0-.01,0-.01,0-.02,0-.03,0,0,0,0,0-.01,0-.01,0-.02,0-.04,0,0,0,0,0-.01,0-.01,0-.02,0-.03,0,0,0,0,0,0,0-.01,0-.02,0-.04,0,0,0,0,0-.01,0-.01,0-.02,0-.03,0,0,0,0,0-.01,0-.01,0-.02,0-.03,0,0,0,0,0-.01,0-.01,0-.02,0-.03,0,0,0,0,0-.01,0-.01,0-.02,0-.03,0,0,0,0,0-.01,0-.01,0-.02,0-.03,0,0,0,0,0-.01,0-.01,0-.02,0-.03,0,0,0,0,0-.01,0-.01,0-.02,0-.04,0,0,0,0,0-.01,0-.01,0-.02,0-.03,0,0,0,0,0,0,0-.01,0-.02,0-.04,0,0,0,0,0-.01,0-.01,0-.02,0-.03,0,0,0,0,0,0,0-.01,0-.02,0-.03,0,0,0,0,0-.01,0-.01,0-.02,0-.04,0,0,0,0,0,0,0-.01,0-.02,0-.03,0,0,0,0,0-.01,0-.01,0-.02,0-.04,0,0,0,0,0,0,0-.01,0-.02,0-.03,0,0,0,0,0,0,0-.01,0-.02,0-.04,0,0,0,0,0-.01,0-.01,0-.02,0-.03,0,0,0,0,0,0,0-.01,0-.02,0-.04,0,0,0,0,0-.01,0-.01,0-.02,0-.03,0,0,0,0,0,0,0-.01,0-.02,0-.03,0,0,0,0,0-.01,0-.01,0-.02,0-.04,0,0,0,0,0,0,0-.01,0-.02,0-.03,0,0,0,0,0-.01,0-.01,0-.02,0-.04,0,0,0,0,0-.01,0-.01,0-.02,0-.03,0,0,0,0,0-.01,0-.01,0-.02,0-.03,0,0,0,0,0-.01,0-.01,0-.02,0-.03,0,0,0,0,0,0,0-.01,0-.02,0-.04,0,0,0,0,0-.01,0-.01,0-.02,0-.03,0,0,0,0,0,0,0-.01,0-.02,0-.03,0,0,0,0,0-.01,0-.01,0-.02,0-.04,0,0,0,0,0,0,0-.01,0-.02,0-.03,0,0,0,0,0-.01,0-.01,0-.02,0-.03,0,0,0,0,0-.01,0-.01,0-.02,0-.03,0,0,0,0,0-.01,0-.01,0-.02,0-.03,0,0,0,0,0-.01,0-.01,0-.02,0-.03,0,0,0,0,0,0,0-.01,0-.02,0-.03,0,0,0,0,0-.01,0-.01,0-.02,0-.03,0,0,0,0,0-.01,0-.01,0-.02,0-.03,0,0,0,0,0-.01,0-.01,0-.02,0-.03,0,0,0,0,0-.01,0-.01,0-.02,0-.03,0,0,0,0,0-.01,0-.01,0-.02,0-.03,0,0,0,0,0-.01,0-.01,0-.02,0-.03,0,0,0,0,0-.01,0-.01,0-.02,0-.03,0,0,0,0,0-.01,0-.01,0-.02,0-.03,0,0,0,0,0,0,0-.01,0-.02,0-.03,0,0,0,0,0-.01,0-.01,0-.02,0-.03,0,0,0,0,0,0,0-.01,0-.02,0-.04,0,0,0,0,0-.01,0-.01,0-.02,0-.04,0,0,0,0,0,0,0-.01,0-.02,0-.03,0,0,0,0,0-.01,0-.01,0-.02,0-.04,0,0,0,0,0,0,0-.01,0-.02,0-.03,0,0,0,0,0,0,0-.01,0-.03,0-.04,0,0,0,0,0,0,0-.01,0-.02,0-.03,0,0,0,0,0,0,0-.01,0-.02,0-.04,0,0,0,0,0-.01,0-.01,0-.02,0-.03,0,0,0,0,0,0,0-.01,0-.02,0-.04,0,0,0,0,0-.01,0-.01,0-.02,0-.03,0,0,0,0,0-.01,0-.01,0-.02,0-.03,0,0,0,0,0-.01,0-.01,0-.02,0-.03,0,0,0,0,0,0,0-.01,0-.02,0-.03,0,0,0,0,0-.01,0-.01,0-.02,0-.04,0,0,0,0,0,0,0-.01,0-.02,0-.03,0,0,0,0,0,0,0-.01,0-.02,0-.03,0,0,0,0,0-.01,0-.01,0-.02,0-.03,0,0,0,0,0,0,0-.01,0-.02,0-.03,0,0,0,0,0-.01,0-.01,0-.02,0-.03,0,0,0,0,0,0,0-.01,0-.02,0-.03,0,0,0,0,0-.01,0-.01,0-.02,0-.03,0,0,0,0,0,0,0-.01,0-.02,0-.03,0,0,0,0,0-.01,0-.01,0-.02,0-.03,0,0,0,0,0,0,0-.01,0-.02,0-.03,0,0,0,0,0,0,0-.01,0-.02,0-.03,0,0,0,0,0-.01,0,0,0-.02,0-.03,0,0,0,0,0-.01,0-.01,0-.02,0-.03,0,0,0,0,0-.01,0-.01,0-.02,0-.03,0,0,0,0,0,0,0-.01,0-.02,0-.03,0,0,0,0,0-.01,0-.01,0-.02,0-.03,0,0,0,0,0-.01,0-.01,0-.02,0-.03,0,0,0,0,0-.01,0-.01,0-.02,0-.03,0,0,0,0,0-.01,0-.01,0-.02,0-.03,0,0,0,0,0-.01,0-.01,0-.02,0-.03,0,0,0,0,0-.01,0-.01,0-.02,0-.03,0,0,0,0,0,0,0-.01,0-.02,0-.03,0,0,0,0,0-.01,0-.01,0-.02,0-.03,0,0,0,0,0-.01,0-.01,0-.02,0-.03,0,0,0,0,0-.01,0-.01,0-.02,0-.03,0,0,0,0,0,0,0-.01,0-.02,0-.03,0,0,0,0,0-.01,0-.01,0-.02,0-.03,0,0,0,0,0-.01,0,0,0-.02,0-.02,0,0,0,0,0-.01,0-.01,0-.02,0-.03,0,0,0,0,0-.01,0-.01,0-.02,0-.03,0,0,0,0,0-.01,0-.01,0-.02-.01-.03,0,0,0,0,0-.01,0-.01,0-.02,0-.03,0,0,0,0,0-.01,0-.01,0-.02,0-.03,0,0,0,0,0-.01,0-.01,0-.02,0-.03,0,0,0-.01,0-.02,0,0,0-.02,0-.02,0,0,0-.01,0-.01,0-.01,0-.02,0-.03,0,0,0,0,0-.01,0,0,0-.02,0-.02,0,0,0-.01,0-.01,0-.01,0-.02,0-.03,0,0,0-.01,0-.01,0,0,0-.02,0-.02,0,0,0,0,0-.01,0-.01,0-.02,0-.03,0,0,0,0,0-.02,0,0,0-.02,0-.03,0,0,0,0,0-.01,0-.01,0-.02,0-.03,0,0,0-.01,0-.02,0,0,0-.02,0-.03,0,0,0-.01,0-.02,0,0,0-.01,0-.02,0,0,0-.01,0-.02,0-.01,0-.02,0-.03,0,0,0,0,0-.01,0,0,0-.01,0-.02,0,0,0,0,0-.01,0-.01,0-.02,0-.03,0,0,0-.01,0-.01,0,0,0-.01,0-.02,0,0,0-.01,0-.02,0-.01,0-.02,0-.03,0,0,0,0,0-.01,0,0,0-.02,0-.02,0,0,0-.01,0-.02,0-.01,0-.02,0-.03,0,0,0,0,0-.01,0,0,0-.02,0-.03,0,0,0-.01,0-.02,0,0,0-.02,0-.02,0,0,0,0,0-.02,0-.01,0-.02,0-.03,0,0,0,0,0-.01,0,0,0-.01,0-.02,0,0,0-.01,0-.01,0-.01,0-.02,0-.03,0,0,0,0,0-.02,0,0,0-.02,0-.02,0,0,0,0,0-.01,0-.01,0-.02,0-.03,0,0,0-.01,0-.02,0,0,0-.02,0-.02,0,0,0-.01,0-.02,0,0,0-.02,0-.03,0,0,0-.01,0-.02,0,0,0-.02,0-.03,0,0,0,0,0-.02,0,0,0-.02,0-.03,0,0,0,0,0-.01,0-.01,0-.02-.01-.03,0,0,0,0,0-.01,0,0,0-.02,0-.02,0,0,0,0,0-.01,0-.01,0-.02-.01-.03,0,0,0,0,0-.01,0,0,0-.02,0-.02,0,0,0,0,0-.01,0-.01,0-.02-.01-.03,0,0,0,0,0-.02,0,0,0-.01,0-.02,0,0,0-.01,0-.02,0,0,0-.02,0-.03,0,0,0,0,0-.01,0,0,0-.02,0-.02,0,0,0-.01,0-.02,0,0,0-.02,0-.02,0,0,0,0,0-.01,0-.01,0-.02-.01-.03,0,0,0,0,0-.01,0,0,0-.02,0-.02,0,0,0,0,0-.01,0-.01,0-.02-.01-.03,0,0,0-.01,0-.02,0,0,0-.01,0-.02,0,0,0-.01,0-.02,0-.01,0-.02,0-.03,0,0,0-.01,0-.02,0,0,0-.01,0-.02,0,0,0-.01,0-.02,0,0,0-.02,0-.03,0,0,0-.01,0-.02,0,0,0-.02,0-.02,0,0,0-.01,0-.02,0,0,0-.02,0-.02,0,0,0-.01,0-.02,0-.01,0-.02,0-.03,0,0,0-.01,0-.02,0,0,0-.01,0-.02,0,0,0-.01,0-.02,0-.01,0-.02-.01-.03,0,0,0-.01,0-.02,0,0,0-.01,0-.02,0,0,0-.01,0-.02,0-.01,0-.02-.01-.03,0,0,0-.01,0-.02,0,0,0-.01,0-.02,0,0,0-.01,0-.02,0,0,0-.02,0-.02,0,0,0-.01,0-.02,0,0,0-.01,0-.02,0,0,0-.02,0-.03,0,0,0-.01,0-.02,0,0,0-.01,0-.02,0,0,0-.01,0-.02,0,0,0-.02,0-.02,0,0,0-.01,0-.02,0,0,0-.01,0-.02,0-.01,0-.02,0-.03,0,0,0-.01,0-.02,0,0,0-.01,0-.02,0,0,0-.01,0-.02,0-.01,0-.02-.01-.03,0,0,0-.01,0-.02,0,0,0-.01,0-.02,0,0,0-.02,0-.03,0,0,0-.01,0-.02,0,0,0-.01,0-.02,0,0,0-.01,0-.02,0,0,0-.02,0-.03,0,0,0-.01,0-.02,0,0,0-.01,0-.02,0,0,0-.01,0-.02,0,0,0-.02,0-.03,0,0,0-.01,0-.02,0,0,0-.01,0-.02,0-.01,0-.02,0-.03,0,0,0-.01,0-.02,0,0,0-.01,0-.02,0,0,0-.01,0-.02,0-.01,0-.02-.01-.03,0,0,0-.01,0-.02,0,0,0-.01,0-.02,0,0,0-.01,0-.02,0,0,0-.02,0-.02,0,0,0-.01,0-.02,0,0,0-.01,0-.02,0,0,0-.02-.01-.03,0,0,0-.01,0-.02,0,0,0-.01,0-.02,0,0,0-.01,0-.02,0,0,0-.02-.01-.03,0,0,0,0,0-.01,0,0,0-.01,0-.02,0,0,0-.01,0-.02,0,0,0-.02,0-.02,0,0,0-.01,0-.02,0,0,0-.01,0-.02,0-.01,0-.02-.01-.03,0,0,0-.01,0-.02,0,0,0-.01,0-.02,0,0,0,0,0-.01,0-.01,0-.02-.01-.03,0,0,0-.01,0-.02,0,0,0-.01,0-.02,0,0,0-.02,0-.02,0,0,0-.01,0-.02,0,0,0-.01,0-.02,0,0,0-.01,0-.02,0,0,0-.02,0-.02,0,0,0-.01,0-.02,0,0,0-.01,0-.02,0,0,0-.02,0-.02,0,0,0-.02,0-.02,0,0,0-.01,0-.02,0,0,0-.01,0-.02,0-.01,0-.02-.01-.03,0,0,0-.01,0-.02,0,0,0-.01,0-.02,0,0,0-.02,0-.02,0,0,0-.02,0-.02,0,0,0-.01,0-.02,0,0,0-.01,0-.02,0,0,0-.02-.01-.03,0,0,0-.01,0-.02,0,0,0-.01,0-.02,0,0,0-.01,0-.02,0,0,0-.02-.01-.03,0,0,0-.01,0-.02,0,0,0-.01,0-.02,0,0,0-.01,0-.02,0,0,0-.02-.01-.03,0,0,0-.01,0-.02,0,0,0-.01,0-.02,0-.01,0-.02-.01-.03,0,0,0-.01,0-.02,0,0,0,0,0-.02,0,0,0-.01,0-.02,0-.01,0-.02-.01-.03,0,0,0-.01,0-.02,0,0,0-.01,0-.02,0,0,0-.02,0-.02,0,0,0-.01,0-.02,0,0,0-.01,0-.02,0,0,0-.01,0-.02,0,0,0-.02-.01-.03,0,0,0-.01,0-.02,0,0,0-.01,0-.02,0,0,0-.01,0-.02,0,0,0-.02-.01-.03,0,0,0-.01,0-.02,0,0,0-.01,0-.02,0-.01,0-.02-.01-.03,0,0,0-.01,0-.02,0,0,0-.01,0-.02,0,0,0-.02,0-.02,0,0,0-.01,0-.02,0,0,0-.01,0-.02,0,0,0-.01,0-.02,0,0,0-.02,0-.02,0,0,0-.01,0-.02,0,0,0-.01,0-.02,0,0,0-.01,0-.02,0,0,0-.01,0-.02,0,0,0-.01,0-.02,0,0,0-.01,0-.02,0,0,0-.02,0-.02,0,0,0-.01,0-.02,0,0,0-.01,0-.02,0,0,0-.01,0-.02,0-.01,0-.02-.01-.03,0,0,0-.01,0-.02,0,0,0,0,0-.02,0,0,0-.01,0-.02,0-.01,0-.02-.01-.03,0,0,0-.01,0-.02,0,0,0-.01,0-.02,0,0,0-.02,0-.02,0,0,0-.02,0-.02,0,0,0-.01,0-.02,0,0,0-.01,0-.02,0,0,0-.02,0-.02,0,0,0-.01,0-.02,0,0,0-.01,0-.02,0,0,0-.01,0-.02,0,0,0-.02-.01-.03,0,0,0,0,0-.01,0,0,0-.01,0-.02,0,0,0-.01,0-.01,0-.01,0-.02-.01-.03,0,0,0,0,0-.01,0,0,0-.01,0-.02,0-.01,0-.02-.01-.03,0,0,0-.01,0-.02,0,0,0-.01,0-.02,0,0,0-.02-.01-.03,0,0,0-.01,0-.02,0,0,0-.01,0-.02,0,0,0,0,0-.01,0-.01,0-.02-.01-.03,0,0,0,0,0-.01,0,0,0-.01,0-.02,0,0,0,0,0-.01,0-.01,0-.02-.01-.03,0,0,0,0,0-.01,0,0,0-.01,0-.02,0,0,0-.01,0-.01,0-.01,0-.02-.01-.03,0,0,0,0,0-.01,0-.02-.02-.05-.03-.07,0,0,0,0,0-.01,0-.01-.01-.02-.02-.04,0,0,0,0,0,0,0,0,0-.01,0-.02,0,0,0,0,0,0,0-.01-.01-.03-.02-.04,0,0,0,0,0,0,0,0,0-.02,0-.02,0,0,0,0,0,0,0-.01-.01-.03-.02-.04,0,0,0,0,0-.01,0,0,0-.01,0-.02,0,0,0,0,0-.01,0-.01,0-.02-.01-.03,0,0,0,0,0-.01,0-.02-.02-.04-.03-.07,0,0,0,0,0-.01,0-.01-.01-.02-.02-.04,0,0,0,0,0-.01,0,0,0-.01,0-.02,0,0,0,0,0-.01,0-.01-.01-.02-.02-.04,0,0,0,0,0-.01,0,0,0-.01,0-.02,0,0,0,0,0-.01,0-.01-.01-.02-.01-.03,0,0,0,0,0-.01,0,0,0-.01,0-.02,0,0,0,0,0,0,0-.01-.01-.02-.02-.04,0,0,0,0,0-.01,0,0,0-.01,0-.02,0,0,0,0,0-.01,0-.01,0-.02-.01-.03,0,0,0,0,0-.01,0-.01-.01-.03-.02-.04,0,0,0,0,0,0,0,0,0-.01,0-.02,0,0,0,0,0-.01,0-.01-.01-.02-.02-.04,0,0,0,0,0,0,0,0,0-.01,0-.02,0,0,0,0,0-.01,0-.01-.01-.02-.02-.04,0,0,0,0,0,0,0,0,0-.01,0-.02,0,0,0,0,0,0,0-.01-.01-.02-.02-.04,0,0,0,0,0-.01,0,0,0-.01,0-.02,0,0,0,0,0,0,0-.01-.01-.03-.02-.04,0,0,0,0,0-.01,0-.01-.01-.02-.02-.04,0,0,0,0,0,0,0,0,0-.01,0-.02,0,0,0,0,0-.01,0-.01-.01-.03-.02-.04,0,0,0,0,0,0,0,0,0-.01,0-.02,0,0,0,0,0,0,0-.01-.01-.02-.02-.04,0,0,0,0,0-.01,0,0,0-.01,0-.02,0,0,0,0,0,0,0-.01-.01-.03-.02-.04,0,0,0,0,0,0-.01-.02-.02-.05-.03-.07,0,0,0,0,0,0,0-.01-.01-.03-.02-.04,0,0,0,0,0,0,0,0,0-.01,0-.02,0,0,0,0,0-.01,0-.01-.01-.03-.02-.04,0,0,0,0,0,0,0,0,0-.01,0-.02,0,0,0,0,0-.01,0-.01-.01-.02-.02-.04,0,0,0,0,0,0,0,0,0-.02-.01-.02,0,0,0,0,0,0,0-.01-.01-.03-.02-.04,0,0,0,0,0,0-.01-.02-.02-.05-.03-.07,0,0,0,0,0,0-.01-.02-.02-.04-.03-.07,0,0,0,0,0-.01,0-.01-.01-.02-.02-.04,0,0,0,0,0,0,0,0,0-.01,0-.02,0,0,0,0,0-.01,0-.01-.01-.02-.02-.04,0,0,0,0,0,0,0,0,0-.01-.01-.02,0,0,0,0,0,0,0-.01-.01-.03-.02-.04,0,0,0,0,0,0,0,0,0-.01,0-.02,0,0,0,0,0,0,0-.01-.01-.02-.02-.04,0,0,0,0,0-.01-.01-.02-.02-.04-.03-.07,0,0,0,0,0,0,0-.01-.01-.03-.02-.04,0,0,0,0,0,0,0,0,0-.01,0-.02,0,0,0,0,0-.01,0-.01-.01-.02-.02-.04,0,0,0,0,0,0,0,0,0-.01-.01-.02,0,0,0,0,0,0,0-.01-.01-.03-.02-.04,0,0,0,0,0,0,0,0,0-.02-.01-.02h0s-.01-.03-.02-.05c0,0,0,0,0,0-.01-.02-.02-.04-.03-.07,0,0,0,0,0,0,0-.01-.01-.03-.02-.04,0,0,0,0,0,0,0,0,0-.01-.01-.02,0,0,0,0,0,0,0-.01-.01-.03-.02-.04,0,0,0,0,0,0,0,0,0-.02-.01-.02,0,0,0,0,0,0,0-.01-.01-.03-.02-.04,0,0,0,0,0,0,0,0,0-.01-.01-.02,0,0,0,0,0,0,0-.01-.01-.03-.02-.04,0,0,0,0,0,0-.01-.02-.02-.04-.03-.07,0,0,0,0,0,0-.01-.02-.02-.04-.03-.07,0,0,0,0,0,0,0-.01-.01-.03-.02-.04,0,0,0,0,0,0,0,0,0-.01-.01-.02,0,0,0,0,0,0,0-.01-.01-.03-.02-.04,0,0,0,0,0,0,0,0,0-.01-.01-.02,0,0,0,0,0,0,0-.01-.01-.03-.02-.04,0,0,0,0,0,0-.01-.02-.02-.04-.03-.07h0s-.02-.05-.03-.08c0,0,0,0,0,0,0-.01-.01-.03-.02-.04,0,0,0,0,0,0,0,0,0-.01-.01-.02,0,0,0,0,0,0,0-.01-.01-.03-.02-.04,0,0,0,0,0,0,0,0,0-.01-.01-.02,0,0,0,0,0-.01,0-.01-.01-.02-.02-.03,0,0,0,0,0,0-.01-.02-.02-.04-.03-.07,0,0,0,0,0,0-.01-.02-.02-.04-.03-.07,0,0,0,0,0,0,0-.01-.01-.03-.02-.04,0,0,0,0,0,0,0,0,0-.02-.01-.02,0,0,0,0,0,0,0-.01-.01-.03-.02-.04,0,0,0,0,0,0,0,0,0-.01-.01-.02,0,0,0,0,0,0,0-.01-.01-.03-.02-.04,0,0,0,0,0,0-.01-.02-.02-.05-.04-.07h0s-.02-.05-.04-.07c0,0,0,0,0,0,0-.01-.02-.03-.02-.04,0,0,0,0,0,0,0,0,0-.02-.01-.02,0,0,0,0,0,0,0-.01-.01-.03-.02-.04,0,0,0,0,0,0,0,0,0-.01-.01-.02,0,0,0,0,0,0,0-.01-.01-.03-.02-.04,0,0,0,0,0,0,0,0,0-.01-.01-.02,0,0,0,0,0,0,0-.01-.01-.02-.02-.04,0,0,0,0,0-.01-.01-.02-.02-.04-.03-.06,0,0,0,0,0,0,0-.01-.01-.03-.02-.04,0,0,0,0,0,0,0,0,0-.01-.01-.02,0,0,0,0,0,0,0-.01-.01-.03-.02-.04,0,0,0,0,0,0,0,0,0-.01-.01-.02,0,0,0,0,0,0,0-.01-.01-.03-.02-.04,0,0,0,0,0,0,0,0,0-.01-.01-.02h0s-.02-.03-.02-.04c0,0,0,0,0,0-.01-.02-.02-.04-.03-.07,0,0,0,0,0,0,0-.01-.01-.03-.02-.04,0,0,0,0,0,0,0,0,0-.01-.01-.02,0,0,0,0,0,0,0-.01-.01-.03-.02-.04,0,0,0,0,0,0,0,0,0-.01-.01-.02,0,0,0,0,0,0,0-.01-.01-.03-.02-.04,0,0,0,0,0,0-.01-.02-.02-.05-.04-.07,0,0,0,0,0,0-.01-.02-.02-.05-.04-.07,0,0,0,0,0,0-.01-.02-.02-.05-.04-.07,0,0,0,0,0,0,0-.01-.02-.03-.02-.04,0,0,0,0,0,0,0,0,0-.01-.01-.02,0,0,0,0,0,0,0-.01-.01-.03-.02-.04,0,0,0,0,0,0-.01-.02-.02-.05-.04-.07,0,0,0,0,0,0-.01-.02-.03-.05-.04-.07,0,0,0,0,0,0-.01-.02-.03-.05-.04-.07,0,0,0,0,0,0,0-.01-.02-.03-.02-.04,0,0,0,0,0,0,0,0,0-.01-.01-.02,0,0,0,0,0,0,0-.01-.01-.03-.02-.04,0,0,0,0,0,0,0,0,0-.02-.01-.02,0,0,0,0,0,0,0-.01-.02-.03-.02-.04,0,0,0,0,0,0-.01-.02-.03-.05-.04-.07,0,0,0,0,0,0-.01-.02-.02-.04-.04-.07,0,0,0,0,0,0,0-.01-.01-.03-.02-.04,0,0,0,0,0,0,0,0,0-.01-.01-.02,0,0,0,0,0,0,0-.01-.01-.02-.02-.04,0,0,0,0,0,0,0,0,0-.01-.01-.02,0,0,0,0,0,0,0-.01-.01-.03-.02-.04,0,0,0,0,0,0-.01-.02-.02-.04-.04-.07,0,0,0,0,0,0-.01-.02-.02-.04-.04-.07,0,0,0,0,0,0-.01-.02-.03-.05-.04-.07,0,0,0,0,0,0,0-.01-.02-.03-.02-.04h0s-.03-.05-.04-.07c0,0,0,0,0,0-.01-.02-.03-.05-.04-.07,0,0,0,0,0,0-.01-.02-.03-.04-.04-.07t0,0s-.03-.05-.04-.07c0,0,0,0,0,0,0-.01-.02-.03-.02-.04,0,0,0,0,0,0,0,0,0-.01-.01-.02,0,0,0,0,0,0,0-.01-.02-.03-.03-.04,0,0,0,0,0,0-.01-.02-.03-.05-.04-.07,0,0,0,0,0,0-.01-.02-.03-.05-.04-.07,0,0,0,0,0,0-.01-.02-.03-.04-.04-.07,0,0,0,0,0,0,0-.01-.02-.03-.03-.04h0s0-.02-.01-.02c0,0,0,0,0,0,0-.01-.02-.03-.03-.04,0,0,0,0,0,0-.01-.02-.03-.04-.04-.07,0,0,0,0,0,0-.01-.02-.03-.05-.04-.07,0,0,0,0,0,0-.01-.02-.03-.04-.04-.07,0,0,0,0,0,0,0-.01-.02-.03-.03-.04,0,0,0,0,0,0,0,0,0-.01-.01-.02h0s-.02-.03-.03-.05h0s-.03-.05-.04-.07c0,0,0,0,0,0-.01-.02-.03-.05-.04-.07h0s-.03-.05-.04-.07c0,0,0,0,0,0-.02-.04-.05-.08-.07-.12h0s-.03-.05-.04-.07c0,0,0,0,0,0-.01-.02-.03-.05-.04-.07h0s-.03-.05-.04-.07c0,0,0,0,0,0-.04-.06-.08-.12-.11-.18,0,0,0,0,0,0-.01-.02-.03-.04-.04-.07h0s-.03-.05-.04-.07c0,0,0,0,0,0-.01-.02-.03-.05-.04-.07h0s-.02-.03-.03-.05h0s-.03-.05-.04-.07c0,0,0,0,0,0-.01-.02-.03-.05-.04-.07h0s-.03-.05-.04-.07c0,0,0,0,0,0-.04-.06-.08-.12-.12-.18h0s-.03-.05-.04-.07c0,0,0,0,0,0-.01-.02-.03-.04-.04-.07,0,0,0,0,0,0-.01-.02-.03-.04-.04-.07h0s-.05-.08-.07-.11c0,0,0,0,0,0-.03-.05-.06-.09-.09-.14h0c-.21-.32-.43-.64-.64-.96h0s-.06-.09-.09-.14h0s-.02-.03-.03-.04h0s-.03-.05-.05-.07c0,0,0,0,0,0-.02-.02-.03-.04-.05-.07h0s-.03-.05-.05-.07c0,0,0,0,0,0-.02-.02-.03-.04-.05-.07h0c-.04-.06-.08-.12-.13-.18h0s-.03-.05-.05-.07h0c-.04-.06-.08-.12-.13-.18,0,0,0,0,0,0-.02-.02-.03-.04-.05-.06,0,0,0,0,0,0-.02-.02-.03-.04-.05-.06,0,0,0,0,0,0-.02-.02-.03-.04-.05-.06,0,0,0,0,0,0-.03-.04-.05-.07-.08-.11h0s-.03-.04-.05-.06c0,0,0,0,0,0-.02-.02-.03-.04-.05-.06h0s-.03-.04-.05-.07c0,0,0,0,0,0,0-.01-.02-.03-.03-.04,0,0,0,0,0,0,0,0-.01-.01-.02-.02h0s-.02-.03-.03-.04h0s-.03-.04-.05-.07c0,0,0,0,0,0-.01-.02-.03-.04-.05-.06,0,0,0,0,0,0-.01-.02-.03-.04-.05-.06,0,0,0,0,0,0-.02-.02-.03-.04-.05-.06h0s-.02-.03-.03-.04h0s-.03-.04-.05-.07c0,0,0,0,0,0-.02-.02-.03-.04-.05-.06h0s-.03-.04-.05-.07h0s-.03-.04-.05-.07h0s-.02-.03-.03-.04h0s-.03-.04-.05-.07c0,0,0,0,0,0-.02-.02-.03-.04-.05-.06h0s-.03-.05-.05-.07c0,0,0,0,0,0-.02-.02-.03-.04-.05-.06h0s-.05-.07-.08-.11c0,0,0,0,0,0-.02-.02-.03-.04-.05-.06h0s-.03-.05-.05-.07c0,0,0,0,0,0-.01-.01-.02-.03-.03-.04h0s-.01-.01-.02-.02h0s-.03-.05-.05-.07c0,0,0,0,0,0-.01-.01-.02-.03-.03-.04,0,0,0,0,0,0-.02-.02-.03-.04-.05-.06,0,0,0,0,0,0-.02-.02-.03-.04-.05-.06,0,0,0,0,0,0-.02-.02-.03-.04-.05-.06h0s-.02-.03-.03-.04h0s-.01-.01-.02-.02h0s-.02-.03-.03-.04c0,0,0,0,0,0-.02-.02-.03-.04-.05-.06,0,0,0,0,0,0-.02-.02-.03-.04-.05-.06,0,0,0,0,0,0-.02-.02-.03-.04-.05-.06h0s-.03-.04-.05-.06c0,0,0,0,0,0-.01-.01-.02-.03-.03-.04h0s-.03-.04-.05-.06c0,0,0,0,0,0-.02-.02-.03-.04-.05-.06,0,0,0,0,0,0-.02-.02-.03-.04-.05-.06t0,0s-.03-.04-.05-.06h0s-.02-.03-.03-.04c0,0,0,0,0,0-.02-.02-.03-.04-.05-.06,0,0,0,0,0,0-.02-.02-.03-.04-.05-.06h0s-.03-.04-.05-.06c0,0,0,0,0,0-.05-.06-.09-.11-.14-.17,0,0,0,0,0,0-.02-.02-.03-.04-.05-.06,0,0,0,0,0,0-.02-.02-.03-.04-.05-.06,0,0,0,0,0,0-.02-.02-.03-.04-.05-.06h0s-.02-.03-.03-.04h0s-.03-.04-.05-.06c0,0,0,0,0,0,0,0-.01-.01-.02-.02h0s-.02-.03-.03-.04c0,0,0,0,0,0-.02-.02-.03-.04-.05-.06,0,0,0,0,0,0-.02-.02-.03-.04-.05-.06,0,0,0,0,0,0-.01-.01-.02-.02-.03-.04h0s-.01-.02-.02-.02c0,0,0,0,0,0-.01-.01-.02-.02-.03-.04,0,0,0,0,0,0-.02-.02-.03-.04-.05-.06,0,0,0,0,0,0-.02-.02-.03-.04-.05-.06,0,0,0,0,0,0-.02-.02-.03-.04-.05-.06,0,0,0,0,0,0-.01-.01-.02-.02-.03-.04,0,0,0,0,0,0-.02-.02-.03-.04-.05-.06,0,0,0,0,0,0-.02-.02-.03-.04-.05-.06,0,0,0,0,0,0-.02-.02-.03-.04-.05-.06,0,0,0,0,0,0-.02-.02-.03-.04-.05-.06,0,0,0,0,0,0-.01-.01-.02-.02-.03-.04,0,0,0,0,0,0,0,0-.01-.01-.02-.02,0,0,0,0,0,0,0-.01-.02-.02-.03-.03,0,0,0,0,0,0,0,0-.01-.01-.02-.02,0,0,0,0,0,0,0-.01-.02-.02-.03-.03,0,0,0,0,0,0-.02-.02-.03-.04-.05-.06,0,0,0,0,0,0,0,0-.02-.02-.03-.03,0,0,0,0,0,0,0,0,0-.01-.01-.02,0,0,0,0,0,0,0-.01-.02-.02-.03-.03,0,0,0,0,0,0,0,0,0-.01-.02-.02,0,0,0,0,0,0,0-.01-.02-.02-.03-.03,0,0,0,0,0,0,0,0-.01-.01-.02-.02,0,0,0,0,0,0,0-.01-.02-.02-.03-.03,0,0,0,0,0,0-.02-.02-.03-.04-.05-.05,0,0,0,0,0,0,0,0-.02-.02-.02-.03,0,0,0,0,0-.01,0,0,0-.01-.01-.02,0,0,0,0-.01-.01,0,0-.02-.02-.02-.03,0,0,0,0,0,0,0,0,0-.01-.01-.02,0,0,0,0,0-.01,0,0-.02-.02-.02-.03,0,0,0,0,0,0,0,0-.01-.01-.02-.02,0,0,0,0,0,0,0-.01-.02-.02-.03-.03,0,0,0,0,0,0,0,0,0-.01-.01-.02,0,0,0,0,0,0,0-.01-.02-.02-.03-.03,0,0,0,0,0,0-.01-.01-.02-.02-.03-.04h0s-.01-.01-.02-.02c0,0,0,0,0,0,0,0-.02-.02-.02-.03,0,0,0,0,0-.01,0,0-.01-.01-.02-.02,0,0,0,0,0,0,0-.01-.02-.02-.03-.03,0,0,0,0,0,0,0,0-.01-.01-.02-.02,0,0,0,0,0,0,0-.01-.02-.02-.03-.03,0,0,0,0,0,0-.02-.02-.03-.04-.05-.05,0,0,0,0,0,0-.02-.02-.03-.03-.05-.05,0,0,0,0,0,0,0,0-.02-.02-.03-.03,0,0,0,0,0,0,0,0-.01-.01-.02-.02,0,0,0,0,0,0,0,0-.02-.02-.02-.03,0,0,0,0,0-.01,0,0,0-.01-.01-.02,0,0,0,0,0-.01,0,0-.02-.02-.02-.03,0,0,0,0-.01-.01,0,0,0-.01-.01-.02,0,0,0,0,0,0,0,0-.02-.02-.03-.03,0,0,0,0,0-.01,0,0,0,0-.01-.01,0,0-.01-.01-.02-.02,0,0,0,0-.01-.01,0,0,0,0-.01-.01,0,0-.02-.02-.02-.02,0,0,0,0-.01-.01,0,0,0-.01-.01-.02,0,0,0,0-.01-.01,0,0-.01-.02-.02-.02,0,0,0,0-.01-.01,0,0,0,0-.01-.01,0,0-.01-.01-.02-.02,0,0-.01-.01-.02-.02,0,0,0,0-.01-.01,0,0,0,0-.01-.01,0,0-.01-.02-.02-.02,0,0,0,0-.01-.01,0,0,0,0-.01-.01,0,0,0,0-.01-.01,0,0-.01-.01-.02-.02,0,0,0,0-.01-.01,0,0,0,0-.01-.01,0,0-.01-.01-.02-.02,0,0,0-.01-.01-.02,0,0,0,0-.01-.01,0,0,0,0-.01-.01,0,0-.01-.01-.02-.02,0,0,0-.01-.01-.02,0,0,0,0-.01-.01,0,0,0-.01-.01-.02,0,0-.01-.01-.02-.02,0,0,0,0-.01-.01,0,0,0,0-.01-.01,0,0-.01-.01-.02-.02,0,0-.01-.01-.02-.02,0,0,0,0-.01-.01,0,0,0,0-.01-.01,0,0-.01-.01-.02-.02,0,0,0,0-.01-.01,0,0,0,0-.01-.01,0,0,0,0-.01-.01,0,0-.01-.01-.02-.02,0,0,0,0-.01-.01,0,0,0,0-.01-.01,0,0-.01-.01-.02-.02,0,0,0,0-.01-.01,0,0,0,0-.01-.01,0,0,0,0-.01-.01,0,0-.01-.01-.02-.02,0,0,0,0-.01-.01,0,0,0,0-.01-.01,0,0-.01-.01-.02-.02,0,0,0,0-.01-.01,0,0,0,0-.01-.01,0,0,0,0-.01-.01,0,0-.01-.01-.02-.02,0,0,0,0-.01-.01,0,0,0,0-.01-.01,0,0,0,0-.01-.01,0,0-.01-.01-.02-.02,0,0,0,0-.01-.01,0,0,0,0-.01-.01,0,0-.01-.01-.02-.02,0,0-.01-.01-.02-.02,0,0,0,0-.01-.01,0,0-.01-.01-.02-.02,0,0-.01-.01-.02-.02,0,0-.01-.01-.02-.02,0,0,0,0-.01-.01,0,0-.01-.01-.02-.02,0,0-.01-.01-.02-.02,0,0,0,0-.01-.01,0,0,0,0-.01-.01,0,0-.01-.02-.02-.02,0,0,0,0-.01-.01,0,0,0-.01-.01-.02,0,0,0,0-.01-.01,0,0-.01-.01-.02-.02,0,0,0,0-.01-.01,0,0,0,0-.01-.01,0,0,0,0-.01-.01,0,0-.01-.01-.02-.02,0,0,0,0-.01-.01,0,0-.01-.01-.02-.02,0,0-.01-.01-.02-.02,0,0-.01-.01-.02-.02,0,0,0,0-.01-.01,0,0-.02-.02-.02-.02,0,0,0,0,0,0,0,0-.01-.01-.02-.02,0,0,0,0-.01-.01,0,0-.01-.01-.02-.02,0,0,0,0,0-.01,0,0-.01-.01-.02-.02,0,0,0,0-.01-.01,0,0-.01-.01-.02-.02,0,0,0,0-.01-.01,0,0-.01-.01-.02-.02,0,0,0,0-.01-.01,0,0-.01-.01-.02-.02,0,0,0,0-.01-.01s-.01-.01-.01-.01c0,0-.01-.01-.02-.02,0,0-.01-.01-.02-.02,0,0,0,0-.01-.01,0,0-.01-.01-.02-.02,0,0,0,0-.01-.01,0,0-.01-.01-.02-.02,0,0,0,0-.01-.01,0,0-.01-.01-.02-.02,0,0,0,0-.01-.01,0,0-.01-.01-.02-.02,0,0,0,0,0,0,0,0-.02-.02-.02-.02,0,0,0,0,0,0,0,0-.01-.01-.02-.02,0,0,0,0,0,0,0,0-.01-.01-.02-.02,0,0,0,0-.01-.01,0,0-.01-.01-.02-.02,0,0,0,0-.01-.01,0,0-.01-.01-.02-.02,0,0,0,0,0,0,0,0-.02-.02-.02-.02,0,0,0,0,0,0,0,0-.01-.01-.02-.02,0,0,0,0-.01-.01,0,0-.02-.02-.02-.02,0,0,0,0,0,0,0,0-.01-.01-.02-.02,0,0,0,0,0,0,0,0-.02-.02-.02-.02,0,0,0,0,0,0,0,0-.01-.01-.02-.02,0,0,0,0,0,0,0,0-.02-.02-.02-.02,0,0,0,0,0,0,0,0-.01-.01-.02-.02,0,0,0,0,0,0,0,0-.02-.02-.02-.02,0,0,0,0,0,0,0,0-.02-.02-.02-.02,0,0,0,0,0,0,0,0-.01-.01-.02-.02,0,0,0,0,0,0,0,0-.02-.02-.02-.02,0,0,0,0,0,0,0,0-.01-.01-.02-.02,0,0,0,0,0,0,0,0-.02-.02-.02-.02,0,0,0,0,0,0,0,0-.01-.01-.02-.02,0,0,0,0,0,0,0,0-.02-.02-.03-.02,0,0,0,0,0,0,0,0-.02-.02-.02-.02,0,0,0,0,0,0,0,0-.02-.02-.03-.02,0,0,0,0,0,0,0,0-.02-.02-.03-.02,0,0,0,0,0,0,0,0-.02-.02-.02-.02,0,0,0,0,0,0,0,0-.02-.02-.03-.02,0,0,0,0,0,0,0,0-.01-.01-.02-.02,0,0,0,0,0,0,0,0-.02-.02-.02-.02,0,0,0,0,0,0,0,0-.01-.01-.02-.02,0,0,0,0,0,0,0,0-.02-.02-.03-.02,0,0,0,0,0,0,0,0-.02-.01-.02-.02,0,0,0,0,0,0,0,0-.02-.02-.03-.03,0,0,0,0,0,0,0,0-.02-.02-.03-.03,0,0,0,0,0,0,0,0-.02-.02-.03-.02,0,0,0,0,0,0,0,0-.02-.02-.03-.03,0,0,0,0,0,0,0,0-.02-.01-.02-.02,0,0,0,0,0,0,0,0-.02-.02-.03-.03,0,0,0,0,0,0,0,0-.02-.02-.03-.02,0,0,0,0,0,0,0,0-.02-.02-.03-.03,0,0,0,0,0,0,0,0-.02-.02-.03-.03h0s-.02-.02-.03-.03c0,0,0,0,0,0-.02-.02-.04-.04-.06-.05,0,0,0,0,0,0,0,0-.02-.02-.03-.03,0,0,0,0,0,0,0,0-.02-.02-.03-.02,0,0,0,0,0,0,0,0-.02-.02-.03-.03,0,0,0,0,0,0,0,0-.02-.02-.03-.02,0,0,0,0,0,0-.01,0-.02-.02-.03-.03,0,0,0,0,0,0,0,0-.02-.02-.03-.02h0s-.02-.02-.03-.03c0,0,0,0,0,0-.02-.02-.04-.04-.06-.05,0,0,0,0,0,0,0,0-.02-.02-.03-.03,0,0,0,0,0,0,0,0-.02-.02-.03-.02,0,0,0,0,0,0,0,0-.02-.02-.03-.03,0,0,0,0,0,0,0,0-.02-.02-.03-.02,0,0,0,0,0,0-.01,0-.02-.02-.03-.03,0,0,0,0,0,0,0,0-.02-.02-.03-.03h0s-.02-.02-.03-.03c0,0,0,0,0,0-.02-.02-.04-.04-.06-.05,0,0,0,0,0,0-.02-.02-.04-.04-.06-.05,0,0,0,0,0,0-.02-.02-.04-.04-.06-.06h0s-.02-.02-.03-.03t0,0s-.02-.02-.03-.03h0s-.02-.02-.03-.03c0,0,0,0,0,0-.02-.02-.04-.04-.06-.06h0s-.04-.04-.06-.06h0s-.06-.06-.09-.08c0,0,0,0,0,0-.02-.02-.04-.04-.06-.05t0,0s-.04-.04-.06-.06h0c-2.25-1.98-4.65-3.79-7.19-5.4h0ZM57,0v12c1.63,0,3.28.09,4.89.26l1.28-11.93c-.8-.09-1.61-.16-2.42-.21,0,0,0,0,0,0-.02,0-.03,0-.04,0,0,0,0,0,0,0-.02,0-.03,0-.04,0,0,0,0,0,0,0-.02,0-.03,0-.04,0,0,0,0,0,0,0-.02,0-.03,0-.04,0,0,0,0,0,0,0-.02,0-.03,0-.04,0h0s-.03,0-.04,0c0,0,0,0,0,0-.15,0-.3-.02-.45-.03,0,0,0,0,0,0-.01,0-.02,0-.04,0,0,0,0,0,0,0-.01,0-.02,0-.04,0,0,0,0,0-.01,0-.01,0-.02,0-.04,0,0,0,0,0-.01,0-.01,0-.02,0-.03,0,0,0,0,0-.01,0-.01,0-.02,0-.03,0,0,0,0,0-.01,0-.01,0-.02,0-.03,0,0,0,0,0-.01,0-.01,0-.02,0-.04,0,0,0,0,0-.01,0-.01,0-.02,0-.04,0,0,0,0,0-.01,0-.01,0-.02,0-.04,0,0,0,0,0,0,0-.01,0-.02,0-.04,0,0,0,0,0,0,0-.09,0-.18,0-.26-.01,0,0,0,0,0,0-.01,0-.02,0-.04,0,0,0,0,0-.01,0-.01,0-.02,0-.03,0,0,0-.01,0-.02,0,0,0-.02,0-.03,0,0,0-.01,0-.02,0,0,0-.02,0-.03,0,0,0-.01,0-.02,0,0,0-.02,0-.03,0,0,0-.01,0-.02,0,0,0-.02,0-.03,0,0,0-.01,0-.02,0,0,0-.02,0-.03,0,0,0-.01,0-.02,0,0,0-.02,0-.03,0,0,0-.01,0-.02,0,0,0-.02,0-.03,0,0,0-.01,0-.02,0,0,0-.02,0-.03,0,0,0-.01,0-.02,0,0,0-.02,0-.03,0,0,0,0,0-.01,0-.01,0-.02,0-.03,0,0,0,0,0-.01,0-.01,0-.02,0-.04,0,0,0,0,0,0,0-.04,0-.09,0-.13,0,0,0,0,0,0,0-.01,0-.02,0-.03,0,0,0-.01,0-.02,0,0,0-.02,0-.03,0,0,0-.01,0-.02,0,0,0-.02,0-.02,0,0,0-.01,0-.02,0,0,0-.02,0-.02,0,0,0-.01,0-.02,0,0,0-.02,0-.03,0,0,0-.01,0-.02,0,0,0-.01,0-.02,0,0,0-.02,0-.02,0,0,0-.02,0-.02,0,0,0-.02,0-.02,0,0,0-.02,0-.02,0,0,0-.02,0-.02,0,0,0-.02,0-.03,0,0,0-.01,0-.02,0,0,0-.01,0-.02,0,0,0-.02,0-.02,0,0,0-.02,0-.02,0,0,0-.02,0-.02,0,0,0-.02,0-.02,0,0,0-.02,0-.02,0,0,0-.02,0-.02,0,0,0-.02,0-.02,0,0,0-.02,0-.02,0,0,0-.02,0-.03,0,0,0-.01,0-.02,0,0,0-.02,0-.03,0,0,0-.01,0-.02,0-.02,0-.03,0-.05,0,0,0-.01,0-.02,0,0,0-.02,0-.03,0,0,0-.01,0-.02,0,0,0-.02,0-.03,0,0,0-.02,0-.02,0,0,0-.02,0-.03,0,0,0-.01,0-.02,0,0,0-.02,0-.03,0,0,0-.01,0-.02,0,0,0-.02,0-.02,0,0,0-.02,0-.02,0,0,0-.02,0-.02,0,0,0-.02,0-.02,0,0,0-.02,0-.02,0,0,0-.02,0-.02,0,0,0-.02,0-.02,0,0,0-.02,0-.02,0,0,0-.02,0-.03,0,0,0-.01,0-.02,0,0,0-.02,0-.03,0,0,0-.01,0-.02,0,0,0-.02,0-.03,0,0,0-.01,0-.02,0,0,0-.02,0-.03,0h-.02s-.02,0-.03,0c0,0-.02,0-.02,0h-.05s-.02,0-.03,0h-.06Z"/>
  <circle class="cls-2" cx="57" cy="57" r="44.83"/>
</svg>