<?xml version="1.0" encoding="UTF-8"?>
<svg id="Layer_1" data-name="Layer 1" xmlns="http://www.w3.org/2000/svg" viewBox="0 0 115 115">
  <defs>
    <style>
      .cls-1 {
        fill: #fff;
      }

      .cls-2 {
        fill: none;
        stroke: #fff;
        stroke-miterlimit: 10;
      }
    </style>
  </defs>
  <path class="cls-1" d="m111.69,39.82C101.93,9.9,69.75-6.45,39.82,3.31h0s-.03,0-.04.01c0,0,0,0-.01,0-.01,0-.02,0-.03.01,0,0,0,0,0,0-.01,0-.03,0-.04.01,0,0,0,0,0,0-.01,0-.02,0-.03.01,0,0,0,0,0,0-.01,0-.03,0-.04.01,0,0,0,0,0,0-.01,0-.02,0-.03.01,0,0,0,0,0,0-.01,0-.03,0-.04.01,0,0,0,0,0,0-.01,0-.02,0-.03.01,0,0,0,0,0,0-.01,0-.02,0-.04.01,0,0,0,0,0,0-.01,0-.02,0-.03.01,0,0,0,0,0,0-.01,0-.03,0-.04.01,0,0,0,0,0,0-.01,0-.02,0-.03.01,0,0,0,0,0,0-.01,0-.03,0-.04.01,0,0,0,0,0,0-.01,0-.02,0-.03.01,0,0,0,0-.01,0-.01,0-.02,0-.04.01,0,0,0,0,0,0-.01,0-.02,0-.03.01,0,0,0,0-.01,0-.01,0-.03,0-.04.01,0,0,0,0,0,0-.01,0-.02,0-.04.01,0,0,0,0-.01,0-.03,0-.05.02-.08.03,0,0,0,0-.01,0-.01,0-.02,0-.04.01,0,0,0,0,0,0-.01,0-.03,0-.04.01,0,0,0,0-.01,0-.01,0-.02,0-.03.01,0,0,0,0,0,0-.01,0-.03,0-.04.01,0,0,0,0-.01,0-.01,0-.02,0-.03.01,0,0,0,0,0,0-.01,0-.03,0-.04.01,0,0,0,0,0,0-.01,0-.02,0-.03.01,0,0,0,0,0,0-.01,0-.03,0-.04.01,0,0,0,0,0,0-.01,0-.02,0-.03.01,0,0,0,0,0,0-.01,0-.03,0-.04.01,0,0,0,0,0,0-.01,0-.02,0-.03.01,0,0,0,0-.01,0-.01,0-.02,0-.04.01,0,0,0,0,0,0-.01,0-.02,0-.03.01,0,0,0,0-.01,0-.01,0-.02,0-.04.01,0,0,0,0,0,0-.01,0-.02,0-.03.01,0,0,0,0-.01,0-.01,0-.03,0-.04.01,0,0,0,0,0,0-.01,0-.02,0-.04.01,0,0,0,0,0,0-.03,0-.05.02-.08.03,0,0,0,0,0,0-.01,0-.02,0-.03.01,0,0,0,0,0,0-.01,0-.03,0-.04.01,0,0,0,0,0,0-.01,0-.02,0-.03.01,0,0,0,0,0,0-.01,0-.03,0-.04.01,0,0,0,0,0,0-.01,0-.02,0-.03.01,0,0,0,0,0,0-.01,0-.03,0-.04.01,0,0,0,0,0,0-.01,0-.02,0-.03.01,0,0,0,0,0,0-.01,0-.02,0-.04.01,0,0,0,0,0,0-.01,0-.02,0-.03.01,0,0,0,0,0,0-.01,0-.03,0-.04.01,0,0,0,0,0,0-.01,0-.02,0-.03.01,0,0,0,0,0,0-.01,0-.03,0-.04.01,0,0,0,0,0,0-.01,0-.02,0-.03.01,0,0,0,0-.01,0-.01,0-.02,0-.04.01,0,0,0,0,0,0-.01,0-.02,0-.03.01,0,0,0,0-.01,0-.01,0-.02,0-.04.01,0,0,0,0,0,0-.01,0-.02,0-.03.01,0,0,0,0-.01,0-.01,0-.02,0-.03.01,0,0,0,0,0,0-.01,0-.02,0-.04.01,0,0,0,0-.01,0-.01,0-.02,0-.03.01,0,0,0,0,0,0-.01,0-.02,0-.04.01,0,0,0,0-.01,0-.01,0-.02,0-.03.01,0,0,0,0,0,0-.01,0-.02,0-.04.01,0,0,0,0-.01,0-.01,0-.02,0-.03.01,0,0,0,0,0,0-.01,0-.02,0-.04.01,0,0,0,0-.01,0-.01,0-.02,0-.03.01,0,0,0,0,0,0-.01,0-.02,0-.04.01,0,0,0,0-.01,0-.01,0-.02,0-.03.01,0,0,0,0-.01,0-.01,0-.02,0-.04.01,0,0,0,0,0,0-.01,0-.02,0-.03.01,0,0,0,0-.01,0-.01,0-.02,0-.04.01,0,0,0,0,0,0-.01,0-.02,0-.03.01,0,0,0,0-.01,0-.01,0-.02,0-.04.01,0,0,0,0,0,0-.01,0-.02,0-.03.01,0,0,0,0-.01,0-.01,0-.02,0-.04.01,0,0,0,0,0,0-.01,0-.02,0-.03.01,0,0,0,0-.01,0-.01,0-.02,0-.04.01,0,0,0,0,0,0-.01,0-.02,0-.04.01,0,0,0,0-.01,0-.01,0-.02,0-.03.01,0,0,0,0,0,0-.01,0-.02,0-.04.01,0,0,0,0-.01,0-.01,0-.02,0-.03.01,0,0,0,0,0,0-.01,0-.02,0-.04.01,0,0,0,0,0,0-.01,0-.02,0-.03.01,0,0,0,0,0,0-.01,0-.02,0-.04.01,0,0,0,0,0,0-.01,0-.02,0-.03.01,0,0,0,0,0,0-.01,0-.02,0-.04.01,0,0,0,0,0,0-.01,0-.02,0-.03.01,0,0,0,0,0,0-.01,0-.03.01-.04.02,0,0,0,0,0,0-.01,0-.02,0-.03.01,0,0,0,0-.01,0-.01,0-.02,0-.04.01,0,0,0,0,0,0-.01,0-.02,0-.03.01,0,0,0,0-.01,0-.01,0-.02,0-.04.01,0,0,0,0,0,0-.01,0-.02,0-.03.01,0,0,0,0-.01,0-.01,0-.02,0-.03.01,0,0,0,0,0,0-.01,0-.02,0-.03.01,0,0,0,0-.01,0-.01,0-.02,0-.03.01,0,0,0,0,0,0-.01,0-.02,0-.03.01,0,0,0,0-.01,0-.01,0-.02,0-.03.01,0,0,0,0,0,0-.01,0-.02,0-.04.01,0,0,0,0-.01,0-.01,0-.02,0-.03.01,0,0,0,0,0,0-.01,0-.02,0-.03.01,0,0,0,0-.01,0-.01,0-.02,0-.03.01,0,0,0,0-.01,0-.01,0-.02.01-.03.01,0,0,0,0-.01,0-.01,0-.02,0-.03.01,0,0,0,0-.01,0-.01,0-.02,0-.03.01,0,0,0,0-.01,0,0,0-.02,0-.03.01,0,0,0,0-.01,0-.01,0-.02,0-.03.01,0,0,0,0,0,0-.01,0-.02,0-.03.01,0,0,0,0-.01,0-.01,0-.02,0-.03.01,0,0,0,0,0,0-.01,0-.02,0-.03.01,0,0,0,0-.01,0-.01,0-.02,0-.03.01,0,0,0,0,0,0-.01,0-.02,0-.03.01,0,0,0,0-.01,0-.01,0-.02,0-.03.01,0,0,0,0-.01,0-.01,0-.02,0-.03.01,0,0,0,0-.01,0-.01,0-.02,0-.03.01,0,0,0,0,0,0-.01,0-.02,0-.03.01,0,0,0,0-.01,0,0,0-.02,0-.03.01,0,0,0,0-.01,0-.01,0-.02,0-.03.01,0,0,0,0-.01,0,0,0-.02,0-.03.01,0,0,0,0-.01,0-.01,0-.02.01-.03.01,0,0,0,0-.01,0,0,0-.02,0-.03.01,0,0,0,0-.01,0-.01,0-.02.01-.03.01,0,0,0,0-.01,0,0,0-.02,0-.03.01,0,0,0,0-.01,0-.01,0-.02.01-.03.01,0,0,0,0-.01,0,0,0-.02,0-.03.01,0,0,0,0-.01,0-.01,0-.02,0-.03.01,0,0,0,0,0,0-.01,0-.02,0-.03.01,0,0,0,0-.01,0-.01,0-.02.01-.03.01,0,0,0,0-.01,0,0,0-.02,0-.03.01,0,0,0,0-.01,0-.01,0-.02,0-.03.02,0,0,0,0,0,0-.01,0-.02,0-.03.01,0,0,0,0-.01,0-.01,0-.02,0-.03.01,0,0,0,0,0,0-.01,0-.02,0-.03.01,0,0,0,0-.01,0-.01,0-.02,0-.03.01,0,0,0,0,0,0-.01,0-.02,0-.03.02,0,0,0,0-.01,0-.01,0-.02,0-.03.01,0,0,0,0,0,0-.01,0-.02,0-.03.02,0,0,0,0-.01,0,0,0-.02,0-.03.01,0,0,0,0-.01,0-.01,0-.02.01-.03.02,0,0,0,0-.01,0-.01,0-.02,0-.03.01,0,0,0,0-.01,0-.01,0-.02.01-.03.02,0,0,0,0-.01,0,0,0-.02,0-.03.01,0,0,0,0-.01,0-.01,0-.02.01-.03.02,0,0,0,0-.01,0-.01,0-.02,0-.03.01,0,0,0,0-.01,0-.01,0-.02.01-.03.02,0,0,0,0-.01,0,0,0-.02,0-.03.01,0,0,0,0-.01,0-.01,0-.02.01-.03.02,0,0,0,0,0,0-.01,0-.02,0-.03.01,0,0,0,0-.01,0-.01,0-.02.01-.03.02,0,0,0,0,0,0-.01,0-.02,0-.03.01,0,0,0,0-.01,0-.01,0-.02,0-.03.01,0,0,0,0,0,0-.01,0-.02,0-.03.01,0,0,0,0-.01,0-.01,0-.02,0-.03.01,0,0,0,0,0,0-.01,0-.02.01-.03.02,0,0,0,0-.01,0-.01,0-.02,0-.03.01,0,0,0,0,0,0-.01,0-.02.01-.03.02,0,0,0,0-.01,0,0,0-.02,0-.03.01,0,0,0,0-.01,0-.01,0-.02.01-.03.02,0,0,0,0-.01,0-.01,0-.02,0-.03.01,0,0,0,0-.01,0-.01,0-.02.01-.03.02,0,0,0,0-.01,0,0,0-.02,0-.02.01,0,0,0,0-.01,0-.01,0-.02.01-.03.02,0,0,0,0-.01,0,0,0-.02,0-.02.01,0,0,0,0-.01,0-.01,0-.02.01-.03.02,0,0,0,0,0,0-.01,0-.02,0-.03.01,0,0,0,0-.01,0-.01,0-.02.01-.03.02,0,0,0,0,0,0,0,0-.02,0-.03.01,0,0,0,0-.01,0-.01,0-.02.01-.03.02,0,0,0,0,0,0-.01,0-.02,0-.03.01,0,0,0,0-.01,0-.01,0-.02,0-.03.01h0s-.02.01-.03.02c0,0,0,0-.01,0-.01,0-.02,0-.03.01,0,0,0,0,0,0-.01,0-.02.01-.03.02,0,0,0,0-.01,0-.01,0-.02,0-.03.01,0,0,0,0,0,0-.01,0-.02.01-.03.02,0,0,0,0,0,0-.01,0-.02,0-.03.01,0,0,0,0,0,0-.01,0-.02.01-.03.02,0,0,0,0-.01,0,0,0-.02,0-.02.01,0,0,0,0-.01,0-.01,0-.02.01-.03.02,0,0,0,0-.01,0,0,0-.02,0-.03.01,0,0,0,0-.01,0-.01,0-.02.01-.03.02,0,0,0,0-.01,0,0,0-.02,0-.02.01,0,0,0,0-.01,0,0,0-.02.01-.03.02,0,0,0,0-.01,0,0,0-.02,0-.02.01,0,0,0,0-.01,0-.01,0-.02.01-.03.02,0,0,0,0-.01,0,0,0-.02,0-.03.01,0,0,0,0-.01,0,0,0-.02.01-.03.02,0,0,0,0-.01,0-.01,0-.02,0-.03.01,0,0,0,0-.01,0-.01,0-.02,0-.03.01,0,0,0,0-.01,0-.01,0-.02,0-.03.01,0,0,0,0-.01,0,0,0-.02,0-.02.01,0,0,0,0-.01,0-.01,0-.02.01-.03.02,0,0,0,0-.01,0,0,0-.02,0-.02.01,0,0,0,0-.01,0,0,0-.02.01-.03.02,0,0,0,0-.01,0,0,0-.02,0-.02.01,0,0,0,0-.01,0,0,0-.02.01-.03.02,0,0,0,0-.01,0,0,0-.02,0-.02.01,0,0,0,0-.01,0-.01,0-.02.01-.03.02,0,0,0,0-.01,0,0,0-.02,0-.02.01,0,0,0,0-.01,0,0,0-.02.01-.03.02,0,0,0,0-.01,0,0,0-.01,0-.02.01,0,0,0,0-.01,0,0,0-.02.01-.03.02,0,0,0,0-.01,0,0,0-.02,0-.02.01,0,0,0,0-.01,0,0,0-.02,0-.03.01,0,0-.01,0-.01,0,0,0-.02,0-.02.01,0,0,0,0-.01,0,0,0-.02,0-.03.01,0,0,0,0-.02,0,0,0-.02,0-.02.01,0,0,0,0-.01,0,0,0-.02,0-.02.01,0,0-.01,0-.02,0,0,0-.02,0-.02.01,0,0,0,0-.02,0,0,0-.01,0-.02.01,0,0,0,0-.02,0,0,0-.02,0-.03.01,0,0,0,0-.02,0,0,0-.01,0-.02.01,0,0,0,0-.01,0,0,0-.02.01-.03.02,0,0,0,0-.01,0,0,0-.01,0-.02.01,0,0,0,0-.01,0,0,0-.02.01-.03.02,0,0,0,0-.01,0,0,0-.01,0-.02.01,0,0,0,0-.01,0,0,0-.02.01-.03.02,0,0,0,0-.01,0,0,0-.02,0-.02.01,0,0,0,0-.01,0,0,0-.02.01-.03.02,0,0,0,0-.01,0,0,0-.02,0-.02.01,0,0,0,0-.01,0,0,0-.02.01-.03.02,0,0,0,0-.01,0,0,0-.02,0-.02.01,0,0,0,0-.01,0,0,0-.02,0-.03.01,0,0-.01,0-.02,0,0,0-.01,0-.02.01,0,0,0,0-.02,0,0,0-.01,0-.02.01,0,0-.02,0-.02.01,0,0-.01,0-.02.01,0,0-.01,0-.02,0,0,0-.01,0-.02.01,0,0-.01,0-.02.01,0,0-.01,0-.02.01,0,0-.01,0-.01,0,0,0-.01,0-.02.01,0,0-.01,0-.02,0,0,0-.02,0-.03.01,0,0,0,0-.02,0,0,0-.01,0-.02.01,0,0-.01,0-.02.01,0,0-.02,0-.03.01,0,0-.01,0-.02,0,0,0-.01,0-.02,0,0,0-.01,0-.02,0,0,0-.02.01-.03.02,0,0-.01,0-.02,0,0,0-.01,0-.02.01,0,0-.01,0-.02,0,0,0-.02.01-.03.02,0,0-.01,0-.02,0,0,0-.01,0-.02,0,0,0-.01,0-.02,0,0,0-.02.01-.03.02,0,0,0,0-.01,0,0,0-.01,0-.02.01,0,0-.01,0-.02,0,0,0-.02.01-.03.02,0,0,0,0-.01,0,0,0-.01,0-.02.01,0,0-.01,0-.02,0,0,0-.01,0-.02.01,0,0-.02,0-.02.01,0,0-.01,0-.02.01,0,0-.01,0-.02,0,0,0-.01,0-.02.01,0,0-.02,0-.02.01,0,0-.01,0-.02.01,0,0-.01,0-.02,0,0,0-.01,0-.02.01,0,0-.01,0-.02.01,0,0-.01,0-.02.01,0,0-.01,0-.02,0,0,0-.01,0-.02.01,0,0-.01,0-.02.01,0,0-.02,0-.02.01,0,0-.01,0-.02,0,0,0-.01,0-.02,0,0,0-.01,0-.02,0,0,0-.02,0-.03.02,0,0-.01,0-.02,0,0,0-.01,0-.02,0,0,0-.01,0-.02,0,0,0-.02.01-.03.02,0,0-.01,0-.02,0,0,0-.01,0-.02.01,0,0-.01,0-.02,0,0,0-.02.01-.03.02,0,0-.01,0-.02,0,0,0,0,0-.02,0,0,0-.01,0-.02,0,0,0-.01,0-.02.01,0,0-.02,0-.02.01,0,0-.01,0-.02,0,0,0-.01,0-.02,0,0,0-.01,0-.02.01,0,0-.01,0-.02.01,0,0-.01,0-.02,0,0,0-.01,0-.02,0,0,0-.01,0-.02.01,0,0-.01,0-.02.01,0,0-.01,0-.02.01,0,0-.01,0-.01,0,0,0-.01,0-.02.01,0,0-.01,0-.02.01s-.01,0-.02.01c0,0-.01,0-.01,0,0,0-.01,0-.02.01,0,0-.02,0-.02.01,0,0-.01,0-.02.01,0,0-.01,0-.02,0,0,0-.01,0-.02.01s-.01,0-.02.01c0,0-.01,0-.02.01,0,0-.01,0-.02,0,0,0-.01,0-.02,0,0,0-.02,0-.02.01,0,0-.01,0-.02.01,0,0-.01,0-.02,0,0,0,0,0-.02,0,0,0-.01,0-.02,0,0,0-.02.01-.03.02,0,0-.01,0-.02,0s0,0-.02,0c0,0-.01,0-.02.01,0,0-.02.01-.03.02,0,0-.01,0-.02,0,0,0,0,0-.02,0,0,0-.01,0-.02,0,0,0-.02,0-.02.01,0,0-.01,0-.02.01,0,0-.01,0-.02,0,0,0-.01,0-.02.01,0,0-.01,0-.02.01,0,0-.02,0-.02.01,0,0,0,0-.01,0,0,0-.01,0-.02.01,0,0-.01,0-.02,0,0,0-.02.01-.03.02,0,0-.01,0-.02,0,0,0-.01,0-.02.01,0,0,0,0-.01,0,0,0-.02.01-.03.02,0,0-.01,0-.02,0,0,0-.01,0-.02.01,0,0-.01,0-.02.01,0,0-.02.01-.03.02,0,0-.01,0-.02,0,0,0-.01,0-.02.01,0,0-.01,0-.02,0,0,0-.02.01-.03.02,0,0-.01,0-.02,0,0,0-.01,0-.02.01,0,0,0,0-.01,0,0,0-.02.01-.03.02,0,0,0,0-.01,0,0,0-.01,0-.02.01,0,0,0,0-.01,0,0,0-.02.01-.03.02,0,0-.01,0-.02,0,0,0-.01,0-.02.01s0,0-.01,0-.01,0-.02.01c0,0-.02.01-.02.01,0,0-.01,0-.02.01,0,0,0,0-.01,0,0,0-.01,0-.02.01,0,0-.01,0-.02.01,0,0-.02.01-.03.02,0,0,0,0-.01,0,0,0-.01,0-.02.01,0,0,0,0-.01,0,0,0-.02.01-.03.02,0,0,0,0-.01,0,0,0-.01,0-.02.01,0,0,0,0-.01,0-.01,0-.02.01-.03.02,0,0-.01,0-.02,0,0,0-.01,0-.02.01,0,0-.01,0-.01,0-.01,0-.02.01-.03.02,0,0,0,0-.01,0,0,0-.01,0-.02.01,0,0-.01,0-.02,0,0,0-.02.01-.03.02,0,0-.01,0-.02,0,0,0-.01,0-.02.01,0,0,0,0-.01,0,0,0-.02.01-.03.02,0,0-.01,0-.02.01,0,0-.01,0-.02.01,0,0-.01,0-.02,0,0,0-.02.01-.02.02,0,0-.01,0-.02.01,0,0-.01,0-.02.01,0,0,0,0-.01,0-.01,0-.02.01-.03.02,0,0,0,0-.01,0,0,0-.01,0-.02.01,0,0-.01,0-.01,0,0,0-.01,0-.02.01,0,0,0,0,0,0-.01,0-.03.02-.04.02,0,0,0,0-.01,0,0,0-.01,0-.02.01,0,0,0,0-.01,0-.01,0-.02.01-.03.02,0,0,0,0-.01,0,0,0-.01,0-.02.01,0,0,0,0-.01,0,0,0-.02.01-.03.02,0,0,0,0-.01,0,0,0-.01,0-.02.01,0,0,0,0-.01,0-.01,0-.02.01-.03.02,0,0,0,0-.01,0,0,0-.01,0-.02.01,0,0,0,0-.01,0-.01,0-.02.01-.03.02,0,0,0,0-.01,0,0,0-.01,0-.02.01,0,0,0,0-.01,0-.01,0-.02.01-.03.02,0,0,0,0-.01,0,0,0-.01,0-.02.01,0,0,0,0-.01,0,0,0-.02.01-.03.02,0,0-.01,0-.01,0,0,0-.01,0-.02.01,0,0,0,0-.01,0,0,0-.01,0-.02.01,0,0-.01,0-.02.01,0,0-.01,0-.02.01,0,0,0,0-.01,0,0,0-.01,0-.02.01,0,0-.02.01-.03.02,0,0-.01,0-.02.01,0,0,0,0-.01,0,0,0-.01,0-.02.01,0,0-.01,0-.02.01,0,0-.02.01-.03.02,0,0,0,0-.01,0,0,0-.01,0-.02.01,0,0-.01,0-.02.01,0,0-.02.01-.02.02,0,0,0,0-.01,0,0,0-.01,0-.02.01,0,0-.01,0-.02.01,0,0-.02.01-.03.02,0,0-.01,0-.02,0,0,0-.01,0-.02.01,0,0-.01,0-.01,0,0,0-.02.01-.03.02,0,0-.01,0-.02,0,0,0-.01,0-.02.01,0,0,0,0-.01,0,0,0-.02.01-.03.02,0,0-.01,0-.02.01,0,0-.01,0-.02.01,0,0-.01,0-.02.01,0,0-.02.01-.03.02,0,0-.01,0-.02.01,0,0-.01,0-.02.01,0,0-.01,0-.02.01,0,0-.01,0-.02.01,0,0-.01,0-.02.01,0,0-.01,0-.02.01,0,0,0,0-.01,0,0,0-.02.01-.03.02,0,0-.01,0-.02.01,0,0-.01,0-.02.01,0,0,0,0-.02.01,0,0-.01,0-.02.01,0,0-.02.01-.03.02,0,0-.01,0-.02.01,0,0-.01,0-.02.01s0,0-.02.01c0,0-.02.01-.03.02,0,0-.01,0-.02.01,0,0,0,0-.01,0,0,0-.01,0-.02.01,0,0,0,0-.01,0-.01,0-.02.01-.03.02,0,0,0,0-.01,0,0,0-.01,0-.02.01,0,0,0,0-.01,0,0,0-.02.01-.03.02,0,0,0,0-.01,0,0,0-.01,0-.02.01,0,0,0,0-.01,0-.01,0-.02.01-.03.02,0,0,0,0-.01,0,0,0-.01,0-.02.01,0,0,0,0-.01,0-.01,0-.02.01-.03.02,0,0,0,0-.01,0,0,0-.01,0-.02.01,0,0,0,0-.01,0-.01,0-.02.01-.03.02,0,0,0,0,0,0,0,0-.01,0-.02.01,0,0,0,0,0,0-.01,0-.02.02-.04.03,0,0,0,0,0,0,0,0-.01,0-.02.01,0,0,0,0-.01,0-.01,0-.03.02-.04.03h0s-.01.01-.02.02c0,0,0,0,0,0-.02.01-.04.03-.06.04,0,0,0,0,0,0-.02.01-.04.03-.06.04,0,0,0,0,0,0,0,0-.01,0-.02.01,0,0,0,0,0,0-.01,0-.02.02-.04.02,0,0,0,0,0,0,0,0-.01,0-.02.01,0,0,0,0,0,0-.01,0-.03.02-.04.03,0,0,0,0,0,0,0,0-.01,0-.02.01,0,0,0,0,0,0l-.04.03s0,0,0,0c0,0-.01,0-.02.01,0,0,0,0,0,0-.01,0-.03.02-.04.03,0,0,0,0,0,0,0,0-.01.01-.02.02,0,0,0,0,0,0-.01,0-.03.02-.04.03h0s-.01.01-.02.02c0,0,0,0,0,0-.02.02-.04.03-.07.05,0,0,0,0,0,0-.02.02-.04.03-.07.05,0,0,0,0,0,0-.02.02-.04.03-.07.05,0,0,0,0,0,0-.02.02-.04.03-.07.05,0,0,0,0,0,0-.02.02-.04.03-.07.05,0,0,0,0,0,0,0,0-.01,0-.02.01,0,0,0,0,0,0-.01.01-.03.02-.04.03,0,0,0,0,0,0,0,0-.01,0-.02.02,0,0,0,0,0,0-.01.01-.03.02-.04.03,0,0,0,0,0,0,0,0-.01.01-.02.02h0s-.03.02-.04.03c0,0,0,0,0,0,0,0-.01.01-.02.02,0,0,0,0,0,0-.02.02-.04.03-.07.05,0,0,0,0,0,0-.02.02-.05.03-.07.05,0,0,0,0,0,0-.02.02-.05.03-.07.05,0,0,0,0,0,0-.02.02-.04.03-.07.05,0,0,0,0,0,0-.02.02-.05.03-.07.05,0,0,0,0,0,0-.02.02-.05.03-.07.05,0,0,0,0,0,0-.02.02-.05.03-.07.05h0s-.01.01-.02.02t0,0s-.03.02-.04.03c0,0,0,0,0,0,0,0-.01.01-.02.02h0s-.05.04-.07.05h0s-.05.04-.07.05h0s-.05.04-.07.05c0,0,0,0,0,0-.02.02-.05.03-.07.05h0s-.04.04-.07.05c0,0,0,0,0,0-.02.02-.05.03-.07.05h0s-.05.04-.07.05h0s-.05.04-.07.05h0c-.05.04-.11.08-.16.13,0,0,0,0,0,0-.02.02-.04.03-.07.05,0,0,0,0,0,0-.02.02-.05.03-.07.05h0s-.05.04-.07.05h0s-.05.04-.07.05h0c-.12.1-.25.2-.37.29h0c-.09.07-.18.15-.28.22h0c-.17.14-.34.27-.5.41h0s-.05.04-.07.06h0c-4.82,3.98-8.91,8.69-12.15,13.91h0c-.03.05-.06.1-.09.15h0c-.08.13-.16.26-.24.4,0,0,0,0,0,0-.03.05-.06.1-.09.15h0s-.03.05-.04.07c0,0,0,0,0,0-.01.02-.03.05-.04.07,0,0,0,0,0,0-.01.02-.03.05-.04.07,0,0,0,0,0,0,0,0,0,.02-.01.02,0,0,0,0,0,0,0,.01-.02.03-.03.04,0,0,0,0,0,0,0,0,0,.01-.01.02,0,0,0,0,0,0,0,.01-.02.03-.03.04,0,0,0,0,0,0,0,0,0,.02-.01.02,0,0,0,0,0,0,0,.02-.02.03-.03.04h0s0,.02-.01.02c0,0,0,0,0,0-.01.02-.03.05-.04.07,0,0,0,0,0,0-.01.02-.03.05-.04.07,0,0,0,0,0,0-.01.02-.03.04-.04.07,0,0,0,0,0,0-.01.02-.03.04-.04.07,0,0,0,0,0,0,0,0,0,.01-.01.02,0,0,0,0,0,0,0,.01-.02.03-.02.04,0,0,0,0,0,0,0,0,0,.02-.01.02h0s-.02.03-.03.05c0,0,0,0,0,0,0,0,0,.01-.01.02,0,0,0,0,0,0,0,.01-.01.02-.02.03,0,0,0,0,0,.01,0,0,0,.01-.01.02,0,0,0,0,0,0,0,.01-.02.03-.02.04,0,0,0,0,0,0,0,0,0,.01-.01.02,0,0,0,0,0,0-.01.02-.03.05-.04.07,0,0,0,0,0,0-.01.02-.03.05-.04.07,0,0,0,0,0,0-.01.02-.03.05-.04.07,0,0,0,0,0,0-.01.02-.02.04-.04.07,0,0,0,0,0,.01-.01.02-.02.04-.04.07,0,0,0,0,0,0,0,0,0,.01-.01.02,0,0,0,0,0,0,0,.01-.01.03-.02.04,0,0,0,0,0,0,0,0,0,.01-.01.02,0,0,0,0,0,0,0,.01-.01.02-.02.04,0,0,0,0,0,.01,0,0,0,.01-.01.02,0,0,0,0,0,.01,0,.01-.01.02-.02.04,0,0,0,0,0,.01,0,0,0,.01-.01.02,0,0,0,0,0,0,0,.01-.01.02-.02.04,0,0,0,0,0,0,0,0,0,.01-.01.02,0,0,0,0,0,.01,0,0,0,.02-.02.03,0,0,0,.01,0,.02,0,0,0,.01,0,.02,0,0,0,0,0,.01,0,0-.01.02-.02.03,0,0,0,.01,0,.02,0,0,0,.01-.01.02,0,0,0,0,0,.01,0,0,0,.02-.02.03,0,0,0,.01,0,.02,0,0,0,.01-.01.02,0,0,0,0,0,.01-.01.02-.02.04-.04.06,0,0,0,0,0,.01,0,0,0,.01-.01.02,0,0,0,0,0,0,0,.01-.01.03-.02.04,0,0,0,0,0,.01,0,0,0,.01-.01.02,0,0,0,0,0,.01,0,.01-.01.02-.02.03,0,0,0,0,0,.01,0,0,0,.01-.01.02,0,0,0,0,0,.01,0,.01-.01.02-.02.03,0,0,0,0,0,.01,0,0,0,.01-.01.02,0,0,0,0,0,.01,0,0-.01.02-.02.03,0,0,0,.01,0,.02,0,0,0,.01,0,.02,0,0,0,.01,0,.01,0,.01-.01.02-.02.03,0,0,0,0,0,.01,0,0,0,.01,0,.02,0,0,0,.01,0,.01,0,0,0,.02-.01.03,0,0,0,.01,0,.02,0,0,0,.01,0,.02,0,0,0,0,0,.02,0,0,0,.01,0,.02,0,0,0,.02-.01.03,0,0,0,.01,0,.02,0,0,0,.01,0,.01,0,0,0,.01,0,.02,0,0,0,.02-.01.03,0,0,0,.01,0,.02,0,0,0,0,0,.01,0,0,0,.01,0,.02,0,0,0,.02-.01.03,0,0,0,.01,0,.02,0,0,0,.01,0,.02,0,0,0,.01,0,.02,0,0,0,.01-.01.02,0,0,0,.01-.01.02,0,0,0,.01,0,.02,0,0,0,.01,0,.02,0,0,0,.01,0,.02,0,0,0,.02-.01.03,0,0,0,.01,0,.02,0,0,0,.01,0,.02,0,0,0,.01-.01.02,0,0,0,.01,0,.02,0,0,0,.01-.01.02,0,0,0,.01,0,.02,0,0,0,.01,0,.02,0,0,0,.02-.01.02,0,0,0,.01,0,.02,0,0,0,.01,0,.01,0,0,0,.01-.01.02,0,0,0,.01,0,.02,0,0,0,.02-.01.02,0,0,0,0,0,.01,0,0,0,.01,0,.02,0,0,0,.01-.01.02,0,0,0,.02-.01.02,0,0,0,0,0,.01,0,0,0,.01-.01.02,0,0,0,0,0,.01,0,0-.01.02-.02.03,0,0,0,0,0,.01,0,0,0,.01-.01.02,0,0,0,0,0,.01,0,0-.01.02-.02.03,0,0,0,0,0,.01,0,0,0,.01-.01.02,0,0,0,0,0,.01,0,0-.01.02-.01.03,0,0,0,0,0,.01,0,0,0,.01,0,.02,0,0,0,.01,0,.02,0,0,0,.02-.01.03,0,0,0,0,0,.01,0,0,0,.01-.01.02,0,0,0,0,0,.01,0,0-.01.02-.01.03,0,0,0,0,0,.01,0,0,0,.01-.01.02,0,0,0,0,0,.01,0,.01,0,.02-.01.03,0,0,0,0,0,0,0,0,0,.02-.01.03,0,0,0,0,0,.01,0,0,0,.02-.01.03,0,0,0,0,0,0,0,0-.01.02-.02.03,0,0,0,0,0,.01,0,0,0,.02-.01.03,0,0,0,0,0,0,0,.01-.01.02-.02.03,0,0,0,0,0,.01,0,0,0,.02-.01.03,0,0,0,0,0,0,0,.01-.01.02-.02.03,0,0,0,0,0,.01,0,0,0,.02-.01.03,0,0,0,0,0,0,0,.01-.01.02-.02.03,0,0,0,0,0,0,0,0,0,.02-.01.03,0,0,0,0,0,0,0,0-.01.02-.02.03,0,0,0,0,0,0,0,0,0,.02-.01.03,0,0,0,0,0,0,0,.01-.01.02-.02.03,0,0,0,0,0,0,0,0-.01.02-.02.03,0,0,0,0,0,0,0,.01-.01.02-.02.03,0,0,0,0,0,0,0,0,0,.02-.01.03,0,0,0,0,0,0,0,.01-.01.02-.02.03,0,0,0,0,0,0,0,0,0,.02-.01.03,0,0,0,0,0,0,0,.01-.01.02-.02.03,0,0,0,0,0,0,0,.01-.01.02-.02.03,0,0,0,0,0,0,0,.01-.01.02-.02.03h0s-.01.02-.02.04c0,0,0,0,0,0,0,.01-.01.02-.02.03t0,0s-.01.02-.02.04c0,0,0,0,0,0,0,.01-.01.02-.02.03h0s-.01.03-.02.04c0,0,0,0,0,0,0,0-.01.02-.01.03,0,0,0,0,0,0,0,.01-.01.02-.02.03,0,0,0,0,0,0,0,0-.01.02-.01.03,0,0,0,0,0,0,0,.01-.01.02-.02.04,0,0,0,0,0,0,0,0-.01.02-.01.03,0,0,0,0,0,0,0,.01-.01.02-.02.04,0,0,0,0,0,0,0,.01-.01.02-.02.03,0,0,0,0,0,0,0,.01-.01.02-.02.04h0s-.01.02-.02.04c0,0,0,0,0,0-.01.03-.02.05-.03.07,0,0,0,0,0,0-.01.03-.02.05-.03.07,0,0,0,0,0,0-.01.03-.02.05-.03.07,0,0,0,0,0,0-.01.02-.02.05-.03.07,0,0,0,0,0,0-.01.02-.02.05-.03.07h0s-.02.05-.03.08c0,0,0,0,0,0-.02.04-.03.08-.05.11h0s-.02.05-.04.08h0s-.02.05-.03.08h0c-.02.05-.05.1-.07.16h0s-.02.05-.03.08h0c-1.76,3.91-3.07,8.03-3.91,12.27l11.77,2.34c3.17-15.97,14.74-29.03,30.2-34.07,23.59-7.69,49.04,5.24,56.74,28.83l11.41-3.72h0Zm1.06,31.74l-11.63-2.97c-3.84,15.04-14.93,26.89-29.66,31.69-23.59,7.69-49.04-5.24-56.74-28.83-.25-.78-.49-1.57-.7-2.35l-11.59,3.11c.14.51.28,1.01.43,1.52,0,0,0,0,0,0,0,.01,0,.03.01.04,0,0,0,0,0,0,0,.01,0,.03.01.04,0,0,0,0,0,0,0,.01,0,.02.01.04,0,0,0,0,0,0,0,.01,0,.03.01.04,0,0,0,0,0,0,0,.01,0,.03.01.04,0,0,0,0,0,0,0,.01,0,.02.01.04,0,0,0,0,0,0,0,.01,0,.02.01.04,0,0,0,0,0,0,0,.01,0,.02.01.04,0,0,0,0,0,0,0,.01,0,.02.01.04,0,0,0,0,0,0,0,.01,0,.02.01.04,0,0,0,0,0,0,0,.01,0,.03.01.04,0,0,0,0,0,0,.02.07.04.14.07.21,0,0,0,0,0,0,0,.01,0,.02,0,.03,0,0,0,0,0,.01,0,0,0,.02,0,.03,0,0,0,.01,0,.02,0,0,0,.02,0,.03,0,0,0,.01,0,.02,0,0,0,.02,0,.03,0,0,0,.01,0,.02,0,0,0,.02,0,.02,0,0,0,.01,0,.02,0,0,0,.02,0,.02,0,0,0,.01,0,.02,0,0,0,.02,0,.02,0,0,0,.01,0,.02,0,0,0,.02,0,.02,0,0,0,.01,0,.02,0,0,0,.02,0,.02,0,0,0,.01,0,.02,0,0,0,.01,0,.02,0,0,0,.02,0,.02,0,0,0,.01,0,.02,0,0,0,.02,0,.02,0,0,0,.01,0,.02,0,0,0,.02,0,.02,0,0,0,.01,0,.02,0,0,0,.02,0,.03,0,0,0,.01,0,.02,0,0,0,.02,0,.03,0,0,0,.01,0,.02,0,.01,0,.02.01.03,0,0,0,0,0,.01,0,.02,0,.03.01.05,9.76,29.93,41.94,46.28,71.87,36.51.01,0,.03,0,.04-.01,0,0,0,0,0,0,.01,0,.03,0,.04-.01,0,0,0,0,0,0,.01,0,.02,0,.03-.01,0,0,0,0,0,0,.01,0,.03,0,.04-.01,0,0,0,0,0,0,.01,0,.02,0,.03-.01,0,0,0,0,0,0,.01,0,.03,0,.04-.01,0,0,0,0,0,0,.01,0,.02,0,.04-.01,0,0,0,0,0,0,.01,0,.03,0,.04-.01,0,0,0,0,0,0,.03,0,.05-.02.08-.03,0,0,0,0,0,0,.01,0,.03,0,.04-.01h0s.02,0,.04-.01c0,0,0,0,0,0,.01,0,.03,0,.04-.01,0,0,0,0,0,0,.01,0,.02,0,.03-.01,0,0,0,0,0,0,.01,0,.03,0,.04-.01,0,0,0,0,0,0,.01,0,.02,0,.03-.01,0,0,0,0,0,0,.01,0,.03,0,.04-.01,0,0,0,0,0,0,.01,0,.03,0,.04-.01h0s.03,0,.04-.01c0,0,0,0,0,0,.01,0,.03,0,.04-.01,0,0,0,0,0,0,.01,0,.02,0,.04-.01,0,0,0,0,0,0,.01,0,.03,0,.04-.01,0,0,0,0,0,0,.01,0,.02,0,.03-.01,0,0,0,0,0,0,.01,0,.03,0,.04-.01,0,0,0,0,0,0,.01,0,.02,0,.03-.01,0,0,0,0,0,0,.01,0,.03,0,.04-.01,0,0,0,0,0,0,.01,0,.02,0,.04-.01,0,0,0,0,0,0,.01,0,.03,0,.04-.01,0,0,0,0,0,0,.01,0,.03,0,.04-.01,0,0,0,0,0,0,.01,0,.02,0,.03-.01,0,0,0,0,0,0,.01,0,.02,0,.04-.01,0,0,0,0,0,0,.01,0,.02,0,.03-.01,0,0,0,0,0,0,.01,0,.03,0,.04-.01,0,0,0,0,0,0,.01,0,.02,0,.03-.01,0,0,0,0,0,0,.01,0,.02,0,.04-.01,0,0,0,0,0,0,.01,0,.02,0,.04-.01,0,0,0,0,0,0,.01,0,.03,0,.04-.01,0,0,0,0,0,0,.01,0,.03,0,.04-.01,0,0,0,0,0,0,.01,0,.03,0,.04-.01,0,0,0,0,0,0,.01,0,.03,0,.04-.01,0,0,0,0,0,0,.01,0,.02,0,.03-.01,0,0,0,0,0,0,.01,0,.02,0,.04-.01,0,0,0,0,0,0,.01,0,.03,0,.04-.01,0,0,0,0,0,0,.01,0,.03,0,.04-.01,0,0,0,0,0,0,.01,0,.02,0,.04-.01,0,0,0,0,0,0,.01,0,.03,0,.04-.01,0,0,0,0,0,0,.01,0,.03,0,.04-.01,0,0,0,0,0,0,.01,0,.02,0,.04-.01,0,0,0,0,0,0,.01,0,.02,0,.04-.01,0,0,0,0,0,0,.01,0,.02,0,.03-.01,0,0,0,0,0,0,.01,0,.03,0,.04-.01,0,0,0,0,0,0,.01,0,.02,0,.03-.01,0,0,0,0,0,0,.01,0,.02,0,.04-.01,0,0,0,0,0,0,.01,0,.02,0,.03-.01,0,0,0,0,0,0,.01,0,.02,0,.04-.01,0,0,0,0,0,0,.01,0,.02,0,.04-.01,0,0,0,0,0,0,.01,0,.02,0,.04-.01,0,0,0,0,0,0,.01,0,.02,0,.04-.01,0,0,0,0,0,0,.01,0,.02,0,.03-.01,0,0,0,0,0,0,.01,0,.02,0,.04-.01,0,0,0,0,0,0,.01,0,.02,0,.03-.01,0,0,0,0,0,0,.01,0,.03,0,.04-.01,0,0,0,0,0,0,.01,0,.02,0,.04-.01,0,0,0,0,0,0,.01,0,.02,0,.04-.01,0,0,0,0,0,0,.01,0,.02,0,.04-.01h0s.02,0,.04-.01c0,0,0,0,.01,0,.01,0,.02,0,.04-.01,0,0,0,0,0,0,.01,0,.02,0,.03-.01,0,0,0,0,0,0,.01,0,.02,0,.04-.01,0,0,0,0,0,0,.01,0,.02,0,.03-.01,0,0,0,0,0,0,.01,0,.02,0,.04-.01,0,0,0,0,0,0,.01,0,.02,0,.03-.01,0,0,0,0,0,0,.01,0,.02,0,.04-.01,0,0,0,0,0,0,.01,0,.02,0,.04-.01,0,0,0,0,0,0,.01,0,.03,0,.04-.01,0,0,0,0,0,0,.01,0,.02,0,.04-.01,0,0,0,0,0,0,.01,0,.02,0,.03-.01,0,0,0,0,0,0,.01,0,.03,0,.04-.01,0,0,0,0,0,0,.01,0,.02,0,.03-.01,0,0,0,0,0,0,.01,0,.02,0,.04-.01,0,0,0,0,0,0,.01,0,.02,0,.03-.01,0,0,0,0,0,0,.01,0,.02-.01.04-.01,0,0,0,0,0,0,.01,0,.03-.01.04-.01h0s.03-.01.04-.02c0,0,0,0,0,0,.01,0,.03,0,.04-.02,0,0,0,0,0,0,.01,0,.02,0,.04-.01,0,0,0,0,0,0,.01,0,.02,0,.04-.01,0,0,0,0,0,0,.01,0,.02,0,.03-.01,0,0,0,0,0,0,.01,0,.03-.01.04-.01,0,0,0,0,0,0,.01,0,.02,0,.03-.01,0,0,0,0,0,0,.01,0,.02,0,.04-.01,0,0,0,0,0,0,.01,0,.02,0,.03-.01,0,0,0,0,0,0,.01,0,.02-.01.04-.01,0,0,0,0,0,0,.01,0,.02-.01.04-.02,0,0,0,0,0,0,.01,0,.02,0,.03-.01,0,0,0,0,.01,0,.01,0,.02-.01.03-.01,0,0,0,0,0,0,.01,0,.02,0,.03-.01,0,0,0,0,0,0,.01,0,.03-.01.04-.01,0,0,0,0,0,0,.01,0,.02,0,.03-.01,0,0,0,0,0,0,.01,0,.02,0,.04-.01,0,0,0,0,0,0,.01,0,.02,0,.03-.01t0,0s.02,0,.04-.02c0,0,0,0,0,0,.01,0,.02-.01.04-.02,0,0,0,0,0,0,.01,0,.02,0,.03-.01,0,0,0,0,.01,0,.01,0,.02,0,.03-.01,0,0,0,0,0,0,.01,0,.02,0,.03-.01,0,0,0,0,0,0,.01,0,.02,0,.04-.01,0,0,0,0,0,0,.01,0,.02,0,.03-.01,0,0,0,0,0,0,.01,0,.02,0,.04-.01,0,0,0,0,0,0,.01,0,.02,0,.03-.01,0,0,0,0,0,0,.01,0,.02,0,.04-.01,0,0,0,0,.01,0,.01,0,.02,0,.03-.01,0,0,0,0,0,0,.01,0,.02,0,.03-.01,0,0,0,0,0,0,.01,0,.02,0,.04-.02,0,0,0,0,0,0,.01,0,.02,0,.03-.01,0,0,0,0,0,0,.01,0,.02-.01.03-.02,0,0,0,0,0,0,.01,0,.02,0,.03-.01,0,0,0,0,0,0,.01,0,.02-.01.03-.01,0,0,0,0,0,0,.01,0,.02,0,.03-.01,0,0,0,0,0,0,.01,0,.02,0,.03-.02,0,0,0,0,.01,0,.01,0,.02,0,.03-.01h0s.02-.01.03-.02c0,0,0,0,0,0,.01,0,.02-.01.04-.02,0,0,0,0,0,0,.01,0,.02,0,.03-.01,0,0,0,0,0,0,.01,0,.02-.01.03-.02,0,0,0,0,0,0,.01,0,.02,0,.03-.01,0,0,0,0,0,0,.01,0,.02-.01.03-.02,0,0,0,0,.01,0,.01,0,.02,0,.03-.01,0,0,0,0,0,0,.01,0,.02,0,.03-.02,0,0,0,0,.01,0,.01,0,.02,0,.03-.01,0,0,0,0,0,0,.01,0,.02,0,.03-.02,0,0,0,0,0,0,.01,0,.02-.01.04-.02,0,0,0,0,0,0,.01,0,.02,0,.03-.01,0,0,0,0,0,0,.01,0,.02-.01.04-.02,0,0,0,0,0,0,.01,0,.02,0,.03-.01,0,0,0,0,0,0,.01,0,.02-.01.03-.02,0,0,0,0,0,0,.01,0,.02,0,.03-.01,0,0,0,0,0,0,.01,0,.02-.01.04-.02,0,0,0,0,0,0,.01,0,.02-.01.03-.02,0,0,0,0,0,0,.01,0,.02-.01.04-.02,0,0,0,0,0,0,.01,0,.02-.01.04-.02,0,0,0,0,0,0,.01,0,.02,0,.03-.01,0,0,0,0,0,0,.01,0,.02-.01.04-.02,0,0,0,0,0,0,.01,0,.02,0,.03-.01,0,0,0,0,0,0,.01,0,.03-.01.04-.02,0,0,0,0,0,0,.01,0,.02,0,.03-.01,0,0,0,0,0,0,.01,0,.02-.01.04-.02,0,0,0,0,0,0,.01,0,.02-.01.03-.02,0,0,0,0,0,0,.01,0,.02-.01.04-.02,0,0,0,0,0,0,.01,0,.02-.01.04-.02,0,0,0,0,0,0,.01,0,.02-.01.03-.02,0,0,0,0,0,0,.01,0,.02-.01.04-.02,0,0,0,0,0,0,.01,0,.02,0,.03-.01,0,0,0,0,0,0,.01,0,.02-.01.04-.02,0,0,0,0,0,0,.01,0,.02-.01.03-.02,0,0,0,0,0,0l.04-.02s0,0,0,0c.01,0,.02-.01.03-.02,0,0,0,0,0,0,.01,0,.02-.01.04-.02,0,0,0,0,0,0,.01,0,.02-.01.04-.02,0,0,0,0,0,0,.01,0,.02,0,.03-.02,0,0,0,0,.01,0,.01,0,.02-.01.03-.02,0,0,0,0,0,0,0,0,.02,0,.03-.01,0,0,0,0,0,0,.01,0,.02-.01.04-.02,0,0,0,0,0,0,.01,0,.02-.01.03-.02,0,0,0,0,0,0,.01,0,.02-.01.04-.02,0,0,0,0,0,0,.01,0,.02-.01.03-.02,0,0,0,0,0,0,.01,0,.02-.01.04-.02,0,0,0,0,0,0,.01,0,.02-.01.04-.02,0,0,0,0,0,0,.01,0,.02-.01.03-.02,0,0,0,0,0,0,.01,0,.02-.01.04-.02,0,0,0,0,0,0,.01,0,.02-.01.03-.02,0,0,0,0,0,0,.01,0,.02-.01.04-.02,0,0,0,0,0,0,.01,0,.02-.01.03-.02,0,0,0,0,0,0,.01,0,.02-.01.04-.02,0,0,0,0,0,0,.01,0,.02-.01.03-.02h0s.02-.01.04-.02c0,0,0,0,0,0,.01,0,.02-.01.03-.02h0s.02-.01.03-.02c0,0,0,0,0,0,.01,0,.02-.01.03-.02,0,0,0,0,0,0,0,0,.02-.01.03-.02,0,0,0,0,0,0,.01,0,.02-.01.03-.02,0,0,0,0,0,0,0,0,.02,0,.03-.01,0,0,0,0,0,0,.01,0,.02-.01.03-.02,0,0,0,0,0,0,.01,0,.02-.01.03-.02,0,0,0,0,0,0,.01,0,.02-.01.03-.02,0,0,0,0,0,0,.01,0,.02-.01.03-.02h0s.02-.01.04-.02c0,0,0,0,0,0,.01,0,.02-.01.03-.02,0,0,0,0,0,0,.01,0,.02-.01.03-.02,0,0,0,0,0,0,.01,0,.02-.01.03-.02h0s.02-.01.03-.02c0,0,0,0,0,0,.01,0,.02-.01.03-.02,0,0,0,0,.01,0,.01,0,.02,0,.03-.01,0,0,0,0,0,0,.01,0,.02-.01.03-.02,0,0,0,0,0,0,.01,0,.02-.01.03-.02t0,0s.02-.01.03-.02c0,0,0,0,0,0,.01,0,.02-.01.03-.02,0,0,0,0,0,0,.01,0,.02-.01.03-.02,0,0,0,0,.01,0,0,0,.02-.01.03-.02,0,0,0,0,0,0,0,0,.02,0,.03-.01,0,0,0,0,0,0,0,0,.02-.01.03-.02,0,0,0,0,0,0,0,0,.02,0,.03-.01,0,0,0,0,0,0,.01,0,.02-.01.03-.02,0,0,0,0,0,0,0,0,.02-.01.03-.02,0,0,0,0,0,0,.01,0,.02-.01.03-.02,0,0,0,0,0,0,.01,0,.02-.01.03-.02t0,0s.02-.01.03-.02c0,0,0,0,0,0,0,0,.02-.01.03-.02,0,0,0,0,0,0,0,0,.02,0,.03-.01,0,0,0,0,0,0,0,0,.02-.01.03-.02,0,0,0,0,0,0,0,0,.02-.01.03-.02,0,0,0,0,0,0,.01,0,.02-.01.03-.02,0,0,0,0,.01,0,0,0,.02-.01.03-.02,0,0,0,0,0,0,.01,0,.02-.01.03-.02,0,0,0,0,0,0,.01,0,.02-.01.03-.02,0,0,0,0,0,0,0,0,.02-.01.03-.02,0,0,0,0,0,0,.01,0,.02-.01.03-.02,0,0,0,0,0,0,0,0,.02,0,.03-.01,0,0,0,0,0,0,0,0,.02-.01.03-.02,0,0,0,0,0,0,0,0,.02,0,.03-.01,0,0,0,0,0,0,.01,0,.02-.01.03-.02,0,0,0,0,0,0,0,0,.02-.01.03-.02,0,0,0,0,0,0,.01,0,.02-.01.03-.02,0,0,0,0,.01,0,0,0,.02-.01.03-.02,0,0,0,0,0,0,0,0,.02-.01.03-.02,0,0,0,0,.01,0,.01,0,.02-.01.03-.02,0,0,0,0,0,0,0,0,.02-.01.03-.02,0,0,0,0,0,0,0,0,.02-.01.03-.02,0,0,0,0,0,0,0,0,.02,0,.03-.01,0,0,0,0,0,0,.01,0,.02-.01.03-.02,0,0,0,0,0,0,0,0,.02-.01.03-.02,0,0,0,0,0,0,.01,0,.02-.01.03-.02,0,0,0,0,.01,0,.01,0,.02-.01.03-.02,0,0,0,0,0,0,.01,0,.02-.01.03-.02,0,0,0,0,0,0,.01,0,.02-.01.03-.02,0,0,0,0,0,0,0,0,.02-.01.03-.02,0,0,0,0,.01,0,.01,0,.02-.01.03-.02,0,0,0,0,0,0,0,0,.02-.01.03-.02,0,0,0,0,0,0,0,0,.02-.01.03-.02,0,0,0,0,0,0,0,0,.02-.01.03-.02,0,0,0,0,0,0,.01,0,.02-.01.03-.02,0,0,0,0,0,0,.01,0,.02-.01.03-.02,0,0,0,0,0,0,.01,0,.02-.01.03-.02,0,0,0,0,0,0,.01,0,.02-.01.03-.02,0,0,0,0,0,0,0,0,.02-.01.03-.02,0,0,0,0,0,0,0,0,.02-.01.03-.02,0,0,0,0,0,0,0,0,.02-.01.03-.02,0,0,0,0,0,0,.01,0,.02-.01.03-.02,0,0,0,0,0,0,0,0,.02-.01.03-.02,0,0,0,0,0,0,.01,0,.02-.01.03-.02,0,0,0,0,.01,0,0,0,.02-.01.03-.02,0,0,0,0,0,0,0,0,.02-.01.03-.02,0,0,0,0,.01,0,.01,0,.02-.01.03-.02,0,0,0,0,0,0,0,0,.02-.01.03-.02,0,0,0,0,.01,0,0,0,.02-.01.03-.02,0,0,0,0,0,0,0,0,.02,0,.02-.01,0,0,0,0,.01,0,0,0,.02-.01.03-.02,0,0,0,0,0,0,0,0,.02,0,.03-.01,0,0,0,0,0,0,0,0,.02-.01.03-.02,0,0,0,0,.01,0,0,0,.02,0,.03-.02,0,0,0,0,0,0,0,0,.02-.01.03-.02,0,0,0,0,.01,0,.01,0,.02-.01.03-.02,0,0,0,0,0,0,0,0,.02-.01.03-.02,0,0,0,0,0,0,0,0,.02-.01.03-.02,0,0,0,0,0,0,0,0,.02,0,.03-.01,0,0,0,0,0,0,0,0,.02-.01.03-.02,0,0,0,0,0,0,0,0,.02-.01.03-.02,0,0,0,0,0,0,.01,0,.02-.01.03-.02,0,0,0,0,0,0,0,0,.02-.01.03-.02,0,0,0,0,0,0,.01,0,.02-.01.03-.02,0,0,0,0,.01,0,0,0,.02-.01.03-.02,0,0,0,0,.01,0,0,0,.01,0,.02-.01,0,0,0,0,.01,0,.01,0,.02-.01.03-.02,0,0,0,0,0,0,0,0,.02-.01.03-.02,0,0,0,0,0,0,0,0,.02-.01.03-.02,0,0,0,0,0,0,0,0,.02,0,.03-.02,0,0,0,0,0,0,0,0,.02-.01.03-.02,0,0,0,0,0,0,0,0,.02-.01.03-.02,0,0,0,0,0,0,.01,0,.02-.01.03-.02,0,0,0,0,.01,0,0,0,.02-.01.03-.02,0,0,0,0,.01,0,0,0,.02,0,.03-.02,0,0,0,0,.01,0,0,0,.02-.01.03-.02,0,0,0,0,0,0,0,0,.01,0,.02-.01,0,0,0,0,.01,0,0,0,.02-.01.03-.02,0,0,0,0,.01,0,0,0,.02,0,.02-.01,0,0,0,0,0,0,0,0,.02-.01.03-.02,0,0,0,0,0,0,0,0,.02-.01.03-.02,0,0,0,0,0,0,.01,0,.02-.01.03-.02,0,0,0,0,.01,0,0,0,.02-.01.03-.02,0,0,0,0,0,0,0,0,.02-.01.03-.02,0,0,0,0,.01,0,.01,0,.02-.01.03-.02,0,0,0,0,0,0,0,0,.02-.01.03-.02,0,0,0,0,0,0,0,0,.02-.01.03-.02,0,0,0,0,0,0,0,0,.02-.01.03-.02,0,0,0,0,0,0,0,0,.02-.01.03-.02,0,0,0,0,.01,0,0,0,.02,0,.03-.02,0,0,0,0,0,0,.01,0,.02-.01.03-.02,0,0,0,0,0,0,0,0,.02-.01.03-.02,0,0,0,0,0,0,0,0,.02-.01.03-.02,0,0,0,0,0,0,.01,0,.02-.01.03-.02,0,0,0,0,0,0,0,0,.02-.01.03-.02,0,0,0,0,0,0,0,0,.02-.01.03-.02,0,0,0,0,0,0,0,0,.02,0,.03-.02,0,0,0,0,0,0,0,0,.02-.01.03-.02,0,0,0,0,.01,0,0,0,.02-.01.03-.02,0,0,0,0,0,0,.01,0,.02-.01.03-.02,0,0,0,0,.01,0,0,0,.02-.01.03-.02,0,0,0,0,0,0,0,0,.02-.01.03-.02,0,0,0,0,.01,0,.01,0,.02-.01.03-.02,0,0,0,0,0,0,0,0,.02-.01.03-.02,0,0,0,0,0,0,0,0,.02-.01.03-.02,0,0,0,0,0,0,0,0,.01,0,.02-.02,0,0,0,0,.01,0,0,0,.02-.01.03-.02,0,0,0,0,.01,0,0,0,.02,0,.02-.02,0,0,0,0,0,0,.01,0,.02-.01.03-.02,0,0,0,0,.01,0,0,0,.02-.01.02-.02,0,0,0,0,.01,0,0,0,.02-.01.03-.02,0,0,0,0,.01,0,0,0,.02-.01.03-.02,0,0,0,0,0,0,0,0,.02-.01.03-.02,0,0,0,0,0,0,0,0,.02-.01.03-.02,0,0,0,0,0,0,0,0,.02,0,.02-.02,0,0,0,0,0,0,0,0,.02-.01.03-.02,0,0,0,0,.01,0,0,0,.02,0,.02-.02,0,0,0,0,0,0,.01,0,.02-.01.03-.02,0,0,0,0,.01,0,0,0,.02-.01.03-.02,0,0,0,0,0,0,.01,0,.02-.01.03-.02,0,0,0,0,.01,0,.01,0,.02-.01.03-.02,0,0,0,0,0,0,0,0,.02-.01.03-.02,0,0,0,0,.01,0,.01,0,.02-.01.03-.02,0,0,0,0,0,0,0,0,.02-.01.03-.02,0,0,0,0,0,0,0,0,.02-.01.03-.02,0,0,0,0,0,0,0,0,.02-.01.03-.02,0,0,0,0,0,0,.01,0,.02-.01.03-.02,0,0,0,0,0,0,0,0,.02-.01.03-.02,0,0,0,0,0,0,.01,0,.02-.01.03-.02,0,0,0,0,0,0,0,0,.02-.01.03-.02,0,0,0,0,0,0,0,0,.02-.01.02-.02,0,0,0,0,.01,0,0,0,.02-.01.03-.02,0,0,0,0,0,0,0,0,.02-.01.03-.02,0,0,0,0,0,0,0,0,.02-.01.03-.02,0,0,0,0,0,0,0,0,.02-.01.03-.02,0,0,0,0,0,0,0,0,.02-.01.03-.02,0,0,0,0,0,0,0,0,.02-.01.03-.02,0,0,0,0,0,0,.01,0,.02-.01.03-.02,0,0,0,0,.01,0,.01,0,.02-.01.03-.02,0,0,0,0,0,0,0,0,.02-.01.03-.02,0,0,0,0,.01,0,.01,0,.02-.01.03-.02,0,0,0,0,0,0,0,0,.02-.01.02-.02,0,0,0,0,.01,0,0,0,.02-.01.03-.02,0,0,0,0,0,0,0,0,.02-.01.03-.02,0,0,0,0,0,0,0,0,.02-.01.03-.02,0,0,0,0,.01,0,0,0,.02-.01.02-.02,0,0,0,0,.01,0,0,0,.02-.01.03-.02,0,0,0,0,.01,0,0,0,.02-.01.03-.02,0,0,0,0,0,0,0,0,.02-.01.03-.02,0,0,0,0,0,0,0,0,.02-.01.03-.02,0,0,0,0,0,0,0,0,.01,0,.02-.02,0,0,0,0,.01,0,0,0,.02-.01.03-.02,0,0,0,0,0,0,0,0,.01,0,.02-.02,0,0,0,0,0,0,0,0,.02-.01.03-.02,0,0,0,0,.01,0,0,0,.01-.01.02-.02,0,0,0,0,0,0,.01,0,.02-.01.03-.02,0,0,0,0,.01,0,0,0,.02-.01.02-.02,0,0,0,0,0,0,0,0,.02-.01.03-.02,0,0,0,0,.01,0,.01,0,.02-.01.03-.02,0,0,0,0,0,0,0,0,.02-.01.02-.02,0,0,0,0,.01,0,0,0,.02-.01.03-.02,0,0,0,0,.01,0,0,0,.01-.01.02-.01,0,0,0,0,.01,0,0,0,.02-.01.03-.02,0,0,0,0,.01,0,0,0,.01,0,.02-.02,0,0,0,0,0,0,0,0,.02-.01.03-.02,0,0,0,0,.01,0,0,0,.02-.01.02-.02,0,0,0,0,.01,0,0,0,.02-.01.02-.02,0,0,0,0,.01,0,0,0,.02-.01.02-.02,0,0,0,0,.01,0,0,0,.01-.01.02-.01,0,0,0,0,.01,0,0,0,.02-.01.03-.02,0,0,0,0,.01,0,0,0,.01,0,.02-.01,0,0,0,0,.01,0,0,0,.02-.01.03-.02,0,0,0,0,.01,0,0,0,.01-.01.02-.01,0,0,0,0,.01,0,0,0,.02-.01.03-.02,0,0,0,0,.01,0,0,0,.01-.01.02-.02,0,0,0,0,.01,0,0,0,.02-.01.02-.02,0,0,0,0,.01,0,0,0,.01-.01.02-.02,0,0,.01,0,.02-.01,0,0,.01,0,.02-.01,0,0,0,0,.01-.01,0,0,.02-.01.03-.02,0,0,0,0,.01,0,0,0,.01,0,.02-.01,0,0,0,0,.01,0,0,0,.02-.01.03-.02,0,0,0,0,.01,0,0,0,.01,0,.02-.01,0,0,0,0,.01,0,0,0,.02-.01.03-.02,0,0,0,0,.01,0,0,0,.01,0,.02-.01,0,0,0,0,.01-.01,0,0,.01-.01.02-.02,0,0,0,0,.01,0,0,0,.02-.01.02-.02,0,0,.01,0,.02-.01,0,0,.01,0,.02-.01,0,0,0,0,.01,0,0,0,.02-.01.03-.02,0,0,0,0,.01,0,0,0,.01,0,.02-.01,0,0,0,0,.01,0,0,0,.02-.01.03-.02,0,0,0,0,.01,0,0,0,.01,0,.02-.01,0,0,0,0,.01,0,0,0,.02-.01.03-.02,0,0,0,0,.01,0,0,0,.01,0,.02-.01,0,0,0,0,.01-.01,0,0,.02-.01.02-.02,0,0,0,0,.01-.01,0,0,.01-.01.02-.02,0,0,0,0,.01,0,0,0,.02-.01.02-.02,0,0,0,0,.01,0,0,0,.02-.01.03-.02,0,0,0,0,.01,0,0,0,.01-.01.02-.01,0,0,0,0,.01,0,0,0,.02-.01.03-.02,0,0,0,0,.01,0,0,0,.01,0,.02-.01,0,0,0,0,.01,0,0,0,.02-.01.03-.02,0,0,0,0,.01,0,0,0,.01,0,.02-.01,0,0,.01,0,.02-.01,0,0,.01-.01.02-.02,0,0,0,0,.01,0,0,0,.01-.01.02-.02,0,0,.01,0,.02-.01,0,0,.01,0,.02-.02,0,0,0,0,.01,0,0,0,.02-.01.03-.02,0,0,0,0,.01,0,0,0,.01-.01.02-.01,0,0,0,0,.01,0,0,0,.02-.01.03-.02,0,0,0,0,.01-.01,0,0,.01,0,.02-.01,0,0,.01,0,.01-.01,0,0,.01-.01.02-.02,0,0,.01,0,.01-.01,0,0,.01,0,.02-.01,0,0,.01,0,.02-.01,0,0,.01-.01.02-.02,0,0,0,0,.01-.01,0,0,.01,0,.02-.01,0,0,.01,0,.02-.01,0,0,.01-.01.02-.01,0,0,0,0,.01-.01,0,0,.01-.01.02-.02,0,0,.01,0,.01-.01,0,0,.01,0,.02-.01,0,0,0,0,.01,0,0,0,.02-.01.03-.02,0,0,0,0,.01-.01,0,0,.01,0,.02-.01,0,0,0,0,.01-.01,0,0,.02-.01.02-.02,0,0,0,0,.01-.01,0,0,.01,0,.02-.01,0,0,.01,0,.02-.01,0,0,.01-.01.02-.02,0,0,0,0,.01-.01,0,0,.01,0,.02-.01,0,0,.01-.01.02-.02,0,0,.01,0,.02-.01,0,0,.01,0,.01-.01,0,0,.01,0,.02-.01,0,0,.01,0,.02-.02,0,0,0,0,.02-.01,0,0,.01,0,.01-.01,0,0,.01-.01.02-.02,0,0,.01,0,.02-.01,0,0,.01,0,.02-.01,0,0,0,0,.01-.01,0,0,.02-.01.02-.02,0,0,0,0,.02-.01,0,0,0,0,.01-.01,0,0,.01-.01.02-.02,0,0,.01,0,.02-.01,0,0,.01,0,.02-.01,0,0,.01,0,.01-.01,0,0,.01-.01.02-.02,0,0,.01,0,.02-.01,0,0,0,0,.02-.01,0,0,.01,0,.02-.01,0,0,.02-.01.02-.02,0,0,0,0,.01-.01,0,0,.01,0,.02-.01,0,0,.01-.01.02-.02,0,0,.01,0,.02-.01,0,0,0,0,.02-.01,0,0,0,0,.01-.01,0,0,.02-.01.02-.02,0,0,0,0,.01-.01,0,0,.01,0,.02-.01,0,0,.01,0,.02-.01,0,0,.01-.01.02-.02,0,0,0,0,.01-.01,0,0,.01,0,.01-.01,0,0,.02-.01.02-.02,0,0,.01,0,.01-.01,0,0,0,0,.02-.01,0,0,0,0,.01-.01,0,0,.02-.01.02-.02,0,0,0,0,.01-.01,0,0,.01,0,.02-.01,0,0,.01,0,.02-.01,0,0,.01-.01.02-.02,0,0,0,0,.02-.01,0,0,0,0,.01-.01,0,0,.02-.01.02-.02,0,0,0,0,.01-.01,0,0,.01,0,.02-.01,0,0,0,0,.01,0,0,0,.02-.01.02-.02,0,0,0,0,.01-.01,0,0,.01,0,.02-.01,0,0,.01-.01.02-.02,0,0,.01,0,.02-.01,0,0,0,0,.01-.01,0,0,.01,0,.02-.01,0,0,.01-.01.02-.02,0,0,.01,0,.02-.01,0,0,0,0,.01-.01,0,0,.01-.01.02-.02,0,0,.01-.01.02-.02,0,0,0,0,.01-.01,0,0,.01,0,.02-.01,0,0,.01-.01.02-.02,0,0,0,0,.02-.01,0,0,0,0,.01-.01,0,0,.01-.01.02-.02,0,0,.01-.01.02-.02,0,0,.01,0,.01-.01,0,0,0,0,.01-.01,0,0,.02-.01.02-.02,0,0,0,0,.01-.01,0,0,0,0,.02-.01,0,0,.01,0,.01-.01,0,0,.02-.01.02-.02,0,0,0,0,.01-.01,0,0,.01,0,.02-.01,0,0,.01,0,.01-.01,0,0,.02-.01.02-.02,0,0,.01,0,.01-.01,0,0,0,0,.01-.01,0,0,.01-.01.02-.02,0,0,0,0,.02-.01,0,0,0,0,.01-.01,0,0,.01,0,.01-.01,0,0,.01-.01.02-.02,0,0,.01,0,.02-.01,0,0,0,0,.01-.01,0,0,.01-.01.02-.02,0,0,.01,0,.02-.01,0,0,0,0,.01-.01,0,0,0,0,.02-.01,0,0,.01-.01.02-.02,0,0,0,0,.01-.01,0,0,.01,0,.02-.01,0,0,.01,0,.01-.01,0,0,.02-.01.02-.02,0,0,0,0,.01-.01,0,0,.01,0,.02-.01,0,0,.01-.01.02-.02,0,0,0,0,.01-.01,0,0,0,0,.01-.01,0,0,.01-.01.02-.02,0,0,.01,0,.02-.01,0,0,0,0,.01-.01,0,0,0,0,.01-.01,0,0,.01-.01.02-.02,0,0,.01,0,.02-.01,0,0,0,0,.01-.01,0,0,.01,0,.02-.01,0,0,.01-.01.02-.02,0,0,.01,0,.02-.01,0,0,0,0,.01-.01,0,0,.01-.01.02-.02,0,0,.01,0,.02-.01,0,0,.01,0,.02-.01,0,0,0,0,.01-.01,0,0,.02-.01.02-.02,0,0,0,0,.01-.01,0,0,0,0,.01-.01,0,0,0,0,.01-.01,0,0,.01-.01.02-.02,0,0,0,0,.01-.01s0,0,.01-.01c0,0,.01-.01.02-.02,0,0,.01-.01.02-.02,0,0,0,0,.01-.01,0,0,0,0,.02-.01,0,0,.01-.01.02-.02,0,0,.01,0,.02-.01,0,0,0,0,.01-.01,0,0,.01,0,.02-.01,0,0,.01-.01.02-.02,0,0,0,0,.01-.01,0,0,.01,0,.02-.01,0,0,0,0,.01-.01,0,0,.02-.01.02-.02,0,0,0,0,.01-.01,0,0,.01,0,.02-.01,0,0,.01-.01.02-.02,0,0,0,0,.01-.01,0,0,0,0,.01-.01,0,0,.02-.01.02-.02,0,0,0,0,.01-.01,0,0,.01,0,.02-.01,0,0,0,0,.01-.01,0,0,.02-.01.03-.02,0,0,0,0,.01-.01,0,0,.01,0,.02-.01,0,0,0,0,.01,0,0,0,.02-.01.03-.02,0,0,0,0,.01-.01,0,0,.01,0,.02-.01,0,0,0,0,.01,0,0,0,.02-.02.03-.02,0,0,0,0,0,0,.02-.02.04-.03.06-.05,0,0,0,0,0,0,.01,0,.02-.02.03-.03,0,0,0,0,0,0,0,0,.01-.01.02-.02,0,0,0,0,0,0,.01-.01.02-.02.03-.03,0,0,0,0,0,0,0,0,.01-.01.02-.02,0,0,0,0,0,0,.01,0,.02-.02.03-.03,0,0,0,0,0,0,0,0,.01,0,.02-.01,0,0,0,0,.01,0,0,0,.02-.02.03-.02,0,0,0,0,0,0,.02-.02.04-.03.05-.05,0,0,0,0,0,0,0,0,.02-.02.03-.03,0,0,0,0,0,0,0,0,.01,0,.02-.01,0,0,0,0,0,0,0,0,.02-.02.03-.03,0,0,0,0,0,0,0,0,.01-.01.02-.01,0,0,0,0,0,0,0,0,.02-.02.03-.03,0,0,0,0,0,0,0,0,.01,0,.02-.01,0,0,0,0,0,0,0,0,.02-.02.03-.03,0,0,0,0,0,0,0,0,.01,0,.02-.01,0,0,0,0,.01-.01,0,0,.02-.02.03-.02,0,0,0,0,0,0,.01,0,.02-.02.03-.03,0,0,0,0,0,0,0,0,.01-.01.02-.02,0,0,0,0,0,0,.01,0,.02-.02.03-.03,0,0,0,0,0,0,0,0,.01,0,.02-.02,0,0,0,0,0,0,0,0,.02-.02.03-.03,0,0,0,0,0,0,0,0,.01-.01.02-.02,0,0,0,0,0,0,.01,0,.02-.02.03-.03,0,0,0,0,0,0,0,0,.01,0,.02-.02,0,0,0,0,0,0,.01,0,.02-.02.03-.03,0,0,0,0,.01,0,.01,0,.02-.02.03-.03,0,0,0,0,0,0,0,0,.01,0,.02-.02,0,0,0,0,0,0,.01,0,.02-.02.03-.03,0,0,0,0,0,0,0,0,.01-.01.02-.02,0,0,0,0,0,0,.01,0,.02-.02.03-.03,0,0,0,0,0,0,0,0,.01-.01.02-.02,0,0,0,0,0,0,.01-.01.02-.02.03-.03,0,0,0,0,0,0,.02-.02.04-.03.06-.05,0,0,0,0,0,0,.01,0,.02-.02.03-.03,0,0,0,0,0,0,0,0,.01,0,.02-.02,0,0,0,0,0,0,.01,0,.02-.02.03-.03,0,0,0,0,0,0,0,0,.01-.01.02-.02,0,0,0,0,0,0,.01,0,.02-.02.03-.03,0,0,0,0,0,0,0,0,.01-.01.02-.02,0,0,0,0,0,0,.01-.01.02-.02.03-.03,0,0,0,0,0,0,.02-.02.04-.03.06-.05,0,0,0,0,0,0,.02-.02.04-.03.05-.05,0,0,0,0,0,0,.01,0,.02-.02.03-.03,0,0,0,0,0,0,0,0,.01-.01.02-.02,0,0,0,0,0,0,.01,0,.02-.02.03-.03,0,0,0,0,0,0,0,0,.01-.01.02-.02,0,0,0,0,0,0,.01-.01.02-.02.03-.03,0,0,0,0,0,0,0,0,.01-.01.02-.02,0,0,0,0,0,0,0,0,.02-.02.03-.03,0,0,0,0,0,0,.02-.02.04-.03.05-.05,0,0,0,0,0,0,.01,0,.02-.02.03-.03,0,0,0,0,0,0,0,0,.01-.01.02-.02,0,0,0,0,0,0,.01,0,.02-.02.03-.03,0,0,0,0,0,0,0,0,.01-.01.02-.02t0,0s.02-.02.03-.03c0,0,0,0,0,0,0,0,.01-.01.02-.02h0s.02-.02.03-.03c0,0,0,0,0,0,.02-.02.04-.03.05-.05,0,0,0,0,0,0,.01-.01.02-.02.03-.03,0,0,0,0,0,0,0,0,.01-.01.02-.02,0,0,0,0,0,0,.01,0,.02-.02.03-.03,0,0,0,0,0,0,0,0,.01-.01.02-.02,0,0,0,0,0,0,0,0,.02-.02.03-.03,0,0,0,0,0,0,0,0,.01-.01.02-.02,0,0,0,0,0,0,.01-.01.02-.02.03-.03,0,0,0,0,0,0,.02-.02.04-.03.05-.05,0,0,0,0,0,0,.02-.02.04-.03.05-.05,0,0,0,0,0,0,.01,0,.02-.02.03-.03,0,0,0,0,0,0,0,0,.01-.01.02-.02,0,0,0,0,0,0,.01,0,.02-.02.03-.03,0,0,0,0,0,0,0,0,.01-.01.02-.02,0,0,0,0,0,0,0,0,.02-.02.03-.03,0,0,0,0,0,0,.02-.02.04-.03.05-.05,0,0,0,0,0,0,.02-.02.04-.04.05-.05,0,0,0,0,0,0,0,0,.02-.02.03-.03,0,0,0,0,0,0,0,0,.01-.01.02-.02,0,0,0,0,0,0,0,0,.02-.02.03-.03,0,0,0,0,0,0,0,0,.01-.01.02-.02,0,0,0,0,0,0,0,0,.02-.02.03-.03,0,0,0,0,0,0,.02-.02.04-.03.05-.05,0,0,0,0,0,0,.02-.02.04-.03.05-.05,0,0,0,0,0,0,.01-.01.02-.02.03-.03,0,0,0,0,0,0,0,0,.01-.01.02-.02,0,0,0,0,0,0,.01-.01.02-.02.03-.03h0s.01-.02.02-.02c0,0,0,0,0,0,.01-.01.02-.02.03-.03,0,0,0,0,0,0,.02-.02.04-.04.06-.06h0s.04-.04.06-.06c0,0,0,0,0,0,.01-.01.02-.02.03-.04,0,0,0,0,0,0,0,0,.01-.01.02-.02,0,0,0,0,0,0,.01-.01.02-.02.03-.03,0,0,0,0,0,0,0,0,.01-.01.02-.02,0,0,0,0,0,0,0,0,.02-.02.03-.03,0,0,0,0,0,0,0,0,.01-.01.02-.02,0,0,0,0,0,0,0,0,.02-.02.03-.03,0,0,0,0,0,0,.02-.02.03-.03.05-.05,0,0,0,0,0,0,.01-.01.02-.02.03-.03,0,0,0,0,0,0,0,0,.01-.01.02-.02,0,0,0,0,0,0,0-.01.02-.02.03-.03,0,0,0,0,0,0,0,0,.01-.01.02-.02,0,0,0,0,0,0,.01-.01.02-.02.03-.03,0,0,0,0,0,0,0,0,.01-.01.02-.02h0s.02-.03.03-.04c0,0,0,0,0,0,.02-.02.03-.04.05-.05,0,0,0,0,0,0,.01-.01.02-.02.03-.03,0,0,0,0,0,0,0,0,.01-.01.02-.02,0,0,0,0,0,0,.01-.01.02-.02.03-.03,0,0,0,0,0,0,0,0,.01-.01.02-.02,0,0,0,0,0,0,.01-.01.02-.02.03-.03,0,0,0,0,0,0,.02-.02.04-.04.05-.06,0,0,0,0,0,0,.02-.02.04-.04.05-.06,0,0,0,0,0,0,.02-.02.04-.04.05-.06,0,0,0,0,0,0,.01-.01.02-.02.03-.04,0,0,0,0,0,0,0,0,.01-.01.02-.02,0,0,0,0,0,0,.01-.01.02-.02.03-.03,0,0,0,0,0,0,.02-.02.04-.04.05-.06,0,0,0,0,0,0,.02-.02.04-.04.05-.06,0,0,0,0,0,0,.02-.02.04-.04.05-.06,0,0,0,0,0,0,.01-.01.02-.02.03-.03,0,0,0,0,0,0,0,0,.01-.01.02-.02,0,0,0,0,0,0,.01-.01.02-.02.03-.03,0,0,0,0,0,0,0,0,.01-.01.02-.02,0,0,0,0,0,0,.01-.01.02-.02.03-.04,0,0,0,0,0,0,.02-.02.04-.04.05-.06,0,0,0,0,0,0,.02-.02.03-.04.05-.06,0,0,0,0,0,0,0-.01.02-.02.03-.03,0,0,0,0,0,0,0,0,.01-.01.02-.02,0,0,0,0,0,0,0-.01.02-.02.03-.03,0,0,0,0,0,0,0,0,.01-.01.02-.02,0,0,0,0,0,0,.01-.01.02-.02.03-.03,0,0,0,0,0,0,.02-.02.03-.04.05-.06,0,0,0,0,0,0,.02-.02.03-.04.05-.06,0,0,0,0,0,0,.02-.02.03-.04.05-.06,0,0,0,0,0,0,.01-.01.02-.02.03-.04h0s.04-.04.05-.06c0,0,0,0,0,0,.02-.02.03-.04.05-.06,0,0,0,0,0,0,.02-.02.03-.04.05-.06h0s.04-.04.05-.06c0,0,0,0,0,0,.01-.01.02-.02.03-.04,0,0,0,0,0,0,0,0,.01-.01.02-.02h0s.02-.03.03-.04c0,0,0,0,0,0,.02-.02.03-.04.05-.06,0,0,0,0,0,0,.02-.02.03-.04.05-.06,0,0,0,0,0,0,.02-.02.03-.04.05-.06,0,0,0,0,0,0,.01-.01.02-.03.03-.04h0s.01-.01.02-.02c0,0,0,0,0,0,.01-.01.02-.03.03-.04,0,0,0,0,0,0,.02-.02.03-.04.05-.06,0,0,0,0,0,0,.02-.02.03-.04.05-.06,0,0,0,0,0,0,.02-.02.03-.04.05-.06,0,0,0,0,0,0,.01-.01.02-.03.03-.04,0,0,0,0,0,0,0,0,.01-.01.02-.02h0s.02-.03.03-.04h0s.04-.04.05-.06c0,0,0,0,0,0,.02-.02.03-.04.05-.06h0s.03-.04.05-.06t0,0s.06-.07.09-.1h0s.03-.04.05-.06c0,0,0,0,0,0,.02-.02.03-.04.05-.06h0s.03-.04.05-.06c0,0,0,0,0,0,.05-.05.09-.11.14-.17,0,0,0,0,0,0,.02-.02.03-.04.05-.06h0s.03-.04.05-.06t0,0s.03-.04.05-.06h0s.02-.03.03-.04h0s.03-.04.05-.06c0,0,0,0,0,0,.02-.02.03-.04.05-.06h0s.03-.04.05-.06c0,0,0,0,0,0,.05-.06.09-.11.14-.17h0s.03-.04.05-.06c0,0,0,0,0,0,.02-.02.03-.04.05-.06,0,0,0,0,0,0,.02-.02.03-.04.05-.06h0s.06-.07.09-.11c0,0,0,0,0,0,.03-.04.07-.08.1-.13h0c.24-.3.48-.61.71-.91h0s.07-.09.1-.13h0s.02-.03.03-.04h0s.03-.05.05-.07c0,0,0,0,0,0,.02-.02.03-.04.05-.06h0s.03-.04.05-.07c0,0,0,0,0,0,.02-.02.03-.04.05-.07h0c.04-.06.09-.12.13-.18h0s.03-.04.05-.07h0c.04-.06.09-.12.13-.18,0,0,0,0,0,0,.02-.02.03-.04.05-.06,0,0,0,0,0,0,.02-.02.03-.04.05-.06,0,0,0,0,0,0,.02-.02.03-.04.05-.06,0,0,0,0,0,0,.03-.04.05-.07.08-.11h0s.03-.04.05-.06c0,0,0,0,0,0,.02-.02.03-.04.05-.06h0s.03-.04.05-.07c0,0,0,0,0,0,0-.01.02-.03.03-.04,0,0,0,0,0,0,0,0,.01-.01.02-.02h0s.02-.03.03-.04h0s.03-.04.05-.07c0,0,0,0,0,0,.01-.02.03-.04.04-.06,0,0,0,0,0,0,.01-.02.03-.04.04-.06,0,0,0,0,0,0,.02-.02.03-.04.05-.06h0s.02-.03.03-.05h0s.03-.04.05-.07c0,0,0,0,0,0,.02-.02.03-.04.05-.07h0s.03-.05.05-.07h0s.03-.05.05-.07h0s.02-.03.03-.04h0s.03-.05.05-.07c0,0,0,0,0,0,.01-.02.03-.04.05-.07h0s.03-.05.04-.07c0,0,0,0,0,0,.01-.02.03-.04.04-.06h0s.05-.07.08-.11c0,0,0,0,0,0,.01-.02.03-.04.04-.07h0s.03-.05.04-.07c0,0,0,0,0,0,0-.01.02-.03.03-.04h0s0-.02.01-.02h0s.03-.05.05-.07c0,0,0,0,0,0,0-.01.02-.03.03-.04,0,0,0,0,0,0,.01-.02.03-.04.04-.06,0,0,0,0,0,0,.01-.02.03-.04.04-.06,0,0,0,0,0,0,.01-.02.03-.04.04-.07h0s.02-.03.03-.05h0s.01-.02.02-.02h0s.02-.03.03-.04c0,0,0,0,0,0,.01-.02.03-.04.04-.07,0,0,0,0,0,0,.02-.02.03-.04.04-.07t0,0s.03-.04.04-.07h0s.03-.05.04-.07c0,0,0,0,0,0,0-.01.02-.03.03-.04h0s.03-.05.04-.07c0,0,0,0,0,0,.01-.02.03-.04.04-.07,0,0,0,0,0,0,.01-.02.03-.04.04-.07t0,0s.03-.04.04-.07h0s.02-.03.03-.04c0,0,0,0,0,0,.01-.02.03-.04.04-.07,0,0,0,0,0,0,.01-.02.03-.04.04-.07h0s.03-.05.04-.07c0,0,0,0,0,0,.04-.06.08-.12.12-.18,0,0,0,0,0,0,.01-.02.03-.04.04-.07,0,0,0,0,0,0,.01-.02.03-.04.04-.07,0,0,0,0,0,0,.01-.02.03-.05.04-.07h0s.02-.03.03-.05h0s.03-.05.04-.07c0,0,0,0,0,0,0,0,0-.01.01-.02h0s.02-.03.03-.04c0,0,0,0,0,0,.01-.02.03-.04.04-.06,0,0,0,0,0,0,.01-.02.03-.04.04-.06,0,0,0,0,0,0,0-.01.02-.03.03-.04h0s0-.02.01-.03c0,0,0,0,0,0,0-.01.02-.03.03-.04,0,0,0,0,0,0,.01-.02.03-.04.04-.07,0,0,0,0,0,0,.01-.02.03-.04.04-.07,0,0,0,0,0,0,.01-.02.03-.04.04-.07,0,0,0,0,0,0,0-.01.02-.03.02-.04,0,0,0,0,0,0,.01-.02.03-.04.04-.07,0,0,0,0,0,0,.01-.02.03-.04.04-.07,0,0,0,0,0,0,.01-.02.03-.04.04-.07,0,0,0,0,0,0,.01-.02.03-.04.04-.07,0,0,0,0,0,0,0-.01.02-.03.02-.04,0,0,0,0,0,0,0,0,0-.01.01-.02,0,0,0,0,0,0,0-.01.02-.03.02-.04,0,0,0,0,0,0,0,0,0-.01.01-.02t0,0s.02-.03.02-.04c0,0,0,0,0,0,.01-.02.02-.04.04-.06,0,0,0,0,0,0,0-.01.01-.02.02-.03,0,0,0,0,0,0,0,0,0-.01.01-.02,0,0,0,0,0,0,0-.01.01-.02.02-.04,0,0,0,0,0,0,0,0,0-.01.01-.02,0,0,0,0,0,0,0-.01.01-.02.02-.04,0,0,0,0,0,0,0,0,0-.01.01-.02,0,0,0,0,0,0,0-.01.01-.02.02-.04,0,0,0,0,0,0,.01-.02.02-.04.04-.06,0,0,0,0,0-.01,0-.01.01-.02.02-.03,0,0,0,0,0-.01,0,0,0-.01.01-.02,0,0,0,0,0-.01,0-.01.01-.02.02-.03,0,0,0,0,0-.01,0,0,0-.01.01-.02,0,0,0,0,0-.01,0-.01.01-.02.02-.03,0,0,0,0,0,0,0,0,0-.01.01-.02,0,0,0,0,0,0,0-.01.01-.02.02-.04,0,0,0,0,0-.01,0,0,0-.01.01-.02,0,0,0,0,0,0,0-.01.01-.02.02-.04,0,0,0,0,0-.01,0-.01.02-.03.02-.04h0s0-.01.01-.02c0,0,0,0,0-.01,0-.01.01-.02.02-.03,0,0,0,0,0-.01,0,0,0-.01.01-.02,0,0,0,0,0,0,0-.01.01-.02.02-.04,0,0,0,0,0,0,0,0,0-.01.01-.02,0,0,0,0,0,0l.02-.04s0,0,0-.01c.01-.02.02-.04.04-.06,0,0,0,0,0,0,.01-.02.02-.04.04-.06,0,0,0,0,0-.01,0-.01.01-.02.02-.03,0,0,0,0,0,0,0,0,0-.01.01-.02,0,0,0,0,0-.01,0,0,.01-.02.02-.03,0,0,0,0,0-.01,0,0,0-.01.01-.02,0,0,0,0,0-.01,0-.01.01-.02.02-.03,0,0,0,0,0-.01,0,0,0-.01.01-.02,0,0,0,0,0-.01,0-.01.01-.02.02-.03,0,0,0,0,0-.01,0,0,0-.01,0-.02,0,0,0-.02.01-.03,0,0,0-.01,0-.02,0,0,0,0,0-.01,0,0,.01-.02.02-.03,0,0,0,0,0-.01,0,0,0-.01.01-.02,0,0,0,0,0-.01,0,0,.01-.02.02-.03,0,0,0,0,0-.01,0,0,0-.01,0-.02,0,0,0-.01.01-.02,0,0,0-.01.01-.02,0,0,0-.01,0-.02,0,0,0-.01,0-.02,0,0,.01-.02.01-.03,0,0,0-.01,0-.02,0,0,0-.01,0-.02,0,0,0-.01,0-.02,0,0,0-.02.01-.03,0,0,0,0,0-.02,0,0,0-.01,0-.02,0,0,0-.02.01-.02,0,0,0-.01.01-.02,0,0,0-.01,0-.02,0,0,0-.01,0-.02,0,0,0-.02.01-.02,0,0,0-.01.01-.02,0,0,0,0,0-.02,0,0,0-.01.01-.02,0,0,0-.01.01-.02,0,0,0-.01,0-.02,0,0,0-.01,0-.02,0,0,0-.01.01-.02,0,0,0-.01.01-.02,0,0,0-.01,0-.01,0,0,0-.01,0-.02,0,0,0-.02.01-.03,0,0,0-.01,0-.02,0,0,0,0,0-.02,0,0,0-.01,0-.02,0,0,0-.01.01-.02,0,0,0-.01,0-.02,0,0,0-.01,0-.02,0,0,0-.02.01-.02,0,0,0-.01,0-.02,0,0,0-.01,0-.02,0,0,0-.01,0-.02,0,0,0-.02.01-.02,0,0,0-.01,0-.02,0,0,0-.01,0-.02,0,0,0-.02.01-.03,0,0,0-.01,0-.02,0,0,0,0,0-.02,0,0,0-.01,0-.02,0,0,0-.02.01-.03,0,0,0-.01,0-.02,0,0,0-.01,0-.02,0,0,0-.01,0-.02,0,0,0-.01.01-.02,0,0,0-.01,0-.02,0,0,0-.01,0-.02,0,0,0-.01.01-.02,0,0,0-.01.01-.02,0,0,0-.01,0-.02,0,0,0-.01.01-.02,0,0,0-.01.01-.02,0,0,0-.01,0-.02,0,0,0-.01,0-.01,0,0,0-.01.01-.02,0,0,0-.01.01-.02,0,0,0-.01,0-.02,0,0,0,0,0-.01,0,0,.01-.02.01-.03,0,0,0,0,0-.01,0,0,0-.01,0-.02,0,0,0,0,0-.01,0,0,0-.02.01-.03,0,0,0-.01,0-.02,0,0,0-.01,0-.02,0,0,0-.01,0-.02,0,0,0-.02.01-.02,0,0,0,0,0-.01,0,0,0-.02.01-.02,0,0,0-.01.01-.02,0,0,0-.01,0-.02,0,0,0-.01,0-.02,0,0,.01-.02.01-.03,0,0,0,0,0-.01,0,0,0-.01.01-.02,0,0,0-.01,0-.01,0,0,0-.02.01-.03,0,0,0,0,0-.01,0,0,0-.01.01-.02,0,0,0,0,0-.01,0,0,0-.02.01-.03,0,0,0,0,0-.01,0,0,0-.01,0-.02,0,0,0-.01,0-.02,0,0,0-.02.01-.02,0,0,0-.01,0-.02,0,0,0-.01,0-.02,0,0,0-.02.01-.02,0,0,0-.01.01-.02,0,0,0,0,0-.01,0,0,0-.01.01-.02,0,0,0-.01,0-.02,0,0,0-.01.01-.02,0,0,0,0,0-.01,0,0,0-.02.01-.03,0,0,0,0,0-.01,0,0,0-.02.01-.02,0,0,0,0,0-.01,0,0,.01-.02.02-.03,0,0,0,0,0-.01,0,0,0-.01.01-.02,0,0,0,0,0,0,0-.01,0-.02.01-.03,0,0,0,0,0-.01,0,0,0-.02.01-.02,0,0,0,0,0-.01,0,0,0-.02.01-.03,0,0,0,0,0-.01,0-.01.01-.02.02-.03,0,0,0,0,0,0,0,0,0-.02.01-.02,0,0,0,0,0-.01,0,0,0-.02.01-.03,0,0,0,0,0-.01,0,0,0-.02.01-.02,0,0,0,0,0-.01,0,0,.01-.02.01-.03,0,0,0,0,0-.01,0,0,0-.02.01-.02,0,0,0,0,0-.01,0,0,.01-.02.01-.03,0,0,0,0,0-.01,0,0,0-.02.01-.03,0,0,0,0,0,0v-.03s.02,0,.02-.01c0,0,0-.02.01-.03,0,0,0,0,0,0,0,0,0-.02.01-.03,0,0,0,0,0-.01,0,0,.01-.02.02-.03,0,0,0,0,0-.01,0,0,0-.01.01-.02,0,0,0,0,0-.01,0,0,.01-.02.01-.03,0,0,0,0,0-.01,0,0,0-.02.01-.03,0,0,0,0,0,0,0-.01.01-.02.02-.03,0,0,0,0,0,0,0,0,0-.02.01-.03,0,0,0,0,0,0,0-.01.01-.02.02-.03,0,0,0,0,0-.01,0-.01.01-.02.02-.03,0,0,0,0,0,0,0,0,0-.02.01-.03,0,0,0,0,0-.01,0-.01,0-.02.02-.03,0,0,0,0,0,0,0,0,0-.02.01-.03,0,0,0,0,0-.01,0,0,.01-.02.01-.03,0,0,0,0,0-.01,0,0,0-.02.01-.03,0,0,0,0,0,0,0-.01.01-.02.02-.03,0,0,0,0,0,0,0,0,0-.02.01-.03,0,0,0,0,0,0,0-.01.01-.02.02-.03,0,0,0,0,0,0,0-.01.01-.02.02-.03,0,0,0,0,0,0,0,0,.01-.02.01-.03,0,0,0,0,0,0,0-.01.01-.02.02-.03,0,0,0,0,0,0,0,0,0-.02.01-.03,0,0,0,0,0,0,0-.01.01-.02.02-.03,0,0,0,0,0,0,0,0,.01-.02.02-.03,0,0,0,0,0,0,0-.01.01-.02.02-.03,0,0,0,0,0,0,0-.01.01-.02.02-.03h0s.01-.03.02-.04c0,0,0,0,0,0,.01-.02.02-.05.03-.07,0,0,0,0,0,0,0-.01.01-.02.02-.03,0,0,0,0,0,0,0,0,.01-.02.02-.03,0,0,0,0,0,0,0-.01.01-.02.02-.03,0,0,0,0,0,0,0,0,.01-.02.01-.03,0,0,0,0,0,0,0-.01.01-.02.02-.04,0,0,0,0,0,0,0-.01.01-.02.01-.03h0s.01-.03.02-.04c0,0,0,0,0,0,.01-.02.02-.05.03-.07,0,0,0,0,0,0,0-.01.01-.02.02-.04,0,0,0,0,0,0,0-.01,0-.02.01-.03,0,0,0,0,0,0,0-.01.01-.02.02-.03,0,0,0,0,0,0,0,0,.01-.02.01-.03,0,0,0,0,0,0,0-.01,0-.02.02-.03,0,0,0,0,0,0,0-.01.01-.02.02-.03h0s.01-.03.02-.04c0,0,0,0,0,0,.01-.02.02-.05.03-.07,0,0,0,0,0,0,.01-.03.02-.05.03-.07,0,0,0,0,0,0,.01-.03.02-.05.03-.08h0s.01-.03.02-.04t0,0s.01-.02.02-.04h0s.01-.03.02-.04c0,0,0,0,0,0,.01-.03.02-.05.03-.08h0s.02-.05.03-.08h0s.03-.08.05-.12c0,0,0,0,0,0,.01-.03.02-.05.03-.08t0,0s.02-.05.03-.08h0c1.19-2.75,2.16-5.6,2.9-8.51h0Zm-1.06-31.74l-11.41,3.72c.51,1.55.93,3.14,1.27,4.73l11.74-2.48c-.17-.79-.35-1.58-.55-2.37,0,0,0,0,0,0,0-.01,0-.03-.01-.04,0,0,0,0,0,0,0-.01,0-.03-.01-.04,0,0,0,0,0,0,0-.01,0-.03-.01-.04,0,0,0,0,0,0,0-.01,0-.03-.01-.04,0,0,0,0,0,0,0-.01,0-.03-.01-.04,0,0,0,0,0,0,0-.01,0-.03-.01-.04,0,0,0,0,0,0-.04-.14-.08-.29-.12-.43,0,0,0,0,0,0,0-.01,0-.02,0-.04,0,0,0,0,0,0,0-.01,0-.02,0-.03,0,0,0,0,0-.01,0-.01,0-.02,0-.03h0s0-.03,0-.04c0,0,0,0,0-.01,0-.01,0-.02,0-.03,0,0,0,0,0-.01,0-.01,0-.02,0-.03,0,0,0,0,0-.01,0-.01,0-.02,0-.03,0,0,0,0,0-.01,0-.01,0-.02,0-.03,0,0,0,0,0,0,0-.01,0-.02,0-.04,0,0,0,0,0,0,0-.01,0-.02-.01-.04,0,0,0,0,0,0-.02-.08-.05-.17-.07-.25,0,0,0,0,0,0,0-.01,0-.02,0-.03,0,0,0,0,0-.01,0-.01,0-.02,0-.03,0,0,0,0,0-.01,0,0,0-.02,0-.03,0,0,0,0,0-.01,0,0,0-.02,0-.03,0,0,0-.01,0-.02,0,0,0-.02,0-.03,0,0,0-.01,0-.02,0,0,0-.02,0-.03,0,0,0-.01,0-.02,0,0,0-.02,0-.03,0,0,0-.01,0-.02,0,0,0-.02,0-.03,0,0,0-.01,0-.02,0,0,0-.02,0-.03,0,0,0-.01,0-.02,0,0,0-.02,0-.03,0,0,0-.01,0-.02,0,0,0-.02,0-.03,0,0,0,0,0-.01,0-.01,0-.02,0-.03,0,0,0,0,0-.01,0-.01,0-.02-.01-.03,0,0,0,0,0,0-.01-.04-.02-.08-.04-.12,0,0,0,0,0,0,0-.01,0-.02,0-.03,0,0,0-.01,0-.02,0,0,0-.02,0-.03,0,0,0-.01,0-.02,0,0,0-.02,0-.02,0,0,0-.01,0-.02,0,0,0-.02,0-.02,0,0,0-.01,0-.02,0,0,0-.02,0-.02,0,0,0-.01,0-.02,0,0,0-.01,0-.02,0,0,0-.01,0-.02,0,0,0-.02,0-.02,0,0,0-.01,0-.02,0,0,0-.02,0-.02,0,0,0-.01,0-.02,0,0,0-.02,0-.02,0,0,0-.01,0-.02,0,0,0-.01,0-.02,0,0,0-.02,0-.02,0,0,0-.02,0-.02,0,0,0-.01,0-.02,0,0,0-.01,0-.02,0,0,0-.02,0-.02,0,0,0-.01,0-.02,0,0,0-.02,0-.02,0,0,0-.02,0-.02,0,0,0-.02,0-.02,0,0,0-.01,0-.02,0,0,0-.02,0-.03,0,0,0-.01,0-.02,0-.01,0-.03-.01-.04,0,0,0-.01,0-.02,0,0,0-.02,0-.02,0,0,0-.01,0-.02,0,0,0-.02,0-.03,0,0,0-.01,0-.02,0,0,0-.02,0-.03,0,0,0-.01,0-.02,0,0,0-.02,0-.02,0,0,0-.01,0-.02,0,0,0-.02,0-.02,0,0,0-.01,0-.02,0,0,0-.02,0-.02,0,0,0-.01,0-.02,0,0,0-.02,0-.02,0,0,0-.01,0-.02,0,0,0-.02,0-.02,0,0,0-.01,0-.02,0,0,0-.02,0-.02,0,0,0-.01,0-.02,0,0,0-.02,0-.02,0,0,0-.01,0-.02,0,0,0-.02,0-.02,0,0,0-.01,0-.02,0,0,0-.02,0-.02,0,0,0-.01,0-.02,0,0,0-.02,0-.03,0,0,0-.01,0-.02,0,0,0-.02,0-.03,0,0,0-.01,0-.02,0,0,0-.02,0-.03,0,0,0-.01,0-.02,0-.01,0-.03-.01-.05h0Z"/>
  <circle class="cls-2" cx="57.5" cy="57.5" r="57"/>
  <circle class="cls-2" cx="57.5" cy="57.5" r="16.34"/>
</svg>