<?xml version="1.0" encoding="UTF-8"?>
<svg id="Layer_1" data-name="Layer 1" xmlns="http://www.w3.org/2000/svg" viewBox="0 0 191.56 84.72">
  <defs>
    <style>
      .cls-1 {
        opacity: .55;
      }

      .cls-2 {
        fill: #fcfcfc;
      }
    </style>
  </defs>
  <polygon class="cls-2" points="3.26 14.45 3.06 14.45 3.06 6.11 7.06 2.1 74.81 2.1 74.81 2.31 7.14 2.31 3.26 6.19 3.26 14.45"/>
  <polygon class="cls-2" points=".98 58.32 .78 58.32 .78 16.58 6.79 10.56 6.79 4.5 7 4.5 7 10.65 .98 16.66 .98 58.32"/>
  <polygon class="cls-2" points="29.98 83.58 8.54 83.58 3.79 78.83 3.79 55.85 3.99 55.85 3.99 78.75 8.62 83.38 29.89 83.38 33.34 79.93 91.74 79.93 91.74 80.13 33.43 80.13 29.98 83.58"/>
  <polygon class="cls-2" points="5.53 4.65 4.66 3.78 6.85 1.59 22.87 1.59 22.87 2.82 7.36 2.82 5.53 4.65"/>
  <polygon class="cls-2" points="1.5 29.96 .26 29.96 .26 26.31 2.19 24.38 3.06 25.25 1.5 26.82 1.5 29.96"/>
  <polygon class="cls-2" points="30.19 84.1 25.15 84.1 25.15 82.86 29.68 82.86 31.1 81.44 31.97 82.32 30.19 84.1"/>
  <rect class="cls-2" x="3.27" y="54.72" width="1.23" height="4.11"/>
  <rect class="cls-2" x="70.87" y="3.48" width="3.36" height="1.17"/>
  <g class="cls-1">
    <polygon class="cls-2" points="69.67 4.32 30.75 4.32 29.87 3.44 30.01 3.29 30.83 4.11 69.67 4.11 69.67 4.32"/>
  </g>
  <g class="cls-1">
    <polygon class="cls-2" points="7.54 66.72 7.33 66.72 7.33 51.59 2.53 46.78 2.53 31.69 2.73 31.69 2.73 46.69 7.54 51.5 7.54 66.72"/>
  </g>
  <rect class="cls-2" x="8.23" y="62.59" width=".67" height="4.13"/>
  <g class="cls-1">
    <polygon class="cls-2" points="31.61 79.41 31.46 79.26 32.95 77.77 69.29 77.77 69.29 77.98 33.04 77.98 31.61 79.41"/>
  </g>
  <path class="cls-2" d="m52.08,80.06l.88-.88h6.27s.96.84.84.84-7.99.04-7.99.04Z"/>
  <path class="cls-2" d="m.88,43.46l-.88-.88v-6.27s.84-.96.84-.84.04,7.99.04,7.99Z"/>
  <path class="cls-2" d="m45.55,2.21l.88-.88h6.27s.96.84.84.84-7.99.04-7.99.04Z"/>
  <polygon class="cls-2" points="188.5 14.45 188.3 14.45 188.3 6.19 184.41 2.31 116.75 2.31 116.75 2.1 184.5 2.1 188.5 6.11 188.5 14.45"/>
  <polygon class="cls-2" points="190.78 58.32 190.58 58.32 190.58 16.66 184.56 10.65 184.56 4.5 184.77 4.5 184.77 10.56 190.78 16.58 190.78 58.32"/>
  <polygon class="cls-2" points="183.02 83.58 161.58 83.58 158.13 80.13 99.82 80.13 99.82 79.93 158.22 79.93 161.67 83.38 182.94 83.38 187.57 78.75 187.57 55.85 187.77 55.85 187.77 78.83 183.02 83.58"/>
  <polygon class="cls-2" points="186.03 4.65 184.2 2.82 168.69 2.82 168.69 1.59 184.71 1.59 186.9 3.78 186.03 4.65"/>
  <polygon class="cls-2" points="191.3 29.96 190.06 29.96 190.06 26.82 188.49 25.25 189.37 24.38 191.3 26.31 191.3 29.96"/>
  <polygon class="cls-2" points="166.41 84.1 161.37 84.1 159.59 82.32 160.46 81.44 161.88 82.86 166.41 82.86 166.41 84.1"/>
  <rect class="cls-2" x="187.05" y="54.72" width="1.23" height="4.11"/>
  <rect class="cls-2" x="117.33" y="3.48" width="3.36" height="1.17" transform="translate(238.03 8.12) rotate(180)"/>
  <g class="cls-1">
    <polygon class="cls-2" points="160.81 4.32 121.89 4.32 121.89 4.11 160.73 4.11 161.54 3.29 161.69 3.44 160.81 4.32"/>
  </g>
  <g class="cls-1">
    <polygon class="cls-2" points="184.23 66.72 184.02 66.72 184.02 51.5 188.83 46.69 188.83 31.69 189.03 31.69 189.03 46.78 184.23 51.59 184.23 66.72"/>
  </g>
  <rect class="cls-2" x="182.66" y="62.59" width=".67" height="4.13" transform="translate(365.98 129.31) rotate(180)"/>
  <g class="cls-1">
    <polygon class="cls-2" points="159.95 79.41 158.52 77.98 122.27 77.98 122.27 77.77 158.61 77.77 160.1 79.26 159.95 79.41"/>
  </g>
  <path class="cls-2" d="m139.48,80.06l-.88-.88h-6.27s-.96.84-.84.84,7.99.04,7.99.04Z"/>
  <path class="cls-2" d="m190.68,43.46l.88-.88v-6.27s-.84-.96-.84-.84-.04,7.99-.04,7.99Z"/>
  <path class="cls-2" d="m146.01,2.21l-.88-.88h-6.27s-.96.84-.84.84,7.99.04,7.99.04Z"/>
  <polygon class="cls-2" points="80.5 82.31 93.53 82.31 95.94 84.72 98.45 82.21 111.17 82.21 111.85 81.53 96.59 81.53 96.07 81.01 95.51 81.57 79.78 81.57 80.5 82.31"/>
  <g class="cls-1">
    <path class="cls-2" d="m82.9,77.74h9.14l.74.74h5.79l.76-.76h7.84l.46.46h6.56l-.45-.45h-5.51l-.57-.57h-25.18l-.88.88h-5.53s.51.52.52.52h5.77l.53-.82Z"/>
  </g>
  <polygon class="cls-2" points="75.64 1.77 77.41 0 111.15 0 112.9 1.75 75.64 1.77"/>
  <polygon class="cls-2" points="107.2 1.02 106.08 2.14 84.79 2.14 83.68 1.03 107.2 1.02"/>
  <polygon class="cls-2" points="104.19 1.95 103.36 2.78 87.51 2.78 86.69 1.96 104.19 1.95"/>
  <polygon class="cls-2" points="85.29 4.15 76.09 4.15 76.09 3.94 85.21 3.94 86.28 2.87 86.42 3.01 85.29 4.15"/>
  <polygon class="cls-2" points="85.49 4.68 82.66 4.68 82.66 3.44 84.98 3.44 85.5 2.92 86.37 3.79 85.49 4.68"/>
  <polygon class="cls-2" points="114.7 4.15 105.5 4.15 104.37 3.01 104.52 2.87 105.59 3.94 114.7 3.94 114.7 4.15"/>
  <polygon class="cls-2" points="108.14 4.68 105.31 4.68 104.42 3.79 105.3 2.92 105.82 3.44 108.14 3.44 108.14 4.68"/>
  <g class="cls-1">
    <polygon class="cls-2" points="3.48 80.38 7.08 83.98 3.48 83.98 3.48 80.38"/>
  </g>
  <g class="cls-1">
    <polygon class="cls-2" points="184.23 83.98 187.83 80.38 187.83 83.98 184.23 83.98"/>
  </g>
</svg>