<?xml version="1.0" encoding="UTF-8"?>
<svg id="Layer_1" data-name="Layer 1" xmlns="http://www.w3.org/2000/svg" viewBox="0 0 346.04 372.21">
  <defs>
    <style>
      .cls-1 {
        opacity: .3;
      }

      .cls-2 {
        stroke-width: .36px;
      }

      .cls-2, .cls-3 {
        fill: none;
        stroke: #ffed00;
        stroke-miterlimit: 10;
      }

      .cls-3 {
        stroke-width: .73px;
      }

      .cls-4 {
        fill: #ffed00;
      }
    </style>
  </defs>
  <g>
    <polyline class="cls-3" points="4.44 14.83 11.61 7.66 41.64 7.66 48.26 1.04 311.14 1.04 324.64 14.53 324.64 362.19 314.99 371.84 24.68 371.84 15.47 362.64 6.81 362.64"/>
    <polyline class="cls-3" points="11.18 16.18 7.72 19.64 7.72 101.52 12.54 106.34 12.54 143.39"/>
    <polygon class="cls-4" points="10.13 22.71 10.13 98.48 11.84 100.19 11.84 33.29 12.85 32.29 12.85 19.84 10.13 22.71"/>
    <polyline class="cls-3" points="14.1 141.27 14.1 146.62 9.46 151.27 .36 151.27 .36 229.22 4.32 233.17 4.32 355.63"/>
    <polygon class="cls-4" points="16.83 4.64 21.84 4.64 26.48 0 21.11 0 16.83 4.64"/>
    <polygon class="cls-4" points="23.8 4.64 28.82 4.64 33.45 0 28.09 0 23.8 4.64"/>
    <polygon class="cls-4" points="30.77 4.64 35.79 4.64 40.43 0 35.06 0 30.77 4.64"/>
    <g>
      <rect class="cls-4" x="33.09" y="12.36" width="271.84" height="41.53"/>
      <g>
        <g>
          <g>
            <g>
              <g class="cls-1">
                <path class="cls-4" d="m316,44.17c-.77.45-1.74-.11-1.74-1v-19.3c0-.89.97-1.45,1.74-1v21.31Z"/>
              </g>
              <path class="cls-4" d="m316.08,44.33c-.42.24-.92.24-1.34,0-.42-.24-.67-.67-.67-1.16v-19.3c0-.48.25-.92.67-1.16.42-.24.92-.24,1.34,0v21.61Zm-.18-21.31c-.31-.18-.68-.18-.98,0-.31.18-.49.5-.49.85v19.3c0,.36.18.67.49.85.31.18.68.18.98,0v-21Z"/>
            </g>
            <g>
              <g>
                <path class="cls-4" d="m319.62,24.17l.8-.22-.8.22Z"/>
                <path class="cls-4" d="m319.47,24.15l.96-.26-.96.26Zm.94-.14l-.65.18.65-.18Z"/>
              </g>
              <g>
                <polygon class="cls-4" points="319.74 23.53 318.75 22.96 317.92 23.18 319.05 23.83 319.88 23.6 319.74 23.53"/>
                <path class="cls-4" d="m320.03,23.62l-.99.27-1.27-.72.98-.27,1.27.72Zm-.97.15l.67-.18h-.01s-.97-.56-.97-.56l-.67.18.99.56Z"/>
              </g>
              <g>
                <polygon class="cls-4" points="318.04 22.55 317.67 22.34 316.84 22.57 317.34 22.85 318.17 22.63 318.04 22.55"/>
                <path class="cls-4" d="m318.32,22.65l-.99.27-.64-.37.98-.27.64.36Zm-.97.15l.67-.18h-.01s-.35-.21-.35-.21l-.67.18.36.21Z"/>
              </g>
            </g>
            <g>
              <g>
                <path class="cls-4" d="m319.62,42.75l.8.22-.8-.22Z"/>
                <path class="cls-4" d="m320.43,43.03l-.96-.26.96.26Zm-.66-.3l.65.18-.65-.18Z"/>
              </g>
              <g>
                <polygon class="cls-4" points="319.74 43.39 318.75 43.96 317.92 43.73 319.05 43.09 319.88 43.31 319.74 43.39"/>
                <path class="cls-4" d="m318.76,44.02l-.98-.27,1.27-.72.99.27-1.27.72Zm-.69-.31l.67.18.97-.56h.01s-.67-.19-.67-.19l-.99.56Z"/>
              </g>
              <g>
                <polygon class="cls-4" points="318.04 44.37 317.67 44.57 316.84 44.35 317.34 44.06 318.17 44.29 318.04 44.37"/>
                <path class="cls-4" d="m317.68,44.64l-.98-.27.64-.37.99.27-.64.36Zm-.69-.31l.67.18.35-.2h.01s-.67-.19-.67-.19l-.36.21Z"/>
              </g>
            </g>
          </g>
          <g>
            <polygon class="cls-4" points="310.08 12.7 310.2 12.58 314.16 16.55 314.16 22.17 313.99 22.17 313.99 16.62 310.08 12.7"/>
            <polygon class="cls-4" points="314.08 20.84 314.74 20.18 314.74 17.86 314.14 17.27 314.08 20.84"/>
            <path class="cls-4" d="m310.02,12.14c.28,0,.51.23.51.51s-.23.51-.51.51-.51-.23-.51-.51.23-.51.51-.51Z"/>
          </g>
          <g>
            <polygon class="cls-4" points="310.07 53.97 313.98 50.06 313.98 44.51 314.16 44.51 314.16 50.13 310.19 54.09 310.07 53.97"/>
            <polygon class="cls-4" points="314.07 45.83 314.73 46.49 314.73 48.81 314.14 49.4 314.07 45.83"/>
            <path class="cls-4" d="m310.01,54.53c.28,0,.5-.23.5-.51s-.23-.51-.5-.51-.51.23-.51.51.23.51.51.51Z"/>
          </g>
          <path class="cls-4" d="m304.89,12.36l6.63,6.63v28.12l-6.67,6.67v-10.76l1.69-1.69v-15.49l-1.66-1.66s.12-11.93,0-11.82Z"/>
        </g>
        <polygon class="cls-4" points="303.78 46.2 301.68 44.1 301.68 22.08 303.74 20.02 303.88 20.16 301.87 22.16 301.87 44.02 303.91 46.06 303.78 46.2"/>
      </g>
      <g>
        <g>
          <g>
            <g>
              <g class="cls-1">
                <path class="cls-4" d="m21.99,22.5c.77-.45,1.74.11,1.74,1v19.3c0,.89-.97,1.45-1.74,1v-21.31Z"/>
              </g>
              <path class="cls-4" d="m21.91,22.35c.42-.24.92-.24,1.34,0,.42.24.67.67.67,1.16v19.3c0,.48-.25.92-.67,1.16-.42.24-.92.24-1.34,0v-21.61Zm.18,21.31c.31.18.68.18.98,0,.31-.18.49-.5.49-.85v-19.3c0-.36-.18-.67-.49-.85-.31-.18-.68-.18-.98,0v21Z"/>
            </g>
            <g>
              <g>
                <path class="cls-4" d="m18.37,42.5l-.8.22.8-.22Z"/>
                <path class="cls-4" d="m18.52,42.52l-.96.26.96-.26Zm-.94.14l.65-.18-.65.18Z"/>
              </g>
              <g>
                <polygon class="cls-4" points="18.25 43.15 19.24 43.71 20.07 43.49 18.94 42.84 18.11 43.07 18.25 43.15"/>
                <path class="cls-4" d="m17.96,43.05l.99-.27,1.27.72-.98.27-1.27-.72Zm.97-.15l-.67.18h.01s.97.56.97.56l.67-.18-.99-.56Z"/>
              </g>
              <g>
                <polygon class="cls-4" points="19.95 44.12 20.32 44.33 21.15 44.11 20.65 43.82 19.82 44.05 19.95 44.12"/>
                <path class="cls-4" d="m19.67,44.03l.99-.27.64.37-.98.27-.64-.36Zm.97-.15l-.67.18h.01s.35.21.35.21l.67-.18-.36-.21Z"/>
              </g>
            </g>
            <g>
              <g>
                <path class="cls-4" d="m18.37,23.92l-.8-.22.8.22Z"/>
                <path class="cls-4" d="m17.56,23.64l.96.26-.96-.26Zm.66.3l-.65-.18.65.18Z"/>
              </g>
              <g>
                <polygon class="cls-4" points="18.25 23.28 19.24 22.72 20.07 22.94 18.94 23.58 18.11 23.36 18.25 23.28"/>
                <path class="cls-4" d="m19.23,22.65l.98.27-1.27.72-.99-.27,1.27-.72Zm.69.31l-.67-.18-.97.56h-.01s.67.19.67.19l.99-.56Z"/>
              </g>
              <g>
                <polygon class="cls-4" points="19.95 22.31 20.32 22.1 21.15 22.32 20.65 22.61 19.82 22.38 19.95 22.31"/>
                <path class="cls-4" d="m20.31,22.04l.98.27-.64.37-.99-.27.64-.36Zm.69.31l-.67-.18-.35.2h-.01s.67.19.67.19l.36-.21Z"/>
              </g>
            </g>
          </g>
          <g>
            <polygon class="cls-4" points="27.91 53.97 27.79 54.09 23.83 50.13 23.83 44.51 24 44.51 24 50.06 27.91 53.97"/>
            <polygon class="cls-4" points="23.91 45.83 23.25 46.49 23.25 48.81 23.85 49.4 23.91 45.83"/>
            <path class="cls-4" d="m27.97,54.53c-.28,0-.51-.23-.51-.51s.23-.51.51-.51.51.23.51.51-.23.51-.51.51Z"/>
          </g>
          <g>
            <polygon class="cls-4" points="27.92 12.7 24.01 16.62 24.01 22.17 23.83 22.17 23.83 16.55 27.8 12.58 27.92 12.7"/>
            <polygon class="cls-4" points="23.92 20.84 23.26 20.18 23.26 17.86 23.85 17.27 23.92 20.84"/>
            <path class="cls-4" d="m27.98,12.14c-.28,0-.51.23-.51.51s.23.51.51.51.51-.23.51-.51-.23-.51-.51-.51Z"/>
          </g>
          <path class="cls-4" d="m33.1,54.31l-6.63-6.63v-28.12l6.67-6.67v10.76l-1.69,1.69v15.49l1.66,1.66s-.12,11.93,0,11.82Z"/>
        </g>
        <polygon class="cls-4" points="34.21 20.47 36.31 22.57 36.31 44.59 34.25 46.66 34.11 46.52 36.12 44.51 36.12 22.65 34.08 20.61 34.21 20.47"/>
      </g>
      <g>
        <path class="cls-4" d="m60.23,50.52c0-.67.55-1.22,1.22-1.22s1.22.55,1.22,1.22-.55,1.22-1.22,1.22-1.22-.55-1.22-1.22Z"/>
        <path class="cls-4" d="m88.51,50.52c0-.67.55-1.22,1.22-1.22s1.22.55,1.22,1.22-.55,1.22-1.22,1.22-1.22-.55-1.22-1.22Z"/>
        <path class="cls-4" d="m275.5,50.52c0-.67.55-1.22,1.22-1.22s1.22.55,1.22,1.22-.55,1.22-1.22,1.22-1.22-.55-1.22-1.22Z"/>
      </g>
      <polygon class="cls-4" points="63.56 56.64 59.4 56.64 54.35 51.59 35.2 51.59 35.2 51.3 54.47 51.3 59.52 56.35 63.56 56.35 63.56 56.64"/>
      <polygon class="cls-4" points="56.5 54.4 54.13 52.03 39.81 52.03 39.81 50.87 54.61 50.87 57.32 53.58 56.5 54.4"/>
      <g>
        <polygon class="cls-4" points="278.78 56.64 274.62 56.64 274.62 56.35 278.66 56.35 283.71 51.3 302.8 51.3 302.8 51.59 283.83 51.59 278.78 56.64"/>
        <polygon class="cls-4" points="281.67 54.4 280.85 53.58 283.56 50.87 298.36 50.87 298.36 52.03 284.05 52.03 281.67 54.4"/>
      </g>
      <rect class="cls-4" x="34.92" y="13.86" width="267.26" height=".29"/>
    </g>
    <polygon class="cls-4" points="48.57 5.66 50.92 3.32 113.32 3.32 114.77 4.76 186.56 4.76 190.52 .81 292.32 .81 294.85 3.34 308.79 3.34 313.38 7.93 310.22 7.93 308.91 6.61 287.54 6.61 285.86 4.93 199.9 4.93 198.56 6.28 178.57 6.28 177.89 5.59 125.21 5.59 48.57 5.66"/>
    <g>
      <line class="cls-3" x1="33.45" y1="59.46" x2="33.45" y2="70.4"/>
      <line class="cls-3" x1="43.78" y1="59.46" x2="43.78" y2="70.4"/>
      <line class="cls-3" x1="54.11" y1="59.46" x2="54.11" y2="70.4"/>
      <line class="cls-3" x1="64.44" y1="59.46" x2="64.44" y2="70.4"/>
      <line class="cls-3" x1="74.77" y1="59.46" x2="74.77" y2="70.4"/>
      <line class="cls-3" x1="85.1" y1="59.46" x2="85.1" y2="70.4"/>
      <line class="cls-3" x1="95.43" y1="59.46" x2="95.43" y2="70.4"/>
      <line class="cls-3" x1="105.76" y1="59.46" x2="105.76" y2="70.4"/>
      <line class="cls-3" x1="116.09" y1="59.46" x2="116.09" y2="70.4"/>
      <line class="cls-3" x1="126.42" y1="59.46" x2="126.42" y2="70.4"/>
      <line class="cls-3" x1="136.75" y1="59.46" x2="136.75" y2="70.4"/>
      <line class="cls-3" x1="147.08" y1="59.46" x2="147.08" y2="70.4"/>
      <line class="cls-3" x1="157.41" y1="59.46" x2="157.41" y2="70.4"/>
      <line class="cls-3" x1="167.73" y1="59.46" x2="167.73" y2="70.4"/>
      <line class="cls-3" x1="178.06" y1="59.46" x2="178.06" y2="70.4"/>
      <line class="cls-3" x1="188.39" y1="59.46" x2="188.39" y2="70.4"/>
      <line class="cls-3" x1="198.72" y1="59.46" x2="198.72" y2="70.4"/>
      <line class="cls-3" x1="209.05" y1="59.46" x2="209.05" y2="70.4"/>
      <line class="cls-3" x1="219.38" y1="59.46" x2="219.38" y2="70.4"/>
      <line class="cls-3" x1="229.71" y1="59.46" x2="229.71" y2="70.4"/>
      <line class="cls-3" x1="240.04" y1="59.46" x2="240.04" y2="70.4"/>
      <line class="cls-3" x1="250.37" y1="59.46" x2="250.37" y2="70.4"/>
      <line class="cls-3" x1="260.7" y1="59.46" x2="260.7" y2="70.4"/>
      <line class="cls-3" x1="271.03" y1="59.46" x2="271.03" y2="70.4"/>
      <line class="cls-3" x1="281.36" y1="59.46" x2="281.36" y2="70.4"/>
      <line class="cls-3" x1="291.68" y1="59.46" x2="291.68" y2="70.4"/>
      <line class="cls-3" x1="302.01" y1="59.46" x2="302.01" y2="70.4"/>
    </g>
    <g>
      <rect class="cls-4" x="310.68" y="295.78" width="8.54" height="1.28"/>
      <polygon class="cls-4" points="319.23 300.52 319.23 303.92 310.72 303.92 310.7 300.52 319.23 300.52"/>
      <polygon class="cls-4" points="319.23 307.39 319.23 310.79 310.76 310.79 310.74 307.39 319.23 307.39"/>
      <polygon class="cls-4" points="319.23 314.25 319.23 317.66 310.79 317.66 310.77 314.25 319.23 314.25"/>
      <polygon class="cls-4" points="310.81 321.12 319.23 321.12 319.23 358.23 311.04 366.4 310.81 321.12"/>
    </g>
    <g>
      <g>
        <rect class="cls-2" x="31.48" y="352.79" width="10.67" height="10.67"/>
        <line class="cls-2" x1="32.13" y1="353.58" x2="41.19" y2="362.64"/>
      </g>
      <rect class="cls-2" x="47.79" y="352.79" width="10.67" height="10.67"/>
      <g>
        <rect class="cls-2" x="64.1" y="352.79" width="10.67" height="10.67"/>
        <line class="cls-2" x1="73.81" y1="353.58" x2="64.76" y2="362.64"/>
      </g>
      <g>
        <path class="cls-4" d="m33.36,365.31h-.55v.14h-.31v-.45h1.08l-.22.31Zm.34-.31h.12v.34l-.74,1.06h-.37l1-1.4Z"/>
        <path class="cls-4" d="m34.76,365.31h-.55v.14h-.31v-.45h1.08l-.22.31Zm.34-.31h.12v.34l-.74,1.06h-.37l1-1.4Z"/>
        <path class="cls-4" d="m35.46,365h.46v.31h-.24v.22h.24v.31h-.24v.25h.24v.31h-.46l-.12-.15v-.49l.09-.08-.09-.09v-.46l.12-.14Zm.55.31v-.31h.46l.12.14v.46l-.09.09.09.08v.49l-.12.14h-.46v-.31h.24v-.25h-.24v-.31h.24v-.22h-.24Z"/>
        <path class="cls-4" d="m36.88,365h.46v.31h-.24v.22h.24v.31h-.24v.25h.24v.31h-.46l-.12-.15v-.49l.09-.08-.09-.09v-.46l.12-.14Zm.55.31v-.31h.46l.12.14v.46l-.09.09.09.08v.49l-.12.14h-.46v-.31h.24v-.25h-.24v-.31h.24v-.22h-.24Z"/>
        <path class="cls-4" d="m38.3,365h.46v.31h-.24v.22h.24v.31h-.24v.25h.24v.31h-.46l-.12-.15v-.49l.09-.08-.09-.09v-.46l.12-.14Zm.55.31v-.31h.46l.12.14v.46l-.09.09.09.08v.49l-.12.14h-.46v-.31h.24v-.25h-.24v-.31h.24v-.22h-.24Z"/>
        <path class="cls-4" d="m39.7,365h.45v.31h-.24v.15h-.33v-.32l.12-.14Zm.21,1.09h.24v.31h-.45l-.12-.15v-.34h.33v.17Zm.34-.78v-.31h.45l.12.14v.44l-.09.09.09.08v.51l-.12.14h-.45v-.31h.23v-.25h-.52v-.31h.52v-.22h-.23Z"/>
        <path class="cls-4" d="m41.49,366.09v.31h-.51v-.31h.09v-.78h-.09v-.23l.25-.08h.18v1.09h.09Z"/>
      </g>
      <g>
        <path class="cls-4" d="m50.11,365.68v.31h-.68v-.38l.65-.61h.47v.31h-.35l-.45.36h.37Zm.44-.27v.27h.26v.31h-.26v.42h-.34v-1h.34Z"/>
        <path class="cls-4" d="m51.05,365h.46v.31h-.24v.22h.24v.31h-.24v.25h.24v.31h-.46l-.12-.15v-.49l.09-.08-.09-.09v-.46l.12-.14Zm.55.31v-.31h.46l.12.14v.46l-.09.09.09.08v.49l-.12.14h-.46v-.31h.24v-.25h-.24v-.31h.24v-.22h-.24Z"/>
        <path class="cls-4" d="m52.47,365h.46v.31h-.24v.22h.24v.31h-.24v.25h.24v.31h-.46l-.12-.15v-.49l.09-.08-.09-.09v-.46l.12-.14Zm.55.31v-.31h.46l.12.14v.46l-.09.09.09.08v.49l-.12.14h-.46v-.31h.24v-.25h-.24v-.31h.24v-.22h-.24Z"/>
        <path class="cls-4" d="m53.87,365h.45v.31h-.24v.15h-.33v-.32l.12-.14Zm.21,1.09h.24v.31h-.45l-.12-.15v-.34h.33v.17Zm.34-.78v-.31h.45l.12.14v.44l-.09.09.09.08v.51l-.12.14h-.45v-.31h.23v-.25h-.52v-.31h.52v-.22h-.23Z"/>
        <path class="cls-4" d="m55.65,366.09v.31h-.51v-.31h.09v-.78h-.09v-.23l.25-.08h.18v1.09h.09Z"/>
      </g>
      <g>
        <path class="cls-4" d="m65.63,366.09v.31h-.51v-.31h.09v-.78h-.09v-.23l.25-.08h.18v1.09h.09Z"/>
        <path class="cls-4" d="m65.9,365h.46v.31h-.24v.22h.24v.31h-.24v.25h.24v.31h-.46l-.12-.15v-.49l.09-.08-.09-.09v-.46l.12-.14Zm.55.31v-.31h.46l.12.14v.46l-.09.09.09.08v.49l-.12.14h-.46v-.31h.24v-.25h-.24v-.31h.24v-.22h-.24Z"/>
        <path class="cls-4" d="m67.32,365h.46v.31h-.24v.22h.24v.31h-.24v.25h.24v.31h-.46l-.12-.15v-.49l.09-.08-.09-.09v-.46l.12-.14Zm.55.31v-.31h.46l.12.14v.46l-.09.09.09.08v.49l-.12.14h-.46v-.31h.24v-.25h-.24v-.31h.24v-.22h-.24Z"/>
        <path class="cls-4" d="m68.74,365h.46v.31h-.24v.22h.24v.31h-.24v.25h.24v.31h-.46l-.12-.15v-.49l.09-.08-.09-.09v-.46l.12-.14Zm.55.31v-.31h.46l.12.14v.46l-.09.09.09.08v.49l-.12.14h-.46v-.31h.24v-.25h-.24v-.31h.24v-.22h-.24Z"/>
        <path class="cls-4" d="m70.16,365h.46v.31h-.24v.22h.24v.31h-.24v.25h.24v.31h-.46l-.12-.15v-.49l.09-.08-.09-.09v-.46l.12-.14Zm.55.31v-.31h.46l.12.14v.46l-.09.09.09.08v.49l-.12.14h-.46v-.31h.24v-.25h-.24v-.31h.24v-.22h-.24Z"/>
        <path class="cls-4" d="m71.56,365h.45v.31h-.24v.15h-.33v-.32l.12-.14Zm.21,1.09h.24v.31h-.45l-.12-.15v-.34h.33v.17Zm.34-.78v-.31h.45l.12.14v.44l-.09.09.09.08v.51l-.12.14h-.45v-.31h.23v-.25h-.52v-.31h.52v-.22h-.23Z"/>
        <path class="cls-4" d="m73.35,366.09v.31h-.51v-.31h.09v-.78h-.09v-.23l.25-.08h.18v1.09h.09Z"/>
      </g>
    </g>
    <polygon class="cls-4" points="324.51 27.18 335.28 37.95 335.28 90.36 346.04 101.12 346.04 137.5 335.83 147.7 335.83 304.38 340.47 309.02 340.47 324.95 328.51 336.92 328.51 139.32 328.51 122.82 334 117.33 334 102.29 327.82 96.11 327.82 59.79 324.8 56.77 324.51 27.18"/>
  </g>
  <rect class="cls-4" x="5.54" y="361.31" width="2.69" height="2.69"/>
</svg>