<?xml version="1.0" encoding="UTF-8"?>
<svg id="Layer_1" data-name="Layer 1" xmlns="http://www.w3.org/2000/svg" viewBox="0 0 253.71 103.75">
  <defs>
    <style>
      .cls-1 {
        fill: #fff;
      }

      .cls-2 {
        fill: none;
        stroke: #fff;
        stroke-miterlimit: 10;
        stroke-width: .47px;
      }
    </style>
  </defs>
  <polyline class="cls-2" points="2.83 .24 34.07 .24 42.07 8.24 198.03 8.24"/>
  <polyline class="cls-2" points="12.97 3.69 2.83 3.69 .24 6.28 .24 43.59 4.89 48.25 4.89 73.41"/>
  <polygon class="cls-1" points="5.34 3.69 .16 8.88 .16 6.28 2.88 3.56 5.34 3.69"/>
  <path class="cls-1" d="m40.59,6.51c.06.06,36.74,0,36.74,0l1.75-1.75h26.31l2.4,2.4h28.4l1.29,1.29H42.07l-1.48-1.94Z"/>
  <polyline class="cls-2" points="195.61 5.64 211.05 5.64 214.88 1.81 240.11 1.81"/>
  <polyline class="cls-2" points="234.45 4.24 241.46 4.24 248.29 11.07 248.29 70.17"/>
  <polygon class="cls-1" points="86.87 7.8 88.5 9.43 116.66 9.43 117.63 10.4 125.06 10.4 127.25 8.21 86.87 7.8"/>
  <path class="cls-1" d="m238.69,4.24s9.64,9.76,9.64,9.64v-2.9l-6.87-6.74h-2.77Z"/>
  <g>
    <polyline class="cls-2" points="4.89 68.11 1.76 71.24 1.76 81.23 9.03 88.51 35.95 88.51 50.95 103.51 129.07 103.51"/>
    <polygon class="cls-1" points="3.17 69.83 3.17 80.75 6.6 84.18 6.6 86.17 1.71 81.28 1.71 77.6 .84 76.73 .84 73.62 1.62 72.84 1.62 71.13 3.17 69.83"/>
    <polygon class="cls-1" points="13.2 89.92 35.13 89.92 41.79 96.58 37.76 96.58 32.7 91.52 24.52 91.52 23.63 92.41 17.92 92.41 16.12 90.61 14.18 90.61 13.2 89.92"/>
    <polygon class="cls-1" points="37.51 90.07 40.23 90.07 47.83 97.66 47.83 100.39 37.51 90.07"/>
  </g>
  <g>
    <polyline class="cls-2" points="249.66 68.11 252.79 71.24 252.79 81.23 245.52 88.51 218.6 88.51 203.59 103.51 125.48 103.51"/>
    <polygon class="cls-1" points="251.38 69.83 251.38 80.75 247.95 84.18 247.95 86.17 252.84 81.28 252.84 77.6 253.71 76.73 253.71 73.62 252.93 72.84 252.93 71.13 251.38 69.83"/>
    <polygon class="cls-1" points="241.35 89.92 219.42 89.92 212.76 96.58 216.79 96.58 221.85 91.52 230.03 91.52 230.92 92.41 236.63 92.41 238.43 90.61 240.36 90.61 241.35 89.92"/>
    <polygon class="cls-1" points="217.04 90.07 214.31 90.07 206.72 97.66 206.72 100.39 217.04 90.07"/>
  </g>
</svg>