<?xml version="1.0" encoding="UTF-8"?>
<svg id="Layer_1" data-name="Layer 1" xmlns="http://www.w3.org/2000/svg" viewBox="0 0 398.73 213.89">
  <defs>
    <style>
      .cls-1 {
        fill: #fff;
      }

      .cls-2 {
        fill: none;
        stroke: #fff;
        stroke-miterlimit: 10;
        stroke-width: .47px;
      }
    </style>
  </defs>
  <g>
    <polygon class="cls-1" points="13.73 11.94 13.73 82.66 16.56 79.84 16.56 59.09 18.21 57.44 18.21 35.51 18.8 34.93 18.8 26.08 16.97 24.26 16.97 13.35 13.7 10.08 13.73 11.94"/>
    <polygon class="cls-1" points="34.24 8.84 35.99 10.59 57.99 10.59 58.74 11.34 90.73 11.34 91.98 10.09 101.23 10.09 102.49 8.83 34.24 8.84"/>
    <polyline class="cls-2" points="17.36 10.97 33.33 10.97 36.26 13.9 49.04 13.9 50.71 12.23"/>
    <polyline class="cls-2" points="17.36 1.92 5.72 1.92 5.72 61.8 .24 67.28 .24 142.9 6.75 149.41 6.75 202.07 17.04 212.36 185.32 212.36"/>
    <circle class="cls-1" cx="17.27" cy="1.92" r="1.53"/>
    <circle class="cls-1" cx="185.62" cy="212.36" r="1.53"/>
    <polygon class="cls-1" points="65.36 3.45 67.63 1.18 115.97 1.18 117.15 0 144.34 0 148.3 3.97 123.36 3.97 122.63 3.24 81.71 3.24 80.15 4.8 67.48 4.8 65.36 3.45"/>
    <polyline class="cls-2" points="64.58 1.92 46.27 1.92 43.36 4.83"/>
    <polyline class="cls-2" points="150.88 1.21 164.67 1.21 168.12 4.66"/>
    <rect class="cls-1" x="27.96" y="208.2" width="62.33" height="1.59"/>
    <rect class="cls-1" x="97.65" y="208.2" width="2.39" height="1.59"/>
    <rect class="cls-1" x="107.44" y="208.2" width="2.39" height="1.59"/>
    <rect class="cls-1" x="117.22" y="208.2" width="2.39" height="1.59"/>
    <rect class="cls-1" x="127" y="208.2" width="2.39" height="1.59"/>
    <rect class="cls-1" x="136.79" y="208.2" width="2.39" height="1.59"/>
    <rect class="cls-1" x="146.57" y="208.2" width="2.39" height="1.59"/>
    <rect class="cls-1" x="156.35" y="208.2" width="2.39" height="1.59"/>
    <rect class="cls-1" x="166.14" y="208.2" width="2.39" height="1.59"/>
    <polyline class="cls-2" points="4.33 195.68 4.33 203.28 7.96 206.9"/>
    <path class="cls-1" d="m2.98,64.54v18.86l-1.16,1.16s.14,15.55,0,15.55-1.51,1.51-1.51,1.51v-34.31l2.53-2.62"/>
    <polygon class="cls-1" points="5.72 5 8.67 2.05 5.72 2.05 5.72 5"/>
  </g>
  <g>
    <polygon class="cls-1" points="384.99 11.94 384.99 82.66 382.17 79.84 382.17 59.09 380.52 57.44 380.52 35.51 379.93 34.93 379.93 26.08 381.75 24.26 381.75 13.35 385.02 10.08 384.99 11.94"/>
    <polygon class="cls-1" points="364.48 8.84 362.73 10.59 340.74 10.59 339.99 11.34 308 11.34 306.75 10.09 297.5 10.09 296.24 8.83 364.48 8.84"/>
    <polyline class="cls-2" points="381.37 10.97 365.4 10.97 362.47 13.9 349.69 13.9 348.02 12.23"/>
    <polyline class="cls-2" points="381.37 1.92 393.01 1.92 393.01 61.8 398.49 67.28 398.49 142.9 391.98 149.41 391.98 202.07 381.69 212.36 213.41 212.36"/>
    <circle class="cls-1" cx="381.46" cy="1.92" r="1.53"/>
    <circle class="cls-1" cx="213.1" cy="212.36" r="1.53"/>
    <polygon class="cls-1" points="333.37 3.45 331.1 1.18 282.76 1.18 281.57 0 254.39 0 250.42 3.97 275.37 3.97 276.1 3.24 317.02 3.24 318.58 4.8 331.24 4.8 333.37 3.45"/>
    <polyline class="cls-2" points="334.15 1.92 352.46 1.92 355.37 4.83"/>
    <polyline class="cls-2" points="247.85 1.21 234.06 1.21 230.61 4.66"/>
    <rect class="cls-1" x="308.44" y="208.2" width="62.33" height="1.59" transform="translate(679.2 417.99) rotate(180)"/>
    <rect class="cls-1" x="298.68" y="208.2" width="2.39" height="1.59" transform="translate(599.76 417.99) rotate(180)"/>
    <rect class="cls-1" x="288.9" y="208.2" width="2.39" height="1.59" transform="translate(580.19 417.99) rotate(180)"/>
    <rect class="cls-1" x="279.11" y="208.2" width="2.39" height="1.59" transform="translate(560.62 417.99) rotate(180)"/>
    <rect class="cls-1" x="269.33" y="208.2" width="2.39" height="1.59" transform="translate(541.05 417.99) rotate(180)"/>
    <rect class="cls-1" x="259.55" y="208.2" width="2.39" height="1.59" transform="translate(521.49 417.99) rotate(180)"/>
    <rect class="cls-1" x="249.76" y="208.2" width="2.39" height="1.59" transform="translate(501.92 417.99) rotate(180)"/>
    <rect class="cls-1" x="239.98" y="208.2" width="2.39" height="1.59" transform="translate(482.35 417.99) rotate(180)"/>
    <rect class="cls-1" x="230.2" y="208.2" width="2.39" height="1.59" transform="translate(462.79 417.99) rotate(180)"/>
    <polyline class="cls-2" points="394.39 195.68 394.39 203.28 390.77 206.9"/>
    <path class="cls-1" d="m395.75,64.54v18.86l1.16,1.16s-.14,15.55,0,15.55,1.51,1.51,1.51,1.51v-34.31l-2.53-2.62"/>
    <polygon class="cls-1" points="393.01 5 390.05 2.05 393.01 2.05 393.01 5"/>
  </g>
</svg>