<?xml version="1.0" encoding="UTF-8"?>
<svg id="Layer_1" data-name="Layer 1" xmlns="http://www.w3.org/2000/svg" xmlns:xlink="http://www.w3.org/1999/xlink" viewBox="0 0 248.86 216.9">
  <defs>
    <style>
      .cls-1 {
        fill: #fff;
      }

      .cls-2 {
        fill: none;
        stroke: #fff;
        stroke-miterlimit: 10;
        stroke-width: .47px;
      }

      .cls-3 {
        fill: url(#_Безымянный_градиент_2);
      }

      .cls-4 {
        mask: url(#mask);
      }
    </style>
    <radialGradient id="_Безымянный_градиент_2" data-name="Безымянный градиент 2" cx="752.42" cy="4714.26" fx="752.42" fy="4714.26" r="58.16" gradientTransform="translate(-1494.15 -11825.39) scale(2.18 2.53)" gradientUnits="userSpaceOnUse">
      <stop offset="0" stop-color="#4c4c4c"/>
      <stop offset="1" stop-color="#000"/>
    </radialGradient>
    <mask id="mask" x="54.7" y="5.61" width="185.25" height="193.09" maskUnits="userSpaceOnUse">
      <rect class="cls-3" x="55.38" y="9.58" width="183.9" height="185.15" transform="translate(249.47 -45.17) rotate(90)"/>
    </mask>
  </defs>
  <g>
    <g>
      <path class="cls-1" d="m224.49,3.32l-.61-.61-.06-.06H48.87v1c.14,0,.28,0,.42.01v-.59h174.36l18.43,18.43v181.22H49.29v-.27c-.14,0-.28.01-.42.01v.67h193.63V21.33l-18-18.01Z"/>
      <g>
        <g>
          <polygon class="cls-1" points="58.72 5.72 58.72 6.56 54.53 6.56 54.53 10.33 53.69 10.33 53.69 5.72 58.72 5.72"/>
          <polygon class="cls-1" points="107.12 10.54 106.27 10.54 106.27 6.35 102.51 6.35 102.51 5.51 107.12 5.51 107.12 10.54"/>
        </g>
        <g>
          <polygon class="cls-1" points="107.12 199.99 102.08 199.99 102.08 199.15 106.27 199.15 106.27 193.87 107.12 193.87 107.12 199.99"/>
          <polyline class="cls-1" points="54.53 199.36 58.3 199.36 58.3 200.2 53.69 200.2"/>
        </g>
        <polygon class="cls-1" points="244.32 210.09 55.06 210.09 51.37 206.39 240.66 206.39 244.32 210.09"/>
        <rect class="cls-1" x="246.12" y="21.72" width=".42" height="181.24"/>
        <polygon class="cls-1" points="232.94 10.63 225.64 3.33 218.7 3.33 218.7 2.48 225.99 2.48 233.54 10.03 232.94 10.63"/>
        <polygon class="cls-1" points="244.1 213.99 154.45 213.99 154.45 213.57 244.27 213.57 244.33 213.63 244.1 213.99"/>
        <polygon class="cls-1" points="171.52 216.9 151.71 216.9 147.44 212.63 148.04 212.03 152.06 216.05 171.52 216.05 171.52 216.9"/>
        <path class="cls-1" d="m51,2.71l2.71-2.71h45.68l2.64,2.64s-50.93-.04-51.03.07Z"/>
        <polygon class="cls-1" points="243.6 207.53 243.3 207.24 248.44 202.1 248.44 199.44 248.86 199.44 248.86 202.27 243.6 207.53"/>
        <rect class="cls-1" x="247.18" y="68.46" width=".42" height="132.66"/>
        <rect class="cls-1" x="247.18" y="61.99" width=".42" height="4.36"/>
        <rect class="cls-1" x="247.18" y="28.24" width=".42" height="4.36"/>
        <rect class="cls-1" x="247.18" y="21.77" width=".42" height="4.36"/>
        <rect class="cls-1" x="180.92" y="202.41" width="63.51" height=".84"/>
        <polygon class="cls-1" points="70.06 209.23 72.27 211.44 90.97 211.44 92.53 213.01 108.07 213.01 112.14 208.93 70.06 209.23"/>
        <polygon class="cls-1" points="118.98 212.2 111.08 212.2 111.08 211.78 118.8 211.78 119.68 210.9 119.98 211.2 118.98 212.2"/>
      </g>
    </g>
    <path class="cls-1" d="m54.53,199.36h3.77v.17h3.69c-.33.15-.67.29-1.01.42h-2.68v.25h-4.61"/>
  </g>
  <polyline class="cls-2" points="51.08 201.3 51.08 198.53 32.57 198.53 23.47 189.42"/>
  <polyline class="cls-2" points="66.8 68.75 60.28 75.27 60.28 78.49 16.94 78.49 12.12 83.31 0 83.31"/>
  <rect class="cls-2" x="57.15" y="75.39" width="2.25" height="2.25"/>
  <g class="cls-4">
    <g>
      <g>
        <g>
          <path class="cls-1" d="m230.11,14.42V5.98h9.84v8.44h-9.84Zm.1-8.36v8.28h9.65V6.06h-9.65Z"/>
          <path class="cls-1" d="m230.11,22.78v-8.44h9.84v8.44h-9.84Zm.1-8.36v8.28h9.65v-8.28h-9.65Z"/>
          <path class="cls-1" d="m230.11,31.14v-8.44h9.84v8.44h-9.84Zm.1-8.36v8.28h9.65v-8.28h-9.65Z"/>
          <path class="cls-1" d="m230.11,39.5v-8.44h9.84v8.44h-9.84Zm.1-8.36v8.28h9.65v-8.28h-9.65Z"/>
          <path class="cls-1" d="m230.11,47.86v-8.44h9.84v8.44h-9.84Zm.1-8.36v8.28h9.65v-8.28h-9.65Z"/>
          <path class="cls-1" d="m230.11,56.22v-8.44h9.84v8.44h-9.84Zm.1-8.36v8.28h9.65v-8.28h-9.65Z"/>
          <path class="cls-1" d="m230.11,64.58v-8.44h9.84v8.44h-9.84Zm.1-8.36v8.28h9.65v-8.28h-9.65Z"/>
          <path class="cls-1" d="m230.11,72.94v-8.44h9.84v8.44h-9.84Zm.1-8.36v8.28h9.65v-8.28h-9.65Z"/>
          <path class="cls-1" d="m230.11,81.29v-8.44h9.84v8.44h-9.84Zm.1-8.36v8.28h9.65v-8.28h-9.65Z"/>
          <path class="cls-1" d="m230.11,89.65v-8.44h9.84v8.44h-9.84Zm.1-8.36v8.28h9.65v-8.28h-9.65Z"/>
          <path class="cls-1" d="m230.11,98.01v-8.44h9.84v8.44h-9.84Zm.1-8.36v8.28h9.65v-8.28h-9.65Z"/>
          <path class="cls-1" d="m230.11,106.37v-8.44h9.84v8.44h-9.84Zm.1-8.36v8.28h9.65v-8.28h-9.65Z"/>
          <path class="cls-1" d="m230.11,114.73v-8.44h9.84v8.44h-9.84Zm.1-8.36v8.28h9.65v-8.28h-9.65Z"/>
          <path class="cls-1" d="m230.11,123.09v-8.44h9.84v8.44h-9.84Zm.1-8.36v8.28h9.65v-8.28h-9.65Z"/>
          <path class="cls-1" d="m230.11,131.45v-8.44h9.84v8.44h-9.84Zm.1-8.36v8.28h9.65v-8.28h-9.65Z"/>
          <path class="cls-1" d="m230.11,139.81v-8.44h9.84v8.44h-9.84Zm.1-8.36v8.28h9.65v-8.28h-9.65Z"/>
          <path class="cls-1" d="m230.11,148.17v-8.44h9.84v8.44h-9.84Zm.1-8.36v8.28h9.65v-8.28h-9.65Z"/>
          <path class="cls-1" d="m230.11,156.52v-8.44h9.84v8.44h-9.84Zm.1-8.36v8.28h9.65v-8.28h-9.65Z"/>
          <path class="cls-1" d="m230.11,164.88v-8.44h9.84v8.44h-9.84Zm.1-8.36v8.28h9.65v-8.28h-9.65Z"/>
          <path class="cls-1" d="m230.11,173.24v-8.44h9.84v8.44h-9.84Zm.1-8.36v8.28h9.65v-8.28h-9.65Z"/>
          <path class="cls-1" d="m230.11,181.6v-8.44h9.84v8.44h-9.84Zm.1-8.36v8.28h9.65v-8.28h-9.65Z"/>
          <path class="cls-1" d="m230.11,189.96v-8.44h9.84v8.44h-9.84Zm.1-8.36v8.28h9.65v-8.28h-9.65Z"/>
          <path class="cls-1" d="m230.11,198.32v-8.44h9.84v8.44h-9.84Zm.1-8.36v8.28h9.65v-8.28h-9.65Z"/>
        </g>
        <g>
          <path class="cls-1" d="m220.36,14.42V5.98h9.84v8.44h-9.84Zm.1-8.36v8.28h9.65V6.06h-9.65Z"/>
          <path class="cls-1" d="m220.36,22.78v-8.44h9.84v8.44h-9.84Zm.1-8.36v8.28h9.65v-8.28h-9.65Z"/>
          <path class="cls-1" d="m220.36,31.14v-8.44h9.84v8.44h-9.84Zm.1-8.36v8.28h9.65v-8.28h-9.65Z"/>
          <path class="cls-1" d="m220.36,39.5v-8.44h9.84v8.44h-9.84Zm.1-8.36v8.28h9.65v-8.28h-9.65Z"/>
          <path class="cls-1" d="m220.36,47.86v-8.44h9.84v8.44h-9.84Zm.1-8.36v8.28h9.65v-8.28h-9.65Z"/>
          <path class="cls-1" d="m220.36,56.22v-8.44h9.84v8.44h-9.84Zm.1-8.36v8.28h9.65v-8.28h-9.65Z"/>
          <path class="cls-1" d="m220.36,64.58v-8.44h9.84v8.44h-9.84Zm.1-8.36v8.28h9.65v-8.28h-9.65Z"/>
          <path class="cls-1" d="m220.36,72.94v-8.44h9.84v8.44h-9.84Zm.1-8.36v8.28h9.65v-8.28h-9.65Z"/>
          <path class="cls-1" d="m220.36,81.29v-8.44h9.84v8.44h-9.84Zm.1-8.36v8.28h9.65v-8.28h-9.65Z"/>
          <path class="cls-1" d="m220.36,89.65v-8.44h9.84v8.44h-9.84Zm.1-8.36v8.28h9.65v-8.28h-9.65Z"/>
          <path class="cls-1" d="m220.36,98.01v-8.44h9.84v8.44h-9.84Zm.1-8.36v8.28h9.65v-8.28h-9.65Z"/>
          <path class="cls-1" d="m220.36,106.37v-8.44h9.84v8.44h-9.84Zm.1-8.36v8.28h9.65v-8.28h-9.65Z"/>
          <path class="cls-1" d="m220.36,114.73v-8.44h9.84v8.44h-9.84Zm.1-8.36v8.28h9.65v-8.28h-9.65Z"/>
          <path class="cls-1" d="m220.36,123.09v-8.44h9.84v8.44h-9.84Zm.1-8.36v8.28h9.65v-8.28h-9.65Z"/>
          <path class="cls-1" d="m220.36,131.45v-8.44h9.84v8.44h-9.84Zm.1-8.36v8.28h9.65v-8.28h-9.65Z"/>
          <path class="cls-1" d="m220.36,139.81v-8.44h9.84v8.44h-9.84Zm.1-8.36v8.28h9.65v-8.28h-9.65Z"/>
          <path class="cls-1" d="m220.36,148.17v-8.44h9.84v8.44h-9.84Zm.1-8.36v8.28h9.65v-8.28h-9.65Z"/>
          <path class="cls-1" d="m220.36,156.52v-8.44h9.84v8.44h-9.84Zm.1-8.36v8.28h9.65v-8.28h-9.65Z"/>
          <path class="cls-1" d="m220.36,164.88v-8.44h9.84v8.44h-9.84Zm.1-8.36v8.28h9.65v-8.28h-9.65Z"/>
          <path class="cls-1" d="m220.36,173.24v-8.44h9.84v8.44h-9.84Zm.1-8.36v8.28h9.65v-8.28h-9.65Z"/>
          <path class="cls-1" d="m220.36,181.6v-8.44h9.84v8.44h-9.84Zm.1-8.36v8.28h9.65v-8.28h-9.65Z"/>
          <path class="cls-1" d="m220.36,189.96v-8.44h9.84v8.44h-9.84Zm.1-8.36v8.28h9.65v-8.28h-9.65Z"/>
          <path class="cls-1" d="m220.36,198.32v-8.44h9.84v8.44h-9.84Zm.1-8.36v8.28h9.65v-8.28h-9.65Z"/>
        </g>
        <g>
          <path class="cls-1" d="m210.62,14.42V5.98h9.84v8.44h-9.84Zm.1-8.36v8.28h9.65V6.06h-9.65Z"/>
          <path class="cls-1" d="m210.62,22.78v-8.44h9.84v8.44h-9.84Zm.1-8.36v8.28h9.65v-8.28h-9.65Z"/>
          <path class="cls-1" d="m210.62,31.14v-8.44h9.84v8.44h-9.84Zm.1-8.36v8.28h9.65v-8.28h-9.65Z"/>
          <path class="cls-1" d="m210.62,39.5v-8.44h9.84v8.44h-9.84Zm.1-8.36v8.28h9.65v-8.28h-9.65Z"/>
          <path class="cls-1" d="m210.62,47.86v-8.44h9.84v8.44h-9.84Zm.1-8.36v8.28h9.65v-8.28h-9.65Z"/>
          <path class="cls-1" d="m210.62,56.22v-8.44h9.84v8.44h-9.84Zm.1-8.36v8.28h9.65v-8.28h-9.65Z"/>
          <path class="cls-1" d="m210.62,64.58v-8.44h9.84v8.44h-9.84Zm.1-8.36v8.28h9.65v-8.28h-9.65Z"/>
          <path class="cls-1" d="m210.62,72.94v-8.44h9.84v8.44h-9.84Zm.1-8.36v8.28h9.65v-8.28h-9.65Z"/>
          <path class="cls-1" d="m210.62,81.29v-8.44h9.84v8.44h-9.84Zm.1-8.36v8.28h9.65v-8.28h-9.65Z"/>
          <path class="cls-1" d="m210.62,89.65v-8.44h9.84v8.44h-9.84Zm.1-8.36v8.28h9.65v-8.28h-9.65Z"/>
          <path class="cls-1" d="m210.62,98.01v-8.44h9.84v8.44h-9.84Zm.1-8.36v8.28h9.65v-8.28h-9.65Z"/>
          <path class="cls-1" d="m210.62,106.37v-8.44h9.84v8.44h-9.84Zm.1-8.36v8.28h9.65v-8.28h-9.65Z"/>
          <path class="cls-1" d="m210.62,114.73v-8.44h9.84v8.44h-9.84Zm.1-8.36v8.28h9.65v-8.28h-9.65Z"/>
          <path class="cls-1" d="m210.62,123.09v-8.44h9.84v8.44h-9.84Zm.1-8.36v8.28h9.65v-8.28h-9.65Z"/>
          <path class="cls-1" d="m210.62,131.45v-8.44h9.84v8.44h-9.84Zm.1-8.36v8.28h9.65v-8.28h-9.65Z"/>
          <path class="cls-1" d="m210.62,139.81v-8.44h9.84v8.44h-9.84Zm.1-8.36v8.28h9.65v-8.28h-9.65Z"/>
          <path class="cls-1" d="m210.62,148.17v-8.44h9.84v8.44h-9.84Zm.1-8.36v8.28h9.65v-8.28h-9.65Z"/>
          <path class="cls-1" d="m210.62,156.52v-8.44h9.84v8.44h-9.84Zm.1-8.36v8.28h9.65v-8.28h-9.65Z"/>
          <path class="cls-1" d="m210.62,164.88v-8.44h9.84v8.44h-9.84Zm.1-8.36v8.28h9.65v-8.28h-9.65Z"/>
          <path class="cls-1" d="m210.62,173.24v-8.44h9.84v8.44h-9.84Zm.1-8.36v8.28h9.65v-8.28h-9.65Z"/>
          <path class="cls-1" d="m210.62,181.6v-8.44h9.84v8.44h-9.84Zm.1-8.36v8.28h9.65v-8.28h-9.65Z"/>
          <path class="cls-1" d="m210.62,189.96v-8.44h9.84v8.44h-9.84Zm.1-8.36v8.28h9.65v-8.28h-9.65Z"/>
          <path class="cls-1" d="m210.62,198.32v-8.44h9.84v8.44h-9.84Zm.1-8.36v8.28h9.65v-8.28h-9.65Z"/>
        </g>
        <g>
          <path class="cls-1" d="m200.87,14.42V5.98h9.84v8.44h-9.84Zm.1-8.36v8.28h9.65V6.06h-9.65Z"/>
          <path class="cls-1" d="m200.87,22.78v-8.44h9.84v8.44h-9.84Zm.1-8.36v8.28h9.65v-8.28h-9.65Z"/>
          <path class="cls-1" d="m200.87,31.14v-8.44h9.84v8.44h-9.84Zm.1-8.36v8.28h9.65v-8.28h-9.65Z"/>
          <path class="cls-1" d="m200.87,39.5v-8.44h9.84v8.44h-9.84Zm.1-8.36v8.28h9.65v-8.28h-9.65Z"/>
          <path class="cls-1" d="m200.87,47.86v-8.44h9.84v8.44h-9.84Zm.1-8.36v8.28h9.65v-8.28h-9.65Z"/>
          <path class="cls-1" d="m200.87,56.22v-8.44h9.84v8.44h-9.84Zm.1-8.36v8.28h9.65v-8.28h-9.65Z"/>
          <path class="cls-1" d="m200.87,64.58v-8.44h9.84v8.44h-9.84Zm.1-8.36v8.28h9.65v-8.28h-9.65Z"/>
          <path class="cls-1" d="m200.87,72.94v-8.44h9.84v8.44h-9.84Zm.1-8.36v8.28h9.65v-8.28h-9.65Z"/>
          <path class="cls-1" d="m200.87,81.29v-8.44h9.84v8.44h-9.84Zm.1-8.36v8.28h9.65v-8.28h-9.65Z"/>
          <path class="cls-1" d="m200.87,89.65v-8.44h9.84v8.44h-9.84Zm.1-8.36v8.28h9.65v-8.28h-9.65Z"/>
          <path class="cls-1" d="m200.87,98.01v-8.44h9.84v8.44h-9.84Zm.1-8.36v8.28h9.65v-8.28h-9.65Z"/>
          <path class="cls-1" d="m200.87,106.37v-8.44h9.84v8.44h-9.84Zm.1-8.36v8.28h9.65v-8.28h-9.65Z"/>
          <path class="cls-1" d="m200.87,114.73v-8.44h9.84v8.44h-9.84Zm.1-8.36v8.28h9.65v-8.28h-9.65Z"/>
          <path class="cls-1" d="m200.87,123.09v-8.44h9.84v8.44h-9.84Zm.1-8.36v8.28h9.65v-8.28h-9.65Z"/>
          <path class="cls-1" d="m200.87,131.45v-8.44h9.84v8.44h-9.84Zm.1-8.36v8.28h9.65v-8.28h-9.65Z"/>
          <path class="cls-1" d="m200.87,139.81v-8.44h9.84v8.44h-9.84Zm.1-8.36v8.28h9.65v-8.28h-9.65Z"/>
          <path class="cls-1" d="m200.87,148.17v-8.44h9.84v8.44h-9.84Zm.1-8.36v8.28h9.65v-8.28h-9.65Z"/>
          <path class="cls-1" d="m200.87,156.52v-8.44h9.84v8.44h-9.84Zm.1-8.36v8.28h9.65v-8.28h-9.65Z"/>
          <path class="cls-1" d="m200.87,164.88v-8.44h9.84v8.44h-9.84Zm.1-8.36v8.28h9.65v-8.28h-9.65Z"/>
          <path class="cls-1" d="m200.87,173.24v-8.44h9.84v8.44h-9.84Zm.1-8.36v8.28h9.65v-8.28h-9.65Z"/>
          <path class="cls-1" d="m200.87,181.6v-8.44h9.84v8.44h-9.84Zm.1-8.36v8.28h9.65v-8.28h-9.65Z"/>
          <path class="cls-1" d="m200.87,189.96v-8.44h9.84v8.44h-9.84Zm.1-8.36v8.28h9.65v-8.28h-9.65Z"/>
          <path class="cls-1" d="m200.87,198.32v-8.44h9.84v8.44h-9.84Zm.1-8.36v8.28h9.65v-8.28h-9.65Z"/>
        </g>
        <g>
          <path class="cls-1" d="m191.13,14.42V5.98h9.84v8.44h-9.84Zm.1-8.36v8.28h9.65V6.06h-9.65Z"/>
          <path class="cls-1" d="m191.13,22.78v-8.44h9.84v8.44h-9.84Zm.1-8.36v8.28h9.65v-8.28h-9.65Z"/>
          <path class="cls-1" d="m191.13,31.14v-8.44h9.84v8.44h-9.84Zm.1-8.36v8.28h9.65v-8.28h-9.65Z"/>
          <path class="cls-1" d="m191.13,39.5v-8.44h9.84v8.44h-9.84Zm.1-8.36v8.28h9.65v-8.28h-9.65Z"/>
          <path class="cls-1" d="m191.13,47.86v-8.44h9.84v8.44h-9.84Zm.1-8.36v8.28h9.65v-8.28h-9.65Z"/>
          <path class="cls-1" d="m191.13,56.22v-8.44h9.84v8.44h-9.84Zm.1-8.36v8.28h9.65v-8.28h-9.65Z"/>
          <path class="cls-1" d="m191.13,64.58v-8.44h9.84v8.44h-9.84Zm.1-8.36v8.28h9.65v-8.28h-9.65Z"/>
          <path class="cls-1" d="m191.13,72.94v-8.44h9.84v8.44h-9.84Zm.1-8.36v8.28h9.65v-8.28h-9.65Z"/>
          <path class="cls-1" d="m191.13,81.29v-8.44h9.84v8.44h-9.84Zm.1-8.36v8.28h9.65v-8.28h-9.65Z"/>
          <path class="cls-1" d="m191.13,89.65v-8.44h9.84v8.44h-9.84Zm.1-8.36v8.28h9.65v-8.28h-9.65Z"/>
          <path class="cls-1" d="m191.13,98.01v-8.44h9.84v8.44h-9.84Zm.1-8.36v8.28h9.65v-8.28h-9.65Z"/>
          <path class="cls-1" d="m191.13,106.37v-8.44h9.84v8.44h-9.84Zm.1-8.36v8.28h9.65v-8.28h-9.65Z"/>
          <path class="cls-1" d="m191.13,114.73v-8.44h9.84v8.44h-9.84Zm.1-8.36v8.28h9.65v-8.28h-9.65Z"/>
          <path class="cls-1" d="m191.13,123.09v-8.44h9.84v8.44h-9.84Zm.1-8.36v8.28h9.65v-8.28h-9.65Z"/>
          <path class="cls-1" d="m191.13,131.45v-8.44h9.84v8.44h-9.84Zm.1-8.36v8.28h9.65v-8.28h-9.65Z"/>
          <path class="cls-1" d="m191.13,139.81v-8.44h9.84v8.44h-9.84Zm.1-8.36v8.28h9.65v-8.28h-9.65Z"/>
          <path class="cls-1" d="m191.13,148.17v-8.44h9.84v8.44h-9.84Zm.1-8.36v8.28h9.65v-8.28h-9.65Z"/>
          <path class="cls-1" d="m191.13,156.52v-8.44h9.84v8.44h-9.84Zm.1-8.36v8.28h9.65v-8.28h-9.65Z"/>
          <path class="cls-1" d="m191.13,164.88v-8.44h9.84v8.44h-9.84Zm.1-8.36v8.28h9.65v-8.28h-9.65Z"/>
          <path class="cls-1" d="m191.13,173.24v-8.44h9.84v8.44h-9.84Zm.1-8.36v8.28h9.65v-8.28h-9.65Z"/>
          <path class="cls-1" d="m191.13,181.6v-8.44h9.84v8.44h-9.84Zm.1-8.36v8.28h9.65v-8.28h-9.65Z"/>
          <path class="cls-1" d="m191.13,189.96v-8.44h9.84v8.44h-9.84Zm.1-8.36v8.28h9.65v-8.28h-9.65Z"/>
          <path class="cls-1" d="m191.13,198.32v-8.44h9.84v8.44h-9.84Zm.1-8.36v8.28h9.65v-8.28h-9.65Z"/>
        </g>
        <g>
          <path class="cls-1" d="m181.38,14.42V5.98h9.84v8.44h-9.84Zm.1-8.36v8.28h9.65V6.06h-9.65Z"/>
          <path class="cls-1" d="m181.38,22.78v-8.44h9.84v8.44h-9.84Zm.1-8.36v8.28h9.65v-8.28h-9.65Z"/>
          <path class="cls-1" d="m181.38,31.14v-8.44h9.84v8.44h-9.84Zm.1-8.36v8.28h9.65v-8.28h-9.65Z"/>
          <path class="cls-1" d="m181.38,39.5v-8.44h9.84v8.44h-9.84Zm.1-8.36v8.28h9.65v-8.28h-9.65Z"/>
          <path class="cls-1" d="m181.38,47.86v-8.44h9.84v8.44h-9.84Zm.1-8.36v8.28h9.65v-8.28h-9.65Z"/>
          <path class="cls-1" d="m181.38,56.22v-8.44h9.84v8.44h-9.84Zm.1-8.36v8.28h9.65v-8.28h-9.65Z"/>
          <path class="cls-1" d="m181.38,64.58v-8.44h9.84v8.44h-9.84Zm.1-8.36v8.28h9.65v-8.28h-9.65Z"/>
          <path class="cls-1" d="m181.38,72.94v-8.44h9.84v8.44h-9.84Zm.1-8.36v8.28h9.65v-8.28h-9.65Z"/>
          <path class="cls-1" d="m181.38,81.29v-8.44h9.84v8.44h-9.84Zm.1-8.36v8.28h9.65v-8.28h-9.65Z"/>
          <path class="cls-1" d="m181.38,89.65v-8.44h9.84v8.44h-9.84Zm.1-8.36v8.28h9.65v-8.28h-9.65Z"/>
          <path class="cls-1" d="m181.38,98.01v-8.44h9.84v8.44h-9.84Zm.1-8.36v8.28h9.65v-8.28h-9.65Z"/>
          <path class="cls-1" d="m181.38,106.37v-8.44h9.84v8.44h-9.84Zm.1-8.36v8.28h9.65v-8.28h-9.65Z"/>
          <path class="cls-1" d="m181.38,114.73v-8.44h9.84v8.44h-9.84Zm.1-8.36v8.28h9.65v-8.28h-9.65Z"/>
          <path class="cls-1" d="m181.38,123.09v-8.44h9.84v8.44h-9.84Zm.1-8.36v8.28h9.65v-8.28h-9.65Z"/>
          <path class="cls-1" d="m181.38,131.45v-8.44h9.84v8.44h-9.84Zm.1-8.36v8.28h9.65v-8.28h-9.65Z"/>
          <path class="cls-1" d="m181.38,139.81v-8.44h9.84v8.44h-9.84Zm.1-8.36v8.28h9.65v-8.28h-9.65Z"/>
          <path class="cls-1" d="m181.38,148.17v-8.44h9.84v8.44h-9.84Zm.1-8.36v8.28h9.65v-8.28h-9.65Z"/>
          <path class="cls-1" d="m181.38,156.52v-8.44h9.84v8.44h-9.84Zm.1-8.36v8.28h9.65v-8.28h-9.65Z"/>
          <path class="cls-1" d="m181.38,164.88v-8.44h9.84v8.44h-9.84Zm.1-8.36v8.28h9.65v-8.28h-9.65Z"/>
          <path class="cls-1" d="m181.38,173.24v-8.44h9.84v8.44h-9.84Zm.1-8.36v8.28h9.65v-8.28h-9.65Z"/>
          <path class="cls-1" d="m181.38,181.6v-8.44h9.84v8.44h-9.84Zm.1-8.36v8.28h9.65v-8.28h-9.65Z"/>
          <path class="cls-1" d="m181.38,189.96v-8.44h9.84v8.44h-9.84Zm.1-8.36v8.28h9.65v-8.28h-9.65Z"/>
          <path class="cls-1" d="m181.38,198.32v-8.44h9.84v8.44h-9.84Zm.1-8.36v8.28h9.65v-8.28h-9.65Z"/>
        </g>
        <g>
          <path class="cls-1" d="m171.64,14.42V5.98h9.84v8.44h-9.84Zm.1-8.36v8.28h9.65V6.06h-9.65Z"/>
          <path class="cls-1" d="m171.64,22.78v-8.44h9.84v8.44h-9.84Zm.1-8.36v8.28h9.65v-8.28h-9.65Z"/>
          <path class="cls-1" d="m171.64,31.14v-8.44h9.84v8.44h-9.84Zm.1-8.36v8.28h9.65v-8.28h-9.65Z"/>
          <path class="cls-1" d="m171.64,39.5v-8.44h9.84v8.44h-9.84Zm.1-8.36v8.28h9.65v-8.28h-9.65Z"/>
          <path class="cls-1" d="m171.64,47.86v-8.44h9.84v8.44h-9.84Zm.1-8.36v8.28h9.65v-8.28h-9.65Z"/>
          <path class="cls-1" d="m171.64,56.22v-8.44h9.84v8.44h-9.84Zm.1-8.36v8.28h9.65v-8.28h-9.65Z"/>
          <path class="cls-1" d="m171.64,64.58v-8.44h9.84v8.44h-9.84Zm.1-8.36v8.28h9.65v-8.28h-9.65Z"/>
          <path class="cls-1" d="m171.64,72.94v-8.44h9.84v8.44h-9.84Zm.1-8.36v8.28h9.65v-8.28h-9.65Z"/>
          <path class="cls-1" d="m171.64,81.29v-8.44h9.84v8.44h-9.84Zm.1-8.36v8.28h9.65v-8.28h-9.65Z"/>
          <path class="cls-1" d="m171.64,89.65v-8.44h9.84v8.44h-9.84Zm.1-8.36v8.28h9.65v-8.28h-9.65Z"/>
          <path class="cls-1" d="m171.64,98.01v-8.44h9.84v8.44h-9.84Zm.1-8.36v8.28h9.65v-8.28h-9.65Z"/>
          <path class="cls-1" d="m171.64,106.37v-8.44h9.84v8.44h-9.84Zm.1-8.36v8.28h9.65v-8.28h-9.65Z"/>
          <path class="cls-1" d="m171.64,114.73v-8.44h9.84v8.44h-9.84Zm.1-8.36v8.28h9.65v-8.28h-9.65Z"/>
          <path class="cls-1" d="m171.64,123.09v-8.44h9.84v8.44h-9.84Zm.1-8.36v8.28h9.65v-8.28h-9.65Z"/>
          <path class="cls-1" d="m171.64,131.45v-8.44h9.84v8.44h-9.84Zm.1-8.36v8.28h9.65v-8.28h-9.65Z"/>
          <path class="cls-1" d="m171.64,139.81v-8.44h9.84v8.44h-9.84Zm.1-8.36v8.28h9.65v-8.28h-9.65Z"/>
          <path class="cls-1" d="m171.64,148.17v-8.44h9.84v8.44h-9.84Zm.1-8.36v8.28h9.65v-8.28h-9.65Z"/>
          <path class="cls-1" d="m171.64,156.52v-8.44h9.84v8.44h-9.84Zm.1-8.36v8.28h9.65v-8.28h-9.65Z"/>
          <path class="cls-1" d="m171.64,164.88v-8.44h9.84v8.44h-9.84Zm.1-8.36v8.28h9.65v-8.28h-9.65Z"/>
          <path class="cls-1" d="m171.64,173.24v-8.44h9.84v8.44h-9.84Zm.1-8.36v8.28h9.65v-8.28h-9.65Z"/>
          <path class="cls-1" d="m171.64,181.6v-8.44h9.84v8.44h-9.84Zm.1-8.36v8.28h9.65v-8.28h-9.65Z"/>
          <path class="cls-1" d="m171.64,189.96v-8.44h9.84v8.44h-9.84Zm.1-8.36v8.28h9.65v-8.28h-9.65Z"/>
          <path class="cls-1" d="m171.64,198.32v-8.44h9.84v8.44h-9.84Zm.1-8.36v8.28h9.65v-8.28h-9.65Z"/>
        </g>
        <g>
          <path class="cls-1" d="m161.89,14.42V5.98h9.84v8.44h-9.84Zm.1-8.36v8.28h9.65V6.06h-9.65Z"/>
          <path class="cls-1" d="m161.89,22.78v-8.44h9.84v8.44h-9.84Zm.1-8.36v8.28h9.65v-8.28h-9.65Z"/>
          <path class="cls-1" d="m161.89,31.14v-8.44h9.84v8.44h-9.84Zm.1-8.36v8.28h9.65v-8.28h-9.65Z"/>
          <path class="cls-1" d="m161.89,39.5v-8.44h9.84v8.44h-9.84Zm.1-8.36v8.28h9.65v-8.28h-9.65Z"/>
          <path class="cls-1" d="m161.89,47.86v-8.44h9.84v8.44h-9.84Zm.1-8.36v8.28h9.65v-8.28h-9.65Z"/>
          <path class="cls-1" d="m161.89,56.22v-8.44h9.84v8.44h-9.84Zm.1-8.36v8.28h9.65v-8.28h-9.65Z"/>
          <path class="cls-1" d="m161.89,64.58v-8.44h9.84v8.44h-9.84Zm.1-8.36v8.28h9.65v-8.28h-9.65Z"/>
          <path class="cls-1" d="m161.89,72.94v-8.44h9.84v8.44h-9.84Zm.1-8.36v8.28h9.65v-8.28h-9.65Z"/>
          <path class="cls-1" d="m161.89,81.29v-8.44h9.84v8.44h-9.84Zm.1-8.36v8.28h9.65v-8.28h-9.65Z"/>
          <path class="cls-1" d="m161.89,89.65v-8.44h9.84v8.44h-9.84Zm.1-8.36v8.28h9.65v-8.28h-9.65Z"/>
          <path class="cls-1" d="m161.89,98.01v-8.44h9.84v8.44h-9.84Zm.1-8.36v8.28h9.65v-8.28h-9.65Z"/>
          <path class="cls-1" d="m161.89,106.37v-8.44h9.84v8.44h-9.84Zm.1-8.36v8.28h9.65v-8.28h-9.65Z"/>
          <path class="cls-1" d="m161.89,114.73v-8.44h9.84v8.44h-9.84Zm.1-8.36v8.28h9.65v-8.28h-9.65Z"/>
          <path class="cls-1" d="m161.89,123.09v-8.44h9.84v8.44h-9.84Zm.1-8.36v8.28h9.65v-8.28h-9.65Z"/>
          <path class="cls-1" d="m161.89,131.45v-8.44h9.84v8.44h-9.84Zm.1-8.36v8.28h9.65v-8.28h-9.65Z"/>
          <path class="cls-1" d="m161.89,139.81v-8.44h9.84v8.44h-9.84Zm.1-8.36v8.28h9.65v-8.28h-9.65Z"/>
          <path class="cls-1" d="m161.89,148.17v-8.44h9.84v8.44h-9.84Zm.1-8.36v8.28h9.65v-8.28h-9.65Z"/>
          <path class="cls-1" d="m161.89,156.52v-8.44h9.84v8.44h-9.84Zm.1-8.36v8.28h9.65v-8.28h-9.65Z"/>
          <path class="cls-1" d="m161.89,164.88v-8.44h9.84v8.44h-9.84Zm.1-8.36v8.28h9.65v-8.28h-9.65Z"/>
          <path class="cls-1" d="m161.89,173.24v-8.44h9.84v8.44h-9.84Zm.1-8.36v8.28h9.65v-8.28h-9.65Z"/>
          <path class="cls-1" d="m161.89,181.6v-8.44h9.84v8.44h-9.84Zm.1-8.36v8.28h9.65v-8.28h-9.65Z"/>
          <path class="cls-1" d="m161.89,189.96v-8.44h9.84v8.44h-9.84Zm.1-8.36v8.28h9.65v-8.28h-9.65Z"/>
          <path class="cls-1" d="m161.89,198.32v-8.44h9.84v8.44h-9.84Zm.1-8.36v8.28h9.65v-8.28h-9.65Z"/>
        </g>
        <g>
          <path class="cls-1" d="m152.15,14.42V5.98h9.84v8.44h-9.84Zm.1-8.36v8.28h9.65V6.06h-9.65Z"/>
          <path class="cls-1" d="m152.15,22.78v-8.44h9.84v8.44h-9.84Zm.1-8.36v8.28h9.65v-8.28h-9.65Z"/>
          <path class="cls-1" d="m152.15,31.14v-8.44h9.84v8.44h-9.84Zm.1-8.36v8.28h9.65v-8.28h-9.65Z"/>
          <path class="cls-1" d="m152.15,39.5v-8.44h9.84v8.44h-9.84Zm.1-8.36v8.28h9.65v-8.28h-9.65Z"/>
          <path class="cls-1" d="m152.15,47.86v-8.44h9.84v8.44h-9.84Zm.1-8.36v8.28h9.65v-8.28h-9.65Z"/>
          <path class="cls-1" d="m152.15,56.22v-8.44h9.84v8.44h-9.84Zm.1-8.36v8.28h9.65v-8.28h-9.65Z"/>
          <path class="cls-1" d="m152.15,64.58v-8.44h9.84v8.44h-9.84Zm.1-8.36v8.28h9.65v-8.28h-9.65Z"/>
          <path class="cls-1" d="m152.15,72.94v-8.44h9.84v8.44h-9.84Zm.1-8.36v8.28h9.65v-8.28h-9.65Z"/>
          <path class="cls-1" d="m152.15,81.29v-8.44h9.84v8.44h-9.84Zm.1-8.36v8.28h9.65v-8.28h-9.65Z"/>
          <path class="cls-1" d="m152.15,89.65v-8.44h9.84v8.44h-9.84Zm.1-8.36v8.28h9.65v-8.28h-9.65Z"/>
          <path class="cls-1" d="m152.15,98.01v-8.44h9.84v8.44h-9.84Zm.1-8.36v8.28h9.65v-8.28h-9.65Z"/>
          <path class="cls-1" d="m152.15,106.37v-8.44h9.84v8.44h-9.84Zm.1-8.36v8.28h9.65v-8.28h-9.65Z"/>
          <path class="cls-1" d="m152.15,114.73v-8.44h9.84v8.44h-9.84Zm.1-8.36v8.28h9.65v-8.28h-9.65Z"/>
          <path class="cls-1" d="m152.15,123.09v-8.44h9.84v8.44h-9.84Zm.1-8.36v8.28h9.65v-8.28h-9.65Z"/>
          <path class="cls-1" d="m152.15,131.45v-8.44h9.84v8.44h-9.84Zm.1-8.36v8.28h9.65v-8.28h-9.65Z"/>
          <path class="cls-1" d="m152.15,139.81v-8.44h9.84v8.44h-9.84Zm.1-8.36v8.28h9.65v-8.28h-9.65Z"/>
          <path class="cls-1" d="m152.15,148.17v-8.44h9.84v8.44h-9.84Zm.1-8.36v8.28h9.65v-8.28h-9.65Z"/>
          <path class="cls-1" d="m152.15,156.52v-8.44h9.84v8.44h-9.84Zm.1-8.36v8.28h9.65v-8.28h-9.65Z"/>
          <path class="cls-1" d="m152.15,164.88v-8.44h9.84v8.44h-9.84Zm.1-8.36v8.28h9.65v-8.28h-9.65Z"/>
          <path class="cls-1" d="m152.15,173.24v-8.44h9.84v8.44h-9.84Zm.1-8.36v8.28h9.65v-8.28h-9.65Z"/>
          <path class="cls-1" d="m152.15,181.6v-8.44h9.84v8.44h-9.84Zm.1-8.36v8.28h9.65v-8.28h-9.65Z"/>
          <path class="cls-1" d="m152.15,189.96v-8.44h9.84v8.44h-9.84Zm.1-8.36v8.28h9.65v-8.28h-9.65Z"/>
          <path class="cls-1" d="m152.15,198.32v-8.44h9.84v8.44h-9.84Zm.1-8.36v8.28h9.65v-8.28h-9.65Z"/>
        </g>
        <g>
          <path class="cls-1" d="m142.4,14.42V5.98h9.84v8.44h-9.84Zm.1-8.36v8.28h9.65V6.06h-9.65Z"/>
          <path class="cls-1" d="m142.4,22.78v-8.44h9.84v8.44h-9.84Zm.1-8.36v8.28h9.65v-8.28h-9.65Z"/>
          <path class="cls-1" d="m142.4,31.14v-8.44h9.84v8.44h-9.84Zm.1-8.36v8.28h9.65v-8.28h-9.65Z"/>
          <path class="cls-1" d="m142.4,39.5v-8.44h9.84v8.44h-9.84Zm.1-8.36v8.28h9.65v-8.28h-9.65Z"/>
          <path class="cls-1" d="m142.4,47.86v-8.44h9.84v8.44h-9.84Zm.1-8.36v8.28h9.65v-8.28h-9.65Z"/>
          <path class="cls-1" d="m142.4,56.22v-8.44h9.84v8.44h-9.84Zm.1-8.36v8.28h9.65v-8.28h-9.65Z"/>
          <path class="cls-1" d="m142.4,64.58v-8.44h9.84v8.44h-9.84Zm.1-8.36v8.28h9.65v-8.28h-9.65Z"/>
          <path class="cls-1" d="m142.4,72.94v-8.44h9.84v8.44h-9.84Zm.1-8.36v8.28h9.65v-8.28h-9.65Z"/>
          <path class="cls-1" d="m142.4,81.29v-8.44h9.84v8.44h-9.84Zm.1-8.36v8.28h9.65v-8.28h-9.65Z"/>
          <path class="cls-1" d="m142.4,89.65v-8.44h9.84v8.44h-9.84Zm.1-8.36v8.28h9.65v-8.28h-9.65Z"/>
          <path class="cls-1" d="m142.4,98.01v-8.44h9.84v8.44h-9.84Zm.1-8.36v8.28h9.65v-8.28h-9.65Z"/>
          <path class="cls-1" d="m142.4,106.37v-8.44h9.84v8.44h-9.84Zm.1-8.36v8.28h9.65v-8.28h-9.65Z"/>
          <path class="cls-1" d="m142.4,114.73v-8.44h9.84v8.44h-9.84Zm.1-8.36v8.28h9.65v-8.28h-9.65Z"/>
          <path class="cls-1" d="m142.4,123.09v-8.44h9.84v8.44h-9.84Zm.1-8.36v8.28h9.65v-8.28h-9.65Z"/>
          <path class="cls-1" d="m142.4,131.45v-8.44h9.84v8.44h-9.84Zm.1-8.36v8.28h9.65v-8.28h-9.65Z"/>
          <path class="cls-1" d="m142.4,139.81v-8.44h9.84v8.44h-9.84Zm.1-8.36v8.28h9.65v-8.28h-9.65Z"/>
          <path class="cls-1" d="m142.4,148.17v-8.44h9.84v8.44h-9.84Zm.1-8.36v8.28h9.65v-8.28h-9.65Z"/>
          <path class="cls-1" d="m142.4,156.52v-8.44h9.84v8.44h-9.84Zm.1-8.36v8.28h9.65v-8.28h-9.65Z"/>
          <path class="cls-1" d="m142.4,164.88v-8.44h9.84v8.44h-9.84Zm.1-8.36v8.28h9.65v-8.28h-9.65Z"/>
          <path class="cls-1" d="m142.4,173.24v-8.44h9.84v8.44h-9.84Zm.1-8.36v8.28h9.65v-8.28h-9.65Z"/>
          <path class="cls-1" d="m142.4,181.6v-8.44h9.84v8.44h-9.84Zm.1-8.36v8.28h9.65v-8.28h-9.65Z"/>
          <path class="cls-1" d="m142.4,189.96v-8.44h9.84v8.44h-9.84Zm.1-8.36v8.28h9.65v-8.28h-9.65Z"/>
          <path class="cls-1" d="m142.4,198.32v-8.44h9.84v8.44h-9.84Zm.1-8.36v8.28h9.65v-8.28h-9.65Z"/>
        </g>
        <g>
          <path class="cls-1" d="m132.66,14.42V5.98h9.84v8.44h-9.84Zm.1-8.36v8.28h9.65V6.06h-9.65Z"/>
          <path class="cls-1" d="m132.66,22.78v-8.44h9.84v8.44h-9.84Zm.1-8.36v8.28h9.65v-8.28h-9.65Z"/>
          <path class="cls-1" d="m132.66,31.14v-8.44h9.84v8.44h-9.84Zm.1-8.36v8.28h9.65v-8.28h-9.65Z"/>
          <path class="cls-1" d="m132.66,39.5v-8.44h9.84v8.44h-9.84Zm.1-8.36v8.28h9.65v-8.28h-9.65Z"/>
          <path class="cls-1" d="m132.66,47.86v-8.44h9.84v8.44h-9.84Zm.1-8.36v8.28h9.65v-8.28h-9.65Z"/>
          <path class="cls-1" d="m132.66,56.22v-8.44h9.84v8.44h-9.84Zm.1-8.36v8.28h9.65v-8.28h-9.65Z"/>
          <path class="cls-1" d="m132.66,64.58v-8.44h9.84v8.44h-9.84Zm.1-8.36v8.28h9.65v-8.28h-9.65Z"/>
          <path class="cls-1" d="m132.66,72.94v-8.44h9.84v8.44h-9.84Zm.1-8.36v8.28h9.65v-8.28h-9.65Z"/>
          <path class="cls-1" d="m132.66,81.29v-8.44h9.84v8.44h-9.84Zm.1-8.36v8.28h9.65v-8.28h-9.65Z"/>
          <path class="cls-1" d="m132.66,89.65v-8.44h9.84v8.44h-9.84Zm.1-8.36v8.28h9.65v-8.28h-9.65Z"/>
          <path class="cls-1" d="m132.66,98.01v-8.44h9.84v8.44h-9.84Zm.1-8.36v8.28h9.65v-8.28h-9.65Z"/>
          <path class="cls-1" d="m132.66,106.37v-8.44h9.84v8.44h-9.84Zm.1-8.36v8.28h9.65v-8.28h-9.65Z"/>
          <path class="cls-1" d="m132.66,114.73v-8.44h9.84v8.44h-9.84Zm.1-8.36v8.28h9.65v-8.28h-9.65Z"/>
          <path class="cls-1" d="m132.66,123.09v-8.44h9.84v8.44h-9.84Zm.1-8.36v8.28h9.65v-8.28h-9.65Z"/>
          <path class="cls-1" d="m132.66,131.45v-8.44h9.84v8.44h-9.84Zm.1-8.36v8.28h9.65v-8.28h-9.65Z"/>
          <path class="cls-1" d="m132.66,139.81v-8.44h9.84v8.44h-9.84Zm.1-8.36v8.28h9.65v-8.28h-9.65Z"/>
          <path class="cls-1" d="m132.66,148.17v-8.44h9.84v8.44h-9.84Zm.1-8.36v8.28h9.65v-8.28h-9.65Z"/>
          <path class="cls-1" d="m132.66,156.52v-8.44h9.84v8.44h-9.84Zm.1-8.36v8.28h9.65v-8.28h-9.65Z"/>
          <path class="cls-1" d="m132.66,164.88v-8.44h9.84v8.44h-9.84Zm.1-8.36v8.28h9.65v-8.28h-9.65Z"/>
          <path class="cls-1" d="m132.66,173.24v-8.44h9.84v8.44h-9.84Zm.1-8.36v8.28h9.65v-8.28h-9.65Z"/>
          <path class="cls-1" d="m132.66,181.6v-8.44h9.84v8.44h-9.84Zm.1-8.36v8.28h9.65v-8.28h-9.65Z"/>
          <path class="cls-1" d="m132.66,189.96v-8.44h9.84v8.44h-9.84Zm.1-8.36v8.28h9.65v-8.28h-9.65Z"/>
          <path class="cls-1" d="m132.66,198.32v-8.44h9.84v8.44h-9.84Zm.1-8.36v8.28h9.65v-8.28h-9.65Z"/>
        </g>
        <g>
          <path class="cls-1" d="m122.91,14.42V5.98h9.84v8.44h-9.84Zm.1-8.36v8.28h9.65V6.06h-9.65Z"/>
          <path class="cls-1" d="m122.91,22.78v-8.44h9.84v8.44h-9.84Zm.1-8.36v8.28h9.65v-8.28h-9.65Z"/>
          <path class="cls-1" d="m122.91,31.14v-8.44h9.84v8.44h-9.84Zm.1-8.36v8.28h9.65v-8.28h-9.65Z"/>
          <path class="cls-1" d="m122.91,39.5v-8.44h9.84v8.44h-9.84Zm.1-8.36v8.28h9.65v-8.28h-9.65Z"/>
          <path class="cls-1" d="m122.91,47.86v-8.44h9.84v8.44h-9.84Zm.1-8.36v8.28h9.65v-8.28h-9.65Z"/>
          <path class="cls-1" d="m122.91,56.22v-8.44h9.84v8.44h-9.84Zm.1-8.36v8.28h9.65v-8.28h-9.65Z"/>
          <path class="cls-1" d="m122.91,64.58v-8.44h9.84v8.44h-9.84Zm.1-8.36v8.28h9.65v-8.28h-9.65Z"/>
          <path class="cls-1" d="m122.91,72.94v-8.44h9.84v8.44h-9.84Zm.1-8.36v8.28h9.65v-8.28h-9.65Z"/>
          <path class="cls-1" d="m122.91,81.29v-8.44h9.84v8.44h-9.84Zm.1-8.36v8.28h9.65v-8.28h-9.65Z"/>
          <path class="cls-1" d="m122.91,89.65v-8.44h9.84v8.44h-9.84Zm.1-8.36v8.28h9.65v-8.28h-9.65Z"/>
          <path class="cls-1" d="m122.91,98.01v-8.44h9.84v8.44h-9.84Zm.1-8.36v8.28h9.65v-8.28h-9.65Z"/>
          <path class="cls-1" d="m122.91,106.37v-8.44h9.84v8.44h-9.84Zm.1-8.36v8.28h9.65v-8.28h-9.65Z"/>
          <path class="cls-1" d="m122.91,114.73v-8.44h9.84v8.44h-9.84Zm.1-8.36v8.28h9.65v-8.28h-9.65Z"/>
          <path class="cls-1" d="m122.91,123.09v-8.44h9.84v8.44h-9.84Zm.1-8.36v8.28h9.65v-8.28h-9.65Z"/>
          <path class="cls-1" d="m122.91,131.45v-8.44h9.84v8.44h-9.84Zm.1-8.36v8.28h9.65v-8.28h-9.65Z"/>
          <path class="cls-1" d="m122.91,139.81v-8.44h9.84v8.44h-9.84Zm.1-8.36v8.28h9.65v-8.28h-9.65Z"/>
          <path class="cls-1" d="m122.91,148.17v-8.44h9.84v8.44h-9.84Zm.1-8.36v8.28h9.65v-8.28h-9.65Z"/>
          <path class="cls-1" d="m122.91,156.52v-8.44h9.84v8.44h-9.84Zm.1-8.36v8.28h9.65v-8.28h-9.65Z"/>
          <path class="cls-1" d="m122.91,164.88v-8.44h9.84v8.44h-9.84Zm.1-8.36v8.28h9.65v-8.28h-9.65Z"/>
          <path class="cls-1" d="m122.91,173.24v-8.44h9.84v8.44h-9.84Zm.1-8.36v8.28h9.65v-8.28h-9.65Z"/>
          <path class="cls-1" d="m122.91,181.6v-8.44h9.84v8.44h-9.84Zm.1-8.36v8.28h9.65v-8.28h-9.65Z"/>
          <path class="cls-1" d="m122.91,189.96v-8.44h9.84v8.44h-9.84Zm.1-8.36v8.28h9.65v-8.28h-9.65Z"/>
          <path class="cls-1" d="m122.91,198.32v-8.44h9.84v8.44h-9.84Zm.1-8.36v8.28h9.65v-8.28h-9.65Z"/>
        </g>
        <g>
          <path class="cls-1" d="m113.17,14.42V5.98h9.84v8.44h-9.84Zm.1-8.36v8.28h9.65V6.06h-9.65Z"/>
          <path class="cls-1" d="m113.17,22.78v-8.44h9.84v8.44h-9.84Zm.1-8.36v8.28h9.65v-8.28h-9.65Z"/>
          <path class="cls-1" d="m113.17,31.14v-8.44h9.84v8.44h-9.84Zm.1-8.36v8.28h9.65v-8.28h-9.65Z"/>
          <path class="cls-1" d="m113.17,39.5v-8.44h9.84v8.44h-9.84Zm.1-8.36v8.28h9.65v-8.28h-9.65Z"/>
          <path class="cls-1" d="m113.17,47.86v-8.44h9.84v8.44h-9.84Zm.1-8.36v8.28h9.65v-8.28h-9.65Z"/>
          <path class="cls-1" d="m113.17,56.22v-8.44h9.84v8.44h-9.84Zm.1-8.36v8.28h9.65v-8.28h-9.65Z"/>
          <path class="cls-1" d="m113.17,64.58v-8.44h9.84v8.44h-9.84Zm.1-8.36v8.28h9.65v-8.28h-9.65Z"/>
          <path class="cls-1" d="m113.17,72.94v-8.44h9.84v8.44h-9.84Zm.1-8.36v8.28h9.65v-8.28h-9.65Z"/>
          <path class="cls-1" d="m113.17,81.29v-8.44h9.84v8.44h-9.84Zm.1-8.36v8.28h9.65v-8.28h-9.65Z"/>
          <path class="cls-1" d="m113.17,89.65v-8.44h9.84v8.44h-9.84Zm.1-8.36v8.28h9.65v-8.28h-9.65Z"/>
          <path class="cls-1" d="m113.17,98.01v-8.44h9.84v8.44h-9.84Zm.1-8.36v8.28h9.65v-8.28h-9.65Z"/>
          <path class="cls-1" d="m113.17,106.37v-8.44h9.84v8.44h-9.84Zm.1-8.36v8.28h9.65v-8.28h-9.65Z"/>
          <path class="cls-1" d="m113.17,114.73v-8.44h9.84v8.44h-9.84Zm.1-8.36v8.28h9.65v-8.28h-9.65Z"/>
          <path class="cls-1" d="m113.17,123.09v-8.44h9.84v8.44h-9.84Zm.1-8.36v8.28h9.65v-8.28h-9.65Z"/>
          <path class="cls-1" d="m113.17,131.45v-8.44h9.84v8.44h-9.84Zm.1-8.36v8.28h9.65v-8.28h-9.65Z"/>
          <path class="cls-1" d="m113.17,139.81v-8.44h9.84v8.44h-9.84Zm.1-8.36v8.28h9.65v-8.28h-9.65Z"/>
          <path class="cls-1" d="m113.17,148.17v-8.44h9.84v8.44h-9.84Zm.1-8.36v8.28h9.65v-8.28h-9.65Z"/>
          <path class="cls-1" d="m113.17,156.52v-8.44h9.84v8.44h-9.84Zm.1-8.36v8.28h9.65v-8.28h-9.65Z"/>
          <path class="cls-1" d="m113.17,164.88v-8.44h9.84v8.44h-9.84Zm.1-8.36v8.28h9.65v-8.28h-9.65Z"/>
          <path class="cls-1" d="m113.17,173.24v-8.44h9.84v8.44h-9.84Zm.1-8.36v8.28h9.65v-8.28h-9.65Z"/>
          <path class="cls-1" d="m113.17,181.6v-8.44h9.84v8.44h-9.84Zm.1-8.36v8.28h9.65v-8.28h-9.65Z"/>
          <path class="cls-1" d="m113.17,189.96v-8.44h9.84v8.44h-9.84Zm.1-8.36v8.28h9.65v-8.28h-9.65Z"/>
          <path class="cls-1" d="m113.17,198.32v-8.44h9.84v8.44h-9.84Zm.1-8.36v8.28h9.65v-8.28h-9.65Z"/>
        </g>
        <g>
          <path class="cls-1" d="m103.42,14.42V5.98h9.84v8.44h-9.84Zm.1-8.36v8.28h9.65V6.06h-9.65Z"/>
          <path class="cls-1" d="m103.42,22.78v-8.44h9.84v8.44h-9.84Zm.1-8.36v8.28h9.65v-8.28h-9.65Z"/>
          <path class="cls-1" d="m103.42,31.14v-8.44h9.84v8.44h-9.84Zm.1-8.36v8.28h9.65v-8.28h-9.65Z"/>
          <path class="cls-1" d="m103.42,39.5v-8.44h9.84v8.44h-9.84Zm.1-8.36v8.28h9.65v-8.28h-9.65Z"/>
          <path class="cls-1" d="m103.42,47.86v-8.44h9.84v8.44h-9.84Zm.1-8.36v8.28h9.65v-8.28h-9.65Z"/>
          <path class="cls-1" d="m103.42,56.22v-8.44h9.84v8.44h-9.84Zm.1-8.36v8.28h9.65v-8.28h-9.65Z"/>
          <path class="cls-1" d="m103.42,64.58v-8.44h9.84v8.44h-9.84Zm.1-8.36v8.28h9.65v-8.28h-9.65Z"/>
          <path class="cls-1" d="m103.42,72.94v-8.44h9.84v8.44h-9.84Zm.1-8.36v8.28h9.65v-8.28h-9.65Z"/>
          <path class="cls-1" d="m103.42,81.29v-8.44h9.84v8.44h-9.84Zm.1-8.36v8.28h9.65v-8.28h-9.65Z"/>
          <path class="cls-1" d="m103.42,89.65v-8.44h9.84v8.44h-9.84Zm.1-8.36v8.28h9.65v-8.28h-9.65Z"/>
          <path class="cls-1" d="m103.42,98.01v-8.44h9.84v8.44h-9.84Zm.1-8.36v8.28h9.65v-8.28h-9.65Z"/>
          <path class="cls-1" d="m103.42,106.37v-8.44h9.84v8.44h-9.84Zm.1-8.36v8.28h9.65v-8.28h-9.65Z"/>
          <path class="cls-1" d="m103.42,114.73v-8.44h9.84v8.44h-9.84Zm.1-8.36v8.28h9.65v-8.28h-9.65Z"/>
          <path class="cls-1" d="m103.42,123.09v-8.44h9.84v8.44h-9.84Zm.1-8.36v8.28h9.65v-8.28h-9.65Z"/>
          <path class="cls-1" d="m103.42,131.45v-8.44h9.84v8.44h-9.84Zm.1-8.36v8.28h9.65v-8.28h-9.65Z"/>
          <path class="cls-1" d="m103.42,139.81v-8.44h9.84v8.44h-9.84Zm.1-8.36v8.28h9.65v-8.28h-9.65Z"/>
          <path class="cls-1" d="m103.42,148.17v-8.44h9.84v8.44h-9.84Zm.1-8.36v8.28h9.65v-8.28h-9.65Z"/>
          <path class="cls-1" d="m103.42,156.52v-8.44h9.84v8.44h-9.84Zm.1-8.36v8.28h9.65v-8.28h-9.65Z"/>
          <path class="cls-1" d="m103.42,164.88v-8.44h9.84v8.44h-9.84Zm.1-8.36v8.28h9.65v-8.28h-9.65Z"/>
          <path class="cls-1" d="m103.42,173.24v-8.44h9.84v8.44h-9.84Zm.1-8.36v8.28h9.65v-8.28h-9.65Z"/>
          <path class="cls-1" d="m103.42,181.6v-8.44h9.84v8.44h-9.84Zm.1-8.36v8.28h9.65v-8.28h-9.65Z"/>
          <path class="cls-1" d="m103.42,189.96v-8.44h9.84v8.44h-9.84Zm.1-8.36v8.28h9.65v-8.28h-9.65Z"/>
          <path class="cls-1" d="m103.42,198.32v-8.44h9.84v8.44h-9.84Zm.1-8.36v8.28h9.65v-8.28h-9.65Z"/>
        </g>
        <g>
          <path class="cls-1" d="m93.68,14.42V5.98h9.84v8.44h-9.84Zm.1-8.36v8.28h9.65V6.06h-9.65Z"/>
          <path class="cls-1" d="m93.68,22.78v-8.44h9.84v8.44h-9.84Zm.1-8.36v8.28h9.65v-8.28h-9.65Z"/>
          <path class="cls-1" d="m93.68,31.14v-8.44h9.84v8.44h-9.84Zm.1-8.36v8.28h9.65v-8.28h-9.65Z"/>
          <path class="cls-1" d="m93.68,39.5v-8.44h9.84v8.44h-9.84Zm.1-8.36v8.28h9.65v-8.28h-9.65Z"/>
          <path class="cls-1" d="m93.68,47.86v-8.44h9.84v8.44h-9.84Zm.1-8.36v8.28h9.65v-8.28h-9.65Z"/>
          <path class="cls-1" d="m93.68,56.22v-8.44h9.84v8.44h-9.84Zm.1-8.36v8.28h9.65v-8.28h-9.65Z"/>
          <path class="cls-1" d="m93.68,64.58v-8.44h9.84v8.44h-9.84Zm.1-8.36v8.28h9.65v-8.28h-9.65Z"/>
          <path class="cls-1" d="m93.68,72.94v-8.44h9.84v8.44h-9.84Zm.1-8.36v8.28h9.65v-8.28h-9.65Z"/>
          <path class="cls-1" d="m93.68,81.29v-8.44h9.84v8.44h-9.84Zm.1-8.36v8.28h9.65v-8.28h-9.65Z"/>
          <path class="cls-1" d="m93.68,89.65v-8.44h9.84v8.44h-9.84Zm.1-8.36v8.28h9.65v-8.28h-9.65Z"/>
          <path class="cls-1" d="m93.68,98.01v-8.44h9.84v8.44h-9.84Zm.1-8.36v8.28h9.65v-8.28h-9.65Z"/>
          <path class="cls-1" d="m93.68,106.37v-8.44h9.84v8.44h-9.84Zm.1-8.36v8.28h9.65v-8.28h-9.65Z"/>
          <path class="cls-1" d="m93.68,114.73v-8.44h9.84v8.44h-9.84Zm.1-8.36v8.28h9.65v-8.28h-9.65Z"/>
          <path class="cls-1" d="m93.68,123.09v-8.44h9.84v8.44h-9.84Zm.1-8.36v8.28h9.65v-8.28h-9.65Z"/>
          <path class="cls-1" d="m93.68,131.45v-8.44h9.84v8.44h-9.84Zm.1-8.36v8.28h9.65v-8.28h-9.65Z"/>
          <path class="cls-1" d="m93.68,139.81v-8.44h9.84v8.44h-9.84Zm.1-8.36v8.28h9.65v-8.28h-9.65Z"/>
          <path class="cls-1" d="m93.68,148.17v-8.44h9.84v8.44h-9.84Zm.1-8.36v8.28h9.65v-8.28h-9.65Z"/>
          <path class="cls-1" d="m93.68,156.52v-8.44h9.84v8.44h-9.84Zm.1-8.36v8.28h9.65v-8.28h-9.65Z"/>
          <path class="cls-1" d="m93.68,164.88v-8.44h9.84v8.44h-9.84Zm.1-8.36v8.28h9.65v-8.28h-9.65Z"/>
          <path class="cls-1" d="m93.68,173.24v-8.44h9.84v8.44h-9.84Zm.1-8.36v8.28h9.65v-8.28h-9.65Z"/>
          <path class="cls-1" d="m93.68,181.6v-8.44h9.84v8.44h-9.84Zm.1-8.36v8.28h9.65v-8.28h-9.65Z"/>
          <path class="cls-1" d="m93.68,189.96v-8.44h9.84v8.44h-9.84Zm.1-8.36v8.28h9.65v-8.28h-9.65Z"/>
          <path class="cls-1" d="m93.68,198.32v-8.44h9.84v8.44h-9.84Zm.1-8.36v8.28h9.65v-8.28h-9.65Z"/>
        </g>
        <g>
          <path class="cls-1" d="m83.93,14.42V5.98h9.84v8.44h-9.84Zm.1-8.36v8.28h9.65V6.06h-9.65Z"/>
          <path class="cls-1" d="m83.93,22.78v-8.44h9.84v8.44h-9.84Zm.1-8.36v8.28h9.65v-8.28h-9.65Z"/>
          <path class="cls-1" d="m83.93,31.14v-8.44h9.84v8.44h-9.84Zm.1-8.36v8.28h9.65v-8.28h-9.65Z"/>
          <path class="cls-1" d="m83.93,39.5v-8.44h9.84v8.44h-9.84Zm.1-8.36v8.28h9.65v-8.28h-9.65Z"/>
          <path class="cls-1" d="m83.93,47.86v-8.44h9.84v8.44h-9.84Zm.1-8.36v8.28h9.65v-8.28h-9.65Z"/>
          <path class="cls-1" d="m83.93,56.22v-8.44h9.84v8.44h-9.84Zm.1-8.36v8.28h9.65v-8.28h-9.65Z"/>
          <path class="cls-1" d="m83.93,64.58v-8.44h9.84v8.44h-9.84Zm.1-8.36v8.28h9.65v-8.28h-9.65Z"/>
          <path class="cls-1" d="m83.93,72.94v-8.44h9.84v8.44h-9.84Zm.1-8.36v8.28h9.65v-8.28h-9.65Z"/>
          <path class="cls-1" d="m83.93,81.29v-8.44h9.84v8.44h-9.84Zm.1-8.36v8.28h9.65v-8.28h-9.65Z"/>
          <path class="cls-1" d="m83.93,89.65v-8.44h9.84v8.44h-9.84Zm.1-8.36v8.28h9.65v-8.28h-9.65Z"/>
          <path class="cls-1" d="m83.93,98.01v-8.44h9.84v8.44h-9.84Zm.1-8.36v8.28h9.65v-8.28h-9.65Z"/>
          <path class="cls-1" d="m83.93,106.37v-8.44h9.84v8.44h-9.84Zm.1-8.36v8.28h9.65v-8.28h-9.65Z"/>
          <path class="cls-1" d="m83.93,114.73v-8.44h9.84v8.44h-9.84Zm.1-8.36v8.28h9.65v-8.28h-9.65Z"/>
          <path class="cls-1" d="m83.93,123.09v-8.44h9.84v8.44h-9.84Zm.1-8.36v8.28h9.65v-8.28h-9.65Z"/>
          <path class="cls-1" d="m83.93,131.45v-8.44h9.84v8.44h-9.84Zm.1-8.36v8.28h9.65v-8.28h-9.65Z"/>
          <path class="cls-1" d="m83.93,139.81v-8.44h9.84v8.44h-9.84Zm.1-8.36v8.28h9.65v-8.28h-9.65Z"/>
          <path class="cls-1" d="m83.93,148.17v-8.44h9.84v8.44h-9.84Zm.1-8.36v8.28h9.65v-8.28h-9.65Z"/>
          <path class="cls-1" d="m83.93,156.52v-8.44h9.84v8.44h-9.84Zm.1-8.36v8.28h9.65v-8.28h-9.65Z"/>
          <path class="cls-1" d="m83.93,164.88v-8.44h9.84v8.44h-9.84Zm.1-8.36v8.28h9.65v-8.28h-9.65Z"/>
          <path class="cls-1" d="m83.93,173.24v-8.44h9.84v8.44h-9.84Zm.1-8.36v8.28h9.65v-8.28h-9.65Z"/>
          <path class="cls-1" d="m83.93,181.6v-8.44h9.84v8.44h-9.84Zm.1-8.36v8.28h9.65v-8.28h-9.65Z"/>
          <path class="cls-1" d="m83.93,189.96v-8.44h9.84v8.44h-9.84Zm.1-8.36v8.28h9.65v-8.28h-9.65Z"/>
          <path class="cls-1" d="m83.93,198.32v-8.44h9.84v8.44h-9.84Zm.1-8.36v8.28h9.65v-8.28h-9.65Z"/>
        </g>
        <g>
          <path class="cls-1" d="m74.19,14.42V5.98h9.84v8.44h-9.84Zm.1-8.36v8.28h9.65V6.06h-9.65Z"/>
          <path class="cls-1" d="m74.19,22.78v-8.44h9.84v8.44h-9.84Zm.1-8.36v8.28h9.65v-8.28h-9.65Z"/>
          <path class="cls-1" d="m74.19,31.14v-8.44h9.84v8.44h-9.84Zm.1-8.36v8.28h9.65v-8.28h-9.65Z"/>
          <path class="cls-1" d="m74.19,39.5v-8.44h9.84v8.44h-9.84Zm.1-8.36v8.28h9.65v-8.28h-9.65Z"/>
          <path class="cls-1" d="m74.19,47.86v-8.44h9.84v8.44h-9.84Zm.1-8.36v8.28h9.65v-8.28h-9.65Z"/>
          <path class="cls-1" d="m74.19,56.22v-8.44h9.84v8.44h-9.84Zm.1-8.36v8.28h9.65v-8.28h-9.65Z"/>
          <path class="cls-1" d="m74.19,64.58v-8.44h9.84v8.44h-9.84Zm.1-8.36v8.28h9.65v-8.28h-9.65Z"/>
          <path class="cls-1" d="m74.19,72.94v-8.44h9.84v8.44h-9.84Zm.1-8.36v8.28h9.65v-8.28h-9.65Z"/>
          <path class="cls-1" d="m74.19,81.29v-8.44h9.84v8.44h-9.84Zm.1-8.36v8.28h9.65v-8.28h-9.65Z"/>
          <path class="cls-1" d="m74.19,89.65v-8.44h9.84v8.44h-9.84Zm.1-8.36v8.28h9.65v-8.28h-9.65Z"/>
          <path class="cls-1" d="m74.19,98.01v-8.44h9.84v8.44h-9.84Zm.1-8.36v8.28h9.65v-8.28h-9.65Z"/>
          <path class="cls-1" d="m74.19,106.37v-8.44h9.84v8.44h-9.84Zm.1-8.36v8.28h9.65v-8.28h-9.65Z"/>
          <path class="cls-1" d="m74.19,114.73v-8.44h9.84v8.44h-9.84Zm.1-8.36v8.28h9.65v-8.28h-9.65Z"/>
          <path class="cls-1" d="m74.19,123.09v-8.44h9.84v8.44h-9.84Zm.1-8.36v8.28h9.65v-8.28h-9.65Z"/>
          <path class="cls-1" d="m74.19,131.45v-8.44h9.84v8.44h-9.84Zm.1-8.36v8.28h9.65v-8.28h-9.65Z"/>
          <path class="cls-1" d="m74.19,139.81v-8.44h9.84v8.44h-9.84Zm.1-8.36v8.28h9.65v-8.28h-9.65Z"/>
          <path class="cls-1" d="m74.19,148.17v-8.44h9.84v8.44h-9.84Zm.1-8.36v8.28h9.65v-8.28h-9.65Z"/>
          <path class="cls-1" d="m74.19,156.52v-8.44h9.84v8.44h-9.84Zm.1-8.36v8.28h9.65v-8.28h-9.65Z"/>
          <path class="cls-1" d="m74.19,164.88v-8.44h9.84v8.44h-9.84Zm.1-8.36v8.28h9.65v-8.28h-9.65Z"/>
          <path class="cls-1" d="m74.19,173.24v-8.44h9.84v8.44h-9.84Zm.1-8.36v8.28h9.65v-8.28h-9.65Z"/>
          <path class="cls-1" d="m74.19,181.6v-8.44h9.84v8.44h-9.84Zm.1-8.36v8.28h9.65v-8.28h-9.65Z"/>
          <path class="cls-1" d="m74.19,189.96v-8.44h9.84v8.44h-9.84Zm.1-8.36v8.28h9.65v-8.28h-9.65Z"/>
          <path class="cls-1" d="m74.19,198.32v-8.44h9.84v8.44h-9.84Zm.1-8.36v8.28h9.65v-8.28h-9.65Z"/>
        </g>
        <g>
          <path class="cls-1" d="m64.45,14.42V5.98h9.84v8.44h-9.84Zm.1-8.36v8.28h9.65V6.06h-9.65Z"/>
          <path class="cls-1" d="m64.45,22.78v-8.44h9.84v8.44h-9.84Zm.1-8.36v8.28h9.65v-8.28h-9.65Z"/>
          <path class="cls-1" d="m64.45,31.14v-8.44h9.84v8.44h-9.84Zm.1-8.36v8.28h9.65v-8.28h-9.65Z"/>
          <path class="cls-1" d="m64.45,39.5v-8.44h9.84v8.44h-9.84Zm.1-8.36v8.28h9.65v-8.28h-9.65Z"/>
          <path class="cls-1" d="m64.45,47.86v-8.44h9.84v8.44h-9.84Zm.1-8.36v8.28h9.65v-8.28h-9.65Z"/>
          <path class="cls-1" d="m64.45,56.22v-8.44h9.84v8.44h-9.84Zm.1-8.36v8.28h9.65v-8.28h-9.65Z"/>
          <path class="cls-1" d="m64.45,64.58v-8.44h9.84v8.44h-9.84Zm.1-8.36v8.28h9.65v-8.28h-9.65Z"/>
          <path class="cls-1" d="m64.45,72.94v-8.44h9.84v8.44h-9.84Zm.1-8.36v8.28h9.65v-8.28h-9.65Z"/>
          <path class="cls-1" d="m64.45,81.29v-8.44h9.84v8.44h-9.84Zm.1-8.36v8.28h9.65v-8.28h-9.65Z"/>
          <path class="cls-1" d="m64.45,89.65v-8.44h9.84v8.44h-9.84Zm.1-8.36v8.28h9.65v-8.28h-9.65Z"/>
          <path class="cls-1" d="m64.45,98.01v-8.44h9.84v8.44h-9.84Zm.1-8.36v8.28h9.65v-8.28h-9.65Z"/>
          <path class="cls-1" d="m64.45,106.37v-8.44h9.84v8.44h-9.84Zm.1-8.36v8.28h9.65v-8.28h-9.65Z"/>
          <path class="cls-1" d="m64.45,114.73v-8.44h9.84v8.44h-9.84Zm.1-8.36v8.28h9.65v-8.28h-9.65Z"/>
          <path class="cls-1" d="m64.45,123.09v-8.44h9.84v8.44h-9.84Zm.1-8.36v8.28h9.65v-8.28h-9.65Z"/>
          <path class="cls-1" d="m64.45,131.45v-8.44h9.84v8.44h-9.84Zm.1-8.36v8.28h9.65v-8.28h-9.65Z"/>
          <path class="cls-1" d="m64.45,139.81v-8.44h9.84v8.44h-9.84Zm.1-8.36v8.28h9.65v-8.28h-9.65Z"/>
          <path class="cls-1" d="m64.45,148.17v-8.44h9.84v8.44h-9.84Zm.1-8.36v8.28h9.65v-8.28h-9.65Z"/>
          <path class="cls-1" d="m64.45,156.52v-8.44h9.84v8.44h-9.84Zm.1-8.36v8.28h9.65v-8.28h-9.65Z"/>
          <path class="cls-1" d="m64.45,164.88v-8.44h9.84v8.44h-9.84Zm.1-8.36v8.28h9.65v-8.28h-9.65Z"/>
          <path class="cls-1" d="m64.45,173.24v-8.44h9.84v8.44h-9.84Zm.1-8.36v8.28h9.65v-8.28h-9.65Z"/>
          <path class="cls-1" d="m64.45,181.6v-8.44h9.84v8.44h-9.84Zm.1-8.36v8.28h9.65v-8.28h-9.65Z"/>
          <path class="cls-1" d="m64.45,189.96v-8.44h9.84v8.44h-9.84Zm.1-8.36v8.28h9.65v-8.28h-9.65Z"/>
          <path class="cls-1" d="m64.45,198.32v-8.44h9.84v8.44h-9.84Zm.1-8.36v8.28h9.65v-8.28h-9.65Z"/>
        </g>
        <g>
          <path class="cls-1" d="m54.7,14.42V5.98h9.84v8.44h-9.84Zm.1-8.36v8.28h9.65V6.06h-9.65Z"/>
          <path class="cls-1" d="m54.7,22.78v-8.44h9.84v8.44h-9.84Zm.1-8.36v8.28h9.65v-8.28h-9.65Z"/>
          <path class="cls-1" d="m54.7,31.14v-8.44h9.84v8.44h-9.84Zm.1-8.36v8.28h9.65v-8.28h-9.65Z"/>
          <path class="cls-1" d="m54.7,39.5v-8.44h9.84v8.44h-9.84Zm.1-8.36v8.28h9.65v-8.28h-9.65Z"/>
          <path class="cls-1" d="m54.7,47.86v-8.44h9.84v8.44h-9.84Zm.1-8.36v8.28h9.65v-8.28h-9.65Z"/>
          <path class="cls-1" d="m54.7,56.22v-8.44h9.84v8.44h-9.84Zm.1-8.36v8.28h9.65v-8.28h-9.65Z"/>
          <path class="cls-1" d="m54.7,64.58v-8.44h9.84v8.44h-9.84Zm.1-8.36v8.28h9.65v-8.28h-9.65Z"/>
          <path class="cls-1" d="m54.7,72.94v-8.44h9.84v8.44h-9.84Zm.1-8.36v8.28h9.65v-8.28h-9.65Z"/>
          <path class="cls-1" d="m54.7,81.29v-8.44h9.84v8.44h-9.84Zm.1-8.36v8.28h9.65v-8.28h-9.65Z"/>
          <path class="cls-1" d="m54.7,89.65v-8.44h9.84v8.44h-9.84Zm.1-8.36v8.28h9.65v-8.28h-9.65Z"/>
          <path class="cls-1" d="m54.7,98.01v-8.44h9.84v8.44h-9.84Zm.1-8.36v8.28h9.65v-8.28h-9.65Z"/>
          <path class="cls-1" d="m54.7,106.37v-8.44h9.84v8.44h-9.84Zm.1-8.36v8.28h9.65v-8.28h-9.65Z"/>
          <path class="cls-1" d="m54.7,114.73v-8.44h9.84v8.44h-9.84Zm.1-8.36v8.28h9.65v-8.28h-9.65Z"/>
          <path class="cls-1" d="m54.7,123.09v-8.44h9.84v8.44h-9.84Zm.1-8.36v8.28h9.65v-8.28h-9.65Z"/>
          <path class="cls-1" d="m54.7,131.45v-8.44h9.84v8.44h-9.84Zm.1-8.36v8.28h9.65v-8.28h-9.65Z"/>
          <path class="cls-1" d="m54.7,139.81v-8.44h9.84v8.44h-9.84Zm.1-8.36v8.28h9.65v-8.28h-9.65Z"/>
          <path class="cls-1" d="m54.7,148.17v-8.44h9.84v8.44h-9.84Zm.1-8.36v8.28h9.65v-8.28h-9.65Z"/>
          <path class="cls-1" d="m54.7,156.52v-8.44h9.84v8.44h-9.84Zm.1-8.36v8.28h9.65v-8.28h-9.65Z"/>
          <path class="cls-1" d="m54.7,164.88v-8.44h9.84v8.44h-9.84Zm.1-8.36v8.28h9.65v-8.28h-9.65Z"/>
          <path class="cls-1" d="m54.7,173.24v-8.44h9.84v8.44h-9.84Zm.1-8.36v8.28h9.65v-8.28h-9.65Z"/>
          <path class="cls-1" d="m54.7,181.6v-8.44h9.84v8.44h-9.84Zm.1-8.36v8.28h9.65v-8.28h-9.65Z"/>
          <path class="cls-1" d="m54.7,189.96v-8.44h9.84v8.44h-9.84Zm.1-8.36v8.28h9.65v-8.28h-9.65Z"/>
          <path class="cls-1" d="m54.7,198.32v-8.44h9.84v8.44h-9.84Zm.1-8.36v8.28h9.65v-8.28h-9.65Z"/>
        </g>
      </g>
      <g>
        <path class="cls-1" d="m230.15,6.44c.27,0,.48-.19.48-.42s-.22-.42-.48-.42-.48.19-.48.42.22.42.48.42Z"/>
        <path class="cls-1" d="m230.15,14.8c.27,0,.48-.19.48-.42s-.22-.42-.48-.42-.48.19-.48.42.22.42.48.42Z"/>
        <path class="cls-1" d="m230.15,23.16c.27,0,.48-.19.48-.42s-.22-.42-.48-.42-.48.19-.48.42.22.42.48.42Z"/>
        <path class="cls-1" d="m230.15,31.52c.27,0,.48-.19.48-.42s-.22-.42-.48-.42-.48.19-.48.42.22.42.48.42Z"/>
        <path class="cls-1" d="m230.15,39.88c.27,0,.48-.19.48-.42s-.22-.42-.48-.42-.48.19-.48.42.22.42.48.42Z"/>
        <path class="cls-1" d="m230.15,48.23c.27,0,.48-.19.48-.42s-.22-.42-.48-.42-.48.19-.48.42.22.42.48.42Z"/>
        <path class="cls-1" d="m230.15,56.59c.27,0,.48-.19.48-.42s-.22-.42-.48-.42-.48.19-.48.42.22.42.48.42Z"/>
        <path class="cls-1" d="m230.15,64.95c.27,0,.48-.19.48-.42s-.22-.42-.48-.42-.48.19-.48.42.22.42.48.42Z"/>
        <path class="cls-1" d="m230.15,73.31c.27,0,.48-.19.48-.42s-.22-.42-.48-.42-.48.19-.48.42.22.42.48.42Z"/>
        <path class="cls-1" d="m230.15,81.67c.27,0,.48-.19.48-.42s-.22-.42-.48-.42-.48.19-.48.42.22.42.48.42Z"/>
        <path class="cls-1" d="m230.15,90.03c.27,0,.48-.19.48-.42s-.22-.42-.48-.42-.48.19-.48.42.22.42.48.42Z"/>
        <path class="cls-1" d="m230.15,98.39c.27,0,.48-.19.48-.42s-.22-.42-.48-.42-.48.19-.48.42.22.42.48.42Z"/>
        <path class="cls-1" d="m230.15,106.75c.27,0,.48-.19.48-.42s-.22-.42-.48-.42-.48.19-.48.42.22.42.48.42Z"/>
        <path class="cls-1" d="m230.15,115.11c.27,0,.48-.19.48-.42s-.22-.42-.48-.42-.48.19-.48.42.22.42.48.42Z"/>
        <path class="cls-1" d="m230.15,123.46c.27,0,.48-.19.48-.42s-.22-.42-.48-.42-.48.19-.48.42.22.42.48.42Z"/>
        <path class="cls-1" d="m230.15,131.82c.27,0,.48-.19.48-.42s-.22-.42-.48-.42-.48.19-.48.42.22.42.48.42Z"/>
        <path class="cls-1" d="m230.15,140.18c.27,0,.48-.19.48-.42s-.22-.42-.48-.42-.48.19-.48.42.22.42.48.42Z"/>
        <path class="cls-1" d="m230.15,148.54c.27,0,.48-.19.48-.42s-.22-.42-.48-.42-.48.19-.48.42.22.42.48.42Z"/>
        <path class="cls-1" d="m230.15,156.9c.27,0,.48-.19.48-.42s-.22-.42-.48-.42-.48.19-.48.42.22.42.48.42Z"/>
        <path class="cls-1" d="m230.15,165.26c.27,0,.48-.19.48-.42s-.22-.42-.48-.42-.48.19-.48.42.22.42.48.42Z"/>
        <path class="cls-1" d="m230.15,173.62c.27,0,.48-.19.48-.42s-.22-.42-.48-.42-.48.19-.48.42.22.42.48.42Z"/>
        <path class="cls-1" d="m230.15,181.98c.27,0,.48-.19.48-.42s-.22-.42-.48-.42-.48.19-.48.42.22.42.48.42Z"/>
        <path class="cls-1" d="m230.15,190.34c.27,0,.48-.19.48-.42s-.22-.42-.48-.42-.48.19-.48.42.22.42.48.42Z"/>
        <path class="cls-1" d="m230.15,198.69c.27,0,.48-.19.48-.42s-.22-.42-.48-.42-.48.19-.48.42.22.42.48.42Z"/>
        <path class="cls-1" d="m220.41,6.44c.27,0,.48-.19.48-.42s-.22-.42-.48-.42-.48.19-.48.42.22.42.48.42Z"/>
        <path class="cls-1" d="m220.41,14.8c.27,0,.48-.19.48-.42s-.22-.42-.48-.42-.48.19-.48.42.22.42.48.42Z"/>
        <path class="cls-1" d="m220.41,23.16c.27,0,.48-.19.48-.42s-.22-.42-.48-.42-.48.19-.48.42.22.42.48.42Z"/>
        <path class="cls-1" d="m220.41,31.52c.27,0,.48-.19.48-.42s-.22-.42-.48-.42-.48.19-.48.42.22.42.48.42Z"/>
        <path class="cls-1" d="m220.41,39.88c.27,0,.48-.19.48-.42s-.22-.42-.48-.42-.48.19-.48.42.22.42.48.42Z"/>
        <path class="cls-1" d="m220.41,48.23c.27,0,.48-.19.48-.42s-.22-.42-.48-.42-.48.19-.48.42.22.42.48.42Z"/>
        <path class="cls-1" d="m220.41,56.59c.27,0,.48-.19.48-.42s-.22-.42-.48-.42-.48.19-.48.42.22.42.48.42Z"/>
        <path class="cls-1" d="m220.41,64.95c.27,0,.48-.19.48-.42s-.22-.42-.48-.42-.48.19-.48.42.22.42.48.42Z"/>
        <path class="cls-1" d="m220.41,73.31c.27,0,.48-.19.48-.42s-.22-.42-.48-.42-.48.19-.48.42.22.42.48.42Z"/>
        <path class="cls-1" d="m220.41,81.67c.27,0,.48-.19.48-.42s-.22-.42-.48-.42-.48.19-.48.42.22.42.48.42Z"/>
        <path class="cls-1" d="m220.41,90.03c.27,0,.48-.19.48-.42s-.22-.42-.48-.42-.48.19-.48.42.22.42.48.42Z"/>
        <path class="cls-1" d="m220.41,98.39c.27,0,.48-.19.48-.42s-.22-.42-.48-.42-.48.19-.48.42.22.42.48.42Z"/>
        <path class="cls-1" d="m220.41,106.75c.27,0,.48-.19.48-.42s-.22-.42-.48-.42-.48.19-.48.42.22.42.48.42Z"/>
        <path class="cls-1" d="m220.41,115.11c.27,0,.48-.19.48-.42s-.22-.42-.48-.42-.48.19-.48.42.22.42.48.42Z"/>
        <path class="cls-1" d="m220.41,123.46c.27,0,.48-.19.48-.42s-.22-.42-.48-.42-.48.19-.48.42.22.42.48.42Z"/>
        <path class="cls-1" d="m220.41,131.82c.27,0,.48-.19.48-.42s-.22-.42-.48-.42-.48.19-.48.42.22.42.48.42Z"/>
        <path class="cls-1" d="m220.41,140.18c.27,0,.48-.19.48-.42s-.22-.42-.48-.42-.48.19-.48.42.22.42.48.42Z"/>
        <path class="cls-1" d="m220.41,148.54c.27,0,.48-.19.48-.42s-.22-.42-.48-.42-.48.19-.48.42.22.42.48.42Z"/>
        <path class="cls-1" d="m220.41,156.9c.27,0,.48-.19.48-.42s-.22-.42-.48-.42-.48.19-.48.42.22.42.48.42Z"/>
        <path class="cls-1" d="m220.41,165.26c.27,0,.48-.19.48-.42s-.22-.42-.48-.42-.48.19-.48.42.22.42.48.42Z"/>
        <path class="cls-1" d="m220.41,173.62c.27,0,.48-.19.48-.42s-.22-.42-.48-.42-.48.19-.48.42.22.42.48.42Z"/>
        <path class="cls-1" d="m220.41,181.98c.27,0,.48-.19.48-.42s-.22-.42-.48-.42-.48.19-.48.42.22.42.48.42Z"/>
        <path class="cls-1" d="m220.41,190.34c.27,0,.48-.19.48-.42s-.22-.42-.48-.42-.48.19-.48.42.22.42.48.42Z"/>
        <path class="cls-1" d="m220.41,198.69c.27,0,.48-.19.48-.42s-.22-.42-.48-.42-.48.19-.48.42.22.42.48.42Z"/>
        <ellipse class="cls-1" cx="210.66" cy="6.02" rx=".48" ry=".42"/>
        <ellipse class="cls-1" cx="210.66" cy="14.38" rx=".48" ry=".42"/>
        <path class="cls-1" d="m210.66,23.16c.27,0,.48-.19.48-.42s-.22-.42-.48-.42-.48.19-.48.42.22.42.48.42Z"/>
        <path class="cls-1" d="m210.66,31.52c.27,0,.48-.19.48-.42s-.22-.42-.48-.42-.48.19-.48.42.22.42.48.42Z"/>
        <ellipse class="cls-1" cx="210.66" cy="39.46" rx=".48" ry=".42"/>
        <path class="cls-1" d="m210.66,48.23c.27,0,.48-.19.48-.42s-.22-.42-.48-.42-.48.19-.48.42.22.42.48.42Z"/>
        <ellipse class="cls-1" cx="210.66" cy="56.18" rx=".48" ry=".42"/>
        <ellipse class="cls-1" cx="210.66" cy="64.54" rx=".48" ry=".42"/>
        <path class="cls-1" d="m210.66,73.31c.27,0,.48-.19.48-.42s-.22-.42-.48-.42-.48.19-.48.42.22.42.48.42Z"/>
        <path class="cls-1" d="m210.66,81.67c.27,0,.48-.19.48-.42s-.22-.42-.48-.42-.48.19-.48.42.22.42.48.42Z"/>
        <path class="cls-1" d="m210.66,90.03c.27,0,.48-.19.48-.42s-.22-.42-.48-.42-.48.19-.48.42.22.42.48.42Z"/>
        <ellipse class="cls-1" cx="210.66" cy="97.97" rx=".48" ry=".42"/>
        <path class="cls-1" d="m210.66,106.75c.27,0,.48-.19.48-.42s-.22-.42-.48-.42-.48.19-.48.42.22.42.48.42Z"/>
        <path class="cls-1" d="m210.66,115.11c.27,0,.48-.19.48-.42s-.22-.42-.48-.42-.48.19-.48.42.22.42.48.42Z"/>
        <path class="cls-1" d="m210.66,123.46c.27,0,.48-.19.48-.42s-.22-.42-.48-.42-.48.19-.48.42.22.42.48.42Z"/>
        <path class="cls-1" d="m210.66,131.82c.27,0,.48-.19.48-.42s-.22-.42-.48-.42-.48.19-.48.42.22.42.48.42Z"/>
        <ellipse class="cls-1" cx="210.66" cy="139.77" rx=".48" ry=".42"/>
        <path class="cls-1" d="m210.66,148.54c.27,0,.48-.19.48-.42s-.22-.42-.48-.42-.48.19-.48.42.22.42.48.42Z"/>
        <path class="cls-1" d="m210.66,156.9c.27,0,.48-.19.48-.42s-.22-.42-.48-.42-.48.19-.48.42.22.42.48.42Z"/>
        <path class="cls-1" d="m210.66,165.26c.27,0,.48-.19.48-.42s-.22-.42-.48-.42-.48.19-.48.42.22.42.48.42Z"/>
        <path class="cls-1" d="m210.66,173.62c.27,0,.48-.19.48-.42s-.22-.42-.48-.42-.48.19-.48.42.22.42.48.42Z"/>
        <path class="cls-1" d="m210.66,181.98c.27,0,.48-.19.48-.42s-.22-.42-.48-.42-.48.19-.48.42.22.42.48.42Z"/>
        <ellipse class="cls-1" cx="210.66" cy="189.92" rx=".48" ry=".42"/>
        <ellipse class="cls-1" cx="210.66" cy="198.28" rx=".48" ry=".42"/>
        <path class="cls-1" d="m200.92,6.44c.27,0,.48-.19.48-.42s-.22-.42-.48-.42-.48.19-.48.42.22.42.48.42Z"/>
        <path class="cls-1" d="m200.92,14.8c.27,0,.48-.19.48-.42s-.22-.42-.48-.42-.48.19-.48.42.22.42.48.42Z"/>
        <path class="cls-1" d="m200.92,23.16c.27,0,.48-.19.48-.42s-.22-.42-.48-.42-.48.19-.48.42.22.42.48.42Z"/>
        <path class="cls-1" d="m200.92,31.52c.27,0,.48-.19.48-.42s-.22-.42-.48-.42-.48.19-.48.42.22.42.48.42Z"/>
        <path class="cls-1" d="m200.92,39.88c.27,0,.48-.19.48-.42s-.22-.42-.48-.42-.48.19-.48.42.22.42.48.42Z"/>
        <path class="cls-1" d="m200.92,48.23c.27,0,.48-.19.48-.42s-.22-.42-.48-.42-.48.19-.48.42.22.42.48.42Z"/>
        <path class="cls-1" d="m200.92,56.59c.27,0,.48-.19.48-.42s-.22-.42-.48-.42-.48.19-.48.42.22.42.48.42Z"/>
        <path class="cls-1" d="m200.92,64.95c.27,0,.48-.19.48-.42s-.22-.42-.48-.42-.48.19-.48.42.22.42.48.42Z"/>
        <path class="cls-1" d="m200.92,73.31c.27,0,.48-.19.48-.42s-.22-.42-.48-.42-.48.19-.48.42.22.42.48.42Z"/>
        <path class="cls-1" d="m200.92,81.67c.27,0,.48-.19.48-.42s-.22-.42-.48-.42-.48.19-.48.42.22.42.48.42Z"/>
        <path class="cls-1" d="m200.92,90.03c.27,0,.48-.19.48-.42s-.22-.42-.48-.42-.48.19-.48.42.22.42.48.42Z"/>
        <path class="cls-1" d="m200.92,98.39c.27,0,.48-.19.48-.42s-.22-.42-.48-.42-.48.19-.48.42.22.42.48.42Z"/>
        <path class="cls-1" d="m200.92,106.75c.27,0,.48-.19.48-.42s-.22-.42-.48-.42-.48.19-.48.42.22.42.48.42Z"/>
        <path class="cls-1" d="m200.92,115.11c.27,0,.48-.19.48-.42s-.22-.42-.48-.42-.48.19-.48.42.22.42.48.42Z"/>
        <path class="cls-1" d="m200.92,123.46c.27,0,.48-.19.48-.42s-.22-.42-.48-.42-.48.19-.48.42.22.42.48.42Z"/>
        <path class="cls-1" d="m200.92,131.82c.27,0,.48-.19.48-.42s-.22-.42-.48-.42-.48.19-.48.42.22.42.48.42Z"/>
        <path class="cls-1" d="m200.92,140.18c.27,0,.48-.19.48-.42s-.22-.42-.48-.42-.48.19-.48.42.22.42.48.42Z"/>
        <path class="cls-1" d="m200.92,148.54c.27,0,.48-.19.48-.42s-.22-.42-.48-.42-.48.19-.48.42.22.42.48.42Z"/>
        <path class="cls-1" d="m200.92,156.9c.27,0,.48-.19.48-.42s-.22-.42-.48-.42-.48.19-.48.42.22.42.48.42Z"/>
        <path class="cls-1" d="m200.92,165.26c.27,0,.48-.19.48-.42s-.22-.42-.48-.42-.48.19-.48.42.22.42.48.42Z"/>
        <path class="cls-1" d="m200.92,173.62c.27,0,.48-.19.48-.42s-.22-.42-.48-.42-.48.19-.48.42.22.42.48.42Z"/>
        <path class="cls-1" d="m200.92,181.98c.27,0,.48-.19.48-.42s-.22-.42-.48-.42-.48.19-.48.42.22.42.48.42Z"/>
        <path class="cls-1" d="m200.92,190.34c.27,0,.48-.19.48-.42s-.22-.42-.48-.42-.48.19-.48.42.22.42.48.42Z"/>
        <path class="cls-1" d="m200.92,198.69c.27,0,.48-.19.48-.42s-.22-.42-.48-.42-.48.19-.48.42.22.42.48.42Z"/>
        <path class="cls-1" d="m191.18,6.44c.27,0,.48-.19.48-.42s-.22-.42-.48-.42-.48.19-.48.42.22.42.48.42Z"/>
        <path class="cls-1" d="m191.18,14.8c.27,0,.48-.19.48-.42s-.22-.42-.48-.42-.48.19-.48.42.22.42.48.42Z"/>
        <path class="cls-1" d="m191.18,23.16c.27,0,.48-.19.48-.42s-.22-.42-.48-.42-.48.19-.48.42.22.42.48.42Z"/>
        <path class="cls-1" d="m191.18,31.52c.27,0,.48-.19.48-.42s-.22-.42-.48-.42-.48.19-.48.42.22.42.48.42Z"/>
        <path class="cls-1" d="m191.18,39.88c.27,0,.48-.19.48-.42s-.22-.42-.48-.42-.48.19-.48.42.22.42.48.42Z"/>
        <path class="cls-1" d="m191.18,48.23c.27,0,.48-.19.48-.42s-.22-.42-.48-.42-.48.19-.48.42.22.42.48.42Z"/>
        <path class="cls-1" d="m191.18,56.59c.27,0,.48-.19.48-.42s-.22-.42-.48-.42-.48.19-.48.42.22.42.48.42Z"/>
        <path class="cls-1" d="m191.18,64.95c.27,0,.48-.19.48-.42s-.22-.42-.48-.42-.48.19-.48.42.22.42.48.42Z"/>
        <path class="cls-1" d="m191.18,73.31c.27,0,.48-.19.48-.42s-.22-.42-.48-.42-.48.19-.48.42.22.42.48.42Z"/>
        <path class="cls-1" d="m191.18,81.67c.27,0,.48-.19.48-.42s-.22-.42-.48-.42-.48.19-.48.42.22.42.48.42Z"/>
        <path class="cls-1" d="m191.18,90.03c.27,0,.48-.19.48-.42s-.22-.42-.48-.42-.48.19-.48.42.22.42.48.42Z"/>
        <path class="cls-1" d="m191.18,98.39c.27,0,.48-.19.48-.42s-.22-.42-.48-.42-.48.19-.48.42.22.42.48.42Z"/>
        <path class="cls-1" d="m191.18,106.75c.27,0,.48-.19.48-.42s-.22-.42-.48-.42-.48.19-.48.42.22.42.48.42Z"/>
        <path class="cls-1" d="m191.18,115.11c.27,0,.48-.19.48-.42s-.22-.42-.48-.42-.48.19-.48.42.22.42.48.42Z"/>
        <path class="cls-1" d="m191.18,123.46c.27,0,.48-.19.48-.42s-.22-.42-.48-.42-.48.19-.48.42.22.42.48.42Z"/>
        <path class="cls-1" d="m191.18,131.82c.27,0,.48-.19.48-.42s-.22-.42-.48-.42-.48.19-.48.42.22.42.48.42Z"/>
        <path class="cls-1" d="m191.18,140.18c.27,0,.48-.19.48-.42s-.22-.42-.48-.42-.48.19-.48.42.22.42.48.42Z"/>
        <path class="cls-1" d="m191.18,148.54c.27,0,.48-.19.48-.42s-.22-.42-.48-.42-.48.19-.48.42.22.42.48.42Z"/>
        <path class="cls-1" d="m191.18,156.9c.27,0,.48-.19.48-.42s-.22-.42-.48-.42-.48.19-.48.42.22.42.48.42Z"/>
        <path class="cls-1" d="m191.18,165.26c.27,0,.48-.19.48-.42s-.22-.42-.48-.42-.48.19-.48.42.22.42.48.42Z"/>
        <path class="cls-1" d="m191.18,173.62c.27,0,.48-.19.48-.42s-.22-.42-.48-.42-.48.19-.48.42.22.42.48.42Z"/>
        <path class="cls-1" d="m191.18,181.98c.27,0,.48-.19.48-.42s-.22-.42-.48-.42-.48.19-.48.42.22.42.48.42Z"/>
        <path class="cls-1" d="m191.18,190.34c.27,0,.48-.19.48-.42s-.22-.42-.48-.42-.48.19-.48.42.22.42.48.42Z"/>
        <path class="cls-1" d="m191.18,198.69c.27,0,.48-.19.48-.42s-.22-.42-.48-.42-.48.19-.48.42.22.42.48.42Z"/>
        <ellipse class="cls-1" cx="181.43" cy="6.02" rx=".48" ry=".42"/>
        <ellipse class="cls-1" cx="181.43" cy="14.38" rx=".48" ry=".42"/>
        <path class="cls-1" d="m181.43,23.16c.27,0,.48-.19.48-.42s-.22-.42-.48-.42-.48.19-.48.42.22.42.48.42Z"/>
        <path class="cls-1" d="m181.43,31.52c.27,0,.48-.19.48-.42s-.22-.42-.48-.42-.48.19-.48.42.22.42.48.42Z"/>
        <ellipse class="cls-1" cx="181.43" cy="39.46" rx=".48" ry=".42"/>
        <path class="cls-1" d="m181.43,48.23c.27,0,.48-.19.48-.42s-.22-.42-.48-.42-.48.19-.48.42.22.42.48.42Z"/>
        <ellipse class="cls-1" cx="181.43" cy="56.18" rx=".48" ry=".42"/>
        <ellipse class="cls-1" cx="181.43" cy="64.54" rx=".48" ry=".42"/>
        <path class="cls-1" d="m181.43,73.31c.27,0,.48-.19.48-.42s-.22-.42-.48-.42-.48.19-.48.42.22.42.48.42Z"/>
        <path class="cls-1" d="m181.43,81.67c.27,0,.48-.19.48-.42s-.22-.42-.48-.42-.48.19-.48.42.22.42.48.42Z"/>
        <path class="cls-1" d="m181.43,90.03c.27,0,.48-.19.48-.42s-.22-.42-.48-.42-.48.19-.48.42.22.42.48.42Z"/>
        <ellipse class="cls-1" cx="181.43" cy="97.97" rx=".48" ry=".42"/>
        <path class="cls-1" d="m181.43,106.75c.27,0,.48-.19.48-.42s-.22-.42-.48-.42-.48.19-.48.42.22.42.48.42Z"/>
        <path class="cls-1" d="m181.43,115.11c.27,0,.48-.19.48-.42s-.22-.42-.48-.42-.48.19-.48.42.22.42.48.42Z"/>
        <path class="cls-1" d="m181.43,123.46c.27,0,.48-.19.48-.42s-.22-.42-.48-.42-.48.19-.48.42.22.42.48.42Z"/>
        <path class="cls-1" d="m181.43,131.82c.27,0,.48-.19.48-.42s-.22-.42-.48-.42-.48.19-.48.42.22.42.48.42Z"/>
        <ellipse class="cls-1" cx="181.43" cy="139.77" rx=".48" ry=".42"/>
        <path class="cls-1" d="m181.43,148.54c.27,0,.48-.19.48-.42s-.22-.42-.48-.42-.48.19-.48.42.22.42.48.42Z"/>
        <path class="cls-1" d="m181.43,156.9c.27,0,.48-.19.48-.42s-.22-.42-.48-.42-.48.19-.48.42.22.42.48.42Z"/>
        <path class="cls-1" d="m181.43,165.26c.27,0,.48-.19.48-.42s-.22-.42-.48-.42-.48.19-.48.42.22.42.48.42Z"/>
        <path class="cls-1" d="m181.43,173.62c.27,0,.48-.19.48-.42s-.22-.42-.48-.42-.48.19-.48.42.22.42.48.42Z"/>
        <path class="cls-1" d="m181.43,181.98c.27,0,.48-.19.48-.42s-.22-.42-.48-.42-.48.19-.48.42.22.42.48.42Z"/>
        <ellipse class="cls-1" cx="181.43" cy="189.92" rx=".48" ry=".42"/>
        <ellipse class="cls-1" cx="181.43" cy="198.28" rx=".48" ry=".42"/>
        <path class="cls-1" d="m171.69,6.44c.27,0,.48-.19.48-.42s-.22-.42-.48-.42-.48.19-.48.42.22.42.48.42Z"/>
        <path class="cls-1" d="m171.69,14.8c.27,0,.48-.19.48-.42s-.22-.42-.48-.42-.48.19-.48.42.22.42.48.42Z"/>
        <path class="cls-1" d="m171.69,23.16c.27,0,.48-.19.48-.42s-.22-.42-.48-.42-.48.19-.48.42.22.42.48.42Z"/>
        <path class="cls-1" d="m171.69,31.52c.27,0,.48-.19.48-.42s-.22-.42-.48-.42-.48.19-.48.42.22.42.48.42Z"/>
        <path class="cls-1" d="m171.69,39.88c.27,0,.48-.19.48-.42s-.22-.42-.48-.42-.48.19-.48.42.22.42.48.42Z"/>
        <path class="cls-1" d="m171.69,48.23c.27,0,.48-.19.48-.42s-.22-.42-.48-.42-.48.19-.48.42.22.42.48.42Z"/>
        <path class="cls-1" d="m171.69,56.59c.27,0,.48-.19.48-.42s-.22-.42-.48-.42-.48.19-.48.42.22.42.48.42Z"/>
        <path class="cls-1" d="m171.69,64.95c.27,0,.48-.19.48-.42s-.22-.42-.48-.42-.48.19-.48.42.22.42.48.42Z"/>
        <path class="cls-1" d="m171.69,73.31c.27,0,.48-.19.48-.42s-.22-.42-.48-.42-.48.19-.48.42.22.42.48.42Z"/>
        <path class="cls-1" d="m171.69,81.67c.27,0,.48-.19.48-.42s-.22-.42-.48-.42-.48.19-.48.42.22.42.48.42Z"/>
        <path class="cls-1" d="m171.69,90.03c.27,0,.48-.19.48-.42s-.22-.42-.48-.42-.48.19-.48.42.22.42.48.42Z"/>
        <path class="cls-1" d="m171.69,98.39c.27,0,.48-.19.48-.42s-.22-.42-.48-.42-.48.19-.48.42.22.42.48.42Z"/>
        <path class="cls-1" d="m171.69,106.75c.27,0,.48-.19.48-.42s-.22-.42-.48-.42-.48.19-.48.42.22.42.48.42Z"/>
        <path class="cls-1" d="m171.69,115.11c.27,0,.48-.19.48-.42s-.22-.42-.48-.42-.48.19-.48.42.22.42.48.42Z"/>
        <path class="cls-1" d="m171.69,123.46c.27,0,.48-.19.48-.42s-.22-.42-.48-.42-.48.19-.48.42.22.42.48.42Z"/>
        <path class="cls-1" d="m171.69,131.82c.27,0,.48-.19.48-.42s-.22-.42-.48-.42-.48.19-.48.42.22.42.48.42Z"/>
        <path class="cls-1" d="m171.69,140.18c.27,0,.48-.19.48-.42s-.22-.42-.48-.42-.48.19-.48.42.22.42.48.42Z"/>
        <path class="cls-1" d="m171.69,148.54c.27,0,.48-.19.48-.42s-.22-.42-.48-.42-.48.19-.48.42.22.42.48.42Z"/>
        <path class="cls-1" d="m171.69,156.9c.27,0,.48-.19.48-.42s-.22-.42-.48-.42-.48.19-.48.42.22.42.48.42Z"/>
        <path class="cls-1" d="m171.69,165.26c.27,0,.48-.19.48-.42s-.22-.42-.48-.42-.48.19-.48.42.22.42.48.42Z"/>
        <path class="cls-1" d="m171.69,173.62c.27,0,.48-.19.48-.42s-.22-.42-.48-.42-.48.19-.48.42.22.42.48.42Z"/>
        <path class="cls-1" d="m171.69,181.98c.27,0,.48-.19.48-.42s-.22-.42-.48-.42-.48.19-.48.42.22.42.48.42Z"/>
        <path class="cls-1" d="m171.69,190.34c.27,0,.48-.19.48-.42s-.22-.42-.48-.42-.48.19-.48.42.22.42.48.42Z"/>
        <path class="cls-1" d="m171.69,198.69c.27,0,.48-.19.48-.42s-.22-.42-.48-.42-.48.19-.48.42.22.42.48.42Z"/>
        <path class="cls-1" d="m161.94,6.44c.27,0,.48-.19.48-.42s-.22-.42-.48-.42-.48.19-.48.42.22.42.48.42Z"/>
        <path class="cls-1" d="m161.94,14.8c.27,0,.48-.19.48-.42s-.22-.42-.48-.42-.48.19-.48.42.22.42.48.42Z"/>
        <path class="cls-1" d="m161.94,23.16c.27,0,.48-.19.48-.42s-.22-.42-.48-.42-.48.19-.48.42.22.42.48.42Z"/>
        <path class="cls-1" d="m161.94,31.52c.27,0,.48-.19.48-.42s-.22-.42-.48-.42-.48.19-.48.42.22.42.48.42Z"/>
        <path class="cls-1" d="m161.94,39.88c.27,0,.48-.19.48-.42s-.22-.42-.48-.42-.48.19-.48.42.22.42.48.42Z"/>
        <path class="cls-1" d="m161.94,48.23c.27,0,.48-.19.48-.42s-.22-.42-.48-.42-.48.19-.48.42.22.42.48.42Z"/>
        <path class="cls-1" d="m161.94,56.59c.27,0,.48-.19.48-.42s-.22-.42-.48-.42-.48.19-.48.42.22.42.48.42Z"/>
        <path class="cls-1" d="m161.94,64.95c.27,0,.48-.19.48-.42s-.22-.42-.48-.42-.48.19-.48.42.22.42.48.42Z"/>
        <path class="cls-1" d="m161.94,73.31c.27,0,.48-.19.48-.42s-.22-.42-.48-.42-.48.19-.48.42.22.42.48.42Z"/>
        <path class="cls-1" d="m161.94,81.67c.27,0,.48-.19.48-.42s-.22-.42-.48-.42-.48.19-.48.42.22.42.48.42Z"/>
        <path class="cls-1" d="m161.94,90.03c.27,0,.48-.19.48-.42s-.22-.42-.48-.42-.48.19-.48.42.22.42.48.42Z"/>
        <path class="cls-1" d="m161.94,98.39c.27,0,.48-.19.48-.42s-.22-.42-.48-.42-.48.19-.48.42.22.42.48.42Z"/>
        <path class="cls-1" d="m161.94,106.75c.27,0,.48-.19.48-.42s-.22-.42-.48-.42-.48.19-.48.42.22.42.48.42Z"/>
        <path class="cls-1" d="m161.94,115.11c.27,0,.48-.19.48-.42s-.22-.42-.48-.42-.48.19-.48.42.22.42.48.42Z"/>
        <path class="cls-1" d="m161.94,123.46c.27,0,.48-.19.48-.42s-.22-.42-.48-.42-.48.19-.48.42.22.42.48.42Z"/>
        <path class="cls-1" d="m161.94,131.82c.27,0,.48-.19.48-.42s-.22-.42-.48-.42-.48.19-.48.42.22.42.48.42Z"/>
        <path class="cls-1" d="m161.94,140.18c.27,0,.48-.19.48-.42s-.22-.42-.48-.42-.48.19-.48.42.22.42.48.42Z"/>
        <path class="cls-1" d="m161.94,148.54c.27,0,.48-.19.48-.42s-.22-.42-.48-.42-.48.19-.48.42.22.42.48.42Z"/>
        <path class="cls-1" d="m161.94,156.9c.27,0,.48-.19.48-.42s-.22-.42-.48-.42-.48.19-.48.42.22.42.48.42Z"/>
        <path class="cls-1" d="m161.94,165.26c.27,0,.48-.19.48-.42s-.22-.42-.48-.42-.48.19-.48.42.22.42.48.42Z"/>
        <path class="cls-1" d="m161.94,173.62c.27,0,.48-.19.48-.42s-.22-.42-.48-.42-.48.19-.48.42.22.42.48.42Z"/>
        <path class="cls-1" d="m161.94,181.98c.27,0,.48-.19.48-.42s-.22-.42-.48-.42-.48.19-.48.42.22.42.48.42Z"/>
        <path class="cls-1" d="m161.94,190.34c.27,0,.48-.19.48-.42s-.22-.42-.48-.42-.48.19-.48.42.22.42.48.42Z"/>
        <path class="cls-1" d="m161.94,198.69c.27,0,.48-.19.48-.42s-.22-.42-.48-.42-.48.19-.48.42.22.42.48.42Z"/>
        <ellipse class="cls-1" cx="152.2" cy="6.02" rx=".48" ry=".42"/>
        <ellipse class="cls-1" cx="152.2" cy="14.38" rx=".48" ry=".42"/>
        <path class="cls-1" d="m152.2,23.16c.27,0,.48-.19.48-.42s-.22-.42-.48-.42-.48.19-.48.42.22.42.48.42Z"/>
        <path class="cls-1" d="m152.2,31.52c.27,0,.48-.19.48-.42s-.22-.42-.48-.42-.48.19-.48.42.22.42.48.42Z"/>
        <ellipse class="cls-1" cx="152.2" cy="39.46" rx=".48" ry=".42"/>
        <path class="cls-1" d="m152.2,48.23c.27,0,.48-.19.48-.42s-.22-.42-.48-.42-.48.19-.48.42.22.42.48.42Z"/>
        <ellipse class="cls-1" cx="152.2" cy="56.18" rx=".48" ry=".42"/>
        <ellipse class="cls-1" cx="152.2" cy="64.54" rx=".48" ry=".42"/>
        <path class="cls-1" d="m152.2,73.31c.27,0,.48-.19.48-.42s-.22-.42-.48-.42-.48.19-.48.42.22.42.48.42Z"/>
        <path class="cls-1" d="m152.2,81.67c.27,0,.48-.19.48-.42s-.22-.42-.48-.42-.48.19-.48.42.22.42.48.42Z"/>
        <path class="cls-1" d="m152.2,90.03c.27,0,.48-.19.48-.42s-.22-.42-.48-.42-.48.19-.48.42.22.42.48.42Z"/>
        <ellipse class="cls-1" cx="152.2" cy="97.97" rx=".48" ry=".42"/>
        <path class="cls-1" d="m152.2,106.75c.27,0,.48-.19.48-.42s-.22-.42-.48-.42-.48.19-.48.42.22.42.48.42Z"/>
        <path class="cls-1" d="m152.2,115.11c.27,0,.48-.19.48-.42s-.22-.42-.48-.42-.48.19-.48.42.22.42.48.42Z"/>
        <path class="cls-1" d="m152.2,123.46c.27,0,.48-.19.48-.42s-.22-.42-.48-.42-.48.19-.48.42.22.42.48.42Z"/>
        <path class="cls-1" d="m152.2,131.82c.27,0,.48-.19.48-.42s-.22-.42-.48-.42-.48.19-.48.42.22.42.48.42Z"/>
        <ellipse class="cls-1" cx="152.2" cy="139.77" rx=".48" ry=".42"/>
        <path class="cls-1" d="m152.2,148.54c.27,0,.48-.19.48-.42s-.22-.42-.48-.42-.48.19-.48.42.22.42.48.42Z"/>
        <path class="cls-1" d="m152.2,156.9c.27,0,.48-.19.48-.42s-.22-.42-.48-.42-.48.19-.48.42.22.42.48.42Z"/>
        <path class="cls-1" d="m152.2,165.26c.27,0,.48-.19.48-.42s-.22-.42-.48-.42-.48.19-.48.42.22.42.48.42Z"/>
        <path class="cls-1" d="m152.2,173.62c.27,0,.48-.19.48-.42s-.22-.42-.48-.42-.48.19-.48.42.22.42.48.42Z"/>
        <path class="cls-1" d="m152.2,181.98c.27,0,.48-.19.48-.42s-.22-.42-.48-.42-.48.19-.48.42.22.42.48.42Z"/>
        <ellipse class="cls-1" cx="152.2" cy="189.92" rx=".48" ry=".42"/>
        <ellipse class="cls-1" cx="152.2" cy="198.28" rx=".48" ry=".42"/>
        <path class="cls-1" d="m142.45,6.44c.27,0,.48-.19.48-.42s-.22-.42-.48-.42-.48.19-.48.42.22.42.48.42Z"/>
        <path class="cls-1" d="m142.45,14.8c.27,0,.48-.19.48-.42s-.22-.42-.48-.42-.48.19-.48.42.22.42.48.42Z"/>
        <path class="cls-1" d="m142.45,23.16c.27,0,.48-.19.48-.42s-.22-.42-.48-.42-.48.19-.48.42.22.42.48.42Z"/>
        <path class="cls-1" d="m142.45,31.52c.27,0,.48-.19.48-.42s-.22-.42-.48-.42-.48.19-.48.42.22.42.48.42Z"/>
        <path class="cls-1" d="m142.45,39.88c.27,0,.48-.19.48-.42s-.22-.42-.48-.42-.48.19-.48.42.22.42.48.42Z"/>
        <path class="cls-1" d="m142.45,48.23c.27,0,.48-.19.48-.42s-.22-.42-.48-.42-.48.19-.48.42.22.42.48.42Z"/>
        <path class="cls-1" d="m142.45,56.59c.27,0,.48-.19.48-.42s-.22-.42-.48-.42-.48.19-.48.42.22.42.48.42Z"/>
        <path class="cls-1" d="m142.45,64.95c.27,0,.48-.19.48-.42s-.22-.42-.48-.42-.48.19-.48.42.22.42.48.42Z"/>
        <path class="cls-1" d="m142.45,73.31c.27,0,.48-.19.48-.42s-.22-.42-.48-.42-.48.19-.48.42.22.42.48.42Z"/>
        <path class="cls-1" d="m142.45,81.67c.27,0,.48-.19.48-.42s-.22-.42-.48-.42-.48.19-.48.42.22.42.48.42Z"/>
        <path class="cls-1" d="m142.45,90.03c.27,0,.48-.19.48-.42s-.22-.42-.48-.42-.48.19-.48.42.22.42.48.42Z"/>
        <path class="cls-1" d="m142.45,98.39c.27,0,.48-.19.48-.42s-.22-.42-.48-.42-.48.19-.48.42.22.42.48.42Z"/>
        <path class="cls-1" d="m142.45,106.75c.27,0,.48-.19.48-.42s-.22-.42-.48-.42-.48.19-.48.42.22.42.48.42Z"/>
        <path class="cls-1" d="m142.45,115.11c.27,0,.48-.19.48-.42s-.22-.42-.48-.42-.48.19-.48.42.22.42.48.42Z"/>
        <path class="cls-1" d="m142.45,123.46c.27,0,.48-.19.48-.42s-.22-.42-.48-.42-.48.19-.48.42.22.42.48.42Z"/>
        <path class="cls-1" d="m142.45,131.82c.27,0,.48-.19.48-.42s-.22-.42-.48-.42-.48.19-.48.42.22.42.48.42Z"/>
        <path class="cls-1" d="m142.45,140.18c.27,0,.48-.19.48-.42s-.22-.42-.48-.42-.48.19-.48.42.22.42.48.42Z"/>
        <path class="cls-1" d="m142.45,148.54c.27,0,.48-.19.48-.42s-.22-.42-.48-.42-.48.19-.48.42.22.42.48.42Z"/>
        <path class="cls-1" d="m142.45,156.9c.27,0,.48-.19.48-.42s-.22-.42-.48-.42-.48.19-.48.42.22.42.48.42Z"/>
        <path class="cls-1" d="m142.45,165.26c.27,0,.48-.19.48-.42s-.22-.42-.48-.42-.48.19-.48.42.22.42.48.42Z"/>
        <path class="cls-1" d="m142.45,173.62c.27,0,.48-.19.48-.42s-.22-.42-.48-.42-.48.19-.48.42.22.42.48.42Z"/>
        <path class="cls-1" d="m142.45,181.98c.27,0,.48-.19.48-.42s-.22-.42-.48-.42-.48.19-.48.42.22.42.48.42Z"/>
        <path class="cls-1" d="m142.45,190.34c.27,0,.48-.19.48-.42s-.22-.42-.48-.42-.48.19-.48.42.22.42.48.42Z"/>
        <path class="cls-1" d="m142.45,198.69c.27,0,.48-.19.48-.42s-.22-.42-.48-.42-.48.19-.48.42.22.42.48.42Z"/>
        <ellipse class="cls-1" cx="132.71" cy="6.02" rx=".48" ry=".42"/>
        <ellipse class="cls-1" cx="132.71" cy="14.38" rx=".48" ry=".42"/>
        <path class="cls-1" d="m132.71,23.16c.27,0,.48-.19.48-.42s-.22-.42-.48-.42-.48.19-.48.42.22.42.48.42Z"/>
        <path class="cls-1" d="m132.71,31.52c.27,0,.48-.19.48-.42s-.22-.42-.48-.42-.48.19-.48.42.22.42.48.42Z"/>
        <ellipse class="cls-1" cx="132.71" cy="39.46" rx=".48" ry=".42"/>
        <path class="cls-1" d="m132.71,48.23c.27,0,.48-.19.48-.42s-.22-.42-.48-.42-.48.19-.48.42.22.42.48.42Z"/>
        <ellipse class="cls-1" cx="132.71" cy="56.18" rx=".48" ry=".42"/>
        <ellipse class="cls-1" cx="132.71" cy="64.54" rx=".48" ry=".42"/>
        <path class="cls-1" d="m132.71,73.31c.27,0,.48-.19.48-.42s-.22-.42-.48-.42-.48.19-.48.42.22.42.48.42Z"/>
        <path class="cls-1" d="m132.71,81.67c.27,0,.48-.19.48-.42s-.22-.42-.48-.42-.48.19-.48.42.22.42.48.42Z"/>
        <path class="cls-1" d="m132.71,90.03c.27,0,.48-.19.48-.42s-.22-.42-.48-.42-.48.19-.48.42.22.42.48.42Z"/>
        <ellipse class="cls-1" cx="132.71" cy="97.97" rx=".48" ry=".42"/>
        <path class="cls-1" d="m132.71,106.75c.27,0,.48-.19.48-.42s-.22-.42-.48-.42-.48.19-.48.42.22.42.48.42Z"/>
        <path class="cls-1" d="m132.71,115.11c.27,0,.48-.19.48-.42s-.22-.42-.48-.42-.48.19-.48.42.22.42.48.42Z"/>
        <path class="cls-1" d="m132.71,123.46c.27,0,.48-.19.48-.42s-.22-.42-.48-.42-.48.19-.48.42.22.42.48.42Z"/>
        <path class="cls-1" d="m132.71,131.82c.27,0,.48-.19.48-.42s-.22-.42-.48-.42-.48.19-.48.42.22.42.48.42Z"/>
        <ellipse class="cls-1" cx="132.71" cy="139.77" rx=".48" ry=".42"/>
        <path class="cls-1" d="m132.71,148.54c.27,0,.48-.19.48-.42s-.22-.42-.48-.42-.48.19-.48.42.22.42.48.42Z"/>
        <path class="cls-1" d="m132.71,156.9c.27,0,.48-.19.48-.42s-.22-.42-.48-.42-.48.19-.48.42.22.42.48.42Z"/>
        <path class="cls-1" d="m132.71,165.26c.27,0,.48-.19.48-.42s-.22-.42-.48-.42-.48.19-.48.42.22.42.48.42Z"/>
        <path class="cls-1" d="m132.71,173.62c.27,0,.48-.19.48-.42s-.22-.42-.48-.42-.48.19-.48.42.22.42.48.42Z"/>
        <path class="cls-1" d="m132.71,181.98c.27,0,.48-.19.48-.42s-.22-.42-.48-.42-.48.19-.48.42.22.42.48.42Z"/>
        <ellipse class="cls-1" cx="132.71" cy="189.92" rx=".48" ry=".42"/>
        <ellipse class="cls-1" cx="132.71" cy="198.28" rx=".48" ry=".42"/>
        <path class="cls-1" d="m122.96,6.44c.27,0,.48-.19.48-.42s-.22-.42-.48-.42-.48.19-.48.42.22.42.48.42Z"/>
        <path class="cls-1" d="m122.96,14.8c.27,0,.48-.19.48-.42s-.22-.42-.48-.42-.48.19-.48.42.22.42.48.42Z"/>
        <path class="cls-1" d="m122.96,23.16c.27,0,.48-.19.48-.42s-.22-.42-.48-.42-.48.19-.48.42.22.42.48.42Z"/>
        <path class="cls-1" d="m122.96,31.52c.27,0,.48-.19.48-.42s-.22-.42-.48-.42-.48.19-.48.42.22.42.48.42Z"/>
        <path class="cls-1" d="m122.96,39.88c.27,0,.48-.19.48-.42s-.22-.42-.48-.42-.48.19-.48.42.22.42.48.42Z"/>
        <path class="cls-1" d="m122.96,48.23c.27,0,.48-.19.48-.42s-.22-.42-.48-.42-.48.19-.48.42.22.42.48.42Z"/>
        <path class="cls-1" d="m122.96,56.59c.27,0,.48-.19.48-.42s-.22-.42-.48-.42-.48.19-.48.42.22.42.48.42Z"/>
        <path class="cls-1" d="m122.96,64.95c.27,0,.48-.19.48-.42s-.22-.42-.48-.42-.48.19-.48.42.22.42.48.42Z"/>
        <path class="cls-1" d="m122.96,73.31c.27,0,.48-.19.48-.42s-.22-.42-.48-.42-.48.19-.48.42.22.42.48.42Z"/>
        <path class="cls-1" d="m122.96,81.67c.27,0,.48-.19.48-.42s-.22-.42-.48-.42-.48.19-.48.42.22.42.48.42Z"/>
        <path class="cls-1" d="m122.96,90.03c.27,0,.48-.19.48-.42s-.22-.42-.48-.42-.48.19-.48.42.22.42.48.42Z"/>
        <path class="cls-1" d="m122.96,98.39c.27,0,.48-.19.48-.42s-.22-.42-.48-.42-.48.19-.48.42.22.42.48.42Z"/>
        <path class="cls-1" d="m122.96,106.75c.27,0,.48-.19.48-.42s-.22-.42-.48-.42-.48.19-.48.42.22.42.48.42Z"/>
        <path class="cls-1" d="m122.96,115.11c.27,0,.48-.19.48-.42s-.22-.42-.48-.42-.48.19-.48.42.22.42.48.42Z"/>
        <path class="cls-1" d="m122.96,123.46c.27,0,.48-.19.48-.42s-.22-.42-.48-.42-.48.19-.48.42.22.42.48.42Z"/>
        <path class="cls-1" d="m122.96,131.82c.27,0,.48-.19.48-.42s-.22-.42-.48-.42-.48.19-.48.42.22.42.48.42Z"/>
        <path class="cls-1" d="m122.96,140.18c.27,0,.48-.19.48-.42s-.22-.42-.48-.42-.48.19-.48.42.22.42.48.42Z"/>
        <path class="cls-1" d="m122.96,148.54c.27,0,.48-.19.48-.42s-.22-.42-.48-.42-.48.19-.48.42.22.42.48.42Z"/>
        <path class="cls-1" d="m122.96,156.9c.27,0,.48-.19.48-.42s-.22-.42-.48-.42-.48.19-.48.42.22.42.48.42Z"/>
        <path class="cls-1" d="m122.96,165.26c.27,0,.48-.19.48-.42s-.22-.42-.48-.42-.48.19-.48.42.22.42.48.42Z"/>
        <path class="cls-1" d="m122.96,173.62c.27,0,.48-.19.48-.42s-.22-.42-.48-.42-.48.19-.48.42.22.42.48.42Z"/>
        <path class="cls-1" d="m122.96,181.98c.27,0,.48-.19.48-.42s-.22-.42-.48-.42-.48.19-.48.42.22.42.48.42Z"/>
        <path class="cls-1" d="m122.96,190.34c.27,0,.48-.19.48-.42s-.22-.42-.48-.42-.48.19-.48.42.22.42.48.42Z"/>
        <path class="cls-1" d="m122.96,198.69c.27,0,.48-.19.48-.42s-.22-.42-.48-.42-.48.19-.48.42.22.42.48.42Z"/>
        <path class="cls-1" d="m113.22,6.44c.27,0,.48-.19.48-.42s-.22-.42-.48-.42-.48.19-.48.42.22.42.48.42Z"/>
        <path class="cls-1" d="m113.22,14.8c.27,0,.48-.19.48-.42s-.22-.42-.48-.42-.48.19-.48.42.22.42.48.42Z"/>
        <path class="cls-1" d="m113.22,23.16c.27,0,.48-.19.48-.42s-.22-.42-.48-.42-.48.19-.48.42.22.42.48.42Z"/>
        <path class="cls-1" d="m113.22,31.52c.27,0,.48-.19.48-.42s-.22-.42-.48-.42-.48.19-.48.42.22.42.48.42Z"/>
        <path class="cls-1" d="m113.22,39.88c.27,0,.48-.19.48-.42s-.22-.42-.48-.42-.48.19-.48.42.22.42.48.42Z"/>
        <path class="cls-1" d="m113.22,48.23c.27,0,.48-.19.48-.42s-.22-.42-.48-.42-.48.19-.48.42.22.42.48.42Z"/>
        <path class="cls-1" d="m113.22,56.59c.27,0,.48-.19.48-.42s-.22-.42-.48-.42-.48.19-.48.42.22.42.48.42Z"/>
        <path class="cls-1" d="m113.22,64.95c.27,0,.48-.19.48-.42s-.22-.42-.48-.42-.48.19-.48.42.22.42.48.42Z"/>
        <path class="cls-1" d="m113.22,73.31c.27,0,.48-.19.48-.42s-.22-.42-.48-.42-.48.19-.48.42.22.42.48.42Z"/>
        <path class="cls-1" d="m113.22,81.67c.27,0,.48-.19.48-.42s-.22-.42-.48-.42-.48.19-.48.42.22.42.48.42Z"/>
        <path class="cls-1" d="m113.22,90.03c.27,0,.48-.19.48-.42s-.22-.42-.48-.42-.48.19-.48.42.22.42.48.42Z"/>
        <path class="cls-1" d="m113.22,98.39c.27,0,.48-.19.48-.42s-.22-.42-.48-.42-.48.19-.48.42.22.42.48.42Z"/>
        <path class="cls-1" d="m113.22,106.75c.27,0,.48-.19.48-.42s-.22-.42-.48-.42-.48.19-.48.42.22.42.48.42Z"/>
        <path class="cls-1" d="m113.22,115.11c.27,0,.48-.19.48-.42s-.22-.42-.48-.42-.48.19-.48.42.22.42.48.42Z"/>
        <path class="cls-1" d="m113.22,123.46c.27,0,.48-.19.48-.42s-.22-.42-.48-.42-.48.19-.48.42.22.42.48.42Z"/>
        <path class="cls-1" d="m113.22,131.82c.27,0,.48-.19.48-.42s-.22-.42-.48-.42-.48.19-.48.42.22.42.48.42Z"/>
        <path class="cls-1" d="m113.22,140.18c.27,0,.48-.19.48-.42s-.22-.42-.48-.42-.48.19-.48.42.22.42.48.42Z"/>
        <path class="cls-1" d="m113.22,148.54c.27,0,.48-.19.48-.42s-.22-.42-.48-.42-.48.19-.48.42.22.42.48.42Z"/>
        <path class="cls-1" d="m113.22,156.9c.27,0,.48-.19.48-.42s-.22-.42-.48-.42-.48.19-.48.42.22.42.48.42Z"/>
        <path class="cls-1" d="m113.22,165.26c.27,0,.48-.19.48-.42s-.22-.42-.48-.42-.48.19-.48.42.22.42.48.42Z"/>
        <path class="cls-1" d="m113.22,173.62c.27,0,.48-.19.48-.42s-.22-.42-.48-.42-.48.19-.48.42.22.42.48.42Z"/>
        <path class="cls-1" d="m113.22,181.98c.27,0,.48-.19.48-.42s-.22-.42-.48-.42-.48.19-.48.42.22.42.48.42Z"/>
        <path class="cls-1" d="m113.22,190.34c.27,0,.48-.19.48-.42s-.22-.42-.48-.42-.48.19-.48.42.22.42.48.42Z"/>
        <path class="cls-1" d="m113.22,198.69c.27,0,.48-.19.48-.42s-.22-.42-.48-.42-.48.19-.48.42.22.42.48.42Z"/>
        <path class="cls-1" d="m103.47,6.44c.27,0,.48-.19.48-.42s-.22-.42-.48-.42-.48.19-.48.42.22.42.48.42Z"/>
        <path class="cls-1" d="m103.47,14.8c.27,0,.48-.19.48-.42s-.22-.42-.48-.42-.48.19-.48.42.22.42.48.42Z"/>
        <path class="cls-1" d="m103.47,23.16c.27,0,.48-.19.48-.42s-.22-.42-.48-.42-.48.19-.48.42.22.42.48.42Z"/>
        <path class="cls-1" d="m103.47,31.52c.27,0,.48-.19.48-.42s-.22-.42-.48-.42-.48.19-.48.42.22.42.48.42Z"/>
        <path class="cls-1" d="m103.47,39.88c.27,0,.48-.19.48-.42s-.22-.42-.48-.42-.48.19-.48.42.22.42.48.42Z"/>
        <path class="cls-1" d="m103.47,48.23c.27,0,.48-.19.48-.42s-.22-.42-.48-.42-.48.19-.48.42.22.42.48.42Z"/>
        <path class="cls-1" d="m103.47,56.59c.27,0,.48-.19.48-.42s-.22-.42-.48-.42-.48.19-.48.42.22.42.48.42Z"/>
        <path class="cls-1" d="m103.47,64.95c.27,0,.48-.19.48-.42s-.22-.42-.48-.42-.48.19-.48.42.22.42.48.42Z"/>
        <path class="cls-1" d="m103.47,73.31c.27,0,.48-.19.48-.42s-.22-.42-.48-.42-.48.19-.48.42.22.42.48.42Z"/>
        <path class="cls-1" d="m103.47,81.67c.27,0,.48-.19.48-.42s-.22-.42-.48-.42-.48.19-.48.42.22.42.48.42Z"/>
        <path class="cls-1" d="m103.47,90.03c.27,0,.48-.19.48-.42s-.22-.42-.48-.42-.48.19-.48.42.22.42.48.42Z"/>
        <path class="cls-1" d="m103.47,98.39c.27,0,.48-.19.48-.42s-.22-.42-.48-.42-.48.19-.48.42.22.42.48.42Z"/>
        <path class="cls-1" d="m103.47,106.75c.27,0,.48-.19.48-.42s-.22-.42-.48-.42-.48.19-.48.42.22.42.48.42Z"/>
        <path class="cls-1" d="m103.47,115.11c.27,0,.48-.19.48-.42s-.22-.42-.48-.42-.48.19-.48.42.22.42.48.42Z"/>
        <path class="cls-1" d="m103.47,123.46c.27,0,.48-.19.48-.42s-.22-.42-.48-.42-.48.19-.48.42.22.42.48.42Z"/>
        <path class="cls-1" d="m103.47,131.82c.27,0,.48-.19.48-.42s-.22-.42-.48-.42-.48.19-.48.42.22.42.48.42Z"/>
        <path class="cls-1" d="m103.47,140.18c.27,0,.48-.19.48-.42s-.22-.42-.48-.42-.48.19-.48.42.22.42.48.42Z"/>
        <path class="cls-1" d="m103.47,148.54c.27,0,.48-.19.48-.42s-.22-.42-.48-.42-.48.19-.48.42.22.42.48.42Z"/>
        <path class="cls-1" d="m103.47,156.9c.27,0,.48-.19.48-.42s-.22-.42-.48-.42-.48.19-.48.42.22.42.48.42Z"/>
        <path class="cls-1" d="m103.47,165.26c.27,0,.48-.19.48-.42s-.22-.42-.48-.42-.48.19-.48.42.22.42.48.42Z"/>
        <path class="cls-1" d="m103.47,173.62c.27,0,.48-.19.48-.42s-.22-.42-.48-.42-.48.19-.48.42.22.42.48.42Z"/>
        <path class="cls-1" d="m103.47,181.98c.27,0,.48-.19.48-.42s-.22-.42-.48-.42-.48.19-.48.42.22.42.48.42Z"/>
        <path class="cls-1" d="m103.47,190.34c.27,0,.48-.19.48-.42s-.22-.42-.48-.42-.48.19-.48.42.22.42.48.42Z"/>
        <path class="cls-1" d="m103.47,198.69c.27,0,.48-.19.48-.42s-.22-.42-.48-.42-.48.19-.48.42.22.42.48.42Z"/>
        <ellipse class="cls-1" cx="93.73" cy="6.02" rx=".48" ry=".42"/>
        <ellipse class="cls-1" cx="93.73" cy="14.38" rx=".48" ry=".42"/>
        <path class="cls-1" d="m93.73,23.16c.27,0,.48-.19.48-.42s-.22-.42-.48-.42-.48.19-.48.42.22.42.48.42Z"/>
        <path class="cls-1" d="m93.73,31.52c.27,0,.48-.19.48-.42s-.22-.42-.48-.42-.48.19-.48.42.22.42.48.42Z"/>
        <ellipse class="cls-1" cx="93.73" cy="39.46" rx=".48" ry=".42"/>
        <path class="cls-1" d="m93.73,48.23c.27,0,.48-.19.48-.42s-.22-.42-.48-.42-.48.19-.48.42.22.42.48.42Z"/>
        <ellipse class="cls-1" cx="93.73" cy="56.18" rx=".48" ry=".42"/>
        <ellipse class="cls-1" cx="93.73" cy="64.54" rx=".48" ry=".42"/>
        <path class="cls-1" d="m93.73,73.31c.27,0,.48-.19.48-.42s-.22-.42-.48-.42-.48.19-.48.42.22.42.48.42Z"/>
        <path class="cls-1" d="m93.73,81.67c.27,0,.48-.19.48-.42s-.22-.42-.48-.42-.48.19-.48.42.22.42.48.42Z"/>
        <path class="cls-1" d="m93.73,90.03c.27,0,.48-.19.48-.42s-.22-.42-.48-.42-.48.19-.48.42.22.42.48.42Z"/>
        <ellipse class="cls-1" cx="93.73" cy="97.97" rx=".48" ry=".42"/>
        <path class="cls-1" d="m93.73,106.75c.27,0,.48-.19.48-.42s-.22-.42-.48-.42-.48.19-.48.42.22.42.48.42Z"/>
        <path class="cls-1" d="m93.73,115.11c.27,0,.48-.19.48-.42s-.22-.42-.48-.42-.48.19-.48.42.22.42.48.42Z"/>
        <path class="cls-1" d="m93.73,123.46c.27,0,.48-.19.48-.42s-.22-.42-.48-.42-.48.19-.48.42.22.42.48.42Z"/>
        <path class="cls-1" d="m93.73,131.82c.27,0,.48-.19.48-.42s-.22-.42-.48-.42-.48.19-.48.42.22.42.48.42Z"/>
        <ellipse class="cls-1" cx="93.73" cy="139.77" rx=".48" ry=".42"/>
        <path class="cls-1" d="m93.73,148.54c.27,0,.48-.19.48-.42s-.22-.42-.48-.42-.48.19-.48.42.22.42.48.42Z"/>
        <path class="cls-1" d="m93.73,156.9c.27,0,.48-.19.48-.42s-.22-.42-.48-.42-.48.19-.48.42.22.42.48.42Z"/>
        <path class="cls-1" d="m93.73,165.26c.27,0,.48-.19.48-.42s-.22-.42-.48-.42-.48.19-.48.42.22.42.48.42Z"/>
        <path class="cls-1" d="m93.73,173.62c.27,0,.48-.19.48-.42s-.22-.42-.48-.42-.48.19-.48.42.22.42.48.42Z"/>
        <path class="cls-1" d="m93.73,181.98c.27,0,.48-.19.48-.42s-.22-.42-.48-.42-.48.19-.48.42.22.42.48.42Z"/>
        <ellipse class="cls-1" cx="93.73" cy="189.92" rx=".48" ry=".42"/>
        <ellipse class="cls-1" cx="93.73" cy="198.28" rx=".48" ry=".42"/>
        <path class="cls-1" d="m83.98,6.44c.27,0,.48-.19.48-.42s-.22-.42-.48-.42-.48.19-.48.42.22.42.48.42Z"/>
        <path class="cls-1" d="m83.98,14.8c.27,0,.48-.19.48-.42s-.22-.42-.48-.42-.48.19-.48.42.22.42.48.42Z"/>
        <path class="cls-1" d="m83.98,23.16c.27,0,.48-.19.48-.42s-.22-.42-.48-.42-.48.19-.48.42.22.42.48.42Z"/>
        <path class="cls-1" d="m83.98,31.52c.27,0,.48-.19.48-.42s-.22-.42-.48-.42-.48.19-.48.42.22.42.48.42Z"/>
        <path class="cls-1" d="m83.98,39.88c.27,0,.48-.19.48-.42s-.22-.42-.48-.42-.48.19-.48.42.22.42.48.42Z"/>
        <path class="cls-1" d="m83.98,48.23c.27,0,.48-.19.48-.42s-.22-.42-.48-.42-.48.19-.48.42.22.42.48.42Z"/>
        <path class="cls-1" d="m83.98,56.59c.27,0,.48-.19.48-.42s-.22-.42-.48-.42-.48.19-.48.42.22.42.48.42Z"/>
        <path class="cls-1" d="m83.98,64.95c.27,0,.48-.19.48-.42s-.22-.42-.48-.42-.48.19-.48.42.22.42.48.42Z"/>
        <path class="cls-1" d="m83.98,73.31c.27,0,.48-.19.48-.42s-.22-.42-.48-.42-.48.19-.48.42.22.42.48.42Z"/>
        <path class="cls-1" d="m83.98,81.67c.27,0,.48-.19.48-.42s-.22-.42-.48-.42-.48.19-.48.42.22.42.48.42Z"/>
        <path class="cls-1" d="m83.98,90.03c.27,0,.48-.19.48-.42s-.22-.42-.48-.42-.48.19-.48.42.22.42.48.42Z"/>
        <path class="cls-1" d="m83.98,98.39c.27,0,.48-.19.48-.42s-.22-.42-.48-.42-.48.19-.48.42.22.42.48.42Z"/>
        <path class="cls-1" d="m83.98,106.75c.27,0,.48-.19.48-.42s-.22-.42-.48-.42-.48.19-.48.42.22.42.48.42Z"/>
        <path class="cls-1" d="m83.98,115.11c.27,0,.48-.19.48-.42s-.22-.42-.48-.42-.48.19-.48.42.22.42.48.42Z"/>
        <path class="cls-1" d="m83.98,123.46c.27,0,.48-.19.48-.42s-.22-.42-.48-.42-.48.19-.48.42.22.42.48.42Z"/>
        <path class="cls-1" d="m83.98,131.82c.27,0,.48-.19.48-.42s-.22-.42-.48-.42-.48.19-.48.42.22.42.48.42Z"/>
        <path class="cls-1" d="m83.98,140.18c.27,0,.48-.19.48-.42s-.22-.42-.48-.42-.48.19-.48.42.22.42.48.42Z"/>
        <path class="cls-1" d="m83.98,148.54c.27,0,.48-.19.48-.42s-.22-.42-.48-.42-.48.19-.48.42.22.42.48.42Z"/>
        <path class="cls-1" d="m83.98,156.9c.27,0,.48-.19.48-.42s-.22-.42-.48-.42-.48.19-.48.42.22.42.48.42Z"/>
        <path class="cls-1" d="m83.98,165.26c.27,0,.48-.19.48-.42s-.22-.42-.48-.42-.48.19-.48.42.22.42.48.42Z"/>
        <path class="cls-1" d="m83.98,173.62c.27,0,.48-.19.48-.42s-.22-.42-.48-.42-.48.19-.48.42.22.42.48.42Z"/>
        <path class="cls-1" d="m83.98,181.98c.27,0,.48-.19.48-.42s-.22-.42-.48-.42-.48.19-.48.42.22.42.48.42Z"/>
        <path class="cls-1" d="m83.98,190.34c.27,0,.48-.19.48-.42s-.22-.42-.48-.42-.48.19-.48.42.22.42.48.42Z"/>
        <path class="cls-1" d="m83.98,198.69c.27,0,.48-.19.48-.42s-.22-.42-.48-.42-.48.19-.48.42.22.42.48.42Z"/>
        <path class="cls-1" d="m74.24,6.44c.27,0,.48-.19.48-.42s-.22-.42-.48-.42-.48.19-.48.42.22.42.48.42Z"/>
        <path class="cls-1" d="m74.24,14.8c.27,0,.48-.19.48-.42s-.22-.42-.48-.42-.48.19-.48.42.22.42.48.42Z"/>
        <path class="cls-1" d="m74.24,23.16c.27,0,.48-.19.48-.42s-.22-.42-.48-.42-.48.19-.48.42.22.42.48.42Z"/>
        <path class="cls-1" d="m74.24,31.52c.27,0,.48-.19.48-.42s-.22-.42-.48-.42-.48.19-.48.42.22.42.48.42Z"/>
        <path class="cls-1" d="m74.24,39.88c.27,0,.48-.19.48-.42s-.22-.42-.48-.42-.48.19-.48.42.22.42.48.42Z"/>
        <path class="cls-1" d="m74.24,48.23c.27,0,.48-.19.48-.42s-.22-.42-.48-.42-.48.19-.48.42.22.42.48.42Z"/>
        <path class="cls-1" d="m74.24,56.59c.27,0,.48-.19.48-.42s-.22-.42-.48-.42-.48.19-.48.42.22.42.48.42Z"/>
        <path class="cls-1" d="m74.24,64.95c.27,0,.48-.19.48-.42s-.22-.42-.48-.42-.48.19-.48.42.22.42.48.42Z"/>
        <path class="cls-1" d="m74.24,73.31c.27,0,.48-.19.48-.42s-.22-.42-.48-.42-.48.19-.48.42.22.42.48.42Z"/>
        <path class="cls-1" d="m74.24,81.67c.27,0,.48-.19.48-.42s-.22-.42-.48-.42-.48.19-.48.42.22.42.48.42Z"/>
        <path class="cls-1" d="m74.24,90.03c.27,0,.48-.19.48-.42s-.22-.42-.48-.42-.48.19-.48.42.22.42.48.42Z"/>
        <path class="cls-1" d="m74.24,98.39c.27,0,.48-.19.48-.42s-.22-.42-.48-.42-.48.19-.48.42.22.42.48.42Z"/>
        <path class="cls-1" d="m74.24,106.75c.27,0,.48-.19.48-.42s-.22-.42-.48-.42-.48.19-.48.42.22.42.48.42Z"/>
        <path class="cls-1" d="m74.24,115.11c.27,0,.48-.19.48-.42s-.22-.42-.48-.42-.48.19-.48.42.22.42.48.42Z"/>
        <path class="cls-1" d="m74.24,123.46c.27,0,.48-.19.48-.42s-.22-.42-.48-.42-.48.19-.48.42.22.42.48.42Z"/>
        <path class="cls-1" d="m74.24,131.82c.27,0,.48-.19.48-.42s-.22-.42-.48-.42-.48.19-.48.42.22.42.48.42Z"/>
        <path class="cls-1" d="m74.24,140.18c.27,0,.48-.19.48-.42s-.22-.42-.48-.42-.48.19-.48.42.22.42.48.42Z"/>
        <path class="cls-1" d="m74.24,148.54c.27,0,.48-.19.48-.42s-.22-.42-.48-.42-.48.19-.48.42.22.42.48.42Z"/>
        <path class="cls-1" d="m74.24,156.9c.27,0,.48-.19.48-.42s-.22-.42-.48-.42-.48.19-.48.42.22.42.48.42Z"/>
        <path class="cls-1" d="m74.24,165.26c.27,0,.48-.19.48-.42s-.22-.42-.48-.42-.48.19-.48.42.22.42.48.42Z"/>
        <path class="cls-1" d="m74.24,173.62c.27,0,.48-.19.48-.42s-.22-.42-.48-.42-.48.19-.48.42.22.42.48.42Z"/>
        <path class="cls-1" d="m74.24,181.98c.27,0,.48-.19.48-.42s-.22-.42-.48-.42-.48.19-.48.42.22.42.48.42Z"/>
        <path class="cls-1" d="m74.24,190.34c.27,0,.48-.19.48-.42s-.22-.42-.48-.42-.48.19-.48.42.22.42.48.42Z"/>
        <path class="cls-1" d="m74.24,198.69c.27,0,.48-.19.48-.42s-.22-.42-.48-.42-.48.19-.48.42.22.42.48.42Z"/>
        <path class="cls-1" d="m64.49,6.44c.27,0,.48-.19.48-.42s-.22-.42-.48-.42-.48.19-.48.42.22.42.48.42Z"/>
        <path class="cls-1" d="m64.49,14.8c.27,0,.48-.19.48-.42s-.22-.42-.48-.42-.48.19-.48.42.22.42.48.42Z"/>
        <path class="cls-1" d="m64.49,23.16c.27,0,.48-.19.48-.42s-.22-.42-.48-.42-.48.19-.48.42.22.42.48.42Z"/>
        <path class="cls-1" d="m64.49,31.52c.27,0,.48-.19.48-.42s-.22-.42-.48-.42-.48.19-.48.42.22.42.48.42Z"/>
        <path class="cls-1" d="m64.49,39.88c.27,0,.48-.19.48-.42s-.22-.42-.48-.42-.48.19-.48.42.22.42.48.42Z"/>
        <path class="cls-1" d="m64.49,48.23c.27,0,.48-.19.48-.42s-.22-.42-.48-.42-.48.19-.48.42.22.42.48.42Z"/>
        <path class="cls-1" d="m64.49,56.59c.27,0,.48-.19.48-.42s-.22-.42-.48-.42-.48.19-.48.42.22.42.48.42Z"/>
        <path class="cls-1" d="m64.49,64.95c.27,0,.48-.19.48-.42s-.22-.42-.48-.42-.48.19-.48.42.22.42.48.42Z"/>
        <path class="cls-1" d="m64.49,73.31c.27,0,.48-.19.48-.42s-.22-.42-.48-.42-.48.19-.48.42.22.42.48.42Z"/>
        <path class="cls-1" d="m64.49,81.67c.27,0,.48-.19.48-.42s-.22-.42-.48-.42-.48.19-.48.42.22.42.48.42Z"/>
        <path class="cls-1" d="m64.49,90.03c.27,0,.48-.19.48-.42s-.22-.42-.48-.42-.48.19-.48.42.22.42.48.42Z"/>
        <path class="cls-1" d="m64.49,98.39c.27,0,.48-.19.48-.42s-.22-.42-.48-.42-.48.19-.48.42.22.42.48.42Z"/>
        <path class="cls-1" d="m64.49,106.75c.27,0,.48-.19.48-.42s-.22-.42-.48-.42-.48.19-.48.42.22.42.48.42Z"/>
        <path class="cls-1" d="m64.49,115.11c.27,0,.48-.19.48-.42s-.22-.42-.48-.42-.48.19-.48.42.22.42.48.42Z"/>
        <path class="cls-1" d="m64.49,123.46c.27,0,.48-.19.48-.42s-.22-.42-.48-.42-.48.19-.48.42.22.42.48.42Z"/>
        <path class="cls-1" d="m64.49,131.82c.27,0,.48-.19.48-.42s-.22-.42-.48-.42-.48.19-.48.42.22.42.48.42Z"/>
        <path class="cls-1" d="m64.49,140.18c.27,0,.48-.19.48-.42s-.22-.42-.48-.42-.48.19-.48.42.22.42.48.42Z"/>
        <path class="cls-1" d="m64.49,148.54c.27,0,.48-.19.48-.42s-.22-.42-.48-.42-.48.19-.48.42.22.42.48.42Z"/>
        <path class="cls-1" d="m64.49,156.9c.27,0,.48-.19.48-.42s-.22-.42-.48-.42-.48.19-.48.42.22.42.48.42Z"/>
        <path class="cls-1" d="m64.49,165.26c.27,0,.48-.19.48-.42s-.22-.42-.48-.42-.48.19-.48.42.22.42.48.42Z"/>
        <path class="cls-1" d="m64.49,173.62c.27,0,.48-.19.48-.42s-.22-.42-.48-.42-.48.19-.48.42.22.42.48.42Z"/>
        <path class="cls-1" d="m64.49,181.98c.27,0,.48-.19.48-.42s-.22-.42-.48-.42-.48.19-.48.42.22.42.48.42Z"/>
        <path class="cls-1" d="m64.49,190.34c.27,0,.48-.19.48-.42s-.22-.42-.48-.42-.48.19-.48.42.22.42.48.42Z"/>
        <path class="cls-1" d="m64.49,198.69c.27,0,.48-.19.48-.42s-.22-.42-.48-.42-.48.19-.48.42.22.42.48.42Z"/>
      </g>
    </g>
  </g>
</svg>