<?xml version="1.0" encoding="UTF-8"?>
<svg id="Layer_1" data-name="Layer 1" xmlns="http://www.w3.org/2000/svg" viewBox="0 0 353.42 586.44">
  <defs>
    <style>
      .cls-1 {
        fill: none;
        stroke: #fff;
        stroke-miterlimit: 10;
        stroke-width: .73px;
      }

      .cls-2 {
        fill: #fff;
      }
    </style>
  </defs>
  <g>
    <polyline class="cls-1" points="5.09 14.83 12.26 7.66 42.29 7.66 48.91 1.04 311.8 1.04 325.29 14.53 325.29 362.19 315.64 371.84 25.33 371.84 16.13 362.64 7.46 362.64"/>
    <polyline class="cls-1" points="11.84 16.18 8.37 19.64 8.37 101.52 13.19 106.34 13.19 143.39"/>
    <polygon class="cls-2" points="10.78 22.71 10.78 98.48 12.49 100.19 12.49 33.29 13.5 32.29 13.5 19.84 10.78 22.71"/>
    <polyline class="cls-1" points="14.75 141.27 14.75 146.62 10.11 151.27 1.02 151.27 1.02 229.22 4.97 233.17 4.97 355.63"/>
    <polygon class="cls-2" points="17.48 4.64 22.49 4.64 27.13 0 21.76 0 17.48 4.64"/>
    <polygon class="cls-2" points="24.45 4.64 29.47 4.64 34.11 0 28.74 0 24.45 4.64"/>
    <polygon class="cls-2" points="31.43 4.64 36.44 4.64 41.08 0 35.71 0 31.43 4.64"/>
    <polygon class="cls-2" points="49.22 5.66 51.57 3.32 113.97 3.32 115.42 4.76 187.21 4.76 191.17 .81 292.98 .81 295.5 3.34 309.44 3.34 314.03 7.93 310.88 7.93 309.56 6.61 288.2 6.61 286.51 4.93 200.56 4.93 199.21 6.28 179.22 6.28 178.54 5.59 125.86 5.59 49.22 5.66"/>
    <g>
      <rect class="cls-1" x="319.83" y="105.54" width="10.67" height="10.67"/>
      <rect class="cls-2" x="323.82" y="109.53" width="2.69" height="2.69"/>
    </g>
    <g>
      <rect class="cls-2" x="311.34" y="295.78" width="8.54" height="1.28"/>
      <polygon class="cls-2" points="319.88 300.52 319.88 303.92 311.38 303.92 311.35 300.52 319.88 300.52"/>
      <polygon class="cls-2" points="319.88 307.39 319.88 310.79 311.41 310.79 311.39 307.39 319.88 307.39"/>
      <polygon class="cls-2" points="319.88 314.25 319.88 317.66 311.44 317.66 311.43 314.25 319.88 314.25"/>
      <polygon class="cls-2" points="311.46 321.12 319.88 321.12 319.88 358.23 311.7 366.4 311.46 321.12"/>
    </g>
    <polygon class="cls-2" points="325.17 27.18 335.94 37.95 335.94 90.36 346.69 101.12 346.69 137.5 336.49 147.7 336.49 304.38 341.12 309.02 341.12 324.95 329.16 336.92 329.16 139.32 329.16 122.82 334.65 117.33 334.65 102.29 328.47 96.11 328.47 59.79 325.45 56.77 325.17 27.18"/>
  </g>
  <g>
    <g>
      <g>
        <polygon class="cls-2" points="22.16 393.07 10.68 404.55 10.68 396.03 13.64 393.07 22.16 393.07"/>
        <polygon class="cls-2" points="34 393.07 14.26 412.81 10.68 412.81 10.68 407.87 25.48 393.07 34 393.07"/>
        <polygon class="cls-2" points="45.84 393.07 26.11 412.81 17.58 412.81 37.33 393.07 45.84 393.07"/>
        <polygon class="cls-2" points="57.69 393.07 37.95 412.81 29.43 412.81 49.17 393.07 57.69 393.07"/>
        <polygon class="cls-2" points="69.53 393.07 49.79 412.81 41.27 412.81 61.02 393.07 69.53 393.07"/>
        <polygon class="cls-2" points="81.38 393.07 61.64 412.81 53.12 412.81 72.86 393.07 81.38 393.07"/>
        <polygon class="cls-2" points="93.22 393.07 73.48 412.81 64.96 412.81 84.71 393.07 93.22 393.07"/>
        <polygon class="cls-2" points="105.06 393.07 85.32 412.81 76.81 412.81 96.55 393.07 105.06 393.07"/>
        <polygon class="cls-2" points="116.91 393.07 97.17 412.81 88.65 412.81 108.39 393.07 116.91 393.07"/>
        <polygon class="cls-2" points="128.75 393.07 109.01 412.81 100.49 412.81 120.24 393.07 128.75 393.07"/>
        <polygon class="cls-2" points="140.6 393.07 120.86 412.81 112.34 412.81 132.08 393.07 140.6 393.07"/>
        <polygon class="cls-2" points="152.44 393.07 132.7 412.81 124.18 412.81 143.92 393.07 152.44 393.07"/>
        <polygon class="cls-2" points="164.28 393.07 144.55 412.81 136.02 412.81 155.77 393.07 164.28 393.07"/>
        <polygon class="cls-2" points="176.13 393.07 156.39 412.81 147.87 412.81 167.61 393.07 176.13 393.07"/>
        <polygon class="cls-2" points="187.97 393.07 168.23 412.81 159.71 412.81 179.46 393.07 187.97 393.07"/>
        <polygon class="cls-2" points="199.82 393.07 180.08 412.81 171.56 412.81 191.3 393.07 199.82 393.07"/>
        <polygon class="cls-2" points="211.66 393.07 191.92 412.81 183.4 412.81 203.15 393.07 211.66 393.07"/>
        <polygon class="cls-2" points="223.5 393.07 203.76 412.81 195.25 412.81 214.99 393.07 223.5 393.07"/>
        <polygon class="cls-2" points="235.35 393.07 215.61 412.81 207.09 412.81 226.83 393.07 235.35 393.07"/>
        <polygon class="cls-2" points="247.19 393.07 227.45 412.81 218.93 412.81 238.67 393.07 247.19 393.07"/>
        <polygon class="cls-2" points="259.04 393.07 239.3 412.81 230.78 412.81 250.52 393.07 259.04 393.07"/>
        <polygon class="cls-2" points="270.88 393.07 251.14 412.81 242.62 412.81 262.36 393.07 270.88 393.07"/>
        <polygon class="cls-2" points="282.72 393.07 262.99 412.81 254.46 412.81 274.21 393.07 282.72 393.07"/>
        <polygon class="cls-2" points="294.57 393.07 274.83 412.81 266.31 412.81 286.05 393.07 294.57 393.07"/>
        <polygon class="cls-2" points="306.41 393.07 286.67 412.81 278.15 412.81 297.9 393.07 306.41 393.07"/>
        <polygon class="cls-2" points="318.26 393.07 298.51 412.81 290 412.81 309.74 393.07 318.26 393.07"/>
        <polygon class="cls-2" points="322.91 393.07 322.91 400.26 310.36 412.81 301.84 412.81 321.58 393.07 322.91 393.07"/>
        <polygon class="cls-2" points="322.91 403.59 322.91 412.1 322.2 412.81 313.69 412.81 322.91 403.59"/>
      </g>
      <g>
        <polyline class="cls-1" points="10.68 433.86 10.68 423.01 17.09 416.59 93.92 416.59 97.45 420.13 143.68 420.13"/>
        <polygon class="cls-1" points="10.51 420.54 14.46 416.59 10.51 416.59 10.51 420.54"/>
        <polygon class="cls-2" points="94.58 419.39 93.26 418.07 58.22 418.07 58.96 418.81 91.45 418.81 91.98 419.35 94.58 419.39"/>
        <polyline class="cls-1" points="141.51 419.1 145.59 419.1 145.59 421.05 144.23 422.4 131.3 422.4"/>
        <path class="cls-2" d="m103.62,420.13l.97-.97h11.93l.52-.52h11.83l.59.59h5.33s.88,1.01.94.94c.06-.06-32.12-.04-32.12-.04Z"/>
      </g>
      <g>
        <polyline class="cls-1" points="322.74 433.86 322.74 423.01 316.33 416.59 239.5 416.59 235.97 420.13 189.74 420.13"/>
        <polygon class="cls-1" points="322.91 420.54 318.96 416.59 322.91 416.59 322.91 420.54"/>
        <polygon class="cls-2" points="238.85 419.39 240.16 418.07 275.2 418.07 274.46 418.81 241.97 418.81 241.44 419.35 238.85 419.39"/>
        <polyline class="cls-1" points="191.91 419.1 187.84 419.1 187.84 421.05 189.19 422.4 202.12 422.4"/>
        <path class="cls-2" d="m229.8,420.13l-.97-.97h-11.93l-.52-.52h-11.83l-.59.59h-5.33s-.88,1.01-.94.94,32.12-.04,32.12-.04Z"/>
      </g>
      <rect class="cls-2" x="320.93" y="568.62" width="2.96" height="2.96"/>
      <rect class="cls-2" x="313.38" y="568.62" width="2.96" height="2.96"/>
      <rect class="cls-2" x="305.83" y="568.62" width="2.96" height="2.96"/>
      <rect class="cls-2" x="298.27" y="568.62" width="2.96" height="2.96"/>
      <g>
        <polyline class="cls-1" points="14.85 385.77 12.65 385.77 11.72 384.84 5.09 384.84 5.09 394.54 5.73 395.19 5.73 401.78"/>
        <polygon class="cls-2" points="10.92 384.72 10.29 385.36 5.84 385.36 5.84 389.61 5.04 390.42 5.04 388.47 4.44 387.87 4.44 384.07 8.9 384.07 9.59 384.77 10.92 384.72"/>
        <polyline class="cls-1" points="4.77 400.86 4.77 403.18 5.69 404.1 5.69 416.76"/>
      </g>
      <g>
        <polyline class="cls-1" points="319.89 385.77 322.08 385.77 323.01 384.84 329.65 384.84 329.65 394.54 329.01 395.19 329.01 401.78"/>
        <polygon class="cls-2" points="323.81 384.72 324.45 385.36 328.89 385.36 328.89 389.61 329.7 390.42 329.7 388.47 330.29 387.87 330.29 384.07 325.83 384.07 325.14 384.77 323.81 384.72"/>
        <polyline class="cls-1" points="329.96 400.86 329.96 403.18 329.05 404.1 329.05 416.76"/>
      </g>
    </g>
    <polygon class="cls-2" points="326.69 420.75 336.33 430.39 336.33 543.65 338.91 546.22 338.91 575.5 326.69 575.5 326.69 420.75"/>
    <polyline class="cls-1" points="4.5 584.53 348.53 584.53 353.16 579.89"/>
    <path class="cls-2" d="m175.3,584.53l2.05-2.05h38.95l.99-.99h28.76s3.8,3.8,3.48,3.48-73.69,0-73.69,0"/>
    <polygon class="cls-2" points="191.44 584.07 189.07 586.44 131.4 586.44 129.67 584.71 186.1 584.71 191.44 584.07"/>
    <polygon class="cls-2" points="0 580.03 3.13 580.03 4.88 581.78 18.15 581.78 20.93 584.56 24.63 584.56 23.62 585.57 9.4 585.57 8.34 584.5 4.53 584.5 1.75 581.72 .67 581.72 .03 581.08 0 580.03"/>
  </g>
  <rect class="cls-2" x="6.2" y="361.31" width="2.69" height="2.69"/>
  <rect class="cls-2" x="350.68" y="579.62" width="2.69" height="2.69"/>
</svg>