<?xml version="1.0" encoding="UTF-8"?>
<svg id="Layer_1" data-name="Layer 1" xmlns="http://www.w3.org/2000/svg" viewBox="0 0 346.04 372.21">
  <defs>
    <style>
      .cls-1 {
        fill: none;
        stroke: #ffed00;
        stroke-miterlimit: 10;
        stroke-width: .73px;
      }

      .cls-2 {
        fill: #fff;
      }
    </style>
  </defs>
  <g>
    <polyline class="cls-1" points="341.6 14.83 334.43 7.66 304.4 7.66 297.77 1.04 34.89 1.04 21.39 14.53 21.39 362.19 31.05 371.84 321.36 371.84 330.56 362.64 339.23 362.64"/>
    <polyline class="cls-1" points="334.85 16.18 338.32 19.64 338.32 101.52 333.5 106.34 333.5 143.39"/>
    <polygon class="cls-2" points="335.91 22.71 335.91 98.48 334.19 100.19 334.19 33.29 333.19 32.29 333.19 19.84 335.91 22.71"/>
    <polyline class="cls-1" points="331.94 141.27 331.94 146.62 336.58 151.27 345.67 151.27 345.67 229.22 341.72 233.17 341.72 355.63"/>
    <polygon class="cls-2" points="329.21 4.64 324.2 4.64 319.56 0 324.92 0 329.21 4.64"/>
    <polygon class="cls-2" points="322.24 4.64 317.22 4.64 312.58 0 317.95 0 322.24 4.64"/>
    <polygon class="cls-2" points="315.26 4.64 310.25 4.64 305.61 0 310.98 0 315.26 4.64"/>
    <polygon class="cls-2" points="297.47 5.66 295.12 3.32 232.72 3.32 231.27 4.76 159.48 4.76 155.52 .81 53.71 .81 51.19 3.34 37.25 3.34 32.66 7.93 35.81 7.93 37.13 6.61 58.49 6.61 60.18 4.93 146.13 4.93 147.48 6.28 167.47 6.28 168.15 5.59 220.83 5.59 297.47 5.66"/>
    <g>
      <rect class="cls-1" x="16.19" y="105.54" width="10.67" height="10.67" transform="translate(43.05 221.76) rotate(-180)"/>
      <rect class="cls-2" x="20.18" y="109.53" width="2.69" height="2.69" transform="translate(43.05 221.76) rotate(-180)"/>
    </g>
    <g>
      <rect class="cls-2" x="26.81" y="295.78" width="8.54" height="1.28"/>
      <polygon class="cls-2" points="26.81 300.52 26.81 303.92 35.31 303.92 35.34 300.52 26.81 300.52"/>
      <polygon class="cls-2" points="26.81 307.39 26.81 310.79 35.28 310.79 35.3 307.39 26.81 307.39"/>
      <polygon class="cls-2" points="26.81 314.25 26.81 317.66 35.25 317.66 35.26 314.25 26.81 314.25"/>
      <polygon class="cls-2" points="35.23 321.12 26.81 321.12 26.81 358.23 34.99 366.4 35.23 321.12"/>
    </g>
    <polygon class="cls-2" points="21.52 27.18 10.75 37.95 10.75 90.36 0 101.12 0 137.5 10.2 147.7 10.2 304.38 5.57 309.02 5.57 324.95 17.53 336.92 17.53 139.32 17.53 122.82 12.04 117.33 12.04 102.29 18.22 96.11 18.22 59.79 21.24 56.77 21.52 27.18"/>
  </g>
  <rect class="cls-2" x="337.8" y="361.31" width="2.69" height="2.69" transform="translate(678.3 725.31) rotate(-180)"/>
</svg>