<?xml version="1.0" encoding="UTF-8"?>
<svg id="Layer_1" data-name="Layer 1" xmlns="http://www.w3.org/2000/svg" viewBox="0 0 460.5 585.77">
  <defs>
    <style>
      .cls-1 {
        fill: none;
        stroke: #fff;
        stroke-miterlimit: 10;
        stroke-width: .73px;
      }

      .cls-2 {
        fill: #fff;
      }
    </style>
  </defs>
  <polygon class="cls-2" points="0 556.25 10.77 545.48 10.77 493.06 21.52 482.31 21.52 445.93 11.32 435.72 11.32 279.05 15.96 274.41 15.96 258.47 3.99 246.51 3.99 444.1 3.99 460.61 9.48 466.1 9.48 481.14 3.31 487.32 3.31 523.64 .29 526.66 0 556.25"/>
  <g>
    <path class="cls-2" d="m415.07,147.86H40.53V13.84h374.54v134.02Zm-373.81-.73h373.08s0-132.56,0-132.56H41.26s0,132.56,0,132.56Z"/>
    <path class="cls-2" d="m410.75,142.87H44.81v-11.13h365.93v11.13Zm-365.42-.51h364.91s0-10.1,0-10.1H45.33s0,10.1,0,10.1Z"/>
    <rect class="cls-2" x="46.94" y="134.32" width="120.55" height="5.97"/>
    <g>
      <g>
        <g>
          <polygon class="cls-2" points="447.06 22.16 449.33 22.16 446.81 17.84 444.54 17.84 447.06 22.16"/>
          <polygon class="cls-2" points="443.92 22.16 446.18 22.16 443.67 17.84 441.4 17.84 443.92 22.16"/>
          <polygon class="cls-2" points="440.77 22.16 443.04 22.16 440.52 17.84 438.25 17.84 440.77 22.16"/>
          <polygon class="cls-2" points="437.63 22.16 439.89 22.16 437.38 17.84 435.11 17.84 437.63 22.16"/>
          <polygon class="cls-2" points="434.48 22.16 436.75 22.16 434.23 17.84 431.96 17.84 434.48 22.16"/>
          <polygon class="cls-2" points="431.34 22.16 433.6 22.16 431.09 17.84 428.82 17.84 431.34 22.16"/>
          <polygon class="cls-2" points="428.19 22.16 430.46 22.16 427.94 17.84 425.67 17.84 428.19 22.16"/>
          <polygon class="cls-2" points="425.1 22.16 427.37 22.16 424.85 17.84 422.59 17.84 425.1 22.16"/>
        </g>
        <g>
          <g>
            <path class="cls-2" d="m449.09,147.57V23.19s-6.43,0-6.43,0v124.37s6.43,0,6.43,0Zm-.45-.44h-5.54V23.64h5.54v123.49Z"/>
            <rect class="cls-2" x="441.64" y="139.43" width="8.46" height="2.64" transform="translate(305.12 586.63) rotate(-90)"/>
          </g>
          <g>
            <path class="cls-2" d="m440.29,147.57V23.19s-6.43,0-6.43,0v124.37s6.43,0,6.43,0Zm-.45-.44h-5.54V23.64h5.54v123.49Z"/>
            <rect class="cls-2" x="423.41" y="130" width="27.33" height="2.64" transform="translate(305.75 568.39) rotate(-90)"/>
          </g>
          <g>
            <path class="cls-2" d="m431.49,147.57V23.19s-6.43,0-6.43,0v124.37s6.43,0,6.43,0Zm-.44-.44h-5.55V23.64h5.55v123.49Z"/>
            <rect class="cls-2" x="376.43" y="91.82" width="103.69" height="2.64" transform="translate(335.13 521.41) rotate(-90)"/>
          </g>
        </g>
        <rect class="cls-2" x="445.56" y="150.28" width=".64" height="4"/>
        <rect class="cls-2" x="436.75" y="150.28" width=".64" height="4"/>
        <rect class="cls-2" x="427.95" y="150.28" width=".64" height="4"/>
        <polygon class="cls-2" points="417.27 13.86 417.27 14.5 443.82 14.5 445 16.52 445.55 16.2 444.19 13.86 417.27 13.86"/>
        <polygon class="cls-2" points="430.3 13.86 430.3 14.5 437.83 14.5 439.01 16.52 439.56 16.2 438.2 13.86 430.3 13.86"/>
        <polygon class="cls-2" points="424.31 13.86 424.31 14.5 431.84 14.5 433.02 16.52 433.57 16.2 432.21 13.86 424.31 13.86"/>
        <polygon class="cls-2" points="418.32 13.86 418.32 14.5 425.85 14.5 427.02 16.52 427.58 16.2 426.22 13.86 418.32 13.86"/>
        <polygon class="cls-2" points="412.32 13.86 412.32 14.5 419.86 14.5 421.03 16.52 421.59 16.2 420.23 13.86 412.32 13.86"/>
      </g>
      <path class="cls-2" d="m427.16,154.62c0,.57.47,1.04,1.04,1.04s1.04-.47,1.04-1.04-.47-1.04-1.04-1.04-1.04.47-1.04,1.04Z"/>
      <path class="cls-2" d="m436.03,154.62c0,.57.47,1.04,1.04,1.04s1.04-.47,1.04-1.04-.47-1.04-1.04-1.04-1.04.47-1.04,1.04Z"/>
      <path class="cls-2" d="m444.89,154.62c0,.57.47,1.04,1.04,1.04s1.04-.47,1.04-1.04c0-.57-.47-1.04-1.04-1.04s-1.04.47-1.04,1.04Z"/>
    </g>
    <g>
      <polygon class="cls-2" points="206.27 15.65 220.87 15.65 223.03 13.49 222.84 13.3 220.76 15.38 206.27 15.38 206.27 15.65"/>
      <rect class="cls-2" x="66.84" y="13.76" width="28.06" height=".84" transform="translate(161.75 28.36) rotate(-180)"/>
      <rect class="cls-2" x="62.41" y="13.76" width="2.69" height=".84" transform="translate(127.52 28.36) rotate(-180)"/>
      <rect class="cls-2" x="57.78" y="13.76" width="2.69" height=".84" transform="translate(118.24 28.36) rotate(-180)"/>
    </g>
    <rect class="cls-2" x="36.81" y="150.27" width="2.72" height="2.72"/>
    <rect class="cls-2" x="36.81" y="131.51" width="2.72" height="2.72"/>
    <rect class="cls-2" x="36.81" y="56.57" width="2.72" height="58.89"/>
    <rect class="cls-2" x="36.81" y="37.8" width="2.72" height="2.72"/>
    <rect class="cls-2" x="36.81" y="19.03" width="2.72" height="2.72"/>
    <polygon class="cls-2" points="79.56 150.31 77.9 151.96 41.13 151.96 41.13 152.48 78.12 152.48 79.92 150.68 79.56 150.31"/>
    <polygon class="cls-2" points="134.7 147.5 137.01 149.81 286.36 149.81 288.63 152.07 400.41 152.07 405.08 147.41 134.7 147.5"/>
  </g>
  <polygon class="cls-2" points="1.52 162.68 11.16 153.04 11.16 39.78 13.74 37.21 13.74 7.93 1.52 7.93 1.52 162.68"/>
  <polyline class="cls-1" points="30.25 431.18 30.25 327.16 18.32 315.23 18.32 282.91 27.33 273.89 27.33 226.62 11.53 210.82 11.53 202.19 16.21 197.51 16.21 165.36 29.83 151.73 29.83 14.8"/>
  <polyline class="cls-1" points="10.76 584.15 17.05 577.86 17.05 559.24 23.94 552.35 23.94 499.34"/>
  <path class="cls-2" d="m439.11,497c.92-.18,8.03-8.03,8.03-8.03v-83.88s4.2-4.2,4.2-4.2v-10.03s-15.18,0-15.18,0v85.36s3.27,3.27,3.27,3.27v5.28s-2.39,2.39-2.39,2.39v7.55s2.08,2.28,2.08,2.28Z"/>
  <polyline class="cls-1" points="446.23 585.51 439.21 578.5 439.21 507.47 442.05 504.63"/>
  <polygon class="cls-2" points="23.6 546.4 27.3 542.7 27.3 518.96 30.41 518.96 30.41 511.39 23.99 504.98 23.99 513.94 20.63 517.31 20.63 532.12 23.84 535.34 23.6 546.4"/>
  <polygon class="cls-2" points="27.15 272.2 30.86 268.49 30.86 244.75 33.96 244.75 33.96 237.19 27.55 230.77 27.55 239.74 24.18 243.1 24.18 257.92 27.4 261.14 27.15 272.2"/>
  <g>
    <polyline class="cls-1" points="446.19 367.37 439.07 360.25 439.07 319.89 428.47 309.29 428.47 183.71 438.4 173.78 453.15 173.78 459.22 167.71 459.22 153.58"/>
    <polygon class="cls-2" points="428.47 208.74 432.17 205.04 432.17 186.37 440.87 177.67 445.81 177.67 445.81 173.64 442.43 170.27 434.18 170.27 434.18 178.19 428.57 183.8 428.47 208.74"/>
    <polyline class="cls-2" points="432.95 313.78 432.95 313.27 432.95 259.48 435.53 256.9 435.53 232.95 428.62 226.03 428.62 309.29"/>
    <polygon class="cls-2" points="429.36 300.87 424.69 296.2 424.69 240.97 421.06 237.33 421.06 232.31 430.54 232.31 429.36 300.87"/>
  </g>
  <polyline class="cls-2" points="24.55 5.22 27.35 8.03 37.4 8.03 45.43 0 184.74 0 191.95 7.21 363.28 7.21 366.45 4.04"/>
  <polygon class="cls-2" points="186.9 3.84 190.94 5.33 203.43 5.33 200.8 2.7 183.19 2.7 186.9 3.84"/>
  <polyline class="cls-1" points="367.98 6.74 379.78 6.74 383.06 3.46 442.66 3.46 450.33 11.12"/>
  <path class="cls-1" d="m454.61,163.2c-.09-1.55,0-134.02,0-134.02l2.6-2.6v-6.57s-2.71-2.71-2.71-2.71"/>
  <rect class="cls-2" x="448.23" y="9.12" width="2.69" height="2.69"/>
  <rect class="cls-2" x="453.36" y="16.32" width="2.69" height="2.69"/>
  <rect class="cls-2" x="453.28" y="161.67" width="2.69" height="2.69"/>
  <rect class="cls-2" x="457.81" y="152.23" width="2.69" height="2.69"/>
  <rect class="cls-2" x="445.12" y="366.39" width="2.69" height="2.69"/>
  <rect class="cls-2" x="22.52" y="498.02" width="2.69" height="2.69"/>
</svg>