<?xml version="1.0" encoding="UTF-8"?>
<svg id="Layer_1" data-name="Layer 1" xmlns="http://www.w3.org/2000/svg" xmlns:xlink="http://www.w3.org/1999/xlink" viewBox="0 0 365.89 188.32">
  <defs>
    <style>
      .cls-1 {
        fill: #fff;
      }

      .cls-2 {
        fill: none;
        stroke: #21F2F1;
        stroke-miterlimit: 10;
        stroke-width: .35px;
      }

      .cls-3 {
        fill: url(#_Безымянный_градиент_2);
      }

      .cls-4 {
        mask: url(#mask);
      }
    </style>
    <radialGradient id="_Безымянный_градиент_2" data-name="Безымянный градиент 2" cx="762.64" cy="4370.56" fx="762.64" fy="4370.56" r="40.97" gradientTransform="translate(-1280.18 -10252.97) scale(1.92 2.36)" gradientUnits="userSpaceOnUse">
      <stop offset="0" stop-color="#4c4c4c"/>
      <stop offset="1" stop-color="#000"/>
    </radialGradient>
    <mask id="mask" x="122.09" y="0" width="121.7" height="119.62" maskUnits="userSpaceOnUse">
      <rect class="cls-3" x="125.98" y="-1.01" width="113.93" height="121.64" transform="translate(242.75 -123.14) rotate(90)"/>
    </mask>
  </defs>
  <g class="cls-4">
    <g>
      <g>
        <g>
          <path class="cls-1" d="m237.33,5.46V.23h6.46v5.23h-6.46Zm.06-5.18v5.13h6.34V.28h-6.34Z"/>
          <path class="cls-1" d="m237.33,10.64v-5.23h6.46v5.23h-6.46Zm.06-5.18v5.13h6.34v-5.13h-6.34Z"/>
          <path class="cls-1" d="m237.33,15.82v-5.23h6.46v5.23h-6.46Zm.06-5.18v5.13h6.34v-5.13h-6.34Z"/>
          <path class="cls-1" d="m237.33,21v-5.23h6.46v5.23h-6.46Zm.06-5.18v5.13h6.34v-5.13h-6.34Z"/>
          <path class="cls-1" d="m237.33,26.18v-5.23h6.46v5.23h-6.46Zm.06-5.18v5.13h6.34v-5.13h-6.34Z"/>
          <path class="cls-1" d="m237.33,31.35v-5.23h6.46v5.23h-6.46Zm.06-5.18v5.13h6.34v-5.13h-6.34Z"/>
          <path class="cls-1" d="m237.33,36.53v-5.23h6.46v5.23h-6.46Zm.06-5.18v5.13h6.34v-5.13h-6.34Z"/>
          <path class="cls-1" d="m237.33,41.71v-5.23h6.46v5.23h-6.46Zm.06-5.18v5.13h6.34v-5.13h-6.34Z"/>
          <path class="cls-1" d="m237.33,46.89v-5.23h6.46v5.23h-6.46Zm.06-5.18v5.13h6.34v-5.13h-6.34Z"/>
          <path class="cls-1" d="m237.33,52.07v-5.23h6.46v5.23h-6.46Zm.06-5.18v5.13h6.34v-5.13h-6.34Z"/>
          <path class="cls-1" d="m237.33,57.25v-5.23h6.46v5.23h-6.46Zm.06-5.18v5.13h6.34v-5.13h-6.34Z"/>
          <path class="cls-1" d="m237.33,62.42v-5.23h6.46v5.23h-6.46Zm.06-5.18v5.13h6.34v-5.13h-6.34Z"/>
          <path class="cls-1" d="m237.33,67.6v-5.23h6.46v5.23h-6.46Zm.06-5.18v5.13h6.34v-5.13h-6.34Z"/>
          <path class="cls-1" d="m237.33,72.78v-5.23h6.46v5.23h-6.46Zm.06-5.18v5.13h6.34v-5.13h-6.34Z"/>
          <path class="cls-1" d="m237.33,77.96v-5.23h6.46v5.23h-6.46Zm.06-5.18v5.13h6.34v-5.13h-6.34Z"/>
          <path class="cls-1" d="m237.33,83.14v-5.23h6.46v5.23h-6.46Zm.06-5.18v5.13h6.34v-5.13h-6.34Z"/>
          <path class="cls-1" d="m237.33,88.32v-5.23h6.46v5.23h-6.46Zm.06-5.18v5.13h6.34v-5.13h-6.34Z"/>
          <path class="cls-1" d="m237.33,93.49v-5.23h6.46v5.23h-6.46Zm.06-5.18v5.13h6.34v-5.13h-6.34Z"/>
          <path class="cls-1" d="m237.33,98.67v-5.23h6.46v5.23h-6.46Zm.06-5.18v5.13h6.34v-5.13h-6.34Z"/>
          <path class="cls-1" d="m237.33,103.85v-5.23h6.46v5.23h-6.46Zm.06-5.18v5.13h6.34v-5.13h-6.34Z"/>
          <path class="cls-1" d="m237.33,109.03v-5.23h6.46v5.23h-6.46Zm.06-5.18v5.13h6.34v-5.13h-6.34Z"/>
          <path class="cls-1" d="m237.33,114.21v-5.23h6.46v5.23h-6.46Zm.06-5.18v5.13h6.34v-5.13h-6.34Z"/>
          <path class="cls-1" d="m237.33,119.39v-5.23h6.46v5.23h-6.46Zm.06-5.18v5.13h6.34v-5.13h-6.34Z"/>
        </g>
        <g>
          <path class="cls-1" d="m230.93,5.46V.23h6.46v5.23h-6.46Zm.06-5.18v5.13h6.34V.28h-6.34Z"/>
          <path class="cls-1" d="m230.93,10.64v-5.23h6.46v5.23h-6.46Zm.06-5.18v5.13h6.34v-5.13h-6.34Z"/>
          <path class="cls-1" d="m230.93,15.82v-5.23h6.46v5.23h-6.46Zm.06-5.18v5.13h6.34v-5.13h-6.34Z"/>
          <path class="cls-1" d="m230.93,21v-5.23h6.46v5.23h-6.46Zm.06-5.18v5.13h6.34v-5.13h-6.34Z"/>
          <path class="cls-1" d="m230.93,26.18v-5.23h6.46v5.23h-6.46Zm.06-5.18v5.13h6.34v-5.13h-6.34Z"/>
          <path class="cls-1" d="m230.93,31.35v-5.23h6.46v5.23h-6.46Zm.06-5.18v5.13h6.34v-5.13h-6.34Z"/>
          <path class="cls-1" d="m230.93,36.53v-5.23h6.46v5.23h-6.46Zm.06-5.18v5.13h6.34v-5.13h-6.34Z"/>
          <path class="cls-1" d="m230.93,41.71v-5.23h6.46v5.23h-6.46Zm.06-5.18v5.13h6.34v-5.13h-6.34Z"/>
          <path class="cls-1" d="m230.93,46.89v-5.23h6.46v5.23h-6.46Zm.06-5.18v5.13h6.34v-5.13h-6.34Z"/>
          <path class="cls-1" d="m230.93,52.07v-5.23h6.46v5.23h-6.46Zm.06-5.18v5.13h6.34v-5.13h-6.34Z"/>
          <path class="cls-1" d="m230.93,57.25v-5.23h6.46v5.23h-6.46Zm.06-5.18v5.13h6.34v-5.13h-6.34Z"/>
          <path class="cls-1" d="m230.93,62.42v-5.23h6.46v5.23h-6.46Zm.06-5.18v5.13h6.34v-5.13h-6.34Z"/>
          <path class="cls-1" d="m230.93,67.6v-5.23h6.46v5.23h-6.46Zm.06-5.18v5.13h6.34v-5.13h-6.34Z"/>
          <path class="cls-1" d="m230.93,72.78v-5.23h6.46v5.23h-6.46Zm.06-5.18v5.13h6.34v-5.13h-6.34Z"/>
          <path class="cls-1" d="m230.93,77.96v-5.23h6.46v5.23h-6.46Zm.06-5.18v5.13h6.34v-5.13h-6.34Z"/>
          <path class="cls-1" d="m230.93,83.14v-5.23h6.46v5.23h-6.46Zm.06-5.18v5.13h6.34v-5.13h-6.34Z"/>
          <path class="cls-1" d="m230.93,88.32v-5.23h6.46v5.23h-6.46Zm.06-5.18v5.13h6.34v-5.13h-6.34Z"/>
          <path class="cls-1" d="m230.93,93.49v-5.23h6.46v5.23h-6.46Zm.06-5.18v5.13h6.34v-5.13h-6.34Z"/>
          <path class="cls-1" d="m230.93,98.67v-5.23h6.46v5.23h-6.46Zm.06-5.18v5.13h6.34v-5.13h-6.34Z"/>
          <path class="cls-1" d="m230.93,103.85v-5.23h6.46v5.23h-6.46Zm.06-5.18v5.13h6.34v-5.13h-6.34Z"/>
          <path class="cls-1" d="m230.93,109.03v-5.23h6.46v5.23h-6.46Zm.06-5.18v5.13h6.34v-5.13h-6.34Z"/>
          <path class="cls-1" d="m230.93,114.21v-5.23h6.46v5.23h-6.46Zm.06-5.18v5.13h6.34v-5.13h-6.34Z"/>
          <path class="cls-1" d="m230.93,119.39v-5.23h6.46v5.23h-6.46Zm.06-5.18v5.13h6.34v-5.13h-6.34Z"/>
        </g>
        <g>
          <path class="cls-1" d="m224.53,5.46V.23h6.46v5.23h-6.46Zm.06-5.18v5.13h6.34V.28h-6.34Z"/>
          <path class="cls-1" d="m224.53,10.64v-5.23h6.46v5.23h-6.46Zm.06-5.18v5.13h6.34v-5.13h-6.34Z"/>
          <path class="cls-1" d="m224.53,15.82v-5.23h6.46v5.23h-6.46Zm.06-5.18v5.13h6.34v-5.13h-6.34Z"/>
          <path class="cls-1" d="m224.53,21v-5.23h6.46v5.23h-6.46Zm.06-5.18v5.13h6.34v-5.13h-6.34Z"/>
          <path class="cls-1" d="m224.53,26.18v-5.23h6.46v5.23h-6.46Zm.06-5.18v5.13h6.34v-5.13h-6.34Z"/>
          <path class="cls-1" d="m224.53,31.35v-5.23h6.46v5.23h-6.46Zm.06-5.18v5.13h6.34v-5.13h-6.34Z"/>
          <path class="cls-1" d="m224.53,36.53v-5.23h6.46v5.23h-6.46Zm.06-5.18v5.13h6.34v-5.13h-6.34Z"/>
          <path class="cls-1" d="m224.53,41.71v-5.23h6.46v5.23h-6.46Zm.06-5.18v5.13h6.34v-5.13h-6.34Z"/>
          <path class="cls-1" d="m224.53,46.89v-5.23h6.46v5.23h-6.46Zm.06-5.18v5.13h6.34v-5.13h-6.34Z"/>
          <path class="cls-1" d="m224.53,52.07v-5.23h6.46v5.23h-6.46Zm.06-5.18v5.13h6.34v-5.13h-6.34Z"/>
          <path class="cls-1" d="m224.53,57.25v-5.23h6.46v5.23h-6.46Zm.06-5.18v5.13h6.34v-5.13h-6.34Z"/>
          <path class="cls-1" d="m224.53,62.42v-5.23h6.46v5.23h-6.46Zm.06-5.18v5.13h6.34v-5.13h-6.34Z"/>
          <path class="cls-1" d="m224.53,67.6v-5.23h6.46v5.23h-6.46Zm.06-5.18v5.13h6.34v-5.13h-6.34Z"/>
          <path class="cls-1" d="m224.53,72.78v-5.23h6.46v5.23h-6.46Zm.06-5.18v5.13h6.34v-5.13h-6.34Z"/>
          <path class="cls-1" d="m224.53,77.96v-5.23h6.46v5.23h-6.46Zm.06-5.18v5.13h6.34v-5.13h-6.34Z"/>
          <path class="cls-1" d="m224.53,83.14v-5.23h6.46v5.23h-6.46Zm.06-5.18v5.13h6.34v-5.13h-6.34Z"/>
          <path class="cls-1" d="m224.53,88.32v-5.23h6.46v5.23h-6.46Zm.06-5.18v5.13h6.34v-5.13h-6.34Z"/>
          <path class="cls-1" d="m224.53,93.49v-5.23h6.46v5.23h-6.46Zm.06-5.18v5.13h6.34v-5.13h-6.34Z"/>
          <path class="cls-1" d="m224.53,98.67v-5.23h6.46v5.23h-6.46Zm.06-5.18v5.13h6.34v-5.13h-6.34Z"/>
          <path class="cls-1" d="m224.53,103.85v-5.23h6.46v5.23h-6.46Zm.06-5.18v5.13h6.34v-5.13h-6.34Z"/>
          <path class="cls-1" d="m224.53,109.03v-5.23h6.46v5.23h-6.46Zm.06-5.18v5.13h6.34v-5.13h-6.34Z"/>
          <path class="cls-1" d="m224.53,114.21v-5.23h6.46v5.23h-6.46Zm.06-5.18v5.13h6.34v-5.13h-6.34Z"/>
          <path class="cls-1" d="m224.53,119.39v-5.23h6.46v5.23h-6.46Zm.06-5.18v5.13h6.34v-5.13h-6.34Z"/>
        </g>
        <g>
          <path class="cls-1" d="m218.13,5.46V.23h6.46v5.23h-6.46Zm.06-5.18v5.13h6.34V.28h-6.34Z"/>
          <path class="cls-1" d="m218.13,10.64v-5.23h6.46v5.23h-6.46Zm.06-5.18v5.13h6.34v-5.13h-6.34Z"/>
          <path class="cls-1" d="m218.13,15.82v-5.23h6.46v5.23h-6.46Zm.06-5.18v5.13h6.34v-5.13h-6.34Z"/>
          <path class="cls-1" d="m218.13,21v-5.23h6.46v5.23h-6.46Zm.06-5.18v5.13h6.34v-5.13h-6.34Z"/>
          <path class="cls-1" d="m218.13,26.18v-5.23h6.46v5.23h-6.46Zm.06-5.18v5.13h6.34v-5.13h-6.34Z"/>
          <path class="cls-1" d="m218.13,31.35v-5.23h6.46v5.23h-6.46Zm.06-5.18v5.13h6.34v-5.13h-6.34Z"/>
          <path class="cls-1" d="m218.13,36.53v-5.23h6.46v5.23h-6.46Zm.06-5.18v5.13h6.34v-5.13h-6.34Z"/>
          <path class="cls-1" d="m218.13,41.71v-5.23h6.46v5.23h-6.46Zm.06-5.18v5.13h6.34v-5.13h-6.34Z"/>
          <path class="cls-1" d="m218.13,46.89v-5.23h6.46v5.23h-6.46Zm.06-5.18v5.13h6.34v-5.13h-6.34Z"/>
          <path class="cls-1" d="m218.13,52.07v-5.23h6.46v5.23h-6.46Zm.06-5.18v5.13h6.34v-5.13h-6.34Z"/>
          <path class="cls-1" d="m218.13,57.25v-5.23h6.46v5.23h-6.46Zm.06-5.18v5.13h6.34v-5.13h-6.34Z"/>
          <path class="cls-1" d="m218.13,62.42v-5.23h6.46v5.23h-6.46Zm.06-5.18v5.13h6.34v-5.13h-6.34Z"/>
          <path class="cls-1" d="m218.13,67.6v-5.23h6.46v5.23h-6.46Zm.06-5.18v5.13h6.34v-5.13h-6.34Z"/>
          <path class="cls-1" d="m218.13,72.78v-5.23h6.46v5.23h-6.46Zm.06-5.18v5.13h6.34v-5.13h-6.34Z"/>
          <path class="cls-1" d="m218.13,77.96v-5.23h6.46v5.23h-6.46Zm.06-5.18v5.13h6.34v-5.13h-6.34Z"/>
          <path class="cls-1" d="m218.13,83.14v-5.23h6.46v5.23h-6.46Zm.06-5.18v5.13h6.34v-5.13h-6.34Z"/>
          <path class="cls-1" d="m218.13,88.32v-5.23h6.46v5.23h-6.46Zm.06-5.18v5.13h6.34v-5.13h-6.34Z"/>
          <path class="cls-1" d="m218.13,93.49v-5.23h6.46v5.23h-6.46Zm.06-5.18v5.13h6.34v-5.13h-6.34Z"/>
          <path class="cls-1" d="m218.13,98.67v-5.23h6.46v5.23h-6.46Zm.06-5.18v5.13h6.34v-5.13h-6.34Z"/>
          <path class="cls-1" d="m218.13,103.85v-5.23h6.46v5.23h-6.46Zm.06-5.18v5.13h6.34v-5.13h-6.34Z"/>
          <path class="cls-1" d="m218.13,109.03v-5.23h6.46v5.23h-6.46Zm.06-5.18v5.13h6.34v-5.13h-6.34Z"/>
          <path class="cls-1" d="m218.13,114.21v-5.23h6.46v5.23h-6.46Zm.06-5.18v5.13h6.34v-5.13h-6.34Z"/>
          <path class="cls-1" d="m218.13,119.39v-5.23h6.46v5.23h-6.46Zm.06-5.18v5.13h6.34v-5.13h-6.34Z"/>
        </g>
        <g>
          <path class="cls-1" d="m211.72,5.46V.23h6.46v5.23h-6.46Zm.06-5.18v5.13h6.34V.28h-6.34Z"/>
          <path class="cls-1" d="m211.72,10.64v-5.23h6.46v5.23h-6.46Zm.06-5.18v5.13h6.34v-5.13h-6.34Z"/>
          <path class="cls-1" d="m211.72,15.82v-5.23h6.46v5.23h-6.46Zm.06-5.18v5.13h6.34v-5.13h-6.34Z"/>
          <path class="cls-1" d="m211.72,21v-5.23h6.46v5.23h-6.46Zm.06-5.18v5.13h6.34v-5.13h-6.34Z"/>
          <path class="cls-1" d="m211.72,26.18v-5.23h6.46v5.23h-6.46Zm.06-5.18v5.13h6.34v-5.13h-6.34Z"/>
          <path class="cls-1" d="m211.72,31.35v-5.23h6.46v5.23h-6.46Zm.06-5.18v5.13h6.34v-5.13h-6.34Z"/>
          <path class="cls-1" d="m211.72,36.53v-5.23h6.46v5.23h-6.46Zm.06-5.18v5.13h6.34v-5.13h-6.34Z"/>
          <path class="cls-1" d="m211.72,41.71v-5.23h6.46v5.23h-6.46Zm.06-5.18v5.13h6.34v-5.13h-6.34Z"/>
          <path class="cls-1" d="m211.72,46.89v-5.23h6.46v5.23h-6.46Zm.06-5.18v5.13h6.34v-5.13h-6.34Z"/>
          <path class="cls-1" d="m211.72,52.07v-5.23h6.46v5.23h-6.46Zm.06-5.18v5.13h6.34v-5.13h-6.34Z"/>
          <path class="cls-1" d="m211.72,57.25v-5.23h6.46v5.23h-6.46Zm.06-5.18v5.13h6.34v-5.13h-6.34Z"/>
          <path class="cls-1" d="m211.72,62.42v-5.23h6.46v5.23h-6.46Zm.06-5.18v5.13h6.34v-5.13h-6.34Z"/>
          <path class="cls-1" d="m211.72,67.6v-5.23h6.46v5.23h-6.46Zm.06-5.18v5.13h6.34v-5.13h-6.34Z"/>
          <path class="cls-1" d="m211.72,72.78v-5.23h6.46v5.23h-6.46Zm.06-5.18v5.13h6.34v-5.13h-6.34Z"/>
          <path class="cls-1" d="m211.72,77.96v-5.23h6.46v5.23h-6.46Zm.06-5.18v5.13h6.34v-5.13h-6.34Z"/>
          <path class="cls-1" d="m211.72,83.14v-5.23h6.46v5.23h-6.46Zm.06-5.18v5.13h6.34v-5.13h-6.34Z"/>
          <path class="cls-1" d="m211.72,88.32v-5.23h6.46v5.23h-6.46Zm.06-5.18v5.13h6.34v-5.13h-6.34Z"/>
          <path class="cls-1" d="m211.72,93.49v-5.23h6.46v5.23h-6.46Zm.06-5.18v5.13h6.34v-5.13h-6.34Z"/>
          <path class="cls-1" d="m211.72,98.67v-5.23h6.46v5.23h-6.46Zm.06-5.18v5.13h6.34v-5.13h-6.34Z"/>
          <path class="cls-1" d="m211.72,103.85v-5.23h6.46v5.23h-6.46Zm.06-5.18v5.13h6.34v-5.13h-6.34Z"/>
          <path class="cls-1" d="m211.72,109.03v-5.23h6.46v5.23h-6.46Zm.06-5.18v5.13h6.34v-5.13h-6.34Z"/>
          <path class="cls-1" d="m211.72,114.21v-5.23h6.46v5.23h-6.46Zm.06-5.18v5.13h6.34v-5.13h-6.34Z"/>
          <path class="cls-1" d="m211.72,119.39v-5.23h6.46v5.23h-6.46Zm.06-5.18v5.13h6.34v-5.13h-6.34Z"/>
        </g>
        <g>
          <path class="cls-1" d="m205.32,5.46V.23h6.46v5.23h-6.46Zm.06-5.18v5.13h6.34V.28h-6.34Z"/>
          <path class="cls-1" d="m205.32,10.64v-5.23h6.46v5.23h-6.46Zm.06-5.18v5.13h6.34v-5.13h-6.34Z"/>
          <path class="cls-1" d="m205.32,15.82v-5.23h6.46v5.23h-6.46Zm.06-5.18v5.13h6.34v-5.13h-6.34Z"/>
          <path class="cls-1" d="m205.32,21v-5.23h6.46v5.23h-6.46Zm.06-5.18v5.13h6.34v-5.13h-6.34Z"/>
          <path class="cls-1" d="m205.32,26.18v-5.23h6.46v5.23h-6.46Zm.06-5.18v5.13h6.34v-5.13h-6.34Z"/>
          <path class="cls-1" d="m205.32,31.35v-5.23h6.46v5.23h-6.46Zm.06-5.18v5.13h6.34v-5.13h-6.34Z"/>
          <path class="cls-1" d="m205.32,36.53v-5.23h6.46v5.23h-6.46Zm.06-5.18v5.13h6.34v-5.13h-6.34Z"/>
          <path class="cls-1" d="m205.32,41.71v-5.23h6.46v5.23h-6.46Zm.06-5.18v5.13h6.34v-5.13h-6.34Z"/>
          <path class="cls-1" d="m205.32,46.89v-5.23h6.46v5.23h-6.46Zm.06-5.18v5.13h6.34v-5.13h-6.34Z"/>
          <path class="cls-1" d="m205.32,52.07v-5.23h6.46v5.23h-6.46Zm.06-5.18v5.13h6.34v-5.13h-6.34Z"/>
          <path class="cls-1" d="m205.32,57.25v-5.23h6.46v5.23h-6.46Zm.06-5.18v5.13h6.34v-5.13h-6.34Z"/>
          <path class="cls-1" d="m205.32,62.42v-5.23h6.46v5.23h-6.46Zm.06-5.18v5.13h6.34v-5.13h-6.34Z"/>
          <path class="cls-1" d="m205.32,67.6v-5.23h6.46v5.23h-6.46Zm.06-5.18v5.13h6.34v-5.13h-6.34Z"/>
          <path class="cls-1" d="m205.32,72.78v-5.23h6.46v5.23h-6.46Zm.06-5.18v5.13h6.34v-5.13h-6.34Z"/>
          <path class="cls-1" d="m205.32,77.96v-5.23h6.46v5.23h-6.46Zm.06-5.18v5.13h6.34v-5.13h-6.34Z"/>
          <path class="cls-1" d="m205.32,83.14v-5.23h6.46v5.23h-6.46Zm.06-5.18v5.13h6.34v-5.13h-6.34Z"/>
          <path class="cls-1" d="m205.32,88.32v-5.23h6.46v5.23h-6.46Zm.06-5.18v5.13h6.34v-5.13h-6.34Z"/>
          <path class="cls-1" d="m205.32,93.49v-5.23h6.46v5.23h-6.46Zm.06-5.18v5.13h6.34v-5.13h-6.34Z"/>
          <path class="cls-1" d="m205.32,98.67v-5.23h6.46v5.23h-6.46Zm.06-5.18v5.13h6.34v-5.13h-6.34Z"/>
          <path class="cls-1" d="m205.32,103.85v-5.23h6.46v5.23h-6.46Zm.06-5.18v5.13h6.34v-5.13h-6.34Z"/>
          <path class="cls-1" d="m205.32,109.03v-5.23h6.46v5.23h-6.46Zm.06-5.18v5.13h6.34v-5.13h-6.34Z"/>
          <path class="cls-1" d="m205.32,114.21v-5.23h6.46v5.23h-6.46Zm.06-5.18v5.13h6.34v-5.13h-6.34Z"/>
          <path class="cls-1" d="m205.32,119.39v-5.23h6.46v5.23h-6.46Zm.06-5.18v5.13h6.34v-5.13h-6.34Z"/>
        </g>
        <g>
          <path class="cls-1" d="m198.92,5.46V.23h6.47v5.23h-6.47Zm.06-5.18v5.13h6.34V.28h-6.34Z"/>
          <path class="cls-1" d="m198.92,10.64v-5.23h6.47v5.23h-6.47Zm.06-5.18v5.13h6.34v-5.13h-6.34Z"/>
          <path class="cls-1" d="m198.92,15.82v-5.23h6.47v5.23h-6.47Zm.06-5.18v5.13h6.34v-5.13h-6.34Z"/>
          <path class="cls-1" d="m198.92,21v-5.23h6.47v5.23h-6.47Zm.06-5.18v5.13h6.34v-5.13h-6.34Z"/>
          <path class="cls-1" d="m198.92,26.18v-5.23h6.47v5.23h-6.47Zm.06-5.18v5.13h6.34v-5.13h-6.34Z"/>
          <path class="cls-1" d="m198.92,31.35v-5.23h6.47v5.23h-6.47Zm.06-5.18v5.13h6.34v-5.13h-6.34Z"/>
          <path class="cls-1" d="m198.92,36.53v-5.23h6.47v5.23h-6.47Zm.06-5.18v5.13h6.34v-5.13h-6.34Z"/>
          <path class="cls-1" d="m198.92,41.71v-5.23h6.47v5.23h-6.47Zm.06-5.18v5.13h6.34v-5.13h-6.34Z"/>
          <path class="cls-1" d="m198.92,46.89v-5.23h6.47v5.23h-6.47Zm.06-5.18v5.13h6.34v-5.13h-6.34Z"/>
          <path class="cls-1" d="m198.92,52.07v-5.23h6.47v5.23h-6.47Zm.06-5.18v5.13h6.34v-5.13h-6.34Z"/>
          <path class="cls-1" d="m198.92,57.25v-5.23h6.47v5.23h-6.47Zm.06-5.18v5.13h6.34v-5.13h-6.34Z"/>
          <path class="cls-1" d="m198.92,62.42v-5.23h6.47v5.23h-6.47Zm.06-5.18v5.13h6.34v-5.13h-6.34Z"/>
          <path class="cls-1" d="m198.92,67.6v-5.23h6.47v5.23h-6.47Zm.06-5.18v5.13h6.34v-5.13h-6.34Z"/>
          <path class="cls-1" d="m198.92,72.78v-5.23h6.47v5.23h-6.47Zm.06-5.18v5.13h6.34v-5.13h-6.34Z"/>
          <path class="cls-1" d="m198.92,77.96v-5.23h6.47v5.23h-6.47Zm.06-5.18v5.13h6.34v-5.13h-6.34Z"/>
          <path class="cls-1" d="m198.92,83.14v-5.23h6.47v5.23h-6.47Zm.06-5.18v5.13h6.34v-5.13h-6.34Z"/>
          <path class="cls-1" d="m198.92,88.32v-5.23h6.47v5.23h-6.47Zm.06-5.18v5.13h6.34v-5.13h-6.34Z"/>
          <path class="cls-1" d="m198.92,93.49v-5.23h6.47v5.23h-6.47Zm.06-5.18v5.13h6.34v-5.13h-6.34Z"/>
          <path class="cls-1" d="m198.92,98.67v-5.23h6.47v5.23h-6.47Zm.06-5.18v5.13h6.34v-5.13h-6.34Z"/>
          <path class="cls-1" d="m198.92,103.85v-5.23h6.47v5.23h-6.47Zm.06-5.18v5.13h6.34v-5.13h-6.34Z"/>
          <path class="cls-1" d="m198.92,109.03v-5.23h6.47v5.23h-6.47Zm.06-5.18v5.13h6.34v-5.13h-6.34Z"/>
          <path class="cls-1" d="m198.92,114.21v-5.23h6.47v5.23h-6.47Zm.06-5.18v5.13h6.34v-5.13h-6.34Z"/>
          <path class="cls-1" d="m198.92,119.39v-5.23h6.47v5.23h-6.47Zm.06-5.18v5.13h6.34v-5.13h-6.34Z"/>
        </g>
        <g>
          <path class="cls-1" d="m192.52,5.46V.23h6.47v5.23h-6.47Zm.06-5.18v5.13h6.34V.28h-6.34Z"/>
          <path class="cls-1" d="m192.52,10.64v-5.23h6.47v5.23h-6.47Zm.06-5.18v5.13h6.34v-5.13h-6.34Z"/>
          <path class="cls-1" d="m192.52,15.82v-5.23h6.47v5.23h-6.47Zm.06-5.18v5.13h6.34v-5.13h-6.34Z"/>
          <path class="cls-1" d="m192.52,21v-5.23h6.47v5.23h-6.47Zm.06-5.18v5.13h6.34v-5.13h-6.34Z"/>
          <path class="cls-1" d="m192.52,26.18v-5.23h6.47v5.23h-6.47Zm.06-5.18v5.13h6.34v-5.13h-6.34Z"/>
          <path class="cls-1" d="m192.52,31.35v-5.23h6.47v5.23h-6.47Zm.06-5.18v5.13h6.34v-5.13h-6.34Z"/>
          <path class="cls-1" d="m192.52,36.53v-5.23h6.47v5.23h-6.47Zm.06-5.18v5.13h6.34v-5.13h-6.34Z"/>
          <path class="cls-1" d="m192.52,41.71v-5.23h6.47v5.23h-6.47Zm.06-5.18v5.13h6.34v-5.13h-6.34Z"/>
          <path class="cls-1" d="m192.52,46.89v-5.23h6.47v5.23h-6.47Zm.06-5.18v5.13h6.34v-5.13h-6.34Z"/>
          <path class="cls-1" d="m192.52,52.07v-5.23h6.47v5.23h-6.47Zm.06-5.18v5.13h6.34v-5.13h-6.34Z"/>
          <path class="cls-1" d="m192.52,57.25v-5.23h6.47v5.23h-6.47Zm.06-5.18v5.13h6.34v-5.13h-6.34Z"/>
          <path class="cls-1" d="m192.52,62.42v-5.23h6.47v5.23h-6.47Zm.06-5.18v5.13h6.34v-5.13h-6.34Z"/>
          <path class="cls-1" d="m192.52,67.6v-5.23h6.47v5.23h-6.47Zm.06-5.18v5.13h6.34v-5.13h-6.34Z"/>
          <path class="cls-1" d="m192.52,72.78v-5.23h6.47v5.23h-6.47Zm.06-5.18v5.13h6.34v-5.13h-6.34Z"/>
          <path class="cls-1" d="m192.52,77.96v-5.23h6.47v5.23h-6.47Zm.06-5.18v5.13h6.34v-5.13h-6.34Z"/>
          <path class="cls-1" d="m192.52,83.14v-5.23h6.47v5.23h-6.47Zm.06-5.18v5.13h6.34v-5.13h-6.34Z"/>
          <path class="cls-1" d="m192.52,88.32v-5.23h6.47v5.23h-6.47Zm.06-5.18v5.13h6.34v-5.13h-6.34Z"/>
          <path class="cls-1" d="m192.52,93.49v-5.23h6.47v5.23h-6.47Zm.06-5.18v5.13h6.34v-5.13h-6.34Z"/>
          <path class="cls-1" d="m192.52,98.67v-5.23h6.47v5.23h-6.47Zm.06-5.18v5.13h6.34v-5.13h-6.34Z"/>
          <path class="cls-1" d="m192.52,103.85v-5.23h6.47v5.23h-6.47Zm.06-5.18v5.13h6.34v-5.13h-6.34Z"/>
          <path class="cls-1" d="m192.52,109.03v-5.23h6.47v5.23h-6.47Zm.06-5.18v5.13h6.34v-5.13h-6.34Z"/>
          <path class="cls-1" d="m192.52,114.21v-5.23h6.47v5.23h-6.47Zm.06-5.18v5.13h6.34v-5.13h-6.34Z"/>
          <path class="cls-1" d="m192.52,119.39v-5.23h6.47v5.23h-6.47Zm.06-5.18v5.13h6.34v-5.13h-6.34Z"/>
        </g>
        <g>
          <path class="cls-1" d="m186.11,5.46V.23h6.46v5.23h-6.46Zm.06-5.18v5.13h6.34V.28h-6.34Z"/>
          <path class="cls-1" d="m186.11,10.64v-5.23h6.46v5.23h-6.46Zm.06-5.18v5.13h6.34v-5.13h-6.34Z"/>
          <path class="cls-1" d="m186.11,15.82v-5.23h6.46v5.23h-6.46Zm.06-5.18v5.13h6.34v-5.13h-6.34Z"/>
          <path class="cls-1" d="m186.11,21v-5.23h6.46v5.23h-6.46Zm.06-5.18v5.13h6.34v-5.13h-6.34Z"/>
          <path class="cls-1" d="m186.11,26.18v-5.23h6.46v5.23h-6.46Zm.06-5.18v5.13h6.34v-5.13h-6.34Z"/>
          <path class="cls-1" d="m186.11,31.35v-5.23h6.46v5.23h-6.46Zm.06-5.18v5.13h6.34v-5.13h-6.34Z"/>
          <path class="cls-1" d="m186.11,36.53v-5.23h6.46v5.23h-6.46Zm.06-5.18v5.13h6.34v-5.13h-6.34Z"/>
          <path class="cls-1" d="m186.11,41.71v-5.23h6.46v5.23h-6.46Zm.06-5.18v5.13h6.34v-5.13h-6.34Z"/>
          <path class="cls-1" d="m186.11,46.89v-5.23h6.46v5.23h-6.46Zm.06-5.18v5.13h6.34v-5.13h-6.34Z"/>
          <path class="cls-1" d="m186.11,52.07v-5.23h6.46v5.23h-6.46Zm.06-5.18v5.13h6.34v-5.13h-6.34Z"/>
          <path class="cls-1" d="m186.11,57.25v-5.23h6.46v5.23h-6.46Zm.06-5.18v5.13h6.34v-5.13h-6.34Z"/>
          <path class="cls-1" d="m186.11,62.42v-5.23h6.46v5.23h-6.46Zm.06-5.18v5.13h6.34v-5.13h-6.34Z"/>
          <path class="cls-1" d="m186.11,67.6v-5.23h6.46v5.23h-6.46Zm.06-5.18v5.13h6.34v-5.13h-6.34Z"/>
          <path class="cls-1" d="m186.11,72.78v-5.23h6.46v5.23h-6.46Zm.06-5.18v5.13h6.34v-5.13h-6.34Z"/>
          <path class="cls-1" d="m186.11,77.96v-5.23h6.46v5.23h-6.46Zm.06-5.18v5.13h6.34v-5.13h-6.34Z"/>
          <path class="cls-1" d="m186.11,83.14v-5.23h6.46v5.23h-6.46Zm.06-5.18v5.13h6.34v-5.13h-6.34Z"/>
          <path class="cls-1" d="m186.11,88.32v-5.23h6.46v5.23h-6.46Zm.06-5.18v5.13h6.34v-5.13h-6.34Z"/>
          <path class="cls-1" d="m186.11,93.49v-5.23h6.46v5.23h-6.46Zm.06-5.18v5.13h6.34v-5.13h-6.34Z"/>
          <path class="cls-1" d="m186.11,98.67v-5.23h6.46v5.23h-6.46Zm.06-5.18v5.13h6.34v-5.13h-6.34Z"/>
          <path class="cls-1" d="m186.11,103.85v-5.23h6.46v5.23h-6.46Zm.06-5.18v5.13h6.34v-5.13h-6.34Z"/>
          <path class="cls-1" d="m186.11,109.03v-5.23h6.46v5.23h-6.46Zm.06-5.18v5.13h6.34v-5.13h-6.34Z"/>
          <path class="cls-1" d="m186.11,114.21v-5.23h6.46v5.23h-6.46Zm.06-5.18v5.13h6.34v-5.13h-6.34Z"/>
          <path class="cls-1" d="m186.11,119.39v-5.23h6.46v5.23h-6.46Zm.06-5.18v5.13h6.34v-5.13h-6.34Z"/>
        </g>
        <g>
          <path class="cls-1" d="m179.71,5.46V.23h6.47v5.23h-6.47Zm.06-5.18v5.13h6.34V.28h-6.34Z"/>
          <path class="cls-1" d="m179.71,10.64v-5.23h6.47v5.23h-6.47Zm.06-5.18v5.13h6.34v-5.13h-6.34Z"/>
          <path class="cls-1" d="m179.71,15.82v-5.23h6.47v5.23h-6.47Zm.06-5.18v5.13h6.34v-5.13h-6.34Z"/>
          <path class="cls-1" d="m179.71,21v-5.23h6.47v5.23h-6.47Zm.06-5.18v5.13h6.34v-5.13h-6.34Z"/>
          <path class="cls-1" d="m179.71,26.18v-5.23h6.47v5.23h-6.47Zm.06-5.18v5.13h6.34v-5.13h-6.34Z"/>
          <path class="cls-1" d="m179.71,31.35v-5.23h6.47v5.23h-6.47Zm.06-5.18v5.13h6.34v-5.13h-6.34Z"/>
          <path class="cls-1" d="m179.71,36.53v-5.23h6.47v5.23h-6.47Zm.06-5.18v5.13h6.34v-5.13h-6.34Z"/>
          <path class="cls-1" d="m179.71,41.71v-5.23h6.47v5.23h-6.47Zm.06-5.18v5.13h6.34v-5.13h-6.34Z"/>
          <path class="cls-1" d="m179.71,46.89v-5.23h6.47v5.23h-6.47Zm.06-5.18v5.13h6.34v-5.13h-6.34Z"/>
          <path class="cls-1" d="m179.71,52.07v-5.23h6.47v5.23h-6.47Zm.06-5.18v5.13h6.34v-5.13h-6.34Z"/>
          <path class="cls-1" d="m179.71,57.25v-5.23h6.47v5.23h-6.47Zm.06-5.18v5.13h6.34v-5.13h-6.34Z"/>
          <path class="cls-1" d="m179.71,62.42v-5.23h6.47v5.23h-6.47Zm.06-5.18v5.13h6.34v-5.13h-6.34Z"/>
          <path class="cls-1" d="m179.71,67.6v-5.23h6.47v5.23h-6.47Zm.06-5.18v5.13h6.34v-5.13h-6.34Z"/>
          <path class="cls-1" d="m179.71,72.78v-5.23h6.47v5.23h-6.47Zm.06-5.18v5.13h6.34v-5.13h-6.34Z"/>
          <path class="cls-1" d="m179.71,77.96v-5.23h6.47v5.23h-6.47Zm.06-5.18v5.13h6.34v-5.13h-6.34Z"/>
          <path class="cls-1" d="m179.71,83.14v-5.23h6.47v5.23h-6.47Zm.06-5.18v5.13h6.34v-5.13h-6.34Z"/>
          <path class="cls-1" d="m179.71,88.32v-5.23h6.47v5.23h-6.47Zm.06-5.18v5.13h6.34v-5.13h-6.34Z"/>
          <path class="cls-1" d="m179.71,93.49v-5.23h6.47v5.23h-6.47Zm.06-5.18v5.13h6.34v-5.13h-6.34Z"/>
          <path class="cls-1" d="m179.71,98.67v-5.23h6.47v5.23h-6.47Zm.06-5.18v5.13h6.34v-5.13h-6.34Z"/>
          <path class="cls-1" d="m179.71,103.85v-5.23h6.47v5.23h-6.47Zm.06-5.18v5.13h6.34v-5.13h-6.34Z"/>
          <path class="cls-1" d="m179.71,109.03v-5.23h6.47v5.23h-6.47Zm.06-5.18v5.13h6.34v-5.13h-6.34Z"/>
          <path class="cls-1" d="m179.71,114.21v-5.23h6.47v5.23h-6.47Zm.06-5.18v5.13h6.34v-5.13h-6.34Z"/>
          <path class="cls-1" d="m179.71,119.39v-5.23h6.47v5.23h-6.47Zm.06-5.18v5.13h6.34v-5.13h-6.34Z"/>
        </g>
        <g>
          <path class="cls-1" d="m173.31,5.46V.23h6.46v5.23h-6.46Zm.06-5.18v5.13h6.34V.28h-6.34Z"/>
          <path class="cls-1" d="m173.31,10.64v-5.23h6.46v5.23h-6.46Zm.06-5.18v5.13h6.34v-5.13h-6.34Z"/>
          <path class="cls-1" d="m173.31,15.82v-5.23h6.46v5.23h-6.46Zm.06-5.18v5.13h6.34v-5.13h-6.34Z"/>
          <path class="cls-1" d="m173.31,21v-5.23h6.46v5.23h-6.46Zm.06-5.18v5.13h6.34v-5.13h-6.34Z"/>
          <path class="cls-1" d="m173.31,26.18v-5.23h6.46v5.23h-6.46Zm.06-5.18v5.13h6.34v-5.13h-6.34Z"/>
          <path class="cls-1" d="m173.31,31.35v-5.23h6.46v5.23h-6.46Zm.06-5.18v5.13h6.34v-5.13h-6.34Z"/>
          <path class="cls-1" d="m173.31,36.53v-5.23h6.46v5.23h-6.46Zm.06-5.18v5.13h6.34v-5.13h-6.34Z"/>
          <path class="cls-1" d="m173.31,41.71v-5.23h6.46v5.23h-6.46Zm.06-5.18v5.13h6.34v-5.13h-6.34Z"/>
          <path class="cls-1" d="m173.31,46.89v-5.23h6.46v5.23h-6.46Zm.06-5.18v5.13h6.34v-5.13h-6.34Z"/>
          <path class="cls-1" d="m173.31,52.07v-5.23h6.46v5.23h-6.46Zm.06-5.18v5.13h6.34v-5.13h-6.34Z"/>
          <path class="cls-1" d="m173.31,57.25v-5.23h6.46v5.23h-6.46Zm.06-5.18v5.13h6.34v-5.13h-6.34Z"/>
          <path class="cls-1" d="m173.31,62.42v-5.23h6.46v5.23h-6.46Zm.06-5.18v5.13h6.34v-5.13h-6.34Z"/>
          <path class="cls-1" d="m173.31,67.6v-5.23h6.46v5.23h-6.46Zm.06-5.18v5.13h6.34v-5.13h-6.34Z"/>
          <path class="cls-1" d="m173.31,72.78v-5.23h6.46v5.23h-6.46Zm.06-5.18v5.13h6.34v-5.13h-6.34Z"/>
          <path class="cls-1" d="m173.31,77.96v-5.23h6.46v5.23h-6.46Zm.06-5.18v5.13h6.34v-5.13h-6.34Z"/>
          <path class="cls-1" d="m173.31,83.14v-5.23h6.46v5.23h-6.46Zm.06-5.18v5.13h6.34v-5.13h-6.34Z"/>
          <path class="cls-1" d="m173.31,88.32v-5.23h6.46v5.23h-6.46Zm.06-5.18v5.13h6.34v-5.13h-6.34Z"/>
          <path class="cls-1" d="m173.31,93.49v-5.23h6.46v5.23h-6.46Zm.06-5.18v5.13h6.34v-5.13h-6.34Z"/>
          <path class="cls-1" d="m173.31,98.67v-5.23h6.46v5.23h-6.46Zm.06-5.18v5.13h6.34v-5.13h-6.34Z"/>
          <path class="cls-1" d="m173.31,103.85v-5.23h6.46v5.23h-6.46Zm.06-5.18v5.13h6.34v-5.13h-6.34Z"/>
          <path class="cls-1" d="m173.31,109.03v-5.23h6.46v5.23h-6.46Zm.06-5.18v5.13h6.34v-5.13h-6.34Z"/>
          <path class="cls-1" d="m173.31,114.21v-5.23h6.46v5.23h-6.46Zm.06-5.18v5.13h6.34v-5.13h-6.34Z"/>
          <path class="cls-1" d="m173.31,119.39v-5.23h6.46v5.23h-6.46Zm.06-5.18v5.13h6.34v-5.13h-6.34Z"/>
        </g>
        <g>
          <path class="cls-1" d="m166.91,5.46V.23h6.47v5.23h-6.47Zm.06-5.18v5.13h6.34V.28h-6.34Z"/>
          <path class="cls-1" d="m166.91,10.64v-5.23h6.47v5.23h-6.47Zm.06-5.18v5.13h6.34v-5.13h-6.34Z"/>
          <path class="cls-1" d="m166.91,15.82v-5.23h6.47v5.23h-6.47Zm.06-5.18v5.13h6.34v-5.13h-6.34Z"/>
          <path class="cls-1" d="m166.91,21v-5.23h6.47v5.23h-6.47Zm.06-5.18v5.13h6.34v-5.13h-6.34Z"/>
          <path class="cls-1" d="m166.91,26.18v-5.23h6.47v5.23h-6.47Zm.06-5.18v5.13h6.34v-5.13h-6.34Z"/>
          <path class="cls-1" d="m166.91,31.35v-5.23h6.47v5.23h-6.47Zm.06-5.18v5.13h6.34v-5.13h-6.34Z"/>
          <path class="cls-1" d="m166.91,36.53v-5.23h6.47v5.23h-6.47Zm.06-5.18v5.13h6.34v-5.13h-6.34Z"/>
          <path class="cls-1" d="m166.91,41.71v-5.23h6.47v5.23h-6.47Zm.06-5.18v5.13h6.34v-5.13h-6.34Z"/>
          <path class="cls-1" d="m166.91,46.89v-5.23h6.47v5.23h-6.47Zm.06-5.18v5.13h6.34v-5.13h-6.34Z"/>
          <path class="cls-1" d="m166.91,52.07v-5.23h6.47v5.23h-6.47Zm.06-5.18v5.13h6.34v-5.13h-6.34Z"/>
          <path class="cls-1" d="m166.91,57.25v-5.23h6.47v5.23h-6.47Zm.06-5.18v5.13h6.34v-5.13h-6.34Z"/>
          <path class="cls-1" d="m166.91,62.42v-5.23h6.47v5.23h-6.47Zm.06-5.18v5.13h6.34v-5.13h-6.34Z"/>
          <path class="cls-1" d="m166.91,67.6v-5.23h6.47v5.23h-6.47Zm.06-5.18v5.13h6.34v-5.13h-6.34Z"/>
          <path class="cls-1" d="m166.91,72.78v-5.23h6.47v5.23h-6.47Zm.06-5.18v5.13h6.34v-5.13h-6.34Z"/>
          <path class="cls-1" d="m166.91,77.96v-5.23h6.47v5.23h-6.47Zm.06-5.18v5.13h6.34v-5.13h-6.34Z"/>
          <path class="cls-1" d="m166.91,83.14v-5.23h6.47v5.23h-6.47Zm.06-5.18v5.13h6.34v-5.13h-6.34Z"/>
          <path class="cls-1" d="m166.91,88.32v-5.23h6.47v5.23h-6.47Zm.06-5.18v5.13h6.34v-5.13h-6.34Z"/>
          <path class="cls-1" d="m166.91,93.49v-5.23h6.47v5.23h-6.47Zm.06-5.18v5.13h6.34v-5.13h-6.34Z"/>
          <path class="cls-1" d="m166.91,98.67v-5.23h6.47v5.23h-6.47Zm.06-5.18v5.13h6.34v-5.13h-6.34Z"/>
          <path class="cls-1" d="m166.91,103.85v-5.23h6.47v5.23h-6.47Zm.06-5.18v5.13h6.34v-5.13h-6.34Z"/>
          <path class="cls-1" d="m166.91,109.03v-5.23h6.47v5.23h-6.47Zm.06-5.18v5.13h6.34v-5.13h-6.34Z"/>
          <path class="cls-1" d="m166.91,114.21v-5.23h6.47v5.23h-6.47Zm.06-5.18v5.13h6.34v-5.13h-6.34Z"/>
          <path class="cls-1" d="m166.91,119.39v-5.23h6.47v5.23h-6.47Zm.06-5.18v5.13h6.34v-5.13h-6.34Z"/>
        </g>
        <g>
          <path class="cls-1" d="m160.51,5.46V.23h6.47v5.23h-6.47Zm.06-5.18v5.13h6.34V.28h-6.34Z"/>
          <path class="cls-1" d="m160.51,10.64v-5.23h6.47v5.23h-6.47Zm.06-5.18v5.13h6.34v-5.13h-6.34Z"/>
          <path class="cls-1" d="m160.51,15.82v-5.23h6.47v5.23h-6.47Zm.06-5.18v5.13h6.34v-5.13h-6.34Z"/>
          <path class="cls-1" d="m160.51,21v-5.23h6.47v5.23h-6.47Zm.06-5.18v5.13h6.34v-5.13h-6.34Z"/>
          <path class="cls-1" d="m160.51,26.18v-5.23h6.47v5.23h-6.47Zm.06-5.18v5.13h6.34v-5.13h-6.34Z"/>
          <path class="cls-1" d="m160.51,31.35v-5.23h6.47v5.23h-6.47Zm.06-5.18v5.13h6.34v-5.13h-6.34Z"/>
          <path class="cls-1" d="m160.51,36.53v-5.23h6.47v5.23h-6.47Zm.06-5.18v5.13h6.34v-5.13h-6.34Z"/>
          <path class="cls-1" d="m160.51,41.71v-5.23h6.47v5.23h-6.47Zm.06-5.18v5.13h6.34v-5.13h-6.34Z"/>
          <path class="cls-1" d="m160.51,46.89v-5.23h6.47v5.23h-6.47Zm.06-5.18v5.13h6.34v-5.13h-6.34Z"/>
          <path class="cls-1" d="m160.51,52.07v-5.23h6.47v5.23h-6.47Zm.06-5.18v5.13h6.34v-5.13h-6.34Z"/>
          <path class="cls-1" d="m160.51,57.25v-5.23h6.47v5.23h-6.47Zm.06-5.18v5.13h6.34v-5.13h-6.34Z"/>
          <path class="cls-1" d="m160.51,62.42v-5.23h6.47v5.23h-6.47Zm.06-5.18v5.13h6.34v-5.13h-6.34Z"/>
          <path class="cls-1" d="m160.51,67.6v-5.23h6.47v5.23h-6.47Zm.06-5.18v5.13h6.34v-5.13h-6.34Z"/>
          <path class="cls-1" d="m160.51,72.78v-5.23h6.47v5.23h-6.47Zm.06-5.18v5.13h6.34v-5.13h-6.34Z"/>
          <path class="cls-1" d="m160.51,77.96v-5.23h6.47v5.23h-6.47Zm.06-5.18v5.13h6.34v-5.13h-6.34Z"/>
          <path class="cls-1" d="m160.51,83.14v-5.23h6.47v5.23h-6.47Zm.06-5.18v5.13h6.34v-5.13h-6.34Z"/>
          <path class="cls-1" d="m160.51,88.32v-5.23h6.47v5.23h-6.47Zm.06-5.18v5.13h6.34v-5.13h-6.34Z"/>
          <path class="cls-1" d="m160.51,93.49v-5.23h6.47v5.23h-6.47Zm.06-5.18v5.13h6.34v-5.13h-6.34Z"/>
          <path class="cls-1" d="m160.51,98.67v-5.23h6.47v5.23h-6.47Zm.06-5.18v5.13h6.34v-5.13h-6.34Z"/>
          <path class="cls-1" d="m160.51,103.85v-5.23h6.47v5.23h-6.47Zm.06-5.18v5.13h6.34v-5.13h-6.34Z"/>
          <path class="cls-1" d="m160.51,109.03v-5.23h6.47v5.23h-6.47Zm.06-5.18v5.13h6.34v-5.13h-6.34Z"/>
          <path class="cls-1" d="m160.51,114.21v-5.23h6.47v5.23h-6.47Zm.06-5.18v5.13h6.34v-5.13h-6.34Z"/>
          <path class="cls-1" d="m160.51,119.39v-5.23h6.47v5.23h-6.47Zm.06-5.18v5.13h6.34v-5.13h-6.34Z"/>
        </g>
        <g>
          <path class="cls-1" d="m154.1,5.46V.23h6.46v5.23h-6.46Zm.06-5.18v5.13h6.34V.28h-6.34Z"/>
          <path class="cls-1" d="m154.1,10.64v-5.23h6.46v5.23h-6.46Zm.06-5.18v5.13h6.34v-5.13h-6.34Z"/>
          <path class="cls-1" d="m154.1,15.82v-5.23h6.46v5.23h-6.46Zm.06-5.18v5.13h6.34v-5.13h-6.34Z"/>
          <path class="cls-1" d="m154.1,21v-5.23h6.46v5.23h-6.46Zm.06-5.18v5.13h6.34v-5.13h-6.34Z"/>
          <path class="cls-1" d="m154.1,26.18v-5.23h6.46v5.23h-6.46Zm.06-5.18v5.13h6.34v-5.13h-6.34Z"/>
          <path class="cls-1" d="m154.1,31.35v-5.23h6.46v5.23h-6.46Zm.06-5.18v5.13h6.34v-5.13h-6.34Z"/>
          <path class="cls-1" d="m154.1,36.53v-5.23h6.46v5.23h-6.46Zm.06-5.18v5.13h6.34v-5.13h-6.34Z"/>
          <path class="cls-1" d="m154.1,41.71v-5.23h6.46v5.23h-6.46Zm.06-5.18v5.13h6.34v-5.13h-6.34Z"/>
          <path class="cls-1" d="m154.1,46.89v-5.23h6.46v5.23h-6.46Zm.06-5.18v5.13h6.34v-5.13h-6.34Z"/>
          <path class="cls-1" d="m154.1,52.07v-5.23h6.46v5.23h-6.46Zm.06-5.18v5.13h6.34v-5.13h-6.34Z"/>
          <path class="cls-1" d="m154.1,57.25v-5.23h6.46v5.23h-6.46Zm.06-5.18v5.13h6.34v-5.13h-6.34Z"/>
          <path class="cls-1" d="m154.1,62.42v-5.23h6.46v5.23h-6.46Zm.06-5.18v5.13h6.34v-5.13h-6.34Z"/>
          <path class="cls-1" d="m154.1,67.6v-5.23h6.46v5.23h-6.46Zm.06-5.18v5.13h6.34v-5.13h-6.34Z"/>
          <path class="cls-1" d="m154.1,72.78v-5.23h6.46v5.23h-6.46Zm.06-5.18v5.13h6.34v-5.13h-6.34Z"/>
          <path class="cls-1" d="m154.1,77.96v-5.23h6.46v5.23h-6.46Zm.06-5.18v5.13h6.34v-5.13h-6.34Z"/>
          <path class="cls-1" d="m154.1,83.14v-5.23h6.46v5.23h-6.46Zm.06-5.18v5.13h6.34v-5.13h-6.34Z"/>
          <path class="cls-1" d="m154.1,88.32v-5.23h6.46v5.23h-6.46Zm.06-5.18v5.13h6.34v-5.13h-6.34Z"/>
          <path class="cls-1" d="m154.1,93.49v-5.23h6.46v5.23h-6.46Zm.06-5.18v5.13h6.34v-5.13h-6.34Z"/>
          <path class="cls-1" d="m154.1,98.67v-5.23h6.46v5.23h-6.46Zm.06-5.18v5.13h6.34v-5.13h-6.34Z"/>
          <path class="cls-1" d="m154.1,103.85v-5.23h6.46v5.23h-6.46Zm.06-5.18v5.13h6.34v-5.13h-6.34Z"/>
          <path class="cls-1" d="m154.1,109.03v-5.23h6.46v5.23h-6.46Zm.06-5.18v5.13h6.34v-5.13h-6.34Z"/>
          <path class="cls-1" d="m154.1,114.21v-5.23h6.46v5.23h-6.46Zm.06-5.18v5.13h6.34v-5.13h-6.34Z"/>
          <path class="cls-1" d="m154.1,119.39v-5.23h6.46v5.23h-6.46Zm.06-5.18v5.13h6.34v-5.13h-6.34Z"/>
        </g>
        <g>
          <path class="cls-1" d="m147.7,5.46V.23h6.47v5.23h-6.47Zm.06-5.18v5.13h6.34V.28h-6.34Z"/>
          <path class="cls-1" d="m147.7,10.64v-5.23h6.47v5.23h-6.47Zm.06-5.18v5.13h6.34v-5.13h-6.34Z"/>
          <path class="cls-1" d="m147.7,15.82v-5.23h6.47v5.23h-6.47Zm.06-5.18v5.13h6.34v-5.13h-6.34Z"/>
          <path class="cls-1" d="m147.7,21v-5.23h6.47v5.23h-6.47Zm.06-5.18v5.13h6.34v-5.13h-6.34Z"/>
          <path class="cls-1" d="m147.7,26.18v-5.23h6.47v5.23h-6.47Zm.06-5.18v5.13h6.34v-5.13h-6.34Z"/>
          <path class="cls-1" d="m147.7,31.35v-5.23h6.47v5.23h-6.47Zm.06-5.18v5.13h6.34v-5.13h-6.34Z"/>
          <path class="cls-1" d="m147.7,36.53v-5.23h6.47v5.23h-6.47Zm.06-5.18v5.13h6.34v-5.13h-6.34Z"/>
          <path class="cls-1" d="m147.7,41.71v-5.23h6.47v5.23h-6.47Zm.06-5.18v5.13h6.34v-5.13h-6.34Z"/>
          <path class="cls-1" d="m147.7,46.89v-5.23h6.47v5.23h-6.47Zm.06-5.18v5.13h6.34v-5.13h-6.34Z"/>
          <path class="cls-1" d="m147.7,52.07v-5.23h6.47v5.23h-6.47Zm.06-5.18v5.13h6.34v-5.13h-6.34Z"/>
          <path class="cls-1" d="m147.7,57.25v-5.23h6.47v5.23h-6.47Zm.06-5.18v5.13h6.34v-5.13h-6.34Z"/>
          <path class="cls-1" d="m147.7,62.42v-5.23h6.47v5.23h-6.47Zm.06-5.18v5.13h6.34v-5.13h-6.34Z"/>
          <path class="cls-1" d="m147.7,67.6v-5.23h6.47v5.23h-6.47Zm.06-5.18v5.13h6.34v-5.13h-6.34Z"/>
          <path class="cls-1" d="m147.7,72.78v-5.23h6.47v5.23h-6.47Zm.06-5.18v5.13h6.34v-5.13h-6.34Z"/>
          <path class="cls-1" d="m147.7,77.96v-5.23h6.47v5.23h-6.47Zm.06-5.18v5.13h6.34v-5.13h-6.34Z"/>
          <path class="cls-1" d="m147.7,83.14v-5.23h6.47v5.23h-6.47Zm.06-5.18v5.13h6.34v-5.13h-6.34Z"/>
          <path class="cls-1" d="m147.7,88.32v-5.23h6.47v5.23h-6.47Zm.06-5.18v5.13h6.34v-5.13h-6.34Z"/>
          <path class="cls-1" d="m147.7,93.49v-5.23h6.47v5.23h-6.47Zm.06-5.18v5.13h6.34v-5.13h-6.34Z"/>
          <path class="cls-1" d="m147.7,98.67v-5.23h6.47v5.23h-6.47Zm.06-5.18v5.13h6.34v-5.13h-6.34Z"/>
          <path class="cls-1" d="m147.7,103.85v-5.23h6.47v5.23h-6.47Zm.06-5.18v5.13h6.34v-5.13h-6.34Z"/>
          <path class="cls-1" d="m147.7,109.03v-5.23h6.47v5.23h-6.47Zm.06-5.18v5.13h6.34v-5.13h-6.34Z"/>
          <path class="cls-1" d="m147.7,114.21v-5.23h6.47v5.23h-6.47Zm.06-5.18v5.13h6.34v-5.13h-6.34Z"/>
          <path class="cls-1" d="m147.7,119.39v-5.23h6.47v5.23h-6.47Zm.06-5.18v5.13h6.34v-5.13h-6.34Z"/>
        </g>
        <g>
          <path class="cls-1" d="m141.3,5.46V.23h6.46v5.23h-6.46Zm.06-5.18v5.13h6.34V.28h-6.34Z"/>
          <path class="cls-1" d="m141.3,10.64v-5.23h6.46v5.23h-6.46Zm.06-5.18v5.13h6.34v-5.13h-6.34Z"/>
          <path class="cls-1" d="m141.3,15.82v-5.23h6.46v5.23h-6.46Zm.06-5.18v5.13h6.34v-5.13h-6.34Z"/>
          <path class="cls-1" d="m141.3,21v-5.23h6.46v5.23h-6.46Zm.06-5.18v5.13h6.34v-5.13h-6.34Z"/>
          <path class="cls-1" d="m141.3,26.18v-5.23h6.46v5.23h-6.46Zm.06-5.18v5.13h6.34v-5.13h-6.34Z"/>
          <path class="cls-1" d="m141.3,31.35v-5.23h6.46v5.23h-6.46Zm.06-5.18v5.13h6.34v-5.13h-6.34Z"/>
          <path class="cls-1" d="m141.3,36.53v-5.23h6.46v5.23h-6.46Zm.06-5.18v5.13h6.34v-5.13h-6.34Z"/>
          <path class="cls-1" d="m141.3,41.71v-5.23h6.46v5.23h-6.46Zm.06-5.18v5.13h6.34v-5.13h-6.34Z"/>
          <path class="cls-1" d="m141.3,46.89v-5.23h6.46v5.23h-6.46Zm.06-5.18v5.13h6.34v-5.13h-6.34Z"/>
          <path class="cls-1" d="m141.3,52.07v-5.23h6.46v5.23h-6.46Zm.06-5.18v5.13h6.34v-5.13h-6.34Z"/>
          <path class="cls-1" d="m141.3,57.25v-5.23h6.46v5.23h-6.46Zm.06-5.18v5.13h6.34v-5.13h-6.34Z"/>
          <path class="cls-1" d="m141.3,62.42v-5.23h6.46v5.23h-6.46Zm.06-5.18v5.13h6.34v-5.13h-6.34Z"/>
          <path class="cls-1" d="m141.3,67.6v-5.23h6.46v5.23h-6.46Zm.06-5.18v5.13h6.34v-5.13h-6.34Z"/>
          <path class="cls-1" d="m141.3,72.78v-5.23h6.46v5.23h-6.46Zm.06-5.18v5.13h6.34v-5.13h-6.34Z"/>
          <path class="cls-1" d="m141.3,77.96v-5.23h6.46v5.23h-6.46Zm.06-5.18v5.13h6.34v-5.13h-6.34Z"/>
          <path class="cls-1" d="m141.3,83.14v-5.23h6.46v5.23h-6.46Zm.06-5.18v5.13h6.34v-5.13h-6.34Z"/>
          <path class="cls-1" d="m141.3,88.32v-5.23h6.46v5.23h-6.46Zm.06-5.18v5.13h6.34v-5.13h-6.34Z"/>
          <path class="cls-1" d="m141.3,93.49v-5.23h6.46v5.23h-6.46Zm.06-5.18v5.13h6.34v-5.13h-6.34Z"/>
          <path class="cls-1" d="m141.3,98.67v-5.23h6.46v5.23h-6.46Zm.06-5.18v5.13h6.34v-5.13h-6.34Z"/>
          <path class="cls-1" d="m141.3,103.85v-5.23h6.46v5.23h-6.46Zm.06-5.18v5.13h6.34v-5.13h-6.34Z"/>
          <path class="cls-1" d="m141.3,109.03v-5.23h6.46v5.23h-6.46Zm.06-5.18v5.13h6.34v-5.13h-6.34Z"/>
          <path class="cls-1" d="m141.3,114.21v-5.23h6.46v5.23h-6.46Zm.06-5.18v5.13h6.34v-5.13h-6.34Z"/>
          <path class="cls-1" d="m141.3,119.39v-5.23h6.46v5.23h-6.46Zm.06-5.18v5.13h6.34v-5.13h-6.34Z"/>
        </g>
        <g>
          <path class="cls-1" d="m134.9,5.46V.23h6.47v5.23h-6.47Zm.06-5.18v5.13h6.34V.28h-6.34Z"/>
          <path class="cls-1" d="m134.9,10.64v-5.23h6.47v5.23h-6.47Zm.06-5.18v5.13h6.34v-5.13h-6.34Z"/>
          <path class="cls-1" d="m134.9,15.82v-5.23h6.47v5.23h-6.47Zm.06-5.18v5.13h6.34v-5.13h-6.34Z"/>
          <path class="cls-1" d="m134.9,21v-5.23h6.47v5.23h-6.47Zm.06-5.18v5.13h6.34v-5.13h-6.34Z"/>
          <path class="cls-1" d="m134.9,26.18v-5.23h6.47v5.23h-6.47Zm.06-5.18v5.13h6.34v-5.13h-6.34Z"/>
          <path class="cls-1" d="m134.9,31.35v-5.23h6.47v5.23h-6.47Zm.06-5.18v5.13h6.34v-5.13h-6.34Z"/>
          <path class="cls-1" d="m134.9,36.53v-5.23h6.47v5.23h-6.47Zm.06-5.18v5.13h6.34v-5.13h-6.34Z"/>
          <path class="cls-1" d="m134.9,41.71v-5.23h6.47v5.23h-6.47Zm.06-5.18v5.13h6.34v-5.13h-6.34Z"/>
          <path class="cls-1" d="m134.9,46.89v-5.23h6.47v5.23h-6.47Zm.06-5.18v5.13h6.34v-5.13h-6.34Z"/>
          <path class="cls-1" d="m134.9,52.07v-5.23h6.47v5.23h-6.47Zm.06-5.18v5.13h6.34v-5.13h-6.34Z"/>
          <path class="cls-1" d="m134.9,57.25v-5.23h6.47v5.23h-6.47Zm.06-5.18v5.13h6.34v-5.13h-6.34Z"/>
          <path class="cls-1" d="m134.9,62.42v-5.23h6.47v5.23h-6.47Zm.06-5.18v5.13h6.34v-5.13h-6.34Z"/>
          <path class="cls-1" d="m134.9,67.6v-5.23h6.47v5.23h-6.47Zm.06-5.18v5.13h6.34v-5.13h-6.34Z"/>
          <path class="cls-1" d="m134.9,72.78v-5.23h6.47v5.23h-6.47Zm.06-5.18v5.13h6.34v-5.13h-6.34Z"/>
          <path class="cls-1" d="m134.9,77.96v-5.23h6.47v5.23h-6.47Zm.06-5.18v5.13h6.34v-5.13h-6.34Z"/>
          <path class="cls-1" d="m134.9,83.14v-5.23h6.47v5.23h-6.47Zm.06-5.18v5.13h6.34v-5.13h-6.34Z"/>
          <path class="cls-1" d="m134.9,88.32v-5.23h6.47v5.23h-6.47Zm.06-5.18v5.13h6.34v-5.13h-6.34Z"/>
          <path class="cls-1" d="m134.9,93.49v-5.23h6.47v5.23h-6.47Zm.06-5.18v5.13h6.34v-5.13h-6.34Z"/>
          <path class="cls-1" d="m134.9,98.67v-5.23h6.47v5.23h-6.47Zm.06-5.18v5.13h6.34v-5.13h-6.34Z"/>
          <path class="cls-1" d="m134.9,103.85v-5.23h6.47v5.23h-6.47Zm.06-5.18v5.13h6.34v-5.13h-6.34Z"/>
          <path class="cls-1" d="m134.9,109.03v-5.23h6.47v5.23h-6.47Zm.06-5.18v5.13h6.34v-5.13h-6.34Z"/>
          <path class="cls-1" d="m134.9,114.21v-5.23h6.47v5.23h-6.47Zm.06-5.18v5.13h6.34v-5.13h-6.34Z"/>
          <path class="cls-1" d="m134.9,119.39v-5.23h6.47v5.23h-6.47Zm.06-5.18v5.13h6.34v-5.13h-6.34Z"/>
        </g>
        <g>
          <path class="cls-1" d="m128.49,5.46V.23h6.46v5.23h-6.46Zm.06-5.18v5.13h6.34V.28h-6.34Z"/>
          <path class="cls-1" d="m128.49,10.64v-5.23h6.46v5.23h-6.46Zm.06-5.18v5.13h6.34v-5.13h-6.34Z"/>
          <path class="cls-1" d="m128.49,15.82v-5.23h6.46v5.23h-6.46Zm.06-5.18v5.13h6.34v-5.13h-6.34Z"/>
          <path class="cls-1" d="m128.49,21v-5.23h6.46v5.23h-6.46Zm.06-5.18v5.13h6.34v-5.13h-6.34Z"/>
          <path class="cls-1" d="m128.49,26.18v-5.23h6.46v5.23h-6.46Zm.06-5.18v5.13h6.34v-5.13h-6.34Z"/>
          <path class="cls-1" d="m128.49,31.35v-5.23h6.46v5.23h-6.46Zm.06-5.18v5.13h6.34v-5.13h-6.34Z"/>
          <path class="cls-1" d="m128.49,36.53v-5.23h6.46v5.23h-6.46Zm.06-5.18v5.13h6.34v-5.13h-6.34Z"/>
          <path class="cls-1" d="m128.49,41.71v-5.23h6.46v5.23h-6.46Zm.06-5.18v5.13h6.34v-5.13h-6.34Z"/>
          <path class="cls-1" d="m128.49,46.89v-5.23h6.46v5.23h-6.46Zm.06-5.18v5.13h6.34v-5.13h-6.34Z"/>
          <path class="cls-1" d="m128.49,52.07v-5.23h6.46v5.23h-6.46Zm.06-5.18v5.13h6.34v-5.13h-6.34Z"/>
          <path class="cls-1" d="m128.49,57.25v-5.23h6.46v5.23h-6.46Zm.06-5.18v5.13h6.34v-5.13h-6.34Z"/>
          <path class="cls-1" d="m128.49,62.42v-5.23h6.46v5.23h-6.46Zm.06-5.18v5.13h6.34v-5.13h-6.34Z"/>
          <path class="cls-1" d="m128.49,67.6v-5.23h6.46v5.23h-6.46Zm.06-5.18v5.13h6.34v-5.13h-6.34Z"/>
          <path class="cls-1" d="m128.49,72.78v-5.23h6.46v5.23h-6.46Zm.06-5.18v5.13h6.34v-5.13h-6.34Z"/>
          <path class="cls-1" d="m128.49,77.96v-5.23h6.46v5.23h-6.46Zm.06-5.18v5.13h6.34v-5.13h-6.34Z"/>
          <path class="cls-1" d="m128.49,83.14v-5.23h6.46v5.23h-6.46Zm.06-5.18v5.13h6.34v-5.13h-6.34Z"/>
          <path class="cls-1" d="m128.49,88.32v-5.23h6.46v5.23h-6.46Zm.06-5.18v5.13h6.34v-5.13h-6.34Z"/>
          <path class="cls-1" d="m128.49,93.49v-5.23h6.46v5.23h-6.46Zm.06-5.18v5.13h6.34v-5.13h-6.34Z"/>
          <path class="cls-1" d="m128.49,98.67v-5.23h6.46v5.23h-6.46Zm.06-5.18v5.13h6.34v-5.13h-6.34Z"/>
          <path class="cls-1" d="m128.49,103.85v-5.23h6.46v5.23h-6.46Zm.06-5.18v5.13h6.34v-5.13h-6.34Z"/>
          <path class="cls-1" d="m128.49,109.03v-5.23h6.46v5.23h-6.46Zm.06-5.18v5.13h6.34v-5.13h-6.34Z"/>
          <path class="cls-1" d="m128.49,114.21v-5.23h6.46v5.23h-6.46Zm.06-5.18v5.13h6.34v-5.13h-6.34Z"/>
          <path class="cls-1" d="m128.49,119.39v-5.23h6.46v5.23h-6.46Zm.06-5.18v5.13h6.34v-5.13h-6.34Z"/>
        </g>
        <g>
          <path class="cls-1" d="m122.09,5.46V.23h6.47v5.23h-6.47Zm.06-5.18v5.13h6.34V.28h-6.34Z"/>
          <path class="cls-1" d="m122.09,10.64v-5.23h6.47v5.23h-6.47Zm.06-5.18v5.13h6.34v-5.13h-6.34Z"/>
          <path class="cls-1" d="m122.09,15.82v-5.23h6.47v5.23h-6.47Zm.06-5.18v5.13h6.34v-5.13h-6.34Z"/>
          <path class="cls-1" d="m122.09,21v-5.23h6.47v5.23h-6.47Zm.06-5.18v5.13h6.34v-5.13h-6.34Z"/>
          <path class="cls-1" d="m122.09,26.18v-5.23h6.47v5.23h-6.47Zm.06-5.18v5.13h6.34v-5.13h-6.34Z"/>
          <path class="cls-1" d="m122.09,31.35v-5.23h6.47v5.23h-6.47Zm.06-5.18v5.13h6.34v-5.13h-6.34Z"/>
          <path class="cls-1" d="m122.09,36.53v-5.23h6.47v5.23h-6.47Zm.06-5.18v5.13h6.34v-5.13h-6.34Z"/>
          <path class="cls-1" d="m122.09,41.71v-5.23h6.47v5.23h-6.47Zm.06-5.18v5.13h6.34v-5.13h-6.34Z"/>
          <path class="cls-1" d="m122.09,46.89v-5.23h6.47v5.23h-6.47Zm.06-5.18v5.13h6.34v-5.13h-6.34Z"/>
          <path class="cls-1" d="m122.09,52.07v-5.23h6.47v5.23h-6.47Zm.06-5.18v5.13h6.34v-5.13h-6.34Z"/>
          <path class="cls-1" d="m122.09,57.25v-5.23h6.47v5.23h-6.47Zm.06-5.18v5.13h6.34v-5.13h-6.34Z"/>
          <path class="cls-1" d="m122.09,62.42v-5.23h6.47v5.23h-6.47Zm.06-5.18v5.13h6.34v-5.13h-6.34Z"/>
          <path class="cls-1" d="m122.09,67.6v-5.23h6.47v5.23h-6.47Zm.06-5.18v5.13h6.34v-5.13h-6.34Z"/>
          <path class="cls-1" d="m122.09,72.78v-5.23h6.47v5.23h-6.47Zm.06-5.18v5.13h6.34v-5.13h-6.34Z"/>
          <path class="cls-1" d="m122.09,77.96v-5.23h6.47v5.23h-6.47Zm.06-5.18v5.13h6.34v-5.13h-6.34Z"/>
          <path class="cls-1" d="m122.09,83.14v-5.23h6.47v5.23h-6.47Zm.06-5.18v5.13h6.34v-5.13h-6.34Z"/>
          <path class="cls-1" d="m122.09,88.32v-5.23h6.47v5.23h-6.47Zm.06-5.18v5.13h6.34v-5.13h-6.34Z"/>
          <path class="cls-1" d="m122.09,93.49v-5.23h6.47v5.23h-6.47Zm.06-5.18v5.13h6.34v-5.13h-6.34Z"/>
          <path class="cls-1" d="m122.09,98.67v-5.23h6.47v5.23h-6.47Zm.06-5.18v5.13h6.34v-5.13h-6.34Z"/>
          <path class="cls-1" d="m122.09,103.85v-5.23h6.47v5.23h-6.47Zm.06-5.18v5.13h6.34v-5.13h-6.34Z"/>
          <path class="cls-1" d="m122.09,109.03v-5.23h6.47v5.23h-6.47Zm.06-5.18v5.13h6.34v-5.13h-6.34Z"/>
          <path class="cls-1" d="m122.09,114.21v-5.23h6.47v5.23h-6.47Zm.06-5.18v5.13h6.34v-5.13h-6.34Z"/>
          <path class="cls-1" d="m122.09,119.39v-5.23h6.47v5.23h-6.47Zm.06-5.18v5.13h6.34v-5.13h-6.34Z"/>
        </g>
      </g>
      <g>
        <path class="cls-1" d="m237.36.52c.18,0,.32-.12.32-.26s-.14-.26-.32-.26-.32.12-.32.26.14.26.32.26Z"/>
        <path class="cls-1" d="m237.36,5.69c.18,0,.32-.12.32-.26s-.14-.26-.32-.26-.32.12-.32.26.14.26.32.26Z"/>
        <path class="cls-1" d="m237.36,10.87c.18,0,.32-.12.32-.26s-.14-.26-.32-.26-.32.12-.32.26.14.26.32.26Z"/>
        <path class="cls-1" d="m237.36,16.05c.18,0,.32-.12.32-.26s-.14-.26-.32-.26-.32.12-.32.26.14.26.32.26Z"/>
        <path class="cls-1" d="m237.36,21.23c.18,0,.32-.12.32-.26s-.14-.26-.32-.26-.32.12-.32.26.14.26.32.26Z"/>
        <path class="cls-1" d="m237.36,26.41c.18,0,.32-.12.32-.26s-.14-.26-.32-.26-.32.12-.32.26.14.26.32.26Z"/>
        <path class="cls-1" d="m237.36,31.59c.18,0,.32-.12.32-.26s-.14-.26-.32-.26-.32.12-.32.26.14.26.32.26Z"/>
        <path class="cls-1" d="m237.36,36.76c.18,0,.32-.12.32-.26s-.14-.26-.32-.26-.32.12-.32.26.14.26.32.26Z"/>
        <path class="cls-1" d="m237.36,41.94c.18,0,.32-.12.32-.26s-.14-.26-.32-.26-.32.12-.32.26.14.26.32.26Z"/>
        <path class="cls-1" d="m237.36,47.12c.18,0,.32-.12.32-.26s-.14-.26-.32-.26-.32.12-.32.26.14.26.32.26Z"/>
        <path class="cls-1" d="m237.36,52.3c.18,0,.32-.12.32-.26s-.14-.26-.32-.26-.32.12-.32.26.14.26.32.26Z"/>
        <path class="cls-1" d="m237.36,57.48c.18,0,.32-.12.32-.26s-.14-.26-.32-.26-.32.12-.32.26.14.26.32.26Z"/>
        <path class="cls-1" d="m237.36,62.66c.18,0,.32-.12.32-.26s-.14-.26-.32-.26-.32.12-.32.26.14.26.32.26Z"/>
        <path class="cls-1" d="m237.36,67.83c.18,0,.32-.12.32-.26s-.14-.26-.32-.26-.32.12-.32.26.14.26.32.26Z"/>
        <path class="cls-1" d="m237.36,73.01c.18,0,.32-.12.32-.26s-.14-.26-.32-.26-.32.12-.32.26.14.26.32.26Z"/>
        <path class="cls-1" d="m237.36,78.19c.18,0,.32-.12.32-.26s-.14-.26-.32-.26-.32.12-.32.26.14.26.32.26Z"/>
        <path class="cls-1" d="m237.36,83.37c.18,0,.32-.12.32-.26s-.14-.26-.32-.26-.32.12-.32.26.14.26.32.26Z"/>
        <path class="cls-1" d="m237.36,88.55c.18,0,.32-.12.32-.26s-.14-.26-.32-.26-.32.12-.32.26.14.26.32.26Z"/>
        <path class="cls-1" d="m237.36,93.73c.18,0,.32-.12.32-.26s-.14-.26-.32-.26-.32.12-.32.26.14.26.32.26Z"/>
        <path class="cls-1" d="m237.36,98.91c.18,0,.32-.12.32-.26s-.14-.26-.32-.26-.32.12-.32.26.14.26.32.26Z"/>
        <path class="cls-1" d="m237.36,104.08c.18,0,.32-.12.32-.26s-.14-.26-.32-.26-.32.12-.32.26.14.26.32.26Z"/>
        <path class="cls-1" d="m237.36,109.26c.18,0,.32-.12.32-.26s-.14-.26-.32-.26-.32.12-.32.26.14.26.32.26Z"/>
        <path class="cls-1" d="m237.36,114.44c.18,0,.32-.12.32-.26s-.14-.26-.32-.26-.32.12-.32.26.14.26.32.26Z"/>
        <path class="cls-1" d="m237.36,119.62c.18,0,.32-.12.32-.26s-.14-.26-.32-.26-.32.12-.32.26.14.26.32.26Z"/>
        <ellipse class="cls-1" cx="230.96" cy=".26" rx=".32" ry=".26"/>
        <path class="cls-1" d="m230.96,5.69c.18,0,.32-.12.32-.26s-.14-.26-.32-.26-.32.12-.32.26.14.26.32.26Z"/>
        <ellipse class="cls-1" cx="230.96" cy="10.61" rx=".32" ry=".26"/>
        <path class="cls-1" d="m230.96,16.05c.18,0,.32-.12.32-.26s-.14-.26-.32-.26-.32.12-.32.26.14.26.32.26Z"/>
        <path class="cls-1" d="m230.96,21.23c.18,0,.32-.12.32-.26s-.14-.26-.32-.26-.32.12-.32.26.14.26.32.26Z"/>
        <path class="cls-1" d="m230.96,26.41c.18,0,.32-.12.32-.26s-.14-.26-.32-.26-.32.12-.32.26.14.26.32.26Z"/>
        <path class="cls-1" d="m230.96,31.59c.18,0,.32-.12.32-.26s-.14-.26-.32-.26-.32.12-.32.26.14.26.32.26Z"/>
        <path class="cls-1" d="m230.96,36.76c.18,0,.32-.12.32-.26s-.14-.26-.32-.26-.32.12-.32.26.14.26.32.26Z"/>
        <ellipse class="cls-1" cx="230.96" cy="41.69" rx=".32" ry=".26"/>
        <path class="cls-1" d="m230.96,47.12c.18,0,.32-.12.32-.26s-.14-.26-.32-.26-.32.12-.32.26.14.26.32.26Z"/>
        <path class="cls-1" d="m230.96,52.3c.18,0,.32-.12.32-.26s-.14-.26-.32-.26-.32.12-.32.26.14.26.32.26Z"/>
        <path class="cls-1" d="m230.96,57.48c.18,0,.32-.12.32-.26s-.14-.26-.32-.26-.32.12-.32.26.14.26.32.26Z"/>
        <path class="cls-1" d="m230.96,62.66c.18,0,.32-.12.32-.26s-.14-.26-.32-.26-.32.12-.32.26.14.26.32.26Z"/>
        <path class="cls-1" d="m230.96,67.83c.18,0,.32-.12.32-.26s-.14-.26-.32-.26-.32.12-.32.26.14.26.32.26Z"/>
        <ellipse class="cls-1" cx="230.96" cy="72.76" rx=".32" ry=".26"/>
        <path class="cls-1" d="m230.96,78.19c.18,0,.32-.12.32-.26s-.14-.26-.32-.26-.32.12-.32.26.14.26.32.26Z"/>
        <ellipse class="cls-1" cx="230.96" cy="83.11" rx=".32" ry=".26"/>
        <path class="cls-1" d="m230.96,88.55c.18,0,.32-.12.32-.26s-.14-.26-.32-.26-.32.12-.32.26.14.26.32.26Z"/>
        <path class="cls-1" d="m230.96,93.73c.18,0,.32-.12.32-.26s-.14-.26-.32-.26-.32.12-.32.26.14.26.32.26Z"/>
        <path class="cls-1" d="m230.96,98.91c.18,0,.32-.12.32-.26s-.14-.26-.32-.26-.32.12-.32.26.14.26.32.26Z"/>
        <ellipse class="cls-1" cx="230.96" cy="103.83" rx=".32" ry=".26"/>
        <path class="cls-1" d="m230.96,109.26c.18,0,.32-.12.32-.26s-.14-.26-.32-.26-.32.12-.32.26.14.26.32.26Z"/>
        <path class="cls-1" d="m230.96,114.44c.18,0,.32-.12.32-.26s-.14-.26-.32-.26-.32.12-.32.26.14.26.32.26Z"/>
        <path class="cls-1" d="m230.96,119.62c.18,0,.32-.12.32-.26s-.14-.26-.32-.26-.32.12-.32.26.14.26.32.26Z"/>
        <ellipse class="cls-1" cx="224.56" cy=".26" rx=".32" ry=".26"/>
        <path class="cls-1" d="m224.56,5.69c.18,0,.32-.12.32-.26s-.14-.26-.32-.26-.32.12-.32.26.14.26.32.26Z"/>
        <ellipse class="cls-1" cx="224.56" cy="10.61" rx=".32" ry=".26"/>
        <path class="cls-1" d="m224.56,16.05c.18,0,.32-.12.32-.26s-.14-.26-.32-.26-.32.12-.32.26.14.26.32.26Z"/>
        <path class="cls-1" d="m224.56,21.23c.18,0,.32-.12.32-.26s-.14-.26-.32-.26-.32.12-.32.26.14.26.32.26Z"/>
        <path class="cls-1" d="m224.56,26.41c.18,0,.32-.12.32-.26s-.14-.26-.32-.26-.32.12-.32.26.14.26.32.26Z"/>
        <path class="cls-1" d="m224.56,31.59c.18,0,.32-.12.32-.26s-.14-.26-.32-.26-.32.12-.32.26.14.26.32.26Z"/>
        <path class="cls-1" d="m224.56,36.76c.18,0,.32-.12.32-.26s-.14-.26-.32-.26-.32.12-.32.26.14.26.32.26Z"/>
        <ellipse class="cls-1" cx="224.56" cy="41.69" rx=".32" ry=".26"/>
        <path class="cls-1" d="m224.56,47.12c.18,0,.32-.12.32-.26s-.14-.26-.32-.26-.32.12-.32.26.14.26.32.26Z"/>
        <path class="cls-1" d="m224.56,52.3c.18,0,.32-.12.32-.26s-.14-.26-.32-.26-.32.12-.32.26.14.26.32.26Z"/>
        <path class="cls-1" d="m224.56,57.48c.18,0,.32-.12.32-.26s-.14-.26-.32-.26-.32.12-.32.26.14.26.32.26Z"/>
        <path class="cls-1" d="m224.56,62.66c.18,0,.32-.12.32-.26s-.14-.26-.32-.26-.32.12-.32.26.14.26.32.26Z"/>
        <path class="cls-1" d="m224.56,67.83c.18,0,.32-.12.32-.26s-.14-.26-.32-.26-.32.12-.32.26.14.26.32.26Z"/>
        <ellipse class="cls-1" cx="224.56" cy="72.76" rx=".32" ry=".26"/>
        <path class="cls-1" d="m224.56,78.19c.18,0,.32-.12.32-.26s-.14-.26-.32-.26-.32.12-.32.26.14.26.32.26Z"/>
        <ellipse class="cls-1" cx="224.56" cy="83.11" rx=".32" ry=".26"/>
        <path class="cls-1" d="m224.56,88.55c.18,0,.32-.12.32-.26s-.14-.26-.32-.26-.32.12-.32.26.14.26.32.26Z"/>
        <path class="cls-1" d="m224.56,93.73c.18,0,.32-.12.32-.26s-.14-.26-.32-.26-.32.12-.32.26.14.26.32.26Z"/>
        <path class="cls-1" d="m224.56,98.91c.18,0,.32-.12.32-.26s-.14-.26-.32-.26-.32.12-.32.26.14.26.32.26Z"/>
        <ellipse class="cls-1" cx="224.56" cy="103.83" rx=".32" ry=".26"/>
        <path class="cls-1" d="m224.56,109.26c.18,0,.32-.12.32-.26s-.14-.26-.32-.26-.32.12-.32.26.14.26.32.26Z"/>
        <path class="cls-1" d="m224.56,114.44c.18,0,.32-.12.32-.26s-.14-.26-.32-.26-.32.12-.32.26.14.26.32.26Z"/>
        <path class="cls-1" d="m224.56,119.62c.18,0,.32-.12.32-.26s-.14-.26-.32-.26-.32.12-.32.26.14.26.32.26Z"/>
        <path class="cls-1" d="m218.16.52c.18,0,.32-.12.32-.26s-.14-.26-.32-.26-.32.12-.32.26.14.26.32.26Z"/>
        <path class="cls-1" d="m218.16,5.69c.18,0,.32-.12.32-.26s-.14-.26-.32-.26-.32.12-.32.26.14.26.32.26Z"/>
        <path class="cls-1" d="m218.16,10.87c.18,0,.32-.12.32-.26s-.14-.26-.32-.26-.32.12-.32.26.14.26.32.26Z"/>
        <path class="cls-1" d="m218.16,16.05c.18,0,.32-.12.32-.26s-.14-.26-.32-.26-.32.12-.32.26.14.26.32.26Z"/>
        <path class="cls-1" d="m218.16,21.23c.18,0,.32-.12.32-.26s-.14-.26-.32-.26-.32.12-.32.26.14.26.32.26Z"/>
        <path class="cls-1" d="m218.16,26.41c.18,0,.32-.12.32-.26s-.14-.26-.32-.26-.32.12-.32.26.14.26.32.26Z"/>
        <path class="cls-1" d="m218.16,31.59c.18,0,.32-.12.32-.26s-.14-.26-.32-.26-.32.12-.32.26.14.26.32.26Z"/>
        <path class="cls-1" d="m218.16,36.76c.18,0,.32-.12.32-.26s-.14-.26-.32-.26-.32.12-.32.26.14.26.32.26Z"/>
        <path class="cls-1" d="m218.16,41.94c.18,0,.32-.12.32-.26s-.14-.26-.32-.26-.32.12-.32.26.14.26.32.26Z"/>
        <path class="cls-1" d="m218.16,47.12c.18,0,.32-.12.32-.26s-.14-.26-.32-.26-.32.12-.32.26.14.26.32.26Z"/>
        <path class="cls-1" d="m218.16,52.3c.18,0,.32-.12.32-.26s-.14-.26-.32-.26-.32.12-.32.26.14.26.32.26Z"/>
        <path class="cls-1" d="m218.16,57.48c.18,0,.32-.12.32-.26s-.14-.26-.32-.26-.32.12-.32.26.14.26.32.26Z"/>
        <path class="cls-1" d="m218.16,62.66c.18,0,.32-.12.32-.26s-.14-.26-.32-.26-.32.12-.32.26.14.26.32.26Z"/>
        <path class="cls-1" d="m218.16,67.83c.18,0,.32-.12.32-.26s-.14-.26-.32-.26-.32.12-.32.26.14.26.32.26Z"/>
        <path class="cls-1" d="m218.16,73.01c.18,0,.32-.12.32-.26s-.14-.26-.32-.26-.32.12-.32.26.14.26.32.26Z"/>
        <path class="cls-1" d="m218.16,78.19c.18,0,.32-.12.32-.26s-.14-.26-.32-.26-.32.12-.32.26.14.26.32.26Z"/>
        <path class="cls-1" d="m218.16,83.37c.18,0,.32-.12.32-.26s-.14-.26-.32-.26-.32.12-.32.26.14.26.32.26Z"/>
        <path class="cls-1" d="m218.16,88.55c.18,0,.32-.12.32-.26s-.14-.26-.32-.26-.32.12-.32.26.14.26.32.26Z"/>
        <path class="cls-1" d="m218.16,93.73c.18,0,.32-.12.32-.26s-.14-.26-.32-.26-.32.12-.32.26.14.26.32.26Z"/>
        <path class="cls-1" d="m218.16,98.91c.18,0,.32-.12.32-.26s-.14-.26-.32-.26-.32.12-.32.26.14.26.32.26Z"/>
        <path class="cls-1" d="m218.16,104.08c.18,0,.32-.12.32-.26s-.14-.26-.32-.26-.32.12-.32.26.14.26.32.26Z"/>
        <path class="cls-1" d="m218.16,109.26c.18,0,.32-.12.32-.26s-.14-.26-.32-.26-.32.12-.32.26.14.26.32.26Z"/>
        <path class="cls-1" d="m218.16,114.44c.18,0,.32-.12.32-.26s-.14-.26-.32-.26-.32.12-.32.26.14.26.32.26Z"/>
        <path class="cls-1" d="m218.16,119.62c.18,0,.32-.12.32-.26s-.14-.26-.32-.26-.32.12-.32.26.14.26.32.26Z"/>
        <path class="cls-1" d="m211.75.52c.18,0,.32-.12.32-.26s-.14-.26-.32-.26-.32.12-.32.26.14.26.32.26Z"/>
        <path class="cls-1" d="m211.75,5.69c.18,0,.32-.12.32-.26s-.14-.26-.32-.26-.32.12-.32.26.14.26.32.26Z"/>
        <path class="cls-1" d="m211.75,10.87c.18,0,.32-.12.32-.26s-.14-.26-.32-.26-.32.12-.32.26.14.26.32.26Z"/>
        <path class="cls-1" d="m211.75,16.05c.18,0,.32-.12.32-.26s-.14-.26-.32-.26-.32.12-.32.26.14.26.32.26Z"/>
        <path class="cls-1" d="m211.75,21.23c.18,0,.32-.12.32-.26s-.14-.26-.32-.26-.32.12-.32.26.14.26.32.26Z"/>
        <path class="cls-1" d="m211.75,26.41c.18,0,.32-.12.32-.26s-.14-.26-.32-.26-.32.12-.32.26.14.26.32.26Z"/>
        <path class="cls-1" d="m211.75,31.59c.18,0,.32-.12.32-.26s-.14-.26-.32-.26-.32.12-.32.26.14.26.32.26Z"/>
        <path class="cls-1" d="m211.75,36.76c.18,0,.32-.12.32-.26s-.14-.26-.32-.26-.32.12-.32.26.14.26.32.26Z"/>
        <path class="cls-1" d="m211.75,41.94c.18,0,.32-.12.32-.26s-.14-.26-.32-.26-.32.12-.32.26.14.26.32.26Z"/>
        <path class="cls-1" d="m211.75,47.12c.18,0,.32-.12.32-.26s-.14-.26-.32-.26-.32.12-.32.26.14.26.32.26Z"/>
        <path class="cls-1" d="m211.75,52.3c.18,0,.32-.12.32-.26s-.14-.26-.32-.26-.32.12-.32.26.14.26.32.26Z"/>
        <path class="cls-1" d="m211.75,57.48c.18,0,.32-.12.32-.26s-.14-.26-.32-.26-.32.12-.32.26.14.26.32.26Z"/>
        <path class="cls-1" d="m211.75,62.66c.18,0,.32-.12.32-.26s-.14-.26-.32-.26-.32.12-.32.26.14.26.32.26Z"/>
        <path class="cls-1" d="m211.75,67.83c.18,0,.32-.12.32-.26s-.14-.26-.32-.26-.32.12-.32.26.14.26.32.26Z"/>
        <path class="cls-1" d="m211.75,73.01c.18,0,.32-.12.32-.26s-.14-.26-.32-.26-.32.12-.32.26.14.26.32.26Z"/>
        <path class="cls-1" d="m211.75,78.19c.18,0,.32-.12.32-.26s-.14-.26-.32-.26-.32.12-.32.26.14.26.32.26Z"/>
        <path class="cls-1" d="m211.75,83.37c.18,0,.32-.12.32-.26s-.14-.26-.32-.26-.32.12-.32.26.14.26.32.26Z"/>
        <path class="cls-1" d="m211.75,88.55c.18,0,.32-.12.32-.26s-.14-.26-.32-.26-.32.12-.32.26.14.26.32.26Z"/>
        <path class="cls-1" d="m211.75,93.73c.18,0,.32-.12.32-.26s-.14-.26-.32-.26-.32.12-.32.26.14.26.32.26Z"/>
        <path class="cls-1" d="m211.75,98.91c.18,0,.32-.12.32-.26s-.14-.26-.32-.26-.32.12-.32.26.14.26.32.26Z"/>
        <path class="cls-1" d="m211.75,104.08c.18,0,.32-.12.32-.26s-.14-.26-.32-.26-.32.12-.32.26.14.26.32.26Z"/>
        <path class="cls-1" d="m211.75,109.26c.18,0,.32-.12.32-.26s-.14-.26-.32-.26-.32.12-.32.26.14.26.32.26Z"/>
        <path class="cls-1" d="m211.75,114.44c.18,0,.32-.12.32-.26s-.14-.26-.32-.26-.32.12-.32.26.14.26.32.26Z"/>
        <path class="cls-1" d="m211.75,119.62c.18,0,.32-.12.32-.26s-.14-.26-.32-.26-.32.12-.32.26.14.26.32.26Z"/>
        <path class="cls-1" d="m205.35.52c.18,0,.32-.12.32-.26s-.14-.26-.32-.26-.32.12-.32.26.14.26.32.26Z"/>
        <path class="cls-1" d="m205.35,5.69c.18,0,.32-.12.32-.26s-.14-.26-.32-.26-.32.12-.32.26.14.26.32.26Z"/>
        <path class="cls-1" d="m205.35,10.87c.18,0,.32-.12.32-.26s-.14-.26-.32-.26-.32.12-.32.26.14.26.32.26Z"/>
        <path class="cls-1" d="m205.35,16.05c.18,0,.32-.12.32-.26s-.14-.26-.32-.26-.32.12-.32.26.14.26.32.26Z"/>
        <path class="cls-1" d="m205.35,21.23c.18,0,.32-.12.32-.26s-.14-.26-.32-.26-.32.12-.32.26.14.26.32.26Z"/>
        <path class="cls-1" d="m205.35,26.41c.18,0,.32-.12.32-.26s-.14-.26-.32-.26-.32.12-.32.26.14.26.32.26Z"/>
        <path class="cls-1" d="m205.35,31.59c.18,0,.32-.12.32-.26s-.14-.26-.32-.26-.32.12-.32.26.14.26.32.26Z"/>
        <path class="cls-1" d="m205.35,36.76c.18,0,.32-.12.32-.26s-.14-.26-.32-.26-.32.12-.32.26.14.26.32.26Z"/>
        <path class="cls-1" d="m205.35,41.94c.18,0,.32-.12.32-.26s-.14-.26-.32-.26-.32.12-.32.26.14.26.32.26Z"/>
        <path class="cls-1" d="m205.35,47.12c.18,0,.32-.12.32-.26s-.14-.26-.32-.26-.32.12-.32.26.14.26.32.26Z"/>
        <path class="cls-1" d="m205.35,52.3c.18,0,.32-.12.32-.26s-.14-.26-.32-.26-.32.12-.32.26.14.26.32.26Z"/>
        <path class="cls-1" d="m205.35,57.48c.18,0,.32-.12.32-.26s-.14-.26-.32-.26-.32.12-.32.26.14.26.32.26Z"/>
        <path class="cls-1" d="m205.35,62.66c.18,0,.32-.12.32-.26s-.14-.26-.32-.26-.32.12-.32.26.14.26.32.26Z"/>
        <path class="cls-1" d="m205.35,67.83c.18,0,.32-.12.32-.26s-.14-.26-.32-.26-.32.12-.32.26.14.26.32.26Z"/>
        <path class="cls-1" d="m205.35,73.01c.18,0,.32-.12.32-.26s-.14-.26-.32-.26-.32.12-.32.26.14.26.32.26Z"/>
        <path class="cls-1" d="m205.35,78.19c.18,0,.32-.12.32-.26s-.14-.26-.32-.26-.32.12-.32.26.14.26.32.26Z"/>
        <path class="cls-1" d="m205.35,83.37c.18,0,.32-.12.32-.26s-.14-.26-.32-.26-.32.12-.32.26.14.26.32.26Z"/>
        <path class="cls-1" d="m205.35,88.55c.18,0,.32-.12.32-.26s-.14-.26-.32-.26-.32.12-.32.26.14.26.32.26Z"/>
        <path class="cls-1" d="m205.35,93.73c.18,0,.32-.12.32-.26s-.14-.26-.32-.26-.32.12-.32.26.14.26.32.26Z"/>
        <path class="cls-1" d="m205.35,98.91c.18,0,.32-.12.32-.26s-.14-.26-.32-.26-.32.12-.32.26.14.26.32.26Z"/>
        <path class="cls-1" d="m205.35,104.08c.18,0,.32-.12.32-.26s-.14-.26-.32-.26-.32.12-.32.26.14.26.32.26Z"/>
        <path class="cls-1" d="m205.35,109.26c.18,0,.32-.12.32-.26s-.14-.26-.32-.26-.32.12-.32.26.14.26.32.26Z"/>
        <path class="cls-1" d="m205.35,114.44c.18,0,.32-.12.32-.26s-.14-.26-.32-.26-.32.12-.32.26.14.26.32.26Z"/>
        <path class="cls-1" d="m205.35,119.62c.18,0,.32-.12.32-.26s-.14-.26-.32-.26-.32.12-.32.26.14.26.32.26Z"/>
        <path class="cls-1" d="m198.95.52c.18,0,.32-.12.32-.26s-.14-.26-.32-.26-.32.12-.32.26.14.26.32.26Z"/>
        <path class="cls-1" d="m198.95,5.69c.18,0,.32-.12.32-.26s-.14-.26-.32-.26-.32.12-.32.26.14.26.32.26Z"/>
        <path class="cls-1" d="m198.95,10.87c.18,0,.32-.12.32-.26s-.14-.26-.32-.26-.32.12-.32.26.14.26.32.26Z"/>
        <path class="cls-1" d="m198.95,16.05c.18,0,.32-.12.32-.26s-.14-.26-.32-.26-.32.12-.32.26.14.26.32.26Z"/>
        <path class="cls-1" d="m198.95,21.23c.18,0,.32-.12.32-.26s-.14-.26-.32-.26-.32.12-.32.26.14.26.32.26Z"/>
        <path class="cls-1" d="m198.95,26.41c.18,0,.32-.12.32-.26s-.14-.26-.32-.26-.32.12-.32.26.14.26.32.26Z"/>
        <path class="cls-1" d="m198.95,31.59c.18,0,.32-.12.32-.26s-.14-.26-.32-.26-.32.12-.32.26.14.26.32.26Z"/>
        <path class="cls-1" d="m198.95,36.76c.18,0,.32-.12.32-.26s-.14-.26-.32-.26-.32.12-.32.26.14.26.32.26Z"/>
        <path class="cls-1" d="m198.95,41.94c.18,0,.32-.12.32-.26s-.14-.26-.32-.26-.32.12-.32.26.14.26.32.26Z"/>
        <path class="cls-1" d="m198.95,47.12c.18,0,.32-.12.32-.26s-.14-.26-.32-.26-.32.12-.32.26.14.26.32.26Z"/>
        <path class="cls-1" d="m198.95,52.3c.18,0,.32-.12.32-.26s-.14-.26-.32-.26-.32.12-.32.26.14.26.32.26Z"/>
        <path class="cls-1" d="m198.95,57.48c.18,0,.32-.12.32-.26s-.14-.26-.32-.26-.32.12-.32.26.14.26.32.26Z"/>
        <path class="cls-1" d="m198.95,62.66c.18,0,.32-.12.32-.26s-.14-.26-.32-.26-.32.12-.32.26.14.26.32.26Z"/>
        <path class="cls-1" d="m198.95,67.83c.18,0,.32-.12.32-.26s-.14-.26-.32-.26-.32.12-.32.26.14.26.32.26Z"/>
        <path class="cls-1" d="m198.95,73.01c.18,0,.32-.12.32-.26s-.14-.26-.32-.26-.32.12-.32.26.14.26.32.26Z"/>
        <path class="cls-1" d="m198.95,78.19c.18,0,.32-.12.32-.26s-.14-.26-.32-.26-.32.12-.32.26.14.26.32.26Z"/>
        <path class="cls-1" d="m198.95,83.37c.18,0,.32-.12.32-.26s-.14-.26-.32-.26-.32.12-.32.26.14.26.32.26Z"/>
        <path class="cls-1" d="m198.95,88.55c.18,0,.32-.12.32-.26s-.14-.26-.32-.26-.32.12-.32.26.14.26.32.26Z"/>
        <path class="cls-1" d="m198.95,93.73c.18,0,.32-.12.32-.26s-.14-.26-.32-.26-.32.12-.32.26.14.26.32.26Z"/>
        <path class="cls-1" d="m198.95,98.91c.18,0,.32-.12.32-.26s-.14-.26-.32-.26-.32.12-.32.26.14.26.32.26Z"/>
        <path class="cls-1" d="m198.95,104.08c.18,0,.32-.12.32-.26s-.14-.26-.32-.26-.32.12-.32.26.14.26.32.26Z"/>
        <path class="cls-1" d="m198.95,109.26c.18,0,.32-.12.32-.26s-.14-.26-.32-.26-.32.12-.32.26.14.26.32.26Z"/>
        <path class="cls-1" d="m198.95,114.44c.18,0,.32-.12.32-.26s-.14-.26-.32-.26-.32.12-.32.26.14.26.32.26Z"/>
        <path class="cls-1" d="m198.95,119.62c.18,0,.32-.12.32-.26s-.14-.26-.32-.26-.32.12-.32.26.14.26.32.26Z"/>
        <path class="cls-1" d="m192.55.52c.18,0,.32-.12.32-.26s-.14-.26-.32-.26-.32.12-.32.26.14.26.32.26Z"/>
        <path class="cls-1" d="m192.55,5.69c.18,0,.32-.12.32-.26s-.14-.26-.32-.26-.32.12-.32.26.14.26.32.26Z"/>
        <path class="cls-1" d="m192.55,10.87c.18,0,.32-.12.32-.26s-.14-.26-.32-.26-.32.12-.32.26.14.26.32.26Z"/>
        <path class="cls-1" d="m192.55,16.05c.18,0,.32-.12.32-.26s-.14-.26-.32-.26-.32.12-.32.26.14.26.32.26Z"/>
        <path class="cls-1" d="m192.55,21.23c.18,0,.32-.12.32-.26s-.14-.26-.32-.26-.32.12-.32.26.14.26.32.26Z"/>
        <path class="cls-1" d="m192.55,26.41c.18,0,.32-.12.32-.26s-.14-.26-.32-.26-.32.12-.32.26.14.26.32.26Z"/>
        <path class="cls-1" d="m192.55,31.59c.18,0,.32-.12.32-.26s-.14-.26-.32-.26-.32.12-.32.26.14.26.32.26Z"/>
        <path class="cls-1" d="m192.55,36.76c.18,0,.32-.12.32-.26s-.14-.26-.32-.26-.32.12-.32.26.14.26.32.26Z"/>
        <path class="cls-1" d="m192.55,41.94c.18,0,.32-.12.32-.26s-.14-.26-.32-.26-.32.12-.32.26.14.26.32.26Z"/>
        <path class="cls-1" d="m192.55,47.12c.18,0,.32-.12.32-.26s-.14-.26-.32-.26-.32.12-.32.26.14.26.32.26Z"/>
        <path class="cls-1" d="m192.55,52.3c.18,0,.32-.12.32-.26s-.14-.26-.32-.26-.32.12-.32.26.14.26.32.26Z"/>
        <path class="cls-1" d="m192.55,57.48c.18,0,.32-.12.32-.26s-.14-.26-.32-.26-.32.12-.32.26.14.26.32.26Z"/>
        <path class="cls-1" d="m192.55,62.66c.18,0,.32-.12.32-.26s-.14-.26-.32-.26-.32.12-.32.26.14.26.32.26Z"/>
        <path class="cls-1" d="m192.55,67.83c.18,0,.32-.12.32-.26s-.14-.26-.32-.26-.32.12-.32.26.14.26.32.26Z"/>
        <path class="cls-1" d="m192.55,73.01c.18,0,.32-.12.32-.26s-.14-.26-.32-.26-.32.12-.32.26.14.26.32.26Z"/>
        <path class="cls-1" d="m192.55,78.19c.18,0,.32-.12.32-.26s-.14-.26-.32-.26-.32.12-.32.26.14.26.32.26Z"/>
        <path class="cls-1" d="m192.55,83.37c.18,0,.32-.12.32-.26s-.14-.26-.32-.26-.32.12-.32.26.14.26.32.26Z"/>
        <path class="cls-1" d="m192.55,88.55c.18,0,.32-.12.32-.26s-.14-.26-.32-.26-.32.12-.32.26.14.26.32.26Z"/>
        <path class="cls-1" d="m192.55,93.73c.18,0,.32-.12.32-.26s-.14-.26-.32-.26-.32.12-.32.26.14.26.32.26Z"/>
        <path class="cls-1" d="m192.55,98.91c.18,0,.32-.12.32-.26s-.14-.26-.32-.26-.32.12-.32.26.14.26.32.26Z"/>
        <path class="cls-1" d="m192.55,104.08c.18,0,.32-.12.32-.26s-.14-.26-.32-.26-.32.12-.32.26.14.26.32.26Z"/>
        <path class="cls-1" d="m192.55,109.26c.18,0,.32-.12.32-.26s-.14-.26-.32-.26-.32.12-.32.26.14.26.32.26Z"/>
        <path class="cls-1" d="m192.55,114.44c.18,0,.32-.12.32-.26s-.14-.26-.32-.26-.32.12-.32.26.14.26.32.26Z"/>
        <path class="cls-1" d="m192.55,119.62c.18,0,.32-.12.32-.26s-.14-.26-.32-.26-.32.12-.32.26.14.26.32.26Z"/>
        <path class="cls-1" d="m186.15.52c.18,0,.32-.12.32-.26s-.14-.26-.32-.26-.32.12-.32.26.14.26.32.26Z"/>
        <path class="cls-1" d="m186.15,5.69c.18,0,.32-.12.32-.26s-.14-.26-.32-.26-.32.12-.32.26.14.26.32.26Z"/>
        <path class="cls-1" d="m186.15,10.87c.18,0,.32-.12.32-.26s-.14-.26-.32-.26-.32.12-.32.26.14.26.32.26Z"/>
        <path class="cls-1" d="m186.15,16.05c.18,0,.32-.12.32-.26s-.14-.26-.32-.26-.32.12-.32.26.14.26.32.26Z"/>
        <path class="cls-1" d="m186.15,21.23c.18,0,.32-.12.32-.26s-.14-.26-.32-.26-.32.12-.32.26.14.26.32.26Z"/>
        <path class="cls-1" d="m186.15,26.41c.18,0,.32-.12.32-.26s-.14-.26-.32-.26-.32.12-.32.26.14.26.32.26Z"/>
        <path class="cls-1" d="m186.15,31.59c.18,0,.32-.12.32-.26s-.14-.26-.32-.26-.32.12-.32.26.14.26.32.26Z"/>
        <path class="cls-1" d="m186.15,36.76c.18,0,.32-.12.32-.26s-.14-.26-.32-.26-.32.12-.32.26.14.26.32.26Z"/>
        <path class="cls-1" d="m186.15,41.94c.18,0,.32-.12.32-.26s-.14-.26-.32-.26-.32.12-.32.26.14.26.32.26Z"/>
        <path class="cls-1" d="m186.15,47.12c.18,0,.32-.12.32-.26s-.14-.26-.32-.26-.32.12-.32.26.14.26.32.26Z"/>
        <path class="cls-1" d="m186.15,52.3c.18,0,.32-.12.32-.26s-.14-.26-.32-.26-.32.12-.32.26.14.26.32.26Z"/>
        <path class="cls-1" d="m186.15,57.48c.18,0,.32-.12.32-.26s-.14-.26-.32-.26-.32.12-.32.26.14.26.32.26Z"/>
        <path class="cls-1" d="m186.15,62.66c.18,0,.32-.12.32-.26s-.14-.26-.32-.26-.32.12-.32.26.14.26.32.26Z"/>
        <path class="cls-1" d="m186.15,67.83c.18,0,.32-.12.32-.26s-.14-.26-.32-.26-.32.12-.32.26.14.26.32.26Z"/>
        <path class="cls-1" d="m186.15,73.01c.18,0,.32-.12.32-.26s-.14-.26-.32-.26-.32.12-.32.26.14.26.32.26Z"/>
        <path class="cls-1" d="m186.15,78.19c.18,0,.32-.12.32-.26s-.14-.26-.32-.26-.32.12-.32.26.14.26.32.26Z"/>
        <path class="cls-1" d="m186.15,83.37c.18,0,.32-.12.32-.26s-.14-.26-.32-.26-.32.12-.32.26.14.26.32.26Z"/>
        <path class="cls-1" d="m186.15,88.55c.18,0,.32-.12.32-.26s-.14-.26-.32-.26-.32.12-.32.26.14.26.32.26Z"/>
        <path class="cls-1" d="m186.15,93.73c.18,0,.32-.12.32-.26s-.14-.26-.32-.26-.32.12-.32.26.14.26.32.26Z"/>
        <path class="cls-1" d="m186.15,98.91c.18,0,.32-.12.32-.26s-.14-.26-.32-.26-.32.12-.32.26.14.26.32.26Z"/>
        <path class="cls-1" d="m186.15,104.08c.18,0,.32-.12.32-.26s-.14-.26-.32-.26-.32.12-.32.26.14.26.32.26Z"/>
        <path class="cls-1" d="m186.15,109.26c.18,0,.32-.12.32-.26s-.14-.26-.32-.26-.32.12-.32.26.14.26.32.26Z"/>
        <path class="cls-1" d="m186.15,114.44c.18,0,.32-.12.32-.26s-.14-.26-.32-.26-.32.12-.32.26.14.26.32.26Z"/>
        <path class="cls-1" d="m186.15,119.62c.18,0,.32-.12.32-.26s-.14-.26-.32-.26-.32.12-.32.26.14.26.32.26Z"/>
        <path class="cls-1" d="m179.74.52c.18,0,.32-.12.32-.26s-.14-.26-.32-.26-.32.12-.32.26.14.26.32.26Z"/>
        <path class="cls-1" d="m179.74,5.69c.18,0,.32-.12.32-.26s-.14-.26-.32-.26-.32.12-.32.26.14.26.32.26Z"/>
        <path class="cls-1" d="m179.74,10.87c.18,0,.32-.12.32-.26s-.14-.26-.32-.26-.32.12-.32.26.14.26.32.26Z"/>
        <path class="cls-1" d="m179.74,16.05c.18,0,.32-.12.32-.26s-.14-.26-.32-.26-.32.12-.32.26.14.26.32.26Z"/>
        <path class="cls-1" d="m179.74,21.23c.18,0,.32-.12.32-.26s-.14-.26-.32-.26-.32.12-.32.26.14.26.32.26Z"/>
        <path class="cls-1" d="m179.74,26.41c.18,0,.32-.12.32-.26s-.14-.26-.32-.26-.32.12-.32.26.14.26.32.26Z"/>
        <path class="cls-1" d="m179.74,31.59c.18,0,.32-.12.32-.26s-.14-.26-.32-.26-.32.12-.32.26.14.26.32.26Z"/>
        <path class="cls-1" d="m179.74,36.76c.18,0,.32-.12.32-.26s-.14-.26-.32-.26-.32.12-.32.26.14.26.32.26Z"/>
        <path class="cls-1" d="m179.74,41.94c.18,0,.32-.12.32-.26s-.14-.26-.32-.26-.32.12-.32.26.14.26.32.26Z"/>
        <path class="cls-1" d="m179.74,47.12c.18,0,.32-.12.32-.26s-.14-.26-.32-.26-.32.12-.32.26.14.26.32.26Z"/>
        <path class="cls-1" d="m179.74,52.3c.18,0,.32-.12.32-.26s-.14-.26-.32-.26-.32.12-.32.26.14.26.32.26Z"/>
        <path class="cls-1" d="m179.74,57.48c.18,0,.32-.12.32-.26s-.14-.26-.32-.26-.32.12-.32.26.14.26.32.26Z"/>
        <path class="cls-1" d="m179.74,62.66c.18,0,.32-.12.32-.26s-.14-.26-.32-.26-.32.12-.32.26.14.26.32.26Z"/>
        <path class="cls-1" d="m179.74,67.83c.18,0,.32-.12.32-.26s-.14-.26-.32-.26-.32.12-.32.26.14.26.32.26Z"/>
        <path class="cls-1" d="m179.74,73.01c.18,0,.32-.12.32-.26s-.14-.26-.32-.26-.32.12-.32.26.14.26.32.26Z"/>
        <path class="cls-1" d="m179.74,78.19c.18,0,.32-.12.32-.26s-.14-.26-.32-.26-.32.12-.32.26.14.26.32.26Z"/>
        <path class="cls-1" d="m179.74,83.37c.18,0,.32-.12.32-.26s-.14-.26-.32-.26-.32.12-.32.26.14.26.32.26Z"/>
        <path class="cls-1" d="m179.74,88.55c.18,0,.32-.12.32-.26s-.14-.26-.32-.26-.32.12-.32.26.14.26.32.26Z"/>
        <path class="cls-1" d="m179.74,93.73c.18,0,.32-.12.32-.26s-.14-.26-.32-.26-.32.12-.32.26.14.26.32.26Z"/>
        <path class="cls-1" d="m179.74,98.91c.18,0,.32-.12.32-.26s-.14-.26-.32-.26-.32.12-.32.26.14.26.32.26Z"/>
        <path class="cls-1" d="m179.74,104.08c.18,0,.32-.12.32-.26s-.14-.26-.32-.26-.32.12-.32.26.14.26.32.26Z"/>
        <path class="cls-1" d="m179.74,109.26c.18,0,.32-.12.32-.26s-.14-.26-.32-.26-.32.12-.32.26.14.26.32.26Z"/>
        <path class="cls-1" d="m179.74,114.44c.18,0,.32-.12.32-.26s-.14-.26-.32-.26-.32.12-.32.26.14.26.32.26Z"/>
        <path class="cls-1" d="m179.74,119.62c.18,0,.32-.12.32-.26s-.14-.26-.32-.26-.32.12-.32.26.14.26.32.26Z"/>
        <path class="cls-1" d="m173.34.52c.18,0,.32-.12.32-.26s-.14-.26-.32-.26-.32.12-.32.26.14.26.32.26Z"/>
        <path class="cls-1" d="m173.34,5.69c.18,0,.32-.12.32-.26s-.14-.26-.32-.26-.32.12-.32.26.14.26.32.26Z"/>
        <path class="cls-1" d="m173.34,10.87c.18,0,.32-.12.32-.26s-.14-.26-.32-.26-.32.12-.32.26.14.26.32.26Z"/>
        <path class="cls-1" d="m173.34,16.05c.18,0,.32-.12.32-.26s-.14-.26-.32-.26-.32.12-.32.26.14.26.32.26Z"/>
        <path class="cls-1" d="m173.34,21.23c.18,0,.32-.12.32-.26s-.14-.26-.32-.26-.32.12-.32.26.14.26.32.26Z"/>
        <path class="cls-1" d="m173.34,26.41c.18,0,.32-.12.32-.26s-.14-.26-.32-.26-.32.12-.32.26.14.26.32.26Z"/>
        <path class="cls-1" d="m173.34,31.59c.18,0,.32-.12.32-.26s-.14-.26-.32-.26-.32.12-.32.26.14.26.32.26Z"/>
        <path class="cls-1" d="m173.34,36.76c.18,0,.32-.12.32-.26s-.14-.26-.32-.26-.32.12-.32.26.14.26.32.26Z"/>
        <path class="cls-1" d="m173.34,41.94c.18,0,.32-.12.32-.26s-.14-.26-.32-.26-.32.12-.32.26.14.26.32.26Z"/>
        <path class="cls-1" d="m173.34,47.12c.18,0,.32-.12.32-.26s-.14-.26-.32-.26-.32.12-.32.26.14.26.32.26Z"/>
        <path class="cls-1" d="m173.34,52.3c.18,0,.32-.12.32-.26s-.14-.26-.32-.26-.32.12-.32.26.14.26.32.26Z"/>
        <path class="cls-1" d="m173.34,57.48c.18,0,.32-.12.32-.26s-.14-.26-.32-.26-.32.12-.32.26.14.26.32.26Z"/>
        <path class="cls-1" d="m173.34,62.66c.18,0,.32-.12.32-.26s-.14-.26-.32-.26-.32.12-.32.26.14.26.32.26Z"/>
        <path class="cls-1" d="m173.34,67.83c.18,0,.32-.12.32-.26s-.14-.26-.32-.26-.32.12-.32.26.14.26.32.26Z"/>
        <path class="cls-1" d="m173.34,73.01c.18,0,.32-.12.32-.26s-.14-.26-.32-.26-.32.12-.32.26.14.26.32.26Z"/>
        <path class="cls-1" d="m173.34,78.19c.18,0,.32-.12.32-.26s-.14-.26-.32-.26-.32.12-.32.26.14.26.32.26Z"/>
        <path class="cls-1" d="m173.34,83.37c.18,0,.32-.12.32-.26s-.14-.26-.32-.26-.32.12-.32.26.14.26.32.26Z"/>
        <path class="cls-1" d="m173.34,88.55c.18,0,.32-.12.32-.26s-.14-.26-.32-.26-.32.12-.32.26.14.26.32.26Z"/>
        <path class="cls-1" d="m173.34,93.73c.18,0,.32-.12.32-.26s-.14-.26-.32-.26-.32.12-.32.26.14.26.32.26Z"/>
        <path class="cls-1" d="m173.34,98.91c.18,0,.32-.12.32-.26s-.14-.26-.32-.26-.32.12-.32.26.14.26.32.26Z"/>
        <path class="cls-1" d="m173.34,104.08c.18,0,.32-.12.32-.26s-.14-.26-.32-.26-.32.12-.32.26.14.26.32.26Z"/>
        <path class="cls-1" d="m173.34,109.26c.18,0,.32-.12.32-.26s-.14-.26-.32-.26-.32.12-.32.26.14.26.32.26Z"/>
        <path class="cls-1" d="m173.34,114.44c.18,0,.32-.12.32-.26s-.14-.26-.32-.26-.32.12-.32.26.14.26.32.26Z"/>
        <path class="cls-1" d="m173.34,119.62c.18,0,.32-.12.32-.26s-.14-.26-.32-.26-.32.12-.32.26.14.26.32.26Z"/>
        <path class="cls-1" d="m166.94.52c.18,0,.32-.12.32-.26s-.14-.26-.32-.26-.32.12-.32.26.14.26.32.26Z"/>
        <path class="cls-1" d="m166.94,5.69c.18,0,.32-.12.32-.26s-.14-.26-.32-.26-.32.12-.32.26.14.26.32.26Z"/>
        <path class="cls-1" d="m166.94,10.87c.18,0,.32-.12.32-.26s-.14-.26-.32-.26-.32.12-.32.26.14.26.32.26Z"/>
        <path class="cls-1" d="m166.94,16.05c.18,0,.32-.12.32-.26s-.14-.26-.32-.26-.32.12-.32.26.14.26.32.26Z"/>
        <path class="cls-1" d="m166.94,21.23c.18,0,.32-.12.32-.26s-.14-.26-.32-.26-.32.12-.32.26.14.26.32.26Z"/>
        <path class="cls-1" d="m166.94,26.41c.18,0,.32-.12.32-.26s-.14-.26-.32-.26-.32.12-.32.26.14.26.32.26Z"/>
        <path class="cls-1" d="m166.94,31.59c.18,0,.32-.12.32-.26s-.14-.26-.32-.26-.32.12-.32.26.14.26.32.26Z"/>
        <path class="cls-1" d="m166.94,36.76c.18,0,.32-.12.32-.26s-.14-.26-.32-.26-.32.12-.32.26.14.26.32.26Z"/>
        <path class="cls-1" d="m166.94,41.94c.18,0,.32-.12.32-.26s-.14-.26-.32-.26-.32.12-.32.26.14.26.32.26Z"/>
        <path class="cls-1" d="m166.94,47.12c.18,0,.32-.12.32-.26s-.14-.26-.32-.26-.32.12-.32.26.14.26.32.26Z"/>
        <path class="cls-1" d="m166.94,52.3c.18,0,.32-.12.32-.26s-.14-.26-.32-.26-.32.12-.32.26.14.26.32.26Z"/>
        <path class="cls-1" d="m166.94,57.48c.18,0,.32-.12.32-.26s-.14-.26-.32-.26-.32.12-.32.26.14.26.32.26Z"/>
        <path class="cls-1" d="m166.94,62.66c.18,0,.32-.12.32-.26s-.14-.26-.32-.26-.32.12-.32.26.14.26.32.26Z"/>
        <path class="cls-1" d="m166.94,67.83c.18,0,.32-.12.32-.26s-.14-.26-.32-.26-.32.12-.32.26.14.26.32.26Z"/>
        <path class="cls-1" d="m166.94,73.01c.18,0,.32-.12.32-.26s-.14-.26-.32-.26-.32.12-.32.26.14.26.32.26Z"/>
        <path class="cls-1" d="m166.94,78.19c.18,0,.32-.12.32-.26s-.14-.26-.32-.26-.32.12-.32.26.14.26.32.26Z"/>
        <path class="cls-1" d="m166.94,83.37c.18,0,.32-.12.32-.26s-.14-.26-.32-.26-.32.12-.32.26.14.26.32.26Z"/>
        <path class="cls-1" d="m166.94,88.55c.18,0,.32-.12.32-.26s-.14-.26-.32-.26-.32.12-.32.26.14.26.32.26Z"/>
        <path class="cls-1" d="m166.94,93.73c.18,0,.32-.12.32-.26s-.14-.26-.32-.26-.32.12-.32.26.14.26.32.26Z"/>
        <path class="cls-1" d="m166.94,98.91c.18,0,.32-.12.32-.26s-.14-.26-.32-.26-.32.12-.32.26.14.26.32.26Z"/>
        <path class="cls-1" d="m166.94,104.08c.18,0,.32-.12.32-.26s-.14-.26-.32-.26-.32.12-.32.26.14.26.32.26Z"/>
        <path class="cls-1" d="m166.94,109.26c.18,0,.32-.12.32-.26s-.14-.26-.32-.26-.32.12-.32.26.14.26.32.26Z"/>
        <path class="cls-1" d="m166.94,114.44c.18,0,.32-.12.32-.26s-.14-.26-.32-.26-.32.12-.32.26.14.26.32.26Z"/>
        <path class="cls-1" d="m166.94,119.62c.18,0,.32-.12.32-.26s-.14-.26-.32-.26-.32.12-.32.26.14.26.32.26Z"/>
        <path class="cls-1" d="m160.54.52c.18,0,.32-.12.32-.26s-.14-.26-.32-.26-.32.12-.32.26.14.26.32.26Z"/>
        <path class="cls-1" d="m160.54,5.69c.18,0,.32-.12.32-.26s-.14-.26-.32-.26-.32.12-.32.26.14.26.32.26Z"/>
        <path class="cls-1" d="m160.54,10.87c.18,0,.32-.12.32-.26s-.14-.26-.32-.26-.32.12-.32.26.14.26.32.26Z"/>
        <path class="cls-1" d="m160.54,16.05c.18,0,.32-.12.32-.26s-.14-.26-.32-.26-.32.12-.32.26.14.26.32.26Z"/>
        <path class="cls-1" d="m160.54,21.23c.18,0,.32-.12.32-.26s-.14-.26-.32-.26-.32.12-.32.26.14.26.32.26Z"/>
        <path class="cls-1" d="m160.54,26.41c.18,0,.32-.12.32-.26s-.14-.26-.32-.26-.32.12-.32.26.14.26.32.26Z"/>
        <path class="cls-1" d="m160.54,31.59c.18,0,.32-.12.32-.26s-.14-.26-.32-.26-.32.12-.32.26.14.26.32.26Z"/>
        <path class="cls-1" d="m160.54,36.76c.18,0,.32-.12.32-.26s-.14-.26-.32-.26-.32.12-.32.26.14.26.32.26Z"/>
        <path class="cls-1" d="m160.54,41.94c.18,0,.32-.12.32-.26s-.14-.26-.32-.26-.32.12-.32.26.14.26.32.26Z"/>
        <path class="cls-1" d="m160.54,47.12c.18,0,.32-.12.32-.26s-.14-.26-.32-.26-.32.12-.32.26.14.26.32.26Z"/>
        <path class="cls-1" d="m160.54,52.3c.18,0,.32-.12.32-.26s-.14-.26-.32-.26-.32.12-.32.26.14.26.32.26Z"/>
        <path class="cls-1" d="m160.54,57.48c.18,0,.32-.12.32-.26s-.14-.26-.32-.26-.32.12-.32.26.14.26.32.26Z"/>
        <path class="cls-1" d="m160.54,62.66c.18,0,.32-.12.32-.26s-.14-.26-.32-.26-.32.12-.32.26.14.26.32.26Z"/>
        <path class="cls-1" d="m160.54,67.83c.18,0,.32-.12.32-.26s-.14-.26-.32-.26-.32.12-.32.26.14.26.32.26Z"/>
        <path class="cls-1" d="m160.54,73.01c.18,0,.32-.12.32-.26s-.14-.26-.32-.26-.32.12-.32.26.14.26.32.26Z"/>
        <path class="cls-1" d="m160.54,78.19c.18,0,.32-.12.32-.26s-.14-.26-.32-.26-.32.12-.32.26.14.26.32.26Z"/>
        <path class="cls-1" d="m160.54,83.37c.18,0,.32-.12.32-.26s-.14-.26-.32-.26-.32.12-.32.26.14.26.32.26Z"/>
        <path class="cls-1" d="m160.54,88.55c.18,0,.32-.12.32-.26s-.14-.26-.32-.26-.32.12-.32.26.14.26.32.26Z"/>
        <path class="cls-1" d="m160.54,93.73c.18,0,.32-.12.32-.26s-.14-.26-.32-.26-.32.12-.32.26.14.26.32.26Z"/>
        <path class="cls-1" d="m160.54,98.91c.18,0,.32-.12.32-.26s-.14-.26-.32-.26-.32.12-.32.26.14.26.32.26Z"/>
        <path class="cls-1" d="m160.54,104.08c.18,0,.32-.12.32-.26s-.14-.26-.32-.26-.32.12-.32.26.14.26.32.26Z"/>
        <path class="cls-1" d="m160.54,109.26c.18,0,.32-.12.32-.26s-.14-.26-.32-.26-.32.12-.32.26.14.26.32.26Z"/>
        <path class="cls-1" d="m160.54,114.44c.18,0,.32-.12.32-.26s-.14-.26-.32-.26-.32.12-.32.26.14.26.32.26Z"/>
        <path class="cls-1" d="m160.54,119.62c.18,0,.32-.12.32-.26s-.14-.26-.32-.26-.32.12-.32.26.14.26.32.26Z"/>
        <path class="cls-1" d="m154.13.52c.18,0,.32-.12.32-.26s-.14-.26-.32-.26-.32.12-.32.26.14.26.32.26Z"/>
        <path class="cls-1" d="m154.13,5.69c.18,0,.32-.12.32-.26s-.14-.26-.32-.26-.32.12-.32.26.14.26.32.26Z"/>
        <path class="cls-1" d="m154.13,10.87c.18,0,.32-.12.32-.26s-.14-.26-.32-.26-.32.12-.32.26.14.26.32.26Z"/>
        <path class="cls-1" d="m154.13,16.05c.18,0,.32-.12.32-.26s-.14-.26-.32-.26-.32.12-.32.26.14.26.32.26Z"/>
        <path class="cls-1" d="m154.13,21.23c.18,0,.32-.12.32-.26s-.14-.26-.32-.26-.32.12-.32.26.14.26.32.26Z"/>
        <path class="cls-1" d="m154.13,26.41c.18,0,.32-.12.32-.26s-.14-.26-.32-.26-.32.12-.32.26.14.26.32.26Z"/>
        <path class="cls-1" d="m154.13,31.59c.18,0,.32-.12.32-.26s-.14-.26-.32-.26-.32.12-.32.26.14.26.32.26Z"/>
        <path class="cls-1" d="m154.13,36.76c.18,0,.32-.12.32-.26s-.14-.26-.32-.26-.32.12-.32.26.14.26.32.26Z"/>
        <path class="cls-1" d="m154.13,41.94c.18,0,.32-.12.32-.26s-.14-.26-.32-.26-.32.12-.32.26.14.26.32.26Z"/>
        <path class="cls-1" d="m154.13,47.12c.18,0,.32-.12.32-.26s-.14-.26-.32-.26-.32.12-.32.26.14.26.32.26Z"/>
        <path class="cls-1" d="m154.13,52.3c.18,0,.32-.12.32-.26s-.14-.26-.32-.26-.32.12-.32.26.14.26.32.26Z"/>
        <path class="cls-1" d="m154.13,57.48c.18,0,.32-.12.32-.26s-.14-.26-.32-.26-.32.12-.32.26.14.26.32.26Z"/>
        <path class="cls-1" d="m154.13,62.66c.18,0,.32-.12.32-.26s-.14-.26-.32-.26-.32.12-.32.26.14.26.32.26Z"/>
        <path class="cls-1" d="m154.13,67.83c.18,0,.32-.12.32-.26s-.14-.26-.32-.26-.32.12-.32.26.14.26.32.26Z"/>
        <path class="cls-1" d="m154.13,73.01c.18,0,.32-.12.32-.26s-.14-.26-.32-.26-.32.12-.32.26.14.26.32.26Z"/>
        <path class="cls-1" d="m154.13,78.19c.18,0,.32-.12.32-.26s-.14-.26-.32-.26-.32.12-.32.26.14.26.32.26Z"/>
        <path class="cls-1" d="m154.13,83.37c.18,0,.32-.12.32-.26s-.14-.26-.32-.26-.32.12-.32.26.14.26.32.26Z"/>
        <path class="cls-1" d="m154.13,88.55c.18,0,.32-.12.32-.26s-.14-.26-.32-.26-.32.12-.32.26.14.26.32.26Z"/>
        <path class="cls-1" d="m154.13,93.73c.18,0,.32-.12.32-.26s-.14-.26-.32-.26-.32.12-.32.26.14.26.32.26Z"/>
        <path class="cls-1" d="m154.13,98.91c.18,0,.32-.12.32-.26s-.14-.26-.32-.26-.32.12-.32.26.14.26.32.26Z"/>
        <path class="cls-1" d="m154.13,104.08c.18,0,.32-.12.32-.26s-.14-.26-.32-.26-.32.12-.32.26.14.26.32.26Z"/>
        <path class="cls-1" d="m154.13,109.26c.18,0,.32-.12.32-.26s-.14-.26-.32-.26-.32.12-.32.26.14.26.32.26Z"/>
        <path class="cls-1" d="m154.13,114.44c.18,0,.32-.12.32-.26s-.14-.26-.32-.26-.32.12-.32.26.14.26.32.26Z"/>
        <path class="cls-1" d="m154.13,119.62c.18,0,.32-.12.32-.26s-.14-.26-.32-.26-.32.12-.32.26.14.26.32.26Z"/>
        <ellipse class="cls-1" cx="147.73" cy=".26" rx=".32" ry=".26"/>
        <path class="cls-1" d="m147.73,5.69c.18,0,.32-.12.32-.26s-.14-.26-.32-.26-.32.12-.32.26.14.26.32.26Z"/>
        <ellipse class="cls-1" cx="147.73" cy="10.61" rx=".32" ry=".26"/>
        <path class="cls-1" d="m147.73,16.05c.18,0,.32-.12.32-.26s-.14-.26-.32-.26-.32.12-.32.26.14.26.32.26Z"/>
        <path class="cls-1" d="m147.73,21.23c.18,0,.32-.12.32-.26s-.14-.26-.32-.26-.32.12-.32.26.14.26.32.26Z"/>
        <path class="cls-1" d="m147.73,26.41c.18,0,.32-.12.32-.26s-.14-.26-.32-.26-.32.12-.32.26.14.26.32.26Z"/>
        <path class="cls-1" d="m147.73,31.59c.18,0,.32-.12.32-.26s-.14-.26-.32-.26-.32.12-.32.26.14.26.32.26Z"/>
        <path class="cls-1" d="m147.73,36.76c.18,0,.32-.12.32-.26s-.14-.26-.32-.26-.32.12-.32.26.14.26.32.26Z"/>
        <ellipse class="cls-1" cx="147.73" cy="41.69" rx=".32" ry=".26"/>
        <path class="cls-1" d="m147.73,47.12c.18,0,.32-.12.32-.26s-.14-.26-.32-.26-.32.12-.32.26.14.26.32.26Z"/>
        <path class="cls-1" d="m147.73,52.3c.18,0,.32-.12.32-.26s-.14-.26-.32-.26-.32.12-.32.26.14.26.32.26Z"/>
        <path class="cls-1" d="m147.73,57.48c.18,0,.32-.12.32-.26s-.14-.26-.32-.26-.32.12-.32.26.14.26.32.26Z"/>
        <path class="cls-1" d="m147.73,62.66c.18,0,.32-.12.32-.26s-.14-.26-.32-.26-.32.12-.32.26.14.26.32.26Z"/>
        <path class="cls-1" d="m147.73,67.83c.18,0,.32-.12.32-.26s-.14-.26-.32-.26-.32.12-.32.26.14.26.32.26Z"/>
        <ellipse class="cls-1" cx="147.73" cy="72.76" rx=".32" ry=".26"/>
        <path class="cls-1" d="m147.73,78.19c.18,0,.32-.12.32-.26s-.14-.26-.32-.26-.32.12-.32.26.14.26.32.26Z"/>
        <ellipse class="cls-1" cx="147.73" cy="83.11" rx=".32" ry=".26"/>
        <path class="cls-1" d="m147.73,88.55c.18,0,.32-.12.32-.26s-.14-.26-.32-.26-.32.12-.32.26.14.26.32.26Z"/>
        <path class="cls-1" d="m147.73,93.73c.18,0,.32-.12.32-.26s-.14-.26-.32-.26-.32.12-.32.26.14.26.32.26Z"/>
        <path class="cls-1" d="m147.73,98.91c.18,0,.32-.12.32-.26s-.14-.26-.32-.26-.32.12-.32.26.14.26.32.26Z"/>
        <ellipse class="cls-1" cx="147.73" cy="103.83" rx=".32" ry=".26"/>
        <path class="cls-1" d="m147.73,109.26c.18,0,.32-.12.32-.26s-.14-.26-.32-.26-.32.12-.32.26.14.26.32.26Z"/>
        <path class="cls-1" d="m147.73,114.44c.18,0,.32-.12.32-.26s-.14-.26-.32-.26-.32.12-.32.26.14.26.32.26Z"/>
        <path class="cls-1" d="m147.73,119.62c.18,0,.32-.12.32-.26s-.14-.26-.32-.26-.32.12-.32.26.14.26.32.26Z"/>
        <ellipse class="cls-1" cx="141.33" cy=".26" rx=".32" ry=".26"/>
        <path class="cls-1" d="m141.33,5.69c.18,0,.32-.12.32-.26s-.14-.26-.32-.26-.32.12-.32.26.14.26.32.26Z"/>
        <ellipse class="cls-1" cx="141.33" cy="10.61" rx=".32" ry=".26"/>
        <path class="cls-1" d="m141.33,16.05c.18,0,.32-.12.32-.26s-.14-.26-.32-.26-.32.12-.32.26.14.26.32.26Z"/>
        <path class="cls-1" d="m141.33,21.23c.18,0,.32-.12.32-.26s-.14-.26-.32-.26-.32.12-.32.26.14.26.32.26Z"/>
        <path class="cls-1" d="m141.33,26.41c.18,0,.32-.12.32-.26s-.14-.26-.32-.26-.32.12-.32.26.14.26.32.26Z"/>
        <path class="cls-1" d="m141.33,31.59c.18,0,.32-.12.32-.26s-.14-.26-.32-.26-.32.12-.32.26.14.26.32.26Z"/>
        <path class="cls-1" d="m141.33,36.76c.18,0,.32-.12.32-.26s-.14-.26-.32-.26-.32.12-.32.26.14.26.32.26Z"/>
        <ellipse class="cls-1" cx="141.33" cy="41.69" rx=".32" ry=".26"/>
        <path class="cls-1" d="m141.33,47.12c.18,0,.32-.12.32-.26s-.14-.26-.32-.26-.32.12-.32.26.14.26.32.26Z"/>
        <path class="cls-1" d="m141.33,52.3c.18,0,.32-.12.32-.26s-.14-.26-.32-.26-.32.12-.32.26.14.26.32.26Z"/>
        <path class="cls-1" d="m141.33,57.48c.18,0,.32-.12.32-.26s-.14-.26-.32-.26-.32.12-.32.26.14.26.32.26Z"/>
        <path class="cls-1" d="m141.33,62.66c.18,0,.32-.12.32-.26s-.14-.26-.32-.26-.32.12-.32.26.14.26.32.26Z"/>
        <path class="cls-1" d="m141.33,67.83c.18,0,.32-.12.32-.26s-.14-.26-.32-.26-.32.12-.32.26.14.26.32.26Z"/>
        <ellipse class="cls-1" cx="141.33" cy="72.76" rx=".32" ry=".26"/>
        <path class="cls-1" d="m141.33,78.19c.18,0,.32-.12.32-.26s-.14-.26-.32-.26-.32.12-.32.26.14.26.32.26Z"/>
        <ellipse class="cls-1" cx="141.33" cy="83.11" rx=".32" ry=".26"/>
        <path class="cls-1" d="m141.33,88.55c.18,0,.32-.12.32-.26s-.14-.26-.32-.26-.32.12-.32.26.14.26.32.26Z"/>
        <path class="cls-1" d="m141.33,93.73c.18,0,.32-.12.32-.26s-.14-.26-.32-.26-.32.12-.32.26.14.26.32.26Z"/>
        <path class="cls-1" d="m141.33,98.91c.18,0,.32-.12.32-.26s-.14-.26-.32-.26-.32.12-.32.26.14.26.32.26Z"/>
        <ellipse class="cls-1" cx="141.33" cy="103.83" rx=".32" ry=".26"/>
        <path class="cls-1" d="m141.33,109.26c.18,0,.32-.12.32-.26s-.14-.26-.32-.26-.32.12-.32.26.14.26.32.26Z"/>
        <path class="cls-1" d="m141.33,114.44c.18,0,.32-.12.32-.26s-.14-.26-.32-.26-.32.12-.32.26.14.26.32.26Z"/>
        <path class="cls-1" d="m141.33,119.62c.18,0,.32-.12.32-.26s-.14-.26-.32-.26-.32.12-.32.26.14.26.32.26Z"/>
        <path class="cls-1" d="m134.93.52c.18,0,.32-.12.32-.26s-.14-.26-.32-.26-.32.12-.32.26.14.26.32.26Z"/>
        <path class="cls-1" d="m134.93,5.69c.18,0,.32-.12.32-.26s-.14-.26-.32-.26-.32.12-.32.26.14.26.32.26Z"/>
        <path class="cls-1" d="m134.93,10.87c.18,0,.32-.12.32-.26s-.14-.26-.32-.26-.32.12-.32.26.14.26.32.26Z"/>
        <path class="cls-1" d="m134.93,16.05c.18,0,.32-.12.32-.26s-.14-.26-.32-.26-.32.12-.32.26.14.26.32.26Z"/>
        <path class="cls-1" d="m134.93,21.23c.18,0,.32-.12.32-.26s-.14-.26-.32-.26-.32.12-.32.26.14.26.32.26Z"/>
        <path class="cls-1" d="m134.93,26.41c.18,0,.32-.12.32-.26s-.14-.26-.32-.26-.32.12-.32.26.14.26.32.26Z"/>
        <path class="cls-1" d="m134.93,31.59c.18,0,.32-.12.32-.26s-.14-.26-.32-.26-.32.12-.32.26.14.26.32.26Z"/>
        <path class="cls-1" d="m134.93,36.76c.18,0,.32-.12.32-.26s-.14-.26-.32-.26-.32.12-.32.26.14.26.32.26Z"/>
        <path class="cls-1" d="m134.93,41.94c.18,0,.32-.12.32-.26s-.14-.26-.32-.26-.32.12-.32.26.14.26.32.26Z"/>
        <path class="cls-1" d="m134.93,47.12c.18,0,.32-.12.32-.26s-.14-.26-.32-.26-.32.12-.32.26.14.26.32.26Z"/>
        <path class="cls-1" d="m134.93,52.3c.18,0,.32-.12.32-.26s-.14-.26-.32-.26-.32.12-.32.26.14.26.32.26Z"/>
        <path class="cls-1" d="m134.93,57.48c.18,0,.32-.12.32-.26s-.14-.26-.32-.26-.32.12-.32.26.14.26.32.26Z"/>
        <path class="cls-1" d="m134.93,62.66c.18,0,.32-.12.32-.26s-.14-.26-.32-.26-.32.12-.32.26.14.26.32.26Z"/>
        <path class="cls-1" d="m134.93,67.83c.18,0,.32-.12.32-.26s-.14-.26-.32-.26-.32.12-.32.26.14.26.32.26Z"/>
        <path class="cls-1" d="m134.93,73.01c.18,0,.32-.12.32-.26s-.14-.26-.32-.26-.32.12-.32.26.14.26.32.26Z"/>
        <path class="cls-1" d="m134.93,78.19c.18,0,.32-.12.32-.26s-.14-.26-.32-.26-.32.12-.32.26.14.26.32.26Z"/>
        <path class="cls-1" d="m134.93,83.37c.18,0,.32-.12.32-.26s-.14-.26-.32-.26-.32.12-.32.26.14.26.32.26Z"/>
        <path class="cls-1" d="m134.93,88.55c.18,0,.32-.12.32-.26s-.14-.26-.32-.26-.32.12-.32.26.14.26.32.26Z"/>
        <path class="cls-1" d="m134.93,93.73c.18,0,.32-.12.32-.26s-.14-.26-.32-.26-.32.12-.32.26.14.26.32.26Z"/>
        <path class="cls-1" d="m134.93,98.91c.18,0,.32-.12.32-.26s-.14-.26-.32-.26-.32.12-.32.26.14.26.32.26Z"/>
        <path class="cls-1" d="m134.93,104.08c.18,0,.32-.12.32-.26s-.14-.26-.32-.26-.32.12-.32.26.14.26.32.26Z"/>
        <path class="cls-1" d="m134.93,109.26c.18,0,.32-.12.32-.26s-.14-.26-.32-.26-.32.12-.32.26.14.26.32.26Z"/>
        <path class="cls-1" d="m134.93,114.44c.18,0,.32-.12.32-.26s-.14-.26-.32-.26-.32.12-.32.26.14.26.32.26Z"/>
        <path class="cls-1" d="m134.93,119.62c.18,0,.32-.12.32-.26s-.14-.26-.32-.26-.32.12-.32.26.14.26.32.26Z"/>
        <path class="cls-1" d="m128.53.52c.18,0,.32-.12.32-.26s-.14-.26-.32-.26-.32.12-.32.26.14.26.32.26Z"/>
        <path class="cls-1" d="m128.53,5.69c.18,0,.32-.12.32-.26s-.14-.26-.32-.26-.32.12-.32.26.14.26.32.26Z"/>
        <path class="cls-1" d="m128.53,10.87c.18,0,.32-.12.32-.26s-.14-.26-.32-.26-.32.12-.32.26.14.26.32.26Z"/>
        <path class="cls-1" d="m128.53,16.05c.18,0,.32-.12.32-.26s-.14-.26-.32-.26-.32.12-.32.26.14.26.32.26Z"/>
        <path class="cls-1" d="m128.53,21.23c.18,0,.32-.12.32-.26s-.14-.26-.32-.26-.32.12-.32.26.14.26.32.26Z"/>
        <path class="cls-1" d="m128.53,26.41c.18,0,.32-.12.32-.26s-.14-.26-.32-.26-.32.12-.32.26.14.26.32.26Z"/>
        <path class="cls-1" d="m128.53,31.59c.18,0,.32-.12.32-.26s-.14-.26-.32-.26-.32.12-.32.26.14.26.32.26Z"/>
        <path class="cls-1" d="m128.53,36.76c.18,0,.32-.12.32-.26s-.14-.26-.32-.26-.32.12-.32.26.14.26.32.26Z"/>
        <path class="cls-1" d="m128.53,41.94c.18,0,.32-.12.32-.26s-.14-.26-.32-.26-.32.12-.32.26.14.26.32.26Z"/>
        <path class="cls-1" d="m128.53,47.12c.18,0,.32-.12.32-.26s-.14-.26-.32-.26-.32.12-.32.26.14.26.32.26Z"/>
        <path class="cls-1" d="m128.53,52.3c.18,0,.32-.12.32-.26s-.14-.26-.32-.26-.32.12-.32.26.14.26.32.26Z"/>
        <path class="cls-1" d="m128.53,57.48c.18,0,.32-.12.32-.26s-.14-.26-.32-.26-.32.12-.32.26.14.26.32.26Z"/>
        <path class="cls-1" d="m128.53,62.66c.18,0,.32-.12.32-.26s-.14-.26-.32-.26-.32.12-.32.26.14.26.32.26Z"/>
        <path class="cls-1" d="m128.53,67.83c.18,0,.32-.12.32-.26s-.14-.26-.32-.26-.32.12-.32.26.14.26.32.26Z"/>
        <path class="cls-1" d="m128.53,73.01c.18,0,.32-.12.32-.26s-.14-.26-.32-.26-.32.12-.32.26.14.26.32.26Z"/>
        <path class="cls-1" d="m128.53,78.19c.18,0,.32-.12.32-.26s-.14-.26-.32-.26-.32.12-.32.26.14.26.32.26Z"/>
        <path class="cls-1" d="m128.53,83.37c.18,0,.32-.12.32-.26s-.14-.26-.32-.26-.32.12-.32.26.14.26.32.26Z"/>
        <path class="cls-1" d="m128.53,88.55c.18,0,.32-.12.32-.26s-.14-.26-.32-.26-.32.12-.32.26.14.26.32.26Z"/>
        <path class="cls-1" d="m128.53,93.73c.18,0,.32-.12.32-.26s-.14-.26-.32-.26-.32.12-.32.26.14.26.32.26Z"/>
        <path class="cls-1" d="m128.53,98.91c.18,0,.32-.12.32-.26s-.14-.26-.32-.26-.32.12-.32.26.14.26.32.26Z"/>
        <path class="cls-1" d="m128.53,104.08c.18,0,.32-.12.32-.26s-.14-.26-.32-.26-.32.12-.32.26.14.26.32.26Z"/>
        <path class="cls-1" d="m128.53,109.26c.18,0,.32-.12.32-.26s-.14-.26-.32-.26-.32.12-.32.26.14.26.32.26Z"/>
        <path class="cls-1" d="m128.53,114.44c.18,0,.32-.12.32-.26s-.14-.26-.32-.26-.32.12-.32.26.14.26.32.26Z"/>
        <path class="cls-1" d="m128.53,119.62c.18,0,.32-.12.32-.26s-.14-.26-.32-.26-.32.12-.32.26.14.26.32.26Z"/>
      </g>
    </g>
  </g>
  <g>
    <g>
      <path class="cls-2" d="m99.93,102.38L.48,188.14h364.94l-99.46-85.76H99.93Zm121.9,26.82c.46,1.17.43,2.34-.08,3.47-.74,1.67-2.49,3.26-5.11,4.69-2.07,1.13-4.67,2.16-7.73,3.04-4.03,1.16-8.82,2.07-14.14,2.61-3.74.38-7.71.59-11.83.59s-8.09-.21-11.83-.59c-5.32-.55-10.11-1.45-14.14-2.61-3.06-.88-5.66-1.91-7.73-3.04-2.62-1.43-4.37-3.02-5.11-4.69-.5-1.13-.54-2.29-.08-3.47.45-1.15,1.36-2.23,2.63-3.24,1.78-1.41,4.3-2.68,7.35-3.76,2.3-.82,4.91-1.53,7.75-2.12,3.62-.76,7.65-1.32,11.92-1.66,2.96-.23,6.05-.36,9.24-.36s6.28.12,9.24.36c4.27.34,8.3.9,11.92,1.66,2.84.59,5.45,1.31,7.75,2.12,3.04,1.08,5.56,2.35,7.35,3.76,1.28,1.01,2.18,2.09,2.63,3.24Z"/>
      <line class="cls-2" x1="18.4" y1="172.68" x2="347.49" y2="172.68"/>
      <line class="cls-2" x1="33.12" y1="159.99" x2="332.77" y2="159.99"/>
      <line class="cls-2" x1="45.42" y1="149.39" x2="320.47" y2="149.39"/>
      <polyline class="cls-2" points="310.04 140.39 286.93 140.39 263.82 140.39 240.72 140.39 217.61 140.39 208.92 140.39"/>
      <polyline class="cls-2" points="156.97 140.39 148.28 140.39 125.17 140.39 102.07 140.39 78.96 140.39 55.85 140.39"/>
      <polyline class="cls-2" points="301.08 132.66 279.6 132.66 258.12 132.66 236.64 132.66 221.75 132.66"/>
      <polyline class="cls-2" points="144.13 132.66 129.25 132.66 107.77 132.66 86.29 132.66 64.81 132.66"/>
      <polyline class="cls-2" points="293.3 125.95 273.23 125.95 253.17 125.95 233.1 125.95 219.2 125.95"/>
      <polyline class="cls-2" points="146.69 125.95 132.78 125.95 112.72 125.95 92.66 125.95 72.59 125.95"/>
      <polyline class="cls-2" points="204.1 120.07 211.18 120.07 230 120.07 248.83 120.07 267.65 120.07 286.48 120.07"/>
      <polyline class="cls-2" points="161.79 120.07 154.71 120.07 135.89 120.07 117.06 120.07 98.24 120.07 79.41 120.07"/>
      <line class="cls-2" x1="85.44" y1="114.88" x2="280.45" y2="114.88"/>
      <line class="cls-2" x1="90.8" y1="110.25" x2="275.09" y2="110.25"/>
      <line class="cls-2" x1="95.61" y1="106.11" x2="270.28" y2="106.11"/>
      <line class="cls-2" x1="250.86" y1="102.38" x2="332.24" y2="188.14"/>
      <line class="cls-2" x1="235.77" y1="102.38" x2="299.06" y2="188.14"/>
      <line class="cls-2" x1="220.68" y1="102.38" x2="265.88" y2="188.14"/>
      <polyline class="cls-2" points="205.58 102.38 206.76 106.11 208.08 110.25 209.54 114.88 211.18 120.07 211.85 122.2"/>
      <polyline class="cls-2" points="216.65 137.35 217.61 140.39 220.45 149.39 223.81 159.99 227.82 172.68 232.71 188.14"/>
      <polyline class="cls-2" points="199.53 188.14 197.9 172.68 196.56 159.99 195.45 149.39 194.77 143"/>
      <polyline class="cls-2" points="190.49 102.38 190.88 106.11 191.32 110.25 191.81 114.88 192.18 118.41"/>
      <polyline class="cls-2" points="166.36 188.14 167.99 172.68 169.32 159.99 170.44 149.39 171.12 143"/>
      <polyline class="cls-2" points="173.71 118.41 174.08 114.88 174.57 110.25 175.01 106.11 175.4 102.38"/>
      <polyline class="cls-2" points="133.18 188.14 138.07 172.68 142.08 159.99 145.44 149.39 148.28 140.39 149.24 137.35"/>
      <polyline class="cls-2" points="154.04 122.2 154.71 120.07 156.35 114.88 157.81 110.25 159.12 106.11 160.3 102.38"/>
      <line class="cls-2" x1="145.21" y1="102.38" x2="100" y2="188.14"/>
      <line class="cls-2" x1="130.12" y1="102.38" x2="66.83" y2="188.14"/>
      <line class="cls-2" x1="115.03" y1="102.38" x2="33.65" y2="188.14"/>
    </g>
    <g>
      <g>
        <ellipse class="cls-2" cx="182.94" cy="77.73" rx="50.56" ry="7.57"/>
        <ellipse class="cls-2" cx="182.94" cy="77.73" rx="50.56" ry="16.16"/>
        <ellipse class="cls-2" cx="182.94" cy="77.73" rx="50.56" ry="24.76"/>
        <ellipse class="cls-2" cx="182.94" cy="77.73" rx="50.56" ry="33.36"/>
        <ellipse class="cls-2" cx="182.94" cy="77.73" rx="50.56" ry="41.96"/>
        <circle class="cls-2" cx="182.94" cy="77.73" r="50.56"/>
      </g>
      <g>
        <ellipse class="cls-2" cx="182.94" cy="77.73" rx="7.57" ry="50.56"/>
        <ellipse class="cls-2" cx="182.94" cy="77.73" rx="16.16" ry="50.56"/>
        <ellipse class="cls-2" cx="182.94" cy="77.73" rx="24.76" ry="50.56"/>
        <ellipse class="cls-2" cx="182.94" cy="77.73" rx="33.36" ry="50.56"/>
        <ellipse class="cls-2" cx="182.94" cy="77.73" rx="41.96" ry="50.56"/>
        <circle class="cls-2" cx="182.94" cy="77.73" r="50.56" transform="translate(-1.38 152.13) rotate(-45)"/>
      </g>
    </g>
  </g>
</svg>