<?xml version="1.0" encoding="UTF-8"?>
<svg id="Layer_1" data-name="Layer 1" xmlns="http://www.w3.org/2000/svg" viewBox="0 0 935.28 248.65">
  <defs>
    <style>
      .cls-1 {
        opacity: .88;
      }

      .cls-1, .cls-2, .cls-3, .cls-4, .cls-5, .cls-6 {
        fill: #fff;
      }

      .cls-7, .cls-8, .cls-6 {
        opacity: .22;
      }

      .cls-7, .cls-9, .cls-10 {
        fill: #ffe100;
      }

      .cls-11, .cls-5 {
        opacity: .44;
      }

      .cls-3, .cls-9 {
        opacity: .55;
      }

      .cls-4 {
        opacity: .77;
      }
    </style>
  </defs>
  <polyline class="cls-10" points="1.33 161.16 75.2 235.03 260.26 235.03 305.32 189.98 450.25 189.98 450.25 191.85 306.09 191.85 261.04 236.91 74.42 236.91 74.15 236.63 0 162.48"/>
  <g class="cls-11">
    <polygon class="cls-10" points="402.38 170.27 458.15 170.27 458.42 170.54 496.63 208.75 518.77 208.75 518.77 210.63 495.85 210.63 495.58 210.35 457.37 172.14 402.38 172.14 402.38 170.27"/>
  </g>
  <polygon class="cls-2" points="265.35 223.69 257.84 231.2 169.61 231.2 163.04 224.63 265.35 223.69"/>
  <polygon class="cls-2" points="122.72 228.11 162.22 228.11 162.22 229.05 123.11 229.05 119.79 232.37 119.12 231.71 122.72 228.11"/>
  <rect class="cls-2" x="76.69" y="225.17" width="20.18" height=".94"/>
  <polyline class="cls-2" points="68.83 217.31 89.01 217.31 89.01 218.25 68.83 218.25"/>
  <polyline class="cls-2" points="60.97 209.45 81.15 209.45 81.15 210.39 60.97 210.39"/>
  <g>
    <g>
      <polygon class="cls-3" points="307.72 194.44 300.95 201.2 323.36 201.2 323.36 194.44 307.72 194.44"/>
      <rect class="cls-10" x="323.36" y="194.44" width="41.85" height="6.77"/>
      <rect class="cls-9" x="353.44" y="201.2" width="11.77" height="1.53"/>
    </g>
    <g>
      <path class="cls-10" d="m362.89,199.12v-3.39h.82v3.39h-.82Zm-.23-.75v.75h-1.49l-.28-.34v-2.7l.28-.35h1.49v.75h-.96v1.89h.96Z"/>
      <path class="cls-2" d="m360.13,199.12h-1.04v-.75h.51v-1.89h-.51v-.75h1.04l.28.35v2.69l-.28.34Zm-1.28-.75v.75h-1.05l-.28-.34v-2.7l.28-.35h1.05v.75h-.58v1.89h.58Z"/>
      <path class="cls-2" d="m357.2,199.12h-3.06v-.75h3.06v.75Zm-1.13-3.39v2.4h-.82v-2.4h.82Z"/>
      <path class="cls-2" d="m352.78,197.79h-1.45v-.75h1.45v.75Z"/>
      <path class="cls-2" d="m349.64,199.78h-.89v-.56h.36v-3.58h-.36v-.56h.89l.19.26v4.2l-.19.25Z"/>
      <path class="cls-2" d="m348.35,199.12h-1.04v-.75h.51v-1.89h-.51v-.75h1.04l.28.35v2.69l-.28.34Zm-1.28-.75v.75h-1.05l-.28-.34v-2.7l.28-.35h1.05v.75h-.58v1.89h.58Z"/>
      <path class="cls-2" d="m345,199.12h-1.04v-.75h.51v-1.89h-.51v-.75h1.04l.28.35v2.69l-.28.34Zm-1.28-.75v.75h-1.05l-.28-.34v-2.7l.28-.35h1.05v.75h-.58v1.89h.58Z"/>
      <path class="cls-2" d="m341.64,199.12h-1.04v-.75h.51v-1.89h-.51v-.75h1.04l.28.35v2.69l-.28.34Zm-1.28-.75v.75h-1.05l-.28-.34v-2.7l.28-.35h1.05v.75h-.58v1.89h.58Z"/>
      <path class="cls-2" d="m337.84,199.53v-4.2l.19-.26h.89v.56h-.36v3.58h.36v.56h-.89l-.19-.25Z"/>
    </g>
    <g>
      <path class="cls-2" d="m319.56,196.49v-.75h1.24v.75h-.21v1.89h.21v.56l-.6.19h-.43v-2.64h-.21Z"/>
      <path class="cls-2" d="m317.62,197.5v-.75h1.65v.91l-1.56,1.48h-1.14v-.76h.84l1.1-.88h-.88Zm-1.05.64v-.64h-.62v-.75h.62v-1.01h.82v2.4h-.82Z"/>
    </g>
    <polygon class="cls-2" points="304.12 201.2 310.89 194.44 307.72 194.44 300.95 201.2 304.12 201.2"/>
  </g>
  <path class="cls-5" d="m452.6,190.92c0,1.3-1.05,2.35-2.35,2.35s-2.35-1.05-2.35-2.35,1.05-2.35,2.35-2.35,2.35,1.05,2.35,2.35Z"/>
  <circle class="cls-2" cx="518.77" cy="209.69" r="2.35"/>
  <circle class="cls-5" cx="402.38" cy="171.21" r="2.35"/>
  <path class="cls-5" d="m361.67,141.56c0,1.3-1.05,2.35-2.35,2.35s-2.35-1.05-2.35-2.35,1.05-2.35,2.35-2.35,2.35,1.05,2.35,2.35Z"/>
  <circle class="cls-5" cx="458.7" cy="153.37" r="2.35"/>
  <g class="cls-11">
    <polygon class="cls-2" points="359.32 140.23 390.57 140.23 402.77 152.43 458.7 152.43 458.7 154.31 401.99 154.31 389.79 142.11 359.32 142.11 359.32 140.23"/>
  </g>
  <polygon class="cls-5" points="394.09 138.67 404.57 149.15 417.24 149.15 406.76 138.67 394.09 138.67"/>
  <polygon class="cls-5" points="411.45 138.67 421.93 149.15 434.61 149.15 424.12 138.67 411.45 138.67"/>
  <polygon class="cls-5" points="428.82 138.67 439.3 149.15 451.97 149.15 441.49 138.67 428.82 138.67"/>
  <g class="cls-11">
    <polygon class="cls-2" points="417.75 132.96 431.44 132.96 434.39 135.91 433.73 136.57 431.05 133.9 417.75 133.9 417.75 132.96"/>
  </g>
  <g class="cls-11">
    <polygon class="cls-2" points="400.86 132.96 414.54 132.96 417.5 135.91 416.83 136.57 414.15 133.9 400.86 133.9 400.86 132.96"/>
  </g>
  <g class="cls-11">
    <polygon class="cls-2" points="383.96 132.96 397.65 132.96 400.6 135.91 399.94 136.57 397.26 133.9 383.96 133.9 383.96 132.96"/>
  </g>
  <polygon class="cls-3" points="417.75 130.65 429.81 130.65 431.09 132.1 417.75 132.1 417.75 130.65"/>
  <polygon class="cls-4" points="400.86 130.65 412.91 130.65 414.19 132.1 400.86 132.1 400.86 130.65"/>
  <polygon class="cls-1" points="383.96 130.65 396.02 130.65 397.3 132.1 383.96 132.1 383.96 130.65"/>
  <polygon class="cls-5" points="304.38 190.92 309.08 186.22 376.77 186.22 379.76 183.23 406.2 183.23 413.87 190.9 304.38 190.92"/>
  <polygon class="cls-5" points="396.28 147.27 385.64 147.27 379.31 140.94 389.71 140.94 396.28 147.27"/>
  <g>
    <g>
      <path class="cls-2" d="m189.27,240.26h8.39v8.39h-8.39v-8.39Zm7.68.7h-6.98v6.98h6.98v-6.98Z"/>
      <rect class="cls-2" x="191.34" y="242.33" width="4.26" height="4.26" transform="translate(386.93 488.91) rotate(180)"/>
    </g>
    <g>
      <rect class="cls-10" x="246.57" y="242.3" width="1.25" height="4.31" transform="translate(494.4 488.91) rotate(180)"/>
      <rect class="cls-2" x="238.99" y="242.3" width="1.25" height="4.31" transform="translate(479.23 488.91) rotate(180)"/>
      <rect class="cls-2" x="231.4" y="242.3" width="1.25" height="4.31" transform="translate(464.05 488.91) rotate(180)"/>
      <rect class="cls-2" x="223.81" y="242.3" width="1.25" height="4.31" transform="translate(448.88 488.91) rotate(180)"/>
      <rect class="cls-2" x="216.23" y="242.3" width="1.25" height="4.31" transform="translate(433.71 488.91) rotate(180)"/>
      <rect class="cls-2" x="208.64" y="242.3" width="1.25" height="4.31" transform="translate(418.53 488.91) rotate(180)"/>
      <rect class="cls-2" x="201.05" y="242.3" width="1.25" height="4.31" transform="translate(403.36 488.91) rotate(180)"/>
      <rect class="cls-2" x="185.88" y="242.3" width="1.25" height="4.31" transform="translate(373.01 488.91) rotate(180)"/>
      <rect class="cls-2" x="178.29" y="242.3" width="1.25" height="4.31" transform="translate(357.84 488.91) rotate(180)"/>
      <rect class="cls-2" x="170.71" y="242.3" width="1.25" height="4.31" transform="translate(342.66 488.91) rotate(180)"/>
      <rect class="cls-2" x="163.12" y="242.3" width="1.25" height="4.31" transform="translate(327.49 488.91) rotate(180)"/>
      <rect class="cls-2" x="155.53" y="242.3" width="1.25" height="4.31" transform="translate(312.31 488.91) rotate(180)"/>
      <rect class="cls-2" x="147.94" y="242.3" width="1.25" height="4.31" transform="translate(297.14 488.91) rotate(180)"/>
      <rect class="cls-2" x="140.36" y="242.3" width="1.25" height="4.31" transform="translate(281.97 488.91) rotate(180)"/>
      <rect class="cls-2" x="132.77" y="242.3" width="1.25" height="4.31" transform="translate(266.79 488.91) rotate(180)"/>
      <rect class="cls-2" x="125.18" y="242.3" width="1.25" height="4.31" transform="translate(251.62 488.91) rotate(180)"/>
      <rect class="cls-2" x="117.6" y="242.3" width="1.25" height="4.31" transform="translate(236.44 488.91) rotate(180)"/>
      <rect class="cls-2" x="110.01" y="242.3" width="1.25" height="4.31" transform="translate(221.27 488.91) rotate(180)"/>
      <rect class="cls-2" x="102.42" y="242.3" width="1.25" height="4.31" transform="translate(206.1 488.91) rotate(180)"/>
      <rect class="cls-2" x="94.84" y="242.3" width="1.25" height="4.31" transform="translate(190.92 488.91) rotate(180)"/>
      <rect class="cls-2" x="87.25" y="242.3" width="1.25" height="4.31" transform="translate(175.75 488.91) rotate(180)"/>
    </g>
  </g>
  <polyline class="cls-2" points="58.27 134.79 126.63 203.15 244.77 203.15 265.01 182.9 265.68 183.56 245.16 204.09 126.24 204.09 57.61 135.46"/>
  <polygon class="cls-2" points="247.2 200.89 123.37 200.89 126.27 203.78 244.96 203.78 247.2 200.89"/>
  <polygon class="cls-3" points="125.18 197.49 118.97 191.27 118.97 182.78 261.44 182.78 257.29 186.93 147.94 186.93 147.94 198.89 126.61 198.89 125.18 197.49"/>
  <polygon class="cls-2" points="147.94 198.89 149.48 197.36 149.48 186.93 147.94 186.93 147.94 198.89"/>
  <polygon class="cls-2" points="118.97 182.78 121.76 179.99 161.64 179.99 162.53 180.87 183.69 180.87 185.57 182.75 118.97 182.78"/>
  <g>
    <path class="cls-2" d="m143.4,196.09h-1.29v-.82h.52v-5.18h-.52v-.82h1.29l.27.37v6.08l-.27.36Z"/>
    <path class="cls-2" d="m141.53,195.14h-1.51v-1.09h.73v-2.73h-.73v-1.09h1.51l.41.51v3.9l-.41.5Zm-1.85-1.09v1.09h-1.52l-.41-.49v-3.92l.41-.5h1.52v1.09h-.84v2.73h.84Z"/>
    <path class="cls-2" d="m137.07,190.22v4.91h-1.18v-4.91h1.18Zm-1.52,3.82v1.09h-2.35v-1.09h2.35Zm0-1.88v1.09h-1.81v-1.09h1.81Z"/>
    <path class="cls-2" d="m132.72,190.22v4.91h-1.18v-4.91h1.18Zm-1.52,3.82v1.09h-2.35v-1.09h2.35Zm0-1.88v1.09h-1.81v-1.09h1.81Z"/>
    <path class="cls-2" d="m127.32,195.73v-6.08l.27-.37h1.29v.82h-.52v5.18h.52v.82h-1.29l-.27-.36Z"/>
  </g>
  <rect class="cls-2" x="134.66" y="184.07" width="11.99" height="2.5" transform="translate(281.31 370.65) rotate(180)"/>
  <rect class="cls-3" x="120.22" y="184.07" width="11.99" height="2.5" transform="translate(252.43 370.65) rotate(180)"/>
  <path class="cls-2" d="m268.92,182.26c0,1.3-1.05,2.35-2.35,2.35s-2.35-1.05-2.35-2.35,1.05-2.35,2.35-2.35,2.35,1.05,2.35,2.35Z"/>
  <polygon class="cls-2" points="150.99 196.55 247.98 196.55 256.12 188.41 150.99 188.41 150.99 196.55"/>
  <g>
    <path class="cls-2" d="m178.35,194.77h-3.94v-.97h3.94v.97Zm-1.45-4.36v3.09h-1.05v-3.09h1.05Z"/>
    <path class="cls-2" d="m173.89,190.41h1l-1.08,3.09h-.75l-.13-.35.96-2.74Zm-1.12,2.13h-.39l.45,1.27h.88l-.34.97h-1.2l-1.53-4.36h.99l.41,1.16h1.07l-.34.97Z"/>
    <path class="cls-2" d="m170.33,190.41v4.36h-1.05v-4.36h1.05Zm-1.35,3.4v.97h-1.87l-.36-.43v-1.75l.3-.37-.41-1.8h1.05l.36,1.49h.93v.97h-1.18v.94h1.18Z"/>
    <path class="cls-2" d="m165.1,191.37h-.69v-.97h1.38l.36.45v3.47l-.36.44h-1.38v-.97h.69v-2.43Zm-2.76-.52l.36-.45h1.4v.97h-.77v.72h.85v.97h-1.84v-2.21Zm1.76,2.95v.97h-1.4l-.36-.43v-.93h.96v.4h.8Z"/>
    <path class="cls-2" d="m161.79,190.41v4.36h-1.05v-4.36h1.05Zm-1.35,3.4v.97h-2.02v-.97h2.02Zm0-1.67v.97h-1.55v-.97h1.55Zm0-1.73v.97h-2.02v-.97h2.02Z"/>
    <path class="cls-2" d="m158.14,194.77h-3.94v-.97h3.94v.97Zm-1.45-4.36v3.09h-1.05v-3.09h1.05Z"/>
    <path class="cls-2" d="m154.36,191.89v.97h-1.05v-.97h1.05Zm0-1.49v.97h-1.05v-.97h1.05Z"/>
  </g>
  <g class="cls-11">
    <rect class="cls-2" x="358.33" y="134.87" width="1.59" height="12.61" transform="translate(5.36 295.28) rotate(-45)"/>
    <rect class="cls-2" x="352.82" y="140.38" width="12.61" height="1.59" transform="translate(5.39 295.36) rotate(-45.01)"/>
    <path class="cls-2" d="m356.46,145.63c0,.99-.81,1.8-1.8,1.8s-1.8-.81-1.8-1.8.81-1.8,1.8-1.8,1.8.81,1.8,1.8Z"/>
    <path class="cls-2" d="m365.38,145.63c0,.99-.81,1.8-1.8,1.8s-1.8-.81-1.8-1.8.81-1.8,1.8-1.8,1.8.81,1.8,1.8Z"/>
    <path class="cls-2" d="m356.46,136.71c0,.99-.81,1.8-1.8,1.8s-1.8-.81-1.8-1.8.81-1.8,1.8-1.8,1.8.81,1.8,1.8Z"/>
    <path class="cls-2" d="m365.38,136.71c0,.99-.81,1.8-1.8,1.8s-1.8-.81-1.8-1.8.81-1.8,1.8-1.8,1.8.81,1.8,1.8Z"/>
  </g>
  <polygon class="cls-2" points="208.41 206.95 243.25 206.95 243.76 205.86 208.41 205.86 208.41 206.95"/>
  <rect class="cls-2" x="208.41" y="208.08" width="5.79" height="4.18" transform="translate(422.6 420.35) rotate(180)"/>
  <rect class="cls-3" x="203.5" y="205.86" width="3.83" height="6.41" transform="translate(410.84 418.12) rotate(180)"/>
  <g>
    <rect class="cls-2" x="203.86" y="211.28" width="3.11" height=".42" transform="translate(410.84 422.97) rotate(180)"/>
    <rect class="cls-2" x="203.86" y="210.06" width="3.11" height=".42" transform="translate(410.84 420.55) rotate(180)"/>
    <rect class="cls-2" x="203.86" y="208.85" width="3.11" height=".42" transform="translate(410.84 418.12) rotate(180)"/>
    <rect class="cls-2" x="203.86" y="207.64" width="3.11" height=".42" transform="translate(410.84 415.7) rotate(180)"/>
    <rect class="cls-2" x="203.86" y="206.43" width="3.11" height=".42" transform="translate(410.84 413.28) rotate(180)"/>
  </g>
  <path class="cls-2" d="m230.77,207.96l.66.66-1.91,1.91h-.19c-13.6.06-13.68.02-13.81-.04l.2-.43.06-.46c.42.03,8.14.02,13.36,0l1.64-1.64Z"/>
  <polyline class="cls-2" points="67.88 226.56 75.41 234.09 87.09 234.09 87.09 237.85 73.86 237.85 65.22 229.21"/>
  <polygon class="cls-10" points="379.11 205.39 387.83 205.39 387.83 206.32 379.5 206.32 372.79 213.03 372.13 212.37 379.11 205.39"/>
  <g>
    <rect class="cls-5" x="294.88" y="161.22" width="46.62" height="1.92"/>
    <rect class="cls-2" x="170.1" y="161.22" width="46.62" height="1.92"/>
    <rect class="cls-2" x="224.32" y="161.94" width="56.23" height=".48"/>
    <path class="cls-2" d="m279.32,162.18c0-.81.66-1.47,1.47-1.47s1.47.66,1.47,1.47-.66,1.47-1.47,1.47-1.47-.66-1.47-1.47Z"/>
    <path class="cls-2" d="m222.85,162.18c0-.81.66-1.47,1.47-1.47s1.47.66,1.47,1.47-.66,1.47-1.47,1.47-1.47-.66-1.47-1.47Z"/>
    <path class="cls-2" d="m216.71,163.14l-2.04,2.04h-23.51l-2.46-2.46s23.37-1.06,23.69-.94c.32.12,4.33,1.36,4.33,1.36Z"/>
    <path class="cls-2" d="m170.1,163.14l-.09-.09-2.31-2.31h-11.84s-1.53-1.41-1.41-1.41h16.55l2.23,2.23-3.12,1.59Z"/>
    <polygon class="cls-5" points="333.81 161.22 336.57 158.46 349.97 158.46 346.98 161.44 334.5 161.44 333.81 161.22"/>
    <rect class="cls-2" x="142.7" y="159.32" width="1.96" height="5.86"/>
    <rect class="cls-5" x="359.04" y="159.32" width="1.96" height="5.86"/>
    <rect class="cls-2" x="131.09" y="159.32" width="1.96" height="5.86"/>
    <rect class="cls-2" x="119.48" y="159.32" width="1.96" height="5.86"/>
  </g>
  <g>
    <rect class="cls-2" x="182.87" y="220.64" width="77.38" height=".6"/>
    <polygon class="cls-2" points="221.66 221.22 225.5 217.38 246.86 217.38 248.56 215.68 258.09 215.68 257.25 216.52 249.6 216.52 247.86 218.26 226.5 218.26 223.53 221.23 221.66 221.22"/>
    <polygon class="cls-2" points="226.01 220.14 227.38 218.77 229.62 218.77 228.26 220.12 226.01 220.14"/>
    <polygon class="cls-2" points="229.62 220.14 230.99 218.77 233.23 218.77 231.87 220.12 229.62 220.14"/>
    <polygon class="cls-2" points="233.23 220.14 234.6 218.77 236.84 218.77 235.48 220.12 233.23 220.14"/>
    <polygon class="cls-2" points="236.84 220.14 238.21 218.77 240.44 218.77 239.09 220.12 236.84 220.14"/>
    <polygon class="cls-2" points="240.44 220.14 241.81 218.77 244.05 218.77 242.7 220.12 240.44 220.14"/>
    <polygon class="cls-2" points="244.05 220.14 245.42 218.77 247.66 218.77 246.3 220.12 244.05 220.14"/>
    <polygon class="cls-2" points="197.45 220.94 196.59 221.8 179.19 221.8 180.37 220.63 186.4 220.63 197.45 220.94"/>
    <polygon class="cls-2" points="263.75 221.38 261.13 218.76 249.07 218.76 249.07 218.37 261.3 218.37 264.03 221.1 263.75 221.38"/>
    <rect class="cls-2" x="206.93" y="222.1" width="53.32" height=".39"/>
    <polygon class="cls-2" points="224.04 219.24 211.63 219.24 210.04 220.82 223.03 220.82 224.04 219.24"/>
    <path class="cls-2" d="m262.82,221.24c0-.53.43-.96.96-.96s.96.43.96.96-.43.96-.96.96-.96-.43-.96-.96Z"/>
  </g>
  <g>
    <rect class="cls-2" x="138.61" y="178.01" width="21.02" height=".54"/>
    <polygon class="cls-2" points="172.15 179.15 164.66 179.15 163.89 178.38 160.18 178.38 160.18 178.18 163.98 178.18 164.74 178.94 172.07 178.94 175.11 175.9 195.39 175.9 195.39 176.11 175.19 176.11 172.15 179.15"/>
    <rect class="cls-2" x="178.26" y="175.67" width="12.75" height=".68"/>
    <polygon class="cls-2" points="138.61 178.01 139.84 176.78 152.9 176.78 154.12 178.01 138.61 178.01"/>
    <polygon class="cls-2" points="209.12 180.62 187.35 180.62 184.91 178.18 175.12 178.18 175.12 177.98 184.99 177.98 187.43 180.42 208.61 180.42 206.29 178.19 206.43 178.05 209.12 180.62"/>
    <polygon class="cls-2" points="208.37 180.06 187.02 180.06 187.39 180.52 208.87 180.52 208.37 180.06"/>
    <g>
      <rect class="cls-2" x="187.92" y="177.57" width=".2" height="2.19" transform="translate(-71.27 185.27) rotate(-45)"/>
      <rect class="cls-2" x="190.02" y="177.57" width=".2" height="2.19" transform="translate(-70.65 186.77) rotate(-45)"/>
      <rect class="cls-2" x="192.12" y="177.57" width=".2" height="2.19" transform="translate(-70.04 188.24) rotate(-45)"/>
      <rect class="cls-2" x="194.23" y="177.57" width=".2" height="2.19" transform="translate(-69.42 189.75) rotate(-45)"/>
      <rect class="cls-2" x="196.33" y="177.57" width=".2" height="2.19" transform="translate(-68.8 191.24) rotate(-45)"/>
      <rect class="cls-2" x="198.43" y="177.57" width=".2" height="2.19" transform="translate(-68.19 192.72) rotate(-45)"/>
      <rect class="cls-2" x="200.55" y="177.57" width=".2" height="2.19" transform="translate(-67.57 194.21) rotate(-45)"/>
      <rect class="cls-2" x="202.67" y="177.57" width=".2" height="2.19" transform="translate(-66.95 195.72) rotate(-45)"/>
      <rect class="cls-2" x="204.78" y="177.57" width=".2" height="2.19" transform="translate(-66.33 197.2) rotate(-45)"/>
    </g>
    <polygon class="cls-2" points="194.93 176.12 195.62 175.44 200.43 175.44 201.18 176.19 194.93 176.12"/>
    <polygon class="cls-2" points="220.86 178.59 212.92 178.59 211.02 176.7 204.61 176.7 204.61 176.49 211.1 176.49 213 178.39 220.86 178.39 220.86 178.59"/>
    <path class="cls-2" d="m220.06,178.49c0-.44.36-.8.8-.8s.8.36.8.8-.36.8-.8.8-.8-.36-.8-.8Z"/>
  </g>
  <polyline class="cls-10" points="0 86.17 74.42 11.74 261.04 11.74 261.32 12.02 306.09 56.8 450.25 56.8 450.25 58.67 305.32 58.67 305.04 58.4 260.26 13.62 75.2 13.62 1.33 87.49"/>
  <polygon class="cls-2" points="495.85 38.02 518.77 38.02 518.77 39.9 496.63 39.9 458.15 78.38 402.38 78.38 402.38 76.51 457.37 76.51 495.85 38.02"/>
  <polygon class="cls-10" points="265.35 24.96 257.84 17.45 169.61 17.45 163.04 24.02 265.35 24.96"/>
  <g class="cls-11">
    <polygon class="cls-10" points="119.79 16.28 123.11 19.6 162.22 19.6 162.22 20.54 122.72 20.54 119.12 16.94 119.79 16.28"/>
  </g>
  <g class="cls-11">
    <rect class="cls-2" x="76.69" y="22.54" width="20.18" height=".94"/>
  </g>
  <polyline class="cls-2" points="68.83 30.4 89.01 30.4 89.01 31.34 68.83 31.34"/>
  <polyline class="cls-2" points="60.97 38.26 81.15 38.26 81.15 39.2 60.97 39.2"/>
  <g>
    <g>
      <polygon class="cls-3" points="307.72 54.21 300.95 47.45 323.36 47.45 323.36 54.21 307.72 54.21"/>
      <rect class="cls-2" x="323.36" y="47.45" width="41.85" height="6.77"/>
      <rect class="cls-3" x="353.44" y="45.92" width="11.77" height="1.53"/>
    </g>
    <g>
      <path class="cls-2" d="m339.85,51.87v-1.89h-.96v-.75h1.49l.28.35v2.7l-.28.34h-1.49v-.75h.96Zm-2.01.75v-3.39h.82v3.39h-.82Z"/>
      <path class="cls-2" d="m343.27,51.87v-1.89h-.58v-.75h1.05l.28.35v2.7l-.28.34h-1.05v-.75h.58Zm-2.14.41v-2.69l.28-.35h1.04v.75h-.51v1.89h.51v.75h-1.04l-.28-.34Z"/>
      <path class="cls-2" d="m344.35,51.87h3.06v.75h-3.06v-.75Zm1.94-2.64v2.4h-.82v-2.4h.82Z"/>
      <path class="cls-2" d="m348.77,50.53h1.45v.75h-1.45v-.75Z"/>
      <path class="cls-2" d="m351.72,53.03v-4.2l.19-.26h.89v.56h-.36v3.58h.36v.56h-.89l-.19-.25Z"/>
      <path class="cls-2" d="m355.06,51.87v-1.89h-.58v-.75h1.05l.28.35v2.7l-.28.34h-1.05v-.75h.58Zm-2.14.41v-2.69l.28-.35h1.04v.75h-.51v1.89h.51v.75h-1.04l-.28-.34Z"/>
      <path class="cls-2" d="m358.41,51.87v-1.89h-.58v-.75h1.05l.28.35v2.7l-.28.34h-1.05v-.75h.58Zm-2.14.41v-2.69l.28-.35h1.04v.75h-.51v1.89h.51v.75h-1.04l-.28-.34Z"/>
      <path class="cls-2" d="m361.77,51.87v-1.89h-.58v-.75h1.05l.28.35v2.7l-.28.34h-1.05v-.75h.58Zm-2.14.41v-2.69l.28-.35h1.04v.75h-.51v1.89h.51v.75h-1.04l-.28-.34Z"/>
      <path class="cls-2" d="m363.52,53.28h-.89v-.56h.36v-3.58h-.36v-.56h.89l.19.26v4.2l-.19.25Z"/>
    </g>
    <g>
      <path class="cls-2" d="m317.04,49.98v2.64h-.43l-.6-.19v-.56h.21v-1.89h-.21v-.75h1.24v.75h-.21Z"/>
      <path class="cls-2" d="m319.42,51.63v-2.4h.82v1.01h.62v.75h-.62v.64h-.82Zm-1.12-.64l1.1.88h.84v.76h-1.14l-1.56-1.48v-.91h1.65v.75h-.88Z"/>
    </g>
    <polygon class="cls-2" points="304.12 47.45 310.89 54.21 307.72 54.21 300.95 47.45 304.12 47.45"/>
  </g>
  <path class="cls-2" d="m452.6,57.73c0-1.3-1.05-2.35-2.35-2.35s-2.35,1.05-2.35,2.35,1.05,2.35,2.35,2.35,2.35-1.05,2.35-2.35Z"/>
  <circle class="cls-2" cx="518.77" cy="38.96" r="2.35"/>
  <circle class="cls-2" cx="402.38" cy="77.44" r="2.35"/>
  <path class="cls-2" d="m361.67,107.09c0-1.3-1.05-2.35-2.35-2.35s-2.35,1.05-2.35,2.35,1.05,2.35,2.35,2.35,2.35-1.05,2.35-2.35Z"/>
  <circle class="cls-2" cx="458.7" cy="95.28" r="2.35"/>
  <polygon class="cls-2" points="401.99 94.34 458.7 94.34 458.7 96.22 402.77 96.22 390.57 108.42 359.32 108.42 359.32 106.54 389.79 106.54 401.99 94.34"/>
  <polygon class="cls-2" points="394.09 109.98 404.57 99.5 417.24 99.5 406.76 109.98 394.09 109.98"/>
  <polygon class="cls-2" points="411.45 109.98 421.93 99.5 434.61 99.5 424.12 109.98 411.45 109.98"/>
  <polygon class="cls-2" points="428.82 109.98 439.3 99.5 451.97 99.5 441.49 109.98 428.82 109.98"/>
  <polygon class="cls-2" points="433.73 112.08 434.39 112.74 431.44 115.69 417.75 115.69 417.75 114.75 431.05 114.75 433.73 112.08"/>
  <polygon class="cls-2" points="416.83 112.08 417.5 112.74 414.54 115.69 400.86 115.69 400.86 114.75 414.15 114.75 416.83 112.08"/>
  <polygon class="cls-2" points="399.94 112.08 400.6 112.74 397.65 115.69 383.96 115.69 383.96 114.75 397.26 114.75 399.94 112.08"/>
  <polygon class="cls-3" points="417.75 118 429.81 118 431.09 116.55 417.75 116.55 417.75 118"/>
  <polygon class="cls-4" points="400.86 118 412.91 118 414.19 116.55 400.86 116.55 400.86 118"/>
  <polygon class="cls-1" points="383.96 118 396.02 118 397.3 116.55 383.96 116.55 383.96 118"/>
  <polygon class="cls-2" points="304.38 57.73 309.08 62.43 376.77 62.43 379.76 65.42 406.2 65.42 413.87 57.75 304.38 57.73"/>
  <polygon class="cls-2" points="396.28 101.38 385.64 101.38 379.31 107.71 389.71 107.71 396.28 101.38"/>
  <g>
    <g>
      <path class="cls-10" d="m189.27,0h8.39v8.39h-8.39V0Zm7.68.7h-6.98v6.98h6.98V.7Z"/>
      <rect class="cls-10" x="191.34" y="2.06" width="4.26" height="4.26"/>
    </g>
    <g>
      <rect class="cls-10" x="246.57" y="2.04" width="1.25" height="4.31" transform="translate(494.4 8.39) rotate(180)"/>
      <rect class="cls-10" x="238.99" y="2.04" width="1.25" height="4.31" transform="translate(479.23 8.39) rotate(180)"/>
      <rect class="cls-10" x="231.4" y="2.04" width="1.25" height="4.31" transform="translate(464.05 8.39) rotate(180)"/>
      <rect class="cls-10" x="223.81" y="2.04" width="1.25" height="4.31" transform="translate(448.88 8.39) rotate(180)"/>
      <rect class="cls-10" x="216.23" y="2.04" width="1.25" height="4.31" transform="translate(433.71 8.39) rotate(180)"/>
      <rect class="cls-10" x="208.64" y="2.04" width="1.25" height="4.31" transform="translate(418.53 8.39) rotate(180)"/>
      <rect class="cls-10" x="201.05" y="2.04" width="1.25" height="4.31" transform="translate(403.36 8.39) rotate(180)"/>
      <rect class="cls-10" x="185.88" y="2.04" width="1.25" height="4.31" transform="translate(373.01 8.39) rotate(180)"/>
      <rect class="cls-10" x="178.29" y="2.04" width="1.25" height="4.31" transform="translate(357.84 8.39) rotate(180)"/>
      <rect class="cls-10" x="170.71" y="2.04" width="1.25" height="4.31" transform="translate(342.66 8.39) rotate(180)"/>
      <rect class="cls-10" x="163.12" y="2.04" width="1.25" height="4.31" transform="translate(327.49 8.39) rotate(180)"/>
      <rect class="cls-2" x="155.53" y="2.04" width="1.25" height="4.31" transform="translate(312.31 8.39) rotate(180)"/>
      <rect class="cls-5" x="147.94" y="2.04" width="1.25" height="4.31" transform="translate(297.14 8.39) rotate(180)"/>
      <rect class="cls-5" x="140.36" y="2.04" width="1.25" height="4.31" transform="translate(281.97 8.39) rotate(180)"/>
      <rect class="cls-5" x="132.77" y="2.04" width="1.25" height="4.31" transform="translate(266.79 8.39) rotate(180)"/>
      <rect class="cls-5" x="125.18" y="2.04" width="1.25" height="4.31" transform="translate(251.62 8.39) rotate(180)"/>
      <rect class="cls-5" x="117.6" y="2.04" width="1.25" height="4.31" transform="translate(236.44 8.39) rotate(180)"/>
      <rect class="cls-5" x="110.01" y="2.04" width="1.25" height="4.31" transform="translate(221.27 8.39) rotate(180)"/>
      <rect class="cls-5" x="102.42" y="2.04" width="1.25" height="4.31" transform="translate(206.1 8.39) rotate(180)"/>
      <rect class="cls-5" x="94.84" y="2.04" width="1.25" height="4.31" transform="translate(190.92 8.39) rotate(180)"/>
      <rect class="cls-5" x="87.25" y="2.04" width="1.25" height="4.31" transform="translate(175.75 8.39) rotate(180)"/>
    </g>
  </g>
  <polyline class="cls-10" points="57.61 113.19 126.24 44.56 245.16 44.56 265.68 65.09 265.01 65.75 244.77 45.5 126.63 45.5 58.27 113.86"/>
  <polygon class="cls-10" points="247.2 47.76 123.37 47.76 126.27 44.87 244.96 44.87 247.2 47.76"/>
  <polygon class="cls-9" points="125.18 51.16 118.97 57.38 118.97 65.87 261.44 65.87 257.29 61.72 147.94 61.72 147.94 49.76 126.61 49.76 125.18 51.16"/>
  <polygon class="cls-2" points="147.94 49.76 149.48 51.29 149.48 61.72 147.94 61.72 147.94 49.76"/>
  <polygon class="cls-10" points="118.97 65.87 121.76 68.66 161.64 68.66 162.53 67.78 183.69 67.78 185.57 65.9 118.97 65.87"/>
  <g>
    <path class="cls-2" d="m143.67,52.93v6.08l-.27.37h-1.29v-.82h.52v-5.18h-.52v-.82h1.29l.27.36Z"/>
    <path class="cls-2" d="m141.93,54.01v3.9l-.41.51h-1.51v-1.09h.73v-2.73h-.73v-1.09h1.51l.41.5Zm-3.1.59v2.73h.84v1.09h-1.52l-.41-.5v-3.92l.41-.49h1.52v1.09h-.84Z"/>
    <path class="cls-2" d="m135.88,58.43v-4.91h1.18v4.91h-1.18Zm-2.15-1.95v-1.09h1.81v1.09h-1.81Zm-.54-1.88v-1.09h2.35v1.09h-2.35Z"/>
    <path class="cls-2" d="m131.53,53.52h1.18v4.91h-1.18m-2.15-1.95v-1.09h1.81v1.09h-1.81Zm-.54-1.88v-1.09h2.35v1.09h-2.35Z"/>
    <path class="cls-2" d="m127.59,52.56h1.29v.82h-.52v5.18h.52v.82h-1.29l-.27-.37v-6.08l.27-.36Z"/>
  </g>
  <rect class="cls-2" x="134.66" y="62.08" width="11.99" height="2.5" transform="translate(281.31 126.65) rotate(180)"/>
  <rect class="cls-3" x="120.22" y="62.08" width="11.99" height="2.5" transform="translate(252.43 126.65) rotate(180)"/>
  <path class="cls-10" d="m268.92,66.39c0-1.3-1.05-2.35-2.35-2.35s-2.35,1.05-2.35,2.35,1.05,2.35,2.35,2.35,2.35-1.05,2.35-2.35Z"/>
  <polygon class="cls-10" points="150.99 52.1 247.98 52.1 256.12 60.24 150.99 60.24 150.99 52.1"/>
  <g>
    <path class="cls-10" d="m178.35,54.85h-3.94v-.97h3.94v.97Zm-2.5,3.4v-3.09h1.05v3.09h-1.05Z"/>
    <path class="cls-10" d="m172.93,55.5l.13-.35h.75l1.08,3.09h-1l-.96-2.74Zm.18,1.58h-1.07l-.41,1.16h-.99l1.53-4.36h1.2l.34.97h-.88l-.45,1.27h.39l.34.97Z"/>
    <path class="cls-10" d="m169.28,58.25v-4.36h1.05v4.36h-1.05Zm-1.48-3.4v.94h1.18v.97h-.93l-.36,1.49h-1.05l.41-1.8-.3-.37v-1.75l.36-.44h1.87v.97h-1.18Z"/>
    <path class="cls-10" d="m165.1,54.85h-.69v-.97h1.38l.36.44v3.47l-.36.45h-1.38v-.97h.69v-2.43Zm-2.76.74h1.84v.97h-.85v.72h.77v.97h-1.4l-.36-.45v-2.21Zm.96-.74v.4h-.96v-.93l.36-.44h1.4v.97h-.8Z"/>
    <path class="cls-10" d="m160.74,58.25v-4.36h1.05v4.36h-1.05Zm-2.33,0v-.97h2.02v.97h-2.02Zm.48-1.73v-.97h1.55v.97h-1.55Zm-.48-1.67v-.97h2.02v.97h-2.02Z"/>
    <path class="cls-10" d="m158.14,54.85h-3.94v-.97h3.94v.97Zm-2.5,3.4v-3.09h1.05v3.09h-1.05Z"/>
    <path class="cls-2" d="m153.3,58.25v-.97h1.05v.97h-1.05Zm0-1.49v-.97h1.05v.97h-1.05Z"/>
  </g>
  <g>
    <rect class="cls-2" x="352.82" y="106.69" width="12.61" height="1.59" transform="translate(29.19 285.43) rotate(-45)"/>
    <rect class="cls-2" x="358.33" y="101.17" width="1.59" height="12.61" transform="translate(29.18 285.42) rotate(-45)"/>
    <path class="cls-2" d="m356.46,103.02c0-.99-.81-1.8-1.8-1.8s-1.8.81-1.8,1.8.81,1.8,1.8,1.8,1.8-.81,1.8-1.8Z"/>
    <path class="cls-2" d="m365.38,103.02c0-.99-.81-1.8-1.8-1.8s-1.8.81-1.8,1.8.81,1.8,1.8,1.8,1.8-.81,1.8-1.8Z"/>
    <path class="cls-2" d="m356.46,111.94c0-.99-.81-1.8-1.8-1.8s-1.8.81-1.8,1.8.81,1.8,1.8,1.8,1.8-.81,1.8-1.8Z"/>
    <path class="cls-2" d="m365.38,111.94c0-.99-.81-1.8-1.8-1.8s-1.8.81-1.8,1.8.81,1.8,1.8,1.8,1.8-.81,1.8-1.8Z"/>
  </g>
  <polygon class="cls-10" points="208.41 41.7 243.25 41.7 243.76 42.79 208.41 42.79 208.41 41.7"/>
  <rect class="cls-10" x="208.41" y="36.38" width="5.79" height="4.18" transform="translate(422.6 76.95) rotate(180)"/>
  <rect class="cls-9" x="203.5" y="36.38" width="3.83" height="6.41" transform="translate(410.84 79.18) rotate(180)"/>
  <g>
    <rect class="cls-10" x="203.86" y="36.96" width="3.11" height=".42"/>
    <rect class="cls-10" x="203.86" y="38.17" width="3.11" height=".42"/>
    <rect class="cls-10" x="203.86" y="39.38" width="3.11" height=".42"/>
    <rect class="cls-10" x="203.86" y="40.59" width="3.11" height=".42"/>
    <rect class="cls-10" x="203.86" y="41.8" width="3.11" height=".42"/>
  </g>
  <path class="cls-10" d="m219.69,38.09c2.03,0,5.07,0,9.64.03h.19s1.91,1.91,1.91,1.91l-.66.66-1.64-1.63c-5.22-.02-12.94-.04-13.36,0l-.03-.41-.22-.48c.08-.04.15-.07,4.17-.07Z"/>
  <polyline class="cls-2" points="65.22 19.44 73.86 10.8 87.09 10.8 87.09 14.56 75.41 14.56 67.88 22.09"/>
  <polygon class="cls-2" points="372.79 35.62 379.5 42.33 387.83 42.33 387.83 43.26 379.11 43.26 372.13 36.28 372.79 35.62"/>
  <g>
    <rect class="cls-2" x="294.88" y="85.51" width="46.62" height="1.92"/>
    <rect class="cls-2" x="170.1" y="85.51" width="46.62" height="1.92"/>
    <rect class="cls-2" x="224.32" y="86.23" width="56.23" height=".48"/>
    <path class="cls-2" d="m279.32,86.47c0,.81.66,1.47,1.47,1.47s1.47-.66,1.47-1.47-.66-1.47-1.47-1.47-1.47.66-1.47,1.47Z"/>
    <circle class="cls-2" cx="224.32" cy="86.47" r="1.47"/>
    <path class="cls-2" d="m216.71,85.51l-2.04-2.04h-23.51l-2.46,2.46s23.37,1.06,23.69.94c.32-.12,4.33-1.36,4.33-1.36Z"/>
    <path class="cls-2" d="m170.1,85.51l-.09.09-2.31,2.31h-11.84s-1.53,1.41-1.41,1.41h16.55l2.23-2.23-3.12-1.59Z"/>
    <polygon class="cls-2" points="333.81 87.43 336.57 90.19 349.97 90.19 346.98 87.21 334.5 87.21 333.81 87.43"/>
    <rect class="cls-2" x="142.7" y="83.47" width="1.96" height="5.86"/>
    <rect class="cls-2" x="359.04" y="83.47" width="1.96" height="5.86"/>
    <rect class="cls-2" x="131.09" y="83.47" width="1.96" height="5.86"/>
    <rect class="cls-2" x="119.48" y="83.47" width="1.96" height="5.86"/>
  </g>
  <g>
    <rect class="cls-10" x="182.87" y="27.41" width="77.38" height=".6"/>
    <polygon class="cls-10" points="221.66 27.43 225.5 31.27 246.86 31.27 248.56 32.97 258.09 32.97 257.25 32.13 249.6 32.13 247.86 30.39 226.5 30.39 223.53 27.42 221.66 27.43"/>
    <polygon class="cls-10" points="226.01 28.51 227.38 29.88 229.62 29.88 228.26 28.53 226.01 28.51"/>
    <polygon class="cls-10" points="229.62 28.51 230.99 29.88 233.23 29.88 231.87 28.53 229.62 28.51"/>
    <polygon class="cls-10" points="233.23 28.51 234.6 29.88 236.84 29.88 235.48 28.53 233.23 28.51"/>
    <polygon class="cls-10" points="236.84 28.51 238.21 29.88 240.44 29.88 239.09 28.53 236.84 28.51"/>
    <polygon class="cls-10" points="240.44 28.51 241.81 29.88 244.05 29.88 242.7 28.53 240.44 28.51"/>
    <polygon class="cls-10" points="244.05 28.51 245.42 29.88 247.66 29.88 246.3 28.53 244.05 28.51"/>
    <polygon class="cls-10" points="197.45 27.71 196.59 26.85 179.19 26.85 180.37 28.02 186.4 28.02 197.45 27.71"/>
    <polygon class="cls-10" points="263.75 27.27 261.13 29.89 249.07 29.89 249.07 30.28 261.3 30.28 264.03 27.55 263.75 27.27"/>
    <rect class="cls-10" x="206.93" y="26.16" width="53.32" height=".39"/>
    <polygon class="cls-10" points="224.04 29.41 211.63 29.41 210.04 27.83 223.03 27.83 224.04 29.41"/>
    <path class="cls-10" d="m262.82,27.41c0,.53.43.96.96.96s.96-.43.96-.96-.43-.96-.96-.96-.96.43-.96.96Z"/>
  </g>
  <g>
    <rect class="cls-2" x="138.61" y="70.1" width="21.02" height=".54"/>
    <polygon class="cls-2" points="172.15 69.5 164.66 69.5 163.89 70.27 160.18 70.27 160.18 70.47 163.98 70.47 164.74 69.71 172.07 69.71 175.11 72.75 195.39 72.75 195.39 72.54 175.19 72.54 172.15 69.5"/>
    <rect class="cls-2" x="178.26" y="72.31" width="12.75" height=".68"/>
    <polygon class="cls-2" points="138.61 70.64 139.84 71.87 152.9 71.87 154.12 70.64 138.61 70.64"/>
    <polygon class="cls-10" points="209.12 68.03 187.35 68.03 184.91 70.47 175.12 70.47 175.12 70.67 184.99 70.67 187.43 68.23 208.61 68.23 206.29 70.46 206.43 70.6 209.12 68.03"/>
    <polygon class="cls-10" points="208.37 68.59 187.02 68.59 187.39 68.13 208.87 68.13 208.37 68.59"/>
    <g>
      <rect class="cls-10" x="186.93" y="69.88" width="2.19" height=".2" transform="translate(5.59 153.45) rotate(-45)"/>
      <rect class="cls-10" x="189.03" y="69.88" width="2.19" height=".2" transform="translate(6.2 154.93) rotate(-45)"/>
      <rect class="cls-10" x="191.13" y="69.88" width="2.19" height=".2" transform="translate(6.82 156.43) rotate(-45)"/>
      <rect class="cls-10" x="193.24" y="69.88" width="2.19" height=".2" transform="translate(7.43 157.9) rotate(-45)"/>
      <rect class="cls-10" x="195.34" y="69.88" width="2.19" height=".2" transform="translate(8.04 159.38) rotate(-45)"/>
      <rect class="cls-10" x="197.44" y="69.88" width="2.19" height=".2" transform="translate(8.66 160.88) rotate(-45)"/>
      <rect class="cls-10" x="199.56" y="69.88" width="2.19" height=".2" transform="translate(9.28 162.37) rotate(-45)"/>
      <rect class="cls-10" x="201.67" y="69.88" width="2.19" height=".2" transform="translate(9.9 163.86) rotate(-45)"/>
      <rect class="cls-10" x="203.79" y="69.88" width="2.19" height=".2" transform="translate(10.52 165.37) rotate(-45)"/>
    </g>
    <polygon class="cls-2" points="194.93 72.53 195.62 73.21 200.43 73.21 201.18 72.46 194.93 72.53"/>
    <polygon class="cls-2" points="220.86 70.06 212.92 70.06 211.02 71.95 204.61 71.95 204.61 72.16 211.1 72.16 213 70.26 220.86 70.26 220.86 70.06"/>
    <path class="cls-10" d="m220.06,70.16c0,.44.36.8.8.8s.8-.36.8-.8-.36-.8-.8-.8-.8.36-.8.8Z"/>
  </g>
  <path class="cls-10" d="m488.59,209.69c0,1.3,1.05,2.35,2.35,2.35s2.35-1.05,2.35-2.35-1.05-2.35-2.35-2.35-2.35,1.05-2.35,2.35Z"/>
  <path class="cls-2" d="m488.59,38.96c0-1.3,1.05-2.35,2.35-2.35s2.35,1.05,2.35,2.35-1.05,2.35-2.35,2.35-2.35-1.05-2.35-2.35Z"/>
  <polyline class="cls-10" points="935.28 236.91 748.66 236.91 748.39 236.63 703.61 191.85 559.46 191.85 559.46 189.98 704.39 189.98 704.66 190.25 749.44 235.03 934.5 235.03"/>
  <polygon class="cls-10" points="551.56 170.27 607.32 170.27 607.32 172.14 552.34 172.14 513.85 210.63 490.94 210.63 490.94 208.75 513.08 208.75 551.56 170.27"/>
  <polygon class="cls-2" points="744.36 223.69 751.87 231.2 840.09 231.2 846.66 224.63 744.36 223.69"/>
  <polyline class="cls-2" points="886.59 229.05 847.49 229.05 847.49 228.11 886.98 228.11"/>
  <g>
    <g>
      <polygon class="cls-9" points="701.98 194.44 708.75 201.2 686.34 201.2 686.34 194.44 701.98 194.44"/>
      <rect class="cls-2" x="644.5" y="194.44" width="41.85" height="6.77"/>
      <rect class="cls-3" x="644.5" y="201.2" width="11.77" height="1.53"/>
    </g>
    <g>
      <path class="cls-2" d="m657.28,198.84v-1.89h-.96v-.75h1.49l.28.35v2.7l-.28.34h-1.49v-.75h.96Zm-2.01.75v-3.39h.82v3.39h-.82Z"/>
      <path class="cls-2" d="m660.71,198.84v-1.89h-.58v-.75h1.05l.28.35v2.7l-.28.34h-1.05v-.75h.58Zm-2.14.41v-2.69l.28-.35h1.04v.75h-.51v1.89h.51v.75h-1.04l-.28-.34Z"/>
      <path class="cls-2" d="m661.78,198.84h3.06v.75h-3.06v-.75Zm1.94-2.64v2.4h-.82v-2.4h.82Z"/>
      <path class="cls-2" d="m666.2,197.51h1.45v.75h-1.45v-.75Z"/>
      <path class="cls-2" d="m669.15,200v-4.2l.19-.26h.89v.56h-.36v3.58h.36v.56h-.89l-.19-.25Z"/>
      <path class="cls-2" d="m672.49,198.84v-1.89h-.58v-.75h1.05l.28.35v2.7l-.28.34h-1.05v-.75h.58Zm-2.14.41v-2.69l.28-.35h1.04v.75h-.51v1.89h.51v.75h-1.04l-.28-.34Z"/>
      <path class="cls-2" d="m675.85,198.84v-1.89h-.58v-.75h1.05l.28.35v2.7l-.28.34h-1.05v-.75h.58Zm-2.14.41v-2.69l.28-.35h1.04v.75h-.51v1.89h.51v.75h-1.04l-.28-.34Z"/>
      <path class="cls-2" d="m679.2,198.84v-1.89h-.58v-.75h1.05l.28.35v2.7l-.28.34h-1.05v-.75h.58Zm-2.14.41v-2.69l.28-.35h1.04v.75h-.51v1.89h.51v.75h-1.04l-.28-.34Z"/>
      <path class="cls-2" d="m680.96,200.25h-.89v-.56h.36v-3.58h-.36v-.56h.89l.19.26v4.2l-.19.25Z"/>
    </g>
    <g>
      <path class="cls-2" d="m692.7,197.27v2.64h-.43l-.6-.19v-.56h.21v-1.89h-.21v-.75h1.24v.75h-.21Z"/>
      <path class="cls-2" d="m695.08,198.92v-2.4h.82v1.01h.62v.75h-.62v.64h-.82Zm-1.12-.64l1.1.88h.84v.76h-1.14l-1.56-1.48v-.91h1.65v.75h-.88Z"/>
    </g>
    <polygon class="cls-10" points="705.58 201.2 698.82 194.44 701.98 194.44 708.75 201.2 705.58 201.2"/>
  </g>
  <path class="cls-2" d="m557.11,190.92c0,1.3,1.05,2.35,2.35,2.35s2.35-1.05,2.35-2.35-1.05-2.35-2.35-2.35-2.35,1.05-2.35,2.35Z"/>
  <path class="cls-2" d="m604.98,171.21c0,1.3,1.05,2.35,2.35,2.35s2.35-1.05,2.35-2.35-1.05-2.35-2.35-2.35-2.35,1.05-2.35,2.35Z"/>
  <path class="cls-2" d="m648.04,141.56c0,1.3,1.05,2.35,2.35,2.35s2.35-1.05,2.35-2.35-1.05-2.35-2.35-2.35-2.35,1.05-2.35,2.35Z"/>
  <path class="cls-2" d="m548.66,153.37c0,1.3,1.05,2.35,2.35,2.35s2.35-1.05,2.35-2.35-1.05-2.35-2.35-2.35-2.35,1.05-2.35,2.35Z"/>
  <polygon class="cls-2" points="619.14 140.23 650.38 140.23 650.38 142.11 619.91 142.11 607.71 154.31 551.01 154.31 551.01 152.43 606.94 152.43 619.14 140.23"/>
  <polygon class="cls-2" points="615.61 138.67 605.13 149.15 592.46 149.15 602.94 138.67 615.61 138.67"/>
  <polygon class="cls-2" points="598.25 138.67 587.77 149.15 575.1 149.15 585.58 138.67 598.25 138.67"/>
  <polygon class="cls-2" points="580.89 138.67 570.41 149.15 557.74 149.15 568.22 138.67 580.89 138.67"/>
  <polygon class="cls-2" points="578.27 132.96 591.95 132.96 591.95 133.9 578.66 133.9 575.98 136.57 575.31 135.91 578.27 132.96"/>
  <polygon class="cls-2" points="595.16 132.96 608.85 132.96 608.85 133.9 595.55 133.9 592.87 136.57 592.21 135.91 595.16 132.96"/>
  <polygon class="cls-2" points="612.06 132.96 625.74 132.96 625.74 133.9 612.45 133.9 609.77 136.57 609.1 135.91 612.06 132.96"/>
  <polygon class="cls-3" points="591.95 130.65 579.9 130.65 578.62 132.1 591.95 132.1 591.95 130.65"/>
  <polygon class="cls-4" points="608.85 130.65 596.79 130.65 595.51 132.1 608.85 132.1 608.85 130.65"/>
  <polygon class="cls-1" points="625.74 130.65 613.69 130.65 612.41 132.1 625.74 132.1 625.74 130.65"/>
  <polygon class="cls-10" points="705.32 190.92 700.63 186.22 632.93 186.22 629.94 183.23 603.5 183.23 595.84 190.9 705.32 190.92"/>
  <polygon class="cls-2" points="613.42 147.27 624.06 147.27 630.4 140.94 619.99 140.94 613.42 147.27"/>
  <g>
    <path class="cls-2" d="m812.05,240.26h8.39v8.39h-8.39v-8.39Zm7.68.7h-6.98v6.98h6.98v-6.98Z"/>
    <rect class="cls-2" x="814.11" y="242.33" width="4.26" height="4.26"/>
  </g>
  <rect class="cls-2" x="761.88" y="242.3" width="1.25" height="4.31"/>
  <rect class="cls-2" x="769.47" y="242.3" width="1.25" height="4.31"/>
  <rect class="cls-2" x="777.05" y="242.3" width="1.25" height="4.31"/>
  <rect class="cls-2" x="784.64" y="242.3" width="1.25" height="4.31"/>
  <rect class="cls-2" x="792.23" y="242.3" width="1.25" height="4.31"/>
  <rect class="cls-2" x="799.81" y="242.3" width="1.25" height="4.31"/>
  <rect class="cls-2" x="807.4" y="242.3" width="1.25" height="4.31"/>
  <rect class="cls-2" x="822.57" y="242.3" width="1.25" height="4.31"/>
  <rect class="cls-2" x="830.16" y="242.3" width="1.25" height="4.31"/>
  <rect class="cls-2" x="837.75" y="242.3" width="1.25" height="4.31"/>
  <rect class="cls-2" x="845.33" y="242.3" width="1.25" height="4.31"/>
  <rect class="cls-2" x="852.92" y="242.3" width="1.25" height="4.31"/>
  <rect class="cls-2" x="860.51" y="242.3" width="1.25" height="4.31"/>
  <rect class="cls-2" x="868.1" y="242.3" width="1.25" height="4.31"/>
  <rect class="cls-2" x="875.68" y="242.3" width="1.25" height="4.31"/>
  <polyline class="cls-10" points="883.46 204.09 764.55 204.09 764.41 203.95 744.03 183.56 744.69 182.9 764.94 203.15 883.08 203.15"/>
  <polyline class="cls-10" points="883.44 203.78 764.74 203.78 762.5 200.89 886.33 200.89"/>
  <polyline class="cls-9" points="890.74 182.78 748.27 182.78 752.41 186.93 861.76 186.93 861.76 198.89 883.09 198.89"/>
  <polygon class="cls-10" points="861.76 198.89 860.23 197.36 860.23 186.93 861.76 186.93 861.76 198.89"/>
  <polyline class="cls-10" points="887.94 179.99 848.06 179.99 847.18 180.87 826.02 180.87 824.14 182.75 890.74 182.78"/>
  <path class="cls-10" d="m866.04,195.73v-6.08l.27-.37h1.29v.82h-.52v5.18h.52v.82h-1.29l-.27-.36Z"/>
  <path class="cls-10" d="m870.87,194.05v-2.73h-.84v-1.09h1.52l.41.5v3.92l-.41.49h-1.52v-1.09h.84Zm-3.1.59v-3.9l.41-.51h1.51v1.09h-.73v2.73h.73v1.09h-1.51l-.41-.5Z"/>
  <path class="cls-10" d="m876.51,194.05v1.09h-2.35v-1.09h2.35Zm-.54-1.88v1.09h-1.81v-1.09h1.81Zm-2.15-1.95v4.91h-1.18v-4.91h1.18Z"/>
  <polyline class="cls-10" points="880.86 195.14 878.51 195.14 878.51 194.05 880.86 194.05"/>
  <polyline class="cls-10" points="880.32 193.26 878.51 193.26 878.51 192.17 880.32 192.17"/>
  <rect class="cls-10" x="876.99" y="190.22" width="1.18" height="4.91"/>
  <rect class="cls-10" x="863.05" y="184.07" width="11.99" height="2.5"/>
  <polyline class="cls-9" points="889.49 184.07 877.49 184.07 877.49 186.57 889.49 186.57"/>
  <path class="cls-10" d="m740.78,182.26c0,1.3,1.05,2.35,2.35,2.35s2.35-1.05,2.35-2.35-1.05-2.35-2.35-2.35-2.35,1.05-2.35,2.35Z"/>
  <polygon class="cls-10" points="858.71 196.55 761.72 196.55 753.59 188.41 858.71 188.41 858.71 196.55"/>
  <g>
    <path class="cls-10" d="m831.36,193.8h3.94v.97h-3.94v-.97Zm2.5-3.4v3.09h-1.05v-3.09h1.05Z"/>
    <path class="cls-10" d="m836.6,191.57h1.07l.41-1.16h.99l-1.53,4.36h-1.2l-.34-.97h.88l.45-1.27h-.39l-.34-.97Zm.18,1.58l-.13.35h-.75l-1.08-3.09h1l.96,2.74Z"/>
    <path class="cls-10" d="m841.9,193.8v-.94h-1.18v-.97h.93l.36-1.49h1.05l-.4,1.8.3.37v1.75l-.36.43h-1.87v-.97h1.18Zm-1.48-3.4v4.36h-1.05v-4.36h1.05Z"/>
    <path class="cls-10" d="m846.41,193.8v-.4h.96v.93l-.36.43h-1.4v-.97h.8Zm.96-.74h-1.84v-.97h.85v-.72h-.77v-.97h1.4l.36.45v2.21Zm-2.76.74h.69v.97h-1.38l-.36-.44v-3.47l.36-.45h1.38v.97h-.69v2.43Z"/>
    <path class="cls-10" d="m851.29,193.8v.97h-2.02v-.97h2.02Zm0-3.4v.97h-2.02v-.97h2.02Zm-.48,1.73v.97h-1.55v-.97h1.55Zm-1.85-1.73v4.36h-1.05v-4.36h1.05Z"/>
    <path class="cls-10" d="m851.56,193.8h3.94v.97h-3.94v-.97Zm2.5-3.4v3.09h-1.05v-3.09h1.05Z"/>
    <path class="cls-10" d="m856.4,191.89v.97h-1.05v-.97h1.05Zm0-1.49v.97h-1.05v-.97h1.05Z"/>
  </g>
  <g>
    <rect class="cls-2" x="644.27" y="140.38" width="12.61" height="1.59" transform="translate(90.7 501.34) rotate(-45)"/>
    <rect class="cls-2" x="649.79" y="134.87" width="1.59" height="12.61" transform="translate(90.72 501.37) rotate(-45)"/>
    <path class="cls-2" d="m653.24,145.63c0,.99.81,1.8,1.8,1.8s1.8-.81,1.8-1.8-.81-1.8-1.8-1.8-1.8.81-1.8,1.8Z"/>
    <path class="cls-2" d="m644.32,145.63c0,.99.81,1.8,1.8,1.8s1.8-.81,1.8-1.8-.81-1.8-1.8-1.8-1.8.81-1.8,1.8Z"/>
    <path class="cls-2" d="m653.24,136.71c0,.99.81,1.8,1.8,1.8s1.8-.81,1.8-1.8-.81-1.8-1.8-1.8-1.8.81-1.8,1.8Z"/>
    <path class="cls-2" d="m644.32,136.71c0,.99.81,1.8,1.8,1.8s1.8-.81,1.8-1.8-.81-1.8-1.8-1.8-1.8.81-1.8,1.8Z"/>
  </g>
  <polygon class="cls-2" points="801.3 206.95 766.45 206.95 765.95 205.86 801.3 205.86 801.3 206.95"/>
  <rect class="cls-2" x="795.51" y="208.08" width="5.79" height="4.18"/>
  <rect class="cls-3" x="802.37" y="205.86" width="3.83" height="6.41"/>
  <g>
    <rect class="cls-2" x="802.73" y="211.28" width="3.11" height=".42"/>
    <rect class="cls-2" x="802.73" y="210.06" width="3.11" height=".42"/>
    <rect class="cls-2" x="802.73" y="208.85" width="3.11" height=".42"/>
    <rect class="cls-2" x="802.73" y="207.64" width="3.11" height=".42"/>
    <rect class="cls-2" x="802.73" y="206.43" width="3.11" height=".42"/>
  </g>
  <path class="cls-2" d="m778.94,207.96l1.64,1.64c5.22.02,12.94.04,13.36,0l.03.41.22.48c-.13.06-.21.1-13.81.04h-.19s-1.91-1.91-1.91-1.91l.66-.66Z"/>
  <polygon class="cls-2" points="621.87 205.39 630.59 205.39 637.57 212.37 636.91 213.03 630.2 206.32 621.87 206.32 621.87 205.39"/>
  <rect class="cls-10" x="668.2" y="161.22" width="46.62" height="1.92"/>
  <rect class="cls-10" x="792.99" y="161.22" width="46.62" height="1.92"/>
  <rect class="cls-10" x="729.16" y="161.94" width="56.23" height=".48"/>
  <path class="cls-10" d="m730.39,162.18c0-.81-.66-1.47-1.47-1.47s-1.47.66-1.47,1.47.66,1.47,1.47,1.47,1.47-.66,1.47-1.47Z"/>
  <path class="cls-10" d="m786.86,162.18c0-.81-.66-1.47-1.47-1.47s-1.47.66-1.47,1.47.66,1.47,1.47,1.47,1.47-.66,1.47-1.47Z"/>
  <path class="cls-10" d="m792.99,163.14l2.04,2.04h23.51l2.46-2.46s-23.37-1.06-23.69-.94c-.32.12-4.33,1.36-4.33,1.36Z"/>
  <path class="cls-10" d="m839.61,163.14l.09-.09,2.31-2.31h11.84s1.53-1.41,1.41-1.41h-16.55l-2.23,2.23,3.12,1.59Z"/>
  <polygon class="cls-2" points="675.89 161.22 673.13 158.46 659.73 158.46 662.72 161.44 675.2 161.44 675.89 161.22"/>
  <rect class="cls-10" x="865.04" y="159.32" width="1.96" height="5.86"/>
  <rect class="cls-2" x="648.7" y="159.32" width="1.96" height="5.86"/>
  <rect class="cls-10" x="876.65" y="159.32" width="1.96" height="5.86"/>
  <g>
    <rect class="cls-2" x="749.46" y="220.64" width="77.38" height=".6" transform="translate(1576.3 441.88) rotate(180)"/>
    <polygon class="cls-2" points="788.04 221.22 784.2 217.38 762.85 217.38 761.14 215.68 751.62 215.68 752.46 216.52 760.1 216.52 761.84 218.26 783.21 218.26 786.17 221.23 788.04 221.22"/>
    <polygon class="cls-2" points="783.69 220.14 782.32 218.77 780.09 218.77 781.44 220.12 783.69 220.14"/>
    <polygon class="cls-2" points="780.09 220.14 778.71 218.77 776.48 218.77 777.83 220.12 780.09 220.14"/>
    <polygon class="cls-2" points="776.48 220.14 775.11 218.77 772.87 218.77 774.22 220.12 776.48 220.14"/>
    <polygon class="cls-2" points="772.87 220.14 771.5 218.77 769.26 218.77 770.62 220.12 772.87 220.14"/>
    <polygon class="cls-2" points="769.26 220.14 767.89 218.77 765.65 218.77 767.01 220.12 769.26 220.14"/>
    <polygon class="cls-2" points="765.65 220.14 764.28 218.77 762.05 218.77 763.4 220.12 765.65 220.14"/>
    <polygon class="cls-2" points="812.26 220.94 813.11 221.8 830.51 221.8 829.34 220.63 823.3 220.63 812.26 220.94"/>
    <polygon class="cls-2" points="745.95 221.38 748.57 218.76 760.64 218.76 760.64 218.37 748.41 218.37 745.67 221.1 745.95 221.38"/>
    <rect class="cls-2" x="749.46" y="222.1" width="53.32" height=".39"/>
    <polygon class="cls-2" points="785.67 219.24 798.08 219.24 799.66 220.82 786.67 220.82 785.67 219.24"/>
    <path class="cls-2" d="m746.88,221.24c0-.53-.43-.96-.96-.96s-.96.43-.96.96.43.96.96.96.96-.43.96-.96Z"/>
  </g>
  <g>
    <rect class="cls-10" x="850.07" y="178.01" width="21.02" height=".54"/>
    <polygon class="cls-10" points="837.55 179.15 845.05 179.15 845.81 178.38 849.52 178.38 849.52 178.18 845.73 178.18 844.97 178.94 837.64 178.94 834.59 175.9 814.32 175.9 814.32 176.11 834.51 176.11 837.55 179.15"/>
    <rect class="cls-10" x="818.69" y="175.67" width="12.75" height=".68"/>
    <polygon class="cls-10" points="871.09 178.01 869.86 176.78 856.81 176.78 855.59 178.01 871.09 178.01"/>
    <polygon class="cls-10" points="800.59 180.62 822.36 180.62 824.8 178.18 834.59 178.18 834.59 177.98 824.71 177.98 822.27 180.42 801.09 180.42 803.42 178.19 803.28 178.05 800.59 180.62"/>
    <polygon class="cls-10" points="801.33 180.06 822.68 180.06 822.32 180.52 800.84 180.52 801.33 180.06"/>
    <g>
      <rect class="cls-10" x="820.59" y="178.57" width="2.19" height=".2" transform="translate(114.33 633.35) rotate(-45)"/>
      <rect class="cls-10" x="818.49" y="178.57" width="2.19" height=".2" transform="translate(113.73 631.9) rotate(-45)"/>
      <rect class="cls-10" x="816.39" y="178.57" width="2.19" height=".2" transform="translate(113.11 630.39) rotate(-45)"/>
      <rect class="cls-10" x="814.28" y="178.57" width="2.19" height=".2" transform="translate(112.46 628.85) rotate(-45)"/>
      <rect class="cls-10" x="812.18" y="178.57" width="2.19" height=".2" transform="translate(111.84 627.37) rotate(-45)"/>
      <rect class="cls-10" x="810.08" y="178.57" width="2.19" height=".2" transform="translate(111.27 625.95) rotate(-45)"/>
      <rect class="cls-10" x="807.96" y="178.57" width="2.19" height=".2" transform="translate(110.65 624.45) rotate(-45)"/>
      <rect class="cls-10" x="805.85" y="178.57" width="2.19" height=".2" transform="translate(110.01 622.92) rotate(-45)"/>
      <rect class="cls-10" x="803.73" y="178.57" width="2.19" height=".2" transform="translate(109.42 621.48) rotate(-45)"/>
    </g>
    <polygon class="cls-10" points="814.77 176.12 814.09 175.44 809.28 175.44 808.53 176.19 814.77 176.12"/>
    <polygon class="cls-10" points="788.84 178.59 796.79 178.59 798.68 176.7 805.09 176.7 805.09 176.49 798.6 176.49 796.7 178.39 788.84 178.39 788.84 178.59"/>
    <path class="cls-10" d="m789.65,178.49c0-.44-.36-.8-.8-.8s-.8.36-.8.8.36.8.8.8.8-.36.8-.8Z"/>
  </g>
  <polyline class="cls-2" points="934.5 13.62 749.44 13.62 704.39 58.67 559.46 58.67 559.46 56.8 703.61 56.8 748.66 11.74 935.28 11.74"/>
  <polygon class="cls-2" points="490.94 38.02 513.85 38.02 552.34 76.51 607.32 76.51 607.32 78.38 551.56 78.38 513.08 39.9 490.94 39.9 490.94 38.02"/>
  <polygon class="cls-6" points="744.36 24.96 751.87 17.45 840.09 17.45 846.66 24.02 744.36 24.96"/>
  <polyline class="cls-2" points="886.98 20.54 847.49 20.54 847.49 19.6 886.59 19.6"/>
  <g>
    <g>
      <polygon class="cls-3" points="701.98 54.21 708.75 47.45 686.34 47.45 686.34 54.21 701.98 54.21"/>
      <rect class="cls-2" x="644.5" y="47.45" width="41.85" height="6.77"/>
      <rect class="cls-3" x="644.5" y="45.92" width="11.77" height="1.53"/>
    </g>
    <g>
      <path class="cls-2" d="m682.46,52.62v-3.39h.82v3.39h-.82Zm-.23-.75v.75h-1.49l-.28-.34v-2.7l.28-.35h1.49v.75h-.96v1.89h.96Z"/>
      <path class="cls-2" d="m679.7,52.62h-1.04v-.75h.51v-1.89h-.51v-.75h1.04l.28.35v2.69l-.28.34Zm-1.28-.75v.75h-1.05l-.28-.34v-2.7l.28-.35h1.05v.75h-.58v1.89h.58Z"/>
      <path class="cls-2" d="m676.76,52.62h-3.06v-.75h3.06v.75Zm-1.13-3.39v2.4h-.82v-2.4h.82Z"/>
      <path class="cls-2" d="m672.34,51.28h-1.45v-.75h1.45v.75Z"/>
      <path class="cls-2" d="m669.2,53.27h-.89v-.56h.36v-3.58h-.36v-.56h.89l.19.26v4.2l-.19.25Z"/>
      <path class="cls-2" d="m667.91,52.62h-1.04v-.75h.51v-1.89h-.51v-.75h1.04l.28.35v2.69l-.28.34Zm-1.28-.75v.75h-1.05l-.28-.34v-2.7l.28-.35h1.05v.75h-.58v1.89h.58Z"/>
      <path class="cls-2" d="m664.56,52.62h-1.04v-.75h.51v-1.89h-.51v-.75h1.04l.28.35v2.69l-.28.34Zm-1.28-.75v.75h-1.05l-.28-.34v-2.7l.28-.35h1.05v.75h-.58v1.89h.58Z"/>
      <path class="cls-2" d="m661.2,52.62h-1.04v-.75h.51v-1.89h-.51v-.75h1.04l.28.35v2.69l-.28.34Zm-1.28-.75v.75h-1.05l-.28-.34v-2.7l.28-.35h1.05v.75h-.58v1.89h.58Z"/>
      <path class="cls-2" d="m657.4,53.02v-4.2l.19-.26h.89v.56h-.36v3.58h.36v.56h-.89l-.19-.25Z"/>
    </g>
    <g>
      <path class="cls-2" d="m693.47,49.98v-.75h1.24v.75h-.21v1.89h.21v.56l-.6.19h-.43v-2.64h-.21Z"/>
      <path class="cls-2" d="m691.54,50.99v-.75h1.65v.91l-1.56,1.48h-1.14v-.76h.84l1.1-.88h-.88Zm-1.05.64v-.64h-.62v-.75h.62v-1.01h.82v2.4h-.82Z"/>
    </g>
    <polygon class="cls-2" points="705.58 47.45 698.82 54.21 701.98 54.21 708.75 47.45 705.58 47.45"/>
  </g>
  <path class="cls-2" d="m557.11,57.73c0-1.3,1.05-2.35,2.35-2.35s2.35,1.05,2.35,2.35-1.05,2.35-2.35,2.35-2.35-1.05-2.35-2.35Z"/>
  <path class="cls-2" d="m604.98,77.44c0-1.3,1.05-2.35,2.35-2.35s2.35,1.05,2.35,2.35-1.05,2.35-2.35,2.35-2.35-1.05-2.35-2.35Z"/>
  <path class="cls-2" d="m648.04,107.09c0-1.3,1.05-2.35,2.35-2.35s2.35,1.05,2.35,2.35-1.05,2.35-2.35,2.35-2.35-1.05-2.35-2.35Z"/>
  <path class="cls-2" d="m548.66,95.28c0-1.3,1.05-2.35,2.35-2.35s2.35,1.05,2.35,2.35-1.05,2.35-2.35,2.35-2.35-1.05-2.35-2.35Z"/>
  <polygon class="cls-2" points="551.01 94.34 607.71 94.34 619.91 106.54 650.38 106.54 650.38 108.42 619.14 108.42 606.94 96.22 551.01 96.22 551.01 94.34"/>
  <polygon class="cls-2" points="615.61 109.98 605.13 99.5 592.46 99.5 602.94 109.98 615.61 109.98"/>
  <polygon class="cls-2" points="598.25 109.98 587.77 99.5 575.1 99.5 585.58 109.98 598.25 109.98"/>
  <polygon class="cls-2" points="580.89 109.98 570.41 99.5 557.74 99.5 568.22 109.98 580.89 109.98"/>
  <polygon class="cls-2" points="575.98 112.08 578.66 114.75 591.95 114.75 591.95 115.69 578.27 115.69 575.31 112.74 575.98 112.08"/>
  <polygon class="cls-2" points="592.87 112.08 595.55 114.75 608.85 114.75 608.85 115.69 595.16 115.69 592.21 112.74 592.87 112.08"/>
  <polygon class="cls-2" points="609.77 112.08 612.45 114.75 625.74 114.75 625.74 115.69 612.06 115.69 609.1 112.74 609.77 112.08"/>
  <polygon class="cls-3" points="591.95 118 579.9 118 578.62 116.55 591.95 116.55 591.95 118"/>
  <polygon class="cls-4" points="608.85 118 596.79 118 595.51 116.55 608.85 116.55 608.85 118"/>
  <polygon class="cls-1" points="625.74 118 613.69 118 612.41 116.55 625.74 116.55 625.74 118"/>
  <polygon class="cls-2" points="705.32 57.73 700.63 62.43 632.93 62.43 629.94 65.42 603.5 65.42 595.84 57.75 705.32 57.73"/>
  <polygon class="cls-2" points="613.42 101.38 624.06 101.38 630.4 107.71 619.99 107.71 613.42 101.38"/>
  <g class="cls-8">
    <path class="cls-2" d="m812.05,0h8.39v8.39h-8.39V0Zm7.68.7h-6.98v6.98h6.98V.7Z"/>
    <rect class="cls-2" x="814.11" y="2.06" width="4.26" height="4.26"/>
  </g>
  <rect class="cls-6" x="761.88" y="2.04" width="1.25" height="4.31"/>
  <rect class="cls-6" x="769.47" y="2.04" width="1.25" height="4.31"/>
  <rect class="cls-6" x="777.05" y="2.04" width="1.25" height="4.31"/>
  <rect class="cls-6" x="784.64" y="2.04" width="1.25" height="4.31"/>
  <rect class="cls-6" x="792.23" y="2.04" width="1.25" height="4.31"/>
  <rect class="cls-6" x="799.81" y="2.04" width="1.25" height="4.31"/>
  <rect class="cls-6" x="807.4" y="2.04" width="1.25" height="4.31"/>
  <rect class="cls-6" x="822.57" y="2.04" width="1.25" height="4.31"/>
  <rect class="cls-6" x="830.16" y="2.04" width="1.25" height="4.31"/>
  <rect class="cls-6" x="837.75" y="2.04" width="1.25" height="4.31"/>
  <rect class="cls-6" x="845.33" y="2.04" width="1.25" height="4.31"/>
  <rect class="cls-2" x="852.92" y="2.04" width="1.25" height="4.31"/>
  <rect class="cls-2" x="860.51" y="2.04" width="1.25" height="4.31"/>
  <rect class="cls-2" x="868.1" y="2.04" width="1.25" height="4.31"/>
  <rect class="cls-2" x="875.68" y="2.04" width="1.25" height="4.31"/>
  <polyline class="cls-10" points="883.08 45.5 764.94 45.5 744.69 65.75 744.03 65.09 764.55 44.56 883.46 44.56"/>
  <polyline class="cls-7" points="883.44 44.87 764.74 44.87 762.5 47.76 886.33 47.76"/>
  <polyline class="cls-7" points="890.74 65.87 748.27 65.87 752.41 61.72 861.76 61.72 861.76 49.76 883.09 49.76"/>
  <polygon class="cls-2" points="861.76 49.76 860.23 51.29 860.23 61.72 861.76 61.72 861.76 49.76"/>
  <polyline class="cls-6" points="887.94 68.66 848.06 68.66 847.18 67.78 826.02 67.78 824.14 65.9 890.74 65.87"/>
  <path class="cls-2" d="m866.31,52.56h1.29v.82h-.52v5.18h.52v.82h-1.29l-.27-.37v-6.08l.27-.36Z"/>
  <path class="cls-2" d="m870.03,54.61v-1.09h1.52l.41.49v3.92l-.41.5h-1.52v-1.09h.84v-2.73h-.84Zm-1.85-1.09h1.51v1.09h-.73v2.73h.73v1.09h-1.51l-.41-.51v-3.9l.41-.5Z"/>
  <path class="cls-2" d="m874.16,54.61v-1.09h2.35v1.09h-2.35Zm0,1.88v-1.09h1.81v1.09h-1.81Zm-1.52,1.95v-4.91h1.18v4.91h-1.18Z"/>
  <polyline class="cls-2" points="880.86 54.61 878.51 54.61 878.51 53.52 880.86 53.52"/>
  <polyline class="cls-2" points="880.32 56.48 878.51 56.48 878.51 55.39 880.32 55.39"/>
  <rect class="cls-2" x="876.99" y="53.52" width="1.18" height="4.91"/>
  <rect class="cls-2" x="863.05" y="62.08" width="11.99" height="2.5"/>
  <polyline class="cls-3" points="889.49 64.58 877.49 64.58 877.49 62.08 889.49 62.08"/>
  <path class="cls-6" d="m740.78,66.39c0-1.3,1.05-2.35,2.35-2.35s2.35,1.05,2.35,2.35-1.05,2.35-2.35,2.35-2.35-1.05-2.35-2.35Z"/>
  <polygon class="cls-7" points="858.71 52.1 761.72 52.1 753.59 60.24 858.71 60.24 858.71 52.1"/>
  <g>
    <path class="cls-6" d="m831.36,53.88h3.94v.97h-3.94v-.97Zm1.45,4.36v-3.09h1.05v3.09h-1.05Z"/>
    <path class="cls-6" d="m836.94,56.12h.39l-.45-1.27h-.88l.34-.97h1.2l1.53,4.36h-.99l-.41-1.16h-1.07l.34-.97Zm-1.12,2.13h-1l1.08-3.09h.75l.13.35-.96,2.74Z"/>
    <path class="cls-6" d="m840.73,54.85v-.97h1.87l.36.44v1.75l-.3.37.4,1.8h-1.05l-.36-1.49h-.93v-.97h1.18v-.94h-1.18Zm-1.35,3.4v-4.36h1.05v4.36h-1.05Z"/>
    <path class="cls-6" d="m847.37,57.8l-.36.45h-1.4v-.97h.77v-.72h-.85v-.97h1.84v2.21Zm-1.76-2.95v-.97h1.4l.36.44v.93h-.96v-.4h-.8Zm-1,2.43h.69v.97h-1.38l-.36-.45v-3.47l.36-.44h1.38v.97h-.69v2.43Z"/>
    <path class="cls-6" d="m849.27,58.25v-.97h2.02v.97h-2.02Zm0-3.4v-.97h2.02v.97h-2.02Zm0,1.67v-.97h1.55v.97h-1.55Zm-1.35,1.73v-4.36h1.05v4.36h-1.05Z"/>
    <path class="cls-2" d="m851.56,53.88h3.94v.97h-3.94v-.97Zm1.45,4.36v-3.09h1.05v3.09h-1.05Z"/>
    <path class="cls-2" d="m855.35,58.25v-.97h1.05v.97h-1.05Zm0-1.49v-.97h1.05v.97h-1.05Z"/>
  </g>
  <g>
    <rect class="cls-2" x="649.79" y="101.17" width="1.59" height="12.61" transform="translate(114.55 491.51) rotate(-45)"/>
    <rect class="cls-2" x="644.27" y="106.69" width="12.61" height="1.59" transform="translate(114.46 491.39) rotate(-44.99)"/>
    <path class="cls-2" d="m653.24,103.02c0-.99.81-1.8,1.8-1.8s1.8.81,1.8,1.8-.81,1.8-1.8,1.8-1.8-.81-1.8-1.8Z"/>
    <path class="cls-2" d="m644.32,103.02c0-.99.81-1.8,1.8-1.8s1.8.81,1.8,1.8-.81,1.8-1.8,1.8-1.8-.81-1.8-1.8Z"/>
    <circle class="cls-2" cx="655.04" cy="111.94" r="1.8"/>
    <path class="cls-2" d="m644.32,111.94c0-.99.81-1.8,1.8-1.8s1.8.81,1.8,1.8-.81,1.8-1.8,1.8-1.8-.81-1.8-1.8Z"/>
  </g>
  <polygon class="cls-6" points="801.3 41.7 766.45 41.7 765.95 42.79 801.3 42.79 801.3 41.7"/>
  <rect class="cls-6" x="795.51" y="36.38" width="5.79" height="4.18"/>
  <rect class="cls-6" x="802.37" y="36.38" width="3.83" height="6.41"/>
  <g class="cls-8">
    <rect class="cls-2" x="802.73" y="36.96" width="3.11" height=".42"/>
    <rect class="cls-2" x="802.73" y="38.17" width="3.11" height=".42"/>
    <rect class="cls-2" x="802.73" y="39.38" width="3.11" height=".42"/>
    <rect class="cls-2" x="802.73" y="40.59" width="3.11" height=".42"/>
    <rect class="cls-2" x="802.73" y="41.8" width="3.11" height=".42"/>
  </g>
  <g class="cls-8">
    <path class="cls-2" d="m790.02,38.09c4.01,0,4.08.03,4.16.07l-.39.85.2-.43-.06.46c-.41-.04-8.14-.02-13.36,0l-1.64,1.63-.66-.66,1.91-1.91h.19c4.57-.02,7.61-.03,9.65-.03Z"/>
  </g>
  <polygon class="cls-2" points="636.91 35.62 637.57 36.28 630.59 43.26 621.87 43.26 621.87 42.33 630.2 42.33 636.91 35.62"/>
  <rect class="cls-2" x="668.2" y="85.51" width="46.62" height="1.92"/>
  <rect class="cls-10" x="792.99" y="85.51" width="46.62" height="1.92"/>
  <rect class="cls-10" x="729.16" y="86.23" width="56.23" height=".48"/>
  <circle class="cls-2" cx="728.92" cy="86.47" r="1.47"/>
  <path class="cls-10" d="m786.86,86.47c0,.81-.66,1.47-1.47,1.47s-1.47-.66-1.47-1.47.66-1.47,1.47-1.47,1.47.66,1.47,1.47Z"/>
  <path class="cls-10" d="m792.99,85.51l2.04-2.04h23.51l2.46,2.46s-23.37,1.06-23.69.94c-.32-.12-4.33-1.36-4.33-1.36Z"/>
  <path class="cls-2" d="m839.61,85.51l.09.09,2.31,2.31h11.84s1.53,1.41,1.41,1.41h-16.55l-2.23-2.23,3.12-1.59Z"/>
  <polygon class="cls-2" points="675.89 87.43 673.13 90.19 659.73 90.19 662.72 87.21 675.2 87.21 675.89 87.43"/>
  <rect class="cls-2" x="865.04" y="83.47" width="1.96" height="5.86"/>
  <rect class="cls-2" x="648.7" y="83.47" width="1.96" height="5.86"/>
  <rect class="cls-2" x="876.65" y="83.47" width="1.96" height="5.86"/>
  <g class="cls-8">
    <rect class="cls-2" x="749.46" y="27.41" width="77.38" height=".6" transform="translate(1576.3 55.42) rotate(180)"/>
    <polygon class="cls-2" points="788.04 27.43 784.2 31.27 762.85 31.27 761.14 32.97 751.62 32.97 752.46 32.13 760.1 32.13 761.84 30.39 783.21 30.39 786.17 27.42 788.04 27.43"/>
    <polygon class="cls-2" points="783.69 28.51 782.32 29.88 780.09 29.88 781.44 28.53 783.69 28.51"/>
    <polygon class="cls-2" points="780.09 28.51 778.71 29.88 776.48 29.88 777.83 28.53 780.09 28.51"/>
    <polygon class="cls-2" points="776.48 28.51 775.11 29.88 772.87 29.88 774.22 28.53 776.48 28.51"/>
    <polygon class="cls-2" points="772.87 28.51 771.5 29.88 769.26 29.88 770.62 28.53 772.87 28.51"/>
    <polygon class="cls-2" points="769.26 28.51 767.89 29.88 765.65 29.88 767.01 28.53 769.26 28.51"/>
    <polygon class="cls-2" points="765.65 28.51 764.28 29.88 762.05 29.88 763.4 28.53 765.65 28.51"/>
    <polygon class="cls-2" points="812.26 27.71 813.11 26.85 830.51 26.85 829.34 28.02 823.3 28.02 812.26 27.71"/>
    <polygon class="cls-2" points="745.95 27.27 748.57 29.89 760.64 29.89 760.64 30.28 748.41 30.28 745.67 27.55 745.95 27.27"/>
    <rect class="cls-2" x="749.46" y="26.16" width="53.32" height=".39"/>
    <polygon class="cls-2" points="785.67 29.41 798.08 29.41 799.66 27.83 786.67 27.83 785.67 29.41"/>
    <path class="cls-2" d="m746.88,27.41c0,.53-.43.96-.96.96s-.96-.43-.96-.96.43-.96.96-.96.96.43.96.96Z"/>
  </g>
  <g>
    <rect class="cls-2" x="850.07" y="70.1" width="21.02" height=".54"/>
    <g class="cls-8">
      <polygon class="cls-2" points="837.55 69.5 845.05 69.5 845.81 70.27 849.52 70.27 849.52 70.47 845.73 70.47 844.97 69.71 837.64 69.71 834.59 72.75 814.32 72.75 814.32 72.54 834.51 72.54 837.55 69.5"/>
    </g>
    <rect class="cls-6" x="818.69" y="72.31" width="12.75" height=".68"/>
    <polygon class="cls-2" points="871.09 70.64 869.86 71.87 856.81 71.87 855.59 70.64 871.09 70.64"/>
    <g class="cls-8">
      <polygon class="cls-10" points="800.59 68.03 822.36 68.03 824.8 70.47 834.59 70.47 834.59 70.67 824.71 70.67 822.27 68.23 801.09 68.23 803.42 70.46 803.28 70.6 800.59 68.03"/>
    </g>
    <polygon class="cls-7" points="801.33 68.59 822.68 68.59 822.32 68.13 800.84 68.13 801.33 68.59"/>
    <g class="cls-8">
      <rect class="cls-2" x="821.58" y="68.89" width=".2" height="2.19" transform="translate(191.19 601.53) rotate(-45)"/>
      <rect class="cls-2" x="819.48" y="68.89" width=".2" height="2.19" transform="translate(190.55 600.01) rotate(-45)"/>
      <rect class="cls-2" x="817.38" y="68.89" width=".2" height="2.19" transform="translate(189.95 598.54) rotate(-45)"/>
      <rect class="cls-2" x="815.27" y="68.89" width=".2" height="2.19" transform="translate(189.37 597.1) rotate(-45)"/>
      <rect class="cls-2" x="813.17" y="68.89" width=".2" height="2.19" transform="translate(188.75 595.61) rotate(-45)"/>
      <rect class="cls-10" x="811.07" y="68.89" width=".2" height="2.19" transform="translate(188.09 594.07) rotate(-45)"/>
      <rect class="cls-10" x="808.95" y="68.89" width=".2" height="2.19" transform="translate(187.47 592.57) rotate(-45)"/>
      <rect class="cls-10" x="806.84" y="68.89" width=".2" height="2.19" transform="translate(186.87 591.1) rotate(-45)"/>
      <rect class="cls-10" x="804.72" y="68.89" width=".2" height="2.19" transform="translate(186.22 589.56) rotate(-45)"/>
    </g>
    <polygon class="cls-7" points="814.77 72.53 814.09 73.21 809.28 73.21 808.53 72.46 814.77 72.53"/>
    <g class="cls-8">
      <polygon class="cls-10" points="788.84 70.06 796.79 70.06 798.68 71.95 805.09 71.95 805.09 72.16 798.6 72.16 796.7 70.26 788.84 70.26 788.84 70.06"/>
    </g>
    <path class="cls-7" d="m789.65,70.16c0,.44-.36.8-.8.8s-.8-.36-.8-.8.36-.8.8-.8.8.36.8.8Z"/>
  </g>
</svg>