<?xml version="1.0" encoding="UTF-8"?>
<svg id="Layer_1" data-name="Layer 1" xmlns="http://www.w3.org/2000/svg" viewBox="0 0 538.36 85.61">
  <defs>
    <style>
      .cls-1 {
        fill: #fff;
      }
    </style>
  </defs>
  <rect class="cls-1" x="393.59" y="5.04" width="11.83" height="5.04"/>
  <rect class="cls-1" x="423.87" width="11.83" height="10.07"/>
  <rect class="cls-1" x="454.14" width="23.67" height="5.04"/>
  <rect class="cls-1" x="498.02" width="10.07" height="10.07"/>
  <polygon class="cls-1" points="375.31 15.11 363.32 15.11 363.32 20.14 363.32 25.18 375.31 25.18 386.98 25.18 386.98 20.14 375.31 20.14 375.31 15.11"/>
  <rect class="cls-1" x="393.59" y="15.11" width="6" height="5.04"/>
  <rect class="cls-1" x="423.87" y="20.14" width="11.83" height="5.04"/>
  <rect class="cls-1" x="454.14" y="20.14" width="11.83" height="5.04"/>
  <rect class="cls-1" x="484.42" y="15.11" width="5.92" height="10.07"/>
  <rect class="cls-1" x="344.87" y="30.21" width="11.83" height="5.04"/>
  <rect class="cls-1" x="363.32" y="30.21" width="23.67" height="5.04"/>
  <rect class="cls-1" x="423.87" y="30.21" width="11.83" height="5.04"/>
  <rect class="cls-1" x="454.14" y="35.25" width="23.67" height="5.04"/>
  <rect class="cls-1" x="532.45" y="30.21" width="5.92" height="5.04"/>
  <rect class="cls-1" x="508.09" y="20.14" width="5.92" height="5.04"/>
  <rect class="cls-1" x="520.61" y="10.07" width="5.92" height="5.04"/>
  <rect class="cls-1" x="484.42" y="65.46" width="5.92" height="5.04"/>
  <rect class="cls-1" x="393.59" y="45.32" width="23.67" height="10.07"/>
  <rect class="cls-1" x="423.87" y="45.32" width="23.67" height="5.04"/>
  <rect class="cls-1" x="526.53" y="45.32" width="11.83" height="5.04"/>
  <rect class="cls-1" x="333.04" y="60.43" width="11.83" height="10.07"/>
  <rect class="cls-1" x="363.32" y="60.43" width="23.67" height="5.04"/>
  <rect class="cls-1" x="454.14" y="65.46" width="11.83" height="5.04"/>
  <rect class="cls-1" x="242.21" y="15.11" width="23.67" height="5.04"/>
  <rect class="cls-1" x="272.49" y="15.11" width="23.67" height="5.04"/>
  <rect class="cls-1" x="302.76" y="20.14" width="11.83" height="5.04"/>
  <rect class="cls-1" x="229.68" y="35.25" width="5.92" height="5.04"/>
  <rect class="cls-1" x="242.21" y="30.21" width="5.92" height="10.07"/>
  <rect class="cls-1" x="272.49" y="35.25" width="23.67" height="5.04"/>
  <rect class="cls-1" x="302.76" y="30.21" width="5.92" height="5.04"/>
  <polygon class="cls-1" points="308.68 45.32 302.76 45.32 302.76 50.36 296.32 50.36 296.32 45.32 284.32 45.32 284.32 50.36 248.13 50.36 248.13 45.32 242.21 45.32 242.21 50.36 235.6 50.36 235.6 45.32 211.93 45.32 211.93 50.36 205.32 50.36 205.32 45.32 181.66 45.32 181.66 50.36 175.05 50.36 175.05 45.32 163.22 45.32 163.22 50.36 151.38 50.36 151.38 55.39 163.22 55.39 175.05 55.39 181.66 55.39 205.32 55.39 211.93 55.39 235.6 55.39 242.21 55.39 248.13 55.39 284.32 55.39 296.32 55.39 302.76 55.39 308.68 55.39 356.71 55.39 356.71 50.36 308.68 50.36 308.68 45.32"/>
  <rect class="cls-1" x="193.49" y="60.43" width="11.83" height="10.07"/>
  <rect class="cls-1" x="211.93" y="60.43" width="23.67" height="5.04"/>
  <rect class="cls-1" x="242.21" y="60.43" width="11.83" height="10.07"/>
  <rect class="cls-1" x="272.49" y="65.46" width="11.83" height="5.04"/>
  <rect class="cls-1" x="30.28" y="5.04" width="23.67" height="5.04"/>
  <polygon class="cls-1" points="114.5 5.04 151.38 5.04 151.38 10.07 175.05 10.07 175.05 5.04 181.66 5.04 181.66 10.07 205.32 10.07 205.32 5.04 211.93 5.04 211.93 10.07 235.6 10.07 235.6 5.04 259.96 5.04 259.96 10.07 265.88 10.07 265.88 5.04 296.15 5.04 296.15 0 265.88 0 259.96 0 235.6 0 211.93 0 205.32 0 181.66 0 175.05 0 151.38 0 114.5 0 90.83 0 90.83 5.04 90.83 10.07 114.5 10.07 114.5 5.04"/>
  <polygon class="cls-1" points="132.94 25.18 151.38 25.18 175.05 25.18 181.66 25.18 205.32 25.18 205.32 20.14 205.32 15.11 181.66 15.11 181.66 20.14 175.05 20.14 175.05 15.11 151.38 15.11 151.38 20.14 132.94 20.14 132.94 15.11 121.11 15.11 121.11 20.14 84.22 20.14 84.22 15.11 60.55 15.11 60.55 20.14 36.19 20.14 36.19 15.11 30.28 15.11 30.28 20.14 30.28 25.18 36.19 25.18 60.55 25.18 84.22 25.18 121.11 25.18 132.94 25.18"/>
  <rect class="cls-1" x="78.3" y="30.21" width="5.92" height="10.07"/>
  <rect class="cls-1" x="90.83" y="30.21" width="5.92" height="10.07"/>
  <rect class="cls-1" x="138.86" y="30.21" width="5.92" height="10.07"/>
  <rect class="cls-1" x="151.38" y="30.21" width="23.67" height="5.04"/>
  <rect class="cls-1" x="30.28" y="45.32" width="23.67" height="5.04"/>
  <rect class="cls-1" x="102.66" y="45.32" width="11.83" height="5.04"/>
  <rect class="cls-1" x="121.11" y="45.32" width="23.67" height="5.04"/>
  <rect class="cls-1" width="11.83" height="5.04"/>
  <rect class="cls-1" x="17.75" y="15.11" width="5.92" height="10.07"/>
  <rect class="cls-1" x="17.75" y="50.36" width="5.92" height="5.04"/>
  <rect class="cls-1" y="65.46" width="5.92" height="5.04"/>
  <rect class="cls-1" x="90.83" y="65.46" width="5.92" height="5.04"/>
  <rect class="cls-1" x="175.39" y="65.46" width="5.92" height="5.04"/>
  <rect class="cls-1" x="121.11" y="65.46" width="23.67" height="5.04"/>
  <rect class="cls-1" x="151.38" y="60.43" width="11.83" height="5.04"/>
  <rect class="cls-1" x="30.28" y="75.53" width="23.67" height="10.07"/>
  <rect class="cls-1" x="60.55" y="80.57" width="11.83" height="5.04"/>
  <rect class="cls-1" x="163.22" y="80.57" width="11.83" height="5.04"/>
  <rect class="cls-1" x="181.66" y="75.53" width="23.67" height="5.04"/>
  <rect class="cls-1" x="223.77" y="79.38" width="11.83" height="6.22"/>
  <rect class="cls-1" x="259.96" y="75.53" width="5.92" height="10.07"/>
  <rect class="cls-1" x="272.49" y="75.53" width="11.83" height="5.04"/>
  <rect class="cls-1" x="308.68" y="75.53" width="5.92" height="10.07"/>
  <rect class="cls-1" x="296.85" y="60.43" width="5.92" height="10.07"/>
  <rect class="cls-1" x="333.04" y="75.53" width="11.83" height="5.04"/>
  <rect class="cls-1" x="363.32" y="80.57" width="23.67" height="5.04"/>
  <rect class="cls-1" x="393.59" y="80.57" width="23.67" height="5.04"/>
  <rect class="cls-1" x="393.59" y="65.46" width="23.67" height="5.04"/>
  <rect class="cls-1" x="423.87" y="75.53" width="90.14" height="5.04"/>
</svg>