<?xml version="1.0" encoding="UTF-8"?>
<svg id="Layer_1" data-name="Layer 1" xmlns="http://www.w3.org/2000/svg" viewBox="0 0 812.75 12.38">
  <defs>
    <style>
      .cls-1 {
        fill: #fff;
      }

      .cls-2 {
        fill: none;
        stroke: #fff;
        stroke-miterlimit: 10;
        stroke-width: .5px;
      }
    </style>
  </defs>
  <line class="cls-2" y1=".25" x2="812.75" y2=".25"/>
  <g>
    <path class="cls-1" d="m7.83,12.38H0v-5.78c1.08-1.08,1.69-1.69,2.77-2.77h2.29c1.08,1.08,1.69,1.69,2.77,2.77v5.78Z"/>
    <path class="cls-1" d="m141.98,12.38h-7.83v-5.78c1.08-1.08,1.69-1.69,2.77-2.77h2.29c1.08,1.08,1.69,1.69,2.77,2.77v5.78Z"/>
    <path class="cls-1" d="m276.14,12.38h-7.83v-5.78c1.08-1.08,1.69-1.69,2.77-2.77h2.29c1.08,1.08,1.69,1.69,2.77,2.77v5.78Z"/>
    <path class="cls-1" d="m410.29,12.38h-7.83v-5.78c1.08-1.08,1.69-1.69,2.77-2.77h2.29c1.08,1.08,1.69,1.69,2.77,2.77v5.78Z"/>
    <path class="cls-1" d="m544.44,12.38h-7.83v-5.78c1.08-1.08,1.69-1.69,2.77-2.77h2.29c1.08,1.08,1.69,1.69,2.77,2.77v5.78Z"/>
    <path class="cls-1" d="m678.59,12.38h-7.83v-5.78c1.08-1.08,1.69-1.69,2.77-2.77h2.29c1.08,1.08,1.69,1.69,2.77,2.77v5.78Z"/>
    <path class="cls-1" d="m812.75,12.38h-7.83v-5.78c1.08-1.08,1.69-1.69,2.77-2.77h2.29c1.08,1.08,1.69,1.69,2.77,2.77v5.78Z"/>
  </g>
</svg>