<?xml version="1.0" encoding="UTF-8"?>
<svg id="Layer_1" data-name="Layer 1" xmlns="http://www.w3.org/2000/svg" viewBox="0 0 538.36 85.61">
  <defs>
    <style>
      .cls-1 {
        fill: #fff;
      }
    </style>
  </defs>
  <rect class="cls-1" x="302.76" y="75.53" width="23.67" height="10.07"/>
  <rect class="cls-1" x="272.49" y="75.53" width="23.67" height="10.07"/>
  <rect class="cls-1" x="211.93" y="75.53" width="11.83" height="10.07"/>
  <rect class="cls-1" x="193.49" y="75.53" width="11.83" height="10.07"/>
  <polygon class="cls-1" points="121.11 75.53 121.11 85.61 151.38 85.61 175.05 85.61 175.05 75.53 151.38 75.53 121.11 75.53"/>
  <rect class="cls-1" x="90.83" y="75.53" width="23.67" height="5.04"/>
  <rect class="cls-1" x="454.14" y="75.53" width="23.67" height="10.07"/>
  <rect class="cls-1" x="484.42" y="75.53" width="23.67" height="10.07"/>
  <rect class="cls-1" x="60.55" y="75.53" width="23.67" height="10.07"/>
  <rect class="cls-1" x="30.28" y="75.53" width="23.67" height="10.07"/>
  <rect class="cls-1" y="75.53" width="23.67" height="10.07"/>
  <rect class="cls-1" x="333.04" y="60.43" width="23.67" height="10.07"/>
  <rect class="cls-1" x="314.6" y="60.43" width="11.83" height="10.07"/>
  <rect class="cls-1" x="296.15" y="60.43" width="10.07" height="10.07"/>
  <rect class="cls-1" x="242.21" y="60.43" width="23.67" height="10.07"/>
  <rect class="cls-1" x="211.93" y="60.43" width="23.67" height="10.07"/>
  <rect class="cls-1" x="181.66" y="60.43" width="23.67" height="10.07"/>
  <rect class="cls-1" x="169.13" y="60.43" width="5.92" height="10.07"/>
  <rect class="cls-1" x="157.3" y="60.43" width="5.92" height="10.07"/>
  <rect class="cls-1" x="114.84" y="60.43" width="5.92" height="10.07"/>
  <rect class="cls-1" x="363.32" y="60.43" width="23.67" height="10.07"/>
  <rect class="cls-1" x="393.59" y="60.43" width="23.67" height="10.07"/>
  <rect class="cls-1" x="423.87" y="60.43" width="23.67" height="10.07"/>
  <rect class="cls-1" x="454.14" y="60.43" width="23.67" height="10.07"/>
  <rect class="cls-1" x="484.42" y="60.43" width="23.67" height="10.07"/>
  <rect class="cls-1" x="60.55" y="60.43" width="23.67" height="10.07"/>
  <rect class="cls-1" x="30.28" y="60.43" width="23.67" height="10.07"/>
  <rect class="cls-1" y="60.43" width="23.67" height="10.07"/>
  <rect class="cls-1" x="132.94" y="50.36" width="11.83" height="5.04"/>
  <rect class="cls-1" x="90.83" y="50.36" width="11.83" height="5.04"/>
  <polygon class="cls-1" points="363.32 55.39 375.15 55.39 386.98 55.39 386.98 50.36 386.98 45.32 363.32 45.32 363.32 55.39"/>
  <rect class="cls-1" x="393.59" y="45.32" width="23.67" height="10.07"/>
  <rect class="cls-1" x="423.87" y="45.32" width="23.67" height="10.07"/>
  <rect class="cls-1" x="454.14" y="45.32" width="23.67" height="10.07"/>
  <rect class="cls-1" x="484.42" y="45.32" width="23.67" height="10.07"/>
  <rect class="cls-1" x="60.55" y="45.32" width="23.67" height="10.07"/>
  <rect class="cls-1" x="30.28" y="45.32" width="23.67" height="10.07"/>
  <rect class="cls-1" y="45.32" width="23.67" height="10.07"/>
  <rect class="cls-1" x="211.93" y="35.25" width="11.83" height="5.04"/>
  <rect class="cls-1" x="254.04" y="30.21" width="11.83" height="5.04"/>
  <rect class="cls-1" x="272.49" y="30.21" width="11.83" height="5.04"/>
  <rect class="cls-1" x="393.59" y="30.21" width="23.67" height="10.07"/>
  <rect class="cls-1" x="423.87" y="30.21" width="5.92" height="5.04"/>
  <rect class="cls-1" x="435.7" y="30.21" width="5.92" height="5.04"/>
  <polygon class="cls-1" points="484.42 30.21 454.14 30.21 454.14 35.25 484.42 35.25 484.42 40.28 508.09 40.28 508.09 35.25 538.36 35.25 538.36 30.21 508.09 30.21 484.42 30.21"/>
  <rect class="cls-1" x="181.66" y="30.21" width="23.67" height="10.07"/>
  <rect class="cls-1" x="302.76" y="30.21" width="23.67" height="10.07"/>
  <rect class="cls-1" x="333.04" y="30.21" width="23.67" height="10.07"/>
  <rect class="cls-1" x="151.38" y="30.21" width="23.67" height="10.07"/>
  <rect class="cls-1" x="121.11" y="30.21" width="23.67" height="10.07"/>
  <rect class="cls-1" x="90.83" y="30.21" width="23.67" height="10.07"/>
  <rect class="cls-1" x="60.55" y="30.21" width="23.67" height="10.07"/>
  <rect class="cls-1" x="30.28" y="30.21" width="23.67" height="10.07"/>
  <rect class="cls-1" y="30.21" width="23.67" height="10.07"/>
  <polygon class="cls-1" points="538.36 20.14 447.54 20.14 447.54 15.11 423.87 15.11 423.87 20.14 417.26 20.14 417.26 15.11 393.59 15.11 393.59 20.14 386.98 20.14 386.98 15.11 363.32 15.11 363.32 20.14 356.71 20.14 356.71 15.11 333.04 15.11 333.04 20.14 326.43 20.14 326.43 15.11 302.76 15.11 302.76 20.14 296.15 20.14 296.15 15.11 272.49 15.11 272.49 20.14 265.88 20.14 265.88 15.11 242.21 15.11 242.21 20.14 235.6 20.14 235.6 15.11 211.93 15.11 211.93 25.18 223.77 25.18 235.6 25.18 242.21 25.18 265.88 25.18 272.49 25.18 296.15 25.18 302.76 25.18 326.43 25.18 333.04 25.18 356.71 25.18 363.32 25.18 386.98 25.18 393.59 25.18 417.26 25.18 423.87 25.18 447.54 25.18 538.36 25.18 538.36 20.14"/>
  <rect class="cls-1" x="181.66" y="15.11" width="23.67" height="10.07"/>
  <rect class="cls-1" x="151.38" y="15.11" width="23.67" height="10.07"/>
  <rect class="cls-1" x="121.11" y="15.11" width="23.67" height="10.07"/>
  <rect class="cls-1" x="90.83" y="15.11" width="23.67" height="10.07"/>
  <rect class="cls-1" x="60.55" y="15.11" width="23.67" height="10.07"/>
  <rect class="cls-1" x="30.28" y="15.11" width="23.67" height="10.07"/>
  <rect class="cls-1" y="15.11" width="23.67" height="10.07"/>
  <polygon class="cls-1" points="538.36 0 514.7 0 508.09 0 484.42 0 477.81 0 454.14 0 447.54 0 423.87 0 417.26 0 393.59 0 386.98 0 363.32 0 356.71 0 333.04 0 326.43 0 302.76 0 296.15 0 272.49 0 265.88 0 242.21 0 235.6 0 223.77 0 211.93 0 211.93 5.04 205.32 5.04 205.32 0 181.66 0 181.66 5.04 175.05 5.04 175.05 0 151.38 0 151.38 5.04 144.77 5.04 144.77 0 121.11 0 121.11 5.04 114.5 5.04 114.5 0 90.83 0 90.83 5.04 84.22 5.04 84.22 0 60.55 0 60.55 5.04 53.94 5.04 53.94 0 30.28 0 30.28 5.04 23.67 5.04 23.67 0 0 0 0 5.04 0 10.07 23.67 10.07 30.28 10.07 53.94 10.07 60.55 10.07 84.22 10.07 90.83 10.07 114.5 10.07 121.11 10.07 144.77 10.07 151.38 10.07 175.05 10.07 181.66 10.07 205.32 10.07 211.93 10.07 235.6 10.07 242.21 10.07 265.88 10.07 272.49 10.07 296.15 10.07 302.76 10.07 314.6 10.07 326.43 10.07 326.43 5.04 333.04 5.04 333.04 10.07 356.71 10.07 356.71 5.04 363.32 5.04 363.32 10.07 386.98 10.07 386.98 5.04 393.59 5.04 393.59 10.07 417.26 10.07 417.26 5.04 423.87 5.04 423.87 10.07 447.54 10.07 447.54 5.04 454.14 5.04 454.14 10.07 477.81 10.07 477.81 5.04 484.42 5.04 484.42 10.07 508.09 10.07 508.09 5.04 514.7 5.04 514.7 10.07 538.36 10.07 538.36 0 538.36 0"/>
</svg>