<?xml version="1.0" encoding="UTF-8"?>
<svg id="Layer_1" data-name="Layer 1" xmlns="http://www.w3.org/2000/svg" viewBox="0 0 312.23 19.74">
  <defs>
    <style>
      .cls-1 {
        fill: #fff;
      }
    </style>
  </defs>
  <polygon class="cls-1" points="11.48 0 0 11.48 0 2.96 2.96 0 11.48 0"/>
  <polygon class="cls-1" points="23.32 0 3.58 19.74 0 19.74 0 14.81 14.81 0 23.32 0"/>
  <polygon class="cls-1" points="35.16 0 15.43 19.74 6.91 19.74 26.65 0 35.16 0"/>
  <polygon class="cls-1" points="47.01 0 27.27 19.74 18.75 19.74 38.49 0 47.01 0"/>
  <polygon class="cls-1" points="58.85 0 39.12 19.74 30.59 19.74 50.34 0 58.85 0"/>
  <polygon class="cls-1" points="70.7 0 50.96 19.74 42.44 19.74 62.18 0 70.7 0"/>
  <polygon class="cls-1" points="82.54 0 62.8 19.74 54.28 19.74 74.03 0 82.54 0"/>
  <polygon class="cls-1" points="94.39 0 74.65 19.74 66.13 19.74 85.87 0 94.39 0"/>
  <polygon class="cls-1" points="106.23 0 86.49 19.74 77.97 19.74 97.72 0 106.23 0"/>
  <polygon class="cls-1" points="118.07 0 98.33 19.74 89.82 19.74 109.56 0 118.07 0"/>
  <polygon class="cls-1" points="129.92 0 110.18 19.74 101.66 19.74 121.4 0 129.92 0"/>
  <polygon class="cls-1" points="141.76 0 122.02 19.74 113.5 19.74 133.25 0 141.76 0"/>
  <polygon class="cls-1" points="153.6 0 133.87 19.74 125.35 19.74 145.09 0 153.6 0"/>
  <polygon class="cls-1" points="165.45 0 145.71 19.74 137.19 19.74 156.93 0 165.45 0"/>
  <polygon class="cls-1" points="177.29 0 157.56 19.74 149.03 19.74 168.78 0 177.29 0"/>
  <polygon class="cls-1" points="189.14 0 169.4 19.74 160.88 19.74 180.62 0 189.14 0"/>
  <polygon class="cls-1" points="200.98 0 181.24 19.74 172.72 19.74 192.47 0 200.98 0"/>
  <polygon class="cls-1" points="212.83 0 193.09 19.74 184.57 19.74 204.31 0 212.83 0"/>
  <polygon class="cls-1" points="224.67 0 204.93 19.74 196.41 19.74 216.16 0 224.67 0"/>
  <polygon class="cls-1" points="236.51 0 216.77 19.74 208.26 19.74 228 0 236.51 0"/>
  <polygon class="cls-1" points="248.36 0 228.62 19.74 220.1 19.74 239.84 0 248.36 0"/>
  <polygon class="cls-1" points="260.2 0 240.46 19.74 231.94 19.74 251.68 0 260.2 0"/>
  <polygon class="cls-1" points="272.04 0 252.31 19.74 243.79 19.74 263.53 0 272.04 0"/>
  <polygon class="cls-1" points="283.89 0 264.15 19.74 255.63 19.74 275.37 0 283.89 0"/>
  <polygon class="cls-1" points="295.73 0 276 19.74 267.47 19.74 287.22 0 295.73 0"/>
  <polygon class="cls-1" points="307.58 0 287.84 19.74 279.32 19.74 299.06 0 307.58 0"/>
  <polygon class="cls-1" points="312.23 0 312.23 7.19 299.68 19.74 291.16 19.74 310.91 0 312.23 0"/>
  <polygon class="cls-1" points="312.23 10.52 312.23 19.04 311.52 19.74 303.01 19.74 312.23 10.52"/>
</svg>