<?xml version="1.0" encoding="UTF-8"?>
<svg id="Layer_1" data-name="Layer 1" xmlns="http://www.w3.org/2000/svg" viewBox="0 0 538.36 85.61">
  <defs>
    <style>
      .cls-1 {
        fill: #fff;
      }
    </style>
  </defs>
  <polygon class="cls-1" points="386.98 70.5 398.82 70.5 405.43 70.5 417.26 70.5 435.7 70.5 459.37 70.5 489.65 70.5 489.65 65.46 489.65 60.43 459.37 60.43 435.7 60.43 435.7 65.46 417.26 65.46 417.26 60.43 405.43 60.43 405.43 65.46 398.82 65.46 398.82 60.43 386.98 60.43 386.98 65.46 338.26 65.46 338.26 60.43 314.6 60.43 314.6 65.46 307.99 65.46 307.99 60.43 284.32 60.43 284.32 65.46 235.6 65.46 235.6 60.43 211.93 60.43 211.93 70.5 223.77 70.5 235.6 70.5 284.32 70.5 307.99 70.5 314.6 70.5 338.26 70.5 386.98 70.5"/>
  <rect class="cls-1" x="496.25" y="65.46" width="23.67" height="5.04"/>
  <rect class="cls-1" x="121.11" y="75.53" width="23.67" height="5.04"/>
  <rect class="cls-1" x="90.83" y="80.57" width="23.67" height="5.04"/>
  <rect class="cls-1" x="72.39" y="75.53" width="11.83" height="10.07"/>
  <rect class="cls-1" x="151.04" y="75.53" width="54.29" height="5.04"/>
  <rect class="cls-1" x="254.04" y="75.53" width="23.67" height="10.07"/>
  <rect class="cls-1" x="284.32" y="75.53" width="11.83" height="10.07"/>
  <rect class="cls-1" x="304.53" y="75.53" width="10.07" height="10.07"/>
  <polygon class="cls-1" points="489.99 75.53 453.45 75.53 447.54 75.53 441.62 75.53 435.7 75.53 429.09 75.53 405.43 75.53 398.82 75.53 375.15 75.53 368.54 75.53 344.87 75.53 320.51 75.53 320.51 80.57 344.87 80.57 344.87 85.61 368.54 85.61 368.54 80.57 375.15 80.57 375.15 85.61 398.82 85.61 398.82 80.57 405.43 80.57 405.43 85.61 429.09 85.61 429.09 80.57 435.7 80.57 435.7 85.61 441.62 85.61 441.62 80.57 447.54 80.57 447.54 85.61 453.45 85.61 453.45 80.57 489.99 80.57 489.99 85.61 495.91 85.61 495.91 80.57 538.36 80.57 538.36 75.53 495.91 75.53 489.99 75.53"/>
  <rect class="cls-1" x="193.49" y="60.43" width="11.83" height="10.07"/>
  <rect class="cls-1" x="181.66" y="60.43" width="5.92" height="10.07"/>
  <rect class="cls-1" x="151.38" y="60.43" width="11.83" height="10.07"/>
  <rect class="cls-1" x="90.83" y="65.46" width="5.92" height="5.04"/>
  <rect class="cls-1" x="60.55" y="60.43" width="11.83" height="10.07"/>
  <rect class="cls-1" x="30.28" y="65.46" width="23.67" height="5.04"/>
  <rect class="cls-1" y="60.43" width="5.92" height="5.04"/>
  <rect class="cls-1" x="526.53" y="50.36" width="11.83" height="5.04"/>
  <rect class="cls-1" x="284.32" y="50.36" width="11.83" height="5.04"/>
  <rect class="cls-1" x="242.21" y="50.36" width="11.83" height="5.04"/>
  <rect class="cls-1" x="211.93" y="45.32" width="23.67" height="5.04"/>
  <rect class="cls-1" x="181.66" y="45.32" width="23.67" height="10.07"/>
  <rect class="cls-1" x="121.11" y="45.32" width="11.83" height="5.04"/>
  <rect class="cls-1" x="102.66" y="50.36" width="11.83" height="5.04"/>
  <rect class="cls-1" x="102.66" y="65.46" width="11.83" height="5.04"/>
  <rect class="cls-1" y="50.36" width="5.92" height="5.04"/>
  <rect class="cls-1" x="526.53" y="35.25" width="11.83" height="5.04"/>
  <rect class="cls-1" x="484.42" y="30.21" width="11.83" height="5.04"/>
  <rect class="cls-1" x="465.98" y="30.21" width="11.83" height="5.04"/>
  <rect class="cls-1" x="333.04" y="30.21" width="23.67" height="10.07"/>
  <rect class="cls-1" x="320.51" y="30.21" width="5.92" height="5.04"/>
  <rect class="cls-1" x="308.68" y="30.21" width="5.92" height="5.04"/>
  <polygon class="cls-1" points="296.15 30.21 265.88 30.21 242.21 30.21 211.93 30.21 211.93 35.25 242.21 35.25 242.21 40.28 265.88 40.28 265.88 35.25 296.15 35.25 296.15 30.21"/>
  <rect class="cls-1" x="151.38" y="30.21" width="5.92" height="10.07"/>
  <rect class="cls-1" x="121.11" y="35.25" width="23.67" height="5.04"/>
  <rect class="cls-1" x="90.83" y="35.25" width="11.83" height="5.04"/>
  <rect class="cls-1" x="60.55" y="30.21" width="23.67" height="5.04"/>
  <polygon class="cls-1" points="223.77 25.18 242.21 25.18 265.88 25.18 272.49 25.18 296.15 25.18 302.76 25.18 326.43 25.18 333.04 25.18 356.71 25.18 363.32 25.18 386.98 25.18 393.59 25.18 417.26 25.18 423.87 25.18 447.54 25.18 477.81 25.18 477.81 20.14 447.54 20.14 447.54 15.11 423.87 15.11 423.87 20.14 417.26 20.14 417.26 15.11 393.59 15.11 393.59 20.14 386.98 20.14 386.98 15.11 363.32 15.11 363.32 20.14 356.71 20.14 356.71 15.11 333.04 15.11 333.04 20.14 326.43 20.14 326.43 15.11 302.76 15.11 302.76 20.14 296.15 20.14 296.15 15.11 272.49 15.11 272.49 20.14 265.88 20.14 265.88 15.11 242.21 15.11 242.21 20.14 223.77 20.14 223.77 15.11 211.93 15.11 211.93 20.14 205.32 20.14 205.32 15.11 193.49 15.11 193.49 20.14 175.05 20.14 175.05 15.11 151.38 15.11 151.38 25.18 163.22 25.18 175.05 25.18 193.49 25.18 205.32 25.18 211.93 25.18 223.77 25.18"/>
  <rect class="cls-1" x="121.11" y="15.11" width="23.67" height="5.04"/>
  <rect class="cls-1" x="90.83" y="20.14" width="5.92" height="5.04"/>
  <rect class="cls-1" x="121.11" y="65.46" width="5.92" height="5.04"/>
  <rect class="cls-1" x="60.55" y="15.11" width="11.83" height="5.04"/>
  <rect class="cls-1" x="30.28" y="15.11" width="23.67" height="5.04"/>
  <rect class="cls-1" x="532.45" width="5.92" height="5.04"/>
  <rect class="cls-1" x="484.42" y="5.04" width="23.67" height="5.04"/>
  <rect class="cls-1" x="454.14" width="11.83" height="10.07"/>
  <rect class="cls-1" x="423.87" width="23.67" height="10.07"/>
  <polygon class="cls-1" points="386.98 10.07 393.59 10.07 417.26 10.07 417.26 0 393.59 0 386.98 0 363.32 0 333.04 0 333.04 10.07 363.32 10.07 386.98 10.07"/>
  <rect class="cls-1" x="302.76" width="23.67" height="10.07"/>
  <rect class="cls-1" x="272.49" width="23.67" height="10.07"/>
  <polygon class="cls-1" points="181.66 10.07 205.32 10.07 205.32 5.04 223.77 5.04 223.77 10.07 235.6 10.07 235.6 5.04 242.21 5.04 242.21 10.07 265.88 10.07 265.88 5.04 265.88 0 242.21 0 235.6 0 223.77 0 205.32 0 181.66 0 151.38 0 151.38 5.04 181.66 5.04 181.66 10.07"/>
  <rect class="cls-1" x="132.94" y="5.04" width="11.83" height="5.04"/>
  <rect class="cls-1" x="90.83" width="5.92" height="5.04"/>
  <rect class="cls-1" width="11.83" height="5.04"/>
</svg>