<?xml version="1.0" encoding="UTF-8"?>
<svg id="Layer_1" data-name="Layer 1" xmlns="http://www.w3.org/2000/svg" viewBox="0 0 538.36 85.61">
  <defs>
    <style>
      .cls-1 {
        fill: #fff;
      }
    </style>
  </defs>
  <polygon class="cls-1" points="84.22 10.07 90.83 10.07 114.5 10.07 163.21 10.07 175.05 10.07 181.66 10.07 193.49 10.07 211.93 10.07 235.6 10.07 265.88 10.07 265.88 5.04 265.88 0 235.6 0 211.93 0 211.93 5.04 193.49 5.04 193.49 0 181.66 0 181.66 5.04 175.05 5.04 175.05 0 163.21 0 163.21 5.04 114.5 5.04 114.5 0 90.83 0 90.83 5.04 84.22 5.04 84.22 0 60.55 0 60.55 5.04 0 5.04 0 10.07 60.55 10.07 84.22 10.07"/>
  <rect class="cls-1" x="272.49" y="5.04" width="23.67" height="5.04"/>
  <polygon class="cls-1" points="490.34 5.04 490.34 0 484.42 0 484.42 5.04 477.81 5.04 477.81 0 471.89 0 471.89 5.04 417.26 5.04 417.26 0 393.59 0 393.59 5.04 393.59 10.07 417.26 10.07 471.89 10.07 477.81 10.07 484.42 10.07 490.34 10.07 538.36 10.07 538.36 5.04 490.34 5.04"/>
  <polygon class="cls-1" points="60.55 20.14 60.55 25.18 72.39 25.18 72.39 20.14 80.76 20.14 80.76 25.18 90.83 25.18 90.83 20.14 121.11 20.14 121.11 25.18 144.77 25.18 144.77 20.14 151.38 20.14 151.38 25.18 175.05 25.18 175.05 20.14 181.66 20.14 181.66 25.18 205.32 25.18 205.32 20.14 211.93 20.14 211.93 25.18 217.85 25.18 217.85 20.14 223.77 20.14 223.77 25.18 229.68 25.18 229.68 20.14 266.22 20.14 266.22 25.18 272.14 25.18 272.14 20.14 302.76 20.14 302.76 25.18 326.43 25.18 326.43 15.11 314.6 15.11 302.76 15.11 272.14 15.11 266.22 15.11 229.68 15.11 223.77 15.11 217.85 15.11 211.93 15.11 205.32 15.11 181.66 15.11 175.05 15.11 151.38 15.11 144.77 15.11 121.11 15.11 90.83 15.11 80.76 15.11 72.39 15.11 60.55 15.11 53.94 15.11 30.28 15.11 0 15.11 0 20.14 30.28 20.14 30.28 25.18 53.94 25.18 53.94 20.14 60.55 20.14"/>
  <rect class="cls-1" x="333.04" y="15.11" width="53.94" height="5.04"/>
  <rect class="cls-1" x="393.59" y="15.11" width="5.92" height="10.07"/>
  <rect class="cls-1" x="423.87" y="15.11" width="23.67" height="10.07"/>
  <rect class="cls-1" x="454.14" y="15.11" width="23.67" height="10.07"/>
  <rect class="cls-1" x="484.42" y="15.11" width="23.67" height="10.07"/>
  <rect class="cls-1" x="526.53" y="15.11" width="11.83" height="5.04"/>
  <rect class="cls-1" y="30.21" width="11.83" height="5.04"/>
  <rect class="cls-1" x="242.21" y="30.21" width="11.83" height="5.04"/>
  <rect class="cls-1" x="284.32" y="30.21" width="11.83" height="5.04"/>
  <rect class="cls-1" x="302.76" y="30.21" width="23.67" height="10.07"/>
  <rect class="cls-1" x="333.04" y="30.21" width="23.67" height="10.07"/>
  <rect class="cls-1" x="363.32" y="30.21" width="23.67" height="10.07"/>
  <rect class="cls-1" x="393.59" y="30.21" width="23.67" height="10.07"/>
  <rect class="cls-1" x="423.87" y="30.21" width="23.67" height="10.07"/>
  <rect class="cls-1" x="454.14" y="30.21" width="23.67" height="10.07"/>
  <rect class="cls-1" x="484.42" y="30.21" width="23.67" height="10.07"/>
  <rect class="cls-1" x="514.7" y="35.25" width="23.67" height="5.04"/>
  <rect class="cls-1" y="45.32" width="11.83" height="5.04"/>
  <rect class="cls-1" x="42.11" y="50.36" width="11.83" height="5.04"/>
  <rect class="cls-1" x="60.55" y="50.36" width="11.83" height="5.04"/>
  <rect class="cls-1" x="181.66" y="45.32" width="23.67" height="10.07"/>
  <rect class="cls-1" x="211.93" y="50.36" width="5.92" height="5.04"/>
  <rect class="cls-1" x="223.77" y="50.36" width="5.92" height="5.04"/>
  <polygon class="cls-1" points="242.21 55.39 272.49 55.39 296.15 55.39 326.43 55.39 326.43 50.36 296.15 50.36 296.15 45.32 272.49 45.32 272.49 50.36 242.21 50.36 242.21 55.39"/>
  <rect class="cls-1" x="333.04" y="45.32" width="23.67" height="10.07"/>
  <rect class="cls-1" x="363.32" y="45.32" width="23.67" height="10.07"/>
  <rect class="cls-1" x="393.59" y="45.32" width="23.67" height="10.07"/>
  <rect class="cls-1" x="423.87" y="45.32" width="5.92" height="10.07"/>
  <rect class="cls-1" x="435.7" y="45.32" width="5.92" height="10.07"/>
  <rect class="cls-1" x="447.54" y="45.32" width="5.92" height="10.07"/>
  <rect class="cls-1" x="459.37" y="45.32" width="5.92" height="10.07"/>
  <rect class="cls-1" x="484.42" y="45.32" width="23.67" height="10.07"/>
  <rect class="cls-1" x="514.7" y="45.32" width="11.83" height="10.07"/>
  <polygon class="cls-1" points="363.32 60.43 356.71 60.43 333.04 60.43 326.43 60.43 302.76 60.43 296.15 60.43 272.49 60.43 265.88 60.43 242.21 60.43 235.6 60.43 211.93 60.43 205.32 60.43 181.66 60.43 175.05 60.43 151.38 60.43 144.77 60.43 121.11 60.43 114.5 60.43 90.83 60.43 60.55 60.43 60.55 65.46 90.83 65.46 90.83 70.5 114.5 70.5 114.5 65.46 121.11 65.46 121.11 70.5 144.77 70.5 144.77 65.46 151.38 65.46 151.38 70.5 175.05 70.5 175.05 65.46 181.66 65.46 181.66 70.5 205.32 70.5 205.32 65.46 211.93 65.46 211.93 70.5 235.6 70.5 235.6 65.46 242.21 65.46 242.21 70.5 265.88 70.5 265.88 65.46 272.49 65.46 272.49 70.5 296.15 70.5 296.15 65.46 302.76 65.46 302.76 70.5 326.43 70.5 326.43 65.46 333.04 65.46 333.04 70.5 356.71 70.5 356.71 65.46 363.32 65.46 363.32 70.5 386.98 70.5 386.98 60.43 375.15 60.43 363.32 60.43"/>
  <rect class="cls-1" x="393.59" y="60.43" width="23.67" height="10.07"/>
  <rect class="cls-1" x="423.87" y="60.43" width="23.67" height="10.07"/>
  <rect class="cls-1" x="454.14" y="60.43" width="23.67" height="10.07"/>
  <rect class="cls-1" x="484.42" y="60.43" width="23.67" height="10.07"/>
  <rect class="cls-1" x="532.45" y="60.43" width="5.92" height="10.07"/>
  <rect class="cls-1" y="75.53" width="5.92" height="10.07"/>
  <rect class="cls-1" x="30.28" y="80.57" width="11.83" height="5.04"/>
  <rect class="cls-1" x="60.55" y="80.57" width="11.83" height="5.04"/>
  <rect class="cls-1" x="102.66" y="75.53" width="11.83" height="10.07"/>
  <rect class="cls-1" x="121.11" y="75.53" width="5.92" height="10.07"/>
  <polygon class="cls-1" points="333.04 75.53 326.43 75.53 320.51 75.53 302.42 75.53 296.5 75.53 284.32 75.53 272.49 75.53 265.88 75.53 242.21 75.53 211.59 75.53 205.67 75.53 175.05 75.53 163.21 75.53 151.38 75.53 151.38 80.57 163.21 80.57 163.21 85.61 175.05 85.61 175.05 80.57 205.67 80.57 205.67 85.61 211.59 85.61 211.59 80.57 242.21 80.57 242.21 85.61 265.88 85.61 265.88 80.57 272.49 80.57 272.49 85.61 284.32 85.61 284.32 80.57 296.5 80.57 296.5 85.61 302.42 85.61 302.42 80.57 320.51 80.57 320.51 85.61 326.43 85.61 326.43 80.57 333.04 80.57 333.04 85.61 356.71 85.61 356.71 80.57 386.98 80.57 386.98 75.53 356.71 75.53 333.04 75.53"/>
  <polygon class="cls-1" points="477.81 75.53 454.14 75.53 454.14 80.57 435.7 80.57 435.7 75.53 423.87 75.53 423.87 80.57 417.26 80.57 417.26 75.53 405.43 75.53 405.43 80.57 393.59 80.57 393.59 85.61 405.43 85.61 417.26 85.61 423.87 85.61 435.7 85.61 454.14 85.61 477.81 85.61 508.09 85.61 508.09 80.57 477.81 80.57 477.81 75.53"/>
  <rect class="cls-1" x="532.45" y="80.57" width="5.92" height="5.04"/>
</svg>