<?xml version="1.0" encoding="UTF-8"?>
<svg id="Layer_1" data-name="Layer 1" xmlns="http://www.w3.org/2000/svg" viewBox="0 0 538.36 85.61">
  <defs>
    <style>
      .cls-1 {
        fill: #fff;
      }
    </style>
  </defs>
  <rect class="cls-1" x="393.59" width="23.67" height="10.07"/>
  <rect class="cls-1" x="423.87" width="23.67" height="10.07"/>
  <rect class="cls-1" x="454.14" width="23.67" height="10.07"/>
  <rect class="cls-1" x="484.42" width="23.67" height="10.07"/>
  <rect class="cls-1" x="514.7" width="23.67" height="10.07"/>
  <rect class="cls-1" x="333.04" y="15.11" width="23.67" height="10.07"/>
  <rect class="cls-1" x="363.32" y="15.11" width="23.67" height="10.07"/>
  <rect class="cls-1" x="393.59" y="15.11" width="23.67" height="10.07"/>
  <rect class="cls-1" x="423.87" y="15.11" width="23.67" height="10.07"/>
  <rect class="cls-1" x="454.14" y="20.14" width="11.83" height="5.04"/>
  <rect class="cls-1" x="484.42" y="15.11" width="23.67" height="10.07"/>
  <rect class="cls-1" x="514.7" y="15.11" width="23.67" height="10.07"/>
  <rect class="cls-1" x="333.04" y="30.21" width="23.67" height="10.07"/>
  <rect class="cls-1" x="363.32" y="30.21" width="23.67" height="10.07"/>
  <rect class="cls-1" x="393.59" y="30.21" width="23.67" height="10.07"/>
  <rect class="cls-1" x="423.87" y="30.21" width="23.67" height="10.07"/>
  <rect class="cls-1" x="454.14" y="30.21" width="23.67" height="10.07"/>
  <rect class="cls-1" x="484.42" y="30.21" width="23.67" height="10.07"/>
  <rect class="cls-1" x="514.7" y="30.21" width="23.67" height="10.07"/>
  <polygon class="cls-1" points="333.04 50.36 326.43 50.36 326.43 45.32 302.76 45.32 302.76 50.36 296.15 50.36 296.15 45.32 272.49 45.32 272.49 50.36 248.13 50.36 248.13 45.32 242.21 45.32 242.21 50.36 235.6 50.36 235.6 45.32 211.93 45.32 211.93 50.36 205.32 50.36 205.32 45.32 181.66 45.32 181.66 50.36 175.05 50.36 175.05 45.32 151.38 45.32 151.38 50.36 151.38 55.39 175.05 55.39 181.66 55.39 205.32 55.39 211.93 55.39 235.6 55.39 242.21 55.39 248.13 55.39 272.49 55.39 296.15 55.39 302.76 55.39 326.43 55.39 333.04 55.39 356.71 55.39 356.71 50.36 356.71 45.32 333.04 45.32 333.04 50.36"/>
  <rect class="cls-1" x="363.32" y="45.32" width="23.67" height="10.07"/>
  <rect class="cls-1" x="393.59" y="45.32" width="23.67" height="10.07"/>
  <rect class="cls-1" x="423.87" y="45.32" width="23.67" height="10.07"/>
  <polygon class="cls-1" points="477.81 45.32 454.14 45.32 454.14 50.36 454.14 55.39 477.81 55.39 477.81 50.36 514.7 50.36 514.7 55.39 538.36 55.39 538.36 50.36 538.36 45.32 514.7 45.32 477.81 45.32"/>
  <rect class="cls-1" x="333.04" y="60.43" width="23.67" height="10.07"/>
  <rect class="cls-1" x="363.32" y="60.43" width="23.67" height="10.07"/>
  <rect class="cls-1" x="393.59" y="60.43" width="23.67" height="10.07"/>
  <rect class="cls-1" x="423.87" y="60.43" width="23.67" height="10.07"/>
  <rect class="cls-1" x="454.14" y="60.43" width="23.67" height="10.07"/>
  <rect class="cls-1" x="484.42" y="60.43" width="23.67" height="10.07"/>
  <rect class="cls-1" x="514.7" y="60.43" width="23.67" height="10.07"/>
  <rect class="cls-1" x="302.76" width="23.67" height="10.07"/>
  <rect class="cls-1" x="211.93" y="15.11" width="23.67" height="10.07"/>
  <rect class="cls-1" x="242.21" y="15.11" width="23.67" height="10.07"/>
  <rect class="cls-1" x="272.49" y="15.11" width="23.67" height="10.07"/>
  <rect class="cls-1" x="302.76" y="15.11" width="23.67" height="10.07"/>
  <rect class="cls-1" x="181.66" y="30.21" width="23.67" height="10.07"/>
  <rect class="cls-1" x="211.93" y="30.21" width="23.67" height="10.07"/>
  <rect class="cls-1" x="242.21" y="30.21" width="23.67" height="10.07"/>
  <rect class="cls-1" x="272.49" y="30.21" width="23.67" height="10.07"/>
  <rect class="cls-1" x="302.76" y="30.21" width="23.67" height="10.07"/>
  <rect class="cls-1" x="181.66" y="60.43" width="23.67" height="10.07"/>
  <rect class="cls-1" x="211.93" y="60.43" width="23.67" height="10.07"/>
  <rect class="cls-1" x="242.21" y="60.43" width="23.67" height="10.07"/>
  <rect class="cls-1" x="272.49" y="60.43" width="23.67" height="10.07"/>
  <rect class="cls-1" x="302.76" y="60.43" width="23.67" height="10.07"/>
  <rect class="cls-1" x="30.28" width="23.67" height="10.07"/>
  <rect class="cls-1" x="60.55" width="23.67" height="10.07"/>
  <polygon class="cls-1" points="114.5 5.04 121.11 5.04 121.11 10.07 144.77 10.07 144.77 5.04 151.38 5.04 151.38 10.07 175.05 10.07 175.05 5.04 181.66 5.04 181.66 10.07 205.32 10.07 205.32 5.04 211.93 5.04 211.93 10.07 235.6 10.07 235.6 5.04 259.96 5.04 259.96 10.07 265.88 10.07 265.88 5.04 272.49 5.04 272.49 10.07 296.15 10.07 296.15 5.04 296.15 0 272.49 0 265.88 0 259.96 0 235.6 0 211.93 0 205.32 0 181.66 0 175.05 0 151.38 0 144.77 0 121.11 0 114.5 0 90.83 0 90.83 5.04 90.83 10.07 114.5 10.07 114.5 5.04"/>
  <polygon class="cls-1" points="175.05 25.18 181.66 25.18 205.32 25.18 205.32 20.14 205.32 15.11 181.66 15.11 181.66 20.14 175.05 20.14 175.05 15.11 151.38 15.11 151.38 20.14 144.77 20.14 144.77 15.11 121.11 15.11 121.11 20.14 114.5 20.14 114.5 15.11 90.83 15.11 90.83 20.14 84.22 20.14 84.22 15.11 60.55 15.11 60.55 20.14 53.94 20.14 53.94 15.11 30.28 15.11 30.28 20.14 23.67 20.14 23.67 15.11 0 15.11 0 20.14 0 25.18 23.67 25.18 30.28 25.18 53.94 25.18 60.55 25.18 84.22 25.18 90.83 25.18 114.5 25.18 121.11 25.18 144.77 25.18 151.38 25.18 175.05 25.18"/>
  <rect class="cls-1" x="30.28" y="30.21" width="23.67" height="10.07"/>
  <rect class="cls-1" x="60.55" y="30.21" width="23.67" height="10.07"/>
  <rect class="cls-1" x="90.83" y="30.21" width="23.67" height="10.07"/>
  <rect class="cls-1" x="121.11" y="30.21" width="23.67" height="10.07"/>
  <rect class="cls-1" x="151.38" y="30.21" width="23.67" height="10.07"/>
  <rect class="cls-1" x="30.28" y="45.32" width="23.67" height="10.07"/>
  <rect class="cls-1" x="60.55" y="45.32" width="23.67" height="10.07"/>
  <rect class="cls-1" x="90.83" y="45.32" width="23.67" height="10.07"/>
  <rect class="cls-1" x="121.11" y="45.32" width="23.67" height="10.07"/>
  <rect class="cls-1" x="30.28" y="60.43" width="23.67" height="10.07"/>
  <rect class="cls-1" width="23.67" height="10.07"/>
  <rect class="cls-1" y="30.21" width="23.67" height="10.07"/>
  <rect class="cls-1" x="17.75" y="50.36" width="5.92" height="5.04"/>
  <rect class="cls-1" y="60.43" width="23.67" height="10.07"/>
  <rect class="cls-1" x="60.55" y="60.43" width="23.67" height="10.07"/>
  <rect class="cls-1" x="90.83" y="60.43" width="23.67" height="10.07"/>
  <rect class="cls-1" x="121.11" y="65.46" width="23.67" height="5.04"/>
  <rect class="cls-1" x="151.38" y="60.43" width="23.67" height="10.07"/>
  <rect class="cls-1" y="75.53" width="23.67" height="10.07"/>
  <rect class="cls-1" x="30.28" y="75.53" width="23.67" height="10.07"/>
  <rect class="cls-1" x="60.55" y="80.57" width="11.83" height="5.04"/>
  <rect class="cls-1" x="90.83" y="75.53" width="23.67" height="10.07"/>
  <rect class="cls-1" x="121.11" y="75.53" width="23.67" height="10.07"/>
  <rect class="cls-1" x="151.38" y="75.53" width="23.67" height="10.07"/>
  <rect class="cls-1" x="181.66" y="75.53" width="23.67" height="10.07"/>
  <rect class="cls-1" x="211.93" y="75.53" width="23.67" height="10.07"/>
  <rect class="cls-1" x="242.21" y="75.53" width="23.67" height="10.07"/>
  <rect class="cls-1" x="272.49" y="75.53" width="23.67" height="10.07"/>
  <rect class="cls-1" x="302.76" y="75.53" width="23.67" height="10.07"/>
  <rect class="cls-1" x="333.04" y="75.53" width="23.67" height="10.07"/>
  <rect class="cls-1" x="363.32" y="80.57" width="23.67" height="5.04"/>
  <rect class="cls-1" x="393.59" y="80.57" width="23.67" height="5.04"/>
  <rect class="cls-1" x="423.87" y="75.53" width="23.67" height="5.04"/>
  <rect class="cls-1" x="454.14" y="75.53" width="23.67" height="10.07"/>
  <rect class="cls-1" x="484.42" y="75.53" width="23.67" height="10.07"/>
  <rect class="cls-1" x="514.7" y="75.53" width="23.67" height="10.07"/>
</svg>