<?xml version="1.0" encoding="UTF-8"?>
<svg id="Layer_1" data-name="Layer 1" xmlns="http://www.w3.org/2000/svg" viewBox="0 0 809.16 34.72">
  <defs>
    <style>
      .cls-1 {
        fill: none;
        stroke: #fff;
        stroke-miterlimit: 10;
      }
    </style>
  </defs>
  <g>
    <line class="cls-1" x1=".5" x2=".5" y2="34.72"/>
    <line class="cls-1" x1="3.75" x2="3.75" y2="34.72"/>
  </g>
  <g>
    <line class="cls-1" x1="34.04" y1="28.21" x2="34.04" y2="34.72"/>
    <line class="cls-1" x1="37.29" y1="28.21" x2="37.29" y2="34.72"/>
  </g>
  <g>
    <line class="cls-1" x1="67.58" y1="28.21" x2="67.58" y2="34.72"/>
    <line class="cls-1" x1="70.82" y1="28.21" x2="70.82" y2="34.72"/>
  </g>
  <g>
    <line class="cls-1" x1="101.11" y1="28.21" x2="101.11" y2="34.72"/>
    <line class="cls-1" x1="104.36" y1="28.21" x2="104.36" y2="34.72"/>
  </g>
  <g>
    <line class="cls-1" x1="134.65" y1="28.21" x2="134.65" y2="34.72"/>
    <line class="cls-1" x1="137.9" y1="28.21" x2="137.9" y2="34.72"/>
  </g>
  <g>
    <line class="cls-1" x1="168.19" x2="168.19" y2="34.72"/>
    <line class="cls-1" x1="171.44" x2="171.44" y2="34.72"/>
  </g>
  <g>
    <line class="cls-1" x1="201.73" y1="28.21" x2="201.73" y2="34.72"/>
    <line class="cls-1" x1="204.98" y1="28.21" x2="204.98" y2="34.72"/>
  </g>
  <g>
    <line class="cls-1" x1="235.27" y1="28.21" x2="235.27" y2="34.72"/>
    <line class="cls-1" x1="238.51" y1="28.21" x2="238.51" y2="34.72"/>
  </g>
  <g>
    <line class="cls-1" x1="268.8" y1="28.21" x2="268.8" y2="34.72"/>
    <line class="cls-1" x1="272.05" y1="28.21" x2="272.05" y2="34.72"/>
  </g>
  <g>
    <line class="cls-1" x1="302.34" y1="28.21" x2="302.34" y2="34.72"/>
    <line class="cls-1" x1="305.59" y1="28.21" x2="305.59" y2="34.72"/>
  </g>
  <g>
    <line class="cls-1" x1="335.88" x2="335.88" y2="34.72"/>
    <line class="cls-1" x1="339.13" x2="339.13" y2="34.72"/>
  </g>
  <g>
    <line class="cls-1" x1="369.42" y1="28.21" x2="369.42" y2="34.72"/>
    <line class="cls-1" x1="372.67" y1="28.21" x2="372.67" y2="34.72"/>
  </g>
  <g>
    <line class="cls-1" x1="402.96" y1="28.21" x2="402.96" y2="34.72"/>
    <line class="cls-1" x1="406.2" y1="28.21" x2="406.2" y2="34.72"/>
  </g>
  <g>
    <line class="cls-1" x1="436.49" y1="28.21" x2="436.49" y2="34.72"/>
    <line class="cls-1" x1="439.74" y1="28.21" x2="439.74" y2="34.72"/>
  </g>
  <g>
    <line class="cls-1" x1="470.03" y1="28.21" x2="470.03" y2="34.72"/>
    <line class="cls-1" x1="473.28" y1="28.21" x2="473.28" y2="34.72"/>
  </g>
  <g>
    <line class="cls-1" x1="503.57" x2="503.57" y2="34.72"/>
    <line class="cls-1" x1="506.82" x2="506.82" y2="34.72"/>
  </g>
  <g>
    <line class="cls-1" x1="537.11" y1="28.21" x2="537.11" y2="34.72"/>
    <line class="cls-1" x1="540.36" y1="28.21" x2="540.36" y2="34.72"/>
  </g>
  <g>
    <line class="cls-1" x1="570.65" y1="28.21" x2="570.65" y2="34.72"/>
    <line class="cls-1" x1="573.89" y1="28.21" x2="573.89" y2="34.72"/>
  </g>
  <g>
    <line class="cls-1" x1="604.19" y1="28.21" x2="604.19" y2="34.72"/>
    <line class="cls-1" x1="607.43" y1="28.21" x2="607.43" y2="34.72"/>
  </g>
  <g>
    <line class="cls-1" x1="637.72" y1="28.21" x2="637.72" y2="34.72"/>
    <line class="cls-1" x1="640.97" y1="28.21" x2="640.97" y2="34.72"/>
  </g>
  <g>
    <line class="cls-1" x1="671.26" x2="671.26" y2="34.72"/>
    <line class="cls-1" x1="674.51" x2="674.51" y2="34.72"/>
  </g>
  <g>
    <line class="cls-1" x1="704.8" y1="28.21" x2="704.8" y2="34.72"/>
    <line class="cls-1" x1="708.05" y1="28.21" x2="708.05" y2="34.72"/>
  </g>
  <g>
    <line class="cls-1" x1="738.34" y1="28.21" x2="738.34" y2="34.72"/>
    <line class="cls-1" x1="741.58" y1="28.21" x2="741.58" y2="34.72"/>
  </g>
  <g>
    <line class="cls-1" x1="771.88" y1="28.21" x2="771.88" y2="34.72"/>
    <line class="cls-1" x1="775.12" y1="28.21" x2="775.12" y2="34.72"/>
  </g>
  <g>
    <line class="cls-1" x1="805.41" y1="28.21" x2="805.41" y2="34.72"/>
    <line class="cls-1" x1="808.66" y1="28.21" x2="808.66" y2="34.72"/>
  </g>
</svg>