<?xml version="1.0" encoding="UTF-8"?>
<svg id="Layer_1" data-name="Layer 1" xmlns="http://www.w3.org/2000/svg" viewBox="0 0 440.83 235.6">
  <defs>
    <style>
      .cls-1 {
        opacity: .3;
      }

      .cls-2 {
        fill: none;
        stroke: #ffed00;
        stroke-miterlimit: 10;
        stroke-width: .73px;
      }

      .cls-3 {
        fill: #ffed00;
      }
    </style>
  </defs>
  <polyline class="cls-2" points=".26 14.31 6.55 20.6 6.55 39.21 13.44 46.1 13.44 99.11"/>
  <path class="cls-3" d="m428.61,101.45c.92.18,8.03,8.03,8.03,8.03v83.88l4.2,4.2v10.03h-15.18v-85.36l3.27-3.27v-5.28l-2.39-2.39v-7.55l2.08-2.28Z"/>
  <polyline class="cls-2" points="435.72 12.94 428.71 19.95 428.71 90.98 431.55 93.82"/>
  <polyline class="cls-2" points="431.8 98.46 429.48 100.79 429.48 214.73 431.36 216.61 431.36 223.37 425.56 229.16 185.48 229.16 180.74 233.91 31.86 233.91 25.87 227.91"/>
  <polygon class="cls-3" points="184.27 234.54 187.72 231.08 270.2 231.08 271.49 232.37 277.22 232.37 278.37 233.52 224.47 233.52 222.39 235.6 185.21 235.6 184.27 234.54"/>
  <polygon class="cls-3" points="13.1 52.05 16.8 55.76 16.8 79.5 19.9 79.5 19.9 87.06 13.49 93.48 13.49 84.51 10.13 81.15 10.13 66.33 13.34 63.11 13.1 52.05"/>
  <rect class="cls-3" x="12.02" y="97.74" width="2.69" height="2.69"/>
  <g>
    <g>
      <polyline class="cls-2" points="8 10.66 13.8 16.46 139.56 16.46 144.29 11.73 186.68 11.73"/>
      <g>
        <line class="cls-2" x1="15.84" y1="11.21" x2="15.84" y2="14.67"/>
        <line class="cls-2" x1="21.7" y1="11.21" x2="21.7" y2="14.67"/>
        <line class="cls-2" x1="27.57" y1="11.21" x2="27.57" y2="14.67"/>
        <line class="cls-2" x1="33.43" y1="11.21" x2="33.43" y2="14.67"/>
        <line class="cls-2" x1="39.3" y1="11.21" x2="39.3" y2="14.67"/>
        <line class="cls-2" x1="45.17" y1="11.21" x2="45.17" y2="14.67"/>
        <line class="cls-2" x1="51.03" y1="11.21" x2="51.03" y2="14.67"/>
        <line class="cls-2" x1="56.9" y1="11.21" x2="56.9" y2="14.67"/>
        <line class="cls-2" x1="62.76" y1="11.21" x2="62.76" y2="14.67"/>
        <line class="cls-2" x1="68.63" y1="11.21" x2="68.63" y2="14.67"/>
        <line class="cls-2" x1="74.49" y1="11.21" x2="74.49" y2="14.67"/>
        <line class="cls-2" x1="80.36" y1="11.21" x2="80.36" y2="14.67"/>
        <line class="cls-2" x1="86.22" y1="11.21" x2="86.22" y2="14.67"/>
        <line class="cls-2" x1="92.09" y1="11.21" x2="92.09" y2="14.67"/>
        <line class="cls-2" x1="97.95" y1="11.21" x2="97.95" y2="14.67"/>
        <line class="cls-2" x1="103.82" y1="11.21" x2="103.82" y2="14.67"/>
        <line class="cls-2" x1="109.69" y1="11.21" x2="109.69" y2="14.67"/>
        <line class="cls-2" x1="115.55" y1="11.21" x2="115.55" y2="14.67"/>
        <line class="cls-2" x1="121.42" y1="11.21" x2="121.42" y2="14.67"/>
        <line class="cls-2" x1="127.28" y1="11.21" x2="127.28" y2="14.67"/>
        <line class="cls-2" x1="133.15" y1="11.21" x2="133.15" y2="14.67"/>
        <line class="cls-2" x1="139.01" y1="11.21" x2="139.01" y2="14.67"/>
      </g>
      <polygon class="cls-3" points="137.77 18.91 140.91 18.91 144.9 14.92 175.79 14.92 174.42 16.28 146.93 16.28 142.63 20.58 134.92 20.58 137.77 18.91"/>
    </g>
    <g>
      <polyline class="cls-2" points="431.51 10.66 425.71 16.46 299.95 16.46 295.22 11.73 252.83 11.73"/>
      <g>
        <line class="cls-2" x1="423.67" y1="11.21" x2="423.67" y2="14.67"/>
        <line class="cls-2" x1="417.8" y1="11.21" x2="417.8" y2="14.67"/>
        <line class="cls-2" x1="411.94" y1="11.21" x2="411.94" y2="14.67"/>
        <line class="cls-2" x1="406.07" y1="11.21" x2="406.07" y2="14.67"/>
        <line class="cls-2" x1="400.21" y1="11.21" x2="400.21" y2="14.67"/>
        <line class="cls-2" x1="394.34" y1="11.21" x2="394.34" y2="14.67"/>
        <line class="cls-2" x1="388.48" y1="11.21" x2="388.48" y2="14.67"/>
        <line class="cls-2" x1="382.61" y1="11.21" x2="382.61" y2="14.67"/>
        <line class="cls-2" x1="376.75" y1="11.21" x2="376.75" y2="14.67"/>
        <line class="cls-2" x1="370.88" y1="11.21" x2="370.88" y2="14.67"/>
        <line class="cls-2" x1="365.02" y1="11.21" x2="365.02" y2="14.67"/>
        <line class="cls-2" x1="359.15" y1="11.21" x2="359.15" y2="14.67"/>
        <line class="cls-2" x1="353.28" y1="11.21" x2="353.28" y2="14.67"/>
        <line class="cls-2" x1="347.42" y1="11.21" x2="347.42" y2="14.67"/>
        <line class="cls-2" x1="341.55" y1="11.21" x2="341.55" y2="14.67"/>
        <line class="cls-2" x1="335.69" y1="11.21" x2="335.69" y2="14.67"/>
        <line class="cls-2" x1="329.82" y1="11.21" x2="329.82" y2="14.67"/>
        <line class="cls-2" x1="323.96" y1="11.21" x2="323.96" y2="14.67"/>
        <line class="cls-2" x1="318.09" y1="11.21" x2="318.09" y2="14.67"/>
        <line class="cls-2" x1="312.23" y1="11.21" x2="312.23" y2="14.67"/>
        <line class="cls-2" x1="306.36" y1="11.21" x2="306.36" y2="14.67"/>
        <line class="cls-2" x1="300.5" y1="11.21" x2="300.5" y2="14.67"/>
      </g>
      <polygon class="cls-3" points="301.74 18.91 298.6 18.91 294.61 14.92 263.72 14.92 265.08 16.28 292.58 16.28 296.88 20.58 304.59 20.58 301.74 18.91"/>
    </g>
    <g>
      <g>
        <g>
          <g class="cls-1">
            <path class="cls-3" d="m220.71.71c.42-.73,1.47-.73,1.89,0l4.54,7.86,4.54,7.86c.42.73-.1,1.64-.94,1.64h-18.14c-.84,0-1.36-.91-.94-1.64l4.54-7.86,4.54-7.86Z"/>
          </g>
          <g>
            <polygon class="cls-3" points="222.58 12.8 220.72 12.8 220.54 9.9 220.54 4.31 222.76 4.31 222.76 9.93 222.58 12.8"/>
            <rect class="cls-3" x="220.57" y="13.31" width="2.17" height="2.17"/>
          </g>
          <path class="cls-3" d="m230.72,18.23h-18.14c-.45,0-.86-.23-1.09-.63-.23-.39-.23-.86,0-1.26l9.07-15.71c.23-.39.63-.63,1.09-.63h0c.45,0,.86.23,1.09.63l9.07,15.71c.23.39.23.86,0,1.26-.23.39-.63.63-1.09.63ZM220.71.71l.14.08-9.07,15.71c-.17.29-.17.63,0,.92.17.29.47.46.8.46h18.14c.33,0,.63-.17.8-.46.17-.29.17-.63,0-.92l-9.07-15.71c-.17-.29-.47-.46-.8-.46s-.63.17-.8.46l-.14-.08Z"/>
        </g>
        <g>
          <g>
            <path class="cls-3" d="m217.42,3.4c-.08-.05-.11-.15-.06-.23.05-.08.15-.11.23-.06.08.05.11.15.06.23-.05.08-.15.11-.23.06Z"/>
            <path class="cls-3" d="m217.31,3.14c.06-.11.2-.14.3-.08.11.06.14.2.08.3-.06.11-.2.14-.3.08-.11-.06-.14-.2-.08-.3Zm.29.17c.03-.05.01-.13-.04-.16-.05-.03-.13-.01-.16.04-.03.05-.01.13.04.16.05.03.13.01.16-.04Z"/>
          </g>
          <g>
            <polygon class="cls-3" points="212.86 13.02 212.65 12.26 214.42 9.18 214.24 8.53 216.32 4.89 217.02 4.7 217.41 4.02 218.15 3.81 212.86 13.02"/>
            <path class="cls-3" d="m214.18,8.52l2.1-3.68.69-.19.39-.69.89-.24-.06.11-5.36,9.31-.24-.9,1.76-3.08-.18-.65Zm2.18-3.59l-2.06,3.6.18.65-1.76,3.08.17.61,5.16-8.98-.59.16-.39.69-.69.19Z"/>
          </g>
          <g>
            <polygon class="cls-3" points="218.35 1.67 217.48 3.19 217.57 3.24 218.42 1.75 219.5 1.46 219.47 1.36 218.35 1.67"/>
            <polygon class="cls-3" points="217.41 3.21 218.31 1.62 219.51 1.3 219.57 1.5 218.45 1.8 217.59 3.31 217.41 3.21"/>
          </g>
          <g>
            <polygon class="cls-3" points="212.26 12.9 211.72 13.84 211.93 14.61 212.54 13.56 212.33 12.78 212.26 12.9"/>
            <path class="cls-3" d="m212.35,12.63l.25.93-.68,1.19-.25-.92.68-1.2Zm.14.91l-.17-.63h0s-.52.93-.52.93l.17.63.53-.93Z"/>
          </g>
          <g>
            <polygon class="cls-3" points="211.34 14.51 211.14 14.85 211.35 15.63 211.62 15.16 211.41 14.38 211.34 14.51"/>
            <path class="cls-3" d="m211.43,14.24l.25.93-.34.6-.25-.92.34-.61Zm.14.91l-.17-.63h0s-.19.34-.19.34l.17.63.19-.34Z"/>
          </g>
        </g>
        <g>
          <g>
            <path class="cls-3" d="m225.77,3.4c.08-.05.11-.15.06-.23-.05-.08-.15-.11-.23-.06s-.11.15-.06.23c.05.08.15.11.23.06Z"/>
            <path class="cls-3" d="m225.8,3.44c-.11.06-.24.02-.3-.08-.06-.11-.02-.24.08-.3.11-.06.24-.02.3.08.06.11.02.24-.08.3Zm-.05-.09c.05-.03.07-.1.04-.16-.03-.05-.1-.07-.16-.04-.05.03-.07.1-.04.16.03.05.1.07.16.04Z"/>
          </g>
          <g>
            <polygon class="cls-3" points="230.33 13.02 230.53 12.26 228.77 9.18 228.95 8.53 226.86 4.89 226.17 4.7 225.78 4.02 225.04 3.81 230.33 13.02"/>
            <path class="cls-3" d="m228.83,9.17l1.76,3.08-.24.9-5.36-9.31-.06-.11.89.24.39.69.69.19,2.1,3.68-.18.65Zm-2.69-4.42l-.39-.69-.59-.16,5.16,8.98.17-.61-1.76-3.08.18-.65-2.06-3.6-.69-.19Z"/>
          </g>
          <g>
            <polygon class="cls-3" points="224.84 1.67 225.71 3.19 225.62 3.24 224.77 1.75 223.69 1.46 223.71 1.36 224.84 1.67"/>
            <polygon class="cls-3" points="225.78 3.21 224.87 1.62 223.68 1.3 223.62 1.5 224.74 1.8 225.6 3.31 225.78 3.21"/>
          </g>
          <g>
            <polygon class="cls-3" points="230.93 12.9 231.46 13.84 231.25 14.61 230.65 13.56 230.86 12.78 230.93 12.9"/>
            <path class="cls-3" d="m231.52,13.83l-.25.92-.68-1.19.25-.93.68,1.2Zm-.29.65l.17-.63-.52-.91h0s-.17.62-.17.62l.53.93Z"/>
          </g>
          <g>
            <polygon class="cls-3" points="231.85 14.51 232.04 14.85 231.83 15.63 231.56 15.16 231.78 14.38 231.85 14.51"/>
            <path class="cls-3" d="m232.1,14.84l-.25.92-.34-.6.25-.93.34.61Zm-.29.65l.17-.63-.19-.32h0s-.17.62-.17.62l.19.34Z"/>
          </g>
        </g>
      </g>
      <g>
        <path class="cls-3" d="m212.11,19.61l-.83,4.27h-2.28c-.21-.66-.39-1.41-.54-2.24-.07.36-.25,1.11-.52,2.24h-2.27s-.8-4.28-.8-4.28h1.78s.19,1.49.19,1.49l.18,1.44c.07-.75.24-1.72.52-2.93h1.9c.02.13.09.6.19,1.41l.2,1.63c.11-1.03.28-2.04.52-3.03h1.78Z"/>
        <path class="cls-3" d="m215.54,19.62l1.03,4.27h-1.87s-.09-.77-.09-.77h-.65s-.11.77-.11.77h-1.89s.95-4.27.95-4.27h2.64Zm-.98,2.75c-.09-.48-.18-1.08-.27-1.79-.19.82-.31,1.42-.36,1.79h.63Z"/>
        <path class="cls-3" d="m216.9,19.62h1.3c.86,0,1.45.02,1.75.07.31.04.55.14.75.31.19.17.29.43.29.8,0,.33-.07.56-.21.67-.14.11-.4.18-.8.2.36.06.6.13.73.22.12.09.2.18.23.25.03.08.04.29.04.63v1.13s-1.7,0-1.7,0v-1.42c0-.23-.02-.37-.08-.42-.06-.05-.21-.08-.47-.08v1.93s-1.84,0-1.84,0l.02-4.27Zm1.83.73v.95c.2,0,.35-.02.43-.05.08-.03.12-.15.13-.33v-.23c0-.14-.04-.22-.12-.27-.08-.04-.23-.06-.44-.06Z"/>
        <path class="cls-3" d="m225.78,19.63l-.02,4.27h-1.6s-.94-1.95-.94-1.95v1.94s-1.54,0-1.54,0l.02-4.27h1.53s1.02,1.93,1.02,1.93v-1.92s1.54,0,1.54,0Z"/>
        <path class="cls-3" d="m228.34,19.64l-.02,4.27h-1.83s.02-4.27.02-4.27h1.83Z"/>
        <path class="cls-3" d="m233.16,19.65l-.02,4.27h-1.6s-.94-1.95-.94-1.95v1.94s-1.54,0-1.54,0l.02-4.27h1.53s1.02,1.93,1.02,1.93v-1.92s1.54,0,1.54,0Z"/>
        <path class="cls-3" d="m238.09,21.23h-1.83s0-.39,0-.39c0-.24-.02-.4-.05-.46-.03-.06-.12-.09-.25-.09-.11,0-.19.03-.23.08-.04.05-.06.19-.06.41v2.05c0,.19.01.32.05.38.04.06.12.09.24.09.13,0,.22-.03.27-.1.05-.07.07-.2.07-.4v-.51s-.37,0-.37,0v-.65s2.15,0,2.15,0v2.29s-1.16,0-1.16,0l-.17-.31c-.13.13-.28.23-.47.3-.19.07-.41.1-.67.1-.31,0-.6-.05-.86-.14-.27-.09-.47-.2-.61-.34-.14-.13-.23-.27-.26-.42-.03-.15-.05-.37-.05-.66v-1.27c0-.41.04-.7.12-.89.07-.18.28-.35.63-.51.34-.15.79-.23,1.33-.23.54,0,.98.07,1.33.2.35.13.58.29.69.48.11.18.16.45.16.8v.18Z"/>
      </g>
      <g>
        <polygon class="cls-3" points="199.85 21.37 199.74 21.25 203.47 17.53 208.75 17.53 208.75 17.69 203.53 17.69 199.85 21.37"/>
        <polygon class="cls-3" points="207.5 17.61 206.88 16.98 204.7 16.98 204.15 17.54 207.5 17.61"/>
        <path class="cls-3" d="m199.32,21.42c0-.26.21-.47.47-.47s.47.21.47.47-.21.47-.47.47-.47-.21-.47-.47Z"/>
      </g>
      <g>
        <polygon class="cls-3" points="242.27 21.37 238.59 17.69 233.38 17.69 233.38 17.53 238.66 17.53 242.38 21.25 242.27 21.37"/>
        <polygon class="cls-3" points="234.62 17.61 235.24 16.98 237.42 16.98 237.98 17.54 234.62 17.61"/>
        <path class="cls-3" d="m242.8,21.42c0-.26-.21-.47-.47-.47s-.47.21-.47.47.21.47.47.47.47-.21.47-.47Z"/>
      </g>
    </g>
  </g>
</svg>