<?xml version="1.0" encoding="UTF-8"?>
<svg id="Layer_1" data-name="Layer 1" xmlns="http://www.w3.org/2000/svg" xmlns:xlink="http://www.w3.org/1999/xlink" viewBox="0 0 183.09 66">
  <defs>
    <style>
      .cls-1 {
        clip-path: url(#clippath-11);
      }

      .cls-2 {
        clip-path: url(#clippath-16);
      }

      .cls-3 {
        stroke-width: .35px;
      }

      .cls-3, .cls-4 {
        fill: none;
        stroke: #fff;
        stroke-miterlimit: 10;
      }

      .cls-5 {
        clip-path: url(#clippath-2);
      }

      .cls-6 {
        clip-path: url(#clippath-13);
      }

      .cls-7 {
        isolation: isolate;
      }

      .cls-8 {
        clip-path: url(#clippath-15);
      }

      .cls-9 {
        clip-path: url(#clippath-6);
      }

      .cls-10 {
        clip-path: url(#clippath-7);
      }

      .cls-11 {
        clip-path: url(#clippath-1);
      }

      .cls-12 {
        clip-path: url(#clippath-4);
      }

      .cls-13 {
        clip-path: url(#clippath-12);
      }

      .cls-4 {
        stroke-width: .23px;
      }

      .cls-14 {
        clip-path: url(#clippath-9);
      }

      .cls-15 {
        clip-path: url(#clippath);
      }

      .cls-16 {
        clip-path: url(#clippath-19);
      }

      .cls-17 {
        clip-path: url(#clippath-3);
      }

      .cls-18 {
        clip-path: url(#clippath-8);
      }

      .cls-19 {
        clip-path: url(#clippath-18);
      }

      .cls-20 {
        clip-path: url(#clippath-14);
      }

      .cls-21 {
        clip-path: url(#clippath-17);
      }

      .cls-22 {
        clip-path: url(#clippath-5);
      }

      .cls-23 {
        clip-path: url(#clippath-10);
      }
    </style>
    <clipPath id="clippath">
      <path class="cls-4" d="m73.31,36.74c.07.03.16.07.23.1.08.03.19.07.27.1.23.09.54.19.78.26.28.09.88.27,1.92.51.36.08.85.19,1.21.26.41.08.95.17,1.36.25.44.08,1.03.17,1.48.23.97.13,2.27.27,3.24.37.52.05,1.22.11,1.75.14.54.04,1.25.08,1.79.11.55.02,1.29.05,1.84.07.56.02,1.3.03,1.86.03,1.42.02,2.94-.03,3.76-.05.56-.02,1.31-.05,1.87-.08,1.52-.09,2.51-.18,3.64-.29.82-.08,1.92-.22,2.73-.33.59-.09,2.16-.31,3.75-.68,1.58-.36,2.35-.66,2.81-.84.03-.01.07-.04.1-.03-.14.09-.33.22-.47.32-.15.11-.33.26-.47.38-.3.26-.66.64-.92.94-.18.21-.39.49-.55.71-.14.19-.3.46-.43.66-.15.24-.32.58-.44.83-.13.25-.28.6-.37.87-.17.51-.37,1.2-.48,1.72-.08.33-.12.79-.16,1.13-.03.28-.03.66-.04.94,0,1.35-2.85,2.64-7.75,3.27-6.86.88-15.15.12-18.52-1.7-.96-.52-1.42-1.07-1.42-1.61-.02-.51-.06-1.18-.13-1.68-.04-.3-.12-.69-.2-.99-.13-.51-.37-1.18-.57-1.68-.1-.26-.29-.6-.42-.85-.13-.26-.33-.59-.5-.82-.26-.37-.63-.85-.93-1.19-.16-.18-.39-.4-.57-.57-.13-.12-.31-.27-.45-.38-.12-.1-.3-.22-.43-.31-.06-.04-.15-.09-.21-.13Z"/>
    </clipPath>
    <clipPath id="clippath-1">
      <path class="cls-4" d="m77.7,45.34c-.01-.28,0-.66-.04-.94-.06-.49-.14-1.15-.26-1.64-.3-1.23-.66-1.95-.95-2.53-.13-.25-.31-.57-.47-.8-.26-.37-.62-.87-.92-1.21-.43-.47-.71-.71-.98-.94-.12-.1-.28-.22-.41-.31-.1-.07-.24-.16-.35-.22.04.02.09.04.13.06.11.05.26.1.37.15.19.07.44.16.64.22.48.15.97.3,1.97.53,1.84.43,3.68.69,4.13.75.97.13,2.27.27,3.24.37.53.05,1.24.11,1.77.14.54.04,1.26.08,1.8.11.55.02,1.29.05,1.84.07.56.02,1.31.03,1.86.03,1.13,0,2.63-.02,3.76-.05.56-.01,1.3-.05,1.86-.08.55-.03,1.29-.07,1.84-.12,1.05-.09,2.46-.23,3.51-.36,1.65-.2,3.36-.51,4.05-.66.61-.13,1.42-.32,2.02-.49.72-.2,1.21-.39,1.49-.5.04-.02.09-.04.13-.05-.09.06-.22.14-.31.2-.16.11-.36.27-.51.4-.14.13-.33.29-.47.43-.18.18-.41.43-.57.62-.24.28-.85,1.04-1.38,2.12-.13.26-.29.61-.38.88-.17.51-.38,1.19-.5,1.72-.07.3-.12.7-.15,1-.03.35-.06.81-.06,1.15.01-7.22,6.46-13.08,14.37-13.07,0,2.75-5.8,5.38-15.78,6.65-13.97,1.79-30.85.23-37.71-3.46-1.96-1.06-2.89-2.18-2.88-3.28,7.91.01,14.33,5.89,14.32,13.11Z"/>
    </clipPath>
    <clipPath id="clippath-2">
      <path class="cls-4" d="m77.7,45.34c.01-7.22-6.41-13.1-14.32-13.11,0-2.75,5.8-5.38,15.78-6.65,13.97-1.79,30.85-.23,37.71,3.46-7.1.91-12.89,7.52-12.9,14.74-3.36-1.82-11.66-2.58-18.52-1.7-4.9.63-7.75,1.92-7.75,3.27Z"/>
    </clipPath>
    <clipPath id="clippath-3">
      <path class="cls-4" d="m119.75,32.31c-7.91-.01-14.35,5.85-14.37,13.07,0-.54-.45-1.09-1.42-1.61.01-7.22,5.8-13.83,12.9-14.74,1.96,1.06,2.89,2.18,2.88,3.28Z"/>
    </clipPath>
    <clipPath id="clippath-4">
      <path class="cls-4" d="m109.78,53.98s-.09-.04-.13-.06c-.11-.05-.26-.1-.37-.15-.19-.07-.44-.16-.64-.22-.48-.15-.97-.3-1.97-.53-.38-.09-.88-.2-1.26-.27-.41-.08-.95-.17-1.36-.25-.45-.08-1.05-.17-1.5-.23-.97-.13-2.27-.27-3.24-.37-.53-.05-1.24-.11-1.77-.14-.54-.04-1.26-.08-1.8-.11-.55-.02-1.29-.05-1.84-.07-.56-.02-1.31-.03-1.87-.03-1.13,0-2.63.02-3.76.05-.56.01-1.3.05-1.86.08-.55.03-1.29.07-1.84.12-1.05.09-2.46.23-3.51.36-1.63.2-3.36.51-4.02.65-.6.13-1.41.31-2,.48-.24.07-.57.17-.81.25-.24.08-.55.2-.78.29-.02,0-.04.02-.06.02,0,0,0-.01.01-.01.39-.24.7-.5.85-.64.3-.26.67-.64.93-.94.18-.22.42-.52.58-.75.14-.19.3-.47.43-.67.16-.25.33-.6.46-.86.13-.26.28-.61.37-.89.17-.51.36-1.2.48-1.73.07-.3.11-.7.14-1.01.03-.31.05-.72.05-1.03,0-1.35,2.85-2.64,7.75-3.27,6.86-.88,15.15-.12,18.52,1.7,0,4.58,2.31,8.32,5.81,10.21Z"/>
    </clipPath>
    <clipPath id="clippath-5">
      <path class="cls-4" d="m77.7,45.34c0,.54.45,1.09,1.42,1.61,3.36,1.82,11.66,2.58,18.52,1.7,4.9-.63,7.75-1.92,7.75-3.27-.01,7.22,6.41,13.1,14.32,13.11,0,2.75-5.8,5.38-15.78,6.65-13.97,1.79-30.85.23-37.71-3.46-1.96-1.06-2.89-2.18-2.88-3.28,7.91.01,14.35-5.85,14.37-13.07Z"/>
    </clipPath>
    <clipPath id="clippath-6">
      <path class="cls-4" d="m105.39,45.38c.02.56.08,1.31.15,1.87.04.29.14.68.21.97.07.28.18.66.29.93.19.48.48,1.1.71,1.56.12.24.31.54.47.76.14.19.32.45.47.63.15.19.37.43.53.61.13.15.33.33.47.46.13.12.31.27.44.38.09.07.21.16.3.22.1.07.23.15.34.21-3.5-1.89-5.82-5.63-5.81-10.21.96.52,1.42,1.07,1.42,1.61Z"/>
    </clipPath>
    <clipPath id="clippath-7">
      <path class="cls-4" d="m109.78,53.98c2.02,1.09,4.44,1.57,7.04,1.24,1.96,1.06,2.89,2.18,2.88,3.28-7.91-.01-14.33-5.9-14.32-13.11,0,.31.02.72.05,1.03.03.3.07.71.14,1.01.12.53.31,1.22.47,1.73.09.27.25.63.37.89.59,1.26,1.29,2.08,1.46,2.28.26.3.63.69.94.96.13.11.3.26.44.36.15.11.37.25.53.35Z"/>
    </clipPath>
    <clipPath id="clippath-8">
      <path class="cls-4" d="m63.33,58.4v-.09c0,1.1.92,2.22,2.88,3.28,6.85,3.7,23.73,5.25,37.71,3.46,9.98-1.28,15.77-3.91,15.78-6.65v.09c0,2.75-5.8,5.38-15.78,6.65-13.97,1.79-30.85.23-37.71-3.46-1.96-1.06-2.89-2.18-2.88-3.28Z"/>
    </clipPath>
    <clipPath id="clippath-9">
      <path class="cls-4" d="m119.7,58.49c0-1.1-.92-2.22-2.88-3.28v-.09c1.96,1.06,2.89,2.18,2.88,3.28,0,.03,0,.06,0,.09Z"/>
    </clipPath>
    <clipPath id="clippath-10">
      <path class="cls-4" d="m63.33,58.31c7.85.01,14.25-5.81,14.27-12.98,0,.54.46,1.1,1.43,1.62,3.39,1.83,11.74,2.6,18.65,1.71,4.94-.63,7.8-1.93,7.81-3.29-.01,7.17,6.36,13.01,14.22,13.02,0,2.75-5.8,5.38-15.78,6.65-13.97,1.79-30.85.23-37.71-3.46-1.96-1.06-2.89-2.18-2.88-3.28Z"/>
    </clipPath>
    <clipPath id="clippath-11">
      <path class="cls-4" d="m109.83,53.89c-3.48-1.88-5.78-5.59-5.77-10.14.97.52,1.43,1.08,1.43,1.62.02.5.06,1.17.12,1.67.04.3.12.69.2.98.13.51.37,1.17.56,1.66.1.26.28.59.41.85.13.25.33.58.49.82.26.37.63.84.93,1.18.16.18.39.4.56.56.13.12.31.26.44.38.12.1.29.21.42.3.06.04.14.09.21.12Z"/>
    </clipPath>
    <clipPath id="clippath-12">
      <path class="cls-4" d="m105.49,45.38c.01.28,0,.66.04.94.06.49.14,1.15.26,1.63.29,1.19.63,1.89.95,2.5.13.25.31.57.47.8.26.37.61.86.91,1.2.42.46.7.7.97.93.12.1.28.22.4.31.1.07.24.16.34.22,2.01,1.08,4.41,1.56,6.99,1.23,1.96,1.06,2.89,2.18,2.88,3.28-7.85-.01-14.23-5.85-14.22-13.02Z"/>
    </clipPath>
    <clipPath id="clippath-13">
      <path class="cls-4" d="m77.6,45.34c-.02-.56-.08-1.3-.15-1.85-.04-.29-.13-.67-.21-.96-.07-.28-.18-.66-.29-.93-.19-.47-.48-1.09-.71-1.54-.12-.24-.31-.54-.47-.76-.14-.19-.31-.44-.46-.62-.15-.19-.36-.43-.52-.6-.13-.14-.32-.33-.47-.46-.13-.12-.3-.26-.44-.37-.08-.07-.2-.16-.29-.22-.1-.07-.23-.15-.33-.21.04.02.09.05.14.06.11.05.26.11.38.15.19.07.45.16.64.22.27.08.64.19.92.27.31.08.74.19,1.05.26.38.09.88.2,1.26.27.41.08.95.17,1.36.25.45.08,1.05.17,1.51.23.97.13,2.27.27,3.25.37.53.05,1.24.11,1.77.14.54.04,1.26.08,1.8.11.55.02,1.29.05,1.84.07.56.02,1.31.03,1.87.03,1.13,0,2.63-.02,3.76-.05.56-.01,1.3-.05,1.86-.08.55-.03,1.29-.07,1.85-.12,1.06-.09,2.46-.23,3.51-.36,1.64-.2,3.38-.51,4.03-.66.61-.13,1.41-.31,2.01-.48.25-.07.57-.17.81-.25.24-.08.56-.2.79-.29.02,0,.05-.02.07-.02,0,0,0,0,0,.01-.38.24-.69.49-.84.63-.29.26-.67.63-.92.93-.18.22-.41.52-.58.74-.14.19-.3.46-.43.66-.16.24-.32.59-.46.85-.13.26-.28.61-.37.88-.17.51-.36,1.19-.48,1.71-.07.3-.11.7-.14,1-.03.3-.05.71-.05,1.02,0,1.36-2.87,2.66-7.81,3.29-6.91.88-15.26.12-18.65-1.71-.97-.52-1.43-1.08-1.43-1.62Z"/>
    </clipPath>
    <clipPath id="clippath-14">
      <path class="cls-4" d="m73.26,36.82c.07.04.17.08.24.11.08.03.19.08.27.11.23.09.55.19.78.27.28.09.88.27,1.92.51,1.43.33,2.97.58,4.06.73.97.13,2.27.27,3.25.37.52.05,1.23.1,1.75.14.54.04,1.26.08,1.79.11.55.02,1.29.05,1.84.07.56.02,1.31.03,1.87.03.56,0,1.32,0,1.88,0,.56,0,1.32-.03,1.88-.04.56-.01,1.31-.05,1.87-.08.56-.03,1.31-.07,1.86-.12,1.06-.1,2.46-.23,3.51-.36.81-.1,1.9-.26,2.71-.41.69-.12,1.61-.32,2.29-.47.54-.12,1.25-.33,1.77-.49.22-.07.51-.18.72-.26.06-.02.14-.05.2-.07-.05.04-.12.08-.17.11-.1.07-.23.16-.33.24-.15.11-.33.27-.47.4-.29.27-.66.65-.91.96-.17.21-.39.49-.54.72-.13.19-.29.47-.42.67-.15.24-.31.58-.43.83-.13.25-.27.6-.36.87-.16.51-.35,1.2-.46,1.72-.06.29-.11.69-.13.99-.03.28-.03.65-.04.94.01-7.17,6.41-12.99,14.27-12.98,0,2.75-5.8,5.38-15.78,6.65-13.97,1.79-30.85.23-37.71-3.46-1.96-1.06-2.89-2.18-2.88-3.28,7.85.01,14.23,5.85,14.22,13.02,0-.31-.02-.71-.05-1.02-.03-.3-.07-.7-.14-1-.12-.52-.31-1.21-.47-1.72-.09-.27-.24-.62-.37-.88-.53-1.12-1.13-1.89-1.45-2.26-.26-.3-.63-.68-.93-.95-.13-.11-.3-.26-.43-.36-.15-.11-.36-.25-.52-.34Z"/>
    </clipPath>
    <clipPath id="clippath-15">
      <path class="cls-4" d="m63.39,32.31c0-2.75,5.8-5.38,15.78-6.65,13.97-1.79,30.85-.23,37.71,3.46-7.05.9-12.8,7.47-12.81,14.63-3.39-1.83-11.74-2.6-18.65-1.71-4.94.63-7.8,1.93-7.81,3.29.01-7.17-6.36-13.01-14.22-13.02Z"/>
    </clipPath>
    <clipPath id="clippath-16">
      <path class="cls-4" d="m105.49,45.38c0-.54-.46-1.1-1.43-1.62.01-7.17,5.76-13.73,12.81-14.63,1.96,1.06,2.89,2.18,2.88,3.28-7.85-.01-14.25,5.81-14.27,12.98Z"/>
    </clipPath>
    <clipPath id="clippath-17">
      <path class="cls-4" d="m63.39,32.31v-.09c0,1.1.92,2.22,2.88,3.28,6.85,3.7,23.73,5.25,37.71,3.46,9.98-1.28,15.77-3.91,15.78-6.65v.09c0,2.75-5.8,5.38-15.78,6.65-13.97,1.79-30.85.23-37.71-3.46-1.96-1.06-2.89-2.18-2.88-3.28Z"/>
    </clipPath>
    <clipPath id="clippath-18">
      <path class="cls-4" d="m63.39,32.22c0-2.75,5.8-5.38,15.78-6.65,13.97-1.79,30.85-.23,37.71,3.46v.09c-6.85-3.7-23.73-5.25-37.71-3.46-9.98,1.28-15.77,3.91-15.78,6.65,0-.03,0-.06,0-.09Z"/>
    </clipPath>
    <clipPath id="clippath-19">
      <path class="cls-4" d="m119.75,32.4c0-1.1-.92-2.22-2.88-3.28v-.09c1.96,1.06,2.89,2.18,2.88,3.28,0,.03,0,.06,0,.09Z"/>
    </clipPath>
  </defs>
  <g class="cls-7">
    <g class="cls-7">
      <g class="cls-15">
        <g class="cls-7">
          <g>
            <path class="cls-4" d="m79.16,25.57c3.48,1.88,6.3,9.28,6.29,16.5-6.86.88-9.7,3.06-6.33,4.88.01-7.22-5.75-12.35-12.85-11.44-6.85-3.7-1.08-8.15,12.89-9.93Z"/>
            <path class="cls-4" d="m82.34,29.08c-10.39,1.33-14.68,4.63-9.59,7.38"/>
            <path class="cls-4" d="m84.6,35c-7.83,1-11.07,3.49-7.23,5.57"/>
          </g>
          <g>
            <path class="cls-4" d="m66.27,35.5c7.1-.91,12.86,4.23,12.85,11.44,3.36,1.82,11.66,2.58,18.52,1.7.01-7.22,2.86-11.56,6.34-9.68-13.97,1.79-30.85.23-37.71-3.46Z"/>
            <path class="cls-4" d="m72.76,36.46c5.09,2.75,17.64,3.9,28.03,2.58"/>
            <path class="cls-4" d="m77.37,40.57c3.84,2.07,13.31,2.94,21.14,1.94"/>
            <path class="cls-4" d="m75.98,38.44c4.37-1.73,7.92,2.73,7.9,9.95"/>
            <path class="cls-4" d="m89.51,39.68c.58-2.08,1.04,2.1,1.02,9.32"/>
          </g>
          <g>
            <path class="cls-4" d="m103.97,38.97c-3.48-1.88-6.32,2.46-6.34,9.68,6.86-.88,9.7-3.06,6.33-4.88.01-7.22,5.8-13.83,12.9-14.74,6.85,3.7,1.08,8.15-12.89,9.93Z"/>
            <path class="cls-4" d="m100.79,39.04c10.39-1.33,14.68-4.63,9.59-7.38"/>
            <path class="cls-4" d="m98.51,42.51c7.83-1,11.07-3.49,7.23-5.57"/>
            <path class="cls-4" d="m115.05,36.42c-6.59-1.16-11.96,3.76-11.97,10.98"/>
            <path class="cls-4" d="m119.68,32.86c-7.89-.17-14.31,5.57-14.33,12.79"/>
          </g>
          <path class="cls-4" d="m85.45,42.07c-.01,7.22-2.86,11.56-6.34,9.68-13.97,1.79-19.75,6.23-12.89,9.93,7.1-.91,12.89-7.52,12.9-14.74-3.36-1.82-.53-4,6.33-4.88Z"/>
          <g>
            <path class="cls-4" d="m79.12,46.95c-.01,7.22-5.8,13.83-12.9,14.74,6.85,3.7,23.73,5.25,37.71,3.46-3.48-1.88-6.3-9.28-6.29-16.5-6.86.88-15.15.12-18.52-1.7Z"/>
            <path class="cls-4" d="m83.89,48.39c-.01,7.22-3.58,14.5-7.96,16.23"/>
            <path class="cls-4" d="m90.53,49c-.01,7.22-.5,14.78-1.07,16.86"/>
          </g>
          <g>
            <path class="cls-4" d="m97.64,48.65c-.01,7.22,2.81,14.62,6.29,16.5,13.97-1.79,19.75-6.23,12.89-9.93-7.1.91-12.86-4.23-12.85-11.45,3.36,1.82.53,4-6.33,4.88Z"/>
            <path class="cls-4" d="m103.08,47.4c-.01,7.22,5.33,14.04,11.92,15.2"/>
            <path class="cls-4" d="m105.35,45.65c-.01,7.22,6.39,13.23,14.28,13.39"/>
          </g>
        </g>
        <path class="cls-4" d="m73.31,36.74c.07.03.16.07.23.1.08.03.19.07.27.1.23.09.54.19.78.26.28.09.88.27,1.92.51.36.08.85.19,1.21.26.41.08.95.17,1.36.25.44.08,1.03.17,1.48.23.97.13,2.27.27,3.24.37.52.05,1.22.11,1.75.14.54.04,1.25.08,1.79.11.55.02,1.29.05,1.84.07.56.02,1.3.03,1.86.03,1.42.02,2.94-.03,3.76-.05.56-.02,1.31-.05,1.87-.08,1.52-.09,2.51-.18,3.64-.29.82-.08,1.92-.22,2.73-.33.59-.09,2.16-.31,3.75-.68,1.58-.36,2.35-.66,2.81-.84.03-.01.07-.04.1-.03-.14.09-.33.22-.47.32-.15.11-.33.26-.47.38-.3.26-.66.64-.92.94-.18.21-.39.49-.55.71-.14.19-.3.46-.43.66-.15.24-.32.58-.44.83-.13.25-.28.6-.37.87-.17.51-.37,1.2-.48,1.72-.08.33-.12.79-.16,1.13-.03.28-.03.66-.04.94,0,1.35-2.85,2.64-7.75,3.27-6.86.88-15.15.12-18.52-1.7-.96-.52-1.42-1.07-1.42-1.61-.02-.51-.06-1.18-.13-1.68-.04-.3-.12-.69-.2-.99-.13-.51-.37-1.18-.57-1.68-.1-.26-.29-.6-.42-.85-.13-.26-.33-.59-.5-.82-.26-.37-.63-.85-.93-1.19-.16-.18-.39-.4-.57-.57-.13-.12-.31-.27-.45-.38-.12-.1-.3-.22-.43-.31-.06-.04-.15-.09-.21-.13Z"/>
      </g>
      <path class="cls-4" d="m73.31,36.74c.07.03.16.07.23.1.08.03.19.07.27.1.23.09.54.19.78.26.28.09.88.27,1.92.51.36.08.85.19,1.21.26.41.08.95.17,1.36.25.44.08,1.03.17,1.48.23.97.13,2.27.27,3.24.37.52.05,1.22.11,1.75.14.54.04,1.25.08,1.79.11.55.02,1.29.05,1.84.07.56.02,1.3.03,1.86.03,1.42.02,2.94-.03,3.76-.05.56-.02,1.31-.05,1.87-.08,1.52-.09,2.51-.18,3.64-.29.82-.08,1.92-.22,2.73-.33.59-.09,2.16-.31,3.75-.68,1.58-.36,2.35-.66,2.81-.84.03-.01.07-.04.1-.03-.14.09-.33.22-.47.32-.15.11-.33.26-.47.38-.3.26-.66.64-.92.94-.18.21-.39.49-.55.71-.14.19-.3.46-.43.66-.15.24-.32.58-.44.83-.13.25-.28.6-.37.87-.17.51-.37,1.2-.48,1.72-.08.33-.12.79-.16,1.13-.03.28-.03.66-.04.94,0,1.35-2.85,2.64-7.75,3.27-6.86.88-15.15.12-18.52-1.7-.96-.52-1.42-1.07-1.42-1.61-.02-.51-.06-1.18-.13-1.68-.04-.3-.12-.69-.2-.99-.13-.51-.37-1.18-.57-1.68-.1-.26-.29-.6-.42-.85-.13-.26-.33-.59-.5-.82-.26-.37-.63-.85-.93-1.19-.16-.18-.39-.4-.57-.57-.13-.12-.31-.27-.45-.38-.12-.1-.3-.22-.43-.31-.06-.04-.15-.09-.21-.13Z"/>
    </g>
    <g class="cls-7">
      <g class="cls-11">
        <g class="cls-7">
          <g>
            <path class="cls-4" d="m79.16,25.57c3.48,1.88,6.3,9.28,6.29,16.5-6.86.88-9.7,3.06-6.33,4.88.01-7.22-5.75-12.35-12.85-11.44-6.85-3.7-1.08-8.15,12.89-9.93Z"/>
            <path class="cls-4" d="m82.34,29.08c-10.39,1.33-14.68,4.63-9.59,7.38"/>
            <path class="cls-4" d="m84.6,35c-7.83,1-11.07,3.49-7.23,5.57"/>
          </g>
          <g>
            <path class="cls-4" d="m66.27,35.5c7.1-.91,12.86,4.23,12.85,11.44,3.36,1.82,11.66,2.58,18.52,1.7.01-7.22,2.86-11.56,6.34-9.68-13.97,1.79-30.85.23-37.71-3.46Z"/>
            <path class="cls-4" d="m72.76,36.46c5.09,2.75,17.64,3.9,28.03,2.58"/>
            <path class="cls-4" d="m77.37,40.57c3.84,2.07,13.31,2.94,21.14,1.94"/>
            <path class="cls-4" d="m75.98,38.44c4.37-1.73,7.92,2.73,7.9,9.95"/>
            <path class="cls-4" d="m89.51,39.68c.58-2.08,1.04,2.1,1.02,9.32"/>
          </g>
          <g>
            <path class="cls-4" d="m103.97,38.97c-3.48-1.88-6.32,2.46-6.34,9.68,6.86-.88,9.7-3.06,6.33-4.88.01-7.22,5.8-13.83,12.9-14.74,6.85,3.7,1.08,8.15-12.89,9.93Z"/>
            <path class="cls-4" d="m100.79,39.04c10.39-1.33,14.68-4.63,9.59-7.38"/>
            <path class="cls-4" d="m98.51,42.51c7.83-1,11.07-3.49,7.23-5.57"/>
            <path class="cls-4" d="m115.05,36.42c-6.59-1.16-11.96,3.76-11.97,10.98"/>
            <path class="cls-4" d="m119.68,32.86c-7.89-.17-14.31,5.57-14.33,12.79"/>
          </g>
          <path class="cls-4" d="m85.45,42.07c-.01,7.22-2.86,11.56-6.34,9.68-13.97,1.79-19.75,6.23-12.89,9.93,7.1-.91,12.89-7.52,12.9-14.74-3.36-1.82-.53-4,6.33-4.88Z"/>
          <g>
            <path class="cls-4" d="m79.12,46.95c-.01,7.22-5.8,13.83-12.9,14.74,6.85,3.7,23.73,5.25,37.71,3.46-3.48-1.88-6.3-9.28-6.29-16.5-6.86.88-15.15.12-18.52-1.7Z"/>
            <path class="cls-4" d="m83.89,48.39c-.01,7.22-3.58,14.5-7.96,16.23"/>
            <path class="cls-4" d="m90.53,49c-.01,7.22-.5,14.78-1.07,16.86"/>
          </g>
          <g>
            <path class="cls-4" d="m97.64,48.65c-.01,7.22,2.81,14.62,6.29,16.5,13.97-1.79,19.75-6.23,12.89-9.93-7.1.91-12.86-4.23-12.85-11.45,3.36,1.82.53,4-6.33,4.88Z"/>
            <path class="cls-4" d="m103.08,47.4c-.01,7.22,5.33,14.04,11.92,15.2"/>
            <path class="cls-4" d="m105.35,45.65c-.01,7.22,6.39,13.23,14.28,13.39"/>
          </g>
        </g>
        <path class="cls-4" d="m77.7,45.34c-.01-.28,0-.66-.04-.94-.06-.49-.14-1.15-.26-1.64-.3-1.23-.66-1.95-.95-2.53-.13-.25-.31-.57-.47-.8-.26-.37-.62-.87-.92-1.21-.43-.47-.71-.71-.98-.94-.12-.1-.28-.22-.41-.31-.1-.07-.24-.16-.35-.22.04.02.09.04.13.06.11.05.26.1.37.15.19.07.44.16.64.22.48.15.97.3,1.97.53,1.84.43,3.68.69,4.13.75.97.13,2.27.27,3.24.37.53.05,1.24.11,1.77.14.54.04,1.26.08,1.8.11.55.02,1.29.05,1.84.07.56.02,1.31.03,1.86.03,1.13,0,2.63-.02,3.76-.05.56-.01,1.3-.05,1.86-.08.55-.03,1.29-.07,1.84-.12,1.05-.09,2.46-.23,3.51-.36,1.65-.2,3.36-.51,4.05-.66.61-.13,1.42-.32,2.02-.49.72-.2,1.21-.39,1.49-.5.04-.02.09-.04.13-.05-.09.06-.22.14-.31.2-.16.11-.36.27-.51.4-.14.13-.33.29-.47.43-.18.18-.41.43-.57.62-.24.28-.85,1.04-1.38,2.12-.13.26-.29.61-.38.88-.17.51-.38,1.19-.5,1.72-.07.3-.12.7-.15,1-.03.35-.06.81-.06,1.15.01-7.22,6.46-13.08,14.37-13.07,0,2.75-5.8,5.38-15.78,6.65-13.97,1.79-30.85.23-37.71-3.46-1.96-1.06-2.89-2.18-2.88-3.28,7.91.01,14.33,5.89,14.32,13.11Z"/>
      </g>
      <path class="cls-4" d="m77.7,45.34c-.01-.28,0-.66-.04-.94-.06-.49-.14-1.15-.26-1.64-.3-1.23-.66-1.95-.95-2.53-.13-.25-.31-.57-.47-.8-.26-.37-.62-.87-.92-1.21-.43-.47-.71-.71-.98-.94-.12-.1-.28-.22-.41-.31-.1-.07-.24-.16-.35-.22.04.02.09.04.13.06.11.05.26.1.37.15.19.07.44.16.64.22.48.15.97.3,1.97.53,1.84.43,3.68.69,4.13.75.97.13,2.27.27,3.24.37.53.05,1.24.11,1.77.14.54.04,1.26.08,1.8.11.55.02,1.29.05,1.84.07.56.02,1.31.03,1.86.03,1.13,0,2.63-.02,3.76-.05.56-.01,1.3-.05,1.86-.08.55-.03,1.29-.07,1.84-.12,1.05-.09,2.46-.23,3.51-.36,1.65-.2,3.36-.51,4.05-.66.61-.13,1.42-.32,2.02-.49.72-.2,1.21-.39,1.49-.5.04-.02.09-.04.13-.05-.09.06-.22.14-.31.2-.16.11-.36.27-.51.4-.14.13-.33.29-.47.43-.18.18-.41.43-.57.62-.24.28-.85,1.04-1.38,2.12-.13.26-.29.61-.38.88-.17.51-.38,1.19-.5,1.72-.07.3-.12.7-.15,1-.03.35-.06.81-.06,1.15.01-7.22,6.46-13.08,14.37-13.07,0,2.75-5.8,5.38-15.78,6.65-13.97,1.79-30.85.23-37.71-3.46-1.96-1.06-2.89-2.18-2.88-3.28,7.91.01,14.33,5.89,14.32,13.11Z"/>
    </g>
    <g class="cls-7">
      <g class="cls-5">
        <g class="cls-7">
          <g>
            <path class="cls-4" d="m116.87,29.03c-7.1.91-12.89,7.52-12.9,14.74-3.36-1.82-11.66-2.58-18.52-1.7.01-7.22-2.81-14.62-6.29-16.5,13.97-1.79,30.85-.23,37.71,3.46Z"/>
            <path class="cls-4" d="m110.37,31.65c-5.09-2.75-17.64-3.9-28.03-2.58"/>
            <path class="cls-4" d="m105.74,36.94c-3.84-2.07-13.31-2.94-21.14-1.94"/>
            <path class="cls-4" d="m107.15,26.09c-4.37,1.73-7.94,9.01-7.96,16.23"/>
            <path class="cls-4" d="m93.63,24.85c-.58,2.08-1.06,9.65-1.07,16.86"/>
          </g>
          <g>
            <path class="cls-4" d="m79.16,25.57c3.48,1.88,6.3,9.28,6.29,16.5-6.86.88-9.7,3.06-6.33,4.88.01-7.22-5.75-12.35-12.85-11.44-6.85-3.7-1.08-8.15,12.89-9.93Z"/>
            <path class="cls-4" d="m82.34,29.08c-10.39,1.33-14.68,4.63-9.59,7.38"/>
            <path class="cls-4" d="m84.6,35c-7.83,1-11.07,3.49-7.23,5.57"/>
            <path class="cls-4" d="m68.09,28.12c6.59,1.16,11.94,7.98,11.92,15.2"/>
            <path class="cls-4" d="m63.46,31.68c7.89.17,14.29,6.17,14.28,13.39"/>
          </g>
          <g>
            <path class="cls-4" d="m103.97,43.77c-.01,7.22,5.75,12.35,12.85,11.45-6.85-3.7-23.73-5.25-37.71-3.46,3.48,1.88,6.32-2.46,6.34-9.68,6.86-.88,15.15-.12,18.52,1.7Z"/>
            <path class="cls-4" d="m99.2,42.33c-.01,7.22,3.53,11.68,7.9,9.95"/>
            <path class="cls-4" d="m92.55,41.72c-.01,7.22.44,11.4,1.02,9.32"/>
          </g>
          <g>
            <path class="cls-4" d="m85.45,42.07c-.01,7.22-2.86,11.56-6.34,9.68-13.97,1.79-19.75,6.23-12.89,9.93,7.1-.91,12.89-7.52,12.9-14.74-3.36-1.82-.53-4,6.33-4.88Z"/>
            <path class="cls-4" d="m80.01,43.32c-.01,7.22-5.39,12.14-11.97,10.98"/>
            <path class="cls-4" d="m77.74,45.07c-.01,7.22-6.44,12.96-14.33,12.79"/>
          </g>
        </g>
        <path class="cls-4" d="m77.7,45.34c.01-7.22-6.41-13.1-14.32-13.11,0-2.75,5.8-5.38,15.78-6.65,13.97-1.79,30.85-.23,37.71,3.46-7.1.91-12.89,7.52-12.9,14.74-3.36-1.82-11.66-2.58-18.52-1.7-4.9.63-7.75,1.92-7.75,3.27Z"/>
      </g>
      <path class="cls-4" d="m77.7,45.34c.01-7.22-6.41-13.1-14.32-13.11,0-2.75,5.8-5.38,15.78-6.65,13.97-1.79,30.85-.23,37.71,3.46-7.1.91-12.89,7.52-12.9,14.74-3.36-1.82-11.66-2.58-18.52-1.7-4.9.63-7.75,1.92-7.75,3.27Z"/>
    </g>
    <g class="cls-7">
      <g class="cls-17">
        <g class="cls-7">
          <g>
            <path class="cls-4" d="m103.97,38.97c-3.48-1.88-6.32,2.46-6.34,9.68,6.86-.88,9.7-3.06,6.33-4.88.01-7.22,5.8-13.83,12.9-14.74,6.85,3.7,1.08,8.15-12.89,9.93Z"/>
            <path class="cls-4" d="m100.79,39.04c10.39-1.33,14.68-4.63,9.59-7.38"/>
            <path class="cls-4" d="m98.51,42.51c7.83-1,11.07-3.49,7.23-5.57"/>
          </g>
          <path class="cls-4" d="m97.64,48.65c-.01,7.22,2.81,14.62,6.29,16.5,13.97-1.79,19.75-6.23,12.89-9.93-7.1.91-12.86-4.23-12.85-11.45,3.36,1.82.53,4-6.33,4.88Z"/>
        </g>
        <path class="cls-4" d="m119.75,32.31c-7.91-.01-14.35,5.85-14.37,13.07,0-.54-.45-1.09-1.42-1.61.01-7.22,5.8-13.83,12.9-14.74,1.96,1.06,2.89,2.18,2.88,3.28Z"/>
      </g>
      <path class="cls-4" d="m119.75,32.31c-7.91-.01-14.35,5.85-14.37,13.07,0-.54-.45-1.09-1.42-1.61.01-7.22,5.8-13.83,12.9-14.74,1.96,1.06,2.89,2.18,2.88,3.28Z"/>
    </g>
    <g class="cls-7">
      <g class="cls-12">
        <g class="cls-7">
          <g>
            <path class="cls-4" d="m116.87,29.03c-7.1.91-12.89,7.52-12.9,14.74-3.36-1.82-11.66-2.58-18.52-1.7.01-7.22-2.81-14.62-6.29-16.5,13.97-1.79,30.85-.23,37.71,3.46Z"/>
            <path class="cls-4" d="m107.15,26.09c-4.37,1.73-7.94,9.01-7.96,16.23"/>
            <path class="cls-4" d="m93.63,24.85c-.58,2.08-1.06,9.65-1.07,16.86"/>
          </g>
          <g>
            <path class="cls-4" d="m79.16,25.57c3.48,1.88,6.3,9.28,6.29,16.5-6.86.88-9.7,3.06-6.33,4.88.01-7.22-5.75-12.35-12.85-11.44-6.85-3.7-1.08-8.15,12.89-9.93Z"/>
            <path class="cls-4" d="m68.09,28.12c6.59,1.16,11.94,7.98,11.92,15.2"/>
            <path class="cls-4" d="m63.46,31.68c7.89.17,14.29,6.17,14.28,13.39"/>
          </g>
          <g>
            <path class="cls-4" d="m103.97,43.77c-.01,7.22,5.75,12.35,12.85,11.45-6.85-3.7-23.73-5.25-37.71-3.46,3.48,1.88,6.32-2.46,6.34-9.68,6.86-.88,15.15-.12,18.52,1.7Z"/>
            <path class="cls-4" d="m105.72,50.15c-3.84-2.07-13.31-2.94-21.14-1.94"/>
            <path class="cls-4" d="m110.33,54.25c-5.09-2.75-17.64-3.9-28.03-2.58"/>
            <path class="cls-4" d="m99.2,42.33c-.01,7.22,3.53,11.68,7.9,9.95"/>
            <path class="cls-4" d="m92.55,41.72c-.01,7.22.44,11.4,1.02,9.32"/>
          </g>
          <g>
            <path class="cls-4" d="m85.45,42.07c-.01,7.22-2.86,11.56-6.34,9.68-13.97,1.79-19.75,6.23-12.89,9.93,7.1-.91,12.89-7.52,12.9-14.74-3.36-1.82-.53-4,6.33-4.88Z"/>
            <path class="cls-4" d="m84.57,48.2c-7.83,1-11.07,3.49-7.23,5.57"/>
            <path class="cls-4" d="m82.3,51.68c-10.39,1.33-14.68,4.63-9.59,7.38"/>
            <path class="cls-4" d="m80.01,43.32c-.01,7.22-5.39,12.14-11.97,10.98"/>
            <path class="cls-4" d="m77.74,45.07c-.01,7.22-6.44,12.96-14.33,12.79"/>
          </g>
        </g>
        <path class="cls-4" d="m109.78,53.98s-.09-.04-.13-.06c-.11-.05-.26-.1-.37-.15-.19-.07-.44-.16-.64-.22-.48-.15-.97-.3-1.97-.53-.38-.09-.88-.2-1.26-.27-.41-.08-.95-.17-1.36-.25-.45-.08-1.05-.17-1.5-.23-.97-.13-2.27-.27-3.24-.37-.53-.05-1.24-.11-1.77-.14-.54-.04-1.26-.08-1.8-.11-.55-.02-1.29-.05-1.84-.07-.56-.02-1.31-.03-1.87-.03-1.13,0-2.63.02-3.76.05-.56.01-1.3.05-1.86.08-.55.03-1.29.07-1.84.12-1.05.09-2.46.23-3.51.36-1.63.2-3.36.51-4.02.65-.6.13-1.41.31-2,.48-.24.07-.57.17-.81.25-.24.08-.55.2-.78.29-.02,0-.04.02-.06.02,0,0,0-.01.01-.01.39-.24.7-.5.85-.64.3-.26.67-.64.93-.94.18-.22.42-.52.58-.75.14-.19.3-.47.43-.67.16-.25.33-.6.46-.86.13-.26.28-.61.37-.89.17-.51.36-1.2.48-1.73.07-.3.11-.7.14-1.01.03-.31.05-.72.05-1.03,0-1.35,2.85-2.64,7.75-3.27,6.86-.88,15.15-.12,18.52,1.7,0,4.58,2.31,8.32,5.81,10.21Z"/>
      </g>
      <path class="cls-4" d="m109.78,53.98s-.09-.04-.13-.06c-.11-.05-.26-.1-.37-.15-.19-.07-.44-.16-.64-.22-.48-.15-.97-.3-1.97-.53-.38-.09-.88-.2-1.26-.27-.41-.08-.95-.17-1.36-.25-.45-.08-1.05-.17-1.5-.23-.97-.13-2.27-.27-3.24-.37-.53-.05-1.24-.11-1.77-.14-.54-.04-1.26-.08-1.8-.11-.55-.02-1.29-.05-1.84-.07-.56-.02-1.31-.03-1.87-.03-1.13,0-2.63.02-3.76.05-.56.01-1.3.05-1.86.08-.55.03-1.29.07-1.84.12-1.05.09-2.46.23-3.51.36-1.63.2-3.36.51-4.02.65-.6.13-1.41.31-2,.48-.24.07-.57.17-.81.25-.24.08-.55.2-.78.29-.02,0-.04.02-.06.02,0,0,0-.01.01-.01.39-.24.7-.5.85-.64.3-.26.67-.64.93-.94.18-.22.42-.52.58-.75.14-.19.3-.47.43-.67.16-.25.33-.6.46-.86.13-.26.28-.61.37-.89.17-.51.36-1.2.48-1.73.07-.3.11-.7.14-1.01.03-.31.05-.72.05-1.03,0-1.35,2.85-2.64,7.75-3.27,6.86-.88,15.15-.12,18.52,1.7,0,4.58,2.31,8.32,5.81,10.21Z"/>
    </g>
    <g class="cls-7">
      <g class="cls-7">
        <g>
          <path class="cls-4" d="m116.87,29.03c-7.1.91-12.89,7.52-12.9,14.74-3.36-1.82-11.66-2.58-18.52-1.7.01-7.22-2.81-14.62-6.29-16.5,13.97-1.79,30.85-.23,37.71,3.46Z"/>
          <path class="cls-4" d="m107.15,26.09c-4.37,1.73-7.94,9.01-7.96,16.23"/>
          <path class="cls-4" d="m93.63,24.85c-.58,2.08-1.06,9.65-1.07,16.86"/>
        </g>
        <g>
          <path class="cls-4" d="m79.16,25.57c3.48,1.88,6.3,9.28,6.29,16.5-6.86.88-9.7,3.06-6.33,4.88.01-7.22-5.75-12.35-12.85-11.44-6.85-3.7-1.08-8.15,12.89-9.93Z"/>
          <path class="cls-4" d="m68.09,28.12c6.59,1.16,11.94,7.98,11.92,15.2"/>
          <path class="cls-4" d="m63.46,31.68c7.89.17,14.29,6.17,14.28,13.39"/>
        </g>
        <g>
          <path class="cls-4" d="m103.97,43.77c-.01,7.22,5.75,12.35,12.85,11.45-6.85-3.7-23.73-5.25-37.71-3.46,3.48,1.88,6.32-2.46,6.34-9.68,6.86-.88,15.15-.12,18.52,1.7Z"/>
          <path class="cls-4" d="m105.72,50.15c-3.84-2.07-13.31-2.94-21.14-1.94"/>
          <path class="cls-4" d="m110.33,54.25c-5.09-2.75-17.64-3.9-28.03-2.58"/>
          <path class="cls-4" d="m99.2,42.33c-.01,7.22,3.53,11.68,7.9,9.95"/>
          <path class="cls-4" d="m92.55,41.72c-.01,7.22.44,11.4,1.02,9.32"/>
        </g>
        <g>
          <path class="cls-4" d="m85.45,42.07c-.01,7.22-2.86,11.56-6.34,9.68-13.97,1.79-19.75,6.23-12.89,9.93,7.1-.91,12.89-7.52,12.9-14.74-3.36-1.82-.53-4,6.33-4.88Z"/>
          <path class="cls-4" d="m84.57,48.2c-7.83,1-11.07,3.49-7.23,5.57"/>
          <path class="cls-4" d="m82.3,51.68c-10.39,1.33-14.68,4.63-9.59,7.38"/>
          <path class="cls-4" d="m80.01,43.32c-.01,7.22-5.39,12.14-11.97,10.98"/>
          <path class="cls-4" d="m77.74,45.07c-.01,7.22-6.44,12.96-14.33,12.79"/>
        </g>
      </g>
      <path class="cls-4" d="m81.05,52.17c-.81.1-1.89.26-2.7.4-.69.12-1.6.31-2.28.47-.54.12-1.24.33-1.76.49-.22.07-.51.17-.72.26-.06.02-.13.05-.19.07,0,0,.02-.01.02-.02.15-.1.35-.23.49-.34.15-.11.34-.28.48-.4.3-.27.66-.66.92-.97.17-.21.39-.5.54-.72.14-.2.3-.47.42-.67.15-.24.31-.59.44-.84.13-.25.27-.61.36-.88.16-.51.35-1.21.47-1.73.07-.3.11-.7.13-1,.03-.28.03-.66.04-.94-.01,7.22-6.46,13.08-14.37,13.07,0-2.75,5.8-5.38,15.78-6.65,13.97-1.79,30.85-.23,37.71,3.46-2.6.33-5.02-.15-7.04-1.24-.07-.03-.16-.08-.23-.1-.12-.05-.27-.11-.39-.15-.43-.14-1-.32-1.43-.44-.62-.17-1.74-.42-2.36-.54-.84-.16-1.97-.34-2.82-.47-.48-.07-1.13-.14-1.61-.2-.72-.09-2.49-.25-3.41-.31-1.74-.11-2.35-.14-3.63-.18-.56-.02-1.3-.03-1.86-.03-1.42-.02-2.94.03-3.76.05-.07,0-1.72.05-3.7.21-1.6.13-2.78.27-3.53.36Z"/>
    </g>
    <g class="cls-7">
      <g class="cls-22">
        <g class="cls-7">
          <path class="cls-4" d="m79.16,25.57c3.48,1.88,6.3,9.28,6.29,16.5-6.86.88-9.7,3.06-6.33,4.88.01-7.22-5.75-12.35-12.85-11.44-6.85-3.7-1.08-8.15,12.89-9.93Z"/>
          <g>
            <path class="cls-4" d="m66.27,35.5c7.1-.91,12.86,4.23,12.85,11.44,3.36,1.82,11.66,2.58,18.52,1.7.01-7.22,2.86-11.56,6.34-9.68-13.97,1.79-30.85.23-37.71-3.46Z"/>
            <path class="cls-4" d="m75.98,38.44c4.37-1.73,7.92,2.73,7.9,9.95"/>
            <path class="cls-4" d="m89.51,39.68c.58-2.08,1.04,2.1,1.02,9.32"/>
          </g>
          <g>
            <path class="cls-4" d="m103.97,38.97c-3.48-1.88-6.32,2.46-6.34,9.68,6.86-.88,9.7-3.06,6.33-4.88.01-7.22,5.8-13.83,12.9-14.74,6.85,3.7,1.08,8.15-12.89,9.93Z"/>
            <path class="cls-4" d="m115.05,36.42c-6.59-1.16-11.96,3.76-11.97,10.98"/>
            <path class="cls-4" d="m119.68,32.86c-7.89-.17-14.31,5.57-14.33,12.79"/>
          </g>
          <g>
            <path class="cls-4" d="m85.45,42.07c-.01,7.22-2.86,11.56-6.34,9.68-13.97,1.79-19.75,6.23-12.89,9.93,7.1-.91,12.89-7.52,12.9-14.74-3.36-1.82-.53-4,6.33-4.88Z"/>
            <path class="cls-4" d="m84.57,48.2c-7.83,1-11.07,3.49-7.23,5.57"/>
            <path class="cls-4" d="m82.3,51.68c-10.39,1.33-14.68,4.63-9.59,7.38"/>
          </g>
          <g>
            <path class="cls-4" d="m79.12,46.95c-.01,7.22-5.8,13.83-12.9,14.74,6.85,3.7,23.73,5.25,37.71,3.46-3.48-1.88-6.3-9.28-6.29-16.5-6.86.88-15.15.12-18.52-1.7Z"/>
            <path class="cls-4" d="m77.34,53.77c3.84,2.07,13.31,2.94,21.14,1.94"/>
            <path class="cls-4" d="m72.71,59.06c5.09,2.75,17.64,3.9,28.03,2.58"/>
            <path class="cls-4" d="m83.89,48.39c-.01,7.22-3.58,14.5-7.96,16.23"/>
            <path class="cls-4" d="m90.53,49c-.01,7.22-.5,14.78-1.07,16.86"/>
          </g>
          <g>
            <path class="cls-4" d="m97.64,48.65c-.01,7.22,2.81,14.62,6.29,16.5,13.97-1.79,19.75-6.23,12.89-9.93-7.1.91-12.86-4.23-12.85-11.45,3.36,1.82.53,4-6.33,4.88Z"/>
            <path class="cls-4" d="m98.49,55.71c7.83-1,11.07-3.49,7.23-5.57"/>
            <path class="cls-4" d="m100.74,61.64c10.39-1.33,14.68-4.63,9.59-7.38"/>
            <path class="cls-4" d="m103.08,47.4c-.01,7.22,5.33,14.04,11.92,15.2"/>
            <path class="cls-4" d="m105.35,45.65c-.01,7.22,6.39,13.23,14.28,13.39"/>
          </g>
        </g>
        <path class="cls-4" d="m77.7,45.34c0,.54.45,1.09,1.42,1.61,3.36,1.82,11.66,2.58,18.52,1.7,4.9-.63,7.75-1.92,7.75-3.27-.01,7.22,6.41,13.1,14.32,13.11,0,2.75-5.8,5.38-15.78,6.65-13.97,1.79-30.85.23-37.71-3.46-1.96-1.06-2.89-2.18-2.88-3.28,7.91.01,14.35-5.85,14.37-13.07Z"/>
      </g>
      <path class="cls-4" d="m77.7,45.34c0,.54.45,1.09,1.42,1.61,3.36,1.82,11.66,2.58,18.52,1.7,4.9-.63,7.75-1.92,7.75-3.27-.01,7.22,6.41,13.1,14.32,13.11,0,2.75-5.8,5.38-15.78,6.65-13.97,1.79-30.85.23-37.71-3.46-1.96-1.06-2.89-2.18-2.88-3.28,7.91.01,14.35-5.85,14.37-13.07Z"/>
    </g>
    <g class="cls-7">
      <g class="cls-9">
        <g class="cls-7">
          <path class="cls-4" d="m103.97,38.97c-3.48-1.88-6.32,2.46-6.34,9.68,6.86-.88,9.7-3.06,6.33-4.88.01-7.22,5.8-13.83,12.9-14.74,6.85,3.7,1.08,8.15-12.89,9.93Z"/>
          <g>
            <path class="cls-4" d="m97.64,48.65c-.01,7.22,2.81,14.62,6.29,16.5,13.97-1.79,19.75-6.23,12.89-9.93-7.1.91-12.86-4.23-12.85-11.45,3.36,1.82.53,4-6.33,4.88Z"/>
            <path class="cls-4" d="m98.49,55.71c7.83-1,11.07-3.49,7.23-5.57"/>
          </g>
        </g>
        <path class="cls-4" d="m105.39,45.38c.02.56.08,1.31.15,1.87.04.29.14.68.21.97.07.28.18.66.29.93.19.48.48,1.1.71,1.56.12.24.31.54.47.76.14.19.32.45.47.63.15.19.37.43.53.61.13.15.33.33.47.46.13.12.31.27.44.38.09.07.21.16.3.22.1.07.23.15.34.21-3.5-1.89-5.82-5.63-5.81-10.21.96.52,1.42,1.07,1.42,1.61Z"/>
      </g>
      <path class="cls-4" d="m105.39,45.38c.02.56.08,1.31.15,1.87.04.29.14.68.21.97.07.28.18.66.29.93.19.48.48,1.1.71,1.56.12.24.31.54.47.76.14.19.32.45.47.63.15.19.37.43.53.61.13.15.33.33.47.46.13.12.31.27.44.38.09.07.21.16.3.22.1.07.23.15.34.21-3.5-1.89-5.82-5.63-5.81-10.21.96.52,1.42,1.07,1.42,1.61Z"/>
    </g>
    <g class="cls-7">
      <g class="cls-10">
        <g class="cls-7">
          <path class="cls-4" d="m103.97,38.97c-3.48-1.88-6.32,2.46-6.34,9.68,6.86-.88,9.7-3.06,6.33-4.88.01-7.22,5.8-13.83,12.9-14.74,6.85,3.7,1.08,8.15-12.89,9.93Z"/>
          <g>
            <path class="cls-4" d="m97.64,48.65c-.01,7.22,2.81,14.62,6.29,16.5,13.97-1.79,19.75-6.23,12.89-9.93-7.1.91-12.86-4.23-12.85-11.45,3.36,1.82.53,4-6.33,4.88Z"/>
            <path class="cls-4" d="m98.49,55.71c7.83-1,11.07-3.49,7.23-5.57"/>
            <path class="cls-4" d="m100.74,61.64c10.39-1.33,14.68-4.63,9.59-7.38"/>
          </g>
        </g>
        <path class="cls-4" d="m109.78,53.98c2.02,1.09,4.44,1.57,7.04,1.24,1.96,1.06,2.89,2.18,2.88,3.28-7.91-.01-14.33-5.9-14.32-13.11,0,.31.02.72.05,1.03.03.3.07.71.14,1.01.12.53.31,1.22.47,1.73.09.27.25.63.37.89.59,1.26,1.29,2.08,1.46,2.28.26.3.63.69.94.96.13.11.3.26.44.36.15.11.37.25.53.35Z"/>
      </g>
      <path class="cls-4" d="m109.78,53.98c2.02,1.09,4.44,1.57,7.04,1.24,1.96,1.06,2.89,2.18,2.88,3.28-7.91-.01-14.33-5.9-14.32-13.11,0,.31.02.72.05,1.03.03.3.07.71.14,1.01.12.53.31,1.22.47,1.73.09.27.25.63.37.89.59,1.26,1.29,2.08,1.46,2.28.26.3.63.69.94.96.13.11.3.26.44.36.15.11.37.25.53.35Z"/>
    </g>
    <g class="cls-7">
      <g class="cls-18">
        <g class="cls-7">
          <path class="cls-4" d="m79.11,51.75v-.09c-13.97,1.79-19.75,6.23-12.89,9.93v.09c-6.85-3.7-1.08-8.15,12.89-9.93Z"/>
          <g>
            <path class="cls-4" d="m66.22,61.68v-.09c6.85,3.7,23.73,5.25,37.71,3.46v.09c-13.97,1.79-30.85.23-37.71-3.46Z"/>
            <line class="cls-4" x1="75.93" y1="64.62" x2="75.93" y2="64.53"/>
            <line class="cls-4" x1="89.46" y1="65.86" x2="89.46" y2="65.77"/>
          </g>
          <g>
            <path class="cls-4" d="m103.92,65.15v-.09c13.97-1.79,19.75-6.23,12.89-9.93v.09c6.85,3.7,1.08,8.15-12.89,9.93Z"/>
            <line class="cls-4" x1="115" y1="62.6" x2="115" y2="62.51"/>
            <line class="cls-4" x1="119.63" y1="59.04" x2="119.63" y2="58.95"/>
          </g>
        </g>
        <path class="cls-4" d="m63.33,58.4v-.09c0,1.1.92,2.22,2.88,3.28,6.85,3.7,23.73,5.25,37.71,3.46,9.98-1.28,15.77-3.91,15.78-6.65v.09c0,2.75-5.8,5.38-15.78,6.65-13.97,1.79-30.85.23-37.71-3.46-1.96-1.06-2.89-2.18-2.88-3.28Z"/>
      </g>
      <path class="cls-4" d="m63.33,58.4v-.09c0,1.1.92,2.22,2.88,3.28,6.85,3.7,23.73,5.25,37.71,3.46,9.98-1.28,15.77-3.91,15.78-6.65v.09c0,2.75-5.8,5.38-15.78,6.65-13.97,1.79-30.85.23-37.71-3.46-1.96-1.06-2.89-2.18-2.88-3.28Z"/>
    </g>
    <g class="cls-7">
      <g class="cls-7">
        <g>
          <path class="cls-4" d="m116.82,55.21v-.09c-6.85-3.7-23.73-5.25-37.71-3.46v.09c13.97-1.79,30.85-.23,37.71,3.46Z"/>
          <line class="cls-4" x1="107.1" y1="52.28" x2="107.1" y2="52.18"/>
          <line class="cls-4" x1="93.58" y1="51.03" x2="93.58" y2="50.94"/>
        </g>
        <g>
          <path class="cls-4" d="m79.11,51.75v-.09c-13.97,1.79-19.75,6.23-12.89,9.93v.09c-6.85-3.7-1.08-8.15,12.89-9.93Z"/>
          <line class="cls-4" x1="68.04" y1="54.3" x2="68.04" y2="54.2"/>
          <line class="cls-4" x1="63.41" y1="57.86" x2="63.41" y2="57.77"/>
        </g>
      </g>
      <path class="cls-4" d="m63.33,58.31c0-2.75,5.8-5.38,15.78-6.65,13.97-1.79,30.85-.23,37.71,3.46v.09c-6.85-3.7-23.73-5.25-37.71-3.46-9.98,1.28-15.77,3.91-15.78,6.65,0-.03,0-.06,0-.09Z"/>
    </g>
    <g class="cls-7">
      <g class="cls-14">
        <g class="cls-7">
          <path class="cls-4" d="m103.92,65.15v-.09c13.97-1.79,19.75-6.23,12.89-9.93v.09c6.85,3.7,1.08,8.15-12.89,9.93Z"/>
        </g>
        <path class="cls-4" d="m119.7,58.49c0-1.1-.92-2.22-2.88-3.28v-.09c1.96,1.06,2.89,2.18,2.88,3.28,0,.03,0,.06,0,.09Z"/>
      </g>
      <path class="cls-4" d="m119.7,58.49c0-1.1-.92-2.22-2.88-3.28v-.09c1.96,1.06,2.89,2.18,2.88,3.28,0,.03,0,.06,0,.09Z"/>
    </g>
    <g class="cls-7">
      <g class="cls-7">
        <g>
          <path class="cls-4" d="m116.82,55.12c-7.05.9-12.77-4.2-12.76-11.37-3.39-1.83-11.74-2.6-18.65-1.71-.01,7.17-2.84,11.48-6.29,9.61,13.97-1.79,30.85-.23,37.71,3.46Z"/>
          <path class="cls-4" d="m110.37,54.17c-5.11-2.76-17.68-3.91-28.1-2.58"/>
          <path class="cls-4" d="m105.79,50.09c-3.86-2.09-13.38-2.96-21.26-1.95"/>
          <path class="cls-4" d="m107.1,52.18c-4.34,1.72-7.86-2.71-7.85-9.88"/>
          <path class="cls-4" d="m93.58,50.94c-.57,2.07-1.03-2.08-1.01-9.25"/>
        </g>
        <g>
          <path class="cls-4" d="m79.11,51.66c3.46,1.87,6.28-2.45,6.29-9.61-6.91.88-9.77,3.08-6.38,4.91-.01,7.17-5.76,13.73-12.81,14.63-6.85-3.7-1.08-8.15,12.89-9.93Z"/>
          <path class="cls-4" d="m82.28,51.59c-10.41,1.33-14.71,4.64-9.61,7.4"/>
          <path class="cls-4" d="m84.54,48.14c-7.88,1.01-11.13,3.51-7.27,5.6"/>
          <path class="cls-4" d="m68.04,54.2c6.54,1.16,11.88-3.73,11.89-10.9"/>
          <path class="cls-4" d="m63.41,57.77c7.83.16,14.21-5.53,14.23-12.7"/>
        </g>
        <g>
          <path class="cls-4" d="m104.06,43.76c.01-7.17,5.76-13.73,12.81-14.63-6.85-3.7-23.73-5.25-37.71-3.46,3.46,1.87,6.26,9.22,6.24,16.38,6.91-.88,15.26-.12,18.65,1.71Z"/>
          <path class="cls-4" d="m99.25,42.3c.01-7.17,3.56-14.4,7.9-16.12"/>
          <path class="cls-4" d="m92.56,41.69c.01-7.17.49-14.68,1.07-16.75"/>
        </g>
        <g>
          <path class="cls-4" d="m85.41,42.04c.01-7.17-2.79-14.52-6.24-16.38-13.97,1.79-19.75,6.23-12.89,9.93,7.05-.9,12.77,4.2,12.76,11.36-3.39-1.83-.53-4.03,6.38-4.91Z"/>
          <path class="cls-4" d="m79.93,43.3c.01-7.17-5.3-13.94-11.84-15.1"/>
          <path class="cls-4" d="m77.64,45.07c.01-7.17-6.35-13.13-14.18-13.3"/>
        </g>
      </g>
      <path class="cls-4" d="m109.83,53.89s-.09-.05-.14-.06c-.11-.05-.26-.11-.38-.15-.19-.07-.45-.16-.64-.22-.27-.08-.64-.19-.92-.27-.31-.08-.74-.19-1.05-.26-.38-.09-.88-.2-1.26-.27-.41-.08-.95-.17-1.36-.25-.45-.08-1.05-.17-1.51-.23-1.26-.17-2.92-.37-5.01-.52-.54-.04-1.26-.08-1.8-.11-.55-.02-1.29-.05-1.84-.07-.56-.02-1.31-.03-1.87-.03-1.13,0-2.63.02-3.76.05-.56.01-1.3.05-1.86.08-2.67.15-4.47.37-5.36.48-1.66.21-3.37.51-4.06.66-.61.13-1.43.32-2.03.49-.78.22-1.2.38-1.51.5-.04.02-.1.04-.14.05.09-.06.21-.13.3-.2.15-.11.36-.26.5-.39.35-.31.58-.51,1.03-1.04.3-.35.65-.86.9-1.25.16-.24.33-.59.46-.85.13-.26.29-.6.38-.87.17-.5.37-1.18.49-1.7.07-.29.12-.69.15-1,.03-.34.06-.8.06-1.15-.01,7.17-6.41,12.99-14.27,12.98,0-2.75,5.8-5.38,15.78-6.65,13.97-1.79,30.85-.23,37.71,3.46-2.58.33-4.98-.14-6.99-1.23Z"/>
    </g>
    <g class="cls-7">
      <g class="cls-7">
        <g>
          <path class="cls-4" d="m116.82,55.12c-7.05.9-12.77-4.2-12.76-11.37-3.39-1.83-11.74-2.6-18.65-1.71-.01,7.17-2.84,11.48-6.29,9.61,13.97-1.79,30.85-.23,37.71,3.46Z"/>
          <path class="cls-4" d="m110.37,54.17c-5.11-2.76-17.68-3.91-28.1-2.58"/>
          <path class="cls-4" d="m105.79,50.09c-3.86-2.09-13.38-2.96-21.26-1.95"/>
          <path class="cls-4" d="m107.1,52.18c-4.34,1.72-7.86-2.71-7.85-9.88"/>
          <path class="cls-4" d="m93.58,50.94c-.57,2.07-1.03-2.08-1.01-9.25"/>
        </g>
        <g>
          <path class="cls-4" d="m79.11,51.66c3.46,1.87,6.28-2.45,6.29-9.61-6.91.88-9.77,3.08-6.38,4.91-.01,7.17-5.76,13.73-12.81,14.63-6.85-3.7-1.08-8.15,12.89-9.93Z"/>
          <path class="cls-4" d="m82.28,51.59c-10.41,1.33-14.71,4.64-9.61,7.4"/>
          <path class="cls-4" d="m84.54,48.14c-7.88,1.01-11.13,3.51-7.27,5.6"/>
          <path class="cls-4" d="m68.04,54.2c6.54,1.16,11.88-3.73,11.89-10.9"/>
          <path class="cls-4" d="m63.41,57.77c7.83.16,14.21-5.53,14.23-12.7"/>
        </g>
        <g>
          <path class="cls-4" d="m104.06,43.76c.01-7.17,5.76-13.73,12.81-14.63-6.85-3.7-23.73-5.25-37.71-3.46,3.46,1.87,6.26,9.22,6.24,16.38,6.91-.88,15.26-.12,18.65,1.71Z"/>
          <path class="cls-4" d="m99.25,42.3c.01-7.17,3.56-14.4,7.9-16.12"/>
          <path class="cls-4" d="m92.56,41.69c.01-7.17.49-14.68,1.07-16.75"/>
        </g>
        <g>
          <path class="cls-4" d="m85.41,42.04c.01-7.17-2.79-14.52-6.24-16.38-13.97,1.79-19.75,6.23-12.89,9.93,7.05-.9,12.77,4.2,12.76,11.36-3.39-1.83-.53-4.03,6.38-4.91Z"/>
          <path class="cls-4" d="m79.93,43.3c.01-7.17-5.3-13.94-11.84-15.1"/>
          <path class="cls-4" d="m77.64,45.07c.01-7.17-6.35-13.13-14.18-13.3"/>
        </g>
      </g>
    </g>
    <g class="cls-7">
      <g class="cls-23">
        <g class="cls-7">
          <g>
            <path class="cls-4" d="m79.11,51.66c3.46,1.87,6.28-2.45,6.29-9.61-6.91.88-9.77,3.08-6.38,4.91-.01,7.17-5.76,13.73-12.81,14.63-6.85-3.7-1.08-8.15,12.89-9.93Z"/>
            <path class="cls-4" d="m84.54,48.14c-7.88,1.01-11.13,3.51-7.27,5.6"/>
          </g>
          <g>
            <path class="cls-4" d="m66.22,61.59c7.05-.9,12.8-7.47,12.81-14.63,3.39,1.83,11.74,2.6,18.65,1.71-.01,7.17,2.79,14.52,6.24,16.38-13.97,1.79-30.85.23-37.71-3.46Z"/>
            <path class="cls-4" d="m72.67,58.99c5.11,2.76,17.68,3.91,28.1,2.58"/>
            <path class="cls-4" d="m77.27,53.74c3.86,2.09,13.38,2.96,21.26,1.95"/>
            <path class="cls-4" d="m75.93,64.53c4.34-1.72,7.89-8.95,7.9-16.12"/>
            <path class="cls-4" d="m89.46,65.77c.57-2.07,1.05-9.58,1.07-16.75"/>
          </g>
          <g>
            <path class="cls-4" d="m103.92,65.05c-3.46-1.87-6.26-9.22-6.24-16.38,6.91-.88,9.77-3.08,6.38-4.91-.01,7.17,5.71,12.27,12.76,11.37,6.85,3.7,1.08,8.15-12.89,9.93Z"/>
            <path class="cls-4" d="m100.77,61.57c10.41-1.33,14.71-4.64,9.61-7.4"/>
            <path class="cls-4" d="m98.52,55.69c7.88-1.01,11.13-3.51,7.27-5.6"/>
            <path class="cls-4" d="m115,62.51c-6.54-1.16-11.85-7.93-11.84-15.1"/>
            <path class="cls-4" d="m119.63,58.95c-7.83-.16-14.19-6.13-14.18-13.3"/>
          </g>
          <path class="cls-4" d="m85.41,42.04c.01-7.17-2.79-14.52-6.24-16.38-13.97,1.79-19.75,6.23-12.89,9.93,7.05-.9,12.77,4.2,12.76,11.36-3.39-1.83-.53-4.03,6.38-4.91Z"/>
          <g>
            <path class="cls-4" d="m79.03,46.96c.01-7.17-5.71-12.27-12.76-11.36,6.85,3.7,23.73,5.25,37.71,3.46-3.46-1.87-6.28,2.45-6.29,9.61-6.91.88-15.26.12-18.65-1.71Z"/>
            <path class="cls-4" d="m83.83,48.41c.01-7.17-3.51-11.6-7.85-9.88"/>
            <path class="cls-4" d="m90.53,49.03c.01-7.17-.44-11.32-1.01-9.25"/>
          </g>
          <g>
            <path class="cls-4" d="m97.68,48.67c.01-7.17,2.84-11.48,6.29-9.61,13.97-1.79,19.75-6.23,12.89-9.93-7.05.9-12.8,7.47-12.81,14.63,3.39,1.83.53,4.03-6.38,4.91Z"/>
            <path class="cls-4" d="m103.16,47.41c.01-7.17,5.35-12.06,11.89-10.9"/>
            <path class="cls-4" d="m105.45,45.65c.01-7.17,6.4-12.86,14.23-12.7"/>
          </g>
        </g>
        <path class="cls-4" d="m63.33,58.31c7.85.01,14.25-5.81,14.27-12.98,0,.54.46,1.1,1.43,1.62,3.39,1.83,11.74,2.6,18.65,1.71,4.94-.63,7.8-1.93,7.81-3.29-.01,7.17,6.36,13.01,14.22,13.02,0,2.75-5.8,5.38-15.78,6.65-13.97,1.79-30.85.23-37.71-3.46-1.96-1.06-2.89-2.18-2.88-3.28Z"/>
      </g>
      <path class="cls-4" d="m63.33,58.31c7.85.01,14.25-5.81,14.27-12.98,0,.54.46,1.1,1.43,1.62,3.39,1.83,11.74,2.6,18.65,1.71,4.94-.63,7.8-1.93,7.81-3.29-.01,7.17,6.36,13.01,14.22,13.02,0,2.75-5.8,5.38-15.78,6.65-13.97,1.79-30.85.23-37.71-3.46-1.96-1.06-2.89-2.18-2.88-3.28Z"/>
    </g>
    <g class="cls-7">
      <g class="cls-1">
        <g class="cls-7">
          <g>
            <path class="cls-4" d="m103.92,65.05c-3.46-1.87-6.26-9.22-6.24-16.38,6.91-.88,9.77-3.08,6.38-4.91-.01,7.17,5.71,12.27,12.76,11.37,6.85,3.7,1.08,8.15-12.89,9.93Z"/>
            <path class="cls-4" d="m98.52,55.69c7.88-1.01,11.13-3.51,7.27-5.6"/>
          </g>
          <path class="cls-4" d="m97.68,48.67c.01-7.17,2.84-11.48,6.29-9.61,13.97-1.79,19.75-6.23,12.89-9.93-7.05.9-12.8,7.47-12.81,14.63,3.39,1.83.53,4.03-6.38,4.91Z"/>
        </g>
        <path class="cls-4" d="m109.83,53.89c-3.48-1.88-5.78-5.59-5.77-10.14.97.52,1.43,1.08,1.43,1.62.02.5.06,1.17.12,1.67.04.3.12.69.2.98.13.51.37,1.17.56,1.66.1.26.28.59.41.85.13.25.33.58.49.82.26.37.63.84.93,1.18.16.18.39.4.56.56.13.12.31.26.44.38.12.1.29.21.42.3.06.04.14.09.21.12Z"/>
      </g>
      <path class="cls-4" d="m109.83,53.89c-3.48-1.88-5.78-5.59-5.77-10.14.97.52,1.43,1.08,1.43,1.62.02.5.06,1.17.12,1.67.04.3.12.69.2.98.13.51.37,1.17.56,1.66.1.26.28.59.41.85.13.25.33.58.49.82.26.37.63.84.93,1.18.16.18.39.4.56.56.13.12.31.26.44.38.12.1.29.21.42.3.06.04.14.09.21.12Z"/>
    </g>
    <g class="cls-7">
      <g class="cls-13">
        <g class="cls-7">
          <g>
            <path class="cls-4" d="m103.92,65.05c-3.46-1.87-6.26-9.22-6.24-16.38,6.91-.88,9.77-3.08,6.38-4.91-.01,7.17,5.71,12.27,12.76,11.37,6.85,3.7,1.08,8.15-12.89,9.93Z"/>
            <path class="cls-4" d="m100.77,61.57c10.41-1.33,14.71-4.64,9.61-7.4"/>
            <path class="cls-4" d="m98.52,55.69c7.88-1.01,11.13-3.51,7.27-5.6"/>
          </g>
          <path class="cls-4" d="m97.68,48.67c.01-7.17,2.84-11.48,6.29-9.61,13.97-1.79,19.75-6.23,12.89-9.93-7.05.9-12.8,7.47-12.81,14.63,3.39,1.83.53,4.03-6.38,4.91Z"/>
        </g>
        <path class="cls-4" d="m105.49,45.38c.01.28,0,.66.04.94.06.49.14,1.15.26,1.63.29,1.19.63,1.89.95,2.5.13.25.31.57.47.8.26.37.61.86.91,1.2.42.46.7.7.97.93.12.1.28.22.4.31.1.07.24.16.34.22,2.01,1.08,4.41,1.56,6.99,1.23,1.96,1.06,2.89,2.18,2.88,3.28-7.85-.01-14.23-5.85-14.22-13.02Z"/>
      </g>
      <path class="cls-4" d="m105.49,45.38c.01.28,0,.66.04.94.06.49.14,1.15.26,1.63.29,1.19.63,1.89.95,2.5.13.25.31.57.47.8.26.37.61.86.91,1.2.42.46.7.7.97.93.12.1.28.22.4.31.1.07.24.16.34.22,2.01,1.08,4.41,1.56,6.99,1.23,1.96,1.06,2.89,2.18,2.88,3.28-7.85-.01-14.23-5.85-14.22-13.02Z"/>
    </g>
    <g class="cls-7">
      <g class="cls-6">
        <g class="cls-7">
          <path class="cls-4" d="m79.11,51.66c3.46,1.87,6.28-2.45,6.29-9.61-6.91.88-9.77,3.08-6.38,4.91-.01,7.17-5.76,13.73-12.81,14.63-6.85-3.7-1.08-8.15,12.89-9.93Z"/>
          <g>
            <path class="cls-4" d="m66.22,61.59c7.05-.9,12.8-7.47,12.81-14.63,3.39,1.83,11.74,2.6,18.65,1.71-.01,7.17,2.79,14.52,6.24,16.38-13.97,1.79-30.85.23-37.71-3.46Z"/>
            <path class="cls-4" d="m75.93,64.53c4.34-1.72,7.89-8.95,7.9-16.12"/>
            <path class="cls-4" d="m89.46,65.77c.57-2.07,1.05-9.58,1.07-16.75"/>
          </g>
          <g>
            <path class="cls-4" d="m103.92,65.05c-3.46-1.87-6.26-9.22-6.24-16.38,6.91-.88,9.77-3.08,6.38-4.91-.01,7.17,5.71,12.27,12.76,11.37,6.85,3.7,1.08,8.15-12.89,9.93Z"/>
            <path class="cls-4" d="m115,62.51c-6.54-1.16-11.85-7.93-11.84-15.1"/>
            <path class="cls-4" d="m119.63,58.95c-7.83-.16-14.19-6.13-14.18-13.3"/>
          </g>
          <g>
            <path class="cls-4" d="m85.41,42.04c.01-7.17-2.79-14.52-6.24-16.38-13.97,1.79-19.75,6.23-12.89,9.93,7.05-.9,12.77,4.2,12.76,11.36-3.39-1.83-.53-4.03,6.38-4.91Z"/>
            <path class="cls-4" d="m84.56,35.03c-7.88,1.01-11.13,3.51-7.27,5.6"/>
            <path class="cls-4" d="m82.32,29.14c-10.41,1.33-14.71,4.64-9.61,7.4"/>
          </g>
          <g>
            <path class="cls-4" d="m79.03,46.96c.01-7.17-5.71-12.27-12.76-11.36,6.85,3.7,23.73,5.25,37.71,3.46-3.46-1.87-6.28,2.45-6.29,9.61-6.91.88-15.26.12-18.65-1.71Z"/>
            <path class="cls-4" d="m77.29,40.62c3.86,2.09,13.38,2.96,21.26,1.95"/>
            <path class="cls-4" d="m72.71,36.55c5.11,2.76,17.68,3.91,28.1,2.58"/>
            <path class="cls-4" d="m83.83,48.41c.01-7.17-3.51-11.6-7.85-9.88"/>
            <path class="cls-4" d="m90.53,49.03c.01-7.17-.44-11.32-1.01-9.25"/>
          </g>
          <g>
            <path class="cls-4" d="m97.68,48.67c.01-7.17,2.84-11.48,6.29-9.61,13.97-1.79,19.75-6.23,12.89-9.93-7.05.9-12.8,7.47-12.81,14.63,3.39,1.83.53,4.03-6.38,4.91Z"/>
            <path class="cls-4" d="m98.55,42.58c7.88-1.01,11.13-3.51,7.27-5.6"/>
            <path class="cls-4" d="m100.81,39.13c10.41-1.33,14.71-4.64,9.61-7.4"/>
            <path class="cls-4" d="m103.16,47.41c.01-7.17,5.35-12.06,11.89-10.9"/>
            <path class="cls-4" d="m105.45,45.65c.01-7.17,6.4-12.86,14.23-12.7"/>
          </g>
        </g>
        <path class="cls-4" d="m77.6,45.34c-.02-.56-.08-1.3-.15-1.85-.04-.29-.13-.67-.21-.96-.07-.28-.18-.66-.29-.93-.19-.47-.48-1.09-.71-1.54-.12-.24-.31-.54-.47-.76-.14-.19-.31-.44-.46-.62-.15-.19-.36-.43-.52-.6-.13-.14-.32-.33-.47-.46-.13-.12-.3-.26-.44-.37-.08-.07-.2-.16-.29-.22-.1-.07-.23-.15-.33-.21.04.02.09.05.14.06.11.05.26.11.38.15.19.07.45.16.64.22.27.08.64.19.92.27.31.08.74.19,1.05.26.38.09.88.2,1.26.27.41.08.95.17,1.36.25.45.08,1.05.17,1.51.23.97.13,2.27.27,3.25.37.53.05,1.24.11,1.77.14.54.04,1.26.08,1.8.11.55.02,1.29.05,1.84.07.56.02,1.31.03,1.87.03,1.13,0,2.63-.02,3.76-.05.56-.01,1.3-.05,1.86-.08.55-.03,1.29-.07,1.85-.12,1.06-.09,2.46-.23,3.51-.36,1.64-.2,3.38-.51,4.03-.66.61-.13,1.41-.31,2.01-.48.25-.07.57-.17.81-.25.24-.08.56-.2.79-.29.02,0,.05-.02.07-.02,0,0,0,0,0,.01-.38.24-.69.49-.84.63-.29.26-.67.63-.92.93-.18.22-.41.52-.58.74-.14.19-.3.46-.43.66-.16.24-.32.59-.46.85-.13.26-.28.61-.37.88-.17.51-.36,1.19-.48,1.71-.07.3-.11.7-.14,1-.03.3-.05.71-.05,1.02,0,1.36-2.87,2.66-7.81,3.29-6.91.88-15.26.12-18.65-1.71-.97-.52-1.43-1.08-1.43-1.62Z"/>
      </g>
      <path class="cls-4" d="m77.6,45.34c-.02-.56-.08-1.3-.15-1.85-.04-.29-.13-.67-.21-.96-.07-.28-.18-.66-.29-.93-.19-.47-.48-1.09-.71-1.54-.12-.24-.31-.54-.47-.76-.14-.19-.31-.44-.46-.62-.15-.19-.36-.43-.52-.6-.13-.14-.32-.33-.47-.46-.13-.12-.3-.26-.44-.37-.08-.07-.2-.16-.29-.22-.1-.07-.23-.15-.33-.21.04.02.09.05.14.06.11.05.26.11.38.15.19.07.45.16.64.22.27.08.64.19.92.27.31.08.74.19,1.05.26.38.09.88.2,1.26.27.41.08.95.17,1.36.25.45.08,1.05.17,1.51.23.97.13,2.27.27,3.25.37.53.05,1.24.11,1.77.14.54.04,1.26.08,1.8.11.55.02,1.29.05,1.84.07.56.02,1.31.03,1.87.03,1.13,0,2.63-.02,3.76-.05.56-.01,1.3-.05,1.86-.08.55-.03,1.29-.07,1.85-.12,1.06-.09,2.46-.23,3.51-.36,1.64-.2,3.38-.51,4.03-.66.61-.13,1.41-.31,2.01-.48.25-.07.57-.17.81-.25.24-.08.56-.2.79-.29.02,0,.05-.02.07-.02,0,0,0,0,0,.01-.38.24-.69.49-.84.63-.29.26-.67.63-.92.93-.18.22-.41.52-.58.74-.14.19-.3.46-.43.66-.16.24-.32.59-.46.85-.13.26-.28.61-.37.88-.17.51-.36,1.19-.48,1.71-.07.3-.11.7-.14,1-.03.3-.05.71-.05,1.02,0,1.36-2.87,2.66-7.81,3.29-6.91.88-15.26.12-18.65-1.71-.97-.52-1.43-1.08-1.43-1.62Z"/>
    </g>
    <g class="cls-7">
      <g class="cls-20">
        <g class="cls-7">
          <path class="cls-4" d="m79.11,51.66c3.46,1.87,6.28-2.45,6.29-9.61-6.91.88-9.77,3.08-6.38,4.91-.01,7.17-5.76,13.73-12.81,14.63-6.85-3.7-1.08-8.15,12.89-9.93Z"/>
          <g>
            <path class="cls-4" d="m66.22,61.59c7.05-.9,12.8-7.47,12.81-14.63,3.39,1.83,11.74,2.6,18.65,1.71-.01,7.17,2.79,14.52,6.24,16.38-13.97,1.79-30.85.23-37.71-3.46Z"/>
            <path class="cls-4" d="m75.93,64.53c4.34-1.72,7.89-8.95,7.9-16.12"/>
            <path class="cls-4" d="m89.46,65.77c.57-2.07,1.05-9.58,1.07-16.75"/>
          </g>
          <g>
            <path class="cls-4" d="m103.92,65.05c-3.46-1.87-6.26-9.22-6.24-16.38,6.91-.88,9.77-3.08,6.38-4.91-.01,7.17,5.71,12.27,12.76,11.37,6.85,3.7,1.08,8.15-12.89,9.93Z"/>
            <path class="cls-4" d="m115,62.51c-6.54-1.16-11.85-7.93-11.84-15.1"/>
            <path class="cls-4" d="m119.63,58.95c-7.83-.16-14.19-6.13-14.18-13.3"/>
          </g>
          <g>
            <path class="cls-4" d="m85.41,42.04c.01-7.17-2.79-14.52-6.24-16.38-13.97,1.79-19.75,6.23-12.89,9.93,7.05-.9,12.77,4.2,12.76,11.36-3.39-1.83-.53-4.03,6.38-4.91Z"/>
            <path class="cls-4" d="m84.56,35.03c-7.88,1.01-11.13,3.51-7.27,5.6"/>
            <path class="cls-4" d="m82.32,29.14c-10.41,1.33-14.71,4.64-9.61,7.4"/>
          </g>
          <g>
            <path class="cls-4" d="m79.03,46.96c.01-7.17-5.71-12.27-12.76-11.36,6.85,3.7,23.73,5.25,37.71,3.46-3.46-1.87-6.28,2.45-6.29,9.61-6.91.88-15.26.12-18.65-1.71Z"/>
            <path class="cls-4" d="m77.29,40.62c3.86,2.09,13.38,2.96,21.26,1.95"/>
            <path class="cls-4" d="m72.71,36.55c5.11,2.76,17.68,3.91,28.1,2.58"/>
            <path class="cls-4" d="m83.83,48.41c.01-7.17-3.51-11.6-7.85-9.88"/>
            <path class="cls-4" d="m90.53,49.03c.01-7.17-.44-11.32-1.01-9.25"/>
          </g>
          <g>
            <path class="cls-4" d="m97.68,48.67c.01-7.17,2.84-11.48,6.29-9.61,13.97-1.79,19.75-6.23,12.89-9.93-7.05.9-12.8,7.47-12.81,14.63,3.39,1.83.53,4.03-6.38,4.91Z"/>
            <path class="cls-4" d="m98.55,42.58c7.88-1.01,11.13-3.51,7.27-5.6"/>
            <path class="cls-4" d="m100.81,39.13c10.41-1.33,14.71-4.64,9.61-7.4"/>
            <path class="cls-4" d="m103.16,47.41c.01-7.17,5.35-12.06,11.89-10.9"/>
            <path class="cls-4" d="m105.45,45.65c.01-7.17,6.4-12.86,14.23-12.7"/>
          </g>
        </g>
        <path class="cls-4" d="m73.26,36.82c.07.04.17.08.24.11.08.03.19.08.27.11.23.09.55.19.78.27.28.09.88.27,1.92.51,1.43.33,2.97.58,4.06.73.97.13,2.27.27,3.25.37.52.05,1.23.1,1.75.14.54.04,1.26.08,1.79.11.55.02,1.29.05,1.84.07.56.02,1.31.03,1.87.03.56,0,1.32,0,1.88,0,.56,0,1.32-.03,1.88-.04.56-.01,1.31-.05,1.87-.08.56-.03,1.31-.07,1.86-.12,1.06-.1,2.46-.23,3.51-.36.81-.1,1.9-.26,2.71-.41.69-.12,1.61-.32,2.29-.47.54-.12,1.25-.33,1.77-.49.22-.07.51-.18.72-.26.06-.02.14-.05.2-.07-.05.04-.12.08-.17.11-.1.07-.23.16-.33.24-.15.11-.33.27-.47.4-.29.27-.66.65-.91.96-.17.21-.39.49-.54.72-.13.19-.29.47-.42.67-.15.24-.31.58-.43.83-.13.25-.27.6-.36.87-.16.51-.35,1.2-.46,1.72-.06.29-.11.69-.13.99-.03.28-.03.65-.04.94.01-7.17,6.41-12.99,14.27-12.98,0,2.75-5.8,5.38-15.78,6.65-13.97,1.79-30.85.23-37.71-3.46-1.96-1.06-2.89-2.18-2.88-3.28,7.85.01,14.23,5.85,14.22,13.02,0-.31-.02-.71-.05-1.02-.03-.3-.07-.7-.14-1-.12-.52-.31-1.21-.47-1.72-.09-.27-.24-.62-.37-.88-.53-1.12-1.13-1.89-1.45-2.26-.26-.3-.63-.68-.93-.95-.13-.11-.3-.26-.43-.36-.15-.11-.36-.25-.52-.34Z"/>
      </g>
      <path class="cls-4" d="m73.26,36.82c.07.04.17.08.24.11.08.03.19.08.27.11.23.09.55.19.78.27.28.09.88.27,1.92.51,1.43.33,2.97.58,4.06.73.97.13,2.27.27,3.25.37.52.05,1.23.1,1.75.14.54.04,1.26.08,1.79.11.55.02,1.29.05,1.84.07.56.02,1.31.03,1.87.03.56,0,1.32,0,1.88,0,.56,0,1.32-.03,1.88-.04.56-.01,1.31-.05,1.87-.08.56-.03,1.31-.07,1.86-.12,1.06-.1,2.46-.23,3.51-.36.81-.1,1.9-.26,2.71-.41.69-.12,1.61-.32,2.29-.47.54-.12,1.25-.33,1.77-.49.22-.07.51-.18.72-.26.06-.02.14-.05.2-.07-.05.04-.12.08-.17.11-.1.07-.23.16-.33.24-.15.11-.33.27-.47.4-.29.27-.66.65-.91.96-.17.21-.39.49-.54.72-.13.19-.29.47-.42.67-.15.24-.31.58-.43.83-.13.25-.27.6-.36.87-.16.51-.35,1.2-.46,1.72-.06.29-.11.69-.13.99-.03.28-.03.65-.04.94.01-7.17,6.41-12.99,14.27-12.98,0,2.75-5.8,5.38-15.78,6.65-13.97,1.79-30.85.23-37.71-3.46-1.96-1.06-2.89-2.18-2.88-3.28,7.85.01,14.23,5.85,14.22,13.02,0-.31-.02-.71-.05-1.02-.03-.3-.07-.7-.14-1-.12-.52-.31-1.21-.47-1.72-.09-.27-.24-.62-.37-.88-.53-1.12-1.13-1.89-1.45-2.26-.26-.3-.63-.68-.93-.95-.13-.11-.3-.26-.43-.36-.15-.11-.36-.25-.52-.34Z"/>
    </g>
    <g class="cls-7">
      <g class="cls-8">
        <g class="cls-7">
          <g>
            <path class="cls-4" d="m116.82,55.12c-7.05.9-12.77-4.2-12.76-11.37-3.39-1.83-11.74-2.6-18.65-1.71-.01,7.17-2.84,11.48-6.29,9.61,13.97-1.79,30.85-.23,37.71,3.46Z"/>
            <path class="cls-4" d="m107.1,52.18c-4.34,1.72-7.86-2.71-7.85-9.88"/>
            <path class="cls-4" d="m93.58,50.94c-.57,2.07-1.03-2.08-1.01-9.25"/>
          </g>
          <g>
            <path class="cls-4" d="m79.11,51.66c3.46,1.87,6.28-2.45,6.29-9.61-6.91.88-9.77,3.08-6.38,4.91-.01,7.17-5.76,13.73-12.81,14.63-6.85-3.7-1.08-8.15,12.89-9.93Z"/>
            <path class="cls-4" d="m68.04,54.2c6.54,1.16,11.88-3.73,11.89-10.9"/>
            <path class="cls-4" d="m63.41,57.77c7.83.16,14.21-5.53,14.23-12.7"/>
          </g>
          <g>
            <path class="cls-4" d="m104.06,43.76c.01-7.17,5.76-13.73,12.81-14.63-6.85-3.7-23.73-5.25-37.71-3.46,3.46,1.87,6.26,9.22,6.24,16.38,6.91-.88,15.26-.12,18.65,1.71Z"/>
            <path class="cls-4" d="m105.82,36.98c-3.86-2.09-13.38-2.96-21.26-1.95"/>
            <path class="cls-4" d="m110.42,31.73c-5.11-2.76-17.68-3.91-28.1-2.58"/>
            <path class="cls-4" d="m99.25,42.3c.01-7.17,3.56-14.4,7.9-16.12"/>
            <path class="cls-4" d="m92.56,41.69c.01-7.17.49-14.68,1.07-16.75"/>
          </g>
          <g>
            <path class="cls-4" d="m85.41,42.04c.01-7.17-2.79-14.52-6.24-16.38-13.97,1.79-19.75,6.23-12.89,9.93,7.05-.9,12.77,4.2,12.76,11.36-3.39-1.83-.53-4.03,6.38-4.91Z"/>
            <path class="cls-4" d="m84.56,35.03c-7.88,1.01-11.13,3.51-7.27,5.6"/>
            <path class="cls-4" d="m82.32,29.14c-10.41,1.33-14.71,4.64-9.61,7.4"/>
            <path class="cls-4" d="m79.93,43.3c.01-7.17-5.3-13.94-11.84-15.1"/>
            <path class="cls-4" d="m77.64,45.07c.01-7.17-6.35-13.13-14.18-13.3"/>
          </g>
        </g>
        <path class="cls-4" d="m63.39,32.31c0-2.75,5.8-5.38,15.78-6.65,13.97-1.79,30.85-.23,37.71,3.46-7.05.9-12.8,7.47-12.81,14.63-3.39-1.83-11.74-2.6-18.65-1.71-4.94.63-7.8,1.93-7.81,3.29.01-7.17-6.36-13.01-14.22-13.02Z"/>
      </g>
      <path class="cls-4" d="m63.39,32.31c0-2.75,5.8-5.38,15.78-6.65,13.97-1.79,30.85-.23,37.71,3.46-7.05.9-12.8,7.47-12.81,14.63-3.39-1.83-11.74-2.6-18.65-1.71-4.94.63-7.8,1.93-7.81,3.29.01-7.17-6.36-13.01-14.22-13.02Z"/>
    </g>
    <g class="cls-7">
      <g class="cls-2">
        <g class="cls-7">
          <path class="cls-4" d="m103.92,65.05c-3.46-1.87-6.26-9.22-6.24-16.38,6.91-.88,9.77-3.08,6.38-4.91-.01,7.17,5.71,12.27,12.76,11.37,6.85,3.7,1.08,8.15-12.89,9.93Z"/>
          <g>
            <path class="cls-4" d="m97.68,48.67c.01-7.17,2.84-11.48,6.29-9.61,13.97-1.79,19.75-6.23,12.89-9.93-7.05.9-12.8,7.47-12.81,14.63,3.39,1.83.53,4.03-6.38,4.91Z"/>
            <path class="cls-4" d="m98.55,42.58c7.88-1.01,11.13-3.51,7.27-5.6"/>
            <path class="cls-4" d="m100.81,39.13c10.41-1.33,14.71-4.64,9.61-7.4"/>
          </g>
        </g>
        <path class="cls-4" d="m105.49,45.38c0-.54-.46-1.1-1.43-1.62.01-7.17,5.76-13.73,12.81-14.63,1.96,1.06,2.89,2.18,2.88,3.28-7.85-.01-14.25,5.81-14.27,12.98Z"/>
      </g>
      <path class="cls-4" d="m105.49,45.38c0-.54-.46-1.1-1.43-1.62.01-7.17,5.76-13.73,12.81-14.63,1.96,1.06,2.89,2.18,2.88,3.28-7.85-.01-14.25,5.81-14.27,12.98Z"/>
    </g>
    <g class="cls-7">
      <g class="cls-21">
        <g class="cls-7">
          <path class="cls-4" d="m79.16,25.66v-.09c-13.97,1.79-19.75,6.23-12.89,9.93v.09c-6.85-3.7-1.08-8.15,12.89-9.93Z"/>
          <g>
            <path class="cls-4" d="m66.27,35.59v-.09c6.85,3.7,23.73,5.25,37.71,3.46v.09c-13.97,1.79-30.85.23-37.71-3.46Z"/>
            <line class="cls-4" x1="75.98" y1="38.53" x2="75.98" y2="38.44"/>
            <line class="cls-4" x1="89.51" y1="39.77" x2="89.51" y2="39.68"/>
          </g>
          <g>
            <path class="cls-4" d="m103.97,39.06v-.09c13.97-1.79,19.75-6.23,12.89-9.93v.09c6.85,3.7,1.08,8.15-12.89,9.93Z"/>
            <line class="cls-4" x1="115.05" y1="36.51" x2="115.05" y2="36.42"/>
            <line class="cls-4" x1="119.68" y1="32.95" x2="119.68" y2="32.86"/>
          </g>
        </g>
        <path class="cls-4" d="m63.39,32.31v-.09c0,1.1.92,2.22,2.88,3.28,6.85,3.7,23.73,5.25,37.71,3.46,9.98-1.28,15.77-3.91,15.78-6.65v.09c0,2.75-5.8,5.38-15.78,6.65-13.97,1.79-30.85.23-37.71-3.46-1.96-1.06-2.89-2.18-2.88-3.28Z"/>
      </g>
      <path class="cls-4" d="m63.39,32.31v-.09c0,1.1.92,2.22,2.88,3.28,6.85,3.7,23.73,5.25,37.71,3.46,9.98-1.28,15.77-3.91,15.78-6.65v.09c0,2.75-5.8,5.38-15.78,6.65-13.97,1.79-30.85.23-37.71-3.46-1.96-1.06-2.89-2.18-2.88-3.28Z"/>
    </g>
    <g class="cls-7">
      <g class="cls-19">
        <g class="cls-7">
          <g>
            <path class="cls-4" d="m116.87,29.13v-.09c-6.85-3.7-23.73-5.25-37.71-3.46v.09c13.97-1.79,30.85-.23,37.71,3.46Z"/>
            <line class="cls-4" x1="107.15" y1="26.19" x2="107.15" y2="26.09"/>
            <line class="cls-4" x1="93.63" y1="24.94" x2="93.63" y2="24.85"/>
          </g>
          <g>
            <path class="cls-4" d="m79.16,25.66v-.09c-13.97,1.79-19.75,6.23-12.89,9.93v.09c-6.85-3.7-1.08-8.15,12.89-9.93Z"/>
            <line class="cls-4" x1="68.09" y1="28.21" x2="68.09" y2="28.12"/>
            <line class="cls-4" x1="63.46" y1="31.77" x2="63.46" y2="31.68"/>
          </g>
        </g>
        <path class="cls-4" d="m63.39,32.22c0-2.75,5.8-5.38,15.78-6.65,13.97-1.79,30.85-.23,37.71,3.46v.09c-6.85-3.7-23.73-5.25-37.71-3.46-9.98,1.28-15.77,3.91-15.78,6.65,0-.03,0-.06,0-.09Z"/>
      </g>
      <path class="cls-4" d="m63.39,32.22c0-2.75,5.8-5.38,15.78-6.65,13.97-1.79,30.85-.23,37.71,3.46v.09c-6.85-3.7-23.73-5.25-37.71-3.46-9.98,1.28-15.77,3.91-15.78,6.65,0-.03,0-.06,0-.09Z"/>
    </g>
    <g class="cls-7">
      <g class="cls-16">
        <g class="cls-7">
          <path class="cls-4" d="m103.97,39.06v-.09c13.97-1.79,19.75-6.23,12.89-9.93v.09c6.85,3.7,1.08,8.15-12.89,9.93Z"/>
        </g>
        <path class="cls-4" d="m119.75,32.4c0-1.1-.92-2.22-2.88-3.28v-.09c1.96,1.06,2.89,2.18,2.88,3.28,0,.03,0,.06,0,.09Z"/>
      </g>
      <path class="cls-4" d="m119.75,32.4c0-1.1-.92-2.22-2.88-3.28v-.09c1.96,1.06,2.89,2.18,2.88,3.28,0,.03,0,.06,0,.09Z"/>
    </g>
  </g>
  <g>
    <g>
      <path class="cls-3" d="m176.57,32.88c-14.18,9.69-50.72,15.48-85.37,15.48S20.17,42.57,6.27,32.88C-14.48,18.42,18.68.18,91.87.18s105.85,18.24,84.7,32.7Z"/>
      <path class="cls-3" d="m157.58,32.88c-8.91,7.82-37.74,12.78-66.34,12.78s-57.29-4.96-65.99-12.78c-11.84-10.65,15.88-22.61,66.48-22.61s77.99,11.96,65.85,22.61Z"/>
      <path class="cls-3" d="m138.6,32.88c-4.73,5.8-25.56,9.72-47.31,9.72s-42.47-3.92-47.04-9.72c-5.69-7.22,14.89-14.52,47.38-14.52s52.87,7.3,46.97,14.52Z"/>
      <path class="cls-3" d="m119.61,32.88c-1.78,3.61-14.35,6.22-28.27,6.22s-26.42-2.61-28.1-6.22c-1.91-4.11,10.64-7.89,28.3-7.89s30.11,3.78,28.08,7.89Z"/>
      <path class="cls-3" d="m100.62,32.88c-.21,1.23-4.34,2.19-9.23,2.19s-9-.96-9.17-2.19c-.18-1.28,3.95-2.36,9.23-2.36s9.39,1.08,9.17,2.36Z"/>
    </g>
    <line class="cls-3" x1="8.92" y1="13" x2="138" y2="44.74"/>
    <line class="cls-3" x1="4.63" y1="32.88" x2="174.92" y2="32.88"/>
    <line class="cls-3" x1="41.88" y1="44.74" x2="170.07" y2="13"/>
    <line class="cls-3" x1="89.99" y1="48.36" x2="89.31" y2=".18"/>
  </g>
</svg>