<?xml version="1.0" encoding="UTF-8"?>
<svg id="Layer_1" data-name="Layer 1" xmlns="http://www.w3.org/2000/svg" viewBox="0 0 179.25 384.48">
  <defs>
    <style>
      .cls-1 {
        fill: none;
        stroke: #21f2f1;
        stroke-miterlimit: 10;
        stroke-width: .72px;
      }
    </style>
  </defs>
  <g>
    <polygon class="cls-1" points="178.15 1.65 117.97 129.79 60.74 129.79 .57 1.65 178.15 1.65"/>
    <line class="cls-1" x1="36.08" y1="1.65" x2="72.19" y2="129.79"/>
    <line class="cls-1" x1="71.6" y1="1.65" x2="83.63" y2="129.79"/>
    <line class="cls-1" x1="107.11" y1="1.65" x2="95.08" y2="129.79"/>
    <line class="cls-1" x1="142.63" y1="1.65" x2="106.53" y2="129.79"/>
    <line class="cls-1" x1="119.33" y1="126.9" x2="59.38" y2="126.9"/>
    <line class="cls-1" x1="120.82" y1="123.73" x2="57.9" y2="123.73"/>
    <line class="cls-1" x1="122.46" y1="120.23" x2="56.25" y2="120.23"/>
    <line class="cls-1" x1="124.29" y1="116.34" x2="54.43" y2="116.34"/>
    <line class="cls-1" x1="126.33" y1="112" x2="52.39" y2="112"/>
    <line class="cls-1" x1="128.62" y1="107.12" x2="50.1" y2="107.12"/>
    <line class="cls-1" x1="131.21" y1="101.6" x2="47.5" y2="101.6"/>
    <line class="cls-1" x1="134.17" y1="95.29" x2="44.54" y2="95.29"/>
    <line class="cls-1" x1="137.59" y1="88.02" x2="41.13" y2="88.02"/>
    <line class="cls-1" x1="141.56" y1="79.56" x2="37.15" y2="79.56"/>
    <line class="cls-1" x1="146.25" y1="69.58" x2="32.46" y2="69.58"/>
    <line class="cls-1" x1="151.86" y1="57.62" x2="26.85" y2="57.62"/>
    <line class="cls-1" x1="158.7" y1="43.05" x2="20.01" y2="43.05"/>
    <line class="cls-1" x1="167.23" y1="24.89" x2="11.48" y2="24.89"/>
  </g>
  <g>
    <polygon class="cls-1" points="178.69 382.84 118.51 254.69 61.28 254.69 1.11 382.84 178.69 382.84"/>
    <line class="cls-1" x1="36.62" y1="382.84" x2="72.72" y2="254.69"/>
    <line class="cls-1" x1="72.14" y1="382.84" x2="84.17" y2="254.69"/>
    <line class="cls-1" x1="107.65" y1="382.84" x2="95.62" y2="254.69"/>
    <line class="cls-1" x1="143.17" y1="382.84" x2="107.07" y2="254.69"/>
    <line class="cls-1" x1="119.87" y1="257.58" x2="59.92" y2="257.58"/>
    <line class="cls-1" x1="121.36" y1="260.75" x2="58.43" y2="260.75"/>
    <line class="cls-1" x1="123" y1="264.25" x2="56.79" y2="264.25"/>
    <line class="cls-1" x1="124.83" y1="268.14" x2="54.96" y2="268.14"/>
    <line class="cls-1" x1="126.87" y1="272.48" x2="52.93" y2="272.48"/>
    <line class="cls-1" x1="129.16" y1="277.36" x2="50.63" y2="277.36"/>
    <line class="cls-1" x1="131.75" y1="282.88" x2="48.04" y2="282.88"/>
    <line class="cls-1" x1="134.71" y1="289.19" x2="45.08" y2="289.19"/>
    <line class="cls-1" x1="138.12" y1="296.46" x2="41.67" y2="296.46"/>
    <line class="cls-1" x1="142.1" y1="304.92" x2="37.69" y2="304.92"/>
    <line class="cls-1" x1="146.79" y1="314.91" x2="33" y2="314.91"/>
    <line class="cls-1" x1="152.4" y1="326.86" x2="27.39" y2="326.86"/>
    <line class="cls-1" x1="159.24" y1="341.43" x2="20.55" y2="341.43"/>
    <line class="cls-1" x1="167.77" y1="359.59" x2="12.02" y2="359.59"/>
  </g>
  <g>
    <polygon class="cls-1" points="178.24 382.83 119.33 254.69 119.33 129.79 178.24 1.65 178.24 382.83"/>
    <line class="cls-1" x1="178.24" y1="77.88" x2="119.33" y2="154.77"/>
    <line class="cls-1" x1="178.24" y1="154.12" x2="119.33" y2="179.75"/>
    <line class="cls-1" x1="178.24" y1="230.36" x2="119.33" y2="204.73"/>
    <line class="cls-1" x1="178.24" y1="306.6" x2="119.33" y2="229.71"/>
    <line class="cls-1" x1="120.23" y1="256.66" x2="120.23" y2="127.82"/>
    <line class="cls-1" x1="121.2" y1="258.76" x2="121.2" y2="125.72"/>
    <line class="cls-1" x1="122.23" y1="261" x2="122.23" y2="123.48"/>
    <line class="cls-1" x1="123.33" y1="263.39" x2="123.33" y2="121.09"/>
    <line class="cls-1" x1="124.51" y1="265.96" x2="124.51" y2="118.52"/>
    <line class="cls-1" x1="125.78" y1="268.72" x2="125.78" y2="115.76"/>
    <line class="cls-1" x1="127.14" y1="271.69" x2="127.14" y2="112.79"/>
    <line class="cls-1" x1="128.62" y1="274.9" x2="128.62" y2="109.58"/>
    <line class="cls-1" x1="130.22" y1="278.39" x2="130.22" y2="106.09"/>
    <line class="cls-1" x1="131.96" y1="282.18" x2="131.96" y2="102.3"/>
    <line class="cls-1" x1="133.87" y1="286.32" x2="133.87" y2="98.16"/>
    <line class="cls-1" x1="135.95" y1="290.86" x2="135.95" y2="93.62"/>
    <line class="cls-1" x1="138.25" y1="295.86" x2="138.25" y2="88.62"/>
    <line class="cls-1" x1="140.8" y1="301.39" x2="140.8" y2="83.09"/>
    <line class="cls-1" x1="143.63" y1="307.55" x2="143.63" y2="76.93"/>
    <line class="cls-1" x1="146.8" y1="314.45" x2="146.8" y2="70.03"/>
    <line class="cls-1" x1="150.37" y1="322.22" x2="150.37" y2="62.26"/>
    <line class="cls-1" x1="154.43" y1="331.05" x2="154.43" y2="53.43"/>
    <line class="cls-1" x1="159.08" y1="341.17" x2="159.08" y2="43.31"/>
    <line class="cls-1" x1="164.46" y1="352.87" x2="164.46" y2="31.61"/>
    <line class="cls-1" x1="170.76" y1="366.58" x2="170.76" y2="17.9"/>
  </g>
  <g>
    <polygon class="cls-1" points="1.68 382.83 60.58 254.69 60.58 129.79 1.67 1.65 1.68 382.83"/>
    <line class="cls-1" x1="1.67" y1="77.88" x2="60.58" y2="154.77"/>
    <line class="cls-1" x1="1.67" y1="154.12" x2="60.58" y2="179.75"/>
    <line class="cls-1" x1="1.68" y1="230.36" x2="60.58" y2="204.73"/>
    <line class="cls-1" x1="1.68" y1="306.6" x2="60.58" y2="229.71"/>
    <line class="cls-1" x1="59.68" y1="256.66" x2="59.68" y2="127.82"/>
    <line class="cls-1" x1="58.71" y1="258.76" x2="58.71" y2="125.72"/>
    <line class="cls-1" x1="57.68" y1="261" x2="57.68" y2="123.48"/>
    <line class="cls-1" x1="56.58" y1="263.39" x2="56.58" y2="121.09"/>
    <line class="cls-1" x1="55.4" y1="265.96" x2="55.4" y2="118.52"/>
    <line class="cls-1" x1="54.14" y1="268.72" x2="54.14" y2="115.76"/>
    <line class="cls-1" x1="52.77" y1="271.69" x2="52.77" y2="112.79"/>
    <line class="cls-1" x1="51.29" y1="274.9" x2="51.29" y2="109.58"/>
    <line class="cls-1" x1="49.69" y1="278.39" x2="49.69" y2="106.09"/>
    <line class="cls-1" x1="47.95" y1="282.18" x2="47.95" y2="102.3"/>
    <line class="cls-1" x1="46.04" y1="286.32" x2="46.04" y2="98.16"/>
    <line class="cls-1" x1="43.96" y1="290.86" x2="43.96" y2="93.62"/>
    <line class="cls-1" x1="41.66" y1="295.86" x2="41.66" y2="88.62"/>
    <line class="cls-1" x1="39.11" y1="301.39" x2="39.11" y2="83.09"/>
    <line class="cls-1" x1="36.28" y1="307.55" x2="36.28" y2="76.93"/>
    <line class="cls-1" x1="33.11" y1="314.45" x2="33.11" y2="70.03"/>
    <line class="cls-1" x1="29.54" y1="322.22" x2="29.54" y2="62.26"/>
    <line class="cls-1" x1="25.48" y1="331.05" x2="25.48" y2="53.43"/>
    <line class="cls-1" x1="20.83" y1="341.17" x2="20.83" y2="43.31"/>
    <line class="cls-1" x1="15.45" y1="352.87" x2="15.45" y2="31.61"/>
    <line class="cls-1" x1="9.15" y1="366.58" x2="9.15" y2="17.9"/>
  </g>
</svg>