<?xml version="1.0" encoding="UTF-8"?>
<svg id="Layer_1" data-name="Layer 1" xmlns="http://www.w3.org/2000/svg" viewBox="0 0 384.48 179.25">
  <defs>
    <style>
      .cls-1 {
        fill: none;
        stroke: #21f2f1;
        stroke-miterlimit: 10;
        stroke-width: .72px;
      }
    </style>
  </defs>
  <g>
    <polygon class="cls-1" points="1.65 1.11 129.79 61.28 129.79 118.51 1.65 178.69 1.65 1.11"/>
    <line class="cls-1" x1="1.65" y1="143.17" x2="129.79" y2="107.07"/>
    <line class="cls-1" x1="1.65" y1="107.65" x2="129.79" y2="95.62"/>
    <line class="cls-1" x1="1.65" y1="72.14" x2="129.79" y2="84.17"/>
    <line class="cls-1" x1="1.65" y1="36.62" x2="129.79" y2="72.72"/>
    <line class="cls-1" x1="126.9" y1="59.92" x2="126.9" y2="119.87"/>
    <line class="cls-1" x1="123.73" y1="58.43" x2="123.73" y2="121.36"/>
    <line class="cls-1" x1="120.23" y1="56.79" x2="120.23" y2="123"/>
    <line class="cls-1" x1="116.34" y1="54.96" x2="116.34" y2="124.83"/>
    <line class="cls-1" x1="112" y1="52.93" x2="112" y2="126.87"/>
    <line class="cls-1" x1="107.12" y1="50.63" x2="107.12" y2="129.16"/>
    <line class="cls-1" x1="101.6" y1="48.04" x2="101.6" y2="131.75"/>
    <line class="cls-1" x1="95.29" y1="45.08" x2="95.29" y2="134.71"/>
    <line class="cls-1" x1="88.02" y1="41.67" x2="88.02" y2="138.12"/>
    <line class="cls-1" x1="79.56" y1="37.69" x2="79.56" y2="142.1"/>
    <line class="cls-1" x1="69.58" y1="33" x2="69.58" y2="146.79"/>
    <line class="cls-1" x1="57.62" y1="27.39" x2="57.62" y2="152.4"/>
    <line class="cls-1" x1="43.05" y1="20.55" x2="43.05" y2="159.24"/>
    <line class="cls-1" x1="24.89" y1="12.02" x2="24.89" y2="167.77"/>
  </g>
  <g>
    <polygon class="cls-1" points="382.84 .57 254.69 60.74 254.69 117.97 382.84 178.15 382.84 .57"/>
    <line class="cls-1" x1="382.84" y1="142.63" x2="254.69" y2="106.53"/>
    <line class="cls-1" x1="382.84" y1="107.11" x2="254.69" y2="95.08"/>
    <line class="cls-1" x1="382.84" y1="71.6" x2="254.69" y2="83.63"/>
    <line class="cls-1" x1="382.84" y1="36.08" x2="254.69" y2="72.19"/>
    <line class="cls-1" x1="257.58" y1="59.38" x2="257.58" y2="119.33"/>
    <line class="cls-1" x1="260.75" y1="57.9" x2="260.75" y2="120.82"/>
    <line class="cls-1" x1="264.25" y1="56.25" x2="264.25" y2="122.46"/>
    <line class="cls-1" x1="268.14" y1="54.43" x2="268.14" y2="124.29"/>
    <line class="cls-1" x1="272.48" y1="52.39" x2="272.48" y2="126.33"/>
    <line class="cls-1" x1="277.36" y1="50.1" x2="277.36" y2="128.62"/>
    <line class="cls-1" x1="282.88" y1="47.5" x2="282.88" y2="131.21"/>
    <line class="cls-1" x1="289.19" y1="44.54" x2="289.19" y2="134.17"/>
    <line class="cls-1" x1="296.46" y1="41.13" x2="296.46" y2="137.59"/>
    <line class="cls-1" x1="304.92" y1="37.15" x2="304.92" y2="141.56"/>
    <line class="cls-1" x1="314.91" y1="32.46" x2="314.91" y2="146.25"/>
    <line class="cls-1" x1="326.86" y1="26.85" x2="326.86" y2="151.86"/>
    <line class="cls-1" x1="341.43" y1="20.01" x2="341.43" y2="158.7"/>
    <line class="cls-1" x1="359.59" y1="11.48" x2="359.59" y2="167.23"/>
  </g>
  <g>
    <polygon class="cls-1" points="382.83 1.02 254.69 59.92 129.79 59.92 1.65 1.02 382.83 1.02"/>
    <line class="cls-1" x1="77.88" y1="1.02" x2="154.77" y2="59.92"/>
    <line class="cls-1" x1="154.12" y1="1.02" x2="179.75" y2="59.92"/>
    <line class="cls-1" x1="230.36" y1="1.02" x2="204.73" y2="59.92"/>
    <line class="cls-1" x1="306.6" y1="1.02" x2="229.71" y2="59.92"/>
    <line class="cls-1" x1="256.66" y1="59.02" x2="127.82" y2="59.02"/>
    <line class="cls-1" x1="258.76" y1="58.05" x2="125.72" y2="58.05"/>
    <line class="cls-1" x1="261" y1="57.03" x2="123.48" y2="57.03"/>
    <line class="cls-1" x1="263.39" y1="55.93" x2="121.09" y2="55.93"/>
    <line class="cls-1" x1="265.96" y1="54.75" x2="118.52" y2="54.75"/>
    <line class="cls-1" x1="268.72" y1="53.48" x2="115.76" y2="53.48"/>
    <line class="cls-1" x1="271.69" y1="52.11" x2="112.79" y2="52.11"/>
    <line class="cls-1" x1="274.9" y1="50.63" x2="109.58" y2="50.63"/>
    <line class="cls-1" x1="278.39" y1="49.03" x2="106.09" y2="49.03"/>
    <line class="cls-1" x1="282.18" y1="47.29" x2="102.3" y2="47.29"/>
    <line class="cls-1" x1="286.32" y1="45.38" x2="98.16" y2="45.38"/>
    <line class="cls-1" x1="290.86" y1="43.3" x2="93.62" y2="43.3"/>
    <line class="cls-1" x1="295.86" y1="41" x2="88.62" y2="41"/>
    <line class="cls-1" x1="301.39" y1="38.46" x2="83.09" y2="38.46"/>
    <line class="cls-1" x1="307.55" y1="35.62" x2="76.93" y2="35.62"/>
    <line class="cls-1" x1="314.45" y1="32.45" x2="70.03" y2="32.45"/>
    <line class="cls-1" x1="322.22" y1="28.88" x2="62.26" y2="28.88"/>
    <line class="cls-1" x1="331.05" y1="24.82" x2="53.43" y2="24.82"/>
    <line class="cls-1" x1="341.17" y1="20.17" x2="43.31" y2="20.17"/>
    <line class="cls-1" x1="352.87" y1="14.79" x2="31.61" y2="14.79"/>
    <line class="cls-1" x1="366.58" y1="8.49" x2="17.9" y2="8.49"/>
  </g>
  <g>
    <polygon class="cls-1" points="382.83 177.58 254.69 118.67 129.79 118.67 1.65 177.58 382.83 177.58"/>
    <line class="cls-1" x1="77.88" y1="177.58" x2="154.77" y2="118.67"/>
    <line class="cls-1" x1="154.12" y1="177.58" x2="179.75" y2="118.67"/>
    <line class="cls-1" x1="230.36" y1="177.58" x2="204.73" y2="118.67"/>
    <line class="cls-1" x1="306.6" y1="177.58" x2="229.71" y2="118.67"/>
    <line class="cls-1" x1="256.66" y1="119.58" x2="127.82" y2="119.58"/>
    <line class="cls-1" x1="258.76" y1="120.54" x2="125.72" y2="120.54"/>
    <line class="cls-1" x1="261" y1="121.57" x2="123.48" y2="121.57"/>
    <line class="cls-1" x1="263.39" y1="122.67" x2="121.09" y2="122.67"/>
    <line class="cls-1" x1="265.96" y1="123.85" x2="118.52" y2="123.85"/>
    <line class="cls-1" x1="268.72" y1="125.12" x2="115.76" y2="125.12"/>
    <line class="cls-1" x1="271.69" y1="126.48" x2="112.79" y2="126.48"/>
    <line class="cls-1" x1="274.9" y1="127.96" x2="109.58" y2="127.96"/>
    <line class="cls-1" x1="278.39" y1="129.56" x2="106.09" y2="129.56"/>
    <line class="cls-1" x1="282.18" y1="131.31" x2="102.3" y2="131.31"/>
    <line class="cls-1" x1="286.32" y1="133.21" x2="98.16" y2="133.21"/>
    <line class="cls-1" x1="290.86" y1="135.3" x2="93.62" y2="135.3"/>
    <line class="cls-1" x1="295.86" y1="137.59" x2="88.62" y2="137.59"/>
    <line class="cls-1" x1="301.39" y1="140.14" x2="83.09" y2="140.14"/>
    <line class="cls-1" x1="307.55" y1="142.97" x2="76.93" y2="142.97"/>
    <line class="cls-1" x1="314.45" y1="146.14" x2="70.03" y2="146.14"/>
    <line class="cls-1" x1="322.22" y1="149.71" x2="62.26" y2="149.71"/>
    <line class="cls-1" x1="331.05" y1="153.77" x2="53.43" y2="153.77"/>
    <line class="cls-1" x1="341.17" y1="158.42" x2="43.31" y2="158.42"/>
    <line class="cls-1" x1="352.87" y1="163.8" x2="31.61" y2="163.8"/>
    <line class="cls-1" x1="366.58" y1="170.1" x2="17.9" y2="170.1"/>
  </g>
</svg>