<?xml version="1.0" encoding="UTF-8"?>
<svg id="Layer_1" data-name="Layer 1" xmlns="http://www.w3.org/2000/svg" viewBox="0 0 261.51 331.86">
  <defs>
    <style>
      .cls-1 {
        fill: #fff;
      }
    </style>
  </defs>
  <path class="cls-1" d="m261.51,264.37c0,37.27-30.21,67.48-67.48,67.48s-67.48-30.21-67.48-67.48c0-13.75,4.11-26.53,11.17-37.2l-50.72-43.31c-9.23,8.06-21.3,12.95-34.51,12.95-28.98,0-52.48-23.5-52.48-52.48s23.5-52.48,52.48-52.48c13.17,0,25.2,4.85,34.42,12.86l51.69-44.83c-3.28-5.82-5.15-12.54-5.15-19.7,0-22.2,17.99-40.19,40.19-40.19s40.19,17.99,40.19,40.19-17.99,40.19-40.19,40.19c-9.4,0-18.04-3.23-24.89-8.63l-51.71,44.85c5.02,8.05,7.93,17.55,7.93,27.74s-2.88,19.61-7.86,27.63l50.68,43.27c12.08-11.38,28.35-18.35,46.25-18.35,37.27,0,67.48,30.21,67.48,67.48Z"/>
</svg>