<?xml version="1.0" encoding="UTF-8"?>
<svg xmlns="http://www.w3.org/2000/svg" viewBox="0 0 276.28 339.32">
  <defs>
    <style>
      .cls-1 {
        fill: #fff;
      }
    </style>
  </defs>
  <!-- <g id="Layer_1" data-name="Layer 1">
    <path class="cls-1" d="m276.28,264.37c0,37.27-30.21,67.48-67.48,67.48s-67.48-30.21-67.48-67.48c0-13.75,4.11-26.53,11.17-37.2l-50.72-43.31c-9.23,8.06-21.3,12.95-34.51,12.95-28.98,0-52.48-23.5-52.48-52.48s23.5-52.48,52.48-52.48c13.17,0,25.2,4.85,34.42,12.86l51.69-44.83c-3.28-5.82-5.15-12.54-5.15-19.7,0-22.2,17.99-40.19,40.19-40.19s40.19,17.99,40.19,40.19-17.99,40.19-40.19,40.19c-9.4,0-18.04-3.23-24.89-8.63l-51.71,44.85c5.02,8.05,7.93,17.55,7.93,27.74s-2.88,19.61-7.86,27.63l50.68,43.27c12.08-11.38,28.35-18.35,46.25-18.35,37.27,0,67.48,30.21,67.48,67.48Z"/>
  </g> -->
  <g id="Layer_2" data-name="Layer 2">
    <path class="cls-1" d="m195.8,203.12c-18.07,0-34.49,7.04-46.68,18.52l-51.14-43.66c5.03-8.1,7.93-17.65,7.93-27.88s-2.93-19.87-8-27.99l52.18-45.26c6.91,5.45,15.63,8.71,25.12,8.71,22.4,0,40.56-18.16,40.56-40.56S197.61,4.43,175.21,4.43s-40.56,18.16-40.56,40.56c0,7.22,1.89,14,5.2,19.88l-52.16,45.24c-9.3-8.08-21.44-12.98-34.73-12.98C23.71,97.13,0,120.84,0,150.09s23.71,52.96,52.96,52.96c13.34,0,25.52-4.93,34.83-13.07l51.19,43.7c-7.12,10.76-11.28,23.66-11.28,37.54,0,37.61,30.49,68.1,68.1,68.1s68.1-30.49,68.1-68.1-30.49-68.1-68.1-68.1Zm-20.61-183.16c13.82,0,25.02,11.2,25.02,25.02s-11.2,25.02-25.02,25.02-25.02-11.2-25.02-25.02,11.2-25.02,25.02-25.02ZM53,187.56c-20.56,0-37.22-16.66-37.22-37.22s16.66-37.22,37.22-37.22,37.22,16.66,37.22,37.22-16.66,37.22-37.22,37.22Zm142.72,136.34c-29.09,0-52.67-23.58-52.67-52.67s23.58-52.67,52.67-52.67,52.67,23.58,52.67,52.67-23.58,52.67-52.67,52.67Z"/>
  </g>
</svg>