<?xml version="1.0" encoding="UTF-8"?>
<svg id="Layer_1" data-name="Layer 1" xmlns="http://www.w3.org/2000/svg" viewBox="0 0 34.72 809.16">
  <defs>
    <style>
      .cls-1 {
        fill: none;
        stroke: #fff;
        stroke-miterlimit: 10;
      }
    </style>
  </defs>
  <g>
    <line class="cls-1" x1="0" y1=".5" x2="34.72" y2=".5"/>
    <line class="cls-1" x1="0" y1="3.75" x2="34.72" y2="3.75"/>
  </g>
  <g>
    <line class="cls-1" x1="28.21" y1="34.04" x2="34.72" y2="34.04"/>
    <line class="cls-1" x1="28.21" y1="37.29" x2="34.72" y2="37.29"/>
  </g>
  <g>
    <line class="cls-1" x1="28.21" y1="67.58" x2="34.72" y2="67.58"/>
    <line class="cls-1" x1="28.21" y1="70.82" x2="34.72" y2="70.82"/>
  </g>
  <g>
    <line class="cls-1" x1="28.21" y1="101.11" x2="34.72" y2="101.11"/>
    <line class="cls-1" x1="28.21" y1="104.36" x2="34.72" y2="104.36"/>
  </g>
  <g>
    <line class="cls-1" x1="28.21" y1="134.65" x2="34.72" y2="134.65"/>
    <line class="cls-1" x1="28.21" y1="137.9" x2="34.72" y2="137.9"/>
  </g>
  <g>
    <line class="cls-1" x1="0" y1="168.19" x2="34.72" y2="168.19"/>
    <line class="cls-1" x1="0" y1="171.44" x2="34.72" y2="171.44"/>
  </g>
  <g>
    <line class="cls-1" x1="28.21" y1="201.73" x2="34.72" y2="201.73"/>
    <line class="cls-1" x1="28.21" y1="204.98" x2="34.72" y2="204.98"/>
  </g>
  <g>
    <line class="cls-1" x1="28.21" y1="235.27" x2="34.72" y2="235.27"/>
    <line class="cls-1" x1="28.21" y1="238.51" x2="34.72" y2="238.51"/>
  </g>
  <g>
    <line class="cls-1" x1="28.21" y1="268.8" x2="34.72" y2="268.8"/>
    <line class="cls-1" x1="28.21" y1="272.05" x2="34.72" y2="272.05"/>
  </g>
  <g>
    <line class="cls-1" x1="28.21" y1="302.34" x2="34.72" y2="302.34"/>
    <line class="cls-1" x1="28.21" y1="305.59" x2="34.72" y2="305.59"/>
  </g>
  <g>
    <line class="cls-1" x1="0" y1="335.88" x2="34.72" y2="335.88"/>
    <line class="cls-1" x1="0" y1="339.13" x2="34.72" y2="339.13"/>
  </g>
  <g>
    <line class="cls-1" x1="28.21" y1="369.42" x2="34.72" y2="369.42"/>
    <line class="cls-1" x1="28.21" y1="372.67" x2="34.72" y2="372.67"/>
  </g>
  <g>
    <line class="cls-1" x1="28.21" y1="402.96" x2="34.72" y2="402.96"/>
    <line class="cls-1" x1="28.21" y1="406.2" x2="34.72" y2="406.2"/>
  </g>
  <g>
    <line class="cls-1" x1="28.21" y1="436.49" x2="34.72" y2="436.49"/>
    <line class="cls-1" x1="28.21" y1="439.74" x2="34.72" y2="439.74"/>
  </g>
  <g>
    <line class="cls-1" x1="28.21" y1="470.03" x2="34.72" y2="470.03"/>
    <line class="cls-1" x1="28.21" y1="473.28" x2="34.72" y2="473.28"/>
  </g>
  <g>
    <line class="cls-1" x1="0" y1="503.57" x2="34.72" y2="503.57"/>
    <line class="cls-1" x1="0" y1="506.82" x2="34.72" y2="506.82"/>
  </g>
  <g>
    <line class="cls-1" x1="28.21" y1="537.11" x2="34.72" y2="537.11"/>
    <line class="cls-1" x1="28.21" y1="540.36" x2="34.72" y2="540.36"/>
  </g>
  <g>
    <line class="cls-1" x1="28.21" y1="570.65" x2="34.72" y2="570.65"/>
    <line class="cls-1" x1="28.21" y1="573.89" x2="34.72" y2="573.89"/>
  </g>
  <g>
    <line class="cls-1" x1="28.21" y1="604.19" x2="34.72" y2="604.19"/>
    <line class="cls-1" x1="28.21" y1="607.43" x2="34.72" y2="607.43"/>
  </g>
  <g>
    <line class="cls-1" x1="28.21" y1="637.72" x2="34.72" y2="637.72"/>
    <line class="cls-1" x1="28.21" y1="640.97" x2="34.72" y2="640.97"/>
  </g>
  <g>
    <line class="cls-1" x1="0" y1="671.26" x2="34.72" y2="671.26"/>
    <line class="cls-1" x1="0" y1="674.51" x2="34.72" y2="674.51"/>
  </g>
  <g>
    <line class="cls-1" x1="28.21" y1="704.8" x2="34.72" y2="704.8"/>
    <line class="cls-1" x1="28.21" y1="708.05" x2="34.72" y2="708.05"/>
  </g>
  <g>
    <line class="cls-1" x1="28.21" y1="738.34" x2="34.72" y2="738.34"/>
    <line class="cls-1" x1="28.21" y1="741.58" x2="34.72" y2="741.58"/>
  </g>
  <g>
    <line class="cls-1" x1="28.21" y1="771.88" x2="34.72" y2="771.88"/>
    <line class="cls-1" x1="28.21" y1="775.12" x2="34.72" y2="775.12"/>
  </g>
  <g>
    <line class="cls-1" x1="28.21" y1="805.41" x2="34.72" y2="805.41"/>
    <line class="cls-1" x1="28.21" y1="808.66" x2="34.72" y2="808.66"/>
  </g>
</svg>