<?xml version="1.0" encoding="UTF-8"?>
<svg id="Layer_1" data-name="Layer 1" xmlns="http://www.w3.org/2000/svg" viewBox="0 0 822.25 191.49">
  <defs>
    <style>
      .cls-1 {
        stroke-width: .36px;
      }

      .cls-1, .cls-2 {
        fill: none;
        stroke: #fff;
        stroke-miterlimit: 10;
      }

      .cls-2 {
        stroke-width: .48px;
      }
    </style>
  </defs>
  <path class="cls-2" d="m817.73,171.67c-1.15-11.34-3.3-22.38-6.35-33.04-3.15-10.98-7.26-21.57-12.23-31.65-5.09-10.32-11.09-20.11-17.9-29.27-6.94-9.35-14.73-18.04-23.22-25.97h0c-8.68-8.09-18.11-15.37-28.19-21.74-10.32-6.53-21.29-12.08-32.82-16.54-11.92-4.63-24.42-8.09-37.37-10.25h-.01c-10.25-1.7-20.78-2.59-31.52-2.59H.24c0,4.57.16,9.09.47,13.58.82,11.6,2.67,22.91,5.47,33.83,2.89,11.32,6.81,22.23,11.63,32.63,4.96,10.71,10.88,20.89,17.67,30.41,6.97,9.79,14.84,18.89,23.49,27.18,8.91,8.54,18.64,16.22,29.07,22.92,10.85,6.96,22.44,12.85,34.65,17.53h.01c13,4.98,26.69,8.58,40.88,10.62h.01c8.91,1.27,18.01,1.94,27.28,1.94h627.87c0-6.61-.33-13.14-1-19.58Zm-626.87-42.96c-3.96,0-7.89-.18-11.76-.53-19.56-1.79-37.86-7.99-53.89-17.6-10.98-6.59-20.91-14.77-29.44-24.23-6.37-7.07-11.98-14.85-16.67-23.2h549c11.49,0,22.63,1.52,33.23,4.38,13.57,3.64,26.24,9.46,37.65,17.07,9.61,6.4,18.31,14.08,25.86,22.77,5.7,6.57,10.74,13.72,15.03,21.34H190.86Z"/>
  <g>
    <line class="cls-2" x1="406.93" y1="191.25" x2="406.93" y2="128.71"/>
    <line class="cls-2" x1="406.93" y1="63.16" x2="406.93" y2=".62"/>
    <line class="cls-2" x1="405.38" y1="128.71" x2="400.48" y2="191.25"/>
    <line class="cls-2" x1="415.43" y1=".62" x2="410.53" y2="63.16"/>
    <line class="cls-2" x1="403.83" y1="128.71" x2="393.96" y2="191.25"/>
    <line class="cls-2" x1="424.04" y1=".62" x2="414.18" y2="63.16"/>
    <line class="cls-2" x1="402.23" y1="128.71" x2="387.27" y2="191.25"/>
    <line class="cls-2" x1="432.88" y1=".62" x2="417.92" y2="63.16"/>
    <line class="cls-2" x1="400.57" y1="128.71" x2="380.33" y2="191.25"/>
    <line class="cls-2" x1="442.04" y1=".62" x2="421.79" y2="63.16"/>
    <line class="cls-2" x1="398.83" y1="128.71" x2="373.03" y2="191.25"/>
    <line class="cls-2" x1="451.69" y1=".62" x2="425.89" y2="63.16"/>
    <line class="cls-2" x1="396.96" y1="128.71" x2="365.22" y2="191.25"/>
    <line class="cls-2" x1="461.97" y1=".62" x2="430.24" y2="63.16"/>
    <line class="cls-2" x1="394.95" y1="128.71" x2="356.78" y2="191.25"/>
    <line class="cls-2" x1="473.11" y1=".62" x2="434.95" y2="63.16"/>
    <line class="cls-2" x1="392.74" y1="128.71" x2="347.5" y2="191.25"/>
    <line class="cls-2" x1="485.38" y1=".62" x2="440.14" y2="63.16"/>
    <line class="cls-2" x1="390.24" y1="128.71" x2="337.09" y2="191.25"/>
    <line class="cls-2" x1="499.1" y1=".62" x2="445.95" y2="63.16"/>
    <line class="cls-2" x1="387.39" y1="128.71" x2="325.2" y2="191.25"/>
    <line class="cls-2" x1="514.81" y1=".62" x2="452.61" y2="63.16"/>
    <line class="cls-2" x1="384.08" y1="128.71" x2="311.3" y2="191.25"/>
    <line class="cls-2" x1="533.16" y1=".62" x2="460.38" y2="63.16"/>
    <line class="cls-2" x1="380.09" y1="128.71" x2="294.59" y2="191.25"/>
    <line class="cls-2" x1="555.2" y1=".62" x2="469.71" y2="63.16"/>
    <line class="cls-2" x1="375.13" y1="128.71" x2="273.88" y2="191.25"/>
    <line class="cls-2" x1="582.54" y1=".62" x2="481.28" y2="63.16"/>
    <line class="cls-2" x1="368.73" y1="128.71" x2="247.14" y2="191.25"/>
    <line class="cls-2" x1="617.84" y1=".62" x2="496.24" y2="63.16"/>
    <line class="cls-2" x1="360.05" y1="128.71" x2="210.79" y2="191.25"/>
    <polyline class="cls-2" points="516.55 63.16 659.62 3.21 659.63 3.21"/>
    <polyline class="cls-2" points="163.57 189.31 163.58 189.31 347.37 128.71"/>
    <line class="cls-2" x1="697" y1="13.46" x2="546.25" y2="63.16"/>
    <polyline class="cls-2" points="122.68 178.69 122.69 178.69 326.75 128.71"/>
    <line class="cls-2" x1="729.82" y1="30" x2="594.45" y2="63.16"/>
    <line class="cls-2" x1="286.71" y1="128.71" x2="88.04" y2="161.16"/>
    <polyline class="cls-2" points="661.34 67.53 758.01 51.74 758.02 51.74"/>
    <line class="cls-2" x1="179.1" y1="128.18" x2="58.97" y2="138.25"/>
    <line class="cls-2" x1="781.24" y1="77.71" x2="698.99" y2="84.6"/>
    <line class="cls-2" x1="125.21" y1="110.58" x2="35.48" y2="111.06"/>
    <line class="cls-2" x1="799.14" y1="106.98" x2="724.85" y2="107.37"/>
    <line class="cls-2" x1="95.77" y1="86.35" x2="17.81" y2="80.65"/>
    <line class="cls-2" x1="811.38" y1="138.63" x2="675.65" y2="128.71"/>
    <line class="cls-2" x1="105.48" y1="63.16" x2="6.18" y2="48.03"/>
    <line class="cls-2" x1="817.73" y1="171.67" x2="535.79" y2="128.71"/>
    <line class="cls-2" x1="758.69" y1="191.25" x2="490.97" y2="128.71"/>
    <line class="cls-2" x1="210.3" y1="63.16" x2=".71" y2="14.2"/>
    <line class="cls-2" x1="262.43" y1="63.16" x2="65.69" y2=".62"/>
    <line class="cls-2" x1="665.45" y1="191.25" x2="468.71" y2="128.71"/>
    <line class="cls-2" x1="293.91" y1="63.16" x2="140.04" y2=".62"/>
    <line class="cls-2" x1="609.1" y1="191.25" x2="455.23" y2="128.71"/>
    <line class="cls-2" x1="315.23" y1="63.16" x2="190.35" y2=".62"/>
    <line class="cls-2" x1="571.01" y1="191.25" x2="446.14" y2="128.71"/>
    <line class="cls-2" x1="330.77" y1="63.16" x2="227.04" y2=".62"/>
    <line class="cls-2" x1="543.22" y1="191.25" x2="439.51" y2="128.71"/>
    <line class="cls-2" x1="342.72" y1="63.16" x2="255.27" y2=".62"/>
    <line class="cls-2" x1="521.83" y1="191.25" x2="434.38" y2="128.71"/>
    <line class="cls-2" x1="352.3" y1="63.16" x2="277.93" y2=".62"/>
    <line class="cls-2" x1="504.66" y1="191.25" x2="430.29" y2="128.71"/>
    <line class="cls-2" x1="360.26" y1="63.16" x2="296.72" y2=".62"/>
    <line class="cls-2" x1="490.42" y1="191.25" x2="426.87" y2="128.71"/>
    <line class="cls-2" x1="367.05" y1="63.16" x2="312.73" y2=".62"/>
    <line class="cls-2" x1="478.3" y1="191.25" x2="423.98" y2="128.71"/>
    <line class="cls-2" x1="372.96" y1="63.16" x2="326.7" y2=".62"/>
    <line class="cls-2" x1="467.72" y1="191.25" x2="421.46" y2="128.71"/>
    <line class="cls-2" x1="378.22" y1="63.16" x2="339.14" y2=".62"/>
    <line class="cls-2" x1="458.29" y1="191.25" x2="419.2" y2="128.71"/>
    <line class="cls-2" x1="383" y1="63.16" x2="350.43" y2=".62"/>
    <line class="cls-2" x1="449.74" y1="191.25" x2="417.17" y2="128.71"/>
    <line class="cls-2" x1="387.39" y1="63.16" x2="360.8" y2=".62"/>
    <line class="cls-2" x1="441.87" y1="191.25" x2="415.28" y2="128.71"/>
    <line class="cls-2" x1="391.51" y1="63.16" x2="370.53" y2=".62"/>
    <line class="cls-2" x1="434.5" y1="191.25" x2="413.52" y2="128.71"/>
    <line class="cls-2" x1="395.42" y1="63.16" x2="379.76" y2=".62"/>
    <line class="cls-2" x1="427.51" y1="191.25" x2="411.85" y2="128.71"/>
    <line class="cls-2" x1="399.18" y1="63.16" x2="388.62" y2=".62"/>
    <line class="cls-2" x1="420.81" y1="191.25" x2="410.25" y2="128.71"/>
    <line class="cls-2" x1="402.83" y1="63.16" x2="397.26" y2=".62"/>
    <line class="cls-2" x1="414.26" y1="191.25" x2="408.68" y2="128.71"/>
  </g>
  <g>
    <path class="cls-1" d="m822.07.18v129.3c-.05-.49-.09-.99-.15-1.49-.48-4.81-1.21-9.55-2.18-14.21-.72-3.54-1.57-7.04-2.56-10.48-2.36-8.2-5.43-16.12-9.15-23.64-3.8-7.72-8.29-15.03-13.37-21.88-3.22-4.34-6.69-8.49-10.37-12.44l-.07-.07c-2.15-2.3-4.38-4.53-6.68-6.68l-.15-.15-.08-.07h-.01c-6.49-6.04-13.54-11.49-21.06-16.24-7.72-4.88-15.92-9.03-24.53-12.37-7.28-2.82-14.85-5.07-22.65-6.68-1.74-.35-3.5-.69-5.27-.98h0c-7.66-1.27-15.52-1.94-23.55-1.94h141.84Z"/>
    <line class="cls-1" x1="822.07" y1="17.17" x2="805.07" y2=".18"/>
    <line class="cls-1" x1="822.07" y1="50.15" x2="772.09" y2=".18"/>
    <polyline class="cls-1" points="822.07 83.13 784.29 45.34 784.22 45.27 777.54 38.6 777.39 38.44 777.31 38.37 777.3 38.37 739.11 .18"/>
  </g>
  <g>
    <path class="cls-1" d="m.24,191.25h129.3c-.49-.05-.99-.09-1.49-.15-4.81-.48-9.55-1.21-14.21-2.18-3.54-.72-7.04-1.57-10.48-2.56-8.2-2.36-16.12-5.43-23.64-9.15-7.72-3.8-15.03-8.29-21.88-13.37-4.34-3.22-8.49-6.69-12.44-10.37l-.07-.07c-2.3-2.15-4.53-4.38-6.68-6.68l-.15-.15-.07-.08h0c-6.04-6.5-11.49-13.55-16.24-21.07-4.88-7.72-9.03-15.92-12.37-24.53-2.82-7.28-5.07-14.85-6.68-22.65-.35-1.74-.69-3.5-.98-5.27h0c-1.27-7.67-1.94-15.53-1.94-23.56v141.84Z"/>
    <line class="cls-1" x1=".24" y1="174.25" x2="17.23" y2="191.25"/>
    <line class="cls-1" x1=".24" y1="141.27" x2="50.21" y2="191.25"/>
    <polyline class="cls-1" points=".24 108.29 38.43 146.48 38.43 146.49 38.5 146.57 38.66 146.72 45.33 153.4 45.4 153.47 83.19 191.25"/>
  </g>
  <line class="cls-1" x1="822.07" y1="116.11" x2="819.74" y2="113.78"/>
</svg>