<?xml version="1.0" encoding="UTF-8"?>
<svg id="Layer_1" data-name="Layer 1" xmlns="http://www.w3.org/2000/svg" viewBox="0 0 302.87 58.26">
  <defs>
    <style>
      .cls-1 {
        opacity: .3;
      }

      .cls-2 {
        fill: none;
        stroke: #fff;
        stroke-miterlimit: 10;
        stroke-width: .73px;
      }

      .cls-3 {
        fill: #fff;
      }
    </style>
  </defs>
  <g>
    <rect class="cls-3" x="15.53" y=".22" width="271.84" height="41.53"/>
    <g>
      <g>
        <g>
          <g>
            <g class="cls-1">
              <path class="cls-3" d="m298.44,32.03c-.77.45-1.74-.11-1.74-1V11.73c0-.89.97-1.45,1.74-1v21.31Z"/>
            </g>
            <path class="cls-3" d="m298.53,32.19c-.42.24-.92.24-1.34,0-.42-.24-.67-.67-.67-1.16V11.73c0-.48.25-.92.67-1.16.42-.24.92-.24,1.34,0v21.61Zm-.18-21.31c-.31-.18-.68-.18-.98,0-.31.18-.49.5-.49.85v19.3c0,.36.18.67.49.85.31.18.68.18.98,0V10.88Z"/>
          </g>
          <g>
            <g>
              <path class="cls-3" d="m302.06,12.03l.8-.22-.8.22Z"/>
              <path class="cls-3" d="m301.92,12.01l.96-.26-.96.26Zm.94-.14l-.65.18.65-.18Z"/>
            </g>
            <g>
              <polygon class="cls-3" points="302.18 11.39 301.19 10.82 300.36 11.05 301.49 11.69 302.32 11.46 302.18 11.39"/>
              <path class="cls-3" d="m302.47,11.48l-.99.27-1.27-.72.98-.27,1.27.72Zm-.97.15l.67-.18h-.01s-.97-.56-.97-.56l-.67.18.99.56Z"/>
            </g>
            <g>
              <polygon class="cls-3" points="300.48 10.41 300.11 10.2 299.28 10.43 299.78 10.71 300.61 10.49 300.48 10.41"/>
              <path class="cls-3" d="m300.76,10.51l-.99.27-.64-.37.98-.27.64.36Zm-.97.15l.67-.18h-.01s-.35-.21-.35-.21l-.67.18.36.21Z"/>
            </g>
          </g>
          <g>
            <g>
              <path class="cls-3" d="m302.06,30.61l.8.22-.8-.22Z"/>
              <path class="cls-3" d="m302.87,30.89l-.96-.26.96.26Zm-.66-.3l.65.18-.65-.18Z"/>
            </g>
            <g>
              <polygon class="cls-3" points="302.18 31.25 301.19 31.82 300.36 31.59 301.49 30.95 302.32 31.18 302.18 31.25"/>
              <path class="cls-3" d="m301.2,31.88l-.98-.27,1.27-.72.99.27-1.27.72Zm-.69-.31l.67.18.97-.56h.01s-.67-.19-.67-.19l-.99.56Z"/>
            </g>
            <g>
              <polygon class="cls-3" points="300.48 32.23 300.11 32.44 299.28 32.21 299.78 31.93 300.61 32.15 300.48 32.23"/>
              <path class="cls-3" d="m300.12,32.5l-.98-.27.64-.37.99.27-.64.36Zm-.69-.31l.67.18.35-.2h.01s-.67-.19-.67-.19l-.36.21Z"/>
            </g>
          </g>
        </g>
        <g>
          <polygon class="cls-3" points="292.52 .57 292.64 .44 296.6 4.41 296.6 10.03 296.43 10.03 296.43 4.48 292.52 .57"/>
          <polygon class="cls-3" points="296.52 8.7 297.18 8.04 297.18 5.73 296.59 5.13 296.52 8.7"/>
          <path class="cls-3" d="m292.46,0c.28,0,.51.23.51.51s-.23.51-.51.51-.51-.23-.51-.51.23-.51.51-.51Z"/>
        </g>
        <g>
          <polygon class="cls-3" points="292.51 41.83 296.43 37.92 296.43 32.37 296.6 32.37 296.6 37.99 292.63 41.95 292.51 41.83"/>
          <polygon class="cls-3" points="296.51 33.69 297.17 34.36 297.17 36.67 296.58 37.26 296.51 33.69"/>
          <path class="cls-3" d="m292.45,42.4c.28,0,.5-.23.5-.51s-.23-.51-.5-.51-.51.23-.51.51.23.51.51.51Z"/>
        </g>
        <path class="cls-3" d="m287.34.22l6.63,6.63v28.12l-6.67,6.67v-10.76l1.69-1.69v-15.49l-1.66-1.66s.12-11.93,0-11.82Z"/>
      </g>
      <polygon class="cls-3" points="286.22 34.06 284.12 31.97 284.12 9.94 286.18 7.88 286.32 8.02 284.32 10.02 284.32 31.89 286.36 33.93 286.22 34.06"/>
    </g>
    <g>
      <g>
        <g>
          <g>
            <g class="cls-1">
              <path class="cls-3" d="m4.44,10.36c.77-.45,1.74.11,1.74,1v19.3c0,.89-.97,1.45-1.74,1V10.36Z"/>
            </g>
            <path class="cls-3" d="m4.35,10.21c.42-.24.92-.24,1.34,0,.42.24.67.67.67,1.16v19.3c0,.48-.25.92-.67,1.16-.42.24-.92.24-1.34,0V10.21Zm.18,21.31c.31.18.68.18.98,0,.31-.18.49-.5.49-.85V11.37c0-.36-.18-.67-.49-.85-.31-.18-.68-.18-.98,0v21Z"/>
          </g>
          <g>
            <g>
              <path class="cls-3" d="m.81,30.37l-.8.22.8-.22Z"/>
              <path class="cls-3" d="m.96,30.39l-.96.26.96-.26Zm-.94.14l.65-.18-.65.18Z"/>
            </g>
            <g>
              <polygon class="cls-3" points=".69 31.01 1.68 31.57 2.51 31.35 1.38 30.71 .55 30.93 .69 31.01"/>
              <path class="cls-3" d="m.4,30.91l.99-.27,1.27.72-.98.27-1.27-.72Zm.97-.15l-.67.18h.01s.97.56.97.56l.67-.18-.99-.56Z"/>
            </g>
            <g>
              <polygon class="cls-3" points="2.4 31.98 2.76 32.19 3.59 31.97 3.09 31.68 2.26 31.91 2.4 31.98"/>
              <path class="cls-3" d="m2.11,31.89l.99-.27.64.37-.98.27-.64-.36Zm.97-.15l-.67.18h.01s.35.21.35.21l.67-.18-.36-.21Z"/>
            </g>
          </g>
          <g>
            <g>
              <path class="cls-3" d="m.81,11.79L0,11.57l.8.22Z"/>
              <path class="cls-3" d="m0,11.51l.96.26-.96-.26Zm.66.3l-.65-.18.65.18Z"/>
            </g>
            <g>
              <polygon class="cls-3" points=".69 11.14 1.68 10.58 2.51 10.8 1.38 11.45 .55 11.22 .69 11.14"/>
              <path class="cls-3" d="m1.67,10.52l.98.27-1.27.72-.99-.27,1.27-.72Zm.69.31l-.67-.18-.97.56h-.01s.67.19.67.19l.99-.56Z"/>
            </g>
            <g>
              <polygon class="cls-3" points="2.4 10.17 2.76 9.96 3.59 10.18 3.09 10.47 2.26 10.24 2.4 10.17"/>
              <path class="cls-3" d="m2.75,9.9l.98.27-.64.37-.99-.27.64-.36Zm.69.31l-.67-.18-.35.2h-.01s.67.19.67.19l.36-.21Z"/>
            </g>
          </g>
        </g>
        <g>
          <polygon class="cls-3" points="10.35 41.83 10.23 41.95 6.27 37.99 6.27 32.37 6.44 32.37 6.44 37.92 10.35 41.83"/>
          <polygon class="cls-3" points="6.36 33.69 5.69 34.36 5.69 36.67 6.29 37.26 6.36 33.69"/>
          <path class="cls-3" d="m10.41,42.4c-.28,0-.51-.23-.51-.51s.23-.51.51-.51.51.23.51.51-.23.51-.51.51Z"/>
        </g>
        <g>
          <polygon class="cls-3" points="10.36 .57 6.45 4.48 6.45 10.03 6.28 10.03 6.28 4.41 10.24 .44 10.36 .57"/>
          <polygon class="cls-3" points="6.36 8.7 5.7 8.04 5.7 5.73 6.29 5.13 6.36 8.7"/>
          <path class="cls-3" d="m10.42,0c-.28,0-.51.23-.51.51s.23.51.51.51.51-.23.51-.51-.23-.51-.51-.51Z"/>
        </g>
        <path class="cls-3" d="m15.54,42.17l-6.63-6.63V7.42L15.58.75v10.76l-1.69,1.69v15.49l1.66,1.66s-.12,11.93,0,11.82Z"/>
      </g>
      <polygon class="cls-3" points="16.66 8.33 18.75 10.43 18.75 32.45 16.69 34.52 16.55 34.38 18.56 32.37 18.56 10.51 16.52 8.47 16.66 8.33"/>
    </g>
    <g>
      <path class="cls-3" d="m42.67,38.38c0-.67.55-1.22,1.22-1.22s1.22.55,1.22,1.22-.55,1.22-1.22,1.22-1.22-.55-1.22-1.22Z"/>
      <path class="cls-3" d="m70.95,38.38c0-.67.55-1.22,1.22-1.22s1.22.55,1.22,1.22-.55,1.22-1.22,1.22-1.22-.55-1.22-1.22Z"/>
      <path class="cls-3" d="m257.94,38.38c0-.67.55-1.22,1.22-1.22s1.22.55,1.22,1.22-.55,1.22-1.22,1.22-1.22-.55-1.22-1.22Z"/>
    </g>
    <polygon class="cls-3" points="46 44.5 41.84 44.5 36.79 39.46 17.65 39.46 17.65 39.16 36.91 39.16 41.96 44.21 46 44.21 46 44.5"/>
    <polygon class="cls-3" points="38.94 42.26 36.57 39.89 22.26 39.89 22.26 38.73 37.05 38.73 39.77 41.44 38.94 42.26"/>
    <g>
      <polygon class="cls-3" points="261.22 44.5 257.06 44.5 257.06 44.21 261.1 44.21 266.15 39.16 285.24 39.16 285.24 39.46 266.27 39.46 261.22 44.5"/>
      <polygon class="cls-3" points="264.12 42.26 263.29 41.44 266.01 38.73 280.81 38.73 280.81 39.89 266.49 39.89 264.12 42.26"/>
    </g>
    <rect class="cls-3" x="17.36" y="1.72" width="267.26" height=".29"/>
  </g>

</svg>