<?xml version="1.0" encoding="UTF-8"?>
<svg id="Layer_1" data-name="Layer 1" xmlns="http://www.w3.org/2000/svg" viewBox="0 0 117.78 25">
  <defs>
    <style>
      .cls-1 {
        opacity: .3;
      }

      .cls-2 {
        opacity: .1;
      }

      .cls-2, .cls-3 {
        fill: #fcfcfc;
      }
    </style>
  </defs>
  <rect class="cls-2" x="8.72" y=".13" width="100.35" height="23.33"/>
  <g>
    <g class="cls-1">
      <path class="cls-3" d="m115.29,18c-.43.25-.98-.06-.98-.56V6.59c0-.5.54-.82.98-.56v11.97Z"/>
    </g>
    <path class="cls-3" d="m115.34,18.08c-.24.14-.52.14-.75,0-.24-.14-.38-.38-.38-.65V6.59c0-.27.14-.51.38-.65.24-.14.52-.14.75,0v12.14Zm-.1-11.97c-.17-.1-.38-.1-.55,0-.17.1-.28.28-.28.48v10.84c0,.2.1.38.28.48.17.1.38.1.55,0V6.11Z"/>
  </g>
  <g>
    <path class="cls-3" d="m117.32,6.76l.45-.12-.45.12Z"/>
    <path class="cls-3" d="m117.24,6.75l.54-.15-.54.15Zm.53-.08l-.36.1.36-.1Z"/>
  </g>
  <path class="cls-3" d="m117.55,6.45l-.56.15-.71-.41.55-.15.71.41Zm-.55.08l.38-.1h0s-.55-.32-.55-.32l-.38.1.55.32Z"/>
  <g>
    <polygon class="cls-3" points="116.43 5.85 116.23 5.73 115.76 5.86 116.04 6.02 116.51 5.89 116.43 5.85"/>
    <path class="cls-3" d="m116.59,5.9l-.56.15-.36-.21.55-.15.36.2Zm-.55.08l.38-.1h0s-.19-.12-.19-.12l-.38.1.2.12Z"/>
  </g>
  <g>
    <path class="cls-3" d="m117.32,17.2l.45.12-.45-.12Z"/>
    <path class="cls-3" d="m117.78,17.35l-.54-.15.54.15Zm-.37-.17l.36.1-.36-.1Z"/>
  </g>
  <path class="cls-3" d="m116.84,17.91l-.55-.15.71-.41.56.15-.71.41Zm-.39-.17l.38.1.55-.31h0s-.38-.11-.38-.11l-.55.32Z"/>
  <polygon class="cls-3" points="116.23 18.26 115.68 18.11 116.04 17.9 116.59 18.05 116.23 18.26"/>
  <g>
    <polygon class="cls-3" points="111.96 .32 112.03 .25 114.25 2.48 114.25 5.63 114.16 5.63 114.16 2.52 111.96 .32"/>
    <polygon class="cls-3" points="114.21 4.89 114.58 4.52 114.58 3.22 114.24 2.88 114.21 4.89"/>
    <path class="cls-3" d="m111.93,0c.16,0,.28.13.28.28s-.13.28-.28.28-.28-.13-.28-.28.13-.28.28-.28Z"/>
  </g>
  <g>
    <polygon class="cls-3" points="111.96 23.5 114.16 21.3 114.16 18.18 114.25 18.18 114.25 21.34 112.02 23.57 111.96 23.5"/>
    <polygon class="cls-3" points="114.2 18.93 114.58 19.3 114.58 20.6 114.24 20.93 114.2 18.93"/>
    <path class="cls-3" d="m111.92,23.82c.16,0,.28-.13.28-.28s-.13-.28-.28-.28-.28.13-.28.28.13.28.28.28Z"/>
  </g>
  <path class="cls-3" d="m109.05.13l3.73,3.73v15.8l-3.75,3.75v-6.05l.95-.95V7.7l-.93-.93s.07-6.7,0-6.64Z"/>
  <polygon class="cls-3" points="108.42 19.14 107.24 17.96 107.24 5.58 108.4 4.43 108.48 4.5 107.35 5.63 107.35 17.91 108.5 19.06 108.42 19.14"/>
  <g>
    <g class="cls-1">
      <path class="cls-3" d="m2.49,5.82c.43-.25.98.06.98.56v10.84c0,.5-.54.82-.98.56V5.82Z"/>
    </g>
    <path class="cls-3" d="m2.44,5.73c.24-.14.52-.14.75,0,.24.14.38.38.38.65v10.84c0,.27-.14.51-.38.65-.24.14-.52.14-.75,0V5.73Zm.1,11.97c.17.1.38.1.55,0,.17-.1.28-.28.28-.48V6.38c0-.2-.1-.38-.28-.48-.17-.1-.38-.1-.55,0v11.8Z"/>
  </g>
  <g>
    <path class="cls-3" d="m.45,17.06l-.45.12.45-.12Z"/>
    <path class="cls-3" d="m.54,17.07l-.54.15.54-.15Zm-.53.08l.36-.1-.36.1Z"/>
  </g>
  <path class="cls-3" d="m.23,17.37l.56-.15.71.41-.55.15-.71-.41Zm.55-.08l-.38.1h0s.55.32.55.32l.38-.1-.55-.32Z"/>
  <path class="cls-3" d="m1.18,17.91l.56-.15.36.21-.55.15-.36-.2Zm.55-.08l-.38.1h0s.19.12.19.12l.38-.1-.2-.12Z"/>
  <g>
    <path class="cls-3" d="m.45,6.62l-.45-.12.45.12Z"/>
    <path class="cls-3" d="m0,6.46l.54.15-.54-.15Zm.37.17l-.36-.1.36.1Z"/>
  </g>
  <path class="cls-3" d="m.94,5.91l.55.15-.71.41-.56-.15.71-.41Zm.39.17l-.38-.1-.55.31h0s.38.11.38.11l.55-.32Z"/>
  <path class="cls-3" d="m1.55,5.56l.55.15-.36.21-.56-.15.36-.2Zm.39.17l-.38-.1-.19.11h0s.38.11.38.11l.2-.12Z"/>
  <g>
    <polygon class="cls-3" points="5.82 23.5 5.75 23.57 3.52 21.34 3.52 18.18 3.62 18.18 3.62 21.3 5.82 23.5"/>
    <polygon class="cls-3" points="3.57 18.93 3.2 19.3 3.2 20.6 3.53 20.93 3.57 18.93"/>
    <path class="cls-3" d="m5.85,23.82c-.16,0-.28-.13-.28-.28s.13-.28.28-.28.28.13.28.28-.13.28-.28.28Z"/>
  </g>
  <g>
    <polygon class="cls-3" points="5.82 .32 3.62 2.52 3.62 5.63 3.53 5.63 3.53 2.48 5.75 .25 5.82 .32"/>
    <polygon class="cls-3" points="3.57 4.89 3.2 4.52 3.2 3.22 3.54 2.88 3.57 4.89"/>
    <path class="cls-3" d="m5.85,0c-.16,0-.28.13-.28.28s.13.28.28.28.28-.13.28-.28-.13-.28-.28-.28Z"/>
  </g>
  <path class="cls-3" d="m8.73,23.69l-3.73-3.73V4.17L8.75.42v6.05l-.95.95v8.7l.93.93s-.07,6.7,0,6.64Z"/>
  <polygon class="cls-3" points="9.36 4.68 10.54 5.86 10.54 18.23 9.38 19.39 9.3 19.31 10.43 18.19 10.43 5.9 9.28 4.76 9.36 4.68"/>
  <g>
    <path class="cls-3" d="m53.96,21.56c0-.38.31-.69.69-.69s.69.31.69.69-.31.69-.69.69-.69-.31-.69-.69Z"/>
    <path class="cls-3" d="m58.2,21.56c0-.38.31-.69.69-.69s.69.31.69.69-.31.69-.69.69-.69-.31-.69-.69Z"/>
    <path class="cls-3" d="m62.45,21.56c0-.38.31-.69.69-.69s.69.31.69.69-.31.69-.69.69-.69-.31-.69-.69Z"/>
  </g>
  <polygon class="cls-3" points="55.83 25 53.49 25 50.66 22.16 9.91 22.16 9.91 22 50.73 22 53.56 24.84 55.83 24.84 55.83 25"/>
  <polygon class="cls-3" points="51.87 23.74 50.54 22.41 42.49 22.41 42.49 21.76 50.81 21.76 52.33 23.28 51.87 23.74"/>
  <g>
    <polygon class="cls-3" points="64.29 25 61.95 25 61.95 24.84 64.22 24.84 67.06 22 107.87 22 107.87 22.16 67.12 22.16 64.29 25"/>
    <polygon class="cls-3" points="65.91 23.74 65.45 23.28 66.98 21.76 75.29 21.76 75.29 22.41 67.25 22.41 65.91 23.74"/>
  </g>
  <rect class="cls-3" x="9.75" y=".97" width="97.77" height=".16"/>
</svg>