<?xml version="1.0" encoding="UTF-8"?>
<svg id="Layer_1" data-name="Layer 1" xmlns="http://www.w3.org/2000/svg" viewBox="0 0 43.48 24.01">
  <defs>
    <style>
      .cls-1 {
        opacity: .3;
      }

      .cls-2 {
        fill: #ffed00;
      }
    </style>
  </defs>
  <g>
    <g>
      <g class="cls-1">
        <path class="cls-2" d="m21.39.71c.42-.73,1.47-.73,1.89,0l4.54,7.86,4.54,7.86c.42.73-.1,1.64-.94,1.64H13.26c-.84,0-1.36-.91-.94-1.64l4.54-7.86L21.39.71Z"/>
      </g>
      <g>
        <polygon class="cls-2" points="23.26 12.8 21.4 12.8 21.22 9.9 21.22 4.31 23.44 4.31 23.44 9.93 23.26 12.8"/>
        <rect class="cls-2" x="21.25" y="13.31" width="2.17" height="2.17"/>
      </g>
      <path class="cls-2" d="m31.4,18.23H13.26c-.45,0-.86-.23-1.09-.63-.23-.39-.23-.86,0-1.26L21.24.63c.23-.39.63-.63,1.09-.63h0c.45,0,.86.23,1.09.63l9.07,15.71c.23.39.23.86,0,1.26-.23.39-.63.63-1.09.63ZM21.39.71l.14.08-9.07,15.71c-.17.29-.17.63,0,.92.17.29.47.46.8.46h18.14c.33,0,.63-.17.8-.46.17-.29.17-.63,0-.92L23.13.79c-.17-.29-.47-.46-.8-.46s-.63.17-.8.46l-.14-.08Z"/>
    </g>
    <g>
      <g>
        <path class="cls-2" d="m18.1,3.4c-.08-.05-.11-.15-.06-.23.05-.08.15-.11.23-.06.08.05.11.15.06.23-.05.08-.15.11-.23.06Z"/>
        <path class="cls-2" d="m17.99,3.14c.06-.11.2-.14.3-.08.11.06.14.2.08.3-.06.11-.2.14-.3.08-.11-.06-.14-.2-.08-.3Zm.29.17c.03-.05.01-.13-.04-.16-.05-.03-.13-.01-.16.04-.03.05-.01.13.04.16.05.03.13.01.16-.04Z"/>
      </g>
      <g>
        <polygon class="cls-2" points="13.54 13.02 13.33 12.26 15.1 9.18 14.92 8.53 17 4.89 17.69 4.7 18.09 4.02 18.83 3.81 13.54 13.02"/>
        <path class="cls-2" d="m14.86,8.52l2.1-3.68.69-.19.39-.69.89-.24-.06.11-5.36,9.31-.24-.9,1.76-3.08-.18-.65Zm2.18-3.59l-2.06,3.6.18.65-1.76,3.08.17.61,5.16-8.98-.59.16-.39.69-.69.19Z"/>
      </g>
      <g>
        <polygon class="cls-2" points="19.03 1.67 18.16 3.19 18.25 3.24 19.09 1.75 20.18 1.46 20.15 1.36 19.03 1.67"/>
        <polygon class="cls-2" points="18.09 3.21 18.99 1.62 20.19 1.3 20.24 1.5 19.13 1.8 18.27 3.31 18.09 3.21"/>
      </g>
      <g>
        <polygon class="cls-2" points="12.94 12.9 12.4 13.84 12.61 14.61 13.22 13.56 13.01 12.78 12.94 12.9"/>
        <path class="cls-2" d="m13.02,12.63l.25.93-.68,1.19-.25-.92.68-1.2Zm.14.91l-.17-.63h0s-.52.93-.52.93l.17.63.53-.93Z"/>
      </g>
      <g>
        <polygon class="cls-2" points="12.02 14.51 11.82 14.85 12.03 15.63 12.3 15.16 12.09 14.38 12.02 14.51"/>
        <path class="cls-2" d="m12.11,14.24l.25.93-.34.6-.25-.92.34-.61Zm.14.91l-.17-.63h0s-.19.34-.19.34l.17.63.19-.34Z"/>
      </g>
    </g>
    <g>
      <g>
        <path class="cls-2" d="m26.45,3.4c.08-.05.11-.15.06-.23-.05-.08-.15-.11-.23-.06s-.11.15-.06.23c.05.08.15.11.23.06Z"/>
        <path class="cls-2" d="m26.47,3.44c-.11.06-.24.02-.3-.08-.06-.11-.02-.24.08-.3.11-.06.24-.02.3.08.06.11.02.24-.08.3Zm-.05-.09c.05-.03.07-.1.04-.16-.03-.05-.1-.07-.16-.04-.05.03-.07.1-.04.16.03.05.1.07.16.04Z"/>
      </g>
      <g>
        <polygon class="cls-2" points="31.01 13.02 31.21 12.26 29.45 9.18 29.63 8.53 27.54 4.89 26.85 4.7 26.46 4.02 25.72 3.81 31.01 13.02"/>
        <path class="cls-2" d="m29.51,9.17l1.76,3.08-.24.9-5.36-9.31-.06-.11.89.24.39.69.69.19,2.1,3.68-.18.65Zm-2.69-4.42l-.39-.69-.59-.16,5.16,8.98.17-.61-1.76-3.08.18-.65-2.06-3.6-.69-.19Z"/>
      </g>
      <g>
        <polygon class="cls-2" points="25.52 1.67 26.39 3.19 26.3 3.24 25.45 1.75 24.37 1.46 24.39 1.36 25.52 1.67"/>
        <polygon class="cls-2" points="26.46 3.21 25.55 1.62 24.36 1.3 24.3 1.5 25.41 1.8 26.28 3.31 26.46 3.21"/>
      </g>
      <g>
        <polygon class="cls-2" points="31.61 12.9 32.14 13.84 31.93 14.61 31.33 13.56 31.54 12.78 31.61 12.9"/>
        <path class="cls-2" d="m32.2,13.83l-.25.92-.68-1.19.25-.93.68,1.2Zm-.29.65l.17-.63-.52-.91h0s-.17.62-.17.62l.53.93Z"/>
      </g>
      <g>
        <polygon class="cls-2" points="32.53 14.51 32.72 14.85 32.51 15.63 32.24 15.16 32.46 14.38 32.53 14.51"/>
        <path class="cls-2" d="m32.78,14.84l-.25.92-.34-.6.25-.93.34.61Zm-.29.65l.17-.63-.19-.32h0s-.17.62-.17.62l.19.34Z"/>
      </g>
    </g>
  </g>
  <g>
    <path class="cls-2" d="m12.78,19.61l-.83,4.27h-2.28c-.21-.66-.39-1.41-.54-2.24-.07.36-.25,1.11-.52,2.24h-2.27s-.8-4.28-.8-4.28h1.78s.19,1.49.19,1.49l.18,1.44c.07-.75.24-1.72.52-2.93h1.9c.02.13.09.6.19,1.41l.2,1.63c.11-1.03.28-2.04.52-3.03h1.78Z"/>
    <path class="cls-2" d="m16.22,19.62l1.03,4.27h-1.87s-.09-.77-.09-.77h-.65s-.11.77-.11.77h-1.89s.95-4.27.95-4.27h2.64Zm-.98,2.75c-.09-.48-.18-1.08-.27-1.79-.19.82-.31,1.42-.36,1.79h.63Z"/>
    <path class="cls-2" d="m17.58,19.62h1.3c.86,0,1.45.02,1.75.07.31.04.55.14.75.31.19.17.29.43.29.8,0,.33-.07.56-.21.67-.14.11-.4.18-.8.2.36.06.6.13.73.22.12.09.2.18.23.25.03.08.04.29.04.63v1.13s-1.7,0-1.7,0v-1.42c0-.23-.02-.37-.08-.42-.06-.05-.21-.08-.47-.08v1.93s-1.84,0-1.84,0l.02-4.27Zm1.83.73v.95c.2,0,.35-.02.43-.05.08-.03.12-.15.13-.33v-.23c0-.14-.04-.22-.12-.27-.08-.04-.23-.06-.44-.06Z"/>
    <path class="cls-2" d="m26.46,19.63l-.02,4.27h-1.6s-.94-1.95-.94-1.95v1.94s-1.54,0-1.54,0l.02-4.27h1.53s1.02,1.93,1.02,1.93v-1.92s1.54,0,1.54,0Z"/>
    <path class="cls-2" d="m29.02,19.64l-.02,4.27h-1.83s.02-4.27.02-4.27h1.83Z"/>
    <path class="cls-2" d="m33.84,19.65l-.02,4.27h-1.6s-.94-1.95-.94-1.95v1.94s-1.54,0-1.54,0l.02-4.27h1.53s1.02,1.93,1.02,1.93v-1.92s1.54,0,1.54,0Z"/>
    <path class="cls-2" d="m38.77,21.23h-1.83s0-.39,0-.39c0-.24-.02-.4-.05-.46-.03-.06-.12-.09-.25-.09-.11,0-.19.03-.23.08-.04.05-.06.19-.06.41v2.05c0,.19.01.32.05.38.04.06.12.09.24.09.13,0,.22-.03.27-.1.05-.07.07-.2.07-.4v-.51s-.37,0-.37,0v-.65s2.15,0,2.15,0v2.29s-1.16,0-1.16,0l-.17-.31c-.13.13-.28.23-.47.3-.19.07-.41.1-.67.1-.31,0-.6-.05-.86-.14-.27-.09-.47-.2-.61-.34-.14-.13-.23-.27-.26-.42-.03-.15-.05-.37-.05-.66v-1.27c0-.41.04-.7.12-.89.07-.18.28-.35.63-.51.34-.15.79-.23,1.33-.23.54,0,.98.07,1.33.2.35.13.58.29.69.48.11.18.16.45.16.8v.18Z"/>
  </g>
  <g>
    <polygon class="cls-2" points=".53 21.37 .42 21.25 4.14 17.53 9.43 17.53 9.43 17.69 4.21 17.69 .53 21.37"/>
    <polygon class="cls-2" points="8.18 17.61 7.56 16.98 5.38 16.98 4.82 17.54 8.18 17.61"/>
    <path class="cls-2" d="m0,21.42c0-.26.21-.47.47-.47s.47.21.47.47-.21.47-.47.47-.47-.21-.47-.47Z"/>
  </g>
  <g>
    <polygon class="cls-2" points="42.95 21.37 39.27 17.69 34.05 17.69 34.05 17.53 39.34 17.53 43.06 21.25 42.95 21.37"/>
    <polygon class="cls-2" points="35.3 17.61 35.92 16.98 38.1 16.98 38.66 17.54 35.3 17.61"/>
    <path class="cls-2" d="m43.48,21.42c0-.26-.21-.47-.47-.47s-.47.21-.47.47.21.47.47.47.47-.21.47-.47Z"/>
  </g>
</svg>